<?xml version="1.0" encoding="us-ascii" standalone="no"?><svg xmlns="http://www.w3.org/2000/svg" xmlns:xlink="http://www.w3.org/1999/xlink" contentStyleType="text/css" height="199px" preserveAspectRatio="none" style="width:907px;height:199px;background:#FFFFFF;" version="1.1" viewBox="0 0 907 199" width="907px" zoomAndPan="magnify"><defs/><g><!--class ApplicationContextFactory--><g id="elem_ApplicationContextFactory"><rect codeLine="5" fill="#FFFFFF" height="76.5938" id="ApplicationContextFactory" rx="2.5" ry="2.5" style="stroke:#000000;stroke-width:1.0;" width="483" x="303.5" y="12"/><ellipse cx="451.75" cy="26" fill="#FFFFFF" rx="9" ry="9" style="stroke:#000000;stroke-width:1.0;"/><path d="M448.9219,22.5781 L448.9219,20.7969 L455,20.7969 L455,22.5781 L452.9688,22.5781 L452.9688,29.2188 L455,29.2188 L455,31 L448.9219,31 L448.9219,29.2188 L450.9531,29.2188 L450.9531,22.5781 L448.9219,22.5781 Z " fill="#000000"/><text fill="#000000" font-family="Consolas" font-size="14" font-style="italic" lengthAdjust="spacing" textLength="179" x="469.25" y="30.8467">ApplicationContextFactory</text><line style="stroke:#000000;stroke-width:1.0;" x1="304.5" x2="785.5" y1="40" y2="40"/><line style="stroke:#000000;stroke-width:1.0;" x1="304.5" x2="785.5" y1="48" y2="48"/><ellipse cx="314.5" cy="61.6484" fill="#FFFFFF" rx="3" ry="3" style="stroke:#000000;stroke-width:1.0;"/><text fill="#000000" font-family="Consolas" font-size="14" lengthAdjust="spacing" textLength="459" x="321.5" y="64.9951">createEnvironment(WebApplicationType) ConfigurableEnvironment</text><ellipse cx="314.5" cy="77.9453" fill="#FFFFFF" rx="3" ry="3" style="stroke:#000000;stroke-width:1.0;"/><text fill="#000000" font-family="Consolas" font-size="14" lengthAdjust="spacing" textLength="414" x="321.5" y="81.292">create(WebApplicationType) ConfigurableApplicationContext</text></g><!--class DefaultApplicationContextFactory--><g id="elem_DefaultApplicationContextFactory"><rect codeLine="9" fill="#FFFFFF" height="44" id="DefaultApplicationContextFactory" rx="2.5" ry="2.5" style="stroke:#000000;stroke-width:1.0;" width="256" x="12" y="28.29"/><ellipse cx="25" cy="42.29" fill="#FFFFFF" rx="9" ry="9" style="stroke:#000000;stroke-width:1.0;"/><path d="M27.3906,46.9931 Q26.9063,47.2431 26.375,47.3681 Q25.8594,47.4931 25.2813,47.4931 Q23.2188,47.4931 22.125,46.1337 Q21.0469,44.7744 21.0469,42.1962 Q21.0469,39.6181 22.125,38.2587 Q23.2188,36.8994 25.2813,36.8994 Q25.8594,36.8994 26.3906,37.0244 Q26.9219,37.1494 27.3906,37.3837 L27.3906,39.6337 Q26.875,39.1494 26.375,38.9306 Q25.8906,38.7119 25.375,38.7119 Q24.2656,38.7119 23.7031,39.5869 Q23.1406,40.4619 23.1406,42.1962 Q23.1406,43.915 23.7031,44.8056 Q24.2656,45.6806 25.375,45.6806 Q25.8906,45.6806 26.375,45.4619 Q26.875,45.2275 27.3906,44.7587 L27.3906,46.9931 Z " fill="#000000"/><text fill="#000000" font-family="Consolas" font-size="14" lengthAdjust="spacing" textLength="228" x="37" y="47.1367">DefaultApplicationContextFactory</text><line style="stroke:#000000;stroke-width:1.0;" x1="13" x2="267" y1="56.29" y2="56.29"/><line style="stroke:#000000;stroke-width:1.0;" x1="13" x2="267" y1="64.29" y2="64.29"/></g><!--class ServletWebServerApplicationContextFactory--><g id="elem_ServletWebServerApplicationContextFactory"><rect codeLine="12" fill="#FFFFFF" height="44" id="ServletWebServerApplicationContextFactory" rx="2.5" ry="2.5" style="stroke:#000000;stroke-width:1.0;" width="329" x="195.5" y="148.59"/><ellipse cx="208.5" cy="162.59" fill="#FFFFFF" rx="9" ry="9" style="stroke:#000000;stroke-width:1.0;"/><path d="M210.8906,167.2931 Q210.4063,167.5431 209.875,167.6681 Q209.3594,167.7931 208.7813,167.7931 Q206.7188,167.7931 205.625,166.4338 Q204.5469,165.0744 204.5469,162.4963 Q204.5469,159.9181 205.625,158.5588 Q206.7188,157.1994 208.7813,157.1994 Q209.3594,157.1994 209.8906,157.3244 Q210.4219,157.4494 210.8906,157.6838 L210.8906,159.9338 Q210.375,159.4494 209.875,159.2306 Q209.3906,159.0119 208.875,159.0119 Q207.7656,159.0119 207.2031,159.8869 Q206.6406,160.7619 206.6406,162.4963 Q206.6406,164.215 207.2031,165.1056 Q207.7656,165.9806 208.875,165.9806 Q209.3906,165.9806 209.875,165.7619 Q210.375,165.5275 210.8906,165.0588 L210.8906,167.2931 Z " fill="#000000"/><text fill="#000000" font-family="Consolas" font-size="14" lengthAdjust="spacing" textLength="301" x="220.5" y="167.4367">ServletWebServerApplicationContextFactory</text><line style="stroke:#000000;stroke-width:1.0;" x1="196.5" x2="523.5" y1="176.59" y2="176.59"/><line style="stroke:#000000;stroke-width:1.0;" x1="196.5" x2="523.5" y1="184.59" y2="184.59"/></g><!--class ReactiveWebServerApplicationContextFactory--><g id="elem_ReactiveWebServerApplicationContextFactory"><rect codeLine="15" fill="#FFFFFF" height="44" id="ReactiveWebServerApplicationContextFactory" rx="2.5" ry="2.5" style="stroke:#000000;stroke-width:1.0;" width="341" x="559.5" y="148.59"/><ellipse cx="572.5" cy="162.59" fill="#FFFFFF" rx="9" ry="9" style="stroke:#000000;stroke-width:1.0;"/><path d="M574.8906,167.2931 Q574.4063,167.5431 573.875,167.6681 Q573.3594,167.7931 572.7813,167.7931 Q570.7188,167.7931 569.625,166.4338 Q568.5469,165.0744 568.5469,162.4963 Q568.5469,159.9181 569.625,158.5588 Q570.7188,157.1994 572.7813,157.1994 Q573.3594,157.1994 573.8906,157.3244 Q574.4219,157.4494 574.8906,157.6838 L574.8906,159.9338 Q574.375,159.4494 573.875,159.2306 Q573.3906,159.0119 572.875,159.0119 Q571.7656,159.0119 571.2031,159.8869 Q570.6406,160.7619 570.6406,162.4963 Q570.6406,164.215 571.2031,165.1056 Q571.7656,165.9806 572.875,165.9806 Q573.3906,165.9806 573.875,165.7619 Q574.375,165.5275 574.8906,165.0588 L574.8906,167.2931 Z " fill="#000000"/><text fill="#000000" font-family="Consolas" font-size="14" lengthAdjust="spacing" textLength="313" x="584.5" y="167.4367">ReactiveWebServerApplicationContextFactory</text><line style="stroke:#000000;stroke-width:1.0;" x1="560.5" x2="899.5" y1="176.59" y2="176.59"/><line style="stroke:#000000;stroke-width:1.0;" x1="560.5" x2="899.5" y1="184.59" y2="184.59"/></g><!--link DefaultApplicationContextFactory to ApplicationContextFactory--><g id="link_DefaultApplicationContextFactory_ApplicationContextFactory"><path codeLine="19" d="M268.14,50.29 C272.78,50.29 277.41,50.29 282.04,50.29 " fill="none" id="DefaultApplicationContextFactory-to-ApplicationContextFactory" style="stroke:#000000;stroke-width:1.0;stroke-dasharray:7.0,7.0;"/><polygon fill="none" points="282.02,43.29,302.02,50.29,282.02,57.29,282.02,43.29" style="stroke:#000000;stroke-width:1.0;"/></g><!--reverse link ApplicationContextFactory to ServletWebServerApplicationContextFactory--><g id="link_ApplicationContextFactory_ServletWebServerApplicationContextFactory"><path codeLine="20" d="M468.28,100.35 C442.19,117.03 414.38,134.82 393.48,148.18 " fill="none" id="ApplicationContextFactory-backto-ServletWebServerApplicationContextFactory" style="stroke:#000000;stroke-width:1.0;stroke-dasharray:7.0,7.0;"/><polygon fill="none" points="464.34,93.93,484.96,89.05,471.88,105.72,464.34,93.93" style="stroke:#000000;stroke-width:1.0;"/></g><!--reverse link ApplicationContextFactory to ReactiveWebServerApplicationContextFactory--><g id="link_ApplicationContextFactory_ReactiveWebServerApplicationContextFactory"><path codeLine="21" d="M621.72,100.35 C647.81,117.03 675.62,134.82 696.52,148.18 " fill="none" id="ApplicationContextFactory-backto-ReactiveWebServerApplicationContextFactory" style="stroke:#000000;stroke-width:1.0;stroke-dasharray:7.0,7.0;"/><polygon fill="none" points="618.12,105.72,605.04,89.05,625.66,93.93,618.12,105.72" style="stroke:#000000;stroke-width:1.0;"/></g><!--SRC=[bP1DImCn48RFvbV4MqLO43mNHDjZ3wtWUHhVrQ7PIPYTNQmV_xqf1LqGk-ijv9ttoJEvj5Sqy3aIYsjtB9cK6czi4Siajk5t-9lRGVICchfee-6A2lS-IPiYjOx5e3K5-BkS8mSoJb9ImvijALZIlVzm5zS-ACYma9urIGEnsHEsWyxZFkFgoAtvfLFQnk7i3s2qzLl3VRbGL5l_S5hYdEZtx0RQHrXvxNY2JYgjKUwunzIM6pMgjFgS__srRhfcrPqd_SDz17K0]--></g></svg>