<?xml version="1.0" encoding="us-ascii" standalone="no"?><svg xmlns="http://www.w3.org/2000/svg" xmlns:xlink="http://www.w3.org/1999/xlink" contentStyleType="text/css" height="583px" preserveAspectRatio="none" style="width:1598px;height:583px;background:#FFFFFF;" version="1.1" viewBox="0 0 1598 583" width="1598px" zoomAndPan="magnify"><defs/><g><text fill="#000000" font-family="sans-serif" font-size="14" font-weight="bold" lengthAdjust="spacing" textLength="243" x="676.0625" y="32.9951">@Resource&#33719;&#21462;&#35201;&#27880;&#20837;&#30340;&#36164;&#28304;&#30340;&#27969;&#31243;</text><rect fill="none" height="523.8281" style="stroke:#000000;stroke-width:1.5;" width="1576.125" x="11" y="48.2969"/><path d="M302,48.2969 L302,57.5938 L292,67.5938 L11,67.5938 " fill="none" style="stroke:#000000;stroke-width:1.5;"/><text fill="#000000" font-family="sans-serif" font-size="14" lengthAdjust="spacing" textLength="281" x="14" y="62.292">ResourceElement#getResourceToInject</text><ellipse cx="554.125" cy="87.5938" fill="#222222" rx="10" ry="10" style="stroke:#222222;stroke-width:1.0;"/><polygon fill="#F1F1F1" points="492.125,117.5938,616.125,117.5938,628.125,129.5938,616.125,141.5938,492.125,141.5938,480.125,129.5938,492.125,117.5938" style="stroke:#181818;stroke-width:0.5;"/><text fill="#000000" font-family="sans-serif" font-size="11" lengthAdjust="spacing" textLength="124" x="492.125" y="133.4019">&#26159;&#21542;&#26631;&#27880;&#20102;@Lazy&#27880;&#35299;&#65311;</text><text fill="#000000" font-family="sans-serif" font-size="11" lengthAdjust="spacing" textLength="11" x="469.125" y="126.9995">&#26159;</text><text fill="#000000" font-family="sans-serif" font-size="11" lengthAdjust="spacing" textLength="11" x="628.125" y="126.9995">&#21542;</text><rect fill="#F1F1F1" height="47.9375" rx="12.5" ry="12.5" style="stroke:#181818;stroke-width:0.5;" width="423" x="23" y="151.5938"/><text fill="#000000" font-family="sans-serif" font-size="12" lengthAdjust="spacing" textLength="96" x="37" y="172.7324">&#26500;&#24314;&#24310;&#36831;&#36164;&#28304;&#20195;&#29702;</text><text fill="#000000" font-family="sans-serif" font-size="12" lengthAdjust="spacing" textLength="403" x="33" y="186.7012">CommonAnnotationBeanPostProcessor#buildLazyResourceProxy</text><rect fill="#F1F1F1" height="47.9375" rx="12.5" ry="12.5" style="stroke:#181818;stroke-width:0.5;" width="268" x="100.5" y="234.5313"/><text fill="#000000" font-family="sans-serif" font-size="12" lengthAdjust="spacing" textLength="96" x="114.5" y="255.6699">&#36820;&#22238;&#36164;&#28304;&#20195;&#29702;&#23545;&#35937;</text><text fill="#000000" font-family="sans-serif" font-size="12" lengthAdjust="spacing" textLength="248" x="110.5" y="269.6387">&#65288;&#31532;&#19968;&#27425;&#20351;&#29992;&#26102;&#25165;&#20250;&#35843;&#29992;getResource&#26041;&#27861;&#65289;</text><rect fill="none" height="336.5313" style="stroke:#000000;stroke-width:1.5;" width="1119.125" x="456" y="151.5938"/><path d="M913,151.5938 L913,160.8906 L903,170.8906 L456,170.8906 " fill="none" style="stroke:#000000;stroke-width:1.5;"/><text fill="#000000" font-family="sans-serif" font-size="14" lengthAdjust="spacing" textLength="447" x="459" y="165.5889">&#33719;&#21462;&#36164;&#28304;&#65306;CommonAnnotationBeanPostProcessor#getResource</text><polygon fill="#F1F1F1" points="823.875,187.8906,933.875,187.8906,945.875,199.8906,933.875,211.8906,823.875,211.8906,811.875,199.8906,823.875,187.8906" style="stroke:#181818;stroke-width:0.5;"/><text fill="#000000" font-family="sans-serif" font-size="11" lengthAdjust="spacing" textLength="110" x="823.875" y="203.6987">&#26159;&#21542;&#25351;&#23450;&#20102;JNDI&#21517;&#31216;&#65311;</text><text fill="#000000" font-family="sans-serif" font-size="11" lengthAdjust="spacing" textLength="11" x="800.875" y="197.2964">&#26159;</text><text fill="#000000" font-family="sans-serif" font-size="11" lengthAdjust="spacing" textLength="11" x="945.875" y="197.2964">&#21542;</text><rect fill="#F1F1F1" height="33.9688" rx="12.5" ry="12.5" style="stroke:#181818;stroke-width:0.5;" width="144" x="468" y="221.8906"/><text fill="#000000" font-family="sans-serif" font-size="12" lengthAdjust="spacing" textLength="120" x="482" y="243.0293">&#20174;JNDI&#24037;&#21378;&#20013;&#33719;&#21462;&#36164;&#28304;</text><rect fill="none" height="224.2344" style="stroke:#000000;stroke-width:1.5;" width="931.125" x="632" y="221.8906"/><path d="M1153,221.8906 L1153,231.1875 L1143,241.1875 L632,241.1875 " fill="none" style="stroke:#000000;stroke-width:1.5;"/><text fill="#000000" font-family="sans-serif" font-size="14" lengthAdjust="spacing" textLength="511" x="635" y="235.8857">&#33258;&#21160;&#35013;&#37197;&#36164;&#28304;&#65306;CommonAnnotationBeanPostProcessor#autowireResource</text><polygon fill="#F1F1F1" points="1104.125,258.1875,1357.125,258.1875,1369.125,270.1875,1357.125,282.1875,1104.125,282.1875,1092.125,270.1875,1104.125,258.1875" style="stroke:#181818;stroke-width:0.5;"/><text fill="#000000" font-family="sans-serif" font-size="11" lengthAdjust="spacing" textLength="253" x="1104.125" y="273.9956">&#24037;&#21378;&#31867;&#22411;&#26159;&#21542;&#26159;AutowireCapableBeanFactory&#65311;</text><text fill="#000000" font-family="sans-serif" font-size="11" lengthAdjust="spacing" textLength="11" x="1081.125" y="267.5933">&#26159;</text><text fill="#000000" font-family="sans-serif" font-size="11" lengthAdjust="spacing" textLength="11" x="1369.125" y="267.5933">&#21542;</text><polygon fill="#F1F1F1" points="937.625,292.1875,1058.625,292.1875,1070.625,304.1875,1058.625,316.1875,937.625,316.1875,925.625,304.1875,937.625,292.1875" style="stroke:#181818;stroke-width:0.5;"/><text fill="#000000" font-family="sans-serif" font-size="11" lengthAdjust="spacing" textLength="121" x="937.625" y="307.9956">&#26159;&#21542;&#25351;&#23450;&#20102;&#36164;&#28304;&#30340;&#21517;&#31216;&#65311;</text><text fill="#000000" font-family="sans-serif" font-size="11" lengthAdjust="spacing" textLength="11" x="914.625" y="301.5933">&#26159;</text><text fill="#000000" font-family="sans-serif" font-size="11" lengthAdjust="spacing" textLength="11" x="1070.625" y="301.5933">&#21542;</text><rect fill="#F1F1F1" height="47.9375" rx="12.5" ry="12.5" style="stroke:#181818;stroke-width:0.5;" width="340" x="649.125" y="326.1875"/><text fill="#000000" font-family="sans-serif" font-size="12" lengthAdjust="spacing" textLength="104" x="663.125" y="347.3262">&#36890;&#36807;&#21517;&#31216;&#35299;&#26512;Bean</text><text fill="#000000" font-family="sans-serif" font-size="12" lengthAdjust="spacing" textLength="320" x="659.125" y="361.2949">AutowireCapableBeanFactory#resolveBeanByName</text><rect fill="#F1F1F1" height="47.9375" rx="12.5" ry="12.5" style="stroke:#181818;stroke-width:0.5;" width="336" x="1009.125" y="326.1875"/><text fill="#000000" font-family="sans-serif" font-size="12" lengthAdjust="spacing" textLength="144" x="1023.125" y="347.3262">&#35299;&#26512;&#20381;&#36182;&#25551;&#36848;&#31526;&#23545;&#24212;&#30340;&#20381;&#36182;</text><text fill="#000000" font-family="sans-serif" font-size="12" lengthAdjust="spacing" textLength="316" x="1019.125" y="361.2949">AutowireCapableBeanFactory#resolveDependency</text><polygon fill="#F1F1F1" points="998.125,380.125,1010.125,392.125,998.125,404.125,986.125,392.125,998.125,380.125" style="stroke:#181818;stroke-width:0.5;"/><rect fill="#F1F1F1" height="47.9375" rx="12.5" ry="12.5" style="stroke:#181818;stroke-width:0.5;" width="176" x="1375.125" y="292.1875"/><text fill="#000000" font-family="sans-serif" font-size="12" lengthAdjust="spacing" textLength="152" x="1389.125" y="313.3262">&#26681;&#25454;&#21517;&#31216;&#20174;&#24037;&#21378;&#20013;&#33719;&#21462;Bean</text><text fill="#000000" font-family="sans-serif" font-size="12" lengthAdjust="spacing" textLength="141" x="1385.125" y="327.2949">BeanFactory#getBean</text><polygon fill="#F1F1F1" points="1230.625,410.125,1242.625,422.125,1230.625,434.125,1218.625,422.125,1230.625,410.125" style="stroke:#181818;stroke-width:0.5;"/><polygon fill="#F1F1F1" points="878.875,452.125,890.875,464.125,878.875,476.125,866.875,464.125,878.875,452.125" style="stroke:#181818;stroke-width:0.5;"/><polygon fill="#F1F1F1" points="554.125,494.125,566.125,506.125,554.125,518.125,542.125,506.125,554.125,494.125" style="stroke:#181818;stroke-width:0.5;"/><ellipse cx="554.125" cy="549.125" fill="none" rx="11" ry="11" style="stroke:#222222;stroke-width:1.0;"/><ellipse cx="554.125" cy="549.125" fill="#222222" rx="6" ry="6" style="stroke:#111111;stroke-width:1.0;"/><line style="stroke:#181818;stroke-width:1.0;" x1="234.5" x2="234.5" y1="199.5313" y2="234.5313"/><polygon fill="#181818" points="230.5,224.5313,234.5,234.5313,238.5,224.5313,234.5,228.5313" style="stroke:#181818;stroke-width:1.0;"/><line style="stroke:#181818;stroke-width:1.0;" x1="925.625" x2="819.125" y1="304.1875" y2="304.1875"/><line style="stroke:#181818;stroke-width:1.0;" x1="819.125" x2="819.125" y1="304.1875" y2="326.1875"/><polygon fill="#181818" points="815.125,316.1875,819.125,326.1875,823.125,316.1875,819.125,320.1875" style="stroke:#181818;stroke-width:1.0;"/><line style="stroke:#181818;stroke-width:1.0;" x1="1070.625" x2="1177.125" y1="304.1875" y2="304.1875"/><line style="stroke:#181818;stroke-width:1.0;" x1="1177.125" x2="1177.125" y1="304.1875" y2="326.1875"/><polygon fill="#181818" points="1173.125,316.1875,1177.125,326.1875,1181.125,316.1875,1177.125,320.1875" style="stroke:#181818;stroke-width:1.0;"/><line style="stroke:#181818;stroke-width:1.0;" x1="819.125" x2="819.125" y1="374.125" y2="392.125"/><line style="stroke:#181818;stroke-width:1.0;" x1="819.125" x2="986.125" y1="392.125" y2="392.125"/><polygon fill="#181818" points="976.125,388.125,986.125,392.125,976.125,396.125,980.125,392.125" style="stroke:#181818;stroke-width:1.0;"/><line style="stroke:#181818;stroke-width:1.0;" x1="1177.125" x2="1177.125" y1="374.125" y2="392.125"/><line style="stroke:#181818;stroke-width:1.0;" x1="1177.125" x2="1010.125" y1="392.125" y2="392.125"/><polygon fill="#181818" points="1020.125,388.125,1010.125,392.125,1020.125,396.125,1016.125,392.125" style="stroke:#181818;stroke-width:1.0;"/><line style="stroke:#181818;stroke-width:1.0;" x1="1092.125" x2="998.125" y1="270.1875" y2="270.1875"/><line style="stroke:#181818;stroke-width:1.0;" x1="998.125" x2="998.125" y1="270.1875" y2="292.1875"/><polygon fill="#181818" points="994.125,282.1875,998.125,292.1875,1002.125,282.1875,998.125,286.1875" style="stroke:#181818;stroke-width:1.0;"/><line style="stroke:#181818;stroke-width:1.0;" x1="1369.125" x2="1463.125" y1="270.1875" y2="270.1875"/><line style="stroke:#181818;stroke-width:1.0;" x1="1463.125" x2="1463.125" y1="270.1875" y2="292.1875"/><polygon fill="#181818" points="1459.125,282.1875,1463.125,292.1875,1467.125,282.1875,1463.125,286.1875" style="stroke:#181818;stroke-width:1.0;"/><line style="stroke:#181818;stroke-width:1.0;" x1="998.125" x2="998.125" y1="404.125" y2="422.125"/><line style="stroke:#181818;stroke-width:1.0;" x1="998.125" x2="1218.625" y1="422.125" y2="422.125"/><polygon fill="#181818" points="1208.625,418.125,1218.625,422.125,1208.625,426.125,1212.625,422.125" style="stroke:#181818;stroke-width:1.0;"/><line style="stroke:#181818;stroke-width:1.0;" x1="1463.125" x2="1463.125" y1="340.125" y2="422.125"/><line style="stroke:#181818;stroke-width:1.0;" x1="1463.125" x2="1242.625" y1="422.125" y2="422.125"/><polygon fill="#181818" points="1252.625,418.125,1242.625,422.125,1252.625,426.125,1248.625,422.125" style="stroke:#181818;stroke-width:1.0;"/><line style="stroke:#181818;stroke-width:1.0;" x1="811.875" x2="540" y1="199.8906" y2="199.8906"/><line style="stroke:#181818;stroke-width:1.0;" x1="540" x2="540" y1="199.8906" y2="221.8906"/><polygon fill="#181818" points="536,211.8906,540,221.8906,544,211.8906,540,215.8906" style="stroke:#181818;stroke-width:1.0;"/><line style="stroke:#181818;stroke-width:1.0;" x1="945.875" x2="1230.625" y1="199.8906" y2="199.8906"/><line style="stroke:#181818;stroke-width:1.0;" x1="1230.625" x2="1230.625" y1="199.8906" y2="258.1875"/><polygon fill="#181818" points="1226.625,248.1875,1230.625,258.1875,1234.625,248.1875,1230.625,252.1875" style="stroke:#181818;stroke-width:1.0;"/><line style="stroke:#181818;stroke-width:1.0;" x1="540" x2="540" y1="255.8594" y2="464.125"/><line style="stroke:#181818;stroke-width:1.0;" x1="540" x2="866.875" y1="464.125" y2="464.125"/><polygon fill="#181818" points="856.875,460.125,866.875,464.125,856.875,468.125,860.875,464.125" style="stroke:#181818;stroke-width:1.0;"/><line style="stroke:#181818;stroke-width:1.0;" x1="1230.625" x2="1230.625" y1="434.125" y2="464.125"/><line style="stroke:#181818;stroke-width:1.0;" x1="1230.625" x2="890.875" y1="464.125" y2="464.125"/><polygon fill="#181818" points="900.875,460.125,890.875,464.125,900.875,468.125,896.875,464.125" style="stroke:#181818;stroke-width:1.0;"/><line style="stroke:#181818;stroke-width:1.0;" x1="480.125" x2="234.5" y1="129.5938" y2="129.5938"/><line style="stroke:#181818;stroke-width:1.0;" x1="234.5" x2="234.5" y1="129.5938" y2="151.5938"/><polygon fill="#181818" points="230.5,141.5938,234.5,151.5938,238.5,141.5938,234.5,145.5938" style="stroke:#181818;stroke-width:1.0;"/><line style="stroke:#181818;stroke-width:1.0;" x1="628.125" x2="878.875" y1="129.5938" y2="129.5938"/><line style="stroke:#181818;stroke-width:1.0;" x1="878.875" x2="878.875" y1="129.5938" y2="187.8906"/><polygon fill="#181818" points="874.875,177.8906,878.875,187.8906,882.875,177.8906,878.875,181.8906" style="stroke:#181818;stroke-width:1.0;"/><line style="stroke:#181818;stroke-width:1.0;" x1="234.5" x2="234.5" y1="282.4688" y2="506.125"/><line style="stroke:#181818;stroke-width:1.0;" x1="234.5" x2="542.125" y1="506.125" y2="506.125"/><polygon fill="#181818" points="532.125,502.125,542.125,506.125,532.125,510.125,536.125,506.125" style="stroke:#181818;stroke-width:1.0;"/><line style="stroke:#181818;stroke-width:1.0;" x1="878.875" x2="878.875" y1="476.125" y2="506.125"/><line style="stroke:#181818;stroke-width:1.0;" x1="878.875" x2="566.125" y1="506.125" y2="506.125"/><polygon fill="#181818" points="576.125,502.125,566.125,506.125,576.125,510.125,572.125,506.125" style="stroke:#181818;stroke-width:1.0;"/><line style="stroke:#181818;stroke-width:1.0;" x1="554.125" x2="554.125" y1="97.5938" y2="117.5938"/><polygon fill="#181818" points="550.125,107.5938,554.125,117.5938,558.125,107.5938,554.125,111.5938" style="stroke:#181818;stroke-width:1.0;"/><line style="stroke:#181818;stroke-width:1.0;" x1="554.125" x2="554.125" y1="518.125" y2="538.125"/><polygon fill="#181818" points="550.125,528.125,554.125,538.125,558.125,528.125,554.125,532.125" style="stroke:#181818;stroke-width:1.0;"/><!--SRC=[bLBDJjj043xZfx2K2xn2S-6lbK0LGbMFkPXaeQwStSZUj7LFq2Qab2Rn8KsHAm8e8aHLIe9GWCHkypBUzNBAAtJjZS65ehQtsMz7ty_CO1LhG9vz1WoKrzE0LIv9jSvQM_IyJOh7lbrW_G8TMhoW_Is_lIjjw2YVawF-nnh80eWJ6m17q7Eq15-2D9OChEXOKjVbQRhN9LQB7fOugpVSddsgl3LvoKwQO_TWHiOl00oRPgIfHp9j58Wp9Cu56nq8SSzf-jPs2YwWR1R1EGWHLh2Au3nGu2eoyAgEqi0ma9vOowjQ9c2FpF2lDsOoe6MZ6ldQY1EIxe2T7QNWsFtWTphUrIRj77a_HdwjJRzSq9sovzgizvu_O-5eVK3FFu_TdQG4D0F8qpmNTos6CXbUA35sxR_RZH5BKx51VIgHKviFQdbbSObOPV-aTszEF97dLCA6osDIUUTTVO_ByyXnVv71qZVoiSsQnUjY-JziAdcCNgiwkFKQcXN2_fb36hiJutlTkKdlWf9JrZGGa3rHqXZfvlq8VufySsuFvGwINs_QR5GI7Vo8QCCAT5BmOV64phrhhq9etbnHiY0PSFqseu1Pi7a_zrc_JgjLDkhvdHO_53AiSKy2_nUTHP03C0DWsXGwCAEkItVr-AqV3cZvL0JXwxopIX4gpiuF9dW6d3UKC2E7svKYw1OHW85HM0hm5m00]--></g></svg>