<?xml version="1.0" encoding="us-ascii" standalone="no"?><svg xmlns="http://www.w3.org/2000/svg" xmlns:xlink="http://www.w3.org/1999/xlink" contentStyleType="text/css" height="360px" preserveAspectRatio="none" style="width:818px;height:360px;background:#FFFFFF;" version="1.1" viewBox="0 0 818 360" width="818px" zoomAndPan="magnify"><defs/><g><!--class Set--><g id="elem_Set"><rect codeLine="6" fill="#FFFFFF" height="44" id="Set" rx="2.5" ry="2.5" style="stroke:#000000;stroke-width:1.0;" width="64" x="485" y="15"/><ellipse cx="498" cy="29" fill="#FFFFFF" rx="9" ry="9" style="stroke:#000000;stroke-width:1.0;"/><path d="M495.1719,25.5781 L495.1719,23.7969 L501.25,23.7969 L501.25,25.5781 L499.2188,25.5781 L499.2188,32.2188 L501.25,32.2188 L501.25,34 L495.1719,34 L495.1719,32.2188 L497.2031,32.2188 L497.2031,25.5781 L495.1719,25.5781 Z " fill="#000000"/><text fill="#000000" font-family="Consolas" font-size="14" font-style="italic" lengthAdjust="spacing" textLength="23" x="510" y="33.8467">Set</text><rect fill="#FFFFFF" height="18.2969" style="stroke:#000000;stroke-width:1.0;stroke-dasharray:2.0,2.0;" width="11" x="541" y="12"/><text fill="#000000" font-family="Verdana" font-size="14" font-style="italic" lengthAdjust="spacing" textLength="9" x="542" y="25.9951">E</text><line style="stroke:#000000;stroke-width:1.0;" x1="486" x2="548" y1="43" y2="43"/><line style="stroke:#000000;stroke-width:1.0;" x1="486" x2="548" y1="51" y2="51"/></g><!--class SortedSet--><g id="elem_SortedSet"><rect codeLine="7" fill="#FFFFFF" height="44" id="SortedSet" rx="2.5" ry="2.5" style="stroke:#000000;stroke-width:1.0;" width="110" x="635" y="15"/><ellipse cx="648" cy="29" fill="#FFFFFF" rx="9" ry="9" style="stroke:#000000;stroke-width:1.0;"/><path d="M645.1719,25.5781 L645.1719,23.7969 L651.25,23.7969 L651.25,25.5781 L649.2188,25.5781 L649.2188,32.2188 L651.25,32.2188 L651.25,34 L645.1719,34 L645.1719,32.2188 L647.2031,32.2188 L647.2031,25.5781 L645.1719,25.5781 Z " fill="#000000"/><text fill="#000000" font-family="Consolas" font-size="14" font-style="italic" lengthAdjust="spacing" textLength="69" x="660" y="33.8467">SortedSet</text><rect fill="#FFFFFF" height="18.2969" style="stroke:#000000;stroke-width:1.0;stroke-dasharray:2.0,2.0;" width="11" x="737" y="12"/><text fill="#000000" font-family="Verdana" font-size="14" font-style="italic" lengthAdjust="spacing" textLength="9" x="738" y="25.9951">E</text><line style="stroke:#000000;stroke-width:1.0;" x1="636" x2="744" y1="43" y2="43"/><line style="stroke:#000000;stroke-width:1.0;" x1="636" x2="744" y1="51" y2="51"/></g><!--class NavigableSet--><g id="elem_NavigableSet"><rect codeLine="8" fill="#FFFFFF" height="44" id="NavigableSet" rx="2.5" ry="2.5" style="stroke:#000000;stroke-width:1.0;" width="130" x="677" y="119"/><ellipse cx="690" cy="133" fill="#FFFFFF" rx="9" ry="9" style="stroke:#000000;stroke-width:1.0;"/><path d="M687.1719,129.5781 L687.1719,127.7969 L693.25,127.7969 L693.25,129.5781 L691.2188,129.5781 L691.2188,136.2188 L693.25,136.2188 L693.25,138 L687.1719,138 L687.1719,136.2188 L689.2031,136.2188 L689.2031,129.5781 L687.1719,129.5781 Z " fill="#000000"/><text fill="#000000" font-family="Consolas" font-size="14" font-style="italic" lengthAdjust="spacing" textLength="89" x="702" y="137.8467">NavigableSet</text><rect fill="#FFFFFF" height="18.2969" style="stroke:#000000;stroke-width:1.0;stroke-dasharray:2.0,2.0;" width="11" x="799" y="116"/><text fill="#000000" font-family="Verdana" font-size="14" font-style="italic" lengthAdjust="spacing" textLength="9" x="800" y="129.9951">E</text><line style="stroke:#000000;stroke-width:1.0;" x1="678" x2="806" y1="147" y2="147"/><line style="stroke:#000000;stroke-width:1.0;" x1="678" x2="806" y1="155" y2="155"/></g><!--class HashSet--><g id="elem_HashSet"><rect codeLine="9" fill="#FFFFFF" height="44" id="HashSet" rx="2.5" ry="2.5" style="stroke:#000000;stroke-width:1.0;" width="99" x="295.5" y="15"/><ellipse cx="308.5" cy="29" fill="#FFFFFF" rx="9" ry="9" style="stroke:#000000;stroke-width:1.0;"/><path d="M310.8906,33.7031 Q310.4063,33.9531 309.875,34.0781 Q309.3594,34.2031 308.7813,34.2031 Q306.7188,34.2031 305.625,32.8438 Q304.5469,31.4844 304.5469,28.9063 Q304.5469,26.3281 305.625,24.9688 Q306.7188,23.6094 308.7813,23.6094 Q309.3594,23.6094 309.8906,23.7344 Q310.4219,23.8594 310.8906,24.0938 L310.8906,26.3438 Q310.375,25.8594 309.875,25.6406 Q309.3906,25.4219 308.875,25.4219 Q307.7656,25.4219 307.2031,26.2969 Q306.6406,27.1719 306.6406,28.9063 Q306.6406,30.625 307.2031,31.5156 Q307.7656,32.3906 308.875,32.3906 Q309.3906,32.3906 309.875,32.1719 Q310.375,31.9375 310.8906,31.4688 L310.8906,33.7031 Z " fill="#000000"/><text fill="#000000" font-family="Consolas" font-size="14" lengthAdjust="spacing" textLength="58" x="320.5" y="33.8467">HashSet</text><rect fill="#FFFFFF" height="18.2969" style="stroke:#000000;stroke-width:1.0;stroke-dasharray:2.0,2.0;" width="11" x="386.5" y="12"/><text fill="#000000" font-family="Verdana" font-size="14" font-style="italic" lengthAdjust="spacing" textLength="9" x="387.5" y="25.9951">E</text><line style="stroke:#000000;stroke-width:1.0;" x1="296.5" x2="393.5" y1="43" y2="43"/><line style="stroke:#000000;stroke-width:1.0;" x1="296.5" x2="393.5" y1="51" y2="51"/></g><!--class LinkedHashSet--><g id="elem_LinkedHashSet"><rect codeLine="10" fill="#FFFFFF" height="44" id="LinkedHashSet" rx="2.5" ry="2.5" style="stroke:#000000;stroke-width:1.0;" width="144" x="218" y="119"/><ellipse cx="231" cy="133" fill="#FFFFFF" rx="9" ry="9" style="stroke:#000000;stroke-width:1.0;"/><path d="M233.3906,137.7031 Q232.9063,137.9531 232.375,138.0781 Q231.8594,138.2031 231.2813,138.2031 Q229.2188,138.2031 228.125,136.8438 Q227.0469,135.4844 227.0469,132.9063 Q227.0469,130.3281 228.125,128.9688 Q229.2188,127.6094 231.2813,127.6094 Q231.8594,127.6094 232.3906,127.7344 Q232.9219,127.8594 233.3906,128.0938 L233.3906,130.3438 Q232.875,129.8594 232.375,129.6406 Q231.8906,129.4219 231.375,129.4219 Q230.2656,129.4219 229.7031,130.2969 Q229.1406,131.1719 229.1406,132.9063 Q229.1406,134.625 229.7031,135.5156 Q230.2656,136.3906 231.375,136.3906 Q231.8906,136.3906 232.375,136.1719 Q232.875,135.9375 233.3906,135.4688 L233.3906,137.7031 Z " fill="#000000"/><text fill="#000000" font-family="Consolas" font-size="14" lengthAdjust="spacing" textLength="103" x="243" y="137.8467">LinkedHashSet</text><rect fill="#FFFFFF" height="18.2969" style="stroke:#000000;stroke-width:1.0;stroke-dasharray:2.0,2.0;" width="11" x="354" y="116"/><text fill="#000000" font-family="Verdana" font-size="14" font-style="italic" lengthAdjust="spacing" textLength="9" x="355" y="129.9951">E</text><line style="stroke:#000000;stroke-width:1.0;" x1="219" x2="361" y1="147" y2="147"/><line style="stroke:#000000;stroke-width:1.0;" x1="219" x2="361" y1="155" y2="155"/></g><!--class TreeSet--><g id="elem_TreeSet"><rect codeLine="11" fill="#FFFFFF" height="44" id="TreeSet" rx="2.5" ry="2.5" style="stroke:#000000;stroke-width:1.0;" width="96" x="699" y="223"/><ellipse cx="712" cy="237" fill="#FFFFFF" rx="9" ry="9" style="stroke:#000000;stroke-width:1.0;"/><path d="M714.3906,241.7031 Q713.9063,241.9531 713.375,242.0781 Q712.8594,242.2031 712.2813,242.2031 Q710.2188,242.2031 709.125,240.8438 Q708.0469,239.4844 708.0469,236.9063 Q708.0469,234.3281 709.125,232.9688 Q710.2188,231.6094 712.2813,231.6094 Q712.8594,231.6094 713.3906,231.7344 Q713.9219,231.8594 714.3906,232.0938 L714.3906,234.3438 Q713.875,233.8594 713.375,233.6406 Q712.8906,233.4219 712.375,233.4219 Q711.2656,233.4219 710.7031,234.2969 Q710.1406,235.1719 710.1406,236.9063 Q710.1406,238.625 710.7031,239.5156 Q711.2656,240.3906 712.375,240.3906 Q712.8906,240.3906 713.375,240.1719 Q713.875,239.9375 714.3906,239.4688 L714.3906,241.7031 Z " fill="#000000"/><text fill="#000000" font-family="Consolas" font-size="14" lengthAdjust="spacing" textLength="55" x="724" y="241.8467">TreeSet</text><rect fill="#FFFFFF" height="18.2969" style="stroke:#000000;stroke-width:1.0;stroke-dasharray:2.0,2.0;" width="11" x="787" y="220"/><text fill="#000000" font-family="Verdana" font-size="14" font-style="italic" lengthAdjust="spacing" textLength="9" x="788" y="233.9951">E</text><line style="stroke:#000000;stroke-width:1.0;" x1="700" x2="794" y1="251" y2="251"/><line style="stroke:#000000;stroke-width:1.0;" x1="700" x2="794" y1="259" y2="259"/></g><!--class EnumSet--><g id="elem_EnumSet"><rect codeLine="12" fill="#FFFFFF" height="44" id="EnumSet" rx="2.5" ry="2.5" style="stroke:#000000;stroke-width:1.0;" width="241" x="396.5" y="119"/><ellipse cx="409.5" cy="133" fill="#FFFFFF" rx="9" ry="9" style="stroke:#000000;stroke-width:1.0;"/><path d="M409.2188,129.1406 L408.2656,133.3125 L410.1719,133.3125 L409.2188,129.1406 Z M407.9844,127.2969 L410.4531,127.2969 L413.2031,137.5 L411.1875,137.5 L410.5625,134.9844 L407.8594,134.9844 L407.25,137.5 L405.2188,137.5 L407.9844,127.2969 Z " fill="#000000"/><text fill="#000000" font-family="Consolas" font-size="14" font-style="italic" lengthAdjust="spacing" textLength="63" x="421.5" y="137.8467">EnumSet</text><rect fill="#FFFFFF" height="18.2969" style="stroke:#000000;stroke-width:1.0;stroke-dasharray:2.0,2.0;" width="148" x="492.5" y="116"/><text fill="#000000" font-family="Verdana" font-size="14" font-style="italic" lengthAdjust="spacing" textLength="146" x="493.5" y="129.9951">E extends Enum&lt;E&gt;</text><line style="stroke:#000000;stroke-width:1.0;" x1="397.5" x2="636.5" y1="147" y2="147"/><line style="stroke:#000000;stroke-width:1.0;" x1="397.5" x2="636.5" y1="155" y2="155"/></g><!--class RegularEnumSet--><g id="elem_RegularEnumSet"><rect codeLine="13" fill="#FFFFFF" height="44" id="RegularEnumSet" rx="2.5" ry="2.5" style="stroke:#000000;stroke-width:1.0;" width="294" x="370" y="223"/><ellipse cx="383" cy="237" fill="#FFFFFF" rx="9" ry="9" style="stroke:#000000;stroke-width:1.0;"/><path d="M385.3906,241.7031 Q384.9063,241.9531 384.375,242.0781 Q383.8594,242.2031 383.2813,242.2031 Q381.2188,242.2031 380.125,240.8438 Q379.0469,239.4844 379.0469,236.9063 Q379.0469,234.3281 380.125,232.9688 Q381.2188,231.6094 383.2813,231.6094 Q383.8594,231.6094 384.3906,231.7344 Q384.9219,231.8594 385.3906,232.0938 L385.3906,234.3438 Q384.875,233.8594 384.375,233.6406 Q383.8906,233.4219 383.375,233.4219 Q382.2656,233.4219 381.7031,234.2969 Q381.1406,235.1719 381.1406,236.9063 Q381.1406,238.625 381.7031,239.5156 Q382.2656,240.3906 383.375,240.3906 Q383.8906,240.3906 384.375,240.1719 Q384.875,239.9375 385.3906,239.4688 L385.3906,241.7031 Z " fill="#000000"/><text fill="#000000" font-family="Consolas" font-size="14" lengthAdjust="spacing" textLength="116" x="395" y="241.8467">RegularEnumSet</text><rect fill="#FFFFFF" height="18.2969" style="stroke:#000000;stroke-width:1.0;stroke-dasharray:2.0,2.0;" width="148" x="519" y="220"/><text fill="#000000" font-family="Verdana" font-size="14" font-style="italic" lengthAdjust="spacing" textLength="146" x="520" y="233.9951">E extends Enum&lt;E&gt;</text><line style="stroke:#000000;stroke-width:1.0;" x1="371" x2="663" y1="251" y2="251"/><line style="stroke:#000000;stroke-width:1.0;" x1="371" x2="663" y1="259" y2="259"/></g><!--class JumboEnumSet--><g id="elem_JumboEnumSet"><rect codeLine="14" fill="#FFFFFF" height="44" id="JumboEnumSet" rx="2.5" ry="2.5" style="stroke:#000000;stroke-width:1.0;" width="284" x="51" y="223"/><ellipse cx="64" cy="237" fill="#FFFFFF" rx="9" ry="9" style="stroke:#000000;stroke-width:1.0;"/><path d="M66.3906,241.7031 Q65.9063,241.9531 65.375,242.0781 Q64.8594,242.2031 64.2813,242.2031 Q62.2188,242.2031 61.125,240.8438 Q60.0469,239.4844 60.0469,236.9063 Q60.0469,234.3281 61.125,232.9688 Q62.2188,231.6094 64.2813,231.6094 Q64.8594,231.6094 65.3906,231.7344 Q65.9219,231.8594 66.3906,232.0938 L66.3906,234.3438 Q65.875,233.8594 65.375,233.6406 Q64.8906,233.4219 64.375,233.4219 Q63.2656,233.4219 62.7031,234.2969 Q62.1406,235.1719 62.1406,236.9063 Q62.1406,238.625 62.7031,239.5156 Q63.2656,240.3906 64.375,240.3906 Q64.8906,240.3906 65.375,240.1719 Q65.875,239.9375 66.3906,239.4688 L66.3906,241.7031 Z " fill="#000000"/><text fill="#000000" font-family="Consolas" font-size="14" lengthAdjust="spacing" textLength="106" x="76" y="241.8467">JumboEnumSet</text><rect fill="#FFFFFF" height="18.2969" style="stroke:#000000;stroke-width:1.0;stroke-dasharray:2.0,2.0;" width="148" x="190" y="220"/><text fill="#000000" font-family="Verdana" font-size="14" font-style="italic" lengthAdjust="spacing" textLength="146" x="191" y="233.9951">E extends Enum&lt;E&gt;</text><line style="stroke:#000000;stroke-width:1.0;" x1="52" x2="334" y1="251" y2="251"/><line style="stroke:#000000;stroke-width:1.0;" x1="52" x2="334" y1="259" y2="259"/></g><g id="elem_GMN26"><path d="M133.5,23.85 L133.5,50.1469 A0,0 0 0 0 133.5,50.1469 L260.5,50.1469 A0,0 0 0 0 260.5,50.1469 L260.5,41.85 L295.06,37 L260.5,33.85 L260.5,33.85 L250.5,23.85 L133.5,23.85 A0,0 0 0 0 133.5,23.85 " fill="#FFFFFF" style="stroke:#000000;stroke-width:1.0;"/><path d="M250.5,23.85 L250.5,33.85 L260.5,33.85 L250.5,23.85 " fill="#FFFFFF" style="stroke:#000000;stroke-width:1.0;"/><text fill="#000000" font-family="Consolas" font-size="14" lengthAdjust="spacing" textLength="106" x="139.5" y="41.8451">&#32452;&#21512;&#20102;HashMap</text></g><g id="elem_GMN29"><path d="M11,127.85 L11,154.1469 A0,0 0 0 0 11,154.1469 L183,154.1469 A0,0 0 0 0 183,154.1469 L183,145.85 L217.91,141 L183,137.85 L183,137.85 L173,127.85 L11,127.85 A0,0 0 0 0 11,127.85 " fill="#FFFFFF" style="stroke:#000000;stroke-width:1.0;"/><path d="M173,127.85 L173,137.85 L183,137.85 L173,127.85 " fill="#FFFFFF" style="stroke:#000000;stroke-width:1.0;"/><text fill="#000000" font-family="Consolas" font-size="14" lengthAdjust="spacing" textLength="151" x="17" y="145.8451">&#32452;&#21512;&#20102;LinkedHashMap</text></g><g id="elem_GMN32"><path d="M685,327 L685,353.2969 A0,0 0 0 0 685,353.2969 L809,353.2969 A0,0 0 0 0 809,353.2969 L809,337 L799,327 L751,327 L747,267.14 L743,327 L685,327 A0,0 0 0 0 685,327 " fill="#FFFFFF" style="stroke:#000000;stroke-width:1.0;"/><path d="M799,327 L799,337 L809,337 L799,327 " fill="#FFFFFF" style="stroke:#000000;stroke-width:1.0;"/><text fill="#000000" font-family="Consolas" font-size="14" lengthAdjust="spacing" textLength="103" x="691" y="344.9951">&#32452;&#21512;&#20102;TreeMap</text></g><g id="elem_GMN35"><path d="M449.5,327 L449.5,353.2969 A0,0 0 0 0 449.5,353.2969 L584.5,353.2969 A0,0 0 0 0 584.5,353.2969 L584.5,337 L574.5,327 L521,327 L517,267.14 L513,327 L449.5,327 A0,0 0 0 0 449.5,327 " fill="#FFFFFF" style="stroke:#000000;stroke-width:1.0;"/><path d="M574.5,327 L574.5,337 L584.5,337 L574.5,327 " fill="#FFFFFF" style="stroke:#000000;stroke-width:1.0;"/><text fill="#000000" font-family="Consolas" font-size="14" lengthAdjust="spacing" textLength="114" x="455.5" y="344.9951">&#22522;&#20110;long&#31867;&#22411;&#21464;&#37327;</text></g><g id="elem_GMN38"><path d="M111.5,327 L111.5,353.2969 A0,0 0 0 0 111.5,353.2969 L274.5,353.2969 A0,0 0 0 0 274.5,353.2969 L274.5,337 L264.5,327 L197,327 L193,267.14 L189,327 L111.5,327 A0,0 0 0 0 111.5,327 " fill="#FFFFFF" style="stroke:#000000;stroke-width:1.0;"/><path d="M264.5,327 L264.5,337 L274.5,337 L264.5,327 " fill="#FFFFFF" style="stroke:#000000;stroke-width:1.0;"/><text fill="#000000" font-family="Consolas" font-size="14" lengthAdjust="spacing" textLength="142" x="117.5" y="344.9951">&#22522;&#20110;long&#31867;&#22411;&#25968;&#32452;&#21464;&#37327;</text></g><!--reverse link Set to SortedSet--><g id="link_Set_SortedSet"><path codeLine="16" d="M570.38,37 C591.77,37 613.16,37 634.54,37 " fill="none" id="Set-backto-SortedSet" style="stroke:#000000;stroke-width:1.0;"/><polygon fill="none" points="570.44,44,550.44,37,570.44,30,570.44,44" style="stroke:#000000;stroke-width:1.0;"/></g><!--reverse link SortedSet to NavigableSet--><g id="link_SortedSet_NavigableSet"><path codeLine="17" d="M710.18,77.58 C717.28,91.52 725,106.67 731.06,118.54 " fill="none" id="SortedSet-backto-NavigableSet" style="stroke:#000000;stroke-width:1.0;"/><polygon fill="none" points="703.62,81.14,700.77,60.14,716.09,74.78,703.62,81.14" style="stroke:#000000;stroke-width:1.0;"/></g><!--link HashSet to Set--><g id="link_HashSet_Set"><path codeLine="18" d="M394.72,37 C417.75,37 440.79,37 463.82,37 " fill="none" id="HashSet-to-Set" style="stroke:#000000;stroke-width:1.0;stroke-dasharray:7.0,7.0;"/><polygon fill="none" points="463.52,30,483.52,37,463.52,44,463.52,30" style="stroke:#000000;stroke-width:1.0;"/></g><!--reverse link HashSet to LinkedHashSet--><g id="link_HashSet_LinkedHashSet"><path codeLine="19" d="M323.66,77.58 C316.14,91.52 307.98,106.67 301.57,118.54 " fill="none" id="HashSet-backto-LinkedHashSet" style="stroke:#000000;stroke-width:1.0;"/><polygon fill="none" points="317.95,74.42,333.6,60.14,330.27,81.06,317.95,74.42" style="stroke:#000000;stroke-width:1.0;"/></g><!--reverse link NavigableSet to TreeSet--><g id="link_NavigableSet_TreeSet"><path codeLine="20" d="M744.06,184 C744.71,197.25 745.4,211.35 745.95,222.54 " fill="none" id="NavigableSet-backto-TreeSet" style="stroke:#000000;stroke-width:1.0;stroke-dasharray:7.0,7.0;"/><polygon fill="none" points="737.02,184.46,743.04,164.14,751.01,183.77,737.02,184.46" style="stroke:#000000;stroke-width:1.0;"/></g><!--reverse link Set to EnumSet--><g id="link_Set_EnumSet"><path codeLine="21" d="M517,80 C517,93.25 517,107.35 517,118.54 " fill="none" id="Set-backto-EnumSet" style="stroke:#000000;stroke-width:1.0;stroke-dasharray:7.0,7.0;"/><polygon fill="none" points="510,80.14,517,60.14,524,80.14,510,80.14" style="stroke:#000000;stroke-width:1.0;"/></g><!--reverse link EnumSet to RegularEnumSet--><g id="link_EnumSet_RegularEnumSet"><path codeLine="22" d="M517,184 C517,197.25 517,211.35 517,222.54 " fill="none" id="EnumSet-backto-RegularEnumSet" style="stroke:#000000;stroke-width:1.0;"/><polygon fill="none" points="510,184.14,517,164.14,524,184.14,510,184.14" style="stroke:#000000;stroke-width:1.0;"/></g><!--reverse link EnumSet to JumboEnumSet--><g id="link_EnumSet_JumboEnumSet"><path codeLine="23" d="M429.17,169.65 C376.31,186.3 310,207.17 261.11,222.56 " fill="none" id="EnumSet-backto-JumboEnumSet" style="stroke:#000000;stroke-width:1.0;"/><polygon fill="none" points="426.9,162.71,448.08,163.39,431.1,176.07,426.9,162.71" style="stroke:#000000;stroke-width:1.0;"/></g><!--SRC=[XOz1JW8n58RtFSNp092Ok2A6ZS4Oeop42xnXta13foMTDyOObqPDJCIDYIkzWcxXEeo4MqYXWnqmikp_Vt_RRu_xb18C5Kejie7KGxIO0ajMT6mqT-GDmVv1KCMKOAvuPzd6nRr7HcT6OIQ4r4msmIv1X_YmrGm3OvdYhRYDLxA7aIBVT1VtP722MRyId4aze7WhlhHK3Z7As6ANOTMqT9uk6w1h9XslaWLOJY-ebokqExdJF8tCFvHOYq5DrMwRpbo4Lb3Bbt692My1TLltUCNEy_ual2BKSqU75ml_Ar-vf2hbR_8d4PfiL48R9b2KC9YaV1eQC9lS5I-Fq_6zYyvnMEMgtmxetsAzYGopITsg50fu5_r1RjWqeFWOJyVFokZUx6jIl3yLexVvmsXpLl7S7ds_Vhg7bzCV]--></g></svg>