<?xml version="1.0" encoding="us-ascii" standalone="no"?><svg xmlns="http://www.w3.org/2000/svg" xmlns:xlink="http://www.w3.org/1999/xlink" contentStyleType="text/css" height="415px" preserveAspectRatio="none" style="width:836px;height:415px;background:#FFFFFF;" version="1.1" viewBox="0 0 836 415" width="836px" zoomAndPan="magnify"><defs/><g><text fill="#000000" font-family="sans-serif" font-size="14" font-weight="bold" lengthAdjust="spacing" textLength="251" x="285.5" y="22.9951">Java Collections Framework-List</text><!--class Iterable--><g id="elem_Iterable"><rect codeLine="2" fill="#F1F1F1" height="48" id="Iterable" rx="2.5" ry="2.5" style="stroke:#181818;stroke-width:0.5;" width="83" x="217.5" y="44.2969"/><ellipse cx="232.5" cy="60.2969" fill="#B4A7E5" rx="11" ry="11" style="stroke:#181818;stroke-width:1.0;"/><path d="M228.4219,56.0625 L228.4219,53.9063 L235.8125,53.9063 L235.8125,56.0625 L233.3438,56.0625 L233.3438,64.1406 L235.8125,64.1406 L235.8125,66.2969 L228.4219,66.2969 L228.4219,64.1406 L230.8906,64.1406 L230.8906,56.0625 L228.4219,56.0625 Z " fill="#000000"/><text fill="#000000" font-family="sans-serif" font-size="14" font-style="italic" lengthAdjust="spacing" textLength="51" x="246.5" y="65.1436">Iterable</text><line style="stroke:#181818;stroke-width:0.5;" x1="218.5" x2="299.5" y1="76.2969" y2="76.2969"/><line style="stroke:#181818;stroke-width:0.5;" x1="218.5" x2="299.5" y1="84.2969" y2="84.2969"/></g><!--class Collection--><g id="elem_Collection"><rect codeLine="3" fill="#F1F1F1" height="48" id="Collection" rx="2.5" ry="2.5" style="stroke:#181818;stroke-width:0.5;" width="100" x="336" y="44.2969"/><ellipse cx="351" cy="60.2969" fill="#B4A7E5" rx="11" ry="11" style="stroke:#181818;stroke-width:1.0;"/><path d="M346.9219,56.0625 L346.9219,53.9063 L354.3125,53.9063 L354.3125,56.0625 L351.8438,56.0625 L351.8438,64.1406 L354.3125,64.1406 L354.3125,66.2969 L346.9219,66.2969 L346.9219,64.1406 L349.3906,64.1406 L349.3906,56.0625 L346.9219,56.0625 Z " fill="#000000"/><text fill="#000000" font-family="sans-serif" font-size="14" font-style="italic" lengthAdjust="spacing" textLength="68" x="365" y="65.1436">Collection</text><line style="stroke:#181818;stroke-width:0.5;" x1="337" x2="435" y1="76.2969" y2="76.2969"/><line style="stroke:#181818;stroke-width:0.5;" x1="337" x2="435" y1="84.2969" y2="84.2969"/></g><!--class List--><g id="elem_List"><rect codeLine="4" fill="#F1F1F1" height="48" id="List" rx="2.5" ry="2.5" style="stroke:#181818;stroke-width:0.5;" width="55" x="358.5" y="152.2969"/><ellipse cx="373.5" cy="168.2969" fill="#B4A7E5" rx="11" ry="11" style="stroke:#181818;stroke-width:1.0;"/><path d="M369.4219,164.0625 L369.4219,161.9063 L376.8125,161.9063 L376.8125,164.0625 L374.3438,164.0625 L374.3438,172.1406 L376.8125,172.1406 L376.8125,174.2969 L369.4219,174.2969 L369.4219,172.1406 L371.8906,172.1406 L371.8906,164.0625 L369.4219,164.0625 Z " fill="#000000"/><text fill="#000000" font-family="sans-serif" font-size="14" font-style="italic" lengthAdjust="spacing" textLength="23" x="387.5" y="173.1436">List</text><line style="stroke:#181818;stroke-width:0.5;" x1="359.5" x2="412.5" y1="184.2969" y2="184.2969"/><line style="stroke:#181818;stroke-width:0.5;" x1="359.5" x2="412.5" y1="192.2969" y2="192.2969"/></g><!--class ArrayList--><g id="elem_ArrayList"><rect codeLine="5" fill="#F1F1F1" height="48" id="ArrayList" rx="2.5" ry="2.5" style="stroke:#181818;stroke-width:0.5;" width="89" x="86.5" y="260.2969"/><ellipse cx="101.5" cy="276.2969" fill="#ADD1B2" rx="11" ry="11" style="stroke:#181818;stroke-width:1.0;"/><path d="M104.4688,281.9375 Q103.8906,282.2344 103.25,282.375 Q102.6094,282.5313 101.9063,282.5313 Q99.4063,282.5313 98.0781,280.8906 Q96.7656,279.2344 96.7656,276.1094 Q96.7656,272.9844 98.0781,271.3281 Q99.4063,269.6719 101.9063,269.6719 Q102.6094,269.6719 103.25,269.8281 Q103.9063,269.9844 104.4688,270.2813 L104.4688,273 Q103.8438,272.4219 103.25,272.1563 Q102.6563,271.875 102.0313,271.875 Q100.6875,271.875 100,272.9531 Q99.3125,274.0156 99.3125,276.1094 Q99.3125,278.2031 100,279.2813 Q100.6875,280.3438 102.0313,280.3438 Q102.6563,280.3438 103.25,280.0781 Q103.8438,279.7969 104.4688,279.2188 L104.4688,281.9375 Z " fill="#000000"/><text fill="#000000" font-family="sans-serif" font-size="14" lengthAdjust="spacing" textLength="57" x="115.5" y="281.1436">ArrayList</text><line style="stroke:#181818;stroke-width:0.5;" x1="87.5" x2="174.5" y1="292.2969" y2="292.2969"/><line style="stroke:#181818;stroke-width:0.5;" x1="87.5" x2="174.5" y1="300.2969" y2="300.2969"/></g><!--class LinkedList--><g id="elem_LinkedList"><rect codeLine="6" fill="#F1F1F1" height="48" id="LinkedList" rx="2.5" ry="2.5" style="stroke:#181818;stroke-width:0.5;" width="100" x="249" y="260.2969"/><ellipse cx="264" cy="276.2969" fill="#ADD1B2" rx="11" ry="11" style="stroke:#181818;stroke-width:1.0;"/><path d="M266.9688,281.9375 Q266.3906,282.2344 265.75,282.375 Q265.1094,282.5313 264.4063,282.5313 Q261.9063,282.5313 260.5781,280.8906 Q259.2656,279.2344 259.2656,276.1094 Q259.2656,272.9844 260.5781,271.3281 Q261.9063,269.6719 264.4063,269.6719 Q265.1094,269.6719 265.75,269.8281 Q266.4063,269.9844 266.9688,270.2813 L266.9688,273 Q266.3438,272.4219 265.75,272.1563 Q265.1563,271.875 264.5313,271.875 Q263.1875,271.875 262.5,272.9531 Q261.8125,274.0156 261.8125,276.1094 Q261.8125,278.2031 262.5,279.2813 Q263.1875,280.3438 264.5313,280.3438 Q265.1563,280.3438 265.75,280.0781 Q266.3438,279.7969 266.9688,279.2188 L266.9688,281.9375 Z " fill="#000000"/><text fill="#000000" font-family="sans-serif" font-size="14" lengthAdjust="spacing" textLength="68" x="278" y="281.1436">LinkedList</text><line style="stroke:#181818;stroke-width:0.5;" x1="250" x2="348" y1="292.2969" y2="292.2969"/><line style="stroke:#181818;stroke-width:0.5;" x1="250" x2="348" y1="300.2969" y2="300.2969"/></g><!--class CopyOnWriteArrayList--><g id="elem_CopyOnWriteArrayList"><rect codeLine="7" fill="#F1F1F1" height="48" id="CopyOnWriteArrayList" rx="2.5" ry="2.5" style="stroke:#181818;stroke-width:0.5;" width="179" x="384.5" y="260.2969"/><ellipse cx="399.5" cy="276.2969" fill="#ADD1B2" rx="11" ry="11" style="stroke:#181818;stroke-width:1.0;"/><path d="M402.4688,281.9375 Q401.8906,282.2344 401.25,282.375 Q400.6094,282.5313 399.9063,282.5313 Q397.4063,282.5313 396.0781,280.8906 Q394.7656,279.2344 394.7656,276.1094 Q394.7656,272.9844 396.0781,271.3281 Q397.4063,269.6719 399.9063,269.6719 Q400.6094,269.6719 401.25,269.8281 Q401.9063,269.9844 402.4688,270.2813 L402.4688,273 Q401.8438,272.4219 401.25,272.1563 Q400.6563,271.875 400.0313,271.875 Q398.6875,271.875 398,272.9531 Q397.3125,274.0156 397.3125,276.1094 Q397.3125,278.2031 398,279.2813 Q398.6875,280.3438 400.0313,280.3438 Q400.6563,280.3438 401.25,280.0781 Q401.8438,279.7969 402.4688,279.2188 L402.4688,281.9375 Z " fill="#000000"/><text fill="#000000" font-family="sans-serif" font-size="14" lengthAdjust="spacing" textLength="147" x="413.5" y="281.1436">CopyOnWriteArrayList</text><line style="stroke:#181818;stroke-width:0.5;" x1="385.5" x2="562.5" y1="292.2969" y2="292.2969"/><line style="stroke:#181818;stroke-width:0.5;" x1="385.5" x2="562.5" y1="300.2969" y2="300.2969"/></g><!--class Vector--><g id="elem_Vector"><rect codeLine="8" fill="#F1F1F1" height="48" id="Vector" rx="2.5" ry="2.5" style="stroke:#181818;stroke-width:0.5;" width="77" x="521.5" y="152.2969"/><ellipse cx="536.5" cy="168.2969" fill="#ADD1B2" rx="11" ry="11" style="stroke:#181818;stroke-width:1.0;"/><path d="M539.4688,173.9375 Q538.8906,174.2344 538.25,174.375 Q537.6094,174.5313 536.9063,174.5313 Q534.4063,174.5313 533.0781,172.8906 Q531.7656,171.2344 531.7656,168.1094 Q531.7656,164.9844 533.0781,163.3281 Q534.4063,161.6719 536.9063,161.6719 Q537.6094,161.6719 538.25,161.8281 Q538.9063,161.9844 539.4688,162.2813 L539.4688,165 Q538.8438,164.4219 538.25,164.1563 Q537.6563,163.875 537.0313,163.875 Q535.6875,163.875 535,164.9531 Q534.3125,166.0156 534.3125,168.1094 Q534.3125,170.2031 535,171.2813 Q535.6875,172.3438 537.0313,172.3438 Q537.6563,172.3438 538.25,172.0781 Q538.8438,171.7969 539.4688,171.2188 L539.4688,173.9375 Z " fill="#000000"/><text fill="#000000" font-family="sans-serif" font-size="14" lengthAdjust="spacing" textLength="45" x="550.5" y="173.1436">Vector</text><line style="stroke:#181818;stroke-width:0.5;" x1="522.5" x2="597.5" y1="184.2969" y2="184.2969"/><line style="stroke:#181818;stroke-width:0.5;" x1="522.5" x2="597.5" y1="192.2969" y2="192.2969"/></g><!--class Stack--><g id="elem_Stack"><rect codeLine="9" fill="#F1F1F1" height="48" id="Stack" rx="2.5" ry="2.5" style="stroke:#181818;stroke-width:0.5;" width="70" x="598" y="260.2969"/><ellipse cx="613" cy="276.2969" fill="#ADD1B2" rx="11" ry="11" style="stroke:#181818;stroke-width:1.0;"/><path d="M615.9688,281.9375 Q615.3906,282.2344 614.75,282.375 Q614.1094,282.5313 613.4063,282.5313 Q610.9063,282.5313 609.5781,280.8906 Q608.2656,279.2344 608.2656,276.1094 Q608.2656,272.9844 609.5781,271.3281 Q610.9063,269.6719 613.4063,269.6719 Q614.1094,269.6719 614.75,269.8281 Q615.4063,269.9844 615.9688,270.2813 L615.9688,273 Q615.3438,272.4219 614.75,272.1563 Q614.1563,271.875 613.5313,271.875 Q612.1875,271.875 611.5,272.9531 Q610.8125,274.0156 610.8125,276.1094 Q610.8125,278.2031 611.5,279.2813 Q612.1875,280.3438 613.5313,280.3438 Q614.1563,280.3438 614.75,280.0781 Q615.3438,279.7969 615.9688,279.2188 L615.9688,281.9375 Z " fill="#000000"/><text fill="#000000" font-family="sans-serif" font-size="14" lengthAdjust="spacing" textLength="38" x="627" y="281.1436">Stack</text><line style="stroke:#181818;stroke-width:0.5;" x1="599" x2="667" y1="292.2969" y2="292.2969"/><line style="stroke:#181818;stroke-width:0.5;" x1="599" x2="667" y1="300.2969" y2="300.2969"/></g><g id="elem_GMN24"><path d="M6,368.2969 L6,408.5625 A0,0 0 0 0 6,408.5625 L178,408.5625 A0,0 0 0 0 178,408.5625 L178,378.2969 L168,368.2969 L103.46,368.2969 L122.05,308.7369 L95.46,368.2969 L6,368.2969 A0,0 0 0 0 6,368.2969 " fill="#FEFFDD" style="stroke:#181818;stroke-width:0.5;"/><path d="M168,368.2969 L168,378.2969 L178,378.2969 L168,368.2969 " fill="#FEFFDD" style="stroke:#181818;stroke-width:0.5;"/><text fill="#000000" font-family="sans-serif" font-size="13" lengthAdjust="spacing" textLength="143" x="12" y="385.3638">&#22522;&#20110;&#21160;&#24577;&#25968;&#32452;&#65292;&#33258;&#21160;&#25193;&#23481;</text><text fill="#000000" font-family="sans-serif" font-size="13" lengthAdjust="spacing" textLength="151" x="12" y="400.4966">&#32447;&#31243;&#19981;&#23433;&#20840;&#30340;&#65288;fast-fail&#65289;</text></g><g id="elem_GMN27"><path d="M213,368.2969 L213,408.5625 A0,0 0 0 0 213,408.5625 L385,408.5625 A0,0 0 0 0 385,408.5625 L385,378.2969 L375,368.2969 L303,368.2969 L299,308.7369 L295,368.2969 L213,368.2969 A0,0 0 0 0 213,368.2969 " fill="#FEFFDD" style="stroke:#181818;stroke-width:0.5;"/><path d="M375,368.2969 L375,378.2969 L385,378.2969 L375,368.2969 " fill="#FEFFDD" style="stroke:#181818;stroke-width:0.5;"/><text fill="#000000" font-family="sans-serif" font-size="13" lengthAdjust="spacing" textLength="52" x="219" y="385.3638">&#22522;&#20110;&#38142;&#34920;</text><text fill="#000000" font-family="sans-serif" font-size="13" lengthAdjust="spacing" textLength="151" x="219" y="400.4966">&#32447;&#31243;&#19981;&#23433;&#20840;&#30340;&#65288;fast-fail&#65289;</text></g><g id="elem_GMN30"><path d="M633,156.1669 L633,172.2969 L598.74,176.2969 L633,180.2969 L633,196.4325 A0,0 0 0 0 633,196.4325 L829,196.4325 A0,0 0 0 0 829,196.4325 L829,166.1669 L819,156.1669 L633,156.1669 A0,0 0 0 0 633,156.1669 " fill="#FEFFDD" style="stroke:#181818;stroke-width:0.5;"/><path d="M819,156.1669 L819,166.1669 L829,166.1669 L819,156.1669 " fill="#FEFFDD" style="stroke:#181818;stroke-width:0.5;"/><text fill="#000000" font-family="sans-serif" font-size="13" lengthAdjust="spacing" textLength="143" x="639" y="173.2338">&#22522;&#20110;&#21160;&#24577;&#25968;&#32452;&#65292;&#33258;&#21160;&#25193;&#23481;</text><text fill="#000000" font-family="sans-serif" font-size="13" lengthAdjust="spacing" textLength="175" x="639" y="188.3666">&#32447;&#31243;&#23433;&#20840;&#30340;&#65288;synchronized&#65289;</text></g><g id="elem_GMN33"><path d="M420,375.8669 L420,400.9997 A0,0 0 0 0 420,400.9997 L584,400.9997 A0,0 0 0 0 584,400.9997 L584,385.8669 L574,375.8669 L502.74,375.8669 L480.42,308.7369 L494.74,375.8669 L420,375.8669 A0,0 0 0 0 420,375.8669 " fill="#FEFFDD" style="stroke:#181818;stroke-width:0.5;"/><path d="M574,375.8669 L574,385.8669 L584,385.8669 L574,375.8669 " fill="#FEFFDD" style="stroke:#181818;stroke-width:0.5;"/><text fill="#000000" font-family="sans-serif" font-size="13" lengthAdjust="spacing" textLength="143" x="426" y="392.9338">&#32447;&#31243;&#23433;&#20840;&#30340;&#65288;&#20889;&#26102;&#22797;&#21046;&#65289;</text></g><!--reverse link Iterable to Collection--><g id="link_Iterable_Collection"><path codeLine="11" d="M321.45,68.2969 C326.19,68.2969 330.93,68.2969 335.67,68.2969 " fill="none" id="Iterable-backto-Collection" style="stroke:#181818;stroke-width:1.0;"/><polygon fill="none" points="321.67,75.2969,301.67,68.2969,321.67,61.2969,321.67,75.2969" style="stroke:#181818;stroke-width:1.0;"/></g><!--reverse link Collection to List--><g id="link_Collection_List"><path codeLine="12" d="M386,113.5369 C386,126.7869 386,140.7769 386,152.0969 " fill="none" id="Collection-backto-List" style="stroke:#181818;stroke-width:1.0;"/><polygon fill="none" points="379,113.5669,386,93.5669,393,113.5669,379,113.5669" style="stroke:#181818;stroke-width:1.0;"/></g><!--reverse link List to ArrayList--><g id="link_List_ArrayList"><path codeLine="13" d="M339.01,196.8369 C292.45,216.1869 221.64,245.6269 175.84,264.6569 " fill="none" id="List-backto-ArrayList" style="stroke:#181818;stroke-width:1.0;stroke-dasharray:7.0,7.0;"/><polygon fill="none" points="336.07,190.0569,357.23,188.8469,341.44,202.9869,336.07,190.0569" style="stroke:#181818;stroke-width:1.0;"/></g><!--reverse link List to LinkedList--><g id="link_List_LinkedList"><path codeLine="14" d="M353.64,216.7369 C341.66,231.3269 328.47,247.3969 318.05,260.0969 " fill="none" id="List-backto-LinkedList" style="stroke:#181818;stroke-width:1.0;stroke-dasharray:7.0,7.0;"/><polygon fill="none" points="348.81,212.5869,366.91,201.5669,359.63,221.4669,348.81,212.5869" style="stroke:#181818;stroke-width:1.0;"/></g><!--reverse link List to CopyOnWriteArrayList--><g id="link_List_CopyOnWriteArrayList"><path codeLine="15" d="M418.34,216.2569 C430.56,230.9769 444.08,247.2669 454.73,260.0969 " fill="none" id="List-backto-CopyOnWriteArrayList" style="stroke:#181818;stroke-width:1.0;stroke-dasharray:7.0,7.0;"/><polygon fill="none" points="412.7,221.4269,405.31,201.5669,423.47,212.4769,412.7,221.4269" style="stroke:#181818;stroke-width:1.0;"/></g><!--reverse link List to Vector--><g id="link_List_Vector"><path codeLine="16" d="M434.83,176.2969 C463.61,176.2969 492.4,176.2969 521.18,176.2969 " fill="none" id="List-backto-Vector" style="stroke:#181818;stroke-width:1.0;stroke-dasharray:7.0,7.0;"/><polygon fill="none" points="434.87,183.2969,414.87,176.2969,434.87,169.2969,434.87,183.2969" style="stroke:#181818;stroke-width:1.0;"/></g><!--reverse link Vector to Stack--><g id="link_Vector_Stack"><path codeLine="17" d="M587.81,217.6869 C597.69,232.0269 608.47,247.6769 617.02,260.0969 " fill="none" id="Vector-backto-Stack" style="stroke:#181818;stroke-width:1.0;"/><polygon fill="none" points="581.6,222.0069,576.02,201.5669,593.13,214.0669,581.6,222.0069" style="stroke:#181818;stroke-width:1.0;"/></g><!--SRC=[bP2_JiCm48VtFCMzGF807P1G9IHG9GOaM5ZSrA5MN1ivBYY80IJ-D41P44Am82I6bA5Ygg1Ky39rKgQ-0aa8ZLKom6R_plVTTvP4KWmhQ0T1bLEARKauys19e1RUvS8rQyIJ1c4I2mVP69QJ0wfJh4L5dnPcRJP5dWUBGY1VkzS8St532wfysrzb6u98FFzsFG5paL_M9B9TmoZcWKdD_ON2AMq4ivrccjIC2LRRIaePlf3Gqp8JlVwj0nQT9PbJFZENDHYN6EfSIju2xXJxGmNK_N0yl5HdONHm65q_nsz7qz75vFGfJOAUwhzkidZu4OVduvUkwWVgE8plaYST1tdIT12Xqr4mpzTM-HdmUVK-UGZ_p19agobJLBxVFpnriESpkoau8tkuKU9P-haL-CrH9xVHpK0zTbLda72-0000]--></g></svg>