<?xml version="1.0" encoding="us-ascii" standalone="no"?><svg xmlns="http://www.w3.org/2000/svg" xmlns:xlink="http://www.w3.org/1999/xlink" contentStyleType="text/css" height="251px" preserveAspectRatio="none" style="width:380px;height:251px;background:#FFFFFF;" version="1.1" viewBox="0 0 380 251" width="380px" zoomAndPan="magnify"><defs/><g><!--class Set--><g id="elem_Set"><rect codeLine="5" fill="#FFFFFF" height="44" id="Set" rx="2.5" ry="2.5" style="stroke:#000000;stroke-width:1.0;" width="64" x="82" y="15"/><ellipse cx="95" cy="29" fill="#FFFFFF" rx="9" ry="9" style="stroke:#000000;stroke-width:1.0;"/><path d="M92.1719,25.5781 L92.1719,23.7969 L98.25,23.7969 L98.25,25.5781 L96.2188,25.5781 L96.2188,32.2188 L98.25,32.2188 L98.25,34 L92.1719,34 L92.1719,32.2188 L94.2031,32.2188 L94.2031,25.5781 L92.1719,25.5781 Z " fill="#000000"/><text fill="#000000" font-family="Consolas" font-size="14" font-style="italic" lengthAdjust="spacing" textLength="23" x="107" y="33.8467">Set</text><rect fill="#FFFFFF" height="18.2969" style="stroke:#000000;stroke-width:1.0;stroke-dasharray:2.0,2.0;" width="11" x="138" y="12"/><text fill="#000000" font-family="Verdana" font-size="14" font-style="italic" lengthAdjust="spacing" textLength="9" x="139" y="25.9951">E</text><line style="stroke:#000000;stroke-width:1.0;" x1="83" x2="145" y1="43" y2="43"/><line style="stroke:#000000;stroke-width:1.0;" x1="83" x2="145" y1="51" y2="51"/></g><!--class HashSet--><g id="elem_HashSet"><rect codeLine="6" fill="#FFFFFF" height="125.4844" id="HashSet" rx="2.5" ry="2.5" style="stroke:#000000;stroke-width:1.0;" width="204" x="12" y="119"/><ellipse cx="74.75" cy="133" fill="#FFFFFF" rx="9" ry="9" style="stroke:#000000;stroke-width:1.0;"/><path d="M77.1406,137.7031 Q76.6563,137.9531 76.125,138.0781 Q75.6094,138.2031 75.0313,138.2031 Q72.9688,138.2031 71.875,136.8438 Q70.7969,135.4844 70.7969,132.9063 Q70.7969,130.3281 71.875,128.9688 Q72.9688,127.6094 75.0313,127.6094 Q75.6094,127.6094 76.1406,127.7344 Q76.6719,127.8594 77.1406,128.0938 L77.1406,130.3438 Q76.625,129.8594 76.125,129.6406 Q75.6406,129.4219 75.125,129.4219 Q74.0156,129.4219 73.4531,130.2969 Q72.8906,131.1719 72.8906,132.9063 Q72.8906,134.625 73.4531,135.5156 Q74.0156,136.3906 75.125,136.3906 Q75.6406,136.3906 76.125,136.1719 Q76.625,135.9375 77.1406,135.4688 L77.1406,137.7031 Z " fill="#000000"/><text fill="#000000" font-family="Consolas" font-size="14" lengthAdjust="spacing" textLength="58" x="92.25" y="137.8467">HashSet</text><rect fill="#FFFFFF" height="18.2969" style="stroke:#000000;stroke-width:1.0;stroke-dasharray:2.0,2.0;" width="11" x="208" y="116"/><text fill="#000000" font-family="Verdana" font-size="14" font-style="italic" lengthAdjust="spacing" textLength="9" x="209" y="129.9951">E</text><line style="stroke:#000000;stroke-width:1.0;" x1="13" x2="215" y1="147" y2="147"/><rect fill="none" height="6" style="stroke:#000000;stroke-width:1.0;" width="6" x="20" y="157.6484"/><text fill="#000000" font-family="Consolas" font-size="14" lengthAdjust="spacing" textLength="180" x="30" y="163.9951">HashMap&lt;E,Object&gt; map</text><rect fill="none" height="6" style="stroke:#000000;stroke-width:1.0;" width="6" x="20" y="173.9453"/><text fill="#000000" font-family="Consolas" font-size="14" lengthAdjust="spacing" text-decoration="underline" textLength="114" x="30" y="180.292">Object PRESENT</text><line style="stroke:#000000;stroke-width:1.0;" x1="13" x2="215" y1="187.5938" y2="187.5938"/><ellipse cx="23" cy="201.2422" fill="#FFFFFF" rx="3" ry="3" style="stroke:#000000;stroke-width:1.0;"/><text fill="#000000" font-family="Consolas" font-size="14" lengthAdjust="spacing" textLength="105" x="30" y="204.5889">add(E) boolean</text><ellipse cx="23" cy="217.5391" fill="#FFFFFF" rx="3" ry="3" style="stroke:#000000;stroke-width:1.0;"/><text fill="#000000" font-family="Consolas" font-size="14" lengthAdjust="spacing" textLength="138" x="30" y="220.8857">contains(E) boolean</text><ellipse cx="23" cy="233.8359" fill="#FFFFFF" rx="3" ry="3" style="stroke:#000000;stroke-width:1.0;"/><text fill="#000000" font-family="Consolas" font-size="14" lengthAdjust="spacing" textLength="131" x="30" y="237.1826">remove(E) boolean</text></g><!--class HashMap--><g id="elem_HashMap"><rect codeLine="13" fill="#FFFFFF" height="44" id="HashMap" rx="2.5" ry="2.5" style="stroke:#000000;stroke-width:1.0;" width="118" x="251" y="159.74"/><ellipse cx="264" cy="173.74" fill="#FFFFFF" rx="9" ry="9" style="stroke:#000000;stroke-width:1.0;"/><path d="M266.3906,178.4431 Q265.9063,178.6931 265.375,178.8181 Q264.8594,178.9431 264.2813,178.9431 Q262.2188,178.9431 261.125,177.5837 Q260.0469,176.2244 260.0469,173.6462 Q260.0469,171.0681 261.125,169.7087 Q262.2188,168.3494 264.2813,168.3494 Q264.8594,168.3494 265.3906,168.4744 Q265.9219,168.5994 266.3906,168.8337 L266.3906,171.0837 Q265.875,170.5994 265.375,170.3806 Q264.8906,170.1619 264.375,170.1619 Q263.2656,170.1619 262.7031,171.0369 Q262.1406,171.9119 262.1406,173.6462 Q262.1406,175.365 262.7031,176.2556 Q263.2656,177.1306 264.375,177.1306 Q264.8906,177.1306 265.375,176.9119 Q265.875,176.6775 266.3906,176.2087 L266.3906,178.4431 Z " fill="#000000"/><text fill="#000000" font-family="Consolas" font-size="14" lengthAdjust="spacing" textLength="64" x="276" y="178.5867">HashMap</text><rect fill="#FFFFFF" height="18.2969" style="stroke:#000000;stroke-width:1.0;stroke-dasharray:2.0,2.0;" width="24" x="348" y="156.74"/><text fill="#000000" font-family="Verdana" font-size="14" font-style="italic" lengthAdjust="spacing" textLength="22" x="349" y="170.7351">K,V</text><line style="stroke:#000000;stroke-width:1.0;" x1="252" x2="368" y1="187.74" y2="187.74"/><line style="stroke:#000000;stroke-width:1.0;" x1="252" x2="368" y1="195.74" y2="195.74"/></g><!--reverse link Set to HashSet--><g id="link_Set_HashSet"><path codeLine="15" d="M114,79.95 C114,92.1 114,105.63 114,118.73 " fill="none" id="Set-backto-HashSet" style="stroke:#000000;stroke-width:1.0;stroke-dasharray:7.0,7.0;"/><polygon fill="none" points="107,80.37,114,60.37,121,80.37,107,80.37" style="stroke:#000000;stroke-width:1.0;"/></g><!--reverse link HashSet to HashMap--><g id="link_HashSet_HashMap"><path codeLine="16" d="M230.2,181.74 C237.02,181.74 243.83,181.74 250.65,181.74 " fill="none" id="HashSet-backto-HashMap" style="stroke:#000000;stroke-width:1.0;"/><polygon fill="#000000" points="217.21,181.74,223.21,185.74,229.21,181.74,223.21,177.74,217.21,181.74" style="stroke:#000000;stroke-width:1.0;"/></g><!--SRC=[XO_B2i8m44NNvYl6dOyg22wb6ua8uWChxiTqIgDfKfhHXRN_RgiYnOtBEHVkFTFbb3A2tA2smb-qpR7035YpeOMp7EaxmMJQYc9Ay6huRxZ1kdVkh7S6lT2MgKXG4KJ4CnaALLCFI_Jf6q0fEgFNlSPy9eFjwKoAGyWmRuBICx9MrHl3RYyZkJc8pX0mZdko3oVd3A5jYAhNwtVy3oueSpTgmwfbqQokWcCenCS9njVn8snqlsGmAhwAJm00]--></g></svg>