<?xml version="1.0" encoding="us-ascii" standalone="no"?><svg xmlns="http://www.w3.org/2000/svg" xmlns:xlink="http://www.w3.org/1999/xlink" contentStyleType="text/css" height="232px" preserveAspectRatio="none" style="width:1017px;height:232px;background:#FFFFFF;" version="1.1" viewBox="0 0 1017 232" width="1017px" zoomAndPan="magnify"><defs/><g><!--class AnnotatedGenericBeanDefinition--><g id="elem_AnnotatedGenericBeanDefinition"><rect codeLine="5" fill="#FFFFFF" height="76.5938" id="AnnotatedGenericBeanDefinition" rx="2.5" ry="2.5" style="stroke:#000000;stroke-width:1.0;" width="308" x="445" y="148.6"/><ellipse cx="481.85" cy="162.6" fill="#FFFFFF" rx="9" ry="9" style="stroke:#000000;stroke-width:1.0;"/><path d="M484.2406,167.3031 Q483.7563,167.5531 483.225,167.6781 Q482.7094,167.8031 482.1313,167.8031 Q480.0688,167.8031 478.975,166.4438 Q477.8969,165.0844 477.8969,162.5063 Q477.8969,159.9281 478.975,158.5688 Q480.0688,157.2094 482.1313,157.2094 Q482.7094,157.2094 483.2406,157.3344 Q483.7719,157.4594 484.2406,157.6938 L484.2406,159.9438 Q483.725,159.4594 483.225,159.2406 Q482.7406,159.0219 482.225,159.0219 Q481.1156,159.0219 480.5531,159.8969 Q479.9906,160.7719 479.9906,162.5063 Q479.9906,164.225 480.5531,165.1156 Q481.1156,165.9906 482.225,165.9906 Q482.7406,165.9906 483.225,165.7719 Q483.725,165.5375 484.2406,165.0688 L484.2406,167.3031 Z " fill="#000000"/><text fill="#000000" font-family="Consolas" font-size="14" lengthAdjust="spacing" textLength="227" x="499.15" y="167.4467">AnnotatedGenericBeanDefinition</text><line style="stroke:#000000;stroke-width:1.0;" x1="446" x2="752" y1="176.6" y2="176.6"/><rect fill="none" height="6" style="stroke:#000000;stroke-width:1.0;" width="6" x="453" y="187.2484"/><text fill="#000000" font-family="Consolas" font-size="14" lengthAdjust="spacing" textLength="208" x="463" y="193.5951">AnnotationMetadata metadata</text><rect fill="none" height="6" style="stroke:#000000;stroke-width:1.0;" width="6" x="453" y="203.5453"/><text fill="#000000" font-family="Consolas" font-size="14" lengthAdjust="spacing" textLength="284" x="463" y="209.892">MethodMetadata factoryMethodMetadata</text><line style="stroke:#000000;stroke-width:1.0;" x1="446" x2="752" y1="217.1938" y2="217.1938"/></g><!--class AnnotationMetadata--><g id="elem_AnnotationMetadata"><rect codeLine="9" fill="#FFFFFF" height="76.5938" id="AnnotationMetadata" rx="2.5" ry="2.5" style="stroke:#000000;stroke-width:1.0;" width="398" x="12" y="148.6"/><ellipse cx="137.75" cy="162.6" fill="#FFFFFF" rx="9" ry="9" style="stroke:#000000;stroke-width:1.0;"/><path d="M134.9219,159.1781 L134.9219,157.3969 L141,157.3969 L141,159.1781 L138.9688,159.1781 L138.9688,165.8188 L141,165.8188 L141,167.6 L134.9219,167.6 L134.9219,165.8188 L136.9531,165.8188 L136.9531,159.1781 L134.9219,159.1781 Z " fill="#000000"/><text fill="#000000" font-family="Consolas" font-size="14" font-style="italic" lengthAdjust="spacing" textLength="139" x="155.25" y="167.4467">AnnotationMetadata</text><line style="stroke:#000000;stroke-width:1.0;" x1="13" x2="409" y1="176.6" y2="176.6"/><line style="stroke:#000000;stroke-width:1.0;" x1="13" x2="409" y1="184.6" y2="184.6"/><ellipse cx="23" cy="198.2484" fill="#FFFFFF" rx="3" ry="3" style="stroke:#000000;stroke-width:1.0;"/><text fill="#000000" font-family="Consolas" font-size="14" lengthAdjust="spacing" textLength="374" x="30" y="201.5951">getAnnotatedMethods(String) Set&lt;MethodMetadata&gt;</text><ellipse cx="23" cy="214.5453" fill="#FFFFFF" rx="3" ry="3" style="stroke:#000000;stroke-width:1.0;"/><text fill="#000000" font-family="Consolas" font-size="14" lengthAdjust="spacing" text-decoration="underline" textLength="291" x="30" y="217.892">introspect(Class&lt;?&gt;) AnnotationMetadata</text></g><!--class ClassMetadata--><g id="elem_ClassMetadata"><rect codeLine="13" fill="#FFFFFF" height="60.2969" id="ClassMetadata" rx="2.5" ry="2.5" style="stroke:#000000;stroke-width:1.0;" width="178" x="122" y="20.15"/><ellipse cx="157.05" cy="34.15" fill="#FFFFFF" rx="9" ry="9" style="stroke:#000000;stroke-width:1.0;"/><path d="M154.2219,30.7281 L154.2219,28.9469 L160.3,28.9469 L160.3,30.7281 L158.2688,30.7281 L158.2688,37.3688 L160.3,37.3688 L160.3,39.15 L154.2219,39.15 L154.2219,37.3688 L156.2531,37.3688 L156.2531,30.7281 L154.2219,30.7281 Z " fill="#000000"/><text fill="#000000" font-family="Consolas" font-size="14" font-style="italic" lengthAdjust="spacing" textLength="101" x="173.95" y="38.9967">ClassMetadata</text><line style="stroke:#000000;stroke-width:1.0;" x1="123" x2="299" y1="48.15" y2="48.15"/><line style="stroke:#000000;stroke-width:1.0;" x1="123" x2="299" y1="56.15" y2="56.15"/><ellipse cx="133" cy="69.7984" fill="#FFFFFF" rx="3" ry="3" style="stroke:#000000;stroke-width:1.0;"/><text fill="#000000" font-family="Consolas" font-size="14" lengthAdjust="spacing" textLength="154" x="140" y="73.1451">getClassName() String</text></g><!--class AnnotatedTypeMetadata--><g id="elem_AnnotatedTypeMetadata"><rect codeLine="16" fill="#FFFFFF" height="76.5938" id="AnnotatedTypeMetadata" rx="2.5" ry="2.5" style="stroke:#000000;stroke-width:1.0;" width="280" x="547" y="12"/><ellipse cx="598.25" cy="26" fill="#FFFFFF" rx="9" ry="9" style="stroke:#000000;stroke-width:1.0;"/><path d="M595.4219,22.5781 L595.4219,20.7969 L601.5,20.7969 L601.5,22.5781 L599.4688,22.5781 L599.4688,29.2188 L601.5,29.2188 L601.5,31 L595.4219,31 L595.4219,29.2188 L597.4531,29.2188 L597.4531,22.5781 L595.4219,22.5781 Z " fill="#000000"/><text fill="#000000" font-family="Consolas" font-size="14" font-style="italic" lengthAdjust="spacing" textLength="170" x="615.75" y="30.8467">AnnotatedTypeMetadata</text><line style="stroke:#000000;stroke-width:1.0;" x1="548" x2="826" y1="40" y2="40"/><line style="stroke:#000000;stroke-width:1.0;" x1="548" x2="826" y1="48" y2="48"/><ellipse cx="558" cy="61.6484" fill="#FFFFFF" rx="3" ry="3" style="stroke:#000000;stroke-width:1.0;"/><text fill="#000000" font-family="Consolas" font-size="14" lengthAdjust="spacing" textLength="256" x="565" y="64.9951">getAnnotations() MergedAnnotations</text><ellipse cx="558" cy="77.9453" fill="#FFFFFF" rx="3" ry="3" style="stroke:#000000;stroke-width:1.0;"/><text fill="#000000" font-family="Consolas" font-size="14" lengthAdjust="spacing" textLength="193" x="565" y="81.292">isAnnotated(String) boolean</text></g><!--class MethodMetadata--><g id="elem_MethodMetadata"><rect codeLine="20" fill="#FFFFFF" height="76.5938" id="MethodMetadata" rx="2.5" ry="2.5" style="stroke:#000000;stroke-width:1.0;" width="222" x="788" y="148.6"/><ellipse cx="836.75" cy="162.6" fill="#FFFFFF" rx="9" ry="9" style="stroke:#000000;stroke-width:1.0;"/><path d="M833.9219,159.1781 L833.9219,157.3969 L840,157.3969 L840,159.1781 L837.9688,159.1781 L837.9688,165.8188 L840,165.8188 L840,167.6 L833.9219,167.6 L833.9219,165.8188 L835.9531,165.8188 L835.9531,159.1781 L833.9219,159.1781 Z " fill="#000000"/><text fill="#000000" font-family="Consolas" font-size="14" font-style="italic" lengthAdjust="spacing" textLength="117" x="854.25" y="167.4467">MethodMetadata</text><line style="stroke:#000000;stroke-width:1.0;" x1="789" x2="1009" y1="176.6" y2="176.6"/><line style="stroke:#000000;stroke-width:1.0;" x1="789" x2="1009" y1="184.6" y2="184.6"/><ellipse cx="799" cy="198.2484" fill="#FFFFFF" rx="3" ry="3" style="stroke:#000000;stroke-width:1.0;"/><text fill="#000000" font-family="Consolas" font-size="14" lengthAdjust="spacing" textLength="170" x="806" y="201.5951">getMethodName() String</text><ellipse cx="799" cy="214.5453" fill="#FFFFFF" rx="3" ry="3" style="stroke:#000000;stroke-width:1.0;"/><text fill="#000000" font-family="Consolas" font-size="14" lengthAdjust="spacing" textLength="198" x="806" y="217.892">getReturnTypeName() String</text></g><!--reverse link AnnotatedTypeMetadata to MethodMetadata--><g id="link_AnnotatedTypeMetadata_MethodMetadata"><path codeLine="24" d="M764,100.19 C788.95,116.03 816.22,133.34 839.68,148.23 " fill="none" id="AnnotatedTypeMetadata-backto-MethodMetadata" style="stroke:#000000;stroke-width:1.0;"/><polygon fill="none" points="760.47,105.6,747.34,88.97,767.97,93.78,760.47,105.6" style="stroke:#000000;stroke-width:1.0;"/></g><!--reverse link ClassMetadata to AnnotationMetadata--><g id="link_ClassMetadata_AnnotationMetadata"><path codeLine="25" d="M211,101.75 C211,117.16 211,133.82 211,148.22 " fill="none" id="ClassMetadata-backto-AnnotationMetadata" style="stroke:#000000;stroke-width:1.0;"/><polygon fill="none" points="204,101.84,211,81.84,218,101.84,204,101.84" style="stroke:#000000;stroke-width:1.0;"/></g><!--reverse link AnnotatedTypeMetadata to AnnotationMetadata--><g id="link_AnnotatedTypeMetadata_AnnotationMetadata"><path codeLine="26" d="M533.58,94.68 C472.65,111.91 403.23,131.54 344.44,148.16 " fill="none" id="AnnotatedTypeMetadata-backto-AnnotationMetadata" style="stroke:#000000;stroke-width:1.0;"/><polygon fill="none" points="531.31,87.77,552.46,89.06,535.12,101.24,531.31,87.77" style="stroke:#000000;stroke-width:1.0;"/></g><!--link AnnotationMetadata to AnnotatedGenericBeanDefinition--><g id="link_AnnotationMetadata_AnnotatedGenericBeanDefinition"><path codeLine="27" d="M410.3,186.89 C417.09,186.89 423.87,186.89 430.66,186.89 " fill="none" id="AnnotationMetadata-to-AnnotatedGenericBeanDefinition" style="stroke:#000000;stroke-width:1.0;"/><polygon fill="#000000" points="443.58,186.89,437.58,182.89,431.58,186.89,437.58,190.89,443.58,186.89" style="stroke:#000000;stroke-width:1.0;"/></g><!--reverse link AnnotatedGenericBeanDefinition to MethodMetadata--><g id="link_AnnotatedGenericBeanDefinition_MethodMetadata"><path codeLine="28" d="M767.26,186.89 C774.01,186.89 780.77,186.89 787.52,186.89 " fill="none" id="AnnotatedGenericBeanDefinition-backto-MethodMetadata" style="stroke:#000000;stroke-width:1.0;"/><polygon fill="#000000" points="754.39,186.89,760.39,190.89,766.39,186.89,760.39,182.89,754.39,186.89" style="stroke:#000000;stroke-width:1.0;"/></g><!--SRC=[XL91JiCm43pZLvXR2ie1YMCLH8lWL0wK3vXuareuwyZU74hftx6JDgg3srwYP6PtPdQpjxI11dYhXKBclXMsmeg6ao8DhmPfhNw0FpoUK18gqMcwIhuBhxiqw8mMZfN-uVWpeY518Dy0mQfo0G9Ve5AeI1daEtQJ7slyzmf8I462DuUNG7jmO-H8LQ8aOxSnolPC8O7r9AJqlCyzhu76E4ExozPa5TOplWQQnv95QDcv85JkkLUtnhLGKhOCWysVYbd2AChH5_wBqADXLPbtxTrJuK5-RbiubzyxEj- -0bk3FC52bNAZn3ZTbp7QBpuocgprw330SRw1-G3gB8POq_GJgRnhyzyYFGbB_9n3VRIk2tKNTSyTsbskKuTslSrE3_0F]--></g></svg>