<?xml version="1.0" encoding="us-ascii" standalone="no"?><svg xmlns="http://www.w3.org/2000/svg" xmlns:xlink="http://www.w3.org/1999/xlink" contentStyleType="text/css" height="453px" preserveAspectRatio="none" style="width:592px;height:453px;background:#FFFFFF;" version="1.1" viewBox="0 0 592 453" width="592px" zoomAndPan="magnify"><defs/><g><rect fill="none" height="431.4688" style="stroke:#000000;stroke-width:1.5;" width="570" x="11" y="11"/><path d="M256,11 L256,20.2969 L246,30.2969 L11,30.2969 " fill="none" style="stroke:#000000;stroke-width:1.5;"/><text fill="#000000" font-family="sans-serif" font-size="14" lengthAdjust="spacing" textLength="235" x="14" y="24.9951">AbstractBeanFactory#createBean</text><ellipse cx="235.75" cy="50.2969" fill="#222222" rx="10" ry="10" style="stroke:#222222;stroke-width:1.0;"/><rect fill="#F1F1F1" height="33.9688" rx="12.5" ry="12.5" style="stroke:#181818;stroke-width:0.5;" width="125" x="173.25" y="80.2969"/><text fill="#000000" font-family="sans-serif" font-size="12" lengthAdjust="spacing" textLength="101" x="187.25" y="101.4355">&#35299;&#26512;Bean&#30340;Class</text><rect fill="#F1F1F1" height="33.9688" rx="12.5" ry="12.5" style="stroke:#181818;stroke-width:0.5;" width="96" x="187.75" y="134.2656"/><text fill="#000000" font-family="sans-serif" font-size="12" lengthAdjust="spacing" textLength="72" x="201.75" y="155.4043">&#20934;&#22791;&#26041;&#27861;&#37325;&#20889;</text><rect fill="#F1F1F1" height="33.9688" rx="12.5" ry="12.5" style="stroke:#181818;stroke-width:0.5;" width="128" x="171.75" y="188.2344"/><text fill="#000000" font-family="sans-serif" font-size="12" lengthAdjust="spacing" textLength="104" x="185.75" y="209.373">&#23454;&#20363;&#21270;&#21069;&#35299;&#26512;Bean</text><polygon fill="#F1F1F1" points="129.75,242.2031,341.75,242.2031,353.75,254.2031,341.75,266.2031,129.75,266.2031,117.75,254.2031,129.75,242.2031" style="stroke:#181818;stroke-width:0.5;"/><text fill="#000000" font-family="sans-serif" font-size="11" lengthAdjust="spacing" textLength="212" x="129.75" y="258.0112">&#23454;&#20363;&#21270;&#21069;&#35299;&#26512;Bean&#26159;&#21542;&#36820;&#22238;&#20102;Bean&#23454;&#20363;&#65311;</text><text fill="#000000" font-family="sans-serif" font-size="11" lengthAdjust="spacing" textLength="11" x="106.75" y="251.6089">&#26159;</text><text fill="#000000" font-family="sans-serif" font-size="11" lengthAdjust="spacing" textLength="11" x="353.75" y="251.6089">&#21542;</text><rect fill="#F1F1F1" height="33.9688" rx="12.5" ry="12.5" style="stroke:#181818;stroke-width:0.5;" width="140" x="23" y="276.2031"/><text fill="#000000" font-family="sans-serif" font-size="12" lengthAdjust="spacing" textLength="116" x="37" y="297.3418">&#36820;&#22238;&#35299;&#26512;&#30340;Bean&#23454;&#20363;</text><rect fill="none" height="82.2656" style="stroke:#000000;stroke-width:1.5;" width="386" x="183" y="276.2031"/><path d="M564,276.2031 L564,285.5 L554,295.5 L183,295.5 " fill="none" style="stroke:#000000;stroke-width:1.5;"/><text fill="#000000" font-family="sans-serif" font-size="14" lengthAdjust="spacing" textLength="371" x="186" y="290.1982">AbstractAutowireCapableBeanFactory#doCreateBean</text><rect fill="#F1F1F1" height="33.9688" rx="12.5" ry="12.5" style="stroke:#181818;stroke-width:0.5;" width="104" x="326.5" y="312.5"/><text fill="#000000" font-family="sans-serif" font-size="12" lengthAdjust="spacing" textLength="80" x="340.5" y="333.6387">&#21019;&#24314;Bean&#23454;&#20363;</text><polygon fill="#F1F1F1" points="235.75,364.4688,247.75,376.4688,235.75,388.4688,223.75,376.4688,235.75,364.4688" style="stroke:#181818;stroke-width:0.5;"/><ellipse cx="235.75" cy="419.4688" fill="none" rx="11" ry="11" style="stroke:#222222;stroke-width:1.0;"/><ellipse cx="235.75" cy="419.4688" fill="#222222" rx="6" ry="6" style="stroke:#111111;stroke-width:1.0;"/><line style="stroke:#181818;stroke-width:1.0;" x1="235.75" x2="235.75" y1="60.2969" y2="80.2969"/><polygon fill="#181818" points="231.75,70.2969,235.75,80.2969,239.75,70.2969,235.75,74.2969" style="stroke:#181818;stroke-width:1.0;"/><line style="stroke:#181818;stroke-width:1.0;" x1="235.75" x2="235.75" y1="114.2656" y2="134.2656"/><polygon fill="#181818" points="231.75,124.2656,235.75,134.2656,239.75,124.2656,235.75,128.2656" style="stroke:#181818;stroke-width:1.0;"/><line style="stroke:#181818;stroke-width:1.0;" x1="235.75" x2="235.75" y1="168.2344" y2="188.2344"/><polygon fill="#181818" points="231.75,178.2344,235.75,188.2344,239.75,178.2344,235.75,182.2344" style="stroke:#181818;stroke-width:1.0;"/><line style="stroke:#181818;stroke-width:1.0;" x1="117.75" x2="93" y1="254.2031" y2="254.2031"/><line style="stroke:#181818;stroke-width:1.0;" x1="93" x2="93" y1="254.2031" y2="276.2031"/><polygon fill="#181818" points="89,266.2031,93,276.2031,97,266.2031,93,270.2031" style="stroke:#181818;stroke-width:1.0;"/><line style="stroke:#181818;stroke-width:1.0;" x1="353.75" x2="378.5" y1="254.2031" y2="254.2031"/><line style="stroke:#181818;stroke-width:1.0;" x1="378.5" x2="378.5" y1="254.2031" y2="312.5"/><polygon fill="#181818" points="374.5,302.5,378.5,312.5,382.5,302.5,378.5,306.5" style="stroke:#181818;stroke-width:1.0;"/><line style="stroke:#181818;stroke-width:1.0;" x1="93" x2="93" y1="310.1719" y2="376.4688"/><line style="stroke:#181818;stroke-width:1.0;" x1="93" x2="223.75" y1="376.4688" y2="376.4688"/><polygon fill="#181818" points="213.75,372.4688,223.75,376.4688,213.75,380.4688,217.75,376.4688" style="stroke:#181818;stroke-width:1.0;"/><line style="stroke:#181818;stroke-width:1.0;" x1="378.5" x2="378.5" y1="346.4688" y2="376.4688"/><line style="stroke:#181818;stroke-width:1.0;" x1="378.5" x2="247.75" y1="376.4688" y2="376.4688"/><polygon fill="#181818" points="257.75,372.4688,247.75,376.4688,257.75,380.4688,253.75,376.4688" style="stroke:#181818;stroke-width:1.0;"/><line style="stroke:#181818;stroke-width:1.0;" x1="235.75" x2="235.75" y1="222.2031" y2="242.2031"/><polygon fill="#181818" points="231.75,232.2031,235.75,242.2031,239.75,232.2031,235.75,236.2031" style="stroke:#181818;stroke-width:1.0;"/><line style="stroke:#181818;stroke-width:1.0;" x1="235.75" x2="235.75" y1="388.4688" y2="408.4688"/><polygon fill="#181818" points="231.75,398.4688,235.75,408.4688,239.75,398.4688,235.75,402.4688" style="stroke:#181818;stroke-width:1.0;"/><!--SRC=[Io_ABorGS4mgBYbAJ2vnIatCSmFI-KMLoib5gOabgI0HhkAInA8IBYk55yiNFvit0IJqV5QBSqvYSR4rKFHfUzlJ9UtFfkryjddgo_RUfsqpmQBhvZtPr_sqPzhJpbw4Fckkp3G53UnopsQiVpfXsOlzKvxEdlTaLnj82ABm_PxvcWeb6Qbv2Xf0DPfSd42NW5L1z0BTWb1hpPMQKvmAj6B2Cg32T1JVEPQMv9Td5gKw9nOa9kMa8dis9TyPuLsW-KyxPZ_TlGlPMCxKl1G5i7bSG5Pc6Z1Gyi5CY200]--></g></svg>