<?xml version="1.0" encoding="us-ascii" standalone="no"?><svg xmlns="http://www.w3.org/2000/svg" xmlns:xlink="http://www.w3.org/1999/xlink" contentStyleType="text/css" height="127px" preserveAspectRatio="none" style="width:418px;height:127px;background:#FFFFFF;" version="1.1" viewBox="0 0 418 127" width="418px" zoomAndPan="magnify"><defs/><g><text fill="#000000" font-family="sans-serif" font-size="14" font-weight="bold" lengthAdjust="spacing" textLength="211" x="96.5" y="22.9951">HashMap&#20013;&#38142;&#34920;&#21644;&#32418;&#40657;&#26641;&#30340;&#36716;&#25442;</text><!--entity l--><g id="elem_l"><rect fill="#F1F1F1" height="46.2969" rx="2.5" ry="2.5" style="stroke:#181818;stroke-width:0.5;" width="68" x="7" y="55.7128"/><rect fill="#F1F1F1" height="10" style="stroke:#181818;stroke-width:0.5;" width="15" x="55" y="60.7128"/><rect fill="#F1F1F1" height="2" style="stroke:#181818;stroke-width:0.5;" width="4" x="53" y="62.7128"/><rect fill="#F1F1F1" height="2" style="stroke:#181818;stroke-width:0.5;" width="4" x="53" y="66.7128"/><text fill="#000000" font-family="sans-serif" font-size="14" lengthAdjust="spacing" textLength="28" x="22" y="88.7079">&#38142;&#34920;</text></g><!--entity t--><g id="elem_t"><rect fill="#F1F1F1" height="46.2969" rx="2.5" ry="2.5" style="stroke:#181818;stroke-width:0.5;" width="82" x="330" y="55.7128"/><rect fill="#F1F1F1" height="10" style="stroke:#181818;stroke-width:0.5;" width="15" x="392" y="60.7128"/><rect fill="#F1F1F1" height="2" style="stroke:#181818;stroke-width:0.5;" width="4" x="390" y="62.7128"/><rect fill="#F1F1F1" height="2" style="stroke:#181818;stroke-width:0.5;" width="4" x="390" y="66.7128"/><text fill="#000000" font-family="sans-serif" font-size="14" lengthAdjust="spacing" textLength="42" x="345" y="88.7079">&#32418;&#40657;&#26641;</text></g><!--link l to t--><g id="link_l_t"><path d="M75.38,78.8628 C134.75,78.8628 256.58,78.8628 323.82,78.8628 " fill="none" id="l-to-t" style="stroke:#181818;stroke-width:1.0;stroke-dasharray:7.0,7.0;"/><polygon fill="#181818" points="328.76,78.8628,319.76,74.8628,323.76,78.8628,319.76,82.8628,328.76,78.8628" style="stroke:#181818;stroke-width:1.0;"/><text fill="#000000" font-family="sans-serif" font-size="13" lengthAdjust="spacing" textLength="26" x="189.5" y="56.9297">&#26641;&#21270;</text><text fill="#000000" font-family="sans-serif" font-size="13" lengthAdjust="spacing" textLength="219" x="93" y="72.0625">&#65288;&#26368;&#23567;&#26641;&#21270;&#23481;&#37327;&#20026;64&#65292;&#26641;&#21270;&#38408;&#20540;&#20026;8&#65289;</text></g><!--link t to l--><g id="link_t_l"><path d="M329.61,94.3328 C307.27,101.8628 279.01,110.0928 253,113.8628 C208.58,120.3128 196.37,120.6928 152,113.8628 C127.8,110.1428 101.64,102.1028 80.8,94.6628 " fill="none" id="t-to-l" style="stroke:#181818;stroke-width:1.0;stroke-dasharray:7.0,7.0;"/><polygon fill="#181818" points="76.34,92.6928,83.4495,99.5086,81.0435,94.3889,86.1632,91.983,76.34,92.6928" style="stroke:#181818;stroke-width:1.0;"/><text fill="#000000" font-family="sans-serif" font-size="13" lengthAdjust="spacing" textLength="26" x="189.5" y="94.9297">&#38142;&#21270;</text><text fill="#000000" font-family="sans-serif" font-size="13" lengthAdjust="spacing" textLength="99" x="153" y="110.0625">&#65288;&#38142;&#21270;&#38408;&#20540;&#20026;6&#65289;</text></g><!--SRC=[AyaioKbLy4Wipl1DB7YoO-tBoVjUB5pnT5BFyrsBNkwU-6p1nEUpMbxiNVEiTn5ND4GoLY6nM267Angk0YnGmfMZe6UdKA9WfG0KUjepBIRl_PwEPtCQdcxeXmWyNRVpPNl_ansxp4pUx-c1YBsSqV6qOGzGpEBzdawk4f09EK0JW1R1J80muUhCWEe0]--></g></svg>