<?xml version="1.0" encoding="us-ascii" standalone="no"?><svg xmlns="http://www.w3.org/2000/svg" xmlns:xlink="http://www.w3.org/1999/xlink" contentStyleType="text/css" height="572px" preserveAspectRatio="none" style="width:540px;height:572px;background:#FFFFFF;" version="1.1" viewBox="0 0 540 572" width="540px" zoomAndPan="magnify"><defs/><g><text fill="#000000" font-family="Consolas" font-size="14" font-weight="bold" lengthAdjust="spacing" textLength="140" x="198.5" y="27.9951">&#31867;&#21152;&#36733;&#22120;&#21152;&#36733;&#31867;&#30340;&#36807;&#31243;</text><ellipse cx="231.75" cy="52.2969" fill="#FFFFFF" rx="10" ry="10" style="stroke:#000000;stroke-width:1.0;"/><polygon fill="#FFFFFF" points="154.75,141.0391,308.75,141.0391,320.75,153.0391,308.75,165.0391,154.75,165.0391,142.75,153.0391,154.75,141.0391" style="stroke:#000000;stroke-width:1.0;"/><text fill="#000000" font-family="Consolas" font-size="14" lengthAdjust="spacing" textLength="154" x="154.75" y="157.8857">&#29238;&#31867;&#21152;&#36733;&#22120;&#26159;&#21542;&#19981;&#20026;&#31354;&#65311;</text><text fill="#000000" font-family="Consolas" font-size="14" lengthAdjust="spacing" textLength="14" x="128.75" y="149.7373">&#26159;</text><text fill="#000000" font-family="Consolas" font-size="14" lengthAdjust="spacing" textLength="14" x="320.75" y="149.7373">&#21542;</text><rect fill="#FFFFFF" height="52.5938" rx="12.5" ry="12.5" style="stroke:#000000;stroke-width:1.0;" width="192" x="6" y="175.0391"/><text fill="#000000" font-family="Consolas" font-size="14" lengthAdjust="spacing" textLength="168" x="20" y="198.0342">&#22996;&#27966;&#32473;&#29238;&#31867;&#21152;&#36733;&#22120;&#21435;&#21152;&#36733;&#31867;</text><text fill="#000000" font-family="Consolas" font-size="14" lengthAdjust="spacing" textLength="162" x="16" y="214.3311">ClassLoader#loadClass</text><rect fill="#FFFFFF" height="52.5938" rx="12.5" ry="12.5" style="stroke:#000000;stroke-width:1.0;" width="287" x="218" y="175.0391"/><text fill="#000000" font-family="Consolas" font-size="14" lengthAdjust="spacing" textLength="182" x="232" y="198.0342">&#22996;&#27966;&#32473;&#21551;&#21160;&#31867;&#21152;&#36733;&#22120;&#21435;&#21152;&#36733;&#31867;</text><text fill="#000000" font-family="Consolas" font-size="14" lengthAdjust="spacing" textLength="267" x="228" y="214.3311">ClassLoader#findBootstrapClassOrNull</text><polygon fill="#FFFFFF" points="231.75,233.6328,243.75,245.6328,231.75,257.6328,219.75,245.6328,231.75,233.6328" style="stroke:#000000;stroke-width:1.0;"/><rect fill="#FFFFFF" height="52.5938" rx="12.5" ry="12.5" style="stroke:#000000;stroke-width:1.0;" width="178" x="142.75" y="329.2813"/><text fill="#000000" font-family="Consolas" font-size="14" lengthAdjust="spacing" textLength="140" x="152.75" y="352.2764">&#24403;&#21069;&#31867;&#21152;&#36733;&#22120;&#21435;&#21152;&#36733;&#31867;</text><text fill="#000000" font-family="Consolas" font-size="14" lengthAdjust="spacing" textLength="158" x="152.75" y="368.5732">ClassLoader#findClass</text><polygon fill="#FFFFFF" points="182.75,279.1328,280.75,279.1328,292.75,291.1328,280.75,303.1328,182.75,303.1328,170.75,291.1328,182.75,279.1328" style="stroke:#000000;stroke-width:1.0;"/><text fill="#000000" font-family="Consolas" font-size="14" lengthAdjust="spacing" textLength="14" x="235.75" y="316.1279">&#21542;</text><text fill="#000000" font-family="Consolas" font-size="14" lengthAdjust="spacing" textLength="98" x="182.75" y="295.9795">&#21152;&#36733;&#31867;&#26159;&#21542;&#25104;&#21151;</text><text fill="#000000" font-family="Consolas" font-size="14" lengthAdjust="spacing" textLength="14" x="292.75" y="287.8311">&#26159;</text><polygon fill="#FFFFFF" points="231.75,401.875,243.75,413.875,231.75,425.875,219.75,413.875,231.75,401.875" style="stroke:#000000;stroke-width:1.0;"/><polygon fill="#FFFFFF" points="147.75,82.2969,315.75,82.2969,327.75,98.5938,315.75,114.8906,147.75,114.8906,135.75,98.5938,147.75,82.2969" style="stroke:#000000;stroke-width:1.0;"/><text fill="#000000" font-family="Consolas" font-size="14" lengthAdjust="spacing" textLength="14" x="235.75" y="127.8857">&#21542;</text><text fill="#000000" font-family="Consolas" font-size="14" lengthAdjust="spacing" textLength="168" x="147.75" y="95.292">&#25351;&#23450;&#31867;&#26159;&#21542;&#24050;&#32463;&#34987;&#21152;&#36733;&#36807;&#65311;</text><text fill="#000000" font-family="Consolas" font-size="14" lengthAdjust="spacing" textLength="4" x="147.75" y="111.5889">&#160;</text><text fill="#000000" font-family="Consolas" font-size="14" lengthAdjust="spacing" textLength="14" x="327.75" y="95.292">&#26159;</text><polygon fill="#FFFFFF" points="231.75,445.875,243.75,457.875,231.75,469.875,219.75,457.875,231.75,445.875" style="stroke:#000000;stroke-width:1.0;"/><rect fill="#FFFFFF" height="36.2969" rx="12.5" ry="12.5" style="stroke:#000000;stroke-width:1.0;" width="108" x="177.75" y="489.875"/><text fill="#000000" font-family="Consolas" font-size="14" lengthAdjust="spacing" textLength="84" x="191.75" y="512.8701">&#36820;&#22238;&#21152;&#36733;&#30340;&#31867;</text><ellipse cx="231.75" cy="556.1719" fill="#FFFFFF" rx="10" ry="10" style="stroke:#000000;stroke-width:1.5;"/><line style="stroke:#000000;stroke-width:2.5;" x1="225.5628" x2="237.9372" y1="549.9847" y2="562.3591"/><line style="stroke:#000000;stroke-width:2.5;" x1="237.9372" x2="225.5628" y1="549.9847" y2="562.3591"/><line style="stroke:#000000;stroke-width:1.0;" x1="142.75" x2="102" y1="153.0391" y2="153.0391"/><line style="stroke:#000000;stroke-width:1.0;" x1="102" x2="102" y1="153.0391" y2="175.0391"/><polygon fill="#000000" points="98,165.0391,102,175.0391,106,165.0391,102,169.0391" style="stroke:#000000;stroke-width:1.0;"/><line style="stroke:#000000;stroke-width:1.0;" x1="320.75" x2="361.5" y1="153.0391" y2="153.0391"/><line style="stroke:#000000;stroke-width:1.0;" x1="361.5" x2="361.5" y1="153.0391" y2="175.0391"/><polygon fill="#000000" points="357.5,165.0391,361.5,175.0391,365.5,165.0391,361.5,169.0391" style="stroke:#000000;stroke-width:1.0;"/><line style="stroke:#000000;stroke-width:1.0;" x1="102" x2="102" y1="227.6328" y2="245.6328"/><line style="stroke:#000000;stroke-width:1.0;" x1="102" x2="219.75" y1="245.6328" y2="245.6328"/><polygon fill="#000000" points="209.75,241.6328,219.75,245.6328,209.75,249.6328,213.75,245.6328" style="stroke:#000000;stroke-width:1.0;"/><line style="stroke:#000000;stroke-width:1.0;" x1="361.5" x2="361.5" y1="227.6328" y2="245.6328"/><line style="stroke:#000000;stroke-width:1.0;" x1="361.5" x2="243.75" y1="245.6328" y2="245.6328"/><polygon fill="#000000" points="253.75,241.6328,243.75,245.6328,253.75,249.6328,249.75,245.6328" style="stroke:#000000;stroke-width:1.0;"/><line style="stroke:#000000;stroke-width:1.0;" x1="231.75" x2="231.75" y1="303.1328" y2="329.2813"/><polygon fill="#000000" points="227.75,319.2813,231.75,329.2813,235.75,319.2813,231.75,323.2813" style="stroke:#000000;stroke-width:1.0;"/><line style="stroke:#000000;stroke-width:1.0;" x1="292.75" x2="330.75" y1="291.1328" y2="291.1328"/><polygon fill="#000000" points="326.75,345.5781,330.75,355.5781,334.75,345.5781,330.75,349.5781" style="stroke:#000000;stroke-width:1.0;"/><line style="stroke:#000000;stroke-width:1.0;" x1="330.75" x2="330.75" y1="291.1328" y2="413.875"/><line style="stroke:#000000;stroke-width:1.0;" x1="330.75" x2="243.75" y1="413.875" y2="413.875"/><polygon fill="#000000" points="253.75,409.875,243.75,413.875,253.75,417.875,249.75,413.875" style="stroke:#000000;stroke-width:1.0;"/><line style="stroke:#000000;stroke-width:1.0;" x1="231.75" x2="231.75" y1="381.875" y2="401.875"/><polygon fill="#000000" points="227.75,391.875,231.75,401.875,235.75,391.875,231.75,395.875" style="stroke:#000000;stroke-width:1.0;"/><line style="stroke:#000000;stroke-width:1.0;" x1="231.75" x2="231.75" y1="257.6328" y2="279.1328"/><polygon fill="#000000" points="227.75,269.1328,231.75,279.1328,235.75,269.1328,231.75,273.1328" style="stroke:#000000;stroke-width:1.0;"/><line style="stroke:#000000;stroke-width:1.0;" x1="231.75" x2="231.75" y1="114.8906" y2="141.0391"/><polygon fill="#000000" points="227.75,131.0391,231.75,141.0391,235.75,131.0391,231.75,135.0391" style="stroke:#000000;stroke-width:1.0;"/><line style="stroke:#000000;stroke-width:1.0;" x1="327.75" x2="519" y1="98.5938" y2="98.5938"/><polygon fill="#000000" points="515,267.6328,519,277.6328,523,267.6328,519,271.6328" style="stroke:#000000;stroke-width:1.0;"/><line style="stroke:#000000;stroke-width:1.0;" x1="519" x2="519" y1="98.5938" y2="457.875"/><line style="stroke:#000000;stroke-width:1.0;" x1="519" x2="243.75" y1="457.875" y2="457.875"/><polygon fill="#000000" points="253.75,453.875,243.75,457.875,253.75,461.875,249.75,457.875" style="stroke:#000000;stroke-width:1.0;"/><line style="stroke:#000000;stroke-width:1.0;" x1="231.75" x2="231.75" y1="425.875" y2="445.875"/><polygon fill="#000000" points="227.75,435.875,231.75,445.875,235.75,435.875,231.75,439.875" style="stroke:#000000;stroke-width:1.0;"/><line style="stroke:#000000;stroke-width:1.0;" x1="231.75" x2="231.75" y1="62.2969" y2="82.2969"/><polygon fill="#000000" points="227.75,72.2969,231.75,82.2969,235.75,72.2969,231.75,76.2969" style="stroke:#000000;stroke-width:1.0;"/><line style="stroke:#000000;stroke-width:1.0;" x1="231.75" x2="231.75" y1="469.875" y2="489.875"/><polygon fill="#000000" points="227.75,479.875,231.75,489.875,235.75,479.875,231.75,483.875" style="stroke:#000000;stroke-width:1.0;"/><line style="stroke:#000000;stroke-width:1.0;" x1="231.75" x2="231.75" y1="526.1719" y2="546.1719"/><polygon fill="#000000" points="227.75,536.1719,231.75,546.1719,235.75,536.1719,231.75,540.1719" style="stroke:#000000;stroke-width:1.0;"/><!--SRC=[ZOynJm8n5CTd-YbgN60qSO9D4YU3WojBa-l5nj8Zrx8uau2dA8aCS2Pg71HZuaLZb70YNuPtlSslOBapbvD5bhQl__V_lVVVK8UqGN6J4oQGF6AYILpIm8efJdSTeGxOCSLRspd9eZPfSVMlM2E6MtM4T3YHA05Y_HA2TnlFPZ0Qfm_pe_rsFE_eyIcIYhWACHiNexCEFFj6Z8O1zE_XurM75_7TKseoxT-VDtLHmcPxORg7GGaL4EMIug9fDyKIehll-O4fQZ7fBIPJ_JWrXB_-GXd3mo1w-zBXQCKAvs6sRbrKJI2vvn2BkflSN4bTGONy_3mC-W5uu_LuDXFMZkCegLpIJ8HzjzRYV8aN5hFJP9avpHHr- -2jfbdT1sQNSD9RVuiiLJ8sFSiudW_WwlhNvhUDixBKVW00]--></g></svg>