<?xml version="1.0" encoding="us-ascii" standalone="no"?><svg xmlns="http://www.w3.org/2000/svg" xmlns:xlink="http://www.w3.org/1999/xlink" contentStyleType="text/css" height="284px" preserveAspectRatio="none" style="width:258px;height:284px;background:#FFFFFF;" version="1.1" viewBox="0 0 258 284" width="258px" zoomAndPan="magnify"><defs/><g><!--class List--><g id="elem_List"><rect codeLine="5" fill="#FFFFFF" height="44" id="List" rx="2.5" ry="2.5" style="stroke:#000000;stroke-width:1.0;" width="64" x="183" y="15"/><ellipse cx="196" cy="29" fill="#FFFFFF" rx="9" ry="9" style="stroke:#000000;stroke-width:1.0;"/><path d="M193.1719,25.5781 L193.1719,23.7969 L199.25,23.7969 L199.25,25.5781 L197.2188,25.5781 L197.2188,32.2188 L199.25,32.2188 L199.25,34 L193.1719,34 L193.1719,32.2188 L195.2031,32.2188 L195.2031,25.5781 L193.1719,25.5781 Z " fill="#000000"/><text fill="#000000" font-family="Consolas" font-size="14" font-style="italic" lengthAdjust="spacing" textLength="23" x="208" y="33.8467">List</text><rect fill="#FFFFFF" height="18.2969" style="stroke:#000000;stroke-width:1.0;stroke-dasharray:2.0,2.0;" width="11" x="239" y="12"/><text fill="#000000" font-family="Verdana" font-size="14" font-style="italic" lengthAdjust="spacing" textLength="9" x="240" y="25.9951">E</text><line style="stroke:#000000;stroke-width:1.0;" x1="184" x2="246" y1="43" y2="43"/><line style="stroke:#000000;stroke-width:1.0;" x1="184" x2="246" y1="51" y2="51"/></g><!--class RandomAccess--><g id="elem_RandomAccess"><rect codeLine="6" fill="#FFFFFF" height="44" id="RandomAccess" rx="2.5" ry="2.5" style="stroke:#000000;stroke-width:1.0;" width="136" x="12" y="15"/><ellipse cx="25" cy="29" fill="#FFFFFF" rx="9" ry="9" style="stroke:#000000;stroke-width:1.0;"/><path d="M22.1719,25.5781 L22.1719,23.7969 L28.25,23.7969 L28.25,25.5781 L26.2188,25.5781 L26.2188,32.2188 L28.25,32.2188 L28.25,34 L22.1719,34 L22.1719,32.2188 L24.2031,32.2188 L24.2031,25.5781 L22.1719,25.5781 Z " fill="#000000"/><text fill="#000000" font-family="Consolas" font-size="14" font-style="italic" lengthAdjust="spacing" textLength="108" x="37" y="33.8467">RandomAccess</text><line style="stroke:#000000;stroke-width:1.0;" x1="13" x2="147" y1="43" y2="43"/><line style="stroke:#000000;stroke-width:1.0;" x1="13" x2="147" y1="51" y2="51"/></g><!--class Vector--><g id="elem_Vector"><rect codeLine="7" fill="#FFFFFF" height="158.0781" id="Vector" rx="2.5" ry="2.5" style="stroke:#000000;stroke-width:1.0;" width="172" x="61" y="119"/><ellipse cx="114.25" cy="133" fill="#FFFFFF" rx="9" ry="9" style="stroke:#000000;stroke-width:1.0;"/><path d="M116.6406,137.7031 Q116.1563,137.9531 115.625,138.0781 Q115.1094,138.2031 114.5313,138.2031 Q112.4688,138.2031 111.375,136.8437 Q110.2969,135.4844 110.2969,132.9062 Q110.2969,130.3281 111.375,128.9687 Q112.4688,127.6094 114.5313,127.6094 Q115.1094,127.6094 115.6406,127.7344 Q116.1719,127.8594 116.6406,128.0937 L116.6406,130.3437 Q116.125,129.8594 115.625,129.6406 Q115.1406,129.4219 114.625,129.4219 Q113.5156,129.4219 112.9531,130.2969 Q112.3906,131.1719 112.3906,132.9062 Q112.3906,134.625 112.9531,135.5156 Q113.5156,136.3906 114.625,136.3906 Q115.1406,136.3906 115.625,136.1719 Q116.125,135.9375 116.6406,135.4687 L116.6406,137.7031 Z " fill="#000000"/><text fill="#000000" font-family="Consolas" font-size="14" lengthAdjust="spacing" textLength="45" x="131.75" y="137.8467">Vector</text><rect fill="#FFFFFF" height="18.2969" style="stroke:#000000;stroke-width:1.0;stroke-dasharray:2.0,2.0;" width="11" x="225" y="116"/><text fill="#000000" font-family="Verdana" font-size="14" font-style="italic" lengthAdjust="spacing" textLength="9" x="226" y="129.9951">E</text><line style="stroke:#000000;stroke-width:1.0;" x1="62" x2="232" y1="147" y2="147"/><polygon fill="none" points="72,155.6484,76,159.6484,72,163.6484,68,159.6484" style="stroke:#000000;stroke-width:1.0;"/><text fill="#000000" font-family="Consolas" font-size="14" lengthAdjust="spacing" textLength="148" x="79" y="163.9951">Object[] elementData</text><polygon fill="none" points="72,171.9453,76,175.9453,72,179.9453,68,175.9453" style="stroke:#000000;stroke-width:1.0;"/><text fill="#000000" font-family="Consolas" font-size="14" lengthAdjust="spacing" textLength="120" x="79" y="180.292">int elementCount</text><polygon fill="none" points="72,188.2422,76,192.2422,72,196.2422,68,192.2422" style="stroke:#000000;stroke-width:1.0;"/><text fill="#000000" font-family="Consolas" font-size="14" lengthAdjust="spacing" textLength="147" x="79" y="196.5889">int capacityIncrement</text><polygon fill="none" points="72,204.5391,76,208.5391,72,212.5391,68,208.5391" style="stroke:#000000;stroke-width:1.0;"/><text fill="#000000" font-family="Consolas" font-size="14" lengthAdjust="spacing" textLength="94" x="79" y="212.8857">int modCount</text><line style="stroke:#000000;stroke-width:1.0;" x1="62" x2="232" y1="220.1875" y2="220.1875"/><ellipse cx="72" cy="233.8359" fill="#FFFFFF" rx="3" ry="3" style="stroke:#000000;stroke-width:1.0;"/><text fill="#000000" font-family="Consolas" font-size="14" lengthAdjust="spacing" textLength="105" x="79" y="237.1826">add(E) boolean</text><ellipse cx="72" cy="250.1328" fill="#FFFFFF" rx="3" ry="3" style="stroke:#000000;stroke-width:1.0;"/><text fill="#000000" font-family="Consolas" font-size="14" lengthAdjust="spacing" textLength="63" x="79" y="253.4795">get(int) E</text><ellipse cx="72" cy="266.4297" fill="#FFFFFF" rx="3" ry="3" style="stroke:#000000;stroke-width:1.0;"/><text fill="#000000" font-family="Consolas" font-size="14" lengthAdjust="spacing" textLength="145" x="79" y="269.7764">iterator() Iterator&lt;E&gt;</text></g><!--reverse link List to Vector--><g id="link_List_Vector"><path codeLine="16" d="M197.73,78.38 C192.44,90.76 186.43,104.83 180.44,118.84 " fill="none" id="List-backto-Vector" style="stroke:#000000;stroke-width:1.0;stroke-dasharray:7.0,7.0;"/><polygon fill="none" points="191.53,76.09,205.83,60.45,204.4,81.59,191.53,76.09" style="stroke:#000000;stroke-width:1.0;"/></g><!--reverse link RandomAccess to Vector--><g id="link_RandomAccess_Vector"><path codeLine="17" d="M97.01,78.38 C102.23,90.76 108.15,104.83 114.05,118.84 " fill="none" id="RandomAccess-backto-Vector" style="stroke:#000000;stroke-width:1.0;stroke-dasharray:7.0,7.0;"/><polygon fill="none" points="90.35,81.6,89.04,60.45,103.25,76.16,90.35,81.6" style="stroke:#000000;stroke-width:1.0;"/></g><!--SRC=[XOzDImD138RFdLyHyR9BeI1uB0LfLoY8WeANuY6TINNgRBBiP0z-zBytMxkmddfBdlSbFBdI3we9ceIHNVwCt62BDMZKHFV2-XA_2MvkHr6W7NP9BuQFQ7UNmbaIPXTPgTsX9tY8MUVLOaIUaOFKTzvJpivREyChUPNMQl3Z9jVmjDqRsBm19RDbNQ5Yp-t6W9RIiGxCOuC-wjUQVNjAXw2MS2vE0KCegXAs8ecGU_9EMbYhXAhVelcXMHGbhCzZxtrmVt8mwsQ_YzCx_ydudIC0]--></g></svg>