<?xml version="1.0" encoding="us-ascii" standalone="no"?><svg xmlns="http://www.w3.org/2000/svg" xmlns:xlink="http://www.w3.org/1999/xlink" contentStyleType="text/css" height="78px" preserveAspectRatio="none" style="width:592px;height:78px;background:#FFFFFF;" version="1.1" viewBox="0 0 592 78" width="592px" zoomAndPan="magnify"><defs/><g><!--class Runner--><g id="elem_Runner"><rect codeLine="1" fill="#F1F1F1" height="48" id="Runner" rx="2.5" ry="2.5" style="stroke:#181818;stroke-width:0.5;" width="83" x="284.5" y="15.15"/><ellipse cx="299.5" cy="31.15" fill="#B4A7E5" rx="11" ry="11" style="stroke:#181818;stroke-width:1.0;"/><path d="M295.4219,26.9156 L295.4219,24.7594 L302.8125,24.7594 L302.8125,26.9156 L300.3438,26.9156 L300.3438,34.9938 L302.8125,34.9938 L302.8125,37.15 L295.4219,37.15 L295.4219,34.9938 L297.8906,34.9938 L297.8906,26.9156 L295.4219,26.9156 Z " fill="#000000"/><text fill="#000000" font-family="sans-serif" font-size="14" font-style="italic" lengthAdjust="spacing" textLength="51" x="313.5" y="35.9967">Runner</text><line style="stroke:#181818;stroke-width:0.5;" x1="285.5" x2="366.5" y1="47.15" y2="47.15"/><line style="stroke:#181818;stroke-width:0.5;" x1="285.5" x2="366.5" y1="55.15" y2="55.15"/></g><!--class ApplicationRunner--><g id="elem_ApplicationRunner"><rect codeLine="2" fill="#F1F1F1" height="64.2969" id="ApplicationRunner" rx="2.5" ry="2.5" style="stroke:#181818;stroke-width:0.5;" width="242" x="7" y="7"/><ellipse cx="60.75" cy="23" fill="#B4A7E5" rx="11" ry="11" style="stroke:#181818;stroke-width:1.0;"/><path d="M56.6719,18.7656 L56.6719,16.6094 L64.0625,16.6094 L64.0625,18.7656 L61.5938,18.7656 L61.5938,26.8438 L64.0625,26.8438 L64.0625,29 L56.6719,29 L56.6719,26.8438 L59.1406,26.8438 L59.1406,18.7656 L56.6719,18.7656 Z " fill="#000000"/><text fill="#000000" font-family="sans-serif" font-size="14" font-style="italic" lengthAdjust="spacing" textLength="126" x="81.25" y="27.8467">ApplicationRunner</text><line style="stroke:#181818;stroke-width:0.5;" x1="8" x2="248" y1="39" y2="39"/><line style="stroke:#181818;stroke-width:0.5;" x1="8" x2="248" y1="47" y2="47"/><ellipse cx="18" cy="60.6484" fill="#84BE84" rx="3" ry="3" style="stroke:#038048;stroke-width:1.0;"/><text fill="#000000" font-family="sans-serif" font-size="14" lengthAdjust="spacing" textLength="216" x="27" y="63.9951">run(ApplicationArguments) void</text></g><!--class CommandLineRunner--><g id="elem_CommandLineRunner"><rect codeLine="5" fill="#F1F1F1" height="64.2969" id="CommandLineRunner" rx="2.5" ry="2.5" style="stroke:#181818;stroke-width:0.5;" width="182" x="403" y="7"/><ellipse cx="418" cy="23" fill="#B4A7E5" rx="11" ry="11" style="stroke:#181818;stroke-width:1.0;"/><path d="M413.9219,18.7656 L413.9219,16.6094 L421.3125,16.6094 L421.3125,18.7656 L418.8438,18.7656 L418.8438,26.8438 L421.3125,26.8438 L421.3125,29 L413.9219,29 L413.9219,26.8438 L416.3906,26.8438 L416.3906,18.7656 L413.9219,18.7656 Z " fill="#000000"/><text fill="#000000" font-family="sans-serif" font-size="14" font-style="italic" lengthAdjust="spacing" textLength="150" x="432" y="27.8467">CommandLineRunner</text><line style="stroke:#181818;stroke-width:0.5;" x1="404" x2="584" y1="39" y2="39"/><line style="stroke:#181818;stroke-width:0.5;" x1="404" x2="584" y1="47" y2="47"/><ellipse cx="414" cy="60.6484" fill="#84BE84" rx="3" ry="3" style="stroke:#038048;stroke-width:1.0;"/><text fill="#000000" font-family="sans-serif" font-size="14" lengthAdjust="spacing" textLength="117" x="423" y="63.9951">run(String...) void</text></g><!--link ApplicationRunner to Runner--><g id="link_ApplicationRunner_Runner"><path codeLine="8" d="M249.43,39.15 C254.04,39.15 258.65,39.15 263.25,39.15 " fill="none" id="ApplicationRunner-to-Runner" style="stroke:#181818;stroke-width:1.0;"/><polygon fill="none" points="263.13,32.15,283.13,39.15,263.13,46.15,263.13,32.15" style="stroke:#181818;stroke-width:1.0;"/></g><!--reverse link Runner to CommandLineRunner--><g id="link_Runner_CommandLineRunner"><path codeLine="9" d="M388.75,39.15 C393.48,39.15 398.21,39.15 402.95,39.15 " fill="none" id="Runner-backto-CommandLineRunner" style="stroke:#181818;stroke-width:1.0;"/><polygon fill="none" points="389,46.15,369,39.15,389,32.15,389,46.15" style="stroke:#181818;stroke-width:1.0;"/></g><!--SRC=[oymhIIrAIqnELGWgpSjBBLAehkNAX8iv5XJaP2OdbcJcvy6akJYr5OfAypIGf1oBqajpK_DAYZKLol8pKxYGJN3EpyrDp4lnoSnBHJSXkAGeCozTJqyFhWtJEjqYtHexgDEuCCtIpK580m00]--></g></svg>