<?xml version="1.0" encoding="us-ascii" standalone="no"?><svg xmlns="http://www.w3.org/2000/svg" xmlns:xlink="http://www.w3.org/1999/xlink" contentStyleType="text/css" height="347px" preserveAspectRatio="none" style="width:451px;height:347px;background:#FFFFFF;" version="1.1" viewBox="0 0 451 347" width="451px" zoomAndPan="magnify"><defs/><g><text fill="#000000" font-family="sans-serif" font-size="14" font-weight="bold" lengthAdjust="spacing" textLength="139" x="149.25" y="22.9951">ThreadLocal&#30340;&#24341;&#29992;</text><!--cluster ThreadLocalMap--><g id="cluster_ThreadLocalMap"><rect fill="none" height="180.29" rx="2.5" ry="2.5" style="stroke:#181818;stroke-width:1.0;" width="322" x="123.5" y="44.2969"/><path d="M262.5,44.2969 L262.5,53.5938 L252.5,63.5938 L123.5,63.5938 " fill="none" style="stroke:#181818;stroke-width:1.0;"/><text fill="#000000" font-family="sans-serif" font-size="14" font-weight="bold" lengthAdjust="spacing" textLength="129" x="126.5" y="58.292">ThreadLocalMap</text></g><!--cluster Entry--><g id="cluster_Entry"><rect fill="none" height="97.29" rx="2.5" ry="2.5" style="stroke:#181818;stroke-width:1.0;" width="250" x="163.5" y="95.2969"/><path d="M214.5,95.2969 L214.5,104.5937 L204.5,114.5937 L163.5,114.5937 " fill="none" style="stroke:#181818;stroke-width:1.0;"/><text fill="#000000" font-family="sans-serif" font-size="14" font-weight="bold" lengthAdjust="spacing" textLength="41" x="166.5" y="109.292">Entry</text></g><!--entity reference--><g id="elem_reference"><rect fill="#F1F1F1" height="46.2969" rx="2.5" ry="2.5" style="stroke:#181818;stroke-width:0.5;" width="107" x="291" y="130.2969"/><rect fill="#F1F1F1" height="10" style="stroke:#181818;stroke-width:0.5;" width="15" x="378" y="135.2969"/><rect fill="#F1F1F1" height="2" style="stroke:#181818;stroke-width:0.5;" width="4" x="376" y="137.2969"/><rect fill="#F1F1F1" height="2" style="stroke:#181818;stroke-width:0.5;" width="4" x="376" y="141.2969"/><text fill="#000000" font-family="sans-serif" font-size="14" lengthAdjust="spacing" textLength="67" x="306" y="163.292">reference</text></g><!--entity value--><g id="elem_value"><rect fill="#F1F1F1" height="46.2969" rx="2.5" ry="2.5" style="stroke:#181818;stroke-width:0.5;" width="76" x="179.5" y="130.2969"/><rect fill="#F1F1F1" height="10" style="stroke:#181818;stroke-width:0.5;" width="15" x="235.5" y="135.2969"/><rect fill="#F1F1F1" height="2" style="stroke:#181818;stroke-width:0.5;" width="4" x="233.5" y="137.2969"/><rect fill="#F1F1F1" height="2" style="stroke:#181818;stroke-width:0.5;" width="4" x="233.5" y="141.2969"/><text fill="#000000" font-family="sans-serif" font-size="14" lengthAdjust="spacing" textLength="36" x="194.5" y="163.292">value</text></g><!--entity Thread--><g id="elem_Thread"><rect fill="#F1F1F1" height="46.2969" rx="2.5" ry="2.5" style="stroke:#181818;stroke-width:0.5;" width="89" x="7" y="130.2969"/><rect fill="#F1F1F1" height="10" style="stroke:#181818;stroke-width:0.5;" width="15" x="76" y="135.2969"/><rect fill="#F1F1F1" height="2" style="stroke:#181818;stroke-width:0.5;" width="4" x="74" y="137.2969"/><rect fill="#F1F1F1" height="2" style="stroke:#181818;stroke-width:0.5;" width="4" x="74" y="141.2969"/><text fill="#000000" font-family="sans-serif" font-size="14" lengthAdjust="spacing" textLength="49" x="22" y="163.292">Thread</text></g><!--entity Client--><g id="elem_Client"><rect fill="#F1F1F1" height="46.2969" rx="2.5" ry="2.5" style="stroke:#181818;stroke-width:0.5;" width="79" x="128" y="295.5869"/><rect fill="#F1F1F1" height="10" style="stroke:#181818;stroke-width:0.5;" width="15" x="187" y="300.5869"/><rect fill="#F1F1F1" height="2" style="stroke:#181818;stroke-width:0.5;" width="4" x="185" y="302.5869"/><rect fill="#F1F1F1" height="2" style="stroke:#181818;stroke-width:0.5;" width="4" x="185" y="306.5869"/><text fill="#000000" font-family="sans-serif" font-size="14" lengthAdjust="spacing" textLength="39" x="143" y="328.582">Client</text></g><!--entity ThreadLocal--><g id="elem_ThreadLocal"><rect fill="#F1F1F1" height="46.2969" rx="2.5" ry="2.5" style="stroke:#181818;stroke-width:0.5;" width="124" x="282.5" y="295.5869"/><rect fill="#F1F1F1" height="10" style="stroke:#181818;stroke-width:0.5;" width="15" x="386.5" y="300.5869"/><rect fill="#F1F1F1" height="2" style="stroke:#181818;stroke-width:0.5;" width="4" x="384.5" y="302.5869"/><rect fill="#F1F1F1" height="2" style="stroke:#181818;stroke-width:0.5;" width="4" x="384.5" y="306.5869"/><text fill="#000000" font-family="sans-serif" font-size="14" lengthAdjust="spacing" textLength="84" x="297.5" y="328.582">ThreadLocal</text></g><!--link Thread to ThreadLocalMap--><g id="link_Thread_ThreadLocalMap"><path d="M96.19,153.4369 C101.935,153.4369 107.6825,153.4369 113.43,153.4369 C116.3038,153.4369 119.1775,153.4369 122.0509,153.4369 C122.4101,153.4369 122.7693,153.4369 123.1285,153.4369 C123.2183,153.4369 123.308,153.4369 123.3978,153.4369 " fill="none" id="Thread-to-ThreadLocalMap" style="stroke:#181818;stroke-width:1.0;"/><polygon fill="#181818" points="123.3978,153.4369,114.3978,149.4369,118.3978,153.4369,114.3978,157.4369,123.3978,153.4369" style="stroke:#181818;stroke-width:1.0;"/></g><!--link Client to ThreadLocal--><g id="link_Client_ThreadLocal"><path d="M207.22,318.7369 C227.61,318.7369 253.03,318.7369 276.42,318.7369 " fill="none" id="Client-to-ThreadLocal" style="stroke:#181818;stroke-width:1.0;"/><polygon fill="#181818" points="281.32,318.7369,272.32,314.7369,276.32,318.7369,272.32,322.7369,281.32,318.7369" style="stroke:#181818;stroke-width:1.0;"/><text fill="#000000" font-family="sans-serif" font-size="13" lengthAdjust="spacing" textLength="39" x="225.25" y="311.8038">&#24378;&#24341;&#29992;</text></g><!--link reference to ThreadLocal--><g id="link_reference_ThreadLocal"><path d="M344.5,176.8069 C344.5,206.0769 344.5,257.4169 344.5,289.3869 " fill="none" id="reference-to-ThreadLocal" style="stroke:#008000;stroke-width:1.0;stroke-dasharray:7.0,7.0;"/><polygon fill="#008000" points="344.5,294.1169,348.5,285.1169,344.5,289.1169,340.5,285.1169,344.5,294.1169" style="stroke:#008000;stroke-width:1.0;"/><text fill="#000000" font-family="sans-serif" font-size="13" lengthAdjust="spacing" textLength="39" x="345.5" y="261.6538">&#24369;&#24341;&#29992;</text></g><!--SRC=[AyaioKbL2CaeIarCySbFJinvFglbwPwfpwUiu4ehIin5aV9DB52evkA4YBlcbHHLWhYSqKMfQQb5gNd9gR4WNbbYJYc8LSjLonKDqHshe5kaQwSGZMfMB5UqSqvcQbu95kbO1Ik5ftjsGLs2P8E2NagqSdfHQcfUh1usBHiXMW00]--></g></svg>