<?xml version="1.0" encoding="us-ascii" standalone="no"?><svg xmlns="http://www.w3.org/2000/svg" xmlns:xlink="http://www.w3.org/1999/xlink" contentStyleType="text/css" height="435px" preserveAspectRatio="none" style="width:978px;height:435px;background:#FFFFFF;" version="1.1" viewBox="0 0 978 435" width="978px" zoomAndPan="magnify"><defs/><g><text fill="#000000" font-family="sans-serif" font-size="14" font-weight="bold" lengthAdjust="spacing" textLength="292" x="336.25" y="22.9951">MappingRegistration#register&#28041;&#21450;&#30340;&#31867;</text><!--class HandlerMethod--><g id="elem_HandlerMethod"><rect codeLine="3" fill="#F1F1F1" height="96.8906" id="HandlerMethod" rx="2.5" ry="2.5" style="stroke:#181818;stroke-width:0.5;" width="243" x="10.5" y="315.2669"/><ellipse cx="74.75" cy="331.2669" fill="#ADD1B2" rx="11" ry="11" style="stroke:#181818;stroke-width:1.0;"/><path d="M77.7188,336.9075 Q77.1406,337.2044 76.5,337.345 Q75.8594,337.5013 75.1563,337.5013 Q72.6563,337.5013 71.3281,335.8606 Q70.0156,334.2044 70.0156,331.0794 Q70.0156,327.9544 71.3281,326.2981 Q72.6563,324.6419 75.1563,324.6419 Q75.8594,324.6419 76.5,324.7981 Q77.1563,324.9544 77.7188,325.2513 L77.7188,327.97 Q77.0938,327.3919 76.5,327.1263 Q75.9063,326.845 75.2813,326.845 Q73.9375,326.845 73.25,327.9231 Q72.5625,328.9856 72.5625,331.0794 Q72.5625,333.1731 73.25,334.2513 Q73.9375,335.3138 75.2813,335.3138 Q75.9063,335.3138 76.5,335.0481 Q77.0938,334.7669 77.7188,334.1888 L77.7188,336.9075 Z " fill="#000000"/><text fill="#000000" font-family="sans-serif" font-size="14" lengthAdjust="spacing" textLength="106" x="95.25" y="336.1136">HandlerMethod</text><line style="stroke:#181818;stroke-width:0.5;" x1="11.5" x2="252.5" y1="347.2669" y2="347.2669"/><rect fill="none" height="6" style="stroke:#C82930;stroke-width:1.0;" width="6" x="18.5" y="357.9153"/><text fill="#000000" font-family="sans-serif" font-size="14" lengthAdjust="spacing" textLength="84" x="30.5" y="364.262">Object bean</text><rect fill="none" height="6" style="stroke:#C82930;stroke-width:1.0;" width="6" x="18.5" y="374.2122"/><text fill="#000000" font-family="sans-serif" font-size="14" lengthAdjust="spacing" textLength="111" x="30.5" y="380.5589">Method method</text><rect fill="none" height="6" style="stroke:#C82930;stroke-width:1.0;" width="6" x="18.5" y="390.5091"/><text fill="#000000" font-family="sans-serif" font-size="14" lengthAdjust="spacing" textLength="217" x="30.5" y="396.8557">MethodParameter[] parameters</text><line style="stroke:#181818;stroke-width:0.5;" x1="11.5" x2="252.5" y1="404.1575" y2="404.1575"/></g><!--class RequestMappingInfo--><g id="elem_RequestMappingInfo"><rect codeLine="8" fill="#F1F1F1" height="162.0781" id="RequestMappingInfo" rx="2.5" ry="2.5" style="stroke:#181818;stroke-width:0.5;" width="403" x="568.5" y="60.5969"/><ellipse cx="694.25" cy="76.5969" fill="#ADD1B2" rx="11" ry="11" style="stroke:#181818;stroke-width:1.0;"/><path d="M697.2188,82.2375 Q696.6406,82.5344 696,82.675 Q695.3594,82.8313 694.6563,82.8313 Q692.1563,82.8313 690.8281,81.1906 Q689.5156,79.5344 689.5156,76.4094 Q689.5156,73.2844 690.8281,71.6281 Q692.1563,69.9719 694.6563,69.9719 Q695.3594,69.9719 696,70.1281 Q696.6563,70.2844 697.2188,70.5813 L697.2188,73.3 Q696.5938,72.7219 696,72.4563 Q695.4063,72.175 694.7813,72.175 Q693.4375,72.175 692.75,73.2531 Q692.0625,74.3156 692.0625,76.4094 Q692.0625,78.5031 692.75,79.5813 Q693.4375,80.6438 694.7813,80.6438 Q695.4063,80.6438 696,80.3781 Q696.5938,80.0969 697.2188,79.5188 L697.2188,82.2375 Z " fill="#000000"/><text fill="#000000" font-family="sans-serif" font-size="14" lengthAdjust="spacing" textLength="143" x="714.75" y="81.4436">RequestMappingInfo</text><line style="stroke:#181818;stroke-width:0.5;" x1="569.5" x2="970.5" y1="92.5969" y2="92.5969"/><rect fill="none" height="6" style="stroke:#C82930;stroke-width:1.0;" width="6" x="576.5" y="103.2453"/><text fill="#000000" font-family="sans-serif" font-size="14" lengthAdjust="spacing" textLength="373" x="588.5" y="109.592">PathPatternsRequestCondition pathPatternsCondition</text><rect fill="none" height="6" style="stroke:#C82930;stroke-width:1.0;" width="6" x="576.5" y="119.5422"/><text fill="#000000" font-family="sans-serif" font-size="14" lengthAdjust="spacing" textLength="311" x="588.5" y="125.8889">PatternsRequestCondition patternsCondition</text><rect fill="none" height="6" style="stroke:#C82930;stroke-width:1.0;" width="6" x="576.5" y="135.8391"/><text fill="#000000" font-family="sans-serif" font-size="14" lengthAdjust="spacing" textLength="377" x="588.5" y="142.1857">RequestMethodsRequestCondition methodsCondition</text><rect fill="none" height="6" style="stroke:#C82930;stroke-width:1.0;" width="6" x="576.5" y="152.1359"/><text fill="#000000" font-family="sans-serif" font-size="14" lengthAdjust="spacing" textLength="297" x="588.5" y="158.4826">ParamsRequestCondition paramsCondition</text><rect fill="none" height="6" style="stroke:#C82930;stroke-width:1.0;" width="6" x="576.5" y="168.4328"/><text fill="#000000" font-family="sans-serif" font-size="14" lengthAdjust="spacing" textLength="310" x="588.5" y="174.7795">HeadersRequestCondition headersCondition</text><rect fill="none" height="6" style="stroke:#C82930;stroke-width:1.0;" width="6" x="576.5" y="184.7297"/><text fill="#000000" font-family="sans-serif" font-size="14" lengthAdjust="spacing" textLength="343" x="588.5" y="191.0764">ConsumesRequestCondition consumesCondition</text><rect fill="none" height="6" style="stroke:#C82930;stroke-width:1.0;" width="6" x="576.5" y="201.0266"/><text fill="#000000" font-family="sans-serif" font-size="14" lengthAdjust="spacing" textLength="327" x="588.5" y="207.3732">ProducesRequestCondition producesCondition</text><line style="stroke:#181818;stroke-width:0.5;" x1="569.5" x2="970.5" y1="214.675" y2="214.675"/></g><!--class MappingRegistry--><g id="elem_MappingRegistry"><rect codeLine="17" fill="#F1F1F1" height="194.6719" id="MappingRegistry" rx="2.5" ry="2.5" style="stroke:#181818;stroke-width:0.5;" width="526" x="7" y="44.2969"/><ellipse cx="208.25" cy="60.2969" fill="#ADD1B2" rx="11" ry="11" style="stroke:#181818;stroke-width:1.0;"/><path d="M211.2188,65.9375 Q210.6406,66.2344 210,66.375 Q209.3594,66.5313 208.6563,66.5313 Q206.1563,66.5313 204.8281,64.8906 Q203.5156,63.2344 203.5156,60.1094 Q203.5156,56.9844 204.8281,55.3281 Q206.1563,53.6719 208.6563,53.6719 Q209.3594,53.6719 210,53.8281 Q210.6563,53.9844 211.2188,54.2813 L211.2188,57 Q210.5938,56.4219 210,56.1563 Q209.4063,55.875 208.7813,55.875 Q207.4375,55.875 206.75,56.9531 Q206.0625,58.0156 206.0625,60.1094 Q206.0625,62.2031 206.75,63.2813 Q207.4375,64.3438 208.7813,64.3438 Q209.4063,64.3438 210,64.0781 Q210.5938,63.7969 211.2188,63.2188 L211.2188,65.9375 Z " fill="#000000"/><text fill="#000000" font-family="sans-serif" font-size="14" lengthAdjust="spacing" textLength="115" x="228.75" y="65.1436">MappingRegistry</text><line style="stroke:#181818;stroke-width:0.5;" x1="8" x2="532" y1="76.2969" y2="76.2969"/><rect fill="none" height="6" style="stroke:#C82930;stroke-width:1.0;" width="6" x="15" y="86.9453"/><text fill="#000000" font-family="sans-serif" font-size="14" lengthAdjust="spacing" textLength="300" x="27" y="93.292">Map&lt;T, MappingRegistration&lt;T&gt;&gt; registry</text><rect fill="none" height="6" style="stroke:#C82930;stroke-width:1.0;" width="6" x="15" y="103.2422"/><text fill="#000000" font-family="sans-serif" font-size="14" lengthAdjust="spacing" textLength="266" x="27" y="109.5889">MultiValueMap&lt;String, T&gt; pathLookup</text><rect fill="none" height="6" style="stroke:#C82930;stroke-width:1.0;" width="6" x="15" y="119.5391"/><text fill="#000000" font-family="sans-serif" font-size="14" lengthAdjust="spacing" textLength="348" x="27" y="125.8857">Map&lt;String, List&lt;HandlerMethod&gt;&gt; nameLookup</text><rect fill="none" height="6" style="stroke:#C82930;stroke-width:1.0;" width="6" x="15" y="135.8359"/><text fill="#000000" font-family="sans-serif" font-size="14" lengthAdjust="spacing" textLength="376" x="27" y="142.1826">Map&lt;HandlerMethod, CorsConfiguration&gt; corsLookup</text><line style="stroke:#181818;stroke-width:0.5;" x1="8" x2="532" y1="149.4844" y2="149.4844"/><ellipse cx="18" cy="163.1328" fill="#84BE84" rx="3" ry="3" style="stroke:#038048;stroke-width:1.0;"/><text fill="#000000" font-family="sans-serif" font-size="14" lengthAdjust="spacing" textLength="218" x="27" y="166.4795">register(T, Object, Method) void</text><ellipse cx="18" cy="179.4297" fill="#84BE84" rx="3" ry="3" style="stroke:#038048;stroke-width:1.0;"/><text fill="#000000" font-family="sans-serif" font-size="14" lengthAdjust="spacing" textLength="289" x="27" y="182.7764">getMappingsByDirectPath(String) List&lt;T&gt;</text><ellipse cx="18" cy="195.7266" fill="#84BE84" rx="3" ry="3" style="stroke:#038048;stroke-width:1.0;"/><text fill="#000000" font-family="sans-serif" font-size="14" lengthAdjust="spacing" textLength="460" x="27" y="199.0732">getHandlerMethodsByMappingName(String) List&lt;HandlerMethod&gt;</text><ellipse cx="18" cy="212.0234" fill="#84BE84" rx="3" ry="3" style="stroke:#038048;stroke-width:1.0;"/><text fill="#000000" font-family="sans-serif" font-size="14" lengthAdjust="spacing" textLength="500" x="27" y="215.3701">getCorsConfiguration(HandlerMethod handlerMethod) CorsConfiguration</text><ellipse cx="18" cy="228.3203" fill="#84BE84" rx="3" ry="3" style="stroke:#038048;stroke-width:1.0;"/><text fill="#000000" font-family="sans-serif" font-size="14" lengthAdjust="spacing" textLength="373" x="27" y="231.667">getRegistrations() Map&lt;T, MappingRegistration&lt;T&gt;&gt;</text></g><!--class MappingRegistration--><g id="elem_MappingRegistration"><rect codeLine="28" fill="#F1F1F1" height="129.4844" id="MappingRegistration" rx="2.5" ry="2.5" style="stroke:#181818;stroke-width:0.5;" width="241" x="288.5" y="298.9769"/><ellipse cx="333.75" cy="314.9769" fill="#ADD1B2" rx="11" ry="11" style="stroke:#181818;stroke-width:1.0;"/><path d="M336.7188,320.6175 Q336.1406,320.9144 335.5,321.055 Q334.8594,321.2113 334.1563,321.2113 Q331.6563,321.2113 330.3281,319.5706 Q329.0156,317.9144 329.0156,314.7894 Q329.0156,311.6644 330.3281,310.0081 Q331.6563,308.3519 334.1563,308.3519 Q334.8594,308.3519 335.5,308.5081 Q336.1563,308.6644 336.7188,308.9613 L336.7188,311.68 Q336.0938,311.1019 335.5,310.8363 Q334.9063,310.555 334.2813,310.555 Q332.9375,310.555 332.25,311.6331 Q331.5625,312.6956 331.5625,314.7894 Q331.5625,316.8831 332.25,317.9613 Q332.9375,319.0238 334.2813,319.0238 Q334.9063,319.0238 335.5,318.7581 Q336.0938,318.4769 336.7188,317.8988 L336.7188,320.6175 Z " fill="#000000"/><text fill="#000000" font-family="sans-serif" font-size="14" lengthAdjust="spacing" textLength="142" x="354.25" y="319.8236">MappingRegistration</text><line style="stroke:#181818;stroke-width:0.5;" x1="289.5" x2="528.5" y1="330.9769" y2="330.9769"/><rect fill="none" height="6" style="stroke:#C82930;stroke-width:1.0;" width="6" x="296.5" y="341.6253"/><text fill="#000000" font-family="sans-serif" font-size="14" lengthAdjust="spacing" textLength="73" x="308.5" y="347.972">T mapping</text><rect fill="none" height="6" style="stroke:#C82930;stroke-width:1.0;" width="6" x="296.5" y="357.9222"/><text fill="#000000" font-family="sans-serif" font-size="14" lengthAdjust="spacing" textLength="215" x="308.5" y="364.2689">HandlerMethod handlerMethod</text><rect fill="none" height="6" style="stroke:#C82930;stroke-width:1.0;" width="6" x="296.5" y="374.2191"/><text fill="#000000" font-family="sans-serif" font-size="14" lengthAdjust="spacing" textLength="169" x="308.5" y="380.5657">Set&lt;String&gt; directPaths</text><rect fill="none" height="6" style="stroke:#C82930;stroke-width:1.0;" width="6" x="296.5" y="390.5159"/><text fill="#000000" font-family="sans-serif" font-size="14" lengthAdjust="spacing" textLength="144" x="308.5" y="396.8626">String mappingName</text><rect fill="none" height="6" style="stroke:#C82930;stroke-width:1.0;" width="6" x="296.5" y="406.8128"/><text fill="#000000" font-family="sans-serif" font-size="14" lengthAdjust="spacing" textLength="134" x="308.5" y="413.1595">boolean corsConfig</text><line style="stroke:#181818;stroke-width:0.5;" x1="289.5" x2="528.5" y1="420.4613" y2="420.4613"/></g><!--link MappingRegistry to RequestMappingInfo--><g id="link_MappingRegistry_RequestMappingInfo"><path codeLine="36" d="M533.18,141.6369 C542.98,141.6369 552.77,141.6369 562.57,141.6369 " fill="none" id="MappingRegistry-to-RequestMappingInfo" style="stroke:#181818;stroke-width:1.0;stroke-dasharray:7.0,7.0;"/><polygon fill="#181818" points="567.34,141.6369,558.34,137.6369,562.34,141.6369,558.34,145.6369,567.34,141.6369" style="stroke:#181818;stroke-width:1.0;"/></g><!--link MappingRegistry to HandlerMethod--><g id="link_MappingRegistry_HandlerMethod"><path codeLine="37" d="M209.47,239.1669 C194.25,263.4369 178.47,288.5969 165.16,309.8269 " fill="none" id="MappingRegistry-to-HandlerMethod" style="stroke:#181818;stroke-width:1.0;stroke-dasharray:7.0,7.0;"/><polygon fill="#181818" points="162.01,313.8569,170.1636,308.3325,164.6536,309.6129,163.3732,304.1028,162.01,313.8569" style="stroke:#181818;stroke-width:1.0;"/></g><!--link MappingRegistry to MappingRegistration--><g id="link_MappingRegistry_MappingRegistration"><path codeLine="38" d="M330.97,239.1669 C342.57,257.5369 354.49,276.4169 365.42,293.7169 " fill="none" id="MappingRegistry-to-MappingRegistration" style="stroke:#181818;stroke-width:1.0;stroke-dasharray:7.0,7.0;"/><polygon fill="#181818" points="368.47,297.5469,367.0448,287.8017,365.7995,293.3198,360.2814,292.0745,368.47,297.5469" style="stroke:#181818;stroke-width:1.0;"/></g><!--reverse link HandlerMethod to MappingRegistration--><g id="link_HandlerMethod_MappingRegistration"><path codeLine="39" d="M259.88,363.7169 C269.32,363.7169 278.77,363.7169 288.21,363.7169 " fill="none" id="HandlerMethod-backto-MappingRegistration" style="stroke:#181818;stroke-width:1.0;stroke-dasharray:7.0,7.0;"/><polygon fill="#181818" points="255,363.7169,264,367.7169,260,363.7169,264,359.7169,255,363.7169" style="stroke:#181818;stroke-width:1.0;"/></g><!--SRC=[XLExJiCm59t9LrXYQKJRBwWo04EHMgZQY0KnkB7R6j8us0vIXTXOO67dBrXO-1xeRt3zQkicm10bllUSatCVLapb50rnMR9YFgPp9fN0Yl7YK9W35TyVpr-lB-ktf_NxPnHbEPOIzN51SYg6L2quGG_HGGTTJ6zefj2Kua8VNMffNjl020iCCIgkhb7flsNqw7J7zAwYKZaxPyMCM_4HLWju05j8XpdX1M7QAEXiavkeO_tAgAFzlutFEiTMily3gA19NeS3P9zY0eNMe0iR3x1maDMIri6PIuGU12TLre0kNMABzbqEfxsoBOPWBsqtRK8lJH8a7DX0gronIvnNL9CcIW2XZTB4J6B0-MrLUaMV702v5smDQ1Om_X0U8DhG2TEQ6PjNrae2FH3ISuwGtz4MEBSBs7QB5gDxpeZ6pAdV9tcyEcK2G7gTMjPQRAsbYOC63e3WgETWDMI4nI17hpbkXLTbiNkAwmKwcTtsorRypt1-6Qp9mt1H1wLeQLFwy8SZdPvGvSQM8B9fbpGf4_PQkYSwEkKyXrjlHcEB0KFH_f9rHJTfkDzr705SOB4Pqb1hr5H_Dz_N-m40]--></g></svg>