<?xml version="1.0" encoding="us-ascii" standalone="no"?><svg xmlns="http://www.w3.org/2000/svg" xmlns:xlink="http://www.w3.org/1999/xlink" contentStyleType="text/css" height="324px" preserveAspectRatio="none" style="width:371px;height:324px;background:#FFFFFF;" version="1.1" viewBox="0 0 371 324" width="371px" zoomAndPan="magnify"><defs/><g><text fill="#000000" font-family="sans-serif" font-size="14" font-weight="bold" lengthAdjust="spacing" textLength="303" x="27.25" y="22.9951">Java Collections Framework-LinkedList</text><!--class List--><g id="elem_List"><rect codeLine="2" fill="#F1F1F1" height="48" id="List" rx="2.5" ry="2.5" style="stroke:#181818;stroke-width:0.5;" width="67" x="133" y="47.2969"/><ellipse cx="148" cy="63.2969" fill="#B4A7E5" rx="11" ry="11" style="stroke:#181818;stroke-width:1.0;"/><path d="M143.9219,59.0625 L143.9219,56.9063 L151.3125,56.9063 L151.3125,59.0625 L148.8438,59.0625 L148.8438,67.1406 L151.3125,67.1406 L151.3125,69.2969 L143.9219,69.2969 L143.9219,67.1406 L146.3906,67.1406 L146.3906,59.0625 L143.9219,59.0625 Z " fill="#000000"/><text fill="#000000" font-family="sans-serif" font-size="14" font-style="italic" lengthAdjust="spacing" textLength="23" x="162" y="68.1436">List</text><rect fill="#FFFFFF" height="15.9688" style="stroke:#181818;stroke-width:1.0;stroke-dasharray:2.0,2.0;" width="10" x="193" y="44.2969"/><text fill="#000000" font-family="sans-serif" font-size="12" font-style="italic" lengthAdjust="spacing" textLength="8" x="194" y="56.4355">E</text><line style="stroke:#181818;stroke-width:0.5;" x1="134" x2="199" y1="79.2969" y2="79.2969"/><line style="stroke:#181818;stroke-width:0.5;" x1="134" x2="199" y1="87.2969" y2="87.2969"/></g><!--class Deque--><g id="elem_Deque"><rect codeLine="3" fill="#F1F1F1" height="48" id="Deque" rx="2.5" ry="2.5" style="stroke:#181818;stroke-width:0.5;" width="91" x="7" y="47.2969"/><ellipse cx="22" cy="63.2969" fill="#B4A7E5" rx="11" ry="11" style="stroke:#181818;stroke-width:1.0;"/><path d="M17.9219,59.0625 L17.9219,56.9063 L25.3125,56.9063 L25.3125,59.0625 L22.8438,59.0625 L22.8438,67.1406 L25.3125,67.1406 L25.3125,69.2969 L17.9219,69.2969 L17.9219,67.1406 L20.3906,67.1406 L20.3906,59.0625 L17.9219,59.0625 Z " fill="#000000"/><text fill="#000000" font-family="sans-serif" font-size="14" font-style="italic" lengthAdjust="spacing" textLength="47" x="36" y="68.1436">Deque</text><rect fill="#FFFFFF" height="15.9688" style="stroke:#181818;stroke-width:1.0;stroke-dasharray:2.0,2.0;" width="10" x="91" y="44.2969"/><text fill="#000000" font-family="sans-serif" font-size="12" font-style="italic" lengthAdjust="spacing" textLength="8" x="92" y="56.4355">E</text><line style="stroke:#181818;stroke-width:0.5;" x1="8" x2="97" y1="79.2969" y2="79.2969"/><line style="stroke:#181818;stroke-width:0.5;" x1="8" x2="97" y1="87.2969" y2="87.2969"/></g><!--class LinkedList--><g id="elem_LinkedList"><rect codeLine="4" fill="#F1F1F1" height="162.0781" id="LinkedList" rx="2.5" ry="2.5" style="stroke:#181818;stroke-width:0.5;" width="171" x="24" y="155.2969"/><ellipse cx="65.55" cy="171.2969" fill="#ADD1B2" rx="11" ry="11" style="stroke:#181818;stroke-width:1.0;"/><path d="M68.5188,176.9375 Q67.9406,177.2344 67.3,177.375 Q66.6594,177.5312 65.9563,177.5312 Q63.4563,177.5312 62.1281,175.8906 Q60.8156,174.2344 60.8156,171.1094 Q60.8156,167.9844 62.1281,166.3281 Q63.4563,164.6719 65.9563,164.6719 Q66.6594,164.6719 67.3,164.8281 Q67.9563,164.9844 68.5188,165.2812 L68.5188,168 Q67.8938,167.4219 67.3,167.1562 Q66.7063,166.875 66.0813,166.875 Q64.7375,166.875 64.05,167.9531 Q63.3625,169.0156 63.3625,171.1094 Q63.3625,173.2031 64.05,174.2812 Q64.7375,175.3437 66.0813,175.3437 Q66.7063,175.3437 67.3,175.0781 Q67.8938,174.7969 68.5188,174.2187 L68.5188,176.9375 Z " fill="#000000"/><text fill="#000000" font-family="sans-serif" font-size="14" lengthAdjust="spacing" textLength="68" x="85.45" y="176.1436">LinkedList</text><rect fill="#FFFFFF" height="15.9688" style="stroke:#181818;stroke-width:1.0;stroke-dasharray:2.0,2.0;" width="10" x="188" y="152.2969"/><text fill="#000000" font-family="sans-serif" font-size="12" font-style="italic" lengthAdjust="spacing" textLength="8" x="189" y="164.4355">E</text><line style="stroke:#181818;stroke-width:0.5;" x1="25" x2="194" y1="187.2969" y2="187.2969"/><polygon fill="none" points="35,196.9453,31,202.9453,39,202.9453" style="stroke:#1963A0;stroke-width:1.0;"/><text fill="#000000" font-family="sans-serif" font-size="14" lengthAdjust="spacing" textLength="49" x="44" y="204.292">int size</text><polygon fill="none" points="35,213.2422,31,219.2422,39,219.2422" style="stroke:#1963A0;stroke-width:1.0;"/><text fill="#000000" font-family="sans-serif" font-size="14" lengthAdjust="spacing" textLength="99" x="44" y="220.5889">Node&lt;E&gt; first</text><polygon fill="none" points="35,229.5391,31,235.5391,39,235.5391" style="stroke:#1963A0;stroke-width:1.0;"/><text fill="#000000" font-family="sans-serif" font-size="14" lengthAdjust="spacing" textLength="98" x="44" y="236.8857">Node&lt;E&gt; last</text><polygon fill="none" points="35,244.8359,39,248.8359,35,252.8359,31,248.8359" style="stroke:#B38D22;stroke-width:1.0;"/><text fill="#000000" font-family="sans-serif" font-size="14" lengthAdjust="spacing" textLength="94" x="44" y="253.1826">int modCount</text><line style="stroke:#181818;stroke-width:0.5;" x1="25" x2="194" y1="260.4844" y2="260.4844"/><ellipse cx="35" cy="274.1328" fill="#84BE84" rx="3" ry="3" style="stroke:#038048;stroke-width:1.0;"/><text fill="#000000" font-family="sans-serif" font-size="14" lengthAdjust="spacing" textLength="105" x="44" y="277.4795">add(E) boolean</text><ellipse cx="35" cy="290.4297" fill="#84BE84" rx="3" ry="3" style="stroke:#038048;stroke-width:1.0;"/><text fill="#000000" font-family="sans-serif" font-size="14" lengthAdjust="spacing" textLength="63" x="44" y="293.7764">get(int) E</text><ellipse cx="35" cy="306.7266" fill="#84BE84" rx="3" ry="3" style="stroke:#038048;stroke-width:1.0;"/><text fill="#000000" font-family="sans-serif" font-size="14" lengthAdjust="spacing" textLength="145" x="44" y="310.0732">iterator() Iterator&lt;E&gt;</text></g><!--class Node--><g id="elem_Node"><rect codeLine="13" fill="#F1F1F1" height="96.8906" id="Node" rx="2.5" ry="2.5" style="stroke:#181818;stroke-width:0.5;" width="130" x="230.5" y="187.8969"/><ellipse cx="267.55" cy="203.8969" fill="#ADD1B2" rx="11" ry="11" style="stroke:#181818;stroke-width:1.0;"/><path d="M270.5188,209.5375 Q269.9406,209.8344 269.3,209.975 Q268.6594,210.1313 267.9563,210.1313 Q265.4563,210.1313 264.1281,208.4906 Q262.8156,206.8344 262.8156,203.7094 Q262.8156,200.5844 264.1281,198.9281 Q265.4563,197.2719 267.9563,197.2719 Q268.6594,197.2719 269.3,197.4281 Q269.9563,197.5844 270.5188,197.8813 L270.5188,200.6 Q269.8938,200.0219 269.3,199.7563 Q268.7063,199.475 268.0813,199.475 Q266.7375,199.475 266.05,200.5531 Q265.3625,201.6156 265.3625,203.7094 Q265.3625,205.8031 266.05,206.8813 Q266.7375,207.9438 268.0813,207.9438 Q268.7063,207.9438 269.3,207.6781 Q269.8938,207.3969 270.5188,206.8188 L270.5188,209.5375 Z " fill="#000000"/><text fill="#000000" font-family="sans-serif" font-size="14" lengthAdjust="spacing" textLength="37" x="286.45" y="208.7436">Node</text><rect fill="#FFFFFF" height="15.9688" style="stroke:#181818;stroke-width:1.0;stroke-dasharray:2.0,2.0;" width="10" x="353.5" y="184.8969"/><text fill="#000000" font-family="sans-serif" font-size="12" font-style="italic" lengthAdjust="spacing" textLength="8" x="354.5" y="197.0355">E</text><line style="stroke:#181818;stroke-width:0.5;" x1="231.5" x2="359.5" y1="219.8969" y2="219.8969"/><polygon fill="none" points="241.5,229.5453,237.5,235.5453,245.5,235.5453" style="stroke:#1963A0;stroke-width:1.0;"/><text fill="#000000" font-family="sans-serif" font-size="14" lengthAdjust="spacing" textLength="43" x="250.5" y="236.892">E item</text><polygon fill="none" points="241.5,245.8422,237.5,251.8422,245.5,251.8422" style="stroke:#1963A0;stroke-width:1.0;"/><text fill="#000000" font-family="sans-serif" font-size="14" lengthAdjust="spacing" textLength="104" x="250.5" y="253.1889">Node&lt;E&gt; next</text><polygon fill="none" points="241.5,262.1391,237.5,268.1391,245.5,268.1391" style="stroke:#1963A0;stroke-width:1.0;"/><text fill="#000000" font-family="sans-serif" font-size="14" lengthAdjust="spacing" textLength="104" x="250.5" y="269.4857">Node&lt;E&gt; prev</text><line style="stroke:#181818;stroke-width:0.5;" x1="231.5" x2="359.5" y1="276.7875" y2="276.7875"/></g><!--reverse link List to LinkedList--><g id="link_List_LinkedList"><path codeLine="18" d="M151.51,115.1669 C147.23,127.4269 142.41,141.2069 137.61,154.9369 " fill="none" id="List-backto-LinkedList" style="stroke:#181818;stroke-width:1.0;stroke-dasharray:7.0,7.0;"/><polygon fill="none" points="145.12,113.2269,158.33,96.6569,158.34,117.8469,145.12,113.2269" style="stroke:#181818;stroke-width:1.0;"/></g><!--reverse link Deque to LinkedList--><g id="link_Deque_LinkedList"><path codeLine="19" d="M67.49,115.1669 C71.77,127.4269 76.59,141.2069 81.39,154.9369 " fill="none" id="Deque-backto-LinkedList" style="stroke:#181818;stroke-width:1.0;stroke-dasharray:7.0,7.0;"/><polygon fill="none" points="60.66,117.8469,60.67,96.6569,73.88,113.2269,60.66,117.8469" style="stroke:#181818;stroke-width:1.0;"/></g><!--reverse link LinkedList to Node--><g id="link_LinkedList_Node"><path codeLine="20" d="M209.12,236.3369 C216.11,236.3369 223.1,236.3369 230.09,236.3369 " fill="none" id="LinkedList-backto-Node" style="stroke:#181818;stroke-width:1.0;"/><polygon fill="#181818" points="196.23,236.3369,202.23,240.3369,208.23,236.3369,202.23,232.3369,196.23,236.3369" style="stroke:#181818;stroke-width:1.0;"/></g><!--SRC=[POzD2i8m48NNzXG3RbgbFO6uqGfAyGwn6IMOPZH9g_XtTYUXOiNTl8ytC-zvvJN2HdG25gGrrbwHSR2oei4BsMDUAND4MIdd4sKyshse4OASbVC1MUAvnO1gBPo3xnOpk2UZ5x0NdBfXcBSaWndsolBT0U1brkDeRaWkg3Mifo2aJCiCTaGQXGdaW3vbLmPbK8fp24yspM3TZo7Ciu_pEH-3bC7T3ByQlFwaE5diUFTR0egsUCnZxNyQgm_n9BTvlFK6]--></g></svg>