<?xml version="1.0" encoding="us-ascii" standalone="no"?><svg xmlns="http://www.w3.org/2000/svg" xmlns:xlink="http://www.w3.org/1999/xlink" contentStyleType="text/css" height="637px" preserveAspectRatio="none" style="width:703px;height:637px;background:#FFFFFF;" version="1.1" viewBox="0 0 703 637" width="703px" zoomAndPan="magnify"><defs/><g><text fill="#000000" font-family="sans-serif" font-size="14" font-weight="bold" lengthAdjust="spacing" textLength="154" x="273" y="32.9951">&#36890;&#29992;&#27880;&#35299;&#20381;&#36182;&#27880;&#20837;&#30340;&#27969;&#31243;</text><rect fill="none" height="578.4424" style="stroke:#000000;stroke-width:1.5;" width="681" x="11" y="48.2969"/><path d="M466,48.2969 L466,57.5938 L456,67.5938 L11,67.5938 " fill="none" style="stroke:#000000;stroke-width:1.5;"/><text fill="#000000" font-family="sans-serif" font-size="14" lengthAdjust="spacing" textLength="445" x="14" y="62.292">CommonAnnotationBeanPostProcessor#postProcessProperties</text><ellipse cx="281.375" cy="87.5938" fill="#222222" rx="10" ry="10" style="stroke:#222222;stroke-width:1.0;"/><rect fill="none" height="360.1094" style="stroke:#000000;stroke-width:1.5;" width="661" x="21" y="107.5938"/><path d="M669,107.5938 L669,116.8906 L659,126.8906 L21,126.8906 " fill="none" style="stroke:#000000;stroke-width:1.5;"/><text fill="#000000" font-family="sans-serif" font-size="14" lengthAdjust="spacing" textLength="638" x="24" y="121.5889">1.&#33719;&#21462;&#33258;&#21160;&#35013;&#37197;&#30340;&#27880;&#20837;&#20803;&#25968;&#25454;&#65306;CommonAnnotationBeanPostProcessor#findResourceMetadata</text><polygon fill="#F1F1F1" points="209.875,143.8906,352.875,143.8906,364.875,155.8906,352.875,167.8906,209.875,167.8906,197.875,155.8906,209.875,143.8906" style="stroke:#181818;stroke-width:0.5;"/><text fill="#000000" font-family="sans-serif" font-size="11" lengthAdjust="spacing" textLength="143" x="209.875" y="159.6987">&#32531;&#23384;&#20013;&#26159;&#21542;&#23384;&#22312;&#27880;&#20837;&#20803;&#25968;&#25454;&#65311;</text><text fill="#000000" font-family="sans-serif" font-size="11" lengthAdjust="spacing" textLength="11" x="186.875" y="153.2964">&#26159;</text><text fill="#000000" font-family="sans-serif" font-size="11" lengthAdjust="spacing" textLength="11" x="364.875" y="153.2964">&#21542;</text><rect fill="#F1F1F1" height="33.9688" rx="12.5" ry="12.5" style="stroke:#181818;stroke-width:0.5;" width="144" x="33" y="177.8906"/><text fill="#000000" font-family="sans-serif" font-size="12" lengthAdjust="spacing" textLength="120" x="47" y="199.0293">&#36820;&#22238;&#32531;&#23384;&#30340;&#27880;&#20837;&#20803;&#25968;&#25454;</text><polygon fill="#F1F1F1" points="375.25,177.8906,540.25,177.8906,552.25,189.8906,540.25,201.8906,375.25,201.8906,363.25,189.8906,375.25,177.8906" style="stroke:#181818;stroke-width:0.5;"/><text fill="#000000" font-family="sans-serif" font-size="11" lengthAdjust="spacing" textLength="165" x="375.25" y="193.6987">&#35813;&#31867;&#26159;&#21542;&#26631;&#27880;&#20102;&#33258;&#21160;&#35013;&#37197;&#30340;&#27880;&#35299;&#65311;</text><text fill="#000000" font-family="sans-serif" font-size="11" lengthAdjust="spacing" textLength="11" x="352.25" y="187.2964">&#26159;</text><text fill="#000000" font-family="sans-serif" font-size="11" lengthAdjust="spacing" textLength="11" x="552.25" y="187.2964">&#21542;</text><rect fill="#F1F1F1" height="47.9375" rx="12.5" ry="12.5" style="stroke:#181818;stroke-width:0.5;" width="260" x="207" y="211.8906"/><text fill="#000000" font-family="sans-serif" font-size="12" lengthAdjust="spacing" textLength="236" x="221" y="233.0293">&#20381;&#27425;&#36941;&#21382;&#35813;Bean&#30340;&#21508;&#20010;&#23383;&#27573;&#65292;&#26500;&#24314;&#27880;&#20837;&#20803;&#32032;</text><text fill="#000000" font-family="sans-serif" font-size="12" lengthAdjust="spacing" textLength="212" x="217" y="246.998">EjbRefElement&#25110;ResourceElement</text><rect fill="#F1F1F1" height="47.9375" rx="12.5" ry="12.5" style="stroke:#181818;stroke-width:0.5;" width="260" x="207" y="279.8281"/><text fill="#000000" font-family="sans-serif" font-size="12" lengthAdjust="spacing" textLength="236" x="221" y="300.9668">&#20381;&#27425;&#36941;&#21382;&#35813;Bean&#30340;&#21508;&#20010;&#26041;&#27861;&#65292;&#26500;&#24314;&#27880;&#20837;&#20803;&#32032;</text><text fill="#000000" font-family="sans-serif" font-size="12" lengthAdjust="spacing" textLength="212" x="217" y="314.9355">EjbRefElement&#25110;ResourceElement</text><rect fill="#F1F1F1" height="47.9375" rx="12.5" ry="12.5" style="stroke:#181818;stroke-width:0.5;" width="218" x="228" y="347.7656"/><text fill="#000000" font-family="sans-serif" font-size="12" lengthAdjust="spacing" textLength="192" x="242" y="368.9043">&#36890;&#36807;&#27880;&#20837;&#20803;&#32032;&#26500;&#24314;&#27880;&#20837;&#20803;&#25968;&#25454;&#24182;&#36820;&#22238;</text><text fill="#000000" font-family="sans-serif" font-size="12" lengthAdjust="spacing" textLength="198" x="238" y="382.873">InjectionMetadata#forElements</text><rect fill="#F1F1F1" height="47.9375" rx="12.5" ry="12.5" style="stroke:#181818;stroke-width:0.5;" width="183" x="487" y="211.8906"/><text fill="#000000" font-family="sans-serif" font-size="12" lengthAdjust="spacing" textLength="108" x="501" y="233.0293">&#36820;&#22238;&#31354;&#30340;&#27880;&#20837;&#20803;&#25968;&#25454;</text><text fill="#000000" font-family="sans-serif" font-size="12" lengthAdjust="spacing" textLength="163" x="497" y="246.998">InjectionMetadata#EMPTY</text><polygon fill="#F1F1F1" points="457.75,401.7031,469.75,413.7031,457.75,425.7031,445.75,413.7031,457.75,401.7031" style="stroke:#181818;stroke-width:0.5;"/><polygon fill="#F1F1F1" points="281.375,431.7031,293.375,443.7031,281.375,455.7031,269.375,443.7031,281.375,431.7031" style="stroke:#181818;stroke-width:0.5;"/><rect fill="none" height="96.2344" style="stroke:#000000;stroke-width:1.5;" width="302" x="130.375" y="478.5049"/><path d="M422.375,478.5049 L422.375,487.8018 L412.375,497.8018 L130.375,497.8018 " fill="none" style="stroke:#000000;stroke-width:1.5;"/><text fill="#000000" font-family="sans-serif" font-size="14" lengthAdjust="spacing" textLength="282" x="133.375" y="492.5">2.&#36827;&#34892;&#20381;&#36182;&#27880;&#20837;&#65306;InjectionMetadata#inject</text><rect fill="#F1F1F1" height="47.9375" rx="12.5" ry="12.5" style="stroke:#181818;stroke-width:0.5;" width="282" x="140.375" y="514.8018"/><text fill="#000000" font-family="sans-serif" font-size="12" lengthAdjust="spacing" textLength="240" x="154.375" y="535.9404">&#20381;&#27425;&#35843;&#29992;&#27880;&#20837;&#20803;&#25968;&#25454;&#20013;&#30340;&#27880;&#20837;&#20803;&#32032;&#30340;&#27880;&#20837;&#26041;&#27861;</text><text fill="#000000" font-family="sans-serif" font-size="12" lengthAdjust="spacing" textLength="262" x="150.375" y="549.9092">InjectionMetadata.InjectedElement#inject</text><ellipse cx="281.375" cy="604.7393" fill="none" rx="10" ry="10" style="stroke:#222222;stroke-width:1.5;"/><line style="stroke:#222222;stroke-width:2.5;" x1="275.1878" x2="287.5622" y1="598.5521" y2="610.9264"/><line style="stroke:#222222;stroke-width:2.5;" x1="287.5622" x2="275.1878" y1="598.5521" y2="610.9264"/><line style="stroke:#181818;stroke-width:1.0;" x1="337" x2="337" y1="259.8281" y2="279.8281"/><polygon fill="#181818" points="333,269.8281,337,279.8281,341,269.8281,337,273.8281" style="stroke:#181818;stroke-width:1.0;"/><line style="stroke:#181818;stroke-width:1.0;" x1="337" x2="337" y1="327.7656" y2="347.7656"/><polygon fill="#181818" points="333,337.7656,337,347.7656,341,337.7656,337,341.7656" style="stroke:#181818;stroke-width:1.0;"/><line style="stroke:#181818;stroke-width:1.0;" x1="363.25" x2="337" y1="189.8906" y2="189.8906"/><line style="stroke:#181818;stroke-width:1.0;" x1="337" x2="337" y1="189.8906" y2="211.8906"/><polygon fill="#181818" points="333,201.8906,337,211.8906,341,201.8906,337,205.8906" style="stroke:#181818;stroke-width:1.0;"/><line style="stroke:#181818;stroke-width:1.0;" x1="552.25" x2="578.5" y1="189.8906" y2="189.8906"/><line style="stroke:#181818;stroke-width:1.0;" x1="578.5" x2="578.5" y1="189.8906" y2="211.8906"/><polygon fill="#181818" points="574.5,201.8906,578.5,211.8906,582.5,201.8906,578.5,205.8906" style="stroke:#181818;stroke-width:1.0;"/><line style="stroke:#181818;stroke-width:1.0;" x1="337" x2="337" y1="395.7031" y2="413.7031"/><line style="stroke:#181818;stroke-width:1.0;" x1="337" x2="445.75" y1="413.7031" y2="413.7031"/><polygon fill="#181818" points="435.75,409.7031,445.75,413.7031,435.75,417.7031,439.75,413.7031" style="stroke:#181818;stroke-width:1.0;"/><line style="stroke:#181818;stroke-width:1.0;" x1="578.5" x2="578.5" y1="259.8281" y2="413.7031"/><line style="stroke:#181818;stroke-width:1.0;" x1="578.5" x2="469.75" y1="413.7031" y2="413.7031"/><polygon fill="#181818" points="479.75,409.7031,469.75,413.7031,479.75,417.7031,475.75,413.7031" style="stroke:#181818;stroke-width:1.0;"/><line style="stroke:#181818;stroke-width:1.0;" x1="197.875" x2="105" y1="155.8906" y2="155.8906"/><line style="stroke:#181818;stroke-width:1.0;" x1="105" x2="105" y1="155.8906" y2="177.8906"/><polygon fill="#181818" points="101,167.8906,105,177.8906,109,167.8906,105,171.8906" style="stroke:#181818;stroke-width:1.0;"/><line style="stroke:#181818;stroke-width:1.0;" x1="364.875" x2="457.75" y1="155.8906" y2="155.8906"/><line style="stroke:#181818;stroke-width:1.0;" x1="457.75" x2="457.75" y1="155.8906" y2="177.8906"/><polygon fill="#181818" points="453.75,167.8906,457.75,177.8906,461.75,167.8906,457.75,171.8906" style="stroke:#181818;stroke-width:1.0;"/><line style="stroke:#181818;stroke-width:1.0;" x1="105" x2="105" y1="211.8594" y2="443.7031"/><line style="stroke:#181818;stroke-width:1.0;" x1="105" x2="269.375" y1="443.7031" y2="443.7031"/><polygon fill="#181818" points="259.375,439.7031,269.375,443.7031,259.375,447.7031,263.375,443.7031" style="stroke:#181818;stroke-width:1.0;"/><line style="stroke:#181818;stroke-width:1.0;" x1="457.75" x2="457.75" y1="425.7031" y2="443.7031"/><line style="stroke:#181818;stroke-width:1.0;" x1="457.75" x2="293.375" y1="443.7031" y2="443.7031"/><polygon fill="#181818" points="303.375,439.7031,293.375,443.7031,303.375,447.7031,299.375,443.7031" style="stroke:#181818;stroke-width:1.0;"/><line style="stroke:#181818;stroke-width:1.0;" x1="281.375" x2="281.375" y1="97.5938" y2="143.8906"/><polygon fill="#181818" points="277.375,133.8906,281.375,143.8906,285.375,133.8906,281.375,137.8906" style="stroke:#181818;stroke-width:1.0;"/><line style="stroke:#181818;stroke-width:1.0;" x1="281.375" x2="281.375" y1="455.7031" y2="514.8018"/><polygon fill="#181818" points="277.375,504.8018,281.375,514.8018,285.375,504.8018,281.375,508.8018" style="stroke:#181818;stroke-width:1.0;"/><line style="stroke:#181818;stroke-width:1.0;" x1="281.375" x2="281.375" y1="562.7393" y2="594.7393"/><polygon fill="#181818" points="277.375,584.7393,281.375,594.7393,285.375,584.7393,281.375,588.7393" style="stroke:#181818;stroke-width:1.0;"/><!--SRC=[fLDDJy9043sxlwA95xoGw55EQZXuC276YucN2bkjWLtIhdUD84P5JLGqu1SXQZNYHnG_aCYVORVBoR_Wb1Pfh8a7BzsToUnxCszUcSwIM6al5UqzIpnQyhBI-ZYMjGBSUVRSBcP4RTcsDj2SGHVJoXXDfIWP8OGobUcKZ6ALnAZ9OWQDOzEaHd-w5y6HnWRJiObCfXhCmnWCowqNlbsGkMk-RibAjftDEpmTGfvT4Vlt8d_xsIZ-JQRf9369JRfenF44Pcf2PIhIDILaDtPvzR3rMXM7Ttpd0kxyo0emd0ueR1uJ9GHL0wXlM97DFLuwSHy7MueWd3In4W90g7PevDsv_V3kSeYp7DItwgl1kK3K01cmWT3YfjnUplEjLK1oneDwlfDflLxpwe6uhNqsDiL9Xh_NlpkndyvcI7HXTX9hqIHEOSB4Mg4hWPU9_8ak2c_YSVy_w60OsSpv7_w0SYNZRy-kfZDad2pWkBF6xgBwDMfuc2Q0-hNjhUAg7jp3RrZHYTZKj8D24hg6-f1xmbVfc0vvtXiAosP9bZVz7WUd1V7qJWPrPPJtA-x_uUy3xELl3ZJu3bs1Vsaqx6PmmflS8ueWNwzmwqLV]--></g></svg>