<?xml version="1.0" encoding="us-ascii" standalone="no"?><svg xmlns="http://www.w3.org/2000/svg" xmlns:xlink="http://www.w3.org/1999/xlink" contentStyleType="text/css" height="240px" preserveAspectRatio="none" style="width:969px;height:240px;background:#FFFFFF;" version="1.1" viewBox="0 0 969 240" width="969px" zoomAndPan="magnify"><defs/><g><!--class BeanDefinition--><g id="elem_BeanDefinition"><rect codeLine="1" fill="#F1F1F1" height="226.9688" id="BeanDefinition" rx="2.5" ry="2.5" style="stroke:#181818;stroke-width:0.5;" width="455" x="283.5" y="7"/><ellipse cx="456.25" cy="23" fill="#B4A7E5" rx="11" ry="11" style="stroke:#181818;stroke-width:1.0;"/><path d="M452.1719,18.7656 L452.1719,16.6094 L459.5625,16.6094 L459.5625,18.7656 L457.0938,18.7656 L457.0938,26.8438 L459.5625,26.8438 L459.5625,29 L452.1719,29 L452.1719,26.8438 L454.6406,26.8438 L454.6406,18.7656 L452.1719,18.7656 Z " fill="#000000"/><text fill="#000000" font-family="sans-serif" font-size="14" font-style="italic" lengthAdjust="spacing" textLength="101" x="476.75" y="27.8467">BeanDefinition</text><line style="stroke:#181818;stroke-width:0.5;" x1="284.5" x2="737.5" y1="39" y2="39"/><ellipse cx="294.5" cy="52.6484" fill="#84BE84" rx="3" ry="3" style="stroke:#038048;stroke-width:1.0;"/><text fill="#000000" font-family="sans-serif" font-size="14" lengthAdjust="spacing" textLength="190" x="303.5" y="55.9951">getBeanClassName() String</text><ellipse cx="294.5" cy="68.9453" fill="#84BE84" rx="3" ry="3" style="stroke:#038048;stroke-width:1.0;"/><text fill="#000000" font-family="sans-serif" font-size="14" lengthAdjust="spacing" textLength="300" x="303.5" y="72.292">getPropertyValues() MutablePropertyValues</text><ellipse cx="294.5" cy="85.2422" fill="#84BE84" rx="3" ry="3" style="stroke:#038048;stroke-width:1.0;"/><text fill="#000000" font-family="sans-serif" font-size="14" lengthAdjust="spacing" textLength="429" x="303.5" y="88.5889">getConstructorArgumentValues() ConstructorArgumentValues</text><line style="stroke:#181818;stroke-width:1.0;stroke-dasharray:1.0,2.0;" x1="284.5" x2="737.5" y1="95.8906" y2="95.8906"/><ellipse cx="294.5" cy="109.5391" fill="#84BE84" rx="3" ry="3" style="stroke:#038048;stroke-width:1.0;"/><text fill="#000000" font-family="sans-serif" font-size="14" lengthAdjust="spacing" textLength="190" x="303.5" y="112.8857">getInitMethodName() String</text><ellipse cx="294.5" cy="125.8359" fill="#84BE84" rx="3" ry="3" style="stroke:#038048;stroke-width:1.0;"/><text fill="#000000" font-family="sans-serif" font-size="14" lengthAdjust="spacing" textLength="224" x="303.5" y="129.1826">getDestroyMethodName() String</text><line style="stroke:#181818;stroke-width:1.0;stroke-dasharray:1.0,2.0;" x1="284.5" x2="737.5" y1="136.4844" y2="136.4844"/><ellipse cx="294.5" cy="150.1328" fill="#84BE84" rx="3" ry="3" style="stroke:#038048;stroke-width:1.0;"/><text fill="#000000" font-family="sans-serif" font-size="14" lengthAdjust="spacing" textLength="203" x="303.5" y="153.4795">getFactoryBeanName() String</text><ellipse cx="294.5" cy="166.4297" fill="#84BE84" rx="3" ry="3" style="stroke:#038048;stroke-width:1.0;"/><text fill="#000000" font-family="sans-serif" font-size="14" lengthAdjust="spacing" textLength="220" x="303.5" y="169.7764">getFactoryMethodName() String</text><line style="stroke:#181818;stroke-width:1.0;stroke-dasharray:1.0,2.0;" x1="284.5" x2="737.5" y1="177.0781" y2="177.0781"/><ellipse cx="294.5" cy="190.7266" fill="#84BE84" rx="3" ry="3" style="stroke:#038048;stroke-width:1.0;"/><text fill="#000000" font-family="sans-serif" font-size="14" lengthAdjust="spacing" textLength="131" x="303.5" y="194.0732">isLazyInit() boolean</text><ellipse cx="294.5" cy="207.0234" fill="#84BE84" rx="3" ry="3" style="stroke:#038048;stroke-width:1.0;"/><text fill="#000000" font-family="sans-serif" font-size="14" lengthAdjust="spacing" textLength="121" x="303.5" y="210.3701">getScope() String</text><ellipse cx="294.5" cy="223.3203" fill="#84BE84" rx="3" ry="3" style="stroke:#038048;stroke-width:1.0;"/><text fill="#000000" font-family="sans-serif" font-size="14" lengthAdjust="spacing" textLength="171" x="303.5" y="226.667">getDependsOn() String[]</text></g><!--class AttributeAccessor--><g id="elem_AttributeAccessor"><rect codeLine="16" fill="#F1F1F1" height="64.2969" id="AttributeAccessor" rx="2.5" ry="2.5" style="stroke:#181818;stroke-width:0.5;" width="242" x="7" y="88.34"/><ellipse cx="62.25" cy="104.34" fill="#B4A7E5" rx="11" ry="11" style="stroke:#181818;stroke-width:1.0;"/><path d="M58.1719,100.1056 L58.1719,97.9494 L65.5625,97.9494 L65.5625,100.1056 L63.0938,100.1056 L63.0938,108.1838 L65.5625,108.1838 L65.5625,110.34 L58.1719,110.34 L58.1719,108.1838 L60.6406,108.1838 L60.6406,100.1056 L58.1719,100.1056 Z " fill="#000000"/><text fill="#000000" font-family="sans-serif" font-size="14" font-style="italic" lengthAdjust="spacing" textLength="123" x="82.75" y="109.1867">AttributeAccessor</text><line style="stroke:#181818;stroke-width:0.5;" x1="8" x2="248" y1="120.34" y2="120.34"/><line style="stroke:#181818;stroke-width:0.5;" x1="8" x2="248" y1="128.34" y2="128.34"/><ellipse cx="18" cy="141.9884" fill="#84BE84" rx="3" ry="3" style="stroke:#038048;stroke-width:1.0;"/><text fill="#000000" font-family="sans-serif" font-size="14" lengthAdjust="spacing" textLength="216" x="27" y="145.3351">setAttribute(String, Object) void</text></g><!--class BeanMetadataElement--><g id="elem_BeanMetadataElement"><rect codeLine="19" fill="#F1F1F1" height="64.2969" id="BeanMetadataElement" rx="2.5" ry="2.5" style="stroke:#181818;stroke-width:0.5;" width="189" x="773.5" y="88.34"/><ellipse cx="788.5" cy="104.34" fill="#B4A7E5" rx="11" ry="11" style="stroke:#181818;stroke-width:1.0;"/><path d="M784.4219,100.1056 L784.4219,97.9494 L791.8125,97.9494 L791.8125,100.1056 L789.3438,100.1056 L789.3438,108.1838 L791.8125,108.1838 L791.8125,110.34 L784.4219,110.34 L784.4219,108.1838 L786.8906,108.1838 L786.8906,100.1056 L784.4219,100.1056 Z " fill="#000000"/><text fill="#000000" font-family="sans-serif" font-size="14" font-style="italic" lengthAdjust="spacing" textLength="157" x="802.5" y="109.1867">BeanMetadataElement</text><line style="stroke:#181818;stroke-width:0.5;" x1="774.5" x2="961.5" y1="120.34" y2="120.34"/><line style="stroke:#181818;stroke-width:0.5;" x1="774.5" x2="961.5" y1="128.34" y2="128.34"/><ellipse cx="784.5" cy="141.9884" fill="#84BE84" rx="3" ry="3" style="stroke:#038048;stroke-width:1.0;"/><text fill="#000000" font-family="sans-serif" font-size="14" lengthAdjust="spacing" textLength="131" x="793.5" y="145.3351">getSource() Object</text></g><!--reverse link AttributeAccessor to BeanDefinition--><g id="link_AttributeAccessor_BeanDefinition"><path codeLine="23" d="M270.17,120.49 C274.51,120.49 278.85,120.49 283.19,120.49 " fill="none" id="AttributeAccessor-backto-BeanDefinition" style="stroke:#181818;stroke-width:1.0;"/><polygon fill="none" points="270.18,127.49,250.18,120.49,270.18,113.49,270.18,127.49" style="stroke:#181818;stroke-width:1.0;"/></g><!--link BeanDefinition to BeanMetadataElement--><g id="link_BeanDefinition_BeanMetadataElement"><path codeLine="24" d="M738.66,120.49 C743.13,120.49 747.6,120.49 752.08,120.49 " fill="none" id="BeanDefinition-to-BeanMetadataElement" style="stroke:#181818;stroke-width:1.0;"/><polygon fill="none" points="752.01,113.49,772.01,120.49,752.01,127.49,752.01,113.49" style="stroke:#181818;stroke-width:1.0;"/></g><!--SRC=[VL7DJiCm33ulJv7Z9XYFW5Gsa90sXbI92-BWfbx9bCLJuY2LdtSdKQE8qOAF_dxysTQMqUr1eRn1i6lSQwjPavKVOdOXE-JKNXdm_W6EE5_8cfssNGOV7PtGSVy49g2Fw3OmD0RF-vcy8klP1SNaAjU58rekkZynCRkAbHtkOxOjyYkrKs7M62sedoJyCBc3DALFUqsvPFXV5-qtyDwdD15iY4pqol9QnSt7oKveMx-p1NX-4Lz2bzjN7BjDOAoKGk_93UVto0MP3y9BkMiEg7WXtqYtPoPfenWRMc2uDPXkMBvOKt0gvHhKKIT-_Njfbf_Nuo0ZcakqYL7V]--></g></svg>