<?xml version="1.0" encoding="us-ascii" standalone="no"?><svg xmlns="http://www.w3.org/2000/svg" xmlns:xlink="http://www.w3.org/1999/xlink" contentStyleType="text/css" height="274px" preserveAspectRatio="none" style="width:467px;height:274px;background:#FFFFFF;" version="1.1" viewBox="0 0 467 274" width="467px" zoomAndPan="magnify"><defs/><g><text fill="#000000" font-family="Consolas" font-size="14" font-weight="bold" lengthAdjust="spacing" textLength="70" x="194" y="27.9951">&#21487;&#36798;&#24615;&#20998;&#26512;</text><!--cluster GC Roots--><g id="cluster_GC Roots"><path d="M119.5,48.2969 L193.5,48.2969 A3.75,3.75 0 0 1 196,50.7969 L203,70.5938 L353.5,70.5938 A2.5,2.5 0 0 1 356,73.0938 L356,159.3969 A2.5,2.5 0 0 1 353.5,161.8969 L119.5,161.8969 A2.5,2.5 0 0 1 117,159.3969 L117,50.7969 A2.5,2.5 0 0 1 119.5,48.2969 " fill="#FFFFFF" style="stroke:#000000;stroke-width:1.0;"/><line style="stroke:#000000;stroke-width:1.0;" x1="117" x2="203" y1="70.5938" y2="70.5938"/><text fill="#000000" font-family="Consolas" font-size="14" font-weight="bold" lengthAdjust="spacing" textLength="73" x="121" y="63.292">GC Roots</text></g><!--entity R1--><g id="elem_R1"><rect fill="#FFFFFF" height="62.5938" rx="2.5" ry="2.5" style="stroke:#000000;stroke-width:1.0;" width="86" x="133" y="83.2969"/><rect fill="#FFFFFF" height="10" style="stroke:#000000;stroke-width:1.0;" width="15" x="199" y="88.2969"/><rect fill="#FFFFFF" height="2" style="stroke:#000000;stroke-width:1.0;" width="4" x="197" y="90.2969"/><rect fill="#FFFFFF" height="2" style="stroke:#000000;stroke-width:1.0;" width="4" x="197" y="94.2969"/><text fill="#000000" font-family="Consolas" font-size="14" font-style="italic" lengthAdjust="spacing" textLength="46" x="148" y="116.292">&#171;&#23384;&#27963;&#187;</text><text fill="#000000" font-family="Consolas" font-size="14" lengthAdjust="spacing" textLength="19" x="161.5" y="132.5889">R1</text></g><!--entity R2--><g id="elem_R2"><rect fill="#FFFFFF" height="62.5938" rx="2.5" ry="2.5" style="stroke:#000000;stroke-width:1.0;" width="86" x="254" y="83.2969"/><rect fill="#FFFFFF" height="10" style="stroke:#000000;stroke-width:1.0;" width="15" x="320" y="88.2969"/><rect fill="#FFFFFF" height="2" style="stroke:#000000;stroke-width:1.0;" width="4" x="318" y="90.2969"/><rect fill="#FFFFFF" height="2" style="stroke:#000000;stroke-width:1.0;" width="4" x="318" y="94.2969"/><text fill="#000000" font-family="Consolas" font-size="14" font-style="italic" lengthAdjust="spacing" textLength="46" x="269" y="116.292">&#171;&#23384;&#27963;&#187;</text><text fill="#000000" font-family="Consolas" font-size="14" lengthAdjust="spacing" textLength="19" x="282.5" y="132.5889">R2</text></g><!--entity A--><g id="elem_A"><rect fill="#FFFFFF" height="62.5938" rx="2.5" ry="2.5" style="stroke:#000000;stroke-width:1.0;" width="86" x="133" y="205.8969"/><rect fill="#FFFFFF" height="10" style="stroke:#000000;stroke-width:1.0;" width="15" x="199" y="210.8969"/><rect fill="#FFFFFF" height="2" style="stroke:#000000;stroke-width:1.0;" width="4" x="197" y="212.8969"/><rect fill="#FFFFFF" height="2" style="stroke:#000000;stroke-width:1.0;" width="4" x="197" y="216.8969"/><text fill="#000000" font-family="Consolas" font-size="14" font-style="italic" lengthAdjust="spacing" textLength="46" x="148" y="238.892">&#171;&#23384;&#27963;&#187;</text><text fill="#000000" font-family="Consolas" font-size="14" lengthAdjust="spacing" textLength="9" x="166.5" y="255.1889">A</text></g><!--entity B--><g id="elem_B"><rect fill="#FFFFFF" height="62.5938" rx="2.5" ry="2.5" style="stroke:#000000;stroke-width:1.0;" width="86" x="375" y="83.2969"/><rect fill="#FFFFFF" height="10" style="stroke:#000000;stroke-width:1.0;" width="15" x="441" y="88.2969"/><rect fill="#FFFFFF" height="2" style="stroke:#000000;stroke-width:1.0;" width="4" x="439" y="90.2969"/><rect fill="#FFFFFF" height="2" style="stroke:#000000;stroke-width:1.0;" width="4" x="439" y="94.2969"/><text fill="#000000" font-family="Consolas" font-size="14" font-style="italic" lengthAdjust="spacing" textLength="46" x="390" y="116.292">&#171;&#27515;&#20129;&#187;</text><text fill="#000000" font-family="Consolas" font-size="14" lengthAdjust="spacing" textLength="10" x="408" y="132.5889">B</text></g><!--entity F--><g id="elem_F"><rect fill="#FFFFFF" height="62.5938" rx="2.5" ry="2.5" style="stroke:#000000;stroke-width:1.0;" width="86" x="375" y="205.8969"/><rect fill="#FFFFFF" height="10" style="stroke:#000000;stroke-width:1.0;" width="15" x="441" y="210.8969"/><rect fill="#FFFFFF" height="2" style="stroke:#000000;stroke-width:1.0;" width="4" x="439" y="212.8969"/><rect fill="#FFFFFF" height="2" style="stroke:#000000;stroke-width:1.0;" width="4" x="439" y="216.8969"/><text fill="#000000" font-family="Consolas" font-size="14" font-style="italic" lengthAdjust="spacing" textLength="46" x="390" y="238.892">&#171;&#27515;&#20129;&#187;</text><text fill="#000000" font-family="Consolas" font-size="14" lengthAdjust="spacing" textLength="8" x="409" y="255.1889">F</text></g><!--entity C--><g id="elem_C"><rect fill="#FFFFFF" height="62.5938" rx="2.5" ry="2.5" style="stroke:#000000;stroke-width:1.0;" width="86" x="254" y="205.8969"/><rect fill="#FFFFFF" height="10" style="stroke:#000000;stroke-width:1.0;" width="15" x="320" y="210.8969"/><rect fill="#FFFFFF" height="2" style="stroke:#000000;stroke-width:1.0;" width="4" x="318" y="212.8969"/><rect fill="#FFFFFF" height="2" style="stroke:#000000;stroke-width:1.0;" width="4" x="318" y="216.8969"/><text fill="#000000" font-family="Consolas" font-size="14" font-style="italic" lengthAdjust="spacing" textLength="46" x="269" y="238.892">&#171;&#23384;&#27963;&#187;</text><text fill="#000000" font-family="Consolas" font-size="14" lengthAdjust="spacing" textLength="10" x="287" y="255.1889">C</text></g><!--entity D--><g id="elem_D"><rect fill="#FFFFFF" height="62.5938" rx="2.5" ry="2.5" style="stroke:#000000;stroke-width:1.0;" width="86" x="12" y="205.8969"/><rect fill="#FFFFFF" height="10" style="stroke:#000000;stroke-width:1.0;" width="15" x="78" y="210.8969"/><rect fill="#FFFFFF" height="2" style="stroke:#000000;stroke-width:1.0;" width="4" x="76" y="212.8969"/><rect fill="#FFFFFF" height="2" style="stroke:#000000;stroke-width:1.0;" width="4" x="76" y="216.8969"/><text fill="#000000" font-family="Consolas" font-size="14" font-style="italic" lengthAdjust="spacing" textLength="46" x="27" y="238.892">&#171;&#23384;&#27963;&#187;</text><text fill="#000000" font-family="Consolas" font-size="14" lengthAdjust="spacing" textLength="11" x="44.5" y="255.1889">D</text></g><!--link R1 to A--><g id="link_R1_A"><path d="M176,146.3369 C176,162.6369 176,182.7669 176,199.8369 " fill="none" id="R1-to-A" style="stroke:#000000;stroke-width:1.0;"/><polygon fill="#000000" points="176,204.5069,180,195.5069,176,199.5069,172,195.5069,176,204.5069" style="stroke:#000000;stroke-width:1.0;"/></g><!--link A to C--><g id="link_A_C"><path d="M219.48,237.1869 C228.93,237.1869 238.37,237.1869 247.82,237.1869 " fill="none" id="A-to-C" style="stroke:#000000;stroke-width:1.0;"/><polygon fill="#000000" points="252.7,237.1869,243.7,233.1869,247.7,237.1869,243.7,241.1869,252.7,237.1869" style="stroke:#000000;stroke-width:1.0;"/></g><!--reverse link D to A--><g id="link_D_A"><path d="M104.37,237.1869 C113.81,237.1869 123.26,237.1869 132.7,237.1869 " fill="none" id="D-backto-A" style="stroke:#000000;stroke-width:1.0;"/><polygon fill="#000000" points="99.48,237.1869,108.48,241.1869,104.48,237.1869,108.48,233.1869,99.48,237.1869" style="stroke:#000000;stroke-width:1.0;"/></g><!--link R2 to C--><g id="link_R2_C"><path d="M297,146.3369 C297,162.6369 297,182.7669 297,199.8369 " fill="none" id="R2-to-C" style="stroke:#000000;stroke-width:1.0;"/><polygon fill="#000000" points="297,204.5069,301,195.5069,297,199.5069,293,195.5069,297,204.5069" style="stroke:#000000;stroke-width:1.0;"/></g><!--link B to F--><g id="link_B_F"><path d="M418,146.3369 C418,162.6369 418,182.7669 418,199.8369 " fill="none" id="B-to-F" style="stroke:#000000;stroke-width:1.0;"/><polygon fill="#000000" points="418,204.5069,422,195.5069,418,199.5069,414,195.5069,418,204.5069" style="stroke:#000000;stroke-width:1.0;"/></g><!--SRC=[Kop9ICrDLIZ8ISpCuohEpimhI2nAp5KeoIp9INNBpoi9pgnALJ0qGP9AIKrBBCqf8IZfbmWqrpa_hpW_9x6O2soWmjF-zI_sxNlMiFnfHzkpUHEu2XAJinFJKnMKt9qLWlBpIugL5AgvEAE336CLR6oUhftnRCjkEpkGW16AG2rNj2EAGBGJYFjixUudknRQsIaebsTabgHoHRjX5NL6rUg2mkK2MwwReckd0BG3R8zk4OZZ3ENaW3WkG0x8JH1r82ad6CSj5W00]--></g></svg>