<?xml version="1.0" encoding="us-ascii" standalone="no"?><svg xmlns="http://www.w3.org/2000/svg" xmlns:xlink="http://www.w3.org/1999/xlink" contentStyleType="text/css" height="46px" preserveAspectRatio="none" style="width:404px;height:46px;background:#FFFFFF;" version="1.1" viewBox="0 0 404 46" width="404px" zoomAndPan="magnify"><defs/><g><ellipse cx="16" cy="23.99" fill="#222222" rx="10" ry="10" style="stroke:none;stroke-width:1.0;"/><rect fill="#F1F1F1" height="33.9688" rx="12.5" ry="12.5" style="stroke:#181818;stroke-width:0.5;" width="88" x="46" y="7"/><text fill="#000000" font-family="sans-serif" font-size="12" lengthAdjust="spacing" textLength="68" x="56" y="28.1387">&#23454;&#20363;&#21270;Bean</text><rect fill="#F1F1F1" height="33.9688" rx="12.5" ry="12.5" style="stroke:#181818;stroke-width:0.5;" width="80" x="154" y="7"/><text fill="#000000" font-family="sans-serif" font-size="12" lengthAdjust="spacing" textLength="60" x="164" y="28.1387">&#35774;&#32622;&#23646;&#24615;&#20540;</text><rect fill="#F1F1F1" height="33.9688" rx="12.5" ry="12.5" style="stroke:#181818;stroke-width:0.5;" width="104" x="254" y="7"/><text fill="#000000" font-family="sans-serif" font-size="12" lengthAdjust="spacing" textLength="84" x="264" y="28.1387">&#25191;&#34892;&#21021;&#22987;&#21270;&#26041;&#27861;</text><ellipse cx="388" cy="23.99" fill="none" rx="10" ry="10" style="stroke:#222222;stroke-width:1.0;"/><ellipse cx="388.5" cy="24.49" fill="#222222" rx="6" ry="6" style="stroke:none;stroke-width:1.0;"/><!--link start to ???Bean--><g id="link_start_&#23454;&#20363;&#21270;Bean"><path d="M26.41,23.99 C30.95,23.99 35.49,23.99 40.03,23.99 " fill="none" id="start-to-&#23454;&#20363;&#21270;Bean" style="stroke:#181818;stroke-width:1.0;"/><polygon fill="#181818" points="44.78,23.99,35.78,19.99,39.78,23.99,35.78,27.99,44.78,23.99" style="stroke:#181818;stroke-width:1.0;"/></g><!--link ???Bean to ?????--><g id="link_&#23454;&#20363;&#21270;Bean_&#35774;&#32622;&#23646;&#24615;&#20540;"><path d="M134.28,23.99 C138.87,23.99 143.47,23.99 148.06,23.99 " fill="none" id="&#23454;&#20363;&#21270;Bean-to-&#35774;&#32622;&#23646;&#24615;&#20540;" style="stroke:#181818;stroke-width:1.0;"/><polygon fill="#181818" points="152.88,23.99,143.88,19.99,147.88,23.99,143.88,27.99,152.88,23.99" style="stroke:#181818;stroke-width:1.0;"/></g><!--link ????? to ???????--><g id="link_&#35774;&#32622;&#23646;&#24615;&#20540;_&#25191;&#34892;&#21021;&#22987;&#21270;&#26041;&#27861;"><path d="M234.25,23.99 C238.78,23.99 243.32,23.99 247.85,23.99 " fill="none" id="&#35774;&#32622;&#23646;&#24615;&#20540;-to-&#25191;&#34892;&#21021;&#22987;&#21270;&#26041;&#27861;" style="stroke:#181818;stroke-width:1.0;"/><polygon fill="#181818" points="252.59,23.99,243.59,19.99,247.59,23.99,243.59,27.99,252.59,23.99" style="stroke:#181818;stroke-width:1.0;"/></g><!--link ??????? to end--><g id="link_&#25191;&#34892;&#21021;&#22987;&#21270;&#26041;&#27861;_end"><path d="M358.21,23.99 C362.79,23.99 367.37,23.99 371.96,23.99 " fill="none" id="&#25191;&#34892;&#21021;&#22987;&#21270;&#26041;&#27861;-to-end" style="stroke:#181818;stroke-width:1.0;"/><polygon fill="#181818" points="376.76,23.99,367.76,19.99,371.76,23.99,367.76,27.99,376.76,23.99" style="stroke:#181818;stroke-width:1.0;"/></g><!--SRC=[qz3ILD0jqhLJK7gwRjwJVTrFUwOvfIRcAN5115-is_Tyxxgd6-SzQrZ-j64FJFXPv_8N2tkUTinzkXoauzcqdSysJuLAQcXf0W00]--></g></svg>