<?xml version="1.0" encoding="us-ascii" standalone="no"?><svg xmlns="http://www.w3.org/2000/svg" xmlns:xlink="http://www.w3.org/1999/xlink" contentStyleType="text/css" height="46px" preserveAspectRatio="none" style="width:520px;height:46px;background:#FFFFFF;" version="1.1" viewBox="0 0 520 46" width="520px" zoomAndPan="magnify"><defs/><g><ellipse cx="16" cy="23.99" fill="#222222" rx="10" ry="10" style="stroke:none;stroke-width:1.0;"/><rect fill="#F1F1F1" height="33.9688" rx="12.5" ry="12.5" style="stroke:#181818;stroke-width:0.5;" width="116" x="46" y="7"/><text fill="#000000" font-family="sans-serif" font-size="12" lengthAdjust="spacing" textLength="96" x="56" y="28.1387">&#30417;&#25511;&#34394;&#25311;&#26426;&#30340;&#34892;&#20026;</text><rect fill="#F1F1F1" height="33.9688" rx="12.5" ry="12.5" style="stroke:#181818;stroke-width:0.5;" width="68" x="182" y="7"/><text fill="#000000" font-family="sans-serif" font-size="12" lengthAdjust="spacing" textLength="48" x="192" y="28.1387">&#30830;&#23450;&#30446;&#26631;</text><rect fill="#F1F1F1" height="33.9688" rx="12.5" ry="12.5" style="stroke:#181818;stroke-width:0.5;" width="68" x="270" y="7"/><text fill="#000000" font-family="sans-serif" font-size="12" lengthAdjust="spacing" textLength="48" x="280" y="28.1387">&#21046;&#23450;&#26041;&#26696;</text><rect fill="#F1F1F1" height="33.9688" rx="12.5" ry="12.5" style="stroke:#181818;stroke-width:0.5;" width="68" x="358" y="7"/><text fill="#000000" font-family="sans-serif" font-size="12" lengthAdjust="spacing" textLength="48" x="368" y="28.1387">&#39564;&#35777;&#26041;&#26696;</text><rect fill="#F1F1F1" height="33.9688" rx="12.5" ry="12.5" style="stroke:#181818;stroke-width:0.5;" width="68" x="446" y="7"/><text fill="#000000" font-family="sans-serif" font-size="12" lengthAdjust="spacing" textLength="48" x="456" y="28.1387">&#32467;&#26524;&#39564;&#25910;</text><!--link start to ????????--><g id="link_start_&#30417;&#25511;&#34394;&#25311;&#26426;&#30340;&#34892;&#20026;"><path d="M26.31,23.99 C30.86,23.99 35.42,23.99 39.97,23.99 " fill="none" id="start-to-&#30417;&#25511;&#34394;&#25311;&#26426;&#30340;&#34892;&#20026;" style="stroke:#181818;stroke-width:1.0;"/><polygon fill="#181818" points="44.73,23.99,35.73,19.99,39.73,23.99,35.73,27.99,44.73,23.99" style="stroke:#181818;stroke-width:1.0;"/></g><!--link ???????? to ????--><g id="link_&#30417;&#25511;&#34394;&#25311;&#26426;&#30340;&#34892;&#20026;_&#30830;&#23450;&#30446;&#26631;"><path d="M162.19,23.99 C166.72,23.99 171.25,23.99 175.79,23.99 " fill="none" id="&#30417;&#25511;&#34394;&#25311;&#26426;&#30340;&#34892;&#20026;-to-&#30830;&#23450;&#30446;&#26631;" style="stroke:#181818;stroke-width:1.0;"/><polygon fill="#181818" points="180.53,23.99,171.53,19.99,175.53,23.99,171.53,27.99,180.53,23.99" style="stroke:#181818;stroke-width:1.0;"/></g><!--link ???? to ????--><g id="link_&#30830;&#23450;&#30446;&#26631;_&#21046;&#23450;&#26041;&#26696;"><path d="M250.38,23.99 C254.89,23.99 259.41,23.99 263.93,23.99 " fill="none" id="&#30830;&#23450;&#30446;&#26631;-to-&#21046;&#23450;&#26041;&#26696;" style="stroke:#181818;stroke-width:1.0;"/><polygon fill="#181818" points="268.65,23.99,259.65,19.99,263.65,23.99,259.65,27.99,268.65,23.99" style="stroke:#181818;stroke-width:1.0;"/></g><!--link ???? to ????--><g id="link_&#21046;&#23450;&#26041;&#26696;_&#39564;&#35777;&#26041;&#26696;"><path d="M338.38,23.99 C342.89,23.99 347.41,23.99 351.93,23.99 " fill="none" id="&#21046;&#23450;&#26041;&#26696;-to-&#39564;&#35777;&#26041;&#26696;" style="stroke:#181818;stroke-width:1.0;"/><polygon fill="#181818" points="356.65,23.99,347.65,19.99,351.65,23.99,347.65,27.99,356.65,23.99" style="stroke:#181818;stroke-width:1.0;"/></g><!--link ???? to ????--><g id="link_&#39564;&#35777;&#26041;&#26696;_&#32467;&#26524;&#39564;&#25910;"><path d="M426.38,23.99 C430.89,23.99 435.41,23.99 439.93,23.99 " fill="none" id="&#39564;&#35777;&#26041;&#26696;-to-&#32467;&#26524;&#39564;&#25910;" style="stroke:#181818;stroke-width:1.0;"/><polygon fill="#181818" points="444.65,23.99,435.65,19.99,439.65,23.99,435.65,27.99,444.65,23.99" style="stroke:#181818;stroke-width:1.0;"/></g><!--SRC=[qz3ILD0jqhLJU3vxuhE-vIzcpdhMFV_Pd5tFPxMyMDZpPCSkBeZimdLFryrwFdlTimNj496d7Tk08i-cxNosi0CYyd9LpulrZSWYptTFVZPl3b3ysPHj0000]--></g></svg>