<?xml version="1.0" encoding="us-ascii" standalone="no"?><svg xmlns="http://www.w3.org/2000/svg" xmlns:xlink="http://www.w3.org/1999/xlink" contentStyleType="text/css" height="294px" preserveAspectRatio="none" style="width:370px;height:294px;background:#FFFFFF;" version="1.1" viewBox="0 0 370 294" width="370px" zoomAndPan="magnify"><defs/><g><!--class Lock--><g id="elem_Lock"><rect codeLine="1" fill="#F1F1F1" height="48" id="Lock" rx="2.5" ry="2.5" style="stroke:#181818;stroke-width:0.5;" width="64" x="277.5" y="7"/><ellipse cx="292.5" cy="23" fill="#B4A7E5" rx="11" ry="11" style="stroke:#181818;stroke-width:1.0;"/><path d="M288.4219,18.7656 L288.4219,16.6094 L295.8125,16.6094 L295.8125,18.7656 L293.3438,18.7656 L293.3438,26.8438 L295.8125,26.8438 L295.8125,29 L288.4219,29 L288.4219,26.8438 L290.8906,26.8438 L290.8906,18.7656 L288.4219,18.7656 Z " fill="#000000"/><text fill="#000000" font-family="sans-serif" font-size="14" font-style="italic" lengthAdjust="spacing" textLength="32" x="306.5" y="27.8467">Lock</text><line style="stroke:#181818;stroke-width:0.5;" x1="278.5" x2="340.5" y1="39" y2="39"/><line style="stroke:#181818;stroke-width:0.5;" x1="278.5" x2="340.5" y1="47" y2="47"/></g><!--class ReentrantLock--><g id="elem_ReentrantLock"><rect codeLine="4" fill="#F1F1F1" height="64.2969" id="ReentrantLock" rx="2.5" ry="2.5" style="stroke:#181818;stroke-width:0.5;" width="133" x="230" y="115"/><ellipse cx="245" cy="131" fill="#ADD1B2" rx="11" ry="11" style="stroke:#181818;stroke-width:1.0;"/><path d="M247.9688,136.6406 Q247.3906,136.9375 246.75,137.0781 Q246.1094,137.2344 245.4063,137.2344 Q242.9063,137.2344 241.5781,135.5938 Q240.2656,133.9375 240.2656,130.8125 Q240.2656,127.6875 241.5781,126.0313 Q242.9063,124.375 245.4063,124.375 Q246.1094,124.375 246.75,124.5313 Q247.4063,124.6875 247.9688,124.9844 L247.9688,127.7031 Q247.3438,127.125 246.75,126.8594 Q246.1563,126.5781 245.5313,126.5781 Q244.1875,126.5781 243.5,127.6563 Q242.8125,128.7188 242.8125,130.8125 Q242.8125,132.9063 243.5,133.9844 Q244.1875,135.0469 245.5313,135.0469 Q246.1563,135.0469 246.75,134.7813 Q247.3438,134.5 247.9688,133.9219 L247.9688,136.6406 Z " fill="#000000"/><text fill="#000000" font-family="sans-serif" font-size="14" lengthAdjust="spacing" textLength="101" x="259" y="135.8467">ReentrantLock</text><line style="stroke:#181818;stroke-width:0.5;" x1="231" x2="362" y1="147" y2="147"/><rect fill="none" height="6" style="stroke:#C82930;stroke-width:1.0;" width="6" x="238" y="157.6484"/><text fill="#000000" font-family="sans-serif" font-size="14" lengthAdjust="spacing" textLength="69" x="250" y="163.9951">Sync sync</text><line style="stroke:#181818;stroke-width:0.5;" x1="231" x2="362" y1="171.2969" y2="171.2969"/></g><!--class AbstractQueuedSynchronizer--><g id="elem_AbstractQueuedSynchronizer"><rect codeLine="7" fill="#F1F1F1" height="48" id="AbstractQueuedSynchronizer" rx="2.5" ry="2.5" style="stroke:#181818;stroke-width:0.5;" width="235" x="7" y="7"/><ellipse cx="22" cy="23" fill="#ADD1B2" rx="11" ry="11" style="stroke:#181818;stroke-width:1.0;"/><path d="M24.9688,28.6406 Q24.3906,28.9375 23.75,29.0781 Q23.1094,29.2344 22.4063,29.2344 Q19.9063,29.2344 18.5781,27.5938 Q17.2656,25.9375 17.2656,22.8125 Q17.2656,19.6875 18.5781,18.0313 Q19.9063,16.375 22.4063,16.375 Q23.1094,16.375 23.75,16.5313 Q24.4063,16.6875 24.9688,16.9844 L24.9688,19.7031 Q24.3438,19.125 23.75,18.8594 Q23.1563,18.5781 22.5313,18.5781 Q21.1875,18.5781 20.5,19.6563 Q19.8125,20.7188 19.8125,22.8125 Q19.8125,24.9063 20.5,25.9844 Q21.1875,27.0469 22.5313,27.0469 Q23.1563,27.0469 23.75,26.7813 Q24.3438,26.5 24.9688,25.9219 L24.9688,28.6406 Z " fill="#000000"/><text fill="#000000" font-family="sans-serif" font-size="14" lengthAdjust="spacing" textLength="203" x="36" y="27.8467">AbstractQueuedSynchronizer</text><line style="stroke:#181818;stroke-width:0.5;" x1="8" x2="241" y1="39" y2="39"/><line style="stroke:#181818;stroke-width:0.5;" x1="8" x2="241" y1="47" y2="47"/></g><!--class Sync--><g id="elem_Sync"><rect codeLine="9" fill="#F1F1F1" height="48" id="Sync" rx="2.5" ry="2.5" style="stroke:#181818;stroke-width:0.5;" width="65" x="117" y="123.15"/><ellipse cx="132" cy="139.15" fill="#ADD1B2" rx="11" ry="11" style="stroke:#181818;stroke-width:1.0;"/><path d="M134.9688,144.7906 Q134.3906,145.0875 133.75,145.2281 Q133.1094,145.3844 132.4063,145.3844 Q129.9063,145.3844 128.5781,143.7438 Q127.2656,142.0875 127.2656,138.9625 Q127.2656,135.8375 128.5781,134.1813 Q129.9063,132.525 132.4063,132.525 Q133.1094,132.525 133.75,132.6813 Q134.4063,132.8375 134.9688,133.1344 L134.9688,135.8531 Q134.3438,135.275 133.75,135.0094 Q133.1563,134.7281 132.5313,134.7281 Q131.1875,134.7281 130.5,135.8063 Q129.8125,136.8688 129.8125,138.9625 Q129.8125,141.0563 130.5,142.1344 Q131.1875,143.1969 132.5313,143.1969 Q133.1563,143.1969 133.75,142.9313 Q134.3438,142.65 134.9688,142.0719 L134.9688,144.7906 Z " fill="#000000"/><text fill="#000000" font-family="sans-serif" font-size="14" lengthAdjust="spacing" textLength="33" x="146" y="143.9967">Sync</text><line style="stroke:#181818;stroke-width:0.5;" x1="118" x2="181" y1="155.15" y2="155.15"/><line style="stroke:#181818;stroke-width:0.5;" x1="118" x2="181" y1="163.15" y2="163.15"/></g><!--class FairSync--><g id="elem_FairSync"><rect codeLine="10" fill="#F1F1F1" height="48" id="FairSync" rx="2.5" ry="2.5" style="stroke:#181818;stroke-width:0.5;" width="89" x="37" y="239.3"/><ellipse cx="52" cy="255.3" fill="#ADD1B2" rx="11" ry="11" style="stroke:#181818;stroke-width:1.0;"/><path d="M54.9688,260.9406 Q54.3906,261.2375 53.75,261.3781 Q53.1094,261.5344 52.4063,261.5344 Q49.9063,261.5344 48.5781,259.8938 Q47.2656,258.2375 47.2656,255.1125 Q47.2656,251.9875 48.5781,250.3313 Q49.9063,248.675 52.4063,248.675 Q53.1094,248.675 53.75,248.8313 Q54.4063,248.9875 54.9688,249.2844 L54.9688,252.0031 Q54.3438,251.425 53.75,251.1594 Q53.1563,250.8781 52.5313,250.8781 Q51.1875,250.8781 50.5,251.9563 Q49.8125,253.0188 49.8125,255.1125 Q49.8125,257.2063 50.5,258.2844 Q51.1875,259.3469 52.5313,259.3469 Q53.1563,259.3469 53.75,259.0813 Q54.3438,258.8 54.9688,258.2219 L54.9688,260.9406 Z " fill="#000000"/><text fill="#000000" font-family="sans-serif" font-size="14" lengthAdjust="spacing" textLength="57" x="66" y="260.1467">FairSync</text><line style="stroke:#181818;stroke-width:0.5;" x1="38" x2="125" y1="271.3" y2="271.3"/><line style="stroke:#181818;stroke-width:0.5;" x1="38" x2="125" y1="279.3" y2="279.3"/></g><!--class NonfairSync--><g id="elem_NonfairSync"><rect codeLine="11" fill="#F1F1F1" height="48" id="NonfairSync" rx="2.5" ry="2.5" style="stroke:#181818;stroke-width:0.5;" width="113" x="161" y="239.3"/><ellipse cx="176" cy="255.3" fill="#ADD1B2" rx="11" ry="11" style="stroke:#181818;stroke-width:1.0;"/><path d="M178.9688,260.9406 Q178.3906,261.2375 177.75,261.3781 Q177.1094,261.5344 176.4063,261.5344 Q173.9063,261.5344 172.5781,259.8938 Q171.2656,258.2375 171.2656,255.1125 Q171.2656,251.9875 172.5781,250.3313 Q173.9063,248.675 176.4063,248.675 Q177.1094,248.675 177.75,248.8313 Q178.4063,248.9875 178.9688,249.2844 L178.9688,252.0031 Q178.3438,251.425 177.75,251.1594 Q177.1563,250.8781 176.5313,250.8781 Q175.1875,250.8781 174.5,251.9563 Q173.8125,253.0188 173.8125,255.1125 Q173.8125,257.2063 174.5,258.2844 Q175.1875,259.3469 176.5313,259.3469 Q177.1563,259.3469 177.75,259.0813 Q178.3438,258.8 178.9688,258.2219 L178.9688,260.9406 Z " fill="#000000"/><text fill="#000000" font-family="sans-serif" font-size="14" lengthAdjust="spacing" textLength="81" x="190" y="260.1467">NonfairSync</text><line style="stroke:#181818;stroke-width:0.5;" x1="162" x2="273" y1="271.3" y2="271.3"/><line style="stroke:#181818;stroke-width:0.5;" x1="162" x2="273" y1="279.3" y2="279.3"/></g><!--reverse link Lock to ReentrantLock--><g id="link_Lock_ReentrantLock"><path codeLine="12" d="M304.47,76.2 C303.01,89.01 301.45,102.72 300.1,114.58 " fill="none" id="Lock-backto-ReentrantLock" style="stroke:#181818;stroke-width:1.0;stroke-dasharray:7.0,7.0;"/><polygon fill="none" points="297.62,75.46,306.84,56.38,311.53,77.04,297.62,75.46" style="stroke:#181818;stroke-width:1.0;"/></g><!--reverse link Sync to ReentrantLock--><g id="link_Sync_ReentrantLock"><path codeLine="14" d="M188.14,147.15 C201.94,147.15 215.75,147.15 229.55,147.15 " fill="none" id="Sync-backto-ReentrantLock" style="stroke:#181818;stroke-width:1.0;stroke-dasharray:7.0,7.0;"/><polygon fill="#181818" points="183.23,147.15,192.23,151.15,188.23,147.15,192.23,143.15,183.23,147.15" style="stroke:#181818;stroke-width:1.0;"/></g><!--reverse link AbstractQueuedSynchronizer to Sync--><g id="link_AbstractQueuedSynchronizer_Sync"><path codeLine="17" d="M134.09,75.78 C137.59,91.79 141.42,109.27 144.39,122.81 " fill="none" id="AbstractQueuedSynchronizer-backto-Sync" style="stroke:#181818;stroke-width:1.0;"/><polygon fill="none" points="127.06,77.41,129.62,56.38,140.74,74.42,127.06,77.41" style="stroke:#181818;stroke-width:1.0;"/></g><!--reverse link Sync to FairSync--><g id="link_Sync_FairSync"><path codeLine="18" d="M124.88,189.49 C114.96,206.14 103.88,224.73 95.41,238.96 " fill="none" id="Sync-backto-FairSync" style="stroke:#181818;stroke-width:1.0;"/><polygon fill="none" points="119.33,186.13,135.58,172.53,131.35,193.29,119.33,186.13" style="stroke:#181818;stroke-width:1.0;"/></g><!--reverse link Sync to NonfairSync--><g id="link_Sync_NonfairSync"><path codeLine="19" d="M174.12,189.49 C184.04,206.14 195.12,224.73 203.59,238.96 " fill="none" id="Sync-backto-NonfairSync" style="stroke:#181818;stroke-width:1.0;"/><polygon fill="none" points="167.65,193.29,163.42,172.53,179.67,186.13,167.65,193.29" style="stroke:#181818;stroke-width:1.0;"/></g><!--SRC=[oymhIIrAIqnELV39JyvMgERYgkLApaaiBbO8IatDAobAp2k1Id3gAWHNvYKh50C9k2B7f6AWckIImDBKqjGKa7n6KNvUPbLgaK9rBHTK4LXRDKoBMs9c4Qg8NtvU6f8WgiLwfNerTc37SQ7BvEZPWStcuk82wzKjrGKgnUqaBhZL49LWlSYM8uG1]--></g></svg>