<?xml version="1.0" encoding="us-ascii" standalone="no"?><svg xmlns="http://www.w3.org/2000/svg" xmlns:xlink="http://www.w3.org/1999/xlink" contentStyleType="text/css" height="780px" preserveAspectRatio="none" style="width:989px;height:780px;background:#FFFFFF;" version="1.1" viewBox="0 0 989 780" width="989px" zoomAndPan="magnify"><defs/><g><text fill="#000000" font-family="sans-serif" font-size="14" font-weight="bold" lengthAdjust="spacing" textLength="306" x="340" y="32.9951">AbstractBeanFactory#doGetBean&#30340;&#27969;&#31243;</text><rect fill="none" height="721.5674" style="stroke:#000000;stroke-width:1.5;" width="967" x="11" y="48.2969"/><path d="M255,48.2969 L255,57.5938 L245,67.5938 L11,67.5938 " fill="none" style="stroke:#000000;stroke-width:1.5;"/><text fill="#000000" font-family="sans-serif" font-size="14" lengthAdjust="spacing" textLength="234" x="14" y="62.292">AbstractBeanFactory#doGetBean</text><ellipse cx="580.875" cy="87.5938" fill="#222222" rx="10" ry="10" style="stroke:#222222;stroke-width:1.0;"/><rect fill="#F1F1F1" height="47.9375" rx="12.5" ry="12.5" style="stroke:#181818;stroke-width:0.5;" width="306" x="427.875" y="117.5938"/><text fill="#000000" font-family="sans-serif" font-size="12" lengthAdjust="spacing" textLength="84" x="441.875" y="138.7324">&#36716;&#25442;&#20256;&#20837;&#30340;&#21517;&#31216;</text><text fill="#000000" font-family="sans-serif" font-size="12" lengthAdjust="spacing" textLength="286" x="437.875" y="152.7012">AbstractBeanFactory#transformedBeanName</text><rect fill="#F1F1F1" height="47.9375" rx="12.5" ry="12.5" style="stroke:#181818;stroke-width:0.5;" width="296" x="432.875" y="185.5313"/><text fill="#000000" font-family="sans-serif" font-size="12" lengthAdjust="spacing" textLength="128" x="446.875" y="206.6699">&#20174;&#21333;&#20363;&#32531;&#23384;&#20013;&#33719;&#21462;Bean</text><text fill="#000000" font-family="sans-serif" font-size="12" lengthAdjust="spacing" textLength="276" x="442.875" y="220.6387">DefaultSingletonBeanRegistry#getSingleton</text><polygon fill="#F1F1F1" points="505.875,253.4688,655.875,253.4688,667.875,265.4688,655.875,277.4688,505.875,277.4688,493.875,265.4688,505.875,253.4688" style="stroke:#181818;stroke-width:0.5;"/><text fill="#000000" font-family="sans-serif" font-size="11" lengthAdjust="spacing" textLength="150" x="505.875" y="269.2769">&#21333;&#20363;&#32531;&#23384;&#20013;&#26159;&#21542;&#23384;&#22312;&#35813;Bean&#65311;</text><text fill="#000000" font-family="sans-serif" font-size="11" lengthAdjust="spacing" textLength="11" x="482.875" y="262.8745">&#21542;</text><text fill="#000000" font-family="sans-serif" font-size="11" lengthAdjust="spacing" textLength="106" x="667.875" y="262.8745">&#26159;&#65292;&#30452;&#25509;&#36820;&#22238;&#35813;Bean</text><polygon fill="#F1F1F1" points="256.75,287.4688,462.75,287.4688,474.75,300.2734,462.75,313.0781,256.75,313.0781,244.75,300.2734,256.75,287.4688" style="stroke:#181818;stroke-width:0.5;"/><text fill="#000000" font-family="sans-serif" font-size="11" lengthAdjust="spacing" textLength="206" x="256.75" y="297.6792">&#23384;&#22312;&#29238;BeanFactory&#19988;&#24403;&#21069;BeanFactory</text><text fill="#000000" font-family="sans-serif" font-size="11" lengthAdjust="spacing" textLength="137" x="256.75" y="310.4839">&#19981;&#21253;&#21547;&#35813;BeanDefinition&#65311;</text><text fill="#000000" font-family="sans-serif" font-size="11" lengthAdjust="spacing" textLength="11" x="233.75" y="297.6792">&#21542;</text><text fill="#000000" font-family="sans-serif" font-size="11" lengthAdjust="spacing" textLength="11" x="474.75" y="297.6792">&#26159;</text><rect fill="#F1F1F1" height="47.9375" rx="12.5" ry="12.5" style="stroke:#181818;stroke-width:0.5;" width="352" x="32.5" y="323.0781"/><text fill="#000000" font-family="sans-serif" font-size="12" lengthAdjust="spacing" textLength="115" x="46.5" y="344.2168">&#21512;&#24182;BeanDefinition</text><text fill="#000000" font-family="sans-serif" font-size="12" lengthAdjust="spacing" textLength="332" x="42.5" y="358.1855">AbstractBeanFactory#getMergedLocalBeanDefinition</text><rect fill="#F1F1F1" height="33.9688" rx="12.5" ry="12.5" style="stroke:#181818;stroke-width:0.5;" width="84" x="166.5" y="404.9844"/><text fill="#000000" font-family="sans-serif" font-size="12" lengthAdjust="spacing" textLength="60" x="180.5" y="426.123">&#26816;&#26597;&#20381;&#36182;&#39033;</text><rect fill="none" height="96.2344" style="stroke:#000000;stroke-width:1.5;" width="371" x="23" y="449.7549"/><path d="M384,449.7549 L384,459.0518 L374,469.0518 L23,469.0518 " fill="none" style="stroke:#000000;stroke-width:1.5;"/><text fill="#000000" font-family="sans-serif" font-size="14" lengthAdjust="spacing" textLength="351" x="26" y="463.75">AbstractAutowireCapableBeanFactory#createBean</text><rect fill="#F1F1F1" height="47.9375" rx="12.5" ry="12.5" style="stroke:#181818;stroke-width:0.5;" width="296" x="60.5" y="486.0518"/><text fill="#000000" font-family="sans-serif" font-size="12" lengthAdjust="spacing" textLength="128" x="74.5" y="507.1904">&#26681;&#25454;&#20316;&#29992;&#22495;&#26469;&#21019;&#24314;Bean</text><text fill="#000000" font-family="sans-serif" font-size="12" lengthAdjust="spacing" textLength="276" x="70.5" y="521.1592">DefaultSingletonBeanRegistry#getSingleton</text><rect fill="#F1F1F1" height="47.9375" rx="12.5" ry="12.5" style="stroke:#181818;stroke-width:0.5;" width="328" x="44.5" y="565.9893"/><text fill="#000000" font-family="sans-serif" font-size="12" lengthAdjust="spacing" textLength="128" x="58.5" y="587.1279">&#20174;Bean&#23454;&#20363;&#20013;&#33719;&#21462;&#23545;&#35937;</text><text fill="#000000" font-family="sans-serif" font-size="12" lengthAdjust="spacing" textLength="308" x="54.5" y="601.0967">AbstractBeanFactory#getObjectForBeanInstance</text><rect fill="#F1F1F1" height="33.9688" rx="12.5" ry="12.5" style="stroke:#181818;stroke-width:0.5;" width="194" x="414" y="323.0781"/><text fill="#000000" font-family="sans-serif" font-size="12" lengthAdjust="spacing" textLength="170" x="428" y="344.2168">&#20174;&#29238;BeanFactory&#20013;&#33719;&#21462;Bean</text><ellipse cx="511" cy="402.0156" fill="none" rx="11" ry="11" style="stroke:#222222;stroke-width:1.0;"/><ellipse cx="511" cy="402.0156" fill="#222222" rx="6" ry="6" style="stroke:#111111;stroke-width:1.0;"/><rect fill="#F1F1F1" height="47.9375" rx="12.5" ry="12.5" style="stroke:#181818;stroke-width:0.5;" width="328" x="638" y="287.4688"/><text fill="#000000" font-family="sans-serif" font-size="12" lengthAdjust="spacing" textLength="128" x="652" y="308.6074">&#20174;Bean&#23454;&#20363;&#20013;&#33719;&#21462;&#23545;&#35937;</text><text fill="#000000" font-family="sans-serif" font-size="12" lengthAdjust="spacing" textLength="308" x="648" y="322.5762">AbstractBeanFactory#getObjectForBeanInstance</text><polygon fill="#F1F1F1" points="580.875,623.9268,592.875,635.9268,580.875,647.9268,568.875,635.9268,580.875,623.9268" style="stroke:#181818;stroke-width:0.5;"/><rect fill="#F1F1F1" height="47.9375" rx="12.5" ry="12.5" style="stroke:#181818;stroke-width:0.5;" width="284" x="438.875" y="667.9268"/><text fill="#000000" font-family="sans-serif" font-size="12" lengthAdjust="spacing" textLength="116" x="452.875" y="689.0654">&#36866;&#37197;Bean&#23454;&#20363;&#30340;&#31867;&#22411;</text><text fill="#000000" font-family="sans-serif" font-size="12" lengthAdjust="spacing" textLength="264" x="448.875" y="703.0342">AbstractBeanFactory#adaptBeanInstance</text><ellipse cx="580.875" cy="746.8643" fill="none" rx="11" ry="11" style="stroke:#222222;stroke-width:1.0;"/><ellipse cx="580.875" cy="746.8643" fill="#222222" rx="6" ry="6" style="stroke:#111111;stroke-width:1.0;"/><line style="stroke:#181818;stroke-width:1.0;" x1="580.875" x2="580.875" y1="97.5938" y2="117.5938"/><polygon fill="#181818" points="576.875,107.5938,580.875,117.5938,584.875,107.5938,580.875,111.5938" style="stroke:#181818;stroke-width:1.0;"/><line style="stroke:#181818;stroke-width:1.0;" x1="580.875" x2="580.875" y1="165.5313" y2="185.5313"/><polygon fill="#181818" points="576.875,175.5313,580.875,185.5313,584.875,175.5313,580.875,179.5313" style="stroke:#181818;stroke-width:1.0;"/><line style="stroke:#181818;stroke-width:1.0;" x1="208.5" x2="208.5" y1="371.0156" y2="404.9844"/><polygon fill="#181818" points="204.5,394.9844,208.5,404.9844,212.5,394.9844,208.5,398.9844" style="stroke:#181818;stroke-width:1.0;"/><line style="stroke:#181818;stroke-width:1.0;" x1="208.5" x2="208.5" y1="438.9531" y2="486.0518"/><polygon fill="#181818" points="204.5,476.0518,208.5,486.0518,212.5,476.0518,208.5,480.0518" style="stroke:#181818;stroke-width:1.0;"/><line style="stroke:#181818;stroke-width:1.0;" x1="208.5" x2="208.5" y1="533.9893" y2="565.9893"/><polygon fill="#181818" points="204.5,555.9893,208.5,565.9893,212.5,555.9893,208.5,559.9893" style="stroke:#181818;stroke-width:1.0;"/><line style="stroke:#181818;stroke-width:1.0;" x1="511" x2="511" y1="357.0469" y2="391.0156"/><polygon fill="#181818" points="507,381.0156,511,391.0156,515,381.0156,511,385.0156" style="stroke:#181818;stroke-width:1.0;"/><line style="stroke:#181818;stroke-width:1.0;" x1="244.75" x2="208.5" y1="300.2734" y2="300.2734"/><line style="stroke:#181818;stroke-width:1.0;" x1="208.5" x2="208.5" y1="300.2734" y2="323.0781"/><polygon fill="#181818" points="204.5,313.0781,208.5,323.0781,212.5,313.0781,208.5,317.0781" style="stroke:#181818;stroke-width:1.0;"/><line style="stroke:#181818;stroke-width:1.0;" x1="474.75" x2="511" y1="300.2734" y2="300.2734"/><line style="stroke:#181818;stroke-width:1.0;" x1="511" x2="511" y1="300.2734" y2="323.0781"/><polygon fill="#181818" points="507,313.0781,511,323.0781,515,313.0781,511,317.0781" style="stroke:#181818;stroke-width:1.0;"/><line style="stroke:#181818;stroke-width:1.0;" x1="208.5" x2="208.5" y1="613.9268" y2="635.9268"/><line style="stroke:#181818;stroke-width:1.0;" x1="208.5" x2="568.875" y1="635.9268" y2="635.9268"/><polygon fill="#181818" points="558.875,631.9268,568.875,635.9268,558.875,639.9268,562.875,635.9268" style="stroke:#181818;stroke-width:1.0;"/><line style="stroke:#181818;stroke-width:1.0;" x1="493.875" x2="359.75" y1="265.4688" y2="265.4688"/><line style="stroke:#181818;stroke-width:1.0;" x1="359.75" x2="359.75" y1="265.4688" y2="287.4688"/><polygon fill="#181818" points="355.75,277.4688,359.75,287.4688,363.75,277.4688,359.75,281.4688" style="stroke:#181818;stroke-width:1.0;"/><line style="stroke:#181818;stroke-width:1.0;" x1="667.875" x2="802" y1="265.4688" y2="265.4688"/><line style="stroke:#181818;stroke-width:1.0;" x1="802" x2="802" y1="265.4688" y2="287.4688"/><polygon fill="#181818" points="798,277.4688,802,287.4688,806,277.4688,802,281.4688" style="stroke:#181818;stroke-width:1.0;"/><line style="stroke:#181818;stroke-width:1.0;" x1="802" x2="802" y1="335.4063" y2="635.9268"/><line style="stroke:#181818;stroke-width:1.0;" x1="802" x2="592.875" y1="635.9268" y2="635.9268"/><polygon fill="#181818" points="602.875,631.9268,592.875,635.9268,602.875,639.9268,598.875,635.9268" style="stroke:#181818;stroke-width:1.0;"/><line style="stroke:#181818;stroke-width:1.0;" x1="580.875" x2="580.875" y1="233.4688" y2="253.4688"/><polygon fill="#181818" points="576.875,243.4688,580.875,253.4688,584.875,243.4688,580.875,247.4688" style="stroke:#181818;stroke-width:1.0;"/><line style="stroke:#181818;stroke-width:1.0;" x1="580.875" x2="580.875" y1="647.9268" y2="667.9268"/><polygon fill="#181818" points="576.875,657.9268,580.875,667.9268,584.875,657.9268,580.875,661.9268" style="stroke:#181818;stroke-width:1.0;"/><line style="stroke:#181818;stroke-width:1.0;" x1="580.875" x2="580.875" y1="715.8643" y2="735.8643"/><polygon fill="#181818" points="576.875,725.8643,580.875,735.8643,584.875,725.8643,580.875,729.8643" style="stroke:#181818;stroke-width:1.0;"/><!--SRC=[hPDHJzDG5CUVsq_HX1Vs5ROdq61CL19ztSjTUrQlAVSkxLqCRsXSCZCwcp09SR21fhX4O988Rcp3BzFJTazy1MyBZWsdYObFRVuzvtV_v_nl1HKMQ4i5HzX45yj0s8fySdjzmU0F81MY3s_2irTHfwQQDY-N_bwiEeBOGirgyUWeT3y6mtsi-9A0dXjz_ffdyvgbm9mYjzV0IEGdP0roaX0CwkY-3ovhqN0BZtU2td5S_uxljfEQFBiFHLAsn3FAJ0i4Pudw54mgyUiB9jn-oAcqg2tU8OKxNVGEvJlkTkAkdpHV3TiPJJm79ekzmuogf6rfHLGzd_8Rz1eusiAtxfIMPq7FnSqAUbzkSD8VPLHG_ZjOoMheLR5_FbitVpbobCTWcs0yuZgnPZjoAIlyj16s_U1oBpxR7X_q4t4sgAMou2-f3VT8YHGicARhDX2HAjUe_NxedWIZtQZHmNOxtFEnsiJ1nJ-lN5606Lfg8mNBB9DgF6d952P9OhSVdnxySUxLmWlGnGgt4_qXapUBwV9cA60ve2tA23E_s7S3chefYHT7S6b3Eg95TT9yDToCcj_2kX__Q62pTHERHFvVjzUdPhNnnkjnnRt5odyYEXrWgpOVI0nI4hEaT8h9Mdy2]--></g></svg>