<?xml version="1.0" encoding="us-ascii" standalone="no"?><svg xmlns="http://www.w3.org/2000/svg" xmlns:xlink="http://www.w3.org/1999/xlink" contentStyleType="text/css" height="291px" preserveAspectRatio="none" style="width:595px;height:291px;background:#FFFFFF;" version="1.1" viewBox="0 0 595 291" width="595px" zoomAndPan="magnify"><defs/><g><text fill="#000000" font-family="sans-serif" font-size="14" font-weight="bold" lengthAdjust="spacing" textLength="286" x="147.75" y="22.9951">Java Collections Framework-TreeSet</text><!--class Set--><g id="elem_Set"><rect codeLine="2" fill="#F1F1F1" height="48" id="Set" rx="2.5" ry="2.5" style="stroke:#181818;stroke-width:0.5;" width="67" x="7" y="47.2969"/><ellipse cx="22" cy="63.2969" fill="#B4A7E5" rx="11" ry="11" style="stroke:#181818;stroke-width:1.0;"/><path d="M17.9219,59.0625 L17.9219,56.9063 L25.3125,56.9063 L25.3125,59.0625 L22.8438,59.0625 L22.8438,67.1406 L25.3125,67.1406 L25.3125,69.2969 L17.9219,69.2969 L17.9219,67.1406 L20.3906,67.1406 L20.3906,59.0625 L17.9219,59.0625 Z " fill="#000000"/><text fill="#000000" font-family="sans-serif" font-size="14" font-style="italic" lengthAdjust="spacing" textLength="23" x="36" y="68.1436">Set</text><rect fill="#FFFFFF" height="15.9688" style="stroke:#181818;stroke-width:1.0;stroke-dasharray:2.0,2.0;" width="10" x="67" y="44.2969"/><text fill="#000000" font-family="sans-serif" font-size="12" font-style="italic" lengthAdjust="spacing" textLength="8" x="68" y="56.4355">E</text><line style="stroke:#181818;stroke-width:0.5;" x1="8" x2="73" y1="79.2969" y2="79.2969"/><line style="stroke:#181818;stroke-width:0.5;" x1="8" x2="73" y1="87.2969" y2="87.2969"/></g><!--class SortedSet--><g id="elem_SortedSet"><rect codeLine="3" fill="#F1F1F1" height="48" id="SortedSet" rx="2.5" ry="2.5" style="stroke:#181818;stroke-width:0.5;" width="113" x="109" y="47.2969"/><ellipse cx="124" cy="63.2969" fill="#B4A7E5" rx="11" ry="11" style="stroke:#181818;stroke-width:1.0;"/><path d="M119.9219,59.0625 L119.9219,56.9063 L127.3125,56.9063 L127.3125,59.0625 L124.8438,59.0625 L124.8438,67.1406 L127.3125,67.1406 L127.3125,69.2969 L119.9219,69.2969 L119.9219,67.1406 L122.3906,67.1406 L122.3906,59.0625 L119.9219,59.0625 Z " fill="#000000"/><text fill="#000000" font-family="sans-serif" font-size="14" font-style="italic" lengthAdjust="spacing" textLength="69" x="138" y="68.1436">SortedSet</text><rect fill="#FFFFFF" height="15.9688" style="stroke:#181818;stroke-width:1.0;stroke-dasharray:2.0,2.0;" width="10" x="215" y="44.2969"/><text fill="#000000" font-family="sans-serif" font-size="12" font-style="italic" lengthAdjust="spacing" textLength="8" x="216" y="56.4355">E</text><line style="stroke:#181818;stroke-width:0.5;" x1="110" x2="221" y1="79.2969" y2="79.2969"/><line style="stroke:#181818;stroke-width:0.5;" x1="110" x2="221" y1="87.2969" y2="87.2969"/></g><!--class NavigableSet--><g id="elem_NavigableSet"><rect codeLine="4" fill="#F1F1F1" height="48" id="NavigableSet" rx="2.5" ry="2.5" style="stroke:#181818;stroke-width:0.5;" width="133" x="257" y="47.2969"/><ellipse cx="272" cy="63.2969" fill="#B4A7E5" rx="11" ry="11" style="stroke:#181818;stroke-width:1.0;"/><path d="M267.9219,59.0625 L267.9219,56.9063 L275.3125,56.9063 L275.3125,59.0625 L272.8438,59.0625 L272.8438,67.1406 L275.3125,67.1406 L275.3125,69.2969 L267.9219,69.2969 L267.9219,67.1406 L270.3906,67.1406 L270.3906,59.0625 L267.9219,59.0625 Z " fill="#000000"/><text fill="#000000" font-family="sans-serif" font-size="14" font-style="italic" lengthAdjust="spacing" textLength="89" x="286" y="68.1436">NavigableSet</text><rect fill="#FFFFFF" height="15.9688" style="stroke:#181818;stroke-width:1.0;stroke-dasharray:2.0,2.0;" width="10" x="383" y="44.2969"/><text fill="#000000" font-family="sans-serif" font-size="12" font-style="italic" lengthAdjust="spacing" textLength="8" x="384" y="56.4355">E</text><line style="stroke:#181818;stroke-width:0.5;" x1="258" x2="389" y1="79.2969" y2="79.2969"/><line style="stroke:#181818;stroke-width:0.5;" x1="258" x2="389" y1="87.2969" y2="87.2969"/></g><!--class TreeSet--><g id="elem_TreeSet"><rect codeLine="5" fill="#F1F1F1" height="129.4844" id="TreeSet" rx="2.5" ry="2.5" style="stroke:#181818;stroke-width:0.5;" width="220" x="213.5" y="155.2969"/><ellipse cx="291.75" cy="171.2969" fill="#ADD1B2" rx="11" ry="11" style="stroke:#181818;stroke-width:1.0;"/><path d="M294.7188,176.9375 Q294.1406,177.2344 293.5,177.375 Q292.8594,177.5313 292.1563,177.5313 Q289.6563,177.5313 288.3281,175.8906 Q287.0156,174.2344 287.0156,171.1094 Q287.0156,167.9844 288.3281,166.3281 Q289.6563,164.6719 292.1563,164.6719 Q292.8594,164.6719 293.5,164.8281 Q294.1563,164.9844 294.7188,165.2813 L294.7188,168 Q294.0938,167.4219 293.5,167.1563 Q292.9063,166.875 292.2813,166.875 Q290.9375,166.875 290.25,167.9531 Q289.5625,169.0156 289.5625,171.1094 Q289.5625,173.2031 290.25,174.2813 Q290.9375,175.3438 292.2813,175.3438 Q292.9063,175.3438 293.5,175.0781 Q294.0938,174.7969 294.7188,174.2188 L294.7188,176.9375 Z " fill="#000000"/><text fill="#000000" font-family="sans-serif" font-size="14" lengthAdjust="spacing" textLength="55" x="312.25" y="176.1436">TreeSet</text><line style="stroke:#181818;stroke-width:0.5;" x1="214.5" x2="432.5" y1="187.2969" y2="187.2969"/><rect fill="none" height="6" style="stroke:#C82930;stroke-width:1.0;" width="6" x="221.5" y="197.9453"/><text fill="#000000" font-family="sans-serif" font-size="14" lengthAdjust="spacing" textLength="194" x="233.5" y="204.292">NavigableMap&lt;E,Object&gt; m</text><rect fill="none" height="6" style="stroke:#C82930;stroke-width:1.0;" width="6" x="221.5" y="214.2422"/><text fill="#000000" font-family="sans-serif" font-size="14" lengthAdjust="spacing" text-decoration="underline" textLength="114" x="233.5" y="220.5889">Object PRESENT</text><line style="stroke:#181818;stroke-width:0.5;" x1="214.5" x2="432.5" y1="227.8906" y2="227.8906"/><ellipse cx="224.5" cy="241.5391" fill="#84BE84" rx="3" ry="3" style="stroke:#038048;stroke-width:1.0;"/><text fill="#000000" font-family="sans-serif" font-size="14" lengthAdjust="spacing" textLength="105" x="233.5" y="244.8857">add(E) boolean</text><ellipse cx="224.5" cy="257.8359" fill="#84BE84" rx="3" ry="3" style="stroke:#038048;stroke-width:1.0;"/><text fill="#000000" font-family="sans-serif" font-size="14" lengthAdjust="spacing" textLength="138" x="233.5" y="261.1826">contains(E) boolean</text><ellipse cx="224.5" cy="274.1328" fill="#84BE84" rx="3" ry="3" style="stroke:#038048;stroke-width:1.0;"/><text fill="#000000" font-family="sans-serif" font-size="14" lengthAdjust="spacing" textLength="131" x="233.5" y="277.4795">remove(E) boolean</text></g><!--class TreeMap--><g id="elem_TreeMap"><rect codeLine="12" fill="#F1F1F1" height="48" id="TreeMap" rx="2.5" ry="2.5" style="stroke:#181818;stroke-width:0.5;" width="116" x="468.5" y="196.0369"/><ellipse cx="483.5" cy="212.0369" fill="#ADD1B2" rx="11" ry="11" style="stroke:#181818;stroke-width:1.0;"/><path d="M486.4688,217.6775 Q485.8906,217.9744 485.25,218.115 Q484.6094,218.2712 483.9063,218.2712 Q481.4063,218.2712 480.0781,216.6306 Q478.7656,214.9744 478.7656,211.8494 Q478.7656,208.7244 480.0781,207.0681 Q481.4063,205.4119 483.9063,205.4119 Q484.6094,205.4119 485.25,205.5681 Q485.9063,205.7244 486.4688,206.0212 L486.4688,208.74 Q485.8438,208.1619 485.25,207.8962 Q484.6563,207.615 484.0313,207.615 Q482.6875,207.615 482,208.6931 Q481.3125,209.7556 481.3125,211.8494 Q481.3125,213.9431 482,215.0212 Q482.6875,216.0837 484.0313,216.0837 Q484.6563,216.0837 485.25,215.8181 Q485.8438,215.5369 486.4688,214.9587 L486.4688,217.6775 Z " fill="#000000"/><text fill="#000000" font-family="sans-serif" font-size="14" lengthAdjust="spacing" textLength="61" x="497.5" y="216.8836">TreeMap</text><rect fill="#FFFFFF" height="15.9688" style="stroke:#181818;stroke-width:1.0;stroke-dasharray:2.0,2.0;" width="21" x="566.5" y="193.0369"/><text fill="#000000" font-family="sans-serif" font-size="12" font-style="italic" lengthAdjust="spacing" textLength="19" x="567.5" y="205.1755">K,V</text><line style="stroke:#181818;stroke-width:0.5;" x1="469.5" x2="583.5" y1="228.0369" y2="228.0369"/><line style="stroke:#181818;stroke-width:0.5;" x1="469.5" x2="583.5" y1="236.0369" y2="236.0369"/></g><!--reverse link Set to SortedSet--><g id="link_Set_SortedSet"><path codeLine="14" d="M95,71.2969 C99.6,71.2969 104.19,71.2969 108.79,71.2969 " fill="none" id="Set-backto-SortedSet" style="stroke:#181818;stroke-width:1.0;"/><polygon fill="none" points="95.19,78.2969,75.19,71.2969,95.19,64.2969,95.19,78.2969" style="stroke:#181818;stroke-width:1.0;"/></g><!--reverse link SortedSet to NavigableSet--><g id="link_SortedSet_NavigableSet"><path codeLine="15" d="M243.24,71.2969 C247.72,71.2969 252.2,71.2969 256.68,71.2969 " fill="none" id="SortedSet-backto-NavigableSet" style="stroke:#181818;stroke-width:1.0;"/><polygon fill="none" points="243.28,78.2969,223.28,71.2969,243.28,64.2969,243.28,78.2969" style="stroke:#181818;stroke-width:1.0;"/></g><!--reverse link NavigableSet to TreeSet--><g id="link_NavigableSet_TreeSet"><path codeLine="16" d="M323.5,116.3169 C323.5,128.4969 323.5,141.9669 323.5,155.0369 " fill="none" id="NavigableSet-backto-TreeSet" style="stroke:#181818;stroke-width:1.0;stroke-dasharray:7.0,7.0;"/><polygon fill="none" points="316.5,116.5469,323.5,96.5469,330.5,116.5469,316.5,116.5469" style="stroke:#181818;stroke-width:1.0;"/></g><!--reverse link TreeSet to TreeMap--><g id="link_TreeSet_TreeMap"><path codeLine="18" d="M447.71,220.0369 C454.52,220.0369 461.34,220.0369 468.15,220.0369 " fill="none" id="TreeSet-backto-TreeMap" style="stroke:#181818;stroke-width:1.0;"/><polygon fill="#181818" points="434.72,220.0369,440.72,224.0369,446.72,220.0369,440.72,216.0369,434.72,220.0369" style="stroke:#181818;stroke-width:1.0;"/></g><!--SRC=[PO_1JiCm44JFzLViaKASBuXoGUPGH41Dn7tZB9LRnqRsDZsa_VSceYaM7FVDQ6U63Lk23Gu8pzvQqcoyY_0IiAUJ3mVP1AAQM1Z75BvG4qnNeSeK-C3K_SCL3cQ7hQMReYt62BT_C8gL_BMyuNUXilTsFnKeeP-rCJAoqPSV21zRLQkg4QidmAvxK6jelRU4RYRQEqRZuXySgFS3fV2Ij9WpNxFFKeZx091MdijveKZRBtYnYML4Vimddbh5NNkKGIuvLm00]--></g></svg>