<?xml version="1.0" encoding="us-ascii" standalone="no"?><svg xmlns="http://www.w3.org/2000/svg" xmlns:xlink="http://www.w3.org/1999/xlink" contentStyleType="text/css" height="362px" preserveAspectRatio="none" style="width:604px;height:362px;background:#FFFFFF;" version="1.1" viewBox="0 0 604 362" width="604px" zoomAndPan="magnify"><defs/><g><text fill="#000000" font-family="sans-serif" font-size="14" font-weight="bold" lengthAdjust="spacing" textLength="285" x="158" y="32.9951">@Resource&#27880;&#35299;&#23383;&#27573;&#27880;&#20837;&#21644;&#26041;&#27861;&#27880;&#20837;&#30340;&#27969;&#31243;</text><rect fill="none" height="303.1719" style="stroke:#000000;stroke-width:1.5;" width="582" x="11" y="48.2969"/><path d="M194,48.2969 L194,57.5938 L184,67.5938 L11,67.5938 " fill="none" style="stroke:#000000;stroke-width:1.5;"/><text fill="#000000" font-family="sans-serif" font-size="14" lengthAdjust="spacing" textLength="173" x="14" y="62.292">ResourceElement#inject</text><ellipse cx="302" cy="87.5938" fill="#222222" rx="10" ry="10" style="stroke:#222222;stroke-width:1.0;"/><polygon fill="#F1F1F1" points="225,117.5938,379,117.5938,391,129.5938,379,141.5938,225,141.5938,213,129.5938,225,117.5938" style="stroke:#181818;stroke-width:0.5;"/><text fill="#000000" font-family="sans-serif" font-size="11" lengthAdjust="spacing" textLength="154" x="225" y="133.4019">&#24403;&#21069;&#27880;&#20837;&#20803;&#32032;&#26159;&#21542;&#26469;&#28304;&#20110;&#23383;&#27573;&#65311;</text><text fill="#000000" font-family="sans-serif" font-size="11" lengthAdjust="spacing" textLength="11" x="202" y="126.9995">&#26159;</text><text fill="#000000" font-family="sans-serif" font-size="11" lengthAdjust="spacing" textLength="11" x="391" y="126.9995">&#21542;</text><rect fill="#F1F1F1" height="47.9375" rx="12.5" ry="12.5" style="stroke:#181818;stroke-width:0.5;" width="269" x="23" y="151.5938"/><text fill="#000000" font-family="sans-serif" font-size="12" lengthAdjust="spacing" textLength="96" x="37" y="172.7324">&#33719;&#21462;&#35201;&#27880;&#20837;&#30340;&#36164;&#28304;</text><text fill="#000000" font-family="sans-serif" font-size="12" lengthAdjust="spacing" textLength="249" x="33" y="186.7012">ResourceElement#getResourceToInject</text><rect fill="#F1F1F1" height="47.9375" rx="12.5" ry="12.5" style="stroke:#181818;stroke-width:0.5;" width="192" x="61.5" y="219.5313"/><text fill="#000000" font-family="sans-serif" font-size="12" lengthAdjust="spacing" textLength="168" x="75.5" y="240.6699">&#36890;&#36807;&#21453;&#23556;&#35774;&#32622;&#23383;&#27573;&#20540;&#26469;&#27880;&#20837;&#20381;&#36182;</text><text fill="#000000" font-family="sans-serif" font-size="12" lengthAdjust="spacing" textLength="59" x="71.5" y="254.6387">Field#set</text><rect fill="#F1F1F1" height="47.9375" rx="12.5" ry="12.5" style="stroke:#181818;stroke-width:0.5;" width="269" x="312" y="151.5938"/><text fill="#000000" font-family="sans-serif" font-size="12" lengthAdjust="spacing" textLength="96" x="326" y="172.7324">&#33719;&#21462;&#35201;&#27880;&#20837;&#30340;&#36164;&#28304;</text><text fill="#000000" font-family="sans-serif" font-size="12" lengthAdjust="spacing" textLength="249" x="322" y="186.7012">ResourceElement#getResourceToInject</text><rect fill="#F1F1F1" height="47.9375" rx="12.5" ry="12.5" style="stroke:#181818;stroke-width:0.5;" width="180" x="356.5" y="219.5313"/><text fill="#000000" font-family="sans-serif" font-size="12" lengthAdjust="spacing" textLength="156" x="370.5" y="240.6699">&#36890;&#36807;&#21453;&#23556;&#35843;&#29992;&#26041;&#27861;&#26469;&#27880;&#20837;&#20381;&#36182;</text><text fill="#000000" font-family="sans-serif" font-size="12" lengthAdjust="spacing" textLength="97" x="366.5" y="254.6387">Method#invoke</text><polygon fill="#F1F1F1" points="302,273.4688,314,285.4688,302,297.4688,290,285.4688,302,273.4688" style="stroke:#181818;stroke-width:0.5;"/><ellipse cx="302" cy="328.4688" fill="none" rx="11" ry="11" style="stroke:#222222;stroke-width:1.0;"/><ellipse cx="302" cy="328.4688" fill="#222222" rx="6" ry="6" style="stroke:#111111;stroke-width:1.0;"/><line style="stroke:#181818;stroke-width:1.0;" x1="157.5" x2="157.5" y1="199.5313" y2="219.5313"/><polygon fill="#181818" points="153.5,209.5313,157.5,219.5313,161.5,209.5313,157.5,213.5313" style="stroke:#181818;stroke-width:1.0;"/><line style="stroke:#181818;stroke-width:1.0;" x1="446.5" x2="446.5" y1="199.5313" y2="219.5313"/><polygon fill="#181818" points="442.5,209.5313,446.5,219.5313,450.5,209.5313,446.5,213.5313" style="stroke:#181818;stroke-width:1.0;"/><line style="stroke:#181818;stroke-width:1.0;" x1="213" x2="157.5" y1="129.5938" y2="129.5938"/><line style="stroke:#181818;stroke-width:1.0;" x1="157.5" x2="157.5" y1="129.5938" y2="151.5938"/><polygon fill="#181818" points="153.5,141.5938,157.5,151.5938,161.5,141.5938,157.5,145.5938" style="stroke:#181818;stroke-width:1.0;"/><line style="stroke:#181818;stroke-width:1.0;" x1="391" x2="446.5" y1="129.5938" y2="129.5938"/><line style="stroke:#181818;stroke-width:1.0;" x1="446.5" x2="446.5" y1="129.5938" y2="151.5938"/><polygon fill="#181818" points="442.5,141.5938,446.5,151.5938,450.5,141.5938,446.5,145.5938" style="stroke:#181818;stroke-width:1.0;"/><line style="stroke:#181818;stroke-width:1.0;" x1="157.5" x2="157.5" y1="267.4688" y2="285.4688"/><line style="stroke:#181818;stroke-width:1.0;" x1="157.5" x2="290" y1="285.4688" y2="285.4688"/><polygon fill="#181818" points="280,281.4688,290,285.4688,280,289.4688,284,285.4688" style="stroke:#181818;stroke-width:1.0;"/><line style="stroke:#181818;stroke-width:1.0;" x1="446.5" x2="446.5" y1="267.4688" y2="285.4688"/><line style="stroke:#181818;stroke-width:1.0;" x1="446.5" x2="314" y1="285.4688" y2="285.4688"/><polygon fill="#181818" points="324,281.4688,314,285.4688,324,289.4688,320,285.4688" style="stroke:#181818;stroke-width:1.0;"/><line style="stroke:#181818;stroke-width:1.0;" x1="302" x2="302" y1="97.5938" y2="117.5938"/><polygon fill="#181818" points="298,107.5938,302,117.5938,306,107.5938,302,111.5938" style="stroke:#181818;stroke-width:1.0;"/><line style="stroke:#181818;stroke-width:1.0;" x1="302" x2="302" y1="297.4688" y2="317.4688"/><polygon fill="#181818" points="298,307.4688,302,317.4688,306,307.4688,302,311.4688" style="stroke:#181818;stroke-width:1.0;"/><!--SRC=[AyaioKbLS0XABSulBKfEVRPvnOlbYv-kdVvitLOW-sdhqgUJUfvDs_biyrG8z_cibcTR6v-lwEPAByelBL20QNJDISrDpIjHpipBIaqkuIekIImguSfCKz1ukdVoqyvUg5cjpS-tB7WsO_tJ2SkUpLtwRDU49xlw89QztpDVKw4a8pLFGGCehyd5QQNmec_xq_vfBvOrmcr-iRK5g2Sc3ztIzDGIc518lYVO1TOW4rusp7gnl_rfV-_J3IqlrkrxldSTnBAd3Nj0reEDVR9lxekjqsBot39JSrAKYrE1EbDpYbE13f-mZ1REsD3yVCeAQ8YYky4tjIGZFmKOXcNvsQb0T-IbPAO1WpA_0CHK00Su0000]--></g></svg>