<?xml version="1.0" encoding="us-ascii" standalone="no"?><svg xmlns="http://www.w3.org/2000/svg" xmlns:xlink="http://www.w3.org/1999/xlink" contentStyleType="text/css" height="218px" preserveAspectRatio="none" style="width:375px;height:218px;background:#FFFFFF;" version="1.1" viewBox="0 0 375 218" width="375px" zoomAndPan="magnify"><defs/><g><!--class BeanDefinitionRegistry--><g id="elem_BeanDefinitionRegistry"><rect codeLine="1" fill="#F1F1F1" height="64.2969" id="BeanDefinitionRegistry" rx="2.5" ry="2.5" style="stroke:#181818;stroke-width:0.5;" width="339" x="18" y="7"/><ellipse cx="104.75" cy="23" fill="#B4A7E5" rx="11" ry="11" style="stroke:#181818;stroke-width:1.0;"/><path d="M100.6719,18.7656 L100.6719,16.6094 L108.0625,16.6094 L108.0625,18.7656 L105.5938,18.7656 L105.5938,26.8438 L108.0625,26.8438 L108.0625,29 L100.6719,29 L100.6719,26.8438 L103.1406,26.8438 L103.1406,18.7656 L100.6719,18.7656 Z " fill="#000000"/><text fill="#000000" font-family="sans-serif" font-size="14" font-style="italic" lengthAdjust="spacing" textLength="157" x="125.25" y="27.8467">BeanDefinitionRegistry</text><line style="stroke:#181818;stroke-width:0.5;" x1="19" x2="356" y1="39" y2="39"/><line style="stroke:#181818;stroke-width:0.5;" x1="19" x2="356" y1="47" y2="47"/><ellipse cx="29" cy="60.6484" fill="#84BE84" rx="3" ry="3" style="stroke:#038048;stroke-width:1.0;"/><text fill="#000000" font-family="sans-serif" font-size="14" lengthAdjust="spacing" textLength="313" x="38" y="63.9951">registerBeanDefinition(String, BeanDefinition)</text></g><!--class DefaultListableBeanFactory--><g id="elem_DefaultListableBeanFactory"><rect codeLine="5" fill="#F1F1F1" height="80.5938" id="DefaultListableBeanFactory" rx="2.5" ry="2.5" style="stroke:#181818;stroke-width:0.5;" width="361" x="7" y="131.3"/><ellipse cx="89.75" cy="147.3" fill="#ADD1B2" rx="11" ry="11" style="stroke:#181818;stroke-width:1.0;"/><path d="M92.7188,152.9406 Q92.1406,153.2375 91.5,153.3781 Q90.8594,153.5344 90.1563,153.5344 Q87.6563,153.5344 86.3281,151.8937 Q85.0156,150.2375 85.0156,147.1125 Q85.0156,143.9875 86.3281,142.3312 Q87.6563,140.675 90.1563,140.675 Q90.8594,140.675 91.5,140.8312 Q92.1563,140.9875 92.7188,141.2844 L92.7188,144.0031 Q92.0938,143.425 91.5,143.1594 Q90.9063,142.8781 90.2813,142.8781 Q88.9375,142.8781 88.25,143.9562 Q87.5625,145.0187 87.5625,147.1125 Q87.5625,149.2062 88.25,150.2844 Q88.9375,151.3469 90.2813,151.3469 Q90.9063,151.3469 91.5,151.0812 Q92.0938,150.8 92.7188,150.2219 L92.7188,152.9406 Z " fill="#000000"/><text fill="#000000" font-family="sans-serif" font-size="14" lengthAdjust="spacing" textLength="187" x="110.25" y="152.1467">DefaultListableBeanFactory</text><line style="stroke:#181818;stroke-width:0.5;" x1="8" x2="367" y1="163.3" y2="163.3"/><ellipse cx="18" cy="176.9484" fill="none" rx="3" ry="3" style="stroke:#038048;stroke-width:1.0;"/><text fill="#000000" font-family="sans-serif" font-size="14" lengthAdjust="spacing" textLength="335" x="27" y="180.2951">Map&lt;String, BeanDefinition&gt; beanDefinitionMap</text><line style="stroke:#181818;stroke-width:0.5;" x1="8" x2="367" y1="187.5969" y2="187.5969"/><ellipse cx="18" cy="201.2453" fill="#84BE84" rx="3" ry="3" style="stroke:#038048;stroke-width:1.0;"/><text fill="#000000" font-family="sans-serif" font-size="14" lengthAdjust="spacing" textLength="313" x="27" y="204.592">registerBeanDefinition(String, BeanDefinition)</text></g><!--reverse link BeanDefinitionRegistry to DefaultListableBeanFactory--><g id="link_BeanDefinitionRegistry_DefaultListableBeanFactory"><path codeLine="10" d="M187.5,92.32 C187.5,105.18 187.5,118.73 187.5,130.89 " fill="none" id="BeanDefinitionRegistry-backto-DefaultListableBeanFactory" style="stroke:#181818;stroke-width:1.0;stroke-dasharray:7.0,7.0;"/><polygon fill="none" points="180.5,92.72,187.5,72.72,194.5,92.72,180.5,92.72" style="stroke:#181818;stroke-width:1.0;"/></g><!--SRC=[oymhIIrAIqnELN1AJSnpIKtBpCiioSpF2qfDpomkAQfKgERYr5Oe0lDIYr3LQ0IN56NcfUkWQTNagkNYIiv9B2vM00ecbkQK-00r9oRbf8BKkIKcb-J3pFLDBB31ReYTGX8A7wYIF8VWSO9UQO5UZHqEZmC0]--></g></svg>