<?xml version="1.0" encoding="us-ascii" standalone="no"?><svg xmlns="http://www.w3.org/2000/svg" xmlns:xlink="http://www.w3.org/1999/xlink" contentStyleType="text/css" height="235px" preserveAspectRatio="none" style="width:375px;height:235px;background:#FFFFFF;" version="1.1" viewBox="0 0 375 235" width="375px" zoomAndPan="magnify"><defs/><g><!--class BeanDefinitionRegistry--><g id="elem_BeanDefinitionRegistry"><rect codeLine="1" fill="#F1F1F1" height="80.5938" id="BeanDefinitionRegistry" rx="2.5" ry="2.5" style="stroke:#181818;stroke-width:0.5;" width="361" x="7" y="7"/><ellipse cx="104.75" cy="23" fill="#ADD1B2" rx="11" ry="11" style="stroke:#181818;stroke-width:1.0;"/><path d="M107.7188,28.6406 Q107.1406,28.9375 106.5,29.0781 Q105.8594,29.2344 105.1563,29.2344 Q102.6563,29.2344 101.3281,27.5938 Q100.0156,25.9375 100.0156,22.8125 Q100.0156,19.6875 101.3281,18.0313 Q102.6563,16.375 105.1563,16.375 Q105.8594,16.375 106.5,16.5313 Q107.1563,16.6875 107.7188,16.9844 L107.7188,19.7031 Q107.0938,19.125 106.5,18.8594 Q105.9063,18.5781 105.2813,18.5781 Q103.9375,18.5781 103.25,19.6563 Q102.5625,20.7188 102.5625,22.8125 Q102.5625,24.9063 103.25,25.9844 Q103.9375,27.0469 105.2813,27.0469 Q105.9063,27.0469 106.5,26.7813 Q107.0938,26.5 107.7188,25.9219 L107.7188,28.6406 Z " fill="#000000"/><text fill="#000000" font-family="sans-serif" font-size="14" lengthAdjust="spacing" textLength="157" x="125.25" y="27.8467">BeanDefinitionRegistry</text><line style="stroke:#181818;stroke-width:0.5;" x1="8" x2="367" y1="39" y2="39"/><ellipse cx="18" cy="52.6484" fill="none" rx="3" ry="3" style="stroke:#038048;stroke-width:1.0;"/><text fill="#000000" font-family="sans-serif" font-size="14" lengthAdjust="spacing" textLength="335" x="27" y="55.9951">Map&lt;String, BeanDefinition&gt; beanDefinitionMap</text><line style="stroke:#181818;stroke-width:0.5;" x1="8" x2="367" y1="63.2969" y2="63.2969"/><ellipse cx="18" cy="76.9453" fill="#84BE84" rx="3" ry="3" style="stroke:#038048;stroke-width:1.0;"/><text fill="#000000" font-family="sans-serif" font-size="14" lengthAdjust="spacing" textLength="244" x="27" y="80.292">register(String, BeanDefinition) void</text></g><!--class BeanDefinitionReader--><g id="elem_BeanDefinitionReader"><rect codeLine="5" fill="#F1F1F1" height="80.5938" id="BeanDefinitionReader" rx="2.5" ry="2.5" style="stroke:#181818;stroke-width:0.5;" width="343" x="16" y="147.6"/><ellipse cx="107.75" cy="163.6" fill="#ADD1B2" rx="11" ry="11" style="stroke:#181818;stroke-width:1.0;"/><path d="M110.7188,169.2406 Q110.1406,169.5375 109.5,169.6781 Q108.8594,169.8344 108.1563,169.8344 Q105.6563,169.8344 104.3281,168.1938 Q103.0156,166.5375 103.0156,163.4125 Q103.0156,160.2875 104.3281,158.6313 Q105.6563,156.975 108.1563,156.975 Q108.8594,156.975 109.5,157.1313 Q110.1563,157.2875 110.7188,157.5844 L110.7188,160.3031 Q110.0938,159.725 109.5,159.4594 Q108.9063,159.1781 108.2813,159.1781 Q106.9375,159.1781 106.25,160.2563 Q105.5625,161.3188 105.5625,163.4125 Q105.5625,165.5063 106.25,166.5844 Q106.9375,167.6469 108.2813,167.6469 Q108.9063,167.6469 109.5,167.3813 Q110.0938,167.1 110.7188,166.5219 L110.7188,169.2406 Z " fill="#000000"/><text fill="#000000" font-family="sans-serif" font-size="14" lengthAdjust="spacing" textLength="151" x="128.25" y="168.4467">BeanDefinitionReader</text><line style="stroke:#181818;stroke-width:0.5;" x1="17" x2="358" y1="179.6" y2="179.6"/><ellipse cx="27" cy="193.2484" fill="none" rx="3" ry="3" style="stroke:#038048;stroke-width:1.0;"/><text fill="#000000" font-family="sans-serif" font-size="14" lengthAdjust="spacing" textLength="317" x="36" y="196.5951">BeanDefinitionRegistry beanDefinitionRegistry</text><line style="stroke:#181818;stroke-width:0.5;" x1="17" x2="358" y1="203.8969" y2="203.8969"/><ellipse cx="27" cy="217.5453" fill="#84BE84" rx="3" ry="3" style="stroke:#038048;stroke-width:1.0;"/><text fill="#000000" font-family="sans-serif" font-size="14" lengthAdjust="spacing" textLength="209" x="36" y="220.892">loadBeanDefinitions(String) int</text></g><!--link BeanDefinitionRegistry to BeanDefinitionReader--><g id="link_BeanDefinitionRegistry_BeanDefinitionReader"><path codeLine="10" d="M187.5,88.01 C187.5,102.08 187.5,118.14 187.5,133.17 " fill="none" id="BeanDefinitionRegistry-to-BeanDefinitionReader" style="stroke:#181818;stroke-width:1.0;"/><polygon fill="#181818" points="187.5,146.17,191.5,140.17,187.5,134.17,183.5,140.17,187.5,146.17" style="stroke:#181818;stroke-width:1.0;"/></g><!--SRC=[Iyv9B2vMS4fDp7D9JSlCoop9pCyBIatFB2ufgbIevkBKLl1DBB09BYdAp4lNGLDdfv24mWUg16ae0cjFBTB0hajJeIm_CuMhbYiPgzM9AQb548jnE2e9gp18Gqv-OWggfcAe6pGLClDAW5PoORLDIxUqG1U7TG00]--></g></svg>