<?xml version="1.0" encoding="us-ascii" standalone="no"?><svg xmlns="http://www.w3.org/2000/svg" xmlns:xlink="http://www.w3.org/1999/xlink" contentStyleType="text/css" height="376px" preserveAspectRatio="none" style="width:885px;height:376px;background:#FFFFFF;" version="1.1" viewBox="0 0 885 376" width="885px" zoomAndPan="magnify"><defs/><g><!--class Iterable--><g id="elem_Iterable"><rect codeLine="5" fill="#FFFFFF" height="44" id="Iterable" rx="2.5" ry="2.5" style="stroke:#000000;stroke-width:1.0;" width="92" x="241.5" y="15"/><ellipse cx="254.5" cy="29" fill="#FFFFFF" rx="9" ry="9" style="stroke:#000000;stroke-width:1.0;"/><path d="M251.6719,25.5781 L251.6719,23.7969 L257.75,23.7969 L257.75,25.5781 L255.7188,25.5781 L255.7188,32.2188 L257.75,32.2188 L257.75,34 L251.6719,34 L251.6719,32.2188 L253.7031,32.2188 L253.7031,25.5781 L251.6719,25.5781 Z " fill="#000000"/><text fill="#000000" font-family="Consolas" font-size="14" font-style="italic" lengthAdjust="spacing" textLength="51" x="266.5" y="33.8467">Iterable</text><rect fill="#FFFFFF" height="18.2969" style="stroke:#000000;stroke-width:1.0;stroke-dasharray:2.0,2.0;" width="11" x="325.5" y="12"/><text fill="#000000" font-family="Verdana" font-size="14" font-style="italic" lengthAdjust="spacing" textLength="9" x="326.5" y="25.9951">E</text><line style="stroke:#000000;stroke-width:1.0;" x1="242.5" x2="332.5" y1="43" y2="43"/><line style="stroke:#000000;stroke-width:1.0;" x1="242.5" x2="332.5" y1="51" y2="51"/></g><!--class Collection--><g id="elem_Collection"><rect codeLine="6" fill="#FFFFFF" height="44" id="Collection" rx="2.5" ry="2.5" style="stroke:#000000;stroke-width:1.0;" width="109" x="369" y="15"/><ellipse cx="382" cy="29" fill="#FFFFFF" rx="9" ry="9" style="stroke:#000000;stroke-width:1.0;"/><path d="M379.1719,25.5781 L379.1719,23.7969 L385.25,23.7969 L385.25,25.5781 L383.2188,25.5781 L383.2188,32.2188 L385.25,32.2188 L385.25,34 L379.1719,34 L379.1719,32.2188 L381.2031,32.2188 L381.2031,25.5781 L379.1719,25.5781 Z " fill="#000000"/><text fill="#000000" font-family="Consolas" font-size="14" font-style="italic" lengthAdjust="spacing" textLength="68" x="394" y="33.8467">Collection</text><rect fill="#FFFFFF" height="18.2969" style="stroke:#000000;stroke-width:1.0;stroke-dasharray:2.0,2.0;" width="11" x="470" y="12"/><text fill="#000000" font-family="Verdana" font-size="14" font-style="italic" lengthAdjust="spacing" textLength="9" x="471" y="25.9951">E</text><line style="stroke:#000000;stroke-width:1.0;" x1="370" x2="477" y1="43" y2="43"/><line style="stroke:#000000;stroke-width:1.0;" x1="370" x2="477" y1="51" y2="51"/></g><!--class List--><g id="elem_List"><rect codeLine="7" fill="#FFFFFF" height="44" id="List" rx="2.5" ry="2.5" style="stroke:#000000;stroke-width:1.0;" width="64" x="391.5" y="119"/><ellipse cx="404.5" cy="133" fill="#FFFFFF" rx="9" ry="9" style="stroke:#000000;stroke-width:1.0;"/><path d="M401.6719,129.5781 L401.6719,127.7969 L407.75,127.7969 L407.75,129.5781 L405.7188,129.5781 L405.7188,136.2187 L407.75,136.2187 L407.75,138 L401.6719,138 L401.6719,136.2187 L403.7031,136.2187 L403.7031,129.5781 L401.6719,129.5781 Z " fill="#000000"/><text fill="#000000" font-family="Consolas" font-size="14" font-style="italic" lengthAdjust="spacing" textLength="23" x="416.5" y="137.8467">List</text><rect fill="#FFFFFF" height="18.2969" style="stroke:#000000;stroke-width:1.0;stroke-dasharray:2.0,2.0;" width="11" x="447.5" y="116"/><text fill="#000000" font-family="Verdana" font-size="14" font-style="italic" lengthAdjust="spacing" textLength="9" x="448.5" y="129.9951">E</text><line style="stroke:#000000;stroke-width:1.0;" x1="392.5" x2="454.5" y1="147" y2="147"/><line style="stroke:#000000;stroke-width:1.0;" x1="392.5" x2="454.5" y1="155" y2="155"/></g><!--class ArrayList--><g id="elem_ArrayList"><rect codeLine="8" fill="#FFFFFF" height="44" id="ArrayList" rx="2.5" ry="2.5" style="stroke:#000000;stroke-width:1.0;" width="98" x="98.5" y="223"/><ellipse cx="111.5" cy="237" fill="#FFFFFF" rx="9" ry="9" style="stroke:#000000;stroke-width:1.0;"/><path d="M113.8906,241.7031 Q113.4063,241.9531 112.875,242.0781 Q112.3594,242.2031 111.7813,242.2031 Q109.7188,242.2031 108.625,240.8437 Q107.5469,239.4844 107.5469,236.9062 Q107.5469,234.3281 108.625,232.9687 Q109.7188,231.6094 111.7813,231.6094 Q112.3594,231.6094 112.8906,231.7344 Q113.4219,231.8594 113.8906,232.0937 L113.8906,234.3437 Q113.375,233.8594 112.875,233.6406 Q112.3906,233.4219 111.875,233.4219 Q110.7656,233.4219 110.2031,234.2969 Q109.6406,235.1719 109.6406,236.9062 Q109.6406,238.625 110.2031,239.5156 Q110.7656,240.3906 111.875,240.3906 Q112.3906,240.3906 112.875,240.1719 Q113.375,239.9375 113.8906,239.4687 L113.8906,241.7031 Z " fill="#000000"/><text fill="#000000" font-family="Consolas" font-size="14" lengthAdjust="spacing" textLength="57" x="123.5" y="241.8467">ArrayList</text><rect fill="#FFFFFF" height="18.2969" style="stroke:#000000;stroke-width:1.0;stroke-dasharray:2.0,2.0;" width="11" x="188.5" y="220"/><text fill="#000000" font-family="Verdana" font-size="14" font-style="italic" lengthAdjust="spacing" textLength="9" x="189.5" y="233.9951">E</text><line style="stroke:#000000;stroke-width:1.0;" x1="99.5" x2="195.5" y1="251" y2="251"/><line style="stroke:#000000;stroke-width:1.0;" x1="99.5" x2="195.5" y1="259" y2="259"/></g><!--class LinkedList--><g id="elem_LinkedList"><rect codeLine="9" fill="#FFFFFF" height="44" id="LinkedList" rx="2.5" ry="2.5" style="stroke:#000000;stroke-width:1.0;" width="109" x="270" y="223"/><ellipse cx="283" cy="237" fill="#FFFFFF" rx="9" ry="9" style="stroke:#000000;stroke-width:1.0;"/><path d="M285.3906,241.7031 Q284.9063,241.9531 284.375,242.0781 Q283.8594,242.2031 283.2813,242.2031 Q281.2188,242.2031 280.125,240.8437 Q279.0469,239.4844 279.0469,236.9062 Q279.0469,234.3281 280.125,232.9687 Q281.2188,231.6094 283.2813,231.6094 Q283.8594,231.6094 284.3906,231.7344 Q284.9219,231.8594 285.3906,232.0937 L285.3906,234.3437 Q284.875,233.8594 284.375,233.6406 Q283.8906,233.4219 283.375,233.4219 Q282.2656,233.4219 281.7031,234.2969 Q281.1406,235.1719 281.1406,236.9062 Q281.1406,238.625 281.7031,239.5156 Q282.2656,240.3906 283.375,240.3906 Q283.8906,240.3906 284.375,240.1719 Q284.875,239.9375 285.3906,239.4687 L285.3906,241.7031 Z " fill="#000000"/><text fill="#000000" font-family="Consolas" font-size="14" lengthAdjust="spacing" textLength="68" x="295" y="241.8467">LinkedList</text><rect fill="#FFFFFF" height="18.2969" style="stroke:#000000;stroke-width:1.0;stroke-dasharray:2.0,2.0;" width="11" x="371" y="220"/><text fill="#000000" font-family="Verdana" font-size="14" font-style="italic" lengthAdjust="spacing" textLength="9" x="372" y="233.9951">E</text><line style="stroke:#000000;stroke-width:1.0;" x1="271" x2="378" y1="251" y2="251"/><line style="stroke:#000000;stroke-width:1.0;" x1="271" x2="378" y1="259" y2="259"/></g><!--class CopyOnWriteArrayList--><g id="elem_CopyOnWriteArrayList"><rect codeLine="10" fill="#FFFFFF" height="44" id="CopyOnWriteArrayList" rx="2.5" ry="2.5" style="stroke:#000000;stroke-width:1.0;" width="188" x="428.5" y="223"/><ellipse cx="441.5" cy="237" fill="#FFFFFF" rx="9" ry="9" style="stroke:#000000;stroke-width:1.0;"/><path d="M443.8906,241.7031 Q443.4063,241.9531 442.875,242.0781 Q442.3594,242.2031 441.7813,242.2031 Q439.7188,242.2031 438.625,240.8437 Q437.5469,239.4844 437.5469,236.9062 Q437.5469,234.3281 438.625,232.9687 Q439.7188,231.6094 441.7813,231.6094 Q442.3594,231.6094 442.8906,231.7344 Q443.4219,231.8594 443.8906,232.0937 L443.8906,234.3437 Q443.375,233.8594 442.875,233.6406 Q442.3906,233.4219 441.875,233.4219 Q440.7656,233.4219 440.2031,234.2969 Q439.6406,235.1719 439.6406,236.9062 Q439.6406,238.625 440.2031,239.5156 Q440.7656,240.3906 441.875,240.3906 Q442.3906,240.3906 442.875,240.1719 Q443.375,239.9375 443.8906,239.4687 L443.8906,241.7031 Z " fill="#000000"/><text fill="#000000" font-family="Consolas" font-size="14" lengthAdjust="spacing" textLength="147" x="453.5" y="241.8467">CopyOnWriteArrayList</text><rect fill="#FFFFFF" height="18.2969" style="stroke:#000000;stroke-width:1.0;stroke-dasharray:2.0,2.0;" width="11" x="608.5" y="220"/><text fill="#000000" font-family="Verdana" font-size="14" font-style="italic" lengthAdjust="spacing" textLength="9" x="609.5" y="233.9951">E</text><line style="stroke:#000000;stroke-width:1.0;" x1="429.5" x2="615.5" y1="251" y2="251"/><line style="stroke:#000000;stroke-width:1.0;" x1="429.5" x2="615.5" y1="259" y2="259"/></g><!--class Vector--><g id="elem_Vector"><rect codeLine="11" fill="#FFFFFF" height="44" id="Vector" rx="2.5" ry="2.5" style="stroke:#000000;stroke-width:1.0;" width="86" x="581.5" y="119"/><ellipse cx="594.5" cy="133" fill="#FFFFFF" rx="9" ry="9" style="stroke:#000000;stroke-width:1.0;"/><path d="M596.8906,137.7031 Q596.4063,137.9531 595.875,138.0781 Q595.3594,138.2031 594.7813,138.2031 Q592.7188,138.2031 591.625,136.8437 Q590.5469,135.4844 590.5469,132.9062 Q590.5469,130.3281 591.625,128.9687 Q592.7188,127.6094 594.7813,127.6094 Q595.3594,127.6094 595.8906,127.7344 Q596.4219,127.8594 596.8906,128.0937 L596.8906,130.3437 Q596.375,129.8594 595.875,129.6406 Q595.3906,129.4219 594.875,129.4219 Q593.7656,129.4219 593.2031,130.2969 Q592.6406,131.1719 592.6406,132.9062 Q592.6406,134.625 593.2031,135.5156 Q593.7656,136.3906 594.875,136.3906 Q595.3906,136.3906 595.875,136.1719 Q596.375,135.9375 596.8906,135.4687 L596.8906,137.7031 Z " fill="#000000"/><text fill="#000000" font-family="Consolas" font-size="14" lengthAdjust="spacing" textLength="45" x="606.5" y="137.8467">Vector</text><rect fill="#FFFFFF" height="18.2969" style="stroke:#000000;stroke-width:1.0;stroke-dasharray:2.0,2.0;" width="11" x="659.5" y="116"/><text fill="#000000" font-family="Verdana" font-size="14" font-style="italic" lengthAdjust="spacing" textLength="9" x="660.5" y="129.9951">E</text><line style="stroke:#000000;stroke-width:1.0;" x1="582.5" x2="666.5" y1="147" y2="147"/><line style="stroke:#000000;stroke-width:1.0;" x1="582.5" x2="666.5" y1="155" y2="155"/></g><!--class Stack--><g id="elem_Stack"><rect codeLine="12" fill="#FFFFFF" height="44" id="Stack" rx="2.5" ry="2.5" style="stroke:#000000;stroke-width:1.0;" width="79" x="676" y="223"/><ellipse cx="689" cy="237" fill="#FFFFFF" rx="9" ry="9" style="stroke:#000000;stroke-width:1.0;"/><path d="M691.3906,241.7031 Q690.9063,241.9531 690.375,242.0781 Q689.8594,242.2031 689.2813,242.2031 Q687.2188,242.2031 686.125,240.8437 Q685.0469,239.4844 685.0469,236.9062 Q685.0469,234.3281 686.125,232.9687 Q687.2188,231.6094 689.2813,231.6094 Q689.8594,231.6094 690.3906,231.7344 Q690.9219,231.8594 691.3906,232.0937 L691.3906,234.3437 Q690.875,233.8594 690.375,233.6406 Q689.8906,233.4219 689.375,233.4219 Q688.2656,233.4219 687.7031,234.2969 Q687.1406,235.1719 687.1406,236.9062 Q687.1406,238.625 687.7031,239.5156 Q688.2656,240.3906 689.375,240.3906 Q689.8906,240.3906 690.375,240.1719 Q690.875,239.9375 691.3906,239.4687 L691.3906,241.7031 Z " fill="#000000"/><text fill="#000000" font-family="Consolas" font-size="14" lengthAdjust="spacing" textLength="38" x="701" y="241.8467">Stack</text><rect fill="#FFFFFF" height="18.2969" style="stroke:#000000;stroke-width:1.0;stroke-dasharray:2.0,2.0;" width="11" x="747" y="220"/><text fill="#000000" font-family="Verdana" font-size="14" font-style="italic" lengthAdjust="spacing" textLength="9" x="748" y="233.9951">E</text><line style="stroke:#000000;stroke-width:1.0;" x1="677" x2="754" y1="251" y2="251"/><line style="stroke:#000000;stroke-width:1.0;" x1="677" x2="754" y1="259" y2="259"/></g><g id="elem_GMN24"><path d="M11,327 L11,369.5937 A0,0 0 0 0 11,369.5937 L192,369.5937 A0,0 0 0 0 192,369.5937 L192,337 L182,327 L114.93,327 L137.74,267.48 L106.93,327 L11,327 A0,0 0 0 0 11,327 " fill="#FFFFFF" style="stroke:#000000;stroke-width:1.0;"/><path d="M182,327 L182,337 L192,337 L182,327 " fill="#FFFFFF" style="stroke:#000000;stroke-width:1.0;"/><text fill="#000000" font-family="Consolas" font-size="14" lengthAdjust="spacing" textLength="154" x="17" y="344.9951">&#22522;&#20110;&#21160;&#24577;&#25968;&#32452;&#65292;&#33258;&#21160;&#25193;&#23481;</text><text fill="#000000" font-family="Consolas" font-size="14" lengthAdjust="spacing" textLength="160" x="17" y="361.292">&#32447;&#31243;&#19981;&#23433;&#20840;&#30340;&#65288;fast-fail&#65289;</text></g><g id="elem_GMN27"><path d="M227,327 L227,369.5937 A0,0 0 0 0 227,369.5937 L408,369.5937 A0,0 0 0 0 408,369.5937 L408,337 L398,327 L322.93,327 L323.02,267.48 L314.93,327 L227,327 A0,0 0 0 0 227,327 " fill="#FFFFFF" style="stroke:#000000;stroke-width:1.0;"/><path d="M398,327 L398,337 L408,337 L398,327 " fill="#FFFFFF" style="stroke:#000000;stroke-width:1.0;"/><text fill="#000000" font-family="Consolas" font-size="14" lengthAdjust="spacing" textLength="84" x="233" y="344.9951">&#22522;&#20110;&#21452;&#21521;&#38142;&#34920;</text><text fill="#000000" font-family="Consolas" font-size="14" lengthAdjust="spacing" textLength="160" x="233" y="361.292">&#32447;&#31243;&#19981;&#23433;&#20840;&#30340;&#65288;fast-fail&#65289;</text></g><g id="elem_GMN30"><path d="M703,119.7 L703,137 L667.95,141 L703,145 L703,162.2938 A0,0 0 0 0 703,162.2938 L878,162.2938 A0,0 0 0 0 878,162.2938 L878,129.7 L868,119.7 L703,119.7 A0,0 0 0 0 703,119.7 " fill="#FFFFFF" style="stroke:#000000;stroke-width:1.0;"/><path d="M868,119.7 L868,129.7 L878,129.7 L868,119.7 " fill="#FFFFFF" style="stroke:#000000;stroke-width:1.0;"/><text fill="#000000" font-family="Consolas" font-size="14" lengthAdjust="spacing" textLength="154" x="709" y="137.6951">&#22522;&#20110;&#21160;&#24577;&#25968;&#32452;&#65292;&#33258;&#21160;&#25193;&#23481;</text><text fill="#000000" font-family="Consolas" font-size="14" lengthAdjust="spacing" textLength="140" x="709" y="153.992">&#32447;&#31243;&#23433;&#20840;&#30340;&#65288;&#20869;&#32622;&#38145;&#65289;</text></g><g id="elem_GMN33"><path d="M443,335.14 L443,361.4369 A0,0 0 0 0 443,361.4369 L618,361.4369 A0,0 0 0 0 618,361.4369 L618,345.14 L608,335.14 L533.51,335.14 L524.2,267.48 L525.51,335.14 L443,335.14 A0,0 0 0 0 443,335.14 " fill="#FFFFFF" style="stroke:#000000;stroke-width:1.0;"/><path d="M608,335.14 L608,345.14 L618,345.14 L608,335.14 " fill="#FFFFFF" style="stroke:#000000;stroke-width:1.0;"/><text fill="#000000" font-family="Consolas" font-size="14" lengthAdjust="spacing" textLength="154" x="449" y="353.1351">&#32447;&#31243;&#23433;&#20840;&#30340;&#65288;&#20889;&#26102;&#22797;&#21046;&#65289;</text></g><g id="elem_GMN36"><path d="M653,327 L653,369.5937 A0,0 0 0 0 653,369.5937 L814,369.5937 A0,0 0 0 0 814,369.5937 L814,337 L804,327 L733.81,327 L719.32,267.48 L725.81,327 L653,327 A0,0 0 0 0 653,327 " fill="#FFFFFF" style="stroke:#000000;stroke-width:1.0;"/><path d="M804,327 L804,337 L814,337 L804,327 " fill="#FFFFFF" style="stroke:#000000;stroke-width:1.0;"/><text fill="#000000" font-family="Consolas" font-size="14" lengthAdjust="spacing" textLength="73" x="659" y="344.9951">&#32487;&#25215;Vector</text><text fill="#000000" font-family="Consolas" font-size="14" lengthAdjust="spacing" textLength="140" x="659" y="361.292">&#32447;&#31243;&#23433;&#20840;&#30340;&#65288;&#20869;&#32622;&#38145;&#65289;</text></g><!--reverse link Iterable to Collection--><g id="link_Iterable_Collection"><path codeLine="14" d="M354.81,37 C359.41,37 364,37 368.6,37 " fill="none" id="Iterable-backto-Collection" style="stroke:#000000;stroke-width:1.0;"/><polygon fill="none" points="354.98,44,334.98,37,354.98,30,354.98,44" style="stroke:#000000;stroke-width:1.0;"/></g><!--reverse link Collection to List--><g id="link_Collection_List"><path codeLine="15" d="M423.5,79.99 C423.5,93.25 423.5,107.34 423.5,118.54 " fill="none" id="Collection-backto-List" style="stroke:#000000;stroke-width:1.0;"/><polygon fill="none" points="416.5,80.13,423.5,60.13,430.5,80.13,416.5,80.13" style="stroke:#000000;stroke-width:1.0;"/></g><!--reverse link List to ArrayList--><g id="link_List_ArrayList"><path codeLine="16" d="M371.52,161.21 C321.3,179.77 245.79,207.67 196.57,225.86 " fill="none" id="List-backto-ArrayList" style="stroke:#000000;stroke-width:1.0;stroke-dasharray:7.0,7.0;"/><polygon fill="none" points="368.84,154.36,390.03,154,373.69,167.5,368.84,154.36" style="stroke:#000000;stroke-width:1.0;"/></g><!--reverse link List to LinkedList--><g id="link_List_LinkedList"><path codeLine="17" d="M388.79,177.76 C374.28,192.7 357.92,209.57 345.33,222.54 " fill="none" id="List-backto-LinkedList" style="stroke:#000000;stroke-width:1.0;stroke-dasharray:7.0,7.0;"/><polygon fill="none" points="383.03,173.61,401.99,164.13,393.08,183.36,383.03,173.61" style="stroke:#000000;stroke-width:1.0;"/></g><!--reverse link List to CopyOnWriteArrayList--><g id="link_List_CopyOnWriteArrayList"><path codeLine="18" d="M458.21,177.76 C472.72,192.7 489.08,209.57 501.67,222.54 " fill="none" id="List-backto-CopyOnWriteArrayList" style="stroke:#000000;stroke-width:1.0;stroke-dasharray:7.0,7.0;"/><polygon fill="none" points="453.92,183.36,445.01,164.13,463.97,173.61,453.92,183.36" style="stroke:#000000;stroke-width:1.0;"/></g><!--reverse link List to Vector--><g id="link_List_Vector"><path codeLine="19" d="M476.3,141 C511.3,141 546.31,141 581.31,141 " fill="none" id="List-backto-Vector" style="stroke:#000000;stroke-width:1.0;stroke-dasharray:7.0,7.0;"/><polygon fill="none" points="476.69,148,456.69,141,476.69,134,476.69,148" style="stroke:#000000;stroke-width:1.0;"/></g><!--reverse link Vector to Stack--><g id="link_Vector_Stack"><path codeLine="20" d="M657.25,178.71 C670.37,193.41 685.03,209.84 696.36,222.54 " fill="none" id="Vector-backto-Stack" style="stroke:#000000;stroke-width:1.0;"/><polygon fill="none" points="652.45,183.71,644.36,164.13,662.89,174.39,652.45,183.71" style="stroke:#000000;stroke-width:1.0;"/></g><!--SRC=[bP1FIm9168Vlyocc3x12q4b222a8f0v2NRgCwsmEZZEoEnwC3WbPRcb_g8YwH12qTP1EKchvPPnTFVaLscrbTuq5wpRpUsUUztdV1L709GpB5146Z29XPQIZ4XH4KBp6cSYIFGmNboAbFDPGXOgvnGtaSjES6PmY0n0ciAuX5SDrzu1o52-lfY9fcbEALK4ucyqpn11UeheG0wxeEghEHXd2YZW_cwLvkRh9jdKYSCoFBRSFryDxLY2rw5r1A04Lgkod0bVW4Q1IyRBm4GZWC559k2Nl24AXQ1gd5AtxKZ11W-H7QzhJhmB0kC0mnuNW9SYrS1qm2UL3TzWzaoUMVL2pRzwStk6atnmTltg9-IBR7plCwGuSwtJutf9jKzOjvzvzqj2G8HGD4Jhfcx_vaL621kTDUN4vlleQFLf_9kfajo0yu7JAVzX6mVAexdosnzUr6DNO_IPX7EJElkt8fvPiT68u_jRTZxrdsnpullDSlW40]--></g></svg>