<?xml version="1.0" encoding="us-ascii" standalone="no"?><svg xmlns="http://www.w3.org/2000/svg" xmlns:xlink="http://www.w3.org/1999/xlink" contentStyleType="text/css" height="321px" preserveAspectRatio="none" style="width:355px;height:321px;background:#FFFFFF;" version="1.1" viewBox="0 0 355 321" width="355px" zoomAndPan="magnify"><defs/><g><text fill="#000000" font-family="sans-serif" font-size="14" font-weight="bold" lengthAdjust="spacing" textLength="80" x="130.75" y="22.9951">LinkedList</text><!--class List--><g id="elem_List"><rect codeLine="2" fill="#F1F1F1" height="48" id="List" rx="2.5" ry="2.5" style="stroke:#181818;stroke-width:0.5;" width="55" x="121" y="44.2969"/><ellipse cx="136" cy="60.2969" fill="#B4A7E5" rx="11" ry="11" style="stroke:#181818;stroke-width:1.0;"/><path d="M131.9219,56.0625 L131.9219,53.9063 L139.3125,53.9063 L139.3125,56.0625 L136.8438,56.0625 L136.8438,64.1406 L139.3125,64.1406 L139.3125,66.2969 L131.9219,66.2969 L131.9219,64.1406 L134.3906,64.1406 L134.3906,56.0625 L131.9219,56.0625 Z " fill="#000000"/><text fill="#000000" font-family="sans-serif" font-size="14" font-style="italic" lengthAdjust="spacing" textLength="23" x="150" y="65.1436">List</text><line style="stroke:#181818;stroke-width:0.5;" x1="122" x2="175" y1="76.2969" y2="76.2969"/><line style="stroke:#181818;stroke-width:0.5;" x1="122" x2="175" y1="84.2969" y2="84.2969"/></g><!--class Deque--><g id="elem_Deque"><rect codeLine="3" fill="#F1F1F1" height="48" id="Deque" rx="2.5" ry="2.5" style="stroke:#181818;stroke-width:0.5;" width="79" x="7" y="44.2969"/><ellipse cx="22" cy="60.2969" fill="#B4A7E5" rx="11" ry="11" style="stroke:#181818;stroke-width:1.0;"/><path d="M17.9219,56.0625 L17.9219,53.9063 L25.3125,53.9063 L25.3125,56.0625 L22.8438,56.0625 L22.8438,64.1406 L25.3125,64.1406 L25.3125,66.2969 L17.9219,66.2969 L17.9219,64.1406 L20.3906,64.1406 L20.3906,56.0625 L17.9219,56.0625 Z " fill="#000000"/><text fill="#000000" font-family="sans-serif" font-size="14" font-style="italic" lengthAdjust="spacing" textLength="47" x="36" y="65.1436">Deque</text><line style="stroke:#181818;stroke-width:0.5;" x1="8" x2="85" y1="76.2969" y2="76.2969"/><line style="stroke:#181818;stroke-width:0.5;" x1="8" x2="85" y1="84.2969" y2="84.2969"/></g><!--class LinkedList--><g id="elem_LinkedList"><rect codeLine="4" fill="#F1F1F1" height="162.0781" id="LinkedList" rx="2.5" ry="2.5" style="stroke:#181818;stroke-width:0.5;" width="171" x="12" y="152.2969"/><ellipse cx="59.25" cy="168.2969" fill="#ADD1B2" rx="11" ry="11" style="stroke:#181818;stroke-width:1.0;"/><path d="M62.2188,173.9375 Q61.6406,174.2344 61,174.375 Q60.3594,174.5312 59.6563,174.5312 Q57.1563,174.5312 55.8281,172.8906 Q54.5156,171.2344 54.5156,168.1094 Q54.5156,164.9844 55.8281,163.3281 Q57.1563,161.6719 59.6563,161.6719 Q60.3594,161.6719 61,161.8281 Q61.6563,161.9844 62.2188,162.2812 L62.2188,165 Q61.5938,164.4219 61,164.1562 Q60.4063,163.875 59.7813,163.875 Q58.4375,163.875 57.75,164.9531 Q57.0625,166.0156 57.0625,168.1094 Q57.0625,170.2031 57.75,171.2812 Q58.4375,172.3437 59.7813,172.3437 Q60.4063,172.3437 61,172.0781 Q61.5938,171.7969 62.2188,171.2187 L62.2188,173.9375 Z " fill="#000000"/><text fill="#000000" font-family="sans-serif" font-size="14" lengthAdjust="spacing" textLength="68" x="79.75" y="173.1436">LinkedList</text><line style="stroke:#181818;stroke-width:0.5;" x1="13" x2="182" y1="184.2969" y2="184.2969"/><polygon fill="none" points="23,193.9453,19,199.9453,27,199.9453" style="stroke:#1963A0;stroke-width:1.0;"/><text fill="#000000" font-family="sans-serif" font-size="14" lengthAdjust="spacing" textLength="49" x="32" y="201.292">int size</text><polygon fill="none" points="23,210.2422,19,216.2422,27,216.2422" style="stroke:#1963A0;stroke-width:1.0;"/><text fill="#000000" font-family="sans-serif" font-size="14" lengthAdjust="spacing" textLength="99" x="32" y="217.5889">Node&lt;E&gt; first</text><polygon fill="none" points="23,226.5391,19,232.5391,27,232.5391" style="stroke:#1963A0;stroke-width:1.0;"/><text fill="#000000" font-family="sans-serif" font-size="14" lengthAdjust="spacing" textLength="98" x="32" y="233.8857">Node&lt;E&gt; last</text><polygon fill="none" points="23,241.8359,27,245.8359,23,249.8359,19,245.8359" style="stroke:#B38D22;stroke-width:1.0;"/><text fill="#000000" font-family="sans-serif" font-size="14" lengthAdjust="spacing" textLength="94" x="32" y="250.1826">int modCount</text><line style="stroke:#181818;stroke-width:0.5;" x1="13" x2="182" y1="257.4844" y2="257.4844"/><ellipse cx="23" cy="271.1328" fill="#84BE84" rx="3" ry="3" style="stroke:#038048;stroke-width:1.0;"/><text fill="#000000" font-family="sans-serif" font-size="14" lengthAdjust="spacing" textLength="105" x="32" y="274.4795">add(E) boolean</text><ellipse cx="23" cy="287.4297" fill="#84BE84" rx="3" ry="3" style="stroke:#038048;stroke-width:1.0;"/><text fill="#000000" font-family="sans-serif" font-size="14" lengthAdjust="spacing" textLength="63" x="32" y="290.7764">get(int) E</text><ellipse cx="23" cy="303.7266" fill="#84BE84" rx="3" ry="3" style="stroke:#038048;stroke-width:1.0;"/><text fill="#000000" font-family="sans-serif" font-size="14" lengthAdjust="spacing" textLength="145" x="32" y="307.0732">iterator() Iterator&lt;E&gt;</text></g><!--class Node--><g id="elem_Node"><rect codeLine="13" fill="#F1F1F1" height="96.8906" id="Node" rx="2.5" ry="2.5" style="stroke:#181818;stroke-width:0.5;" width="130" x="218.5" y="184.8969"/><ellipse cx="260.95" cy="200.8969" fill="#ADD1B2" rx="11" ry="11" style="stroke:#181818;stroke-width:1.0;"/><path d="M263.9188,206.5375 Q263.3406,206.8344 262.7,206.975 Q262.0594,207.1313 261.3563,207.1313 Q258.8563,207.1313 257.5281,205.4906 Q256.2156,203.8344 256.2156,200.7094 Q256.2156,197.5844 257.5281,195.9281 Q258.8563,194.2719 261.3563,194.2719 Q262.0594,194.2719 262.7,194.4281 Q263.3563,194.5844 263.9188,194.8813 L263.9188,197.6 Q263.2938,197.0219 262.7,196.7563 Q262.1063,196.475 261.4813,196.475 Q260.1375,196.475 259.45,197.5531 Q258.7625,198.6156 258.7625,200.7094 Q258.7625,202.8031 259.45,203.8813 Q260.1375,204.9438 261.4813,204.9438 Q262.1063,204.9438 262.7,204.6781 Q263.2938,204.3969 263.9188,203.8188 L263.9188,206.5375 Z " fill="#000000"/><text fill="#000000" font-family="sans-serif" font-size="14" lengthAdjust="spacing" textLength="37" x="281.05" y="205.7436">Node</text><line style="stroke:#181818;stroke-width:0.5;" x1="219.5" x2="347.5" y1="216.8969" y2="216.8969"/><polygon fill="none" points="229.5,226.5453,225.5,232.5453,233.5,232.5453" style="stroke:#1963A0;stroke-width:1.0;"/><text fill="#000000" font-family="sans-serif" font-size="14" lengthAdjust="spacing" textLength="43" x="238.5" y="233.892">E item</text><polygon fill="none" points="229.5,242.8422,225.5,248.8422,233.5,248.8422" style="stroke:#1963A0;stroke-width:1.0;"/><text fill="#000000" font-family="sans-serif" font-size="14" lengthAdjust="spacing" textLength="104" x="238.5" y="250.1889">Node&lt;E&gt; next</text><polygon fill="none" points="229.5,259.1391,225.5,265.1391,233.5,265.1391" style="stroke:#1963A0;stroke-width:1.0;"/><text fill="#000000" font-family="sans-serif" font-size="14" lengthAdjust="spacing" textLength="104" x="238.5" y="266.4857">Node&lt;E&gt; prev</text><line style="stroke:#181818;stroke-width:0.5;" x1="219.5" x2="347.5" y1="273.7875" y2="273.7875"/></g><!--reverse link List to LinkedList--><g id="link_List_LinkedList"><path codeLine="18" d="M134.95,112.6169 C131.15,124.7669 126.89,138.3769 122.65,151.9369 " fill="none" id="List-backto-LinkedList" style="stroke:#181818;stroke-width:1.0;stroke-dasharray:7.0,7.0;"/><polygon fill="none" points="128.54,110.6569,141.19,93.6569,141.9,114.8369,128.54,110.6569" style="stroke:#181818;stroke-width:1.0;"/></g><!--reverse link Deque to LinkedList--><g id="link_Deque_LinkedList"><path codeLine="19" d="M60.05,112.6169 C63.85,124.7669 68.11,138.3769 72.35,151.9369 " fill="none" id="Deque-backto-LinkedList" style="stroke:#181818;stroke-width:1.0;stroke-dasharray:7.0,7.0;"/><polygon fill="none" points="53.1,114.8369,53.81,93.6569,66.46,110.6569,53.1,114.8369" style="stroke:#181818;stroke-width:1.0;"/></g><!--reverse link LinkedList to Node--><g id="link_LinkedList_Node"><path codeLine="20" d="M197.12,233.3369 C204.11,233.3369 211.1,233.3369 218.09,233.3369 " fill="none" id="LinkedList-backto-Node" style="stroke:#181818;stroke-width:1.0;"/><polygon fill="#181818" points="184.23,233.3369,190.23,237.3369,196.23,233.3369,190.23,229.3369,184.23,233.3369" style="stroke:#181818;stroke-width:1.0;"/></g><!--SRC=[PK_B3e8m43pRhzZ42sZW2mmNxS64-0-LBcOZjjeMOtnzkrlWKE9jPp8pEnCeT0WrcJFgcdmGP0AwLZMHdC4TtdeKJQUyJ_Jm4eili0eyFJ7U1wjn8ojeoR4_8TZ9U3c8BrPlRMyOhq5fdSaSZjPsg4naJXWoLkKW8o9ke89rMGxxwUGuyPcwnFYnXOpII_hIu6DMuUhmpiQaVjcNxsgS-iUEYnDwLRXYoFe1]--></g></svg>