<?xml version="1.0" encoding="us-ascii" standalone="no"?><svg xmlns="http://www.w3.org/2000/svg" xmlns:xlink="http://www.w3.org/1999/xlink" contentStyleType="text/css" height="235px" preserveAspectRatio="none" style="width:1018px;height:235px;background:#FFFFFF;" version="1.1" viewBox="0 0 1018 235" width="1018px" zoomAndPan="magnify"><defs/><g><!--class AnnotatedGenericBeanDefinition--><g id="elem_AnnotatedGenericBeanDefinition"><rect codeLine="1" fill="#F1F1F1" height="80.5938" id="AnnotatedGenericBeanDefinition" rx="2.5" ry="2.5" style="stroke:#181818;stroke-width:0.5;" width="310" x="442" y="147.6"/><ellipse cx="479.95" cy="163.6" fill="#ADD1B2" rx="11" ry="11" style="stroke:#181818;stroke-width:1.0;"/><path d="M482.9188,169.2406 Q482.3406,169.5375 481.7,169.6781 Q481.0594,169.8344 480.3563,169.8344 Q477.8563,169.8344 476.5281,168.1938 Q475.2156,166.5375 475.2156,163.4125 Q475.2156,160.2875 476.5281,158.6313 Q477.8563,156.975 480.3563,156.975 Q481.0594,156.975 481.7,157.1313 Q482.3563,157.2875 482.9188,157.5844 L482.9188,160.3031 Q482.2938,159.725 481.7,159.4594 Q481.1063,159.1781 480.4813,159.1781 Q479.1375,159.1781 478.45,160.2563 Q477.7625,161.3188 477.7625,163.4125 Q477.7625,165.5063 478.45,166.5844 Q479.1375,167.6469 480.4813,167.6469 Q481.1063,167.6469 481.7,167.3813 Q482.2938,167.1 482.9188,166.5219 L482.9188,169.2406 Z " fill="#000000"/><text fill="#000000" font-family="sans-serif" font-size="14" lengthAdjust="spacing" textLength="227" x="499.05" y="168.4467">AnnotatedGenericBeanDefinition</text><line style="stroke:#181818;stroke-width:0.5;" x1="443" x2="751" y1="179.6" y2="179.6"/><rect fill="none" height="6" style="stroke:#C82930;stroke-width:1.0;" width="6" x="450" y="190.2484"/><text fill="#000000" font-family="sans-serif" font-size="14" lengthAdjust="spacing" textLength="208" x="462" y="196.5951">AnnotationMetadata metadata</text><rect fill="none" height="6" style="stroke:#C82930;stroke-width:1.0;" width="6" x="450" y="206.5453"/><text fill="#000000" font-family="sans-serif" font-size="14" lengthAdjust="spacing" textLength="284" x="462" y="212.892">MethodMetadata factoryMethodMetadata</text><line style="stroke:#181818;stroke-width:0.5;" x1="443" x2="751" y1="220.1938" y2="220.1938"/></g><!--class AnnotationMetadata--><g id="elem_AnnotationMetadata"><rect codeLine="5" fill="#F1F1F1" height="80.5938" id="AnnotationMetadata" rx="2.5" ry="2.5" style="stroke:#181818;stroke-width:0.5;" width="400" x="7" y="147.6"/><ellipse cx="133.25" cy="163.6" fill="#B4A7E5" rx="11" ry="11" style="stroke:#181818;stroke-width:1.0;"/><path d="M129.1719,159.3656 L129.1719,157.2094 L136.5625,157.2094 L136.5625,159.3656 L134.0938,159.3656 L134.0938,167.4438 L136.5625,167.4438 L136.5625,169.6 L129.1719,169.6 L129.1719,167.4438 L131.6406,167.4438 L131.6406,159.3656 L129.1719,159.3656 Z " fill="#000000"/><text fill="#000000" font-family="sans-serif" font-size="14" font-style="italic" lengthAdjust="spacing" textLength="139" x="153.75" y="168.4467">AnnotationMetadata</text><line style="stroke:#181818;stroke-width:0.5;" x1="8" x2="406" y1="179.6" y2="179.6"/><line style="stroke:#181818;stroke-width:0.5;" x1="8" x2="406" y1="187.6" y2="187.6"/><ellipse cx="18" cy="201.2484" fill="#84BE84" rx="3" ry="3" style="stroke:#038048;stroke-width:1.0;"/><text fill="#000000" font-family="sans-serif" font-size="14" lengthAdjust="spacing" textLength="374" x="27" y="204.5951">getAnnotatedMethods(String) Set&lt;MethodMetadata&gt;</text><ellipse cx="18" cy="217.5453" fill="#84BE84" rx="3" ry="3" style="stroke:#038048;stroke-width:1.0;"/><text fill="#000000" font-family="sans-serif" font-size="14" lengthAdjust="spacing" text-decoration="underline" textLength="291" x="27" y="220.892">introspect(Class&lt;?&gt;) AnnotationMetadata</text></g><!--class ClassMetadata--><g id="elem_ClassMetadata"><rect codeLine="9" fill="#F1F1F1" height="64.2969" id="ClassMetadata" rx="2.5" ry="2.5" style="stroke:#181818;stroke-width:0.5;" width="180" x="117" y="15.15"/><ellipse cx="153.15" cy="31.15" fill="#B4A7E5" rx="11" ry="11" style="stroke:#181818;stroke-width:1.0;"/><path d="M149.0719,26.9156 L149.0719,24.7594 L156.4625,24.7594 L156.4625,26.9156 L153.9938,26.9156 L153.9938,34.9938 L156.4625,34.9938 L156.4625,37.15 L149.0719,37.15 L149.0719,34.9938 L151.5406,34.9938 L151.5406,26.9156 L149.0719,26.9156 Z " fill="#000000"/><text fill="#000000" font-family="sans-serif" font-size="14" font-style="italic" lengthAdjust="spacing" textLength="101" x="171.85" y="35.9967">ClassMetadata</text><line style="stroke:#181818;stroke-width:0.5;" x1="118" x2="296" y1="47.15" y2="47.15"/><line style="stroke:#181818;stroke-width:0.5;" x1="118" x2="296" y1="55.15" y2="55.15"/><ellipse cx="128" cy="68.7984" fill="#84BE84" rx="3" ry="3" style="stroke:#038048;stroke-width:1.0;"/><text fill="#000000" font-family="sans-serif" font-size="14" lengthAdjust="spacing" textLength="154" x="137" y="72.1451">getClassName() String</text></g><!--class AnnotatedTypeMetadata--><g id="elem_AnnotatedTypeMetadata"><rect codeLine="12" fill="#F1F1F1" height="80.5938" id="AnnotatedTypeMetadata" rx="2.5" ry="2.5" style="stroke:#181818;stroke-width:0.5;" width="282" x="545" y="7"/><ellipse cx="596.75" cy="23" fill="#B4A7E5" rx="11" ry="11" style="stroke:#181818;stroke-width:1.0;"/><path d="M592.6719,18.7656 L592.6719,16.6094 L600.0625,16.6094 L600.0625,18.7656 L597.5938,18.7656 L597.5938,26.8438 L600.0625,26.8438 L600.0625,29 L592.6719,29 L592.6719,26.8438 L595.1406,26.8438 L595.1406,18.7656 L592.6719,18.7656 Z " fill="#000000"/><text fill="#000000" font-family="sans-serif" font-size="14" font-style="italic" lengthAdjust="spacing" textLength="170" x="617.25" y="27.8467">AnnotatedTypeMetadata</text><line style="stroke:#181818;stroke-width:0.5;" x1="546" x2="826" y1="39" y2="39"/><line style="stroke:#181818;stroke-width:0.5;" x1="546" x2="826" y1="47" y2="47"/><ellipse cx="556" cy="60.6484" fill="#84BE84" rx="3" ry="3" style="stroke:#038048;stroke-width:1.0;"/><text fill="#000000" font-family="sans-serif" font-size="14" lengthAdjust="spacing" textLength="256" x="565" y="63.9951">getAnnotations() MergedAnnotations</text><ellipse cx="556" cy="76.9453" fill="#84BE84" rx="3" ry="3" style="stroke:#038048;stroke-width:1.0;"/><text fill="#000000" font-family="sans-serif" font-size="14" lengthAdjust="spacing" textLength="193" x="565" y="80.292">isAnnotated(String) boolean</text></g><!--class MethodMetadata--><g id="elem_MethodMetadata"><rect codeLine="16" fill="#F1F1F1" height="80.5938" id="MethodMetadata" rx="2.5" ry="2.5" style="stroke:#181818;stroke-width:0.5;" width="224" x="787" y="147.6"/><ellipse cx="836.25" cy="163.6" fill="#B4A7E5" rx="11" ry="11" style="stroke:#181818;stroke-width:1.0;"/><path d="M832.1719,159.3656 L832.1719,157.2094 L839.5625,157.2094 L839.5625,159.3656 L837.0938,159.3656 L837.0938,167.4438 L839.5625,167.4438 L839.5625,169.6 L832.1719,169.6 L832.1719,167.4438 L834.6406,167.4438 L834.6406,159.3656 L832.1719,159.3656 Z " fill="#000000"/><text fill="#000000" font-family="sans-serif" font-size="14" font-style="italic" lengthAdjust="spacing" textLength="117" x="856.75" y="168.4467">MethodMetadata</text><line style="stroke:#181818;stroke-width:0.5;" x1="788" x2="1010" y1="179.6" y2="179.6"/><line style="stroke:#181818;stroke-width:0.5;" x1="788" x2="1010" y1="187.6" y2="187.6"/><ellipse cx="798" cy="201.2484" fill="#84BE84" rx="3" ry="3" style="stroke:#038048;stroke-width:1.0;"/><text fill="#000000" font-family="sans-serif" font-size="14" lengthAdjust="spacing" textLength="170" x="807" y="204.5951">getMethodName() String</text><ellipse cx="798" cy="217.5453" fill="#84BE84" rx="3" ry="3" style="stroke:#038048;stroke-width:1.0;"/><text fill="#000000" font-family="sans-serif" font-size="14" lengthAdjust="spacing" textLength="198" x="807" y="220.892">getReturnTypeName() String</text></g><!--reverse link AnnotatedTypeMetadata to MethodMetadata--><g id="link_AnnotatedTypeMetadata_MethodMetadata"><path codeLine="20" d="M764.64,99.47 C788.84,115.22 815.11,132.31 837.95,147.17 " fill="none" id="AnnotatedTypeMetadata-backto-MethodMetadata" style="stroke:#181818;stroke-width:1.0;"/><polygon fill="none" points="760.98,104.79,748.04,88.01,768.62,93.06,760.98,104.79" style="stroke:#181818;stroke-width:1.0;"/></g><!--reverse link ClassMetadata to AnnotationMetadata--><g id="link_ClassMetadata_AnnotationMetadata"><path codeLine="21" d="M207,100.71 C207,116.1 207,132.66 207,147.12 " fill="none" id="ClassMetadata-backto-AnnotationMetadata" style="stroke:#181818;stroke-width:1.0;"/><polygon fill="none" points="200,100.75,207,80.75,214,100.75,200,100.75" style="stroke:#181818;stroke-width:1.0;"/></g><!--reverse link AnnotatedTypeMetadata to AnnotationMetadata--><g id="link_AnnotatedTypeMetadata_AnnotationMetadata"><path codeLine="22" d="M528.85,93.77 C469.25,111.01 401.91,130.5 344.28,147.17 " fill="none" id="AnnotatedTypeMetadata-backto-AnnotationMetadata" style="stroke:#181818;stroke-width:1.0;"/><polygon fill="none" points="526.58,86.85,547.74,88.01,530.47,100.3,526.58,86.85" style="stroke:#181818;stroke-width:1.0;"/></g><!--link AnnotationMetadata to AnnotatedGenericBeanDefinition--><g id="link_AnnotationMetadata_AnnotatedGenericBeanDefinition"><path codeLine="23" d="M407.33,187.89 C414.15,187.89 420.97,187.89 427.79,187.89 " fill="none" id="AnnotationMetadata-to-AnnotatedGenericBeanDefinition" style="stroke:#181818;stroke-width:1.0;"/><polygon fill="#181818" points="440.78,187.89,434.78,183.89,428.78,187.89,434.78,191.89,440.78,187.89" style="stroke:#181818;stroke-width:1.0;"/></g><!--reverse link AnnotatedGenericBeanDefinition to MethodMetadata--><g id="link_AnnotatedGenericBeanDefinition_MethodMetadata"><path codeLine="24" d="M766.38,187.89 C773.18,187.89 779.98,187.89 786.78,187.89 " fill="none" id="AnnotatedGenericBeanDefinition-backto-MethodMetadata" style="stroke:#181818;stroke-width:1.0;"/><polygon fill="#181818" points="753.42,187.89,759.42,191.89,765.42,187.89,759.42,183.89,753.42,187.89" style="stroke:#181818;stroke-width:1.0;"/></g><!--SRC=[XL91Zi8m33nlNv5ZOTKVe29W9Kvm03uG4bCY5QTAp041VyTfeTfq0tjhnkEPiMjLI-_53D6I9D1BG716pK7Y3nmC6Z8MnJNxAbuSVg-0f9OanUdv4SeC7gtkImUfoBfBZ6Rtp221uoAazDZdMrH0VPoktUTRSWQhaTW2JMB9ChHSVH1ITy7gple65EMBCDXaMeuIHb6EblWdGekkvGboTctTK-51xouDlClFZfxRL-0gqB-mm3A-b-YdsrjRy-8Zey5QNmuT7EVhAXkWiyCGQvX-85MSc-9MfYV94Z_doO_MzO7tKVVTeOsBEdLe_xUvuG4-0000]--></g></svg>