<?xml version="1.0" encoding="us-ascii" standalone="no"?><svg xmlns="http://www.w3.org/2000/svg" xmlns:xlink="http://www.w3.org/1999/xlink" contentStyleType="text/css" height="236px" preserveAspectRatio="none" style="width:814px;height:236px;background:#FFFFFF;" version="1.1" viewBox="0 0 814 236" width="814px" zoomAndPan="magnify"><defs/><g><text fill="#000000" font-family="Consolas" font-size="14" font-weight="bold" lengthAdjust="spacing" textLength="182" x="311.75" y="27.9951">&#33719;&#21462;&#20505;&#36873;&#30340;&#33258;&#21160;&#37197;&#32622;&#28041;&#21450;&#30340;&#31867;</text><!--class AutoConfigurationImportSelector--><g id="elem_AutoConfigurationImportSelector"><rect codeLine="6" fill="#FFFFFF" height="60.2969" id="AutoConfigurationImportSelector" rx="2.5" ry="2.5" style="stroke:#000000;stroke-width:1.0;" width="607" x="121.5" y="49.2969"/><ellipse cx="308.75" cy="63.2969" fill="#FFFFFF" rx="9" ry="9" style="stroke:#000000;stroke-width:1.0;"/><path d="M311.1406,68 Q310.6563,68.25 310.125,68.375 Q309.6094,68.5 309.0313,68.5 Q306.9688,68.5 305.875,67.1406 Q304.7969,65.7813 304.7969,63.2031 Q304.7969,60.625 305.875,59.2656 Q306.9688,57.9063 309.0313,57.9063 Q309.6094,57.9063 310.1406,58.0313 Q310.6719,58.1563 311.1406,58.3906 L311.1406,60.6406 Q310.625,60.1563 310.125,59.9375 Q309.6406,59.7188 309.125,59.7188 Q308.0156,59.7188 307.4531,60.5938 Q306.8906,61.4688 306.8906,63.2031 Q306.8906,64.9219 307.4531,65.8125 Q308.0156,66.6875 309.125,66.6875 Q309.6406,66.6875 310.125,66.4688 Q310.625,66.2344 311.1406,65.7656 L311.1406,68 Z " fill="#000000"/><text fill="#000000" font-family="Consolas" font-size="14" lengthAdjust="spacing" textLength="225" x="326.25" y="68.1436">AutoConfigurationImportSelector</text><line style="stroke:#000000;stroke-width:1.0;" x1="122.5" x2="727.5" y1="77.2969" y2="77.2969"/><line style="stroke:#000000;stroke-width:1.0;" x1="122.5" x2="727.5" y1="85.2969" y2="85.2969"/><polygon fill="#FFFFFF" points="132.5,94.9453,128.5,100.9453,136.5,100.9453" style="stroke:#000000;stroke-width:1.0;"/><text fill="#000000" font-family="Consolas" font-size="14" lengthAdjust="spacing" textLength="583" x="139.5" y="102.292">getCandidateConfigurations(AnnotationMetadata, AnnotationAttributes) List&lt;String&gt;</text></g><!--class SpringFactoriesLoader--><g id="elem_SpringFactoriesLoader"><rect codeLine="9" fill="#FFFFFF" height="60.2969" id="SpringFactoriesLoader" rx="2.5" ry="2.5" style="stroke:#000000;stroke-width:1.0;" width="412" x="12" y="169.5869"/><ellipse cx="137.25" cy="183.5869" fill="#FFFFFF" rx="9" ry="9" style="stroke:#000000;stroke-width:1.0;"/><path d="M139.6406,188.29 Q139.1563,188.54 138.625,188.665 Q138.1094,188.79 137.5313,188.79 Q135.4688,188.79 134.375,187.4306 Q133.2969,186.0713 133.2969,183.4931 Q133.2969,180.915 134.375,179.5556 Q135.4688,178.1963 137.5313,178.1963 Q138.1094,178.1963 138.6406,178.3213 Q139.1719,178.4463 139.6406,178.6806 L139.6406,180.9306 Q139.125,180.4463 138.625,180.2275 Q138.1406,180.0088 137.625,180.0088 Q136.5156,180.0088 135.9531,180.8838 Q135.3906,181.7588 135.3906,183.4931 Q135.3906,185.2119 135.9531,186.1025 Q136.5156,186.9775 137.625,186.9775 Q138.1406,186.9775 138.625,186.7588 Q139.125,186.5244 139.6406,186.0556 L139.6406,188.29 Z " fill="#000000"/><text fill="#000000" font-family="Consolas" font-size="14" lengthAdjust="spacing" textLength="154" x="154.75" y="188.4336">SpringFactoriesLoader</text><line style="stroke:#000000;stroke-width:1.0;" x1="13" x2="423" y1="197.5869" y2="197.5869"/><line style="stroke:#000000;stroke-width:1.0;" x1="13" x2="423" y1="205.5869" y2="205.5869"/><ellipse cx="23" cy="219.2353" fill="#FFFFFF" rx="3" ry="3" style="stroke:#000000;stroke-width:1.0;"/><text fill="#000000" font-family="Consolas" font-size="14" lengthAdjust="spacing" text-decoration="underline" textLength="388" x="30" y="222.582">loadFactoryNames(Class&lt;?&gt;, ClassLoader) List&lt;String&gt;</text></g><!--class ImportCandidates--><g id="elem_ImportCandidates"><rect codeLine="12" fill="#FFFFFF" height="60.2969" id="ImportCandidates" rx="2.5" ry="2.5" style="stroke:#000000;stroke-width:1.0;" width="349" x="458.5" y="169.5869"/><ellipse cx="568.25" cy="183.5869" fill="#FFFFFF" rx="9" ry="9" style="stroke:#000000;stroke-width:1.0;"/><path d="M570.6406,188.29 Q570.1563,188.54 569.625,188.665 Q569.1094,188.79 568.5313,188.79 Q566.4688,188.79 565.375,187.4306 Q564.2969,186.0713 564.2969,183.4931 Q564.2969,180.915 565.375,179.5556 Q566.4688,178.1963 568.5313,178.1963 Q569.1094,178.1963 569.6406,178.3213 Q570.1719,178.4463 570.6406,178.6806 L570.6406,180.9306 Q570.125,180.4463 569.625,180.2275 Q569.1406,180.0088 568.625,180.0088 Q567.5156,180.0088 566.9531,180.8838 Q566.3906,181.7588 566.3906,183.4931 Q566.3906,185.2119 566.9531,186.1025 Q567.5156,186.9775 568.625,186.9775 Q569.1406,186.9775 569.625,186.7588 Q570.125,186.5244 570.6406,186.0556 L570.6406,188.29 Z " fill="#000000"/><text fill="#000000" font-family="Consolas" font-size="14" lengthAdjust="spacing" textLength="122" x="585.75" y="188.4336">ImportCandidates</text><line style="stroke:#000000;stroke-width:1.0;" x1="459.5" x2="806.5" y1="197.5869" y2="197.5869"/><line style="stroke:#000000;stroke-width:1.0;" x1="459.5" x2="806.5" y1="205.5869" y2="205.5869"/><ellipse cx="469.5" cy="219.2353" fill="#FFFFFF" rx="3" ry="3" style="stroke:#000000;stroke-width:1.0;"/><text fill="#000000" font-family="Consolas" font-size="14" lengthAdjust="spacing" text-decoration="underline" textLength="325" x="476.5" y="222.582">load(Class&lt;?&gt;, ClassLoader) ImportCandidates</text></g><!--link AutoConfigurationImportSelector to SpringFactoriesLoader--><g id="link_AutoConfigurationImportSelector_SpringFactoriesLoader"><path codeLine="15" d="M373.3,109.9869 C343.29,127.1369 305.45,148.7569 274.64,166.3669 " fill="none" id="AutoConfigurationImportSelector-to-SpringFactoriesLoader" style="stroke:#000000;stroke-width:1.0;stroke-dasharray:7.0,7.0;"/><polygon fill="#000000" points="270.76,169.1569,280.558,168.1577,275.0995,166.6731,276.584,161.2145,270.76,169.1569" style="stroke:#000000;stroke-width:1.0;"/></g><!--link AutoConfigurationImportSelector to ImportCandidates--><g id="link_AutoConfigurationImportSelector_ImportCandidates"><path codeLine="16" d="M476.95,109.9869 C507.1,127.1369 545.12,148.7569 576.08,166.3669 " fill="none" id="AutoConfigurationImportSelector-to-ImportCandidates" style="stroke:#000000;stroke-width:1.0;stroke-dasharray:7.0,7.0;"/><polygon fill="#000000" points="579.99,169.1569,574.1463,161.229,575.6444,166.6839,570.1895,168.182,579.99,169.1569" style="stroke:#000000;stroke-width:1.0;"/></g><!--SRC=[ZP3DIiD058NNvYckkugb8BWiaH8e2DLDdk2QtCR1oKp8t2oqLBfGf0NjJj0d41U26rs8ZnFJleMJHFmfBNLt_yvtvimc7rDCa4WKoZ4dGYMOOWmiM59NA_R56S7ExgzLI7tC9AzT7gBbUbePBT4u5H1cDw_vz3OVtSr7u-B-OdRrc4yUvfVNnVlJnyiudqxii7X-Sm8hCT39M5j0NqHPYYoqseyJdR9FaWBMAGoSZNE8Y3rKeGYHwS-nQNIKqbpL1yHe3x09FxCESogECYQp1JrXkEtRNaMkC_oozvEoxsBf9SZqD8PKcMx3m9ICO0ZI3kkBqpAlQNYbjBtdDg6gQj4AWphEz-lD4lOgtgBKCjVzLglbBe_qB-MYuIS0]--></g></svg>