<?xml version="1.0" encoding="us-ascii" standalone="no"?><svg xmlns="http://www.w3.org/2000/svg" xmlns:xlink="http://www.w3.org/1999/xlink" contentStyleType="text/css" height="368px" preserveAspectRatio="none" style="width:738px;height:368px;background:#FFFFFF;" version="1.1" viewBox="0 0 738 368" width="738px" zoomAndPan="magnify"><defs/><g><!--class TransactionAttributeSource--><g id="elem_TransactionAttributeSource"><rect codeLine="5" fill="#FFFFFF" height="76.5938" id="TransactionAttributeSource" rx="2.5" ry="2.5" style="stroke:#000000;stroke-width:1.0;" width="470" x="33.5" y="12"/><ellipse cx="170.25" cy="26" fill="#FFFFFF" rx="9" ry="9" style="stroke:#000000;stroke-width:1.0;"/><path d="M167.4219,22.5781 L167.4219,20.7969 L173.5,20.7969 L173.5,22.5781 L171.4688,22.5781 L171.4688,29.2188 L173.5,29.2188 L173.5,31 L167.4219,31 L167.4219,29.2188 L169.4531,29.2188 L169.4531,22.5781 L167.4219,22.5781 Z " fill="#000000"/><text fill="#000000" font-family="Consolas" font-size="14" font-style="italic" lengthAdjust="spacing" textLength="189" x="187.75" y="30.8467">TransactionAttributeSource</text><line style="stroke:#000000;stroke-width:1.0;" x1="34.5" x2="502.5" y1="40" y2="40"/><line style="stroke:#000000;stroke-width:1.0;" x1="34.5" x2="502.5" y1="48" y2="48"/><ellipse cx="44.5" cy="61.6484" fill="#FFFFFF" rx="3" ry="3" style="stroke:#000000;stroke-width:1.0;"/><text fill="#000000" font-family="Consolas" font-size="14" lengthAdjust="spacing" textLength="256" x="51.5" y="64.9951">isCandidateClass(Class&lt;?&gt;) boolean</text><ellipse cx="44.5" cy="77.9453" fill="#FFFFFF" rx="3" ry="3" style="stroke:#000000;stroke-width:1.0;"/><text fill="#000000" font-family="Consolas" font-size="14" lengthAdjust="spacing" textLength="446" x="51.5" y="81.292">getTransactionAttribute(Method, Class&lt;?&gt;) TransactionAttribute</text></g><!--class AbstractFallbackTransactionAttributeSource--><g id="elem_AbstractFallbackTransactionAttributeSource"><rect codeLine="9" fill="#FFFFFF" height="92.8906" id="AbstractFallbackTransactionAttributeSource" rx="2.5" ry="2.5" style="stroke:#000000;stroke-width:1.0;" width="509" x="14" y="148.59"/><ellipse cx="114.25" cy="162.59" fill="#FFFFFF" rx="9" ry="9" style="stroke:#000000;stroke-width:1.0;"/><path d="M113.9688,158.7306 L113.0156,162.9025 L114.9219,162.9025 L113.9688,158.7306 Z M112.7344,156.8869 L115.2031,156.8869 L117.9531,167.09 L115.9375,167.09 L115.3125,164.5744 L112.6094,164.5744 L112,167.09 L109.9688,167.09 L112.7344,156.8869 Z " fill="#000000"/><text fill="#000000" font-family="Consolas" font-size="14" font-style="italic" lengthAdjust="spacing" textLength="301" x="131.75" y="167.4367">AbstractFallbackTransactionAttributeSource</text><line style="stroke:#000000;stroke-width:1.0;" x1="15" x2="522" y1="176.59" y2="176.59"/><line style="stroke:#000000;stroke-width:1.0;" x1="15" x2="522" y1="184.59" y2="184.59"/><polygon fill="#FFFFFF" points="25,194.2384,21,200.2384,29,200.2384" style="stroke:#000000;stroke-width:1.0;"/><text fill="#000000" font-family="Consolas" font-size="14" lengthAdjust="spacing" textLength="485" x="32" y="201.5851">computeTransactionAttribute(Method, Class&lt;?&gt;) TransactionAttribute</text><polygon fill="#FFFFFF" points="25,210.5353,21,216.5353,29,216.5353" style="stroke:#000000;stroke-width:1.0;"/><text fill="#000000" font-family="Consolas" font-size="14" font-style="italic" lengthAdjust="spacing" textLength="372" x="32" y="217.882">findTransactionAttribute(Method) TransactionAttribute</text><polygon fill="#FFFFFF" points="25,226.8322,21,232.8322,29,232.8322" style="stroke:#000000;stroke-width:1.0;"/><text fill="#000000" font-family="Consolas" font-size="14" font-style="italic" lengthAdjust="spacing" textLength="387" x="32" y="234.1789">findTransactionAttribute(Class&lt;?&gt;) TransactionAttribute</text></g><!--class AnnotationTransactionAttributeSource--><g id="elem_AnnotationTransactionAttributeSource"><rect codeLine="14" fill="#FFFFFF" height="60.2969" id="AnnotationTransactionAttributeSource" rx="2.5" ry="2.5" style="stroke:#000000;stroke-width:1.0;" width="401" x="68" y="301.48"/><ellipse cx="132.75" cy="315.48" fill="#FFFFFF" rx="9" ry="9" style="stroke:#000000;stroke-width:1.0;"/><path d="M135.1406,320.1831 Q134.6563,320.4331 134.125,320.5581 Q133.6094,320.6831 133.0313,320.6831 Q130.9688,320.6831 129.875,319.3237 Q128.7969,317.9644 128.7969,315.3862 Q128.7969,312.8081 129.875,311.4487 Q130.9688,310.0894 133.0313,310.0894 Q133.6094,310.0894 134.1406,310.2144 Q134.6719,310.3394 135.1406,310.5737 L135.1406,312.8237 Q134.625,312.3394 134.125,312.1206 Q133.6406,311.9019 133.125,311.9019 Q132.0156,311.9019 131.4531,312.7769 Q130.8906,313.6519 130.8906,315.3862 Q130.8906,317.105 131.4531,317.9956 Q132.0156,318.8706 133.125,318.8706 Q133.6406,318.8706 134.125,318.6519 Q134.625,318.4175 135.1406,317.9487 L135.1406,320.1831 Z " fill="#000000"/><text fill="#000000" font-family="Consolas" font-size="14" lengthAdjust="spacing" textLength="264" x="150.25" y="320.3267">AnnotationTransactionAttributeSource</text><line style="stroke:#000000;stroke-width:1.0;" x1="69" x2="468" y1="329.48" y2="329.48"/><rect fill="none" height="6" style="stroke:#000000;stroke-width:1.0;" width="6" x="76" y="340.1284"/><text fill="#000000" font-family="Consolas" font-size="14" lengthAdjust="spacing" textLength="377" x="86" y="346.4751">Set&lt;TransactionAnnotationParser&gt; annotationParsers</text><line style="stroke:#000000;stroke-width:1.0;" x1="69" x2="468" y1="353.7769" y2="353.7769"/></g><!--class TransactionAnnotationParser--><g id="elem_TransactionAnnotationParser"><rect fill="#FFFFFF" height="44" id="TransactionAnnotationParser" rx="2.5" ry="2.5" style="stroke:#000000;stroke-width:1.0;" width="228" x="503.5" y="309.63"/><ellipse cx="516.5" cy="323.63" fill="#FFFFFF" rx="9" ry="9" style="stroke:#000000;stroke-width:1.0;"/><path d="M518.8906,328.3331 Q518.4063,328.5831 517.875,328.7081 Q517.3594,328.8331 516.7813,328.8331 Q514.7188,328.8331 513.625,327.4738 Q512.5469,326.1144 512.5469,323.5363 Q512.5469,320.9581 513.625,319.5988 Q514.7188,318.2394 516.7813,318.2394 Q517.3594,318.2394 517.8906,318.3644 Q518.4219,318.4894 518.8906,318.7238 L518.8906,320.9738 Q518.375,320.4894 517.875,320.2706 Q517.3906,320.0519 516.875,320.0519 Q515.7656,320.0519 515.2031,320.9269 Q514.6406,321.8019 514.6406,323.5363 Q514.6406,325.255 515.2031,326.1456 Q515.7656,327.0206 516.875,327.0206 Q517.3906,327.0206 517.875,326.8019 Q518.375,326.5675 518.8906,326.0988 L518.8906,328.3331 Z " fill="#000000"/><text fill="#000000" font-family="Consolas" font-size="14" lengthAdjust="spacing" textLength="200" x="528.5" y="328.4767">TransactionAnnotationParser</text><line style="stroke:#000000;stroke-width:1.0;" x1="504.5" x2="730.5" y1="337.63" y2="337.63"/><line style="stroke:#000000;stroke-width:1.0;" x1="504.5" x2="730.5" y1="345.63" y2="345.63"/></g><!--reverse link TransactionAttributeSource to AbstractFallbackTransactionAttributeSource--><g id="link_TransactionAttributeSource_AbstractFallbackTransactionAttributeSource"><path codeLine="17" d="M268.5,109.56 C268.5,122.41 268.5,135.85 268.5,148.12 " fill="none" id="TransactionAttributeSource-backto-AbstractFallbackTransactionAttributeSource" style="stroke:#000000;stroke-width:1.0;stroke-dasharray:7.0,7.0;"/><polygon fill="none" points="261.5,109.8,268.5,89.8,275.5,109.8,261.5,109.8" style="stroke:#000000;stroke-width:1.0;"/></g><!--reverse link AbstractFallbackTransactionAttributeSource to AnnotationTransactionAttributeSource--><g id="link_AbstractFallbackTransactionAttributeSource_AnnotationTransactionAttributeSource"><path codeLine="18" d="M268.5,262.89 C268.5,276.41 268.5,289.95 268.5,301.33 " fill="none" id="AbstractFallbackTransactionAttributeSource-backto-AnnotationTransactionAttributeSource" style="stroke:#000000;stroke-width:1.0;"/><polygon fill="none" points="261.5,262.98,268.5,242.98,275.5,262.98,261.5,262.98" style="stroke:#000000;stroke-width:1.0;"/></g><!--reverse link AnnotationTransactionAttributeSource to TransactionAnnotationParser--><g id="link_AnnotationTransactionAttributeSource_TransactionAnnotationParser"><path codeLine="19" d="M483.01,331.63 C489.71,331.63 496.42,331.63 503.12,331.63 " fill="none" id="AnnotationTransactionAttributeSource-backto-TransactionAnnotationParser" style="stroke:#000000;stroke-width:1.0;stroke-dasharray:7.0,7.0;"/><polygon fill="#000000" points="470.24,331.63,476.24,335.63,482.24,331.63,476.24,327.63,470.24,331.63" style="stroke:#000000;stroke-width:1.0;"/><text fill="#000000" font-family="Consolas" font-size="14" lengthAdjust="spacing" textLength="9" x="477.2572" y="328.3185">1</text><text fill="#000000" font-family="Consolas" font-size="14" lengthAdjust="spacing" textLength="9" x="486.5043" y="328.1221">n</text></g><!--SRC=[fLBBQiCm43nNNx7rANtO4EWnk0H3RYq5zmVMyheHaLT6Mb-QfjzUkQHjAC5no4MWcTdPqQ1hMLDBq5aqhCB6S8SUMn0ZbbQEfJJl1FE70wgc1dih9ybdZBw5u-0i1cLOo3Ue2LuzSa0jnl5In9kg5ofTxoErLLTtO4A1N9iQXOeu6MRVv-8nlu7AEKl8W-gDv9ZHx8baxUfx-1iw9bCxXLKG7s7GWnAM- -iAhQrGRyPJVe9sRHUXIp94b-rFYXqqXkiHjyiyJhQnBu7P2GxS-FDJA4aMXvhVmHVqWNmE-0y9SSaP7MTzzf6FV1KrAMhQfz5b-jffhiayWTlCPv1m0YCbV040]--></g></svg>