<?xml version="1.0" encoding="us-ascii" standalone="no"?><svg xmlns="http://www.w3.org/2000/svg" xmlns:xlink="http://www.w3.org/1999/xlink" contentStyleType="text/css" height="450px" preserveAspectRatio="none" style="width:1530px;height:450px;background:#FFFFFF;" version="1.1" viewBox="0 0 1530 450" width="1530px" zoomAndPan="magnify"><defs/><g><!--class InjectMetadata--><g id="elem_InjectMetadata"><rect codeLine="5" fill="#FFFFFF" height="109.1875" id="InjectMetadata" rx="2.5" ry="2.5" style="stroke:#000000;stroke-width:1.0;" width="334" x="997" y="20.15"/><ellipse cx="1109.75" cy="34.15" fill="#FFFFFF" rx="9" ry="9" style="stroke:#000000;stroke-width:1.0;"/><path d="M1112.1406,38.8531 Q1111.6563,39.1031 1111.125,39.2281 Q1110.6094,39.3531 1110.0313,39.3531 Q1107.9688,39.3531 1106.875,37.9937 Q1105.7969,36.6344 1105.7969,34.0562 Q1105.7969,31.4781 1106.875,30.1187 Q1107.9688,28.7594 1110.0313,28.7594 Q1110.6094,28.7594 1111.1406,28.8844 Q1111.6719,29.0094 1112.1406,29.2437 L1112.1406,31.4937 Q1111.625,31.0094 1111.125,30.7906 Q1110.6406,30.5719 1110.125,30.5719 Q1109.0156,30.5719 1108.4531,31.4469 Q1107.8906,32.3219 1107.8906,34.0562 Q1107.8906,35.775 1108.4531,36.6656 Q1109.0156,37.5406 1110.125,37.5406 Q1110.6406,37.5406 1111.125,37.3219 Q1111.625,37.0875 1112.1406,36.6187 L1112.1406,38.8531 Z " fill="#000000"/><text fill="#000000" font-family="Consolas" font-size="14" lengthAdjust="spacing" textLength="101" x="1127.25" y="38.9967">InjectMetadata</text><line style="stroke:#000000;stroke-width:1.0;" x1="998" x2="1330" y1="48.15" y2="48.15"/><rect fill="none" height="6" style="stroke:#000000;stroke-width:1.0;" width="6" x="1005" y="58.7984"/><text fill="#000000" font-family="Consolas" font-size="14" lengthAdjust="spacing" textLength="119" x="1015" y="65.1451">Class targetClass</text><rect fill="none" height="6" style="stroke:#000000;stroke-width:1.0;" width="6" x="1005" y="75.0953"/><text fill="#000000" font-family="Consolas" font-size="14" lengthAdjust="spacing" textLength="310" x="1015" y="81.442">Collection&lt;InjectElement&gt; injectedElements</text><rect fill="none" height="6" style="stroke:#000000;stroke-width:1.0;" width="6" x="1005" y="91.3922"/><text fill="#000000" font-family="Consolas" font-size="14" lengthAdjust="spacing" textLength="270" x="1015" y="97.7389">Set&lt;InjectElement&gt; checkedElements</text><line style="stroke:#000000;stroke-width:1.0;" x1="998" x2="1330" y1="105.0406" y2="105.0406"/><ellipse cx="1008" cy="118.6891" fill="#FFFFFF" rx="3" ry="3" style="stroke:#000000;stroke-width:1.0;"/><text fill="#000000" font-family="Consolas" font-size="14" lengthAdjust="spacing" textLength="284" x="1015" y="122.0357">inject(Object, String, PropertyValues) void</text></g><!--class InjectElement--><g id="elem_InjectElement"><rect codeLine="11" fill="#FFFFFF" height="125.4844" id="InjectElement" rx="2.5" ry="2.5" style="stroke:#000000;stroke-width:1.0;" width="321" x="641.5" y="12"/><ellipse cx="751.25" cy="26" fill="#FFFFFF" rx="9" ry="9" style="stroke:#000000;stroke-width:1.0;"/><path d="M750.9688,22.1406 L750.0156,26.3125 L751.9219,26.3125 L750.9688,22.1406 Z M749.7344,20.2969 L752.2031,20.2969 L754.9531,30.5 L752.9375,30.5 L752.3125,27.9844 L749.6094,27.9844 L749,30.5 L746.9688,30.5 L749.7344,20.2969 Z " fill="#000000"/><text fill="#000000" font-family="Consolas" font-size="14" font-style="italic" lengthAdjust="spacing" textLength="94" x="768.75" y="30.8467">InjectElement</text><line style="stroke:#000000;stroke-width:1.0;" x1="642.5" x2="961.5" y1="40" y2="40"/><polygon fill="none" points="652.5,48.6484,656.5,52.6484,652.5,56.6484,648.5,52.6484" style="stroke:#000000;stroke-width:1.0;"/><text fill="#000000" font-family="Consolas" font-size="14" lengthAdjust="spacing" textLength="119" x="659.5" y="56.9951">Member member</text><polygon fill="none" points="652.5,64.9453,656.5,68.9453,652.5,72.9453,648.5,68.9453" style="stroke:#000000;stroke-width:1.0;"/><text fill="#000000" font-family="Consolas" font-size="14" lengthAdjust="spacing" textLength="103" x="659.5" y="73.292">boolean isField</text><polygon fill="none" points="652.5,81.2422,656.5,85.2422,652.5,89.2422,648.5,85.2422" style="stroke:#000000;stroke-width:1.0;"/><text fill="#000000" font-family="Consolas" font-size="14" lengthAdjust="spacing" textLength="152" x="659.5" y="89.5889">PropertyDescriptor pd</text><line style="stroke:#000000;stroke-width:1.0;" x1="642.5" x2="961.5" y1="96.8906" y2="96.8906"/><polygon fill="#FFFFFF" points="652.5,105.5391,656.5,109.5391,652.5,113.5391,648.5,109.5391" style="stroke:#000000;stroke-width:1.0;"/><text fill="#000000" font-family="Consolas" font-size="14" lengthAdjust="spacing" textLength="284" x="659.5" y="113.8857">inject(Object, String, PropertyValues) void</text><polygon fill="#FFFFFF" points="652.5,121.8359,656.5,125.8359,652.5,129.8359,648.5,125.8359" style="stroke:#000000;stroke-width:1.0;"/><text fill="#000000" font-family="Consolas" font-size="14" lengthAdjust="spacing" textLength="297" x="659.5" y="130.1826">getResourceToInject(Object, String) Object</text></g><!--class AutowiredElement--><g id="elem_AutowiredElement"><rect codeLine="19" fill="#FFFFFF" height="60.2969" id="AutowiredElement" rx="2.5" ry="2.5" style="stroke:#000000;stroke-width:1.0;" width="154" x="521" y="221.93"/><ellipse cx="534" cy="235.93" fill="#FFFFFF" rx="9" ry="9" style="stroke:#000000;stroke-width:1.0;"/><path d="M533.7188,232.0706 L532.7656,236.2425 L534.6719,236.2425 L533.7188,232.0706 Z M532.4844,230.2269 L534.9531,230.2269 L537.7031,240.43 L535.6875,240.43 L535.0625,237.9144 L532.3594,237.9144 L531.75,240.43 L529.7188,240.43 L532.4844,230.2269 Z " fill="#000000"/><text fill="#000000" font-family="Consolas" font-size="14" font-style="italic" lengthAdjust="spacing" textLength="126" x="546" y="240.7767">AutowiredElement</text><line style="stroke:#000000;stroke-width:1.0;" x1="522" x2="674" y1="249.93" y2="249.93"/><polygon fill="none" points="532,258.5784,536,262.5784,532,266.5784,528,262.5784" style="stroke:#000000;stroke-width:1.0;"/><text fill="#000000" font-family="Consolas" font-size="14" lengthAdjust="spacing" textLength="118" x="539" y="266.9251">boolean required</text><line style="stroke:#000000;stroke-width:1.0;" x1="522" x2="674" y1="274.2269" y2="274.2269"/></g><!--class AutowiredFieldElement--><g id="elem_AutowiredFieldElement"><rect codeLine="23" fill="#FFFFFF" height="76.5938" id="AutowiredFieldElement" rx="2.5" ry="2.5" style="stroke:#000000;stroke-width:1.0;" width="336" x="14" y="366.68"/><ellipse cx="99.25" cy="380.68" fill="#FFFFFF" rx="9" ry="9" style="stroke:#000000;stroke-width:1.0;"/><path d="M101.6406,385.3831 Q101.1563,385.6331 100.625,385.7581 Q100.1094,385.8831 99.5313,385.8831 Q97.4688,385.8831 96.375,384.5237 Q95.2969,383.1644 95.2969,380.5862 Q95.2969,378.0081 96.375,376.6487 Q97.4688,375.2894 99.5313,375.2894 Q100.1094,375.2894 100.6406,375.4144 Q101.1719,375.5394 101.6406,375.7737 L101.6406,378.0237 Q101.125,377.5394 100.625,377.3206 Q100.1406,377.1019 99.625,377.1019 Q98.5156,377.1019 97.9531,377.9769 Q97.3906,378.8519 97.3906,380.5862 Q97.3906,382.305 97.9531,383.1956 Q98.5156,384.0706 99.625,384.0706 Q100.1406,384.0706 100.625,383.8519 Q101.125,383.6175 101.6406,383.1487 L101.6406,385.3831 Z " fill="#000000"/><text fill="#000000" font-family="Consolas" font-size="14" lengthAdjust="spacing" textLength="158" x="116.75" y="385.5267">AutowiredFieldElement</text><line style="stroke:#000000;stroke-width:1.0;" x1="15" x2="349" y1="394.68" y2="394.68"/><line style="stroke:#000000;stroke-width:1.0;" x1="15" x2="349" y1="402.68" y2="402.68"/><polygon fill="#FFFFFF" points="25,411.3284,29,415.3284,25,419.3284,21,415.3284" style="stroke:#000000;stroke-width:1.0;"/><text fill="#000000" font-family="Consolas" font-size="14" lengthAdjust="spacing" textLength="284" x="32" y="419.6751">inject(Object, String, PropertyValues) void</text><rect fill="#FFFFFF" height="6" style="stroke:#000000;stroke-width:1.0;" width="6" x="22" y="429.6253"/><text fill="#000000" font-family="Consolas" font-size="14" lengthAdjust="spacing" textLength="312" x="32" y="435.972">resolveFieldValue(Field, Object, String) Object</text></g><!--class AutowiredMethodElement--><g id="elem_AutowiredMethodElement"><rect codeLine="28" fill="#FFFFFF" height="76.5938" id="AutowiredMethodElement" rx="2.5" ry="2.5" style="stroke:#000000;stroke-width:1.0;" width="426" x="385" y="366.68"/><ellipse cx="504.75" cy="380.68" fill="#FFFFFF" rx="9" ry="9" style="stroke:#000000;stroke-width:1.0;"/><path d="M507.1406,385.3831 Q506.6563,385.6331 506.125,385.7581 Q505.6094,385.8831 505.0313,385.8831 Q502.9688,385.8831 501.875,384.5237 Q500.7969,383.1644 500.7969,380.5862 Q500.7969,378.0081 501.875,376.6487 Q502.9688,375.2894 505.0313,375.2894 Q505.6094,375.2894 506.1406,375.4144 Q506.6719,375.5394 507.1406,375.7737 L507.1406,378.0237 Q506.625,377.5394 506.125,377.3206 Q505.6406,377.1019 505.125,377.1019 Q504.0156,377.1019 503.4531,377.9769 Q502.8906,378.8519 502.8906,380.5862 Q502.8906,382.305 503.4531,383.1956 Q504.0156,384.0706 505.125,384.0706 Q505.6406,384.0706 506.125,383.8519 Q506.625,383.6175 507.1406,383.1487 L507.1406,385.3831 Z " fill="#000000"/><text fill="#000000" font-family="Consolas" font-size="14" lengthAdjust="spacing" textLength="179" x="522.25" y="385.5267">AutowiredMethodElement</text><line style="stroke:#000000;stroke-width:1.0;" x1="386" x2="810" y1="394.68" y2="394.68"/><line style="stroke:#000000;stroke-width:1.0;" x1="386" x2="810" y1="402.68" y2="402.68"/><polygon fill="#FFFFFF" points="396,411.3284,400,415.3284,396,419.3284,392,415.3284" style="stroke:#000000;stroke-width:1.0;"/><text fill="#000000" font-family="Consolas" font-size="14" lengthAdjust="spacing" textLength="284" x="403" y="419.6751">inject(Object, String, PropertyValues) void</text><rect fill="#FFFFFF" height="6" style="stroke:#000000;stroke-width:1.0;" width="6" x="393" y="429.6253"/><text fill="#000000" font-family="Consolas" font-size="14" lengthAdjust="spacing" textLength="402" x="403" y="435.972">resolveMethodArguments(Method, Object, String) Object[]</text></g><!--class LookupElement--><g id="elem_LookupElement"><rect codeLine="33" fill="#FFFFFF" height="109.1875" id="LookupElement" rx="2.5" ry="2.5" style="stroke:#000000;stroke-width:1.0;" width="184" x="915" y="197.49"/><ellipse cx="949.6" cy="211.49" fill="#FFFFFF" rx="9" ry="9" style="stroke:#000000;stroke-width:1.0;"/><path d="M949.3188,207.6306 L948.3656,211.8025 L950.2719,211.8025 L949.3188,207.6306 Z M948.0844,205.7869 L950.5531,205.7869 L953.3031,215.99 L951.2875,215.99 L950.6625,213.4744 L947.9594,213.4744 L947.35,215.99 L945.3188,215.99 L948.0844,205.7869 Z " fill="#000000"/><text fill="#000000" font-family="Consolas" font-size="14" font-style="italic" lengthAdjust="spacing" textLength="108" x="966.4" y="216.3367">LookupElement</text><line style="stroke:#000000;stroke-width:1.0;" x1="916" x2="1098" y1="225.49" y2="225.49"/><polygon fill="none" points="926,234.1384,930,238.1384,926,242.1384,922,238.1384" style="stroke:#000000;stroke-width:1.0;"/><text fill="#000000" font-family="Consolas" font-size="14" lengthAdjust="spacing" textLength="83" x="933" y="242.4851">String name</text><polygon fill="none" points="926,250.4353,930,254.4353,926,258.4353,922,254.4353" style="stroke:#000000;stroke-width:1.0;"/><text fill="#000000" font-family="Consolas" font-size="14" lengthAdjust="spacing" textLength="160" x="933" y="258.782">boolean isDefaultName</text><polygon fill="none" points="926,266.7322,930,270.7322,926,274.7322,922,270.7322" style="stroke:#000000;stroke-width:1.0;"/><text fill="#000000" font-family="Consolas" font-size="14" lengthAdjust="spacing" textLength="122" x="933" y="275.0789">Class lookupType</text><polygon fill="none" points="926,283.0291,930,287.0291,926,291.0291,922,287.0291" style="stroke:#000000;stroke-width:1.0;"/><text fill="#000000" font-family="Consolas" font-size="14" lengthAdjust="spacing" textLength="141" x="933" y="291.3757">String mappedName</text><line style="stroke:#000000;stroke-width:1.0;" x1="916" x2="1098" y1="298.6775" y2="298.6775"/></g><!--class EjbRefElement--><g id="elem_EjbRefElement"><rect codeLine="40" fill="#FFFFFF" height="76.5938" id="EjbRefElement" rx="2.5" ry="2.5" style="stroke:#000000;stroke-width:1.0;" width="321" x="846.5" y="366.68"/><ellipse cx="952.75" cy="380.68" fill="#FFFFFF" rx="9" ry="9" style="stroke:#000000;stroke-width:1.0;"/><path d="M955.1406,385.3831 Q954.6563,385.6331 954.125,385.7581 Q953.6094,385.8831 953.0313,385.8831 Q950.9688,385.8831 949.875,384.5237 Q948.7969,383.1644 948.7969,380.5862 Q948.7969,378.0081 949.875,376.6487 Q950.9688,375.2894 953.0313,375.2894 Q953.6094,375.2894 954.1406,375.4144 Q954.6719,375.5394 955.1406,375.7737 L955.1406,378.0237 Q954.625,377.5394 954.125,377.3206 Q953.6406,377.1019 953.125,377.1019 Q952.0156,377.1019 951.4531,377.9769 Q950.8906,378.8519 950.8906,380.5862 Q950.8906,382.305 951.4531,383.1956 Q952.0156,384.0706 953.125,384.0706 Q953.6406,384.0706 954.125,383.8519 Q954.625,383.6175 955.1406,383.1487 L955.1406,385.3831 Z " fill="#000000"/><text fill="#000000" font-family="Consolas" font-size="14" lengthAdjust="spacing" textLength="101" x="970.25" y="385.5267">EjbRefElement</text><line style="stroke:#000000;stroke-width:1.0;" x1="847.5" x2="1166.5" y1="394.68" y2="394.68"/><rect fill="none" height="6" style="stroke:#000000;stroke-width:1.0;" width="6" x="854.5" y="405.3284"/><text fill="#000000" font-family="Consolas" font-size="14" lengthAdjust="spacing" textLength="119" x="864.5" y="411.6751">String beanName</text><line style="stroke:#000000;stroke-width:1.0;" x1="847.5" x2="1166.5" y1="418.9769" y2="418.9769"/><polygon fill="#FFFFFF" points="857.5,427.6253,861.5,431.6253,857.5,435.6253,853.5,431.6253" style="stroke:#000000;stroke-width:1.0;"/><text fill="#000000" font-family="Consolas" font-size="14" lengthAdjust="spacing" textLength="297" x="864.5" y="435.972">getResourceToInject(Object, String) Object</text></g><!--class ResourceElement--><g id="elem_ResourceElement"><rect codeLine="45" fill="#FFFFFF" height="76.5938" id="ResourceElement" rx="2.5" ry="2.5" style="stroke:#000000;stroke-width:1.0;" width="321" x="1202.5" y="366.68"/><ellipse cx="1297.25" cy="380.68" fill="#FFFFFF" rx="9" ry="9" style="stroke:#000000;stroke-width:1.0;"/><path d="M1299.6406,385.3831 Q1299.1563,385.6331 1298.625,385.7581 Q1298.1094,385.8831 1297.5313,385.8831 Q1295.4688,385.8831 1294.375,384.5237 Q1293.2969,383.1644 1293.2969,380.5862 Q1293.2969,378.0081 1294.375,376.6487 Q1295.4688,375.2894 1297.5313,375.2894 Q1298.1094,375.2894 1298.6406,375.4144 Q1299.1719,375.5394 1299.6406,375.7737 L1299.6406,378.0237 Q1299.125,377.5394 1298.625,377.3206 Q1298.1406,377.1019 1297.625,377.1019 Q1296.5156,377.1019 1295.9531,377.9769 Q1295.3906,378.8519 1295.3906,380.5862 Q1295.3906,382.305 1295.9531,383.1956 Q1296.5156,384.0706 1297.625,384.0706 Q1298.1406,384.0706 1298.625,383.8519 Q1299.125,383.6175 1299.6406,383.1487 L1299.6406,385.3831 Z " fill="#000000"/><text fill="#000000" font-family="Consolas" font-size="14" lengthAdjust="spacing" textLength="124" x="1314.75" y="385.5267">ResourceElement</text><line style="stroke:#000000;stroke-width:1.0;" x1="1203.5" x2="1522.5" y1="394.68" y2="394.68"/><rect fill="none" height="6" style="stroke:#000000;stroke-width:1.0;" width="6" x="1210.5" y="405.3284"/><text fill="#000000" font-family="Consolas" font-size="14" lengthAdjust="spacing" textLength="137" x="1220.5" y="411.6751">boolean lazyLookup</text><line style="stroke:#000000;stroke-width:1.0;" x1="1203.5" x2="1522.5" y1="418.9769" y2="418.9769"/><polygon fill="#FFFFFF" points="1213.5,427.6253,1217.5,431.6253,1213.5,435.6253,1209.5,431.6253" style="stroke:#000000;stroke-width:1.0;"/><text fill="#000000" font-family="Consolas" font-size="14" lengthAdjust="spacing" textLength="297" x="1220.5" y="435.972">getResourceToInject(Object, String) Object</text></g><!--reverse link InjectElement to LookupElement--><g id="link_InjectElement_LookupElement"><path codeLine="49" d="M890.26,151.23 C908.36,166.72 927.07,182.72 944.06,197.25 " fill="none" id="InjectElement-backto-LookupElement" style="stroke:#000000;stroke-width:1.0;"/><polygon fill="none" points="886.21,156.13,875.56,137.81,895.31,145.49,886.21,156.13" style="stroke:#000000;stroke-width:1.0;"/></g><!--reverse link LookupElement to ResourceElement--><g id="link_LookupElement_ResourceElement"><path codeLine="50" d="M1118.27,300.25 C1168.42,321.5 1226.83,346.26 1274.01,366.25 " fill="none" id="LookupElement-backto-ResourceElement" style="stroke:#000000;stroke-width:1.0;"/><polygon fill="none" points="1115.82,306.39,1100.14,292.14,1121.29,293.5,1115.82,306.39" style="stroke:#000000;stroke-width:1.0;"/></g><!--reverse link LookupElement to EjbRefElement--><g id="link_LookupElement_EjbRefElement"><path codeLine="51" d="M1007,327.87 C1007,341.23 1007,354.62 1007,366.37 " fill="none" id="LookupElement-backto-EjbRefElement" style="stroke:#000000;stroke-width:1.0;"/><polygon fill="none" points="1000,328.13,1007,308.13,1014,328.13,1000,328.13" style="stroke:#000000;stroke-width:1.0;"/></g><!--reverse link InjectElement to AutowiredElement--><g id="link_InjectElement_AutowiredElement"><path codeLine="53" d="M713.99,151.39 C685.15,176.18 654.79,202.27 632.37,221.54 " fill="none" id="InjectElement-backto-AutowiredElement" style="stroke:#000000;stroke-width:1.0;"/><polygon fill="none" points="709.06,145.54,728.79,137.81,718.19,156.16,709.06,145.54" style="stroke:#000000;stroke-width:1.0;"/></g><!--reverse link AutowiredElement to AutowiredFieldElement--><g id="link_AutowiredElement_AutowiredFieldElement"><path codeLine="54" d="M501.39,288.13 C436.82,311.54 351.95,342.33 285.93,366.28 " fill="none" id="AutowiredElement-backto-AutowiredFieldElement" style="stroke:#000000;stroke-width:1.0;"/><polygon fill="none" points="498.54,281.35,519.73,281.11,503.31,294.51,498.54,281.35" style="stroke:#000000;stroke-width:1.0;"/></g><!--reverse link AutowiredElement to AutowiredMethodElement--><g id="link_AutowiredElement_AutowiredMethodElement"><path codeLine="55" d="M598,303.38 C598,323.91 598,347.25 598,366.28 " fill="none" id="AutowiredElement-backto-AutowiredMethodElement" style="stroke:#000000;stroke-width:1.0;"/><polygon fill="none" points="591,303.53,598,283.53,605,303.53,591,303.53" style="stroke:#000000;stroke-width:1.0;"/></g><!--link InjectElement to InjectMetadata--><g id="link_InjectElement_InjectMetadata"><path codeLine="57" d="M962.85,74.75 C969.45,74.75 976.05,74.75 982.65,74.75 " fill="none" id="InjectElement-to-InjectMetadata" style="stroke:#000000;stroke-width:1.0;"/><polygon fill="#000000" points="995.64,74.75,989.64,70.75,983.64,74.75,989.64,78.75,995.64,74.75" style="stroke:#000000;stroke-width:1.0;"/><text fill="#000000" font-family="Consolas" font-size="14" lengthAdjust="spacing" textLength="9" x="970.3424" y="71.3897">n</text><text fill="#000000" font-family="Consolas" font-size="14" lengthAdjust="spacing" textLength="9" x="979.8526" y="71.3896">1</text></g><!--SRC=[hLJ1JkCm53oll-9HBWMQ0z8ULqW8g5G9s5MBzhBQWvCyMbF7DlOBgDtTVr_7Rb0SKg5ANEBulPdns1ddY5PO8HZ9XM9kBPJXbbT0WYHEjQA5s2ASV-sqIdpajQGFc_VSwrvfvRJaZXN-uM2cdh2WEoHUSkBmXtt9u2fqYDibKdWFHIsbHmgjlaNEZVGs5Ls025CiTuM0NY3rOSKAYtKNTRPZZh_dpJ211LcXbXFuORL1IvkVNDReJk15YvBzOpntP7b1q7M-askC7yCTLZbQgCBG57Aj9N85maq5oh8fjUBNw0eh36aB9ZGECUFX_cpcw7Hj2tpGio7k2SIvjzxtVbcJVXNsxJIY_TQjnUUwQJR47Zvi8o4TP3lpslxhls3G2RrnU9t0Vkyz2puhA_qP7gBGfLtM8H3ZED_dvDVlWNEyrNfTcyHBP87oMKyJS1qlmlsk4KCkWy33nc27Mt5Zi0p0j-tVFELpVEoibBNetCkteeU58YgtX4IxjItvTXCtUR1yUZPPdVszIEyCwwySCGcFfViUGh1tOHvQQpZ14TaNO7kojWVDUl-mqVa8JZEPmKYDKXV_0G00]--></g></svg>