<?xml version="1.0" encoding="us-ascii" standalone="no"?><svg xmlns="http://www.w3.org/2000/svg" xmlns:xlink="http://www.w3.org/1999/xlink" contentStyleType="text/css" height="498px" preserveAspectRatio="none" style="width:376px;height:498px;background:#FFFFFF;" version="1.1" viewBox="0 0 376 498" width="376px" zoomAndPan="magnify"><defs/><g><text fill="#000000" font-family="sans-serif" font-size="14" font-weight="bold" lengthAdjust="spacing" textLength="56" x="158.5" y="32.9951">&#23436;&#25104;&#21047;&#26032;</text><ellipse cx="188" cy="57.2969" fill="#222222" rx="10" ry="10" style="stroke:#222222;stroke-width:1.0;"/><rect fill="none" height="409.9844" style="stroke:#000000;stroke-width:1.5;" width="354" x="11" y="77.2969"/><path d="M309,77.2969 L309,86.5938 L299,96.5938 L11,96.5938 " fill="none" style="stroke:#000000;stroke-width:1.5;"/><text fill="#000000" font-family="sans-serif" font-size="14" lengthAdjust="spacing" textLength="288" x="14" y="91.292">AbstractApplicationContext#finishRefresh</text><rect fill="#F1F1F1" height="47.9375" rx="12.5" ry="12.5" style="stroke:#181818;stroke-width:0.5;" width="333" x="21.5" y="113.5938"/><text fill="#000000" font-family="sans-serif" font-size="12" lengthAdjust="spacing" textLength="48" x="31.5" y="134.7324">&#37325;&#32622;&#32531;&#23384;</text><text fill="#000000" font-family="sans-serif" font-size="12" lengthAdjust="spacing" textLength="313" x="31.5" y="148.7012">AbstractApplicationContext#resetCommonCaches</text><rect fill="#F1F1F1" height="47.9375" rx="12.5" ry="12.5" style="stroke:#181818;stroke-width:0.5;" width="313" x="31.5" y="181.5313"/><text fill="#000000" font-family="sans-serif" font-size="12" lengthAdjust="spacing" textLength="72" x="41.5" y="202.6699">&#28165;&#38500;&#36164;&#28304;&#32531;&#23384;</text><text fill="#000000" font-family="sans-serif" font-size="12" lengthAdjust="spacing" textLength="293" x="41.5" y="216.6387">DefaultResourceLoader#clearResourceCaches</text><rect fill="#F1F1F1" height="47.9375" rx="12.5" ry="12.5" style="stroke:#181818;stroke-width:0.5;" width="334" x="21" y="249.4688"/><text fill="#000000" font-family="sans-serif" font-size="12" lengthAdjust="spacing" textLength="120" x="31" y="270.6074">&#21021;&#22987;&#21270;&#29983;&#21629;&#21608;&#26399;&#22788;&#29702;&#22120;</text><text fill="#000000" font-family="sans-serif" font-size="12" lengthAdjust="spacing" textLength="314" x="31" y="284.5762">AbstractApplicationContext#initLifecycleProcessor</text><rect fill="#F1F1F1" height="47.9375" rx="12.5" ry="12.5" style="stroke:#181818;stroke-width:0.5;" width="209" x="83.5" y="317.4063"/><text fill="#000000" font-family="sans-serif" font-size="12" lengthAdjust="spacing" textLength="168" x="93.5" y="338.5449">&#25191;&#34892;&#29983;&#21629;&#21608;&#26399;&#22788;&#29702;&#22120;&#30340;&#21047;&#26032;&#26041;&#27861;</text><text fill="#000000" font-family="sans-serif" font-size="12" lengthAdjust="spacing" textLength="189" x="93.5" y="352.5137">LifecycleProcessor#onRefresh</text><rect fill="#F1F1F1" height="47.9375" rx="12.5" ry="12.5" style="stroke:#181818;stroke-width:0.5;" width="280" x="48" y="385.3438"/><text fill="#000000" font-family="sans-serif" font-size="12" lengthAdjust="spacing" textLength="144" x="58" y="406.4824">&#21457;&#24067;&#24212;&#29992;&#19978;&#19979;&#25991;&#24050;&#21047;&#26032;&#20107;&#20214;</text><text fill="#000000" font-family="sans-serif" font-size="12" lengthAdjust="spacing" textLength="260" x="58" y="420.4512">AbstractApplicationContext#publishEvent</text><ellipse cx="188" cy="464.2813" fill="none" rx="11" ry="11" style="stroke:#222222;stroke-width:1.0;"/><ellipse cx="188" cy="464.2813" fill="#222222" rx="6" ry="6" style="stroke:#111111;stroke-width:1.0;"/><line style="stroke:#181818;stroke-width:1.0;" x1="188" x2="188" y1="161.5313" y2="181.5313"/><polygon fill="#181818" points="184,171.5313,188,181.5313,192,171.5313,188,175.5313" style="stroke:#181818;stroke-width:1.0;"/><line style="stroke:#181818;stroke-width:1.0;" x1="188" x2="188" y1="229.4688" y2="249.4688"/><polygon fill="#181818" points="184,239.4688,188,249.4688,192,239.4688,188,243.4688" style="stroke:#181818;stroke-width:1.0;"/><line style="stroke:#181818;stroke-width:1.0;" x1="188" x2="188" y1="297.4063" y2="317.4063"/><polygon fill="#181818" points="184,307.4063,188,317.4063,192,307.4063,188,311.4063" style="stroke:#181818;stroke-width:1.0;"/><line style="stroke:#181818;stroke-width:1.0;" x1="188" x2="188" y1="365.3438" y2="385.3438"/><polygon fill="#181818" points="184,375.3438,188,385.3438,192,375.3438,188,379.3438" style="stroke:#181818;stroke-width:1.0;"/><line style="stroke:#181818;stroke-width:1.0;" x1="188" x2="188" y1="433.2813" y2="453.2813"/><polygon fill="#181818" points="184,443.2813,188,453.2813,192,443.2813,188,447.2813" style="stroke:#181818;stroke-width:1.0;"/><line style="stroke:#181818;stroke-width:1.0;" x1="188" x2="188" y1="67.2969" y2="113.5938"/><polygon fill="#181818" points="184,103.5938,188,113.5938,192,103.5938,188,107.5938" style="stroke:#181818;stroke-width:1.0;"/><!--SRC=[VP71Ji9048RlVGeItW9E1BrnC9ovBEjKcfJTPdTgz2nA5OmGiH6Z8IOaS94OZL9HtgQpXRUm1F6YuJgP_yit_w23BcHeqZP1XuAf2PyjZKoXTQ2axsKALOsASInudkjmXeuKHIaGZZ1hEyBHjJBO2dJDoYsRbybyadnTqzDjHMp9fUk0HLclfoF6Qw3pLiv4fyl-SF7MCBFE1h43DlDTB8EMlk9GacmVL9QxmDHczfkdu856BMg7IMz0tJbrn-P-GCD6qZcZ_dYhJde5bXmR-76AtbEIWzPIhPpEHul7zh_0vAwnxig47-RrfYB-0h9I_5IpqhlgKdH2irxI6yVHHHorJDYawSiQ4izQyUVxLadFhxffsRk7832VFaXwtm00]--></g></svg>