<?xml version="1.0" encoding="us-ascii" standalone="no"?><svg xmlns="http://www.w3.org/2000/svg" xmlns:xlink="http://www.w3.org/1999/xlink" contentStyleType="text/css" height="251px" preserveAspectRatio="none" style="width:604px;height:251px;background:#FFFFFF;" version="1.1" viewBox="0 0 604 251" width="604px" zoomAndPan="magnify"><defs/><g><!--class Set--><g id="elem_Set"><rect codeLine="5" fill="#FFFFFF" height="44" id="Set" rx="2.5" ry="2.5" style="stroke:#000000;stroke-width:1.0;" width="64" x="186" y="15"/><ellipse cx="199" cy="29" fill="#FFFFFF" rx="9" ry="9" style="stroke:#000000;stroke-width:1.0;"/><path d="M196.1719,25.5781 L196.1719,23.7969 L202.25,23.7969 L202.25,25.5781 L200.2188,25.5781 L200.2188,32.2188 L202.25,32.2188 L202.25,34 L196.1719,34 L196.1719,32.2188 L198.2031,32.2188 L198.2031,25.5781 L196.1719,25.5781 Z " fill="#000000"/><text fill="#000000" font-family="Consolas" font-size="14" font-style="italic" lengthAdjust="spacing" textLength="23" x="211" y="33.8467">Set</text><rect fill="#FFFFFF" height="18.2969" style="stroke:#000000;stroke-width:1.0;stroke-dasharray:2.0,2.0;" width="11" x="242" y="12"/><text fill="#000000" font-family="Verdana" font-size="14" font-style="italic" lengthAdjust="spacing" textLength="9" x="243" y="25.9951">E</text><line style="stroke:#000000;stroke-width:1.0;" x1="187" x2="249" y1="43" y2="43"/><line style="stroke:#000000;stroke-width:1.0;" x1="187" x2="249" y1="51" y2="51"/></g><!--class HashSet--><g id="elem_HashSet"><rect codeLine="6" fill="#FFFFFF" height="125.4844" id="HashSet" rx="2.5" ry="2.5" style="stroke:#000000;stroke-width:1.0;" width="204" x="12" y="119"/><ellipse cx="74.75" cy="133" fill="#FFFFFF" rx="9" ry="9" style="stroke:#000000;stroke-width:1.0;"/><path d="M77.1406,137.7031 Q76.6563,137.9531 76.125,138.0781 Q75.6094,138.2031 75.0313,138.2031 Q72.9688,138.2031 71.875,136.8438 Q70.7969,135.4844 70.7969,132.9063 Q70.7969,130.3281 71.875,128.9688 Q72.9688,127.6094 75.0313,127.6094 Q75.6094,127.6094 76.1406,127.7344 Q76.6719,127.8594 77.1406,128.0938 L77.1406,130.3438 Q76.625,129.8594 76.125,129.6406 Q75.6406,129.4219 75.125,129.4219 Q74.0156,129.4219 73.4531,130.2969 Q72.8906,131.1719 72.8906,132.9063 Q72.8906,134.625 73.4531,135.5156 Q74.0156,136.3906 75.125,136.3906 Q75.6406,136.3906 76.125,136.1719 Q76.625,135.9375 77.1406,135.4688 L77.1406,137.7031 Z " fill="#000000"/><text fill="#000000" font-family="Consolas" font-size="14" lengthAdjust="spacing" textLength="58" x="92.25" y="137.8467">HashSet</text><rect fill="#FFFFFF" height="18.2969" style="stroke:#000000;stroke-width:1.0;stroke-dasharray:2.0,2.0;" width="11" x="208" y="116"/><text fill="#000000" font-family="Verdana" font-size="14" font-style="italic" lengthAdjust="spacing" textLength="9" x="209" y="129.9951">E</text><line style="stroke:#000000;stroke-width:1.0;" x1="13" x2="215" y1="147" y2="147"/><rect fill="none" height="6" style="stroke:#000000;stroke-width:1.0;" width="6" x="20" y="157.6484"/><text fill="#000000" font-family="Consolas" font-size="14" lengthAdjust="spacing" textLength="180" x="30" y="163.9951">HashMap&lt;E,Object&gt; map</text><rect fill="none" height="6" style="stroke:#000000;stroke-width:1.0;" width="6" x="20" y="173.9453"/><text fill="#000000" font-family="Consolas" font-size="14" lengthAdjust="spacing" text-decoration="underline" textLength="114" x="30" y="180.292">Object PRESENT</text><line style="stroke:#000000;stroke-width:1.0;" x1="13" x2="215" y1="187.5938" y2="187.5938"/><ellipse cx="23" cy="201.2422" fill="#FFFFFF" rx="3" ry="3" style="stroke:#000000;stroke-width:1.0;"/><text fill="#000000" font-family="Consolas" font-size="14" lengthAdjust="spacing" textLength="105" x="30" y="204.5889">add(E) boolean</text><ellipse cx="23" cy="217.5391" fill="#FFFFFF" rx="3" ry="3" style="stroke:#000000;stroke-width:1.0;"/><text fill="#000000" font-family="Consolas" font-size="14" lengthAdjust="spacing" textLength="138" x="30" y="220.8857">contains(E) boolean</text><ellipse cx="23" cy="233.8359" fill="#FFFFFF" rx="3" ry="3" style="stroke:#000000;stroke-width:1.0;"/><text fill="#000000" font-family="Consolas" font-size="14" lengthAdjust="spacing" textLength="131" x="30" y="237.1826">remove(E) boolean</text></g><!--class LinkedHashSet--><g id="elem_LinkedHashSet"><rect codeLine="13" fill="#FFFFFF" height="44" id="LinkedHashSet" rx="2.5" ry="2.5" style="stroke:#000000;stroke-width:1.0;" width="144" x="251" y="159.74"/><ellipse cx="264" cy="173.74" fill="#FFFFFF" rx="9" ry="9" style="stroke:#000000;stroke-width:1.0;"/><path d="M266.3906,178.4431 Q265.9063,178.6931 265.375,178.8181 Q264.8594,178.9431 264.2813,178.9431 Q262.2188,178.9431 261.125,177.5837 Q260.0469,176.2244 260.0469,173.6462 Q260.0469,171.0681 261.125,169.7087 Q262.2188,168.3494 264.2813,168.3494 Q264.8594,168.3494 265.3906,168.4744 Q265.9219,168.5994 266.3906,168.8337 L266.3906,171.0837 Q265.875,170.5994 265.375,170.3806 Q264.8906,170.1619 264.375,170.1619 Q263.2656,170.1619 262.7031,171.0369 Q262.1406,171.9119 262.1406,173.6462 Q262.1406,175.365 262.7031,176.2556 Q263.2656,177.1306 264.375,177.1306 Q264.8906,177.1306 265.375,176.9119 Q265.875,176.6775 266.3906,176.2087 L266.3906,178.4431 Z " fill="#000000"/><text fill="#000000" font-family="Consolas" font-size="14" lengthAdjust="spacing" textLength="103" x="276" y="178.5867">LinkedHashSet</text><rect fill="#FFFFFF" height="18.2969" style="stroke:#000000;stroke-width:1.0;stroke-dasharray:2.0,2.0;" width="11" x="387" y="156.74"/><text fill="#000000" font-family="Verdana" font-size="14" font-style="italic" lengthAdjust="spacing" textLength="9" x="388" y="170.7351">E</text><line style="stroke:#000000;stroke-width:1.0;" x1="252" x2="394" y1="187.74" y2="187.74"/><line style="stroke:#000000;stroke-width:1.0;" x1="252" x2="394" y1="195.74" y2="195.74"/></g><!--class LinkedHashMap--><g id="elem_LinkedHashMap"><rect codeLine="15" fill="#FFFFFF" height="44" id="LinkedHashMap" rx="2.5" ry="2.5" style="stroke:#000000;stroke-width:1.0;" width="163" x="430.5" y="159.74"/><ellipse cx="443.5" cy="173.74" fill="#FFFFFF" rx="9" ry="9" style="stroke:#000000;stroke-width:1.0;"/><path d="M445.8906,178.4431 Q445.4063,178.6931 444.875,178.8181 Q444.3594,178.9431 443.7813,178.9431 Q441.7188,178.9431 440.625,177.5837 Q439.5469,176.2244 439.5469,173.6462 Q439.5469,171.0681 440.625,169.7087 Q441.7188,168.3494 443.7813,168.3494 Q444.3594,168.3494 444.8906,168.4744 Q445.4219,168.5994 445.8906,168.8337 L445.8906,171.0837 Q445.375,170.5994 444.875,170.3806 Q444.3906,170.1619 443.875,170.1619 Q442.7656,170.1619 442.2031,171.0369 Q441.6406,171.9119 441.6406,173.6462 Q441.6406,175.365 442.2031,176.2556 Q442.7656,177.1306 443.875,177.1306 Q444.3906,177.1306 444.875,176.9119 Q445.375,176.6775 445.8906,176.2087 L445.8906,178.4431 Z " fill="#000000"/><text fill="#000000" font-family="Consolas" font-size="14" lengthAdjust="spacing" textLength="109" x="455.5" y="178.5867">LinkedHashMap</text><rect fill="#FFFFFF" height="18.2969" style="stroke:#000000;stroke-width:1.0;stroke-dasharray:2.0,2.0;" width="24" x="572.5" y="156.74"/><text fill="#000000" font-family="Verdana" font-size="14" font-style="italic" lengthAdjust="spacing" textLength="22" x="573.5" y="170.7351">K,V</text><line style="stroke:#000000;stroke-width:1.0;" x1="431.5" x2="592.5" y1="187.74" y2="187.74"/><line style="stroke:#000000;stroke-width:1.0;" x1="431.5" x2="592.5" y1="195.74" y2="195.74"/></g><!--reverse link Set to LinkedHashSet--><g id="link_Set_LinkedHashSet"><path codeLine="17" d="M245.94,75.98 C265.66,102.79 291.35,137.72 307.52,159.69 " fill="none" id="Set-backto-LinkedHashSet" style="stroke:#000000;stroke-width:1.0;stroke-dasharray:7.0,7.0;"/><polygon fill="none" points="239.93,80.62,233.72,60.37,251.21,72.33,239.93,80.62" style="stroke:#000000;stroke-width:1.0;"/></g><!--reverse link Set to HashSet--><g id="link_Set_HashSet"><path codeLine="18" d="M190.09,76.3 C180.58,89.36 169.69,104.3 159.18,118.73 " fill="none" id="Set-backto-HashSet" style="stroke:#000000;stroke-width:1.0;stroke-dasharray:7.0,7.0;"/><polygon fill="none" points="185,72.41,202.43,60.37,196.31,80.65,185,72.41" style="stroke:#000000;stroke-width:1.0;"/></g><!--reverse link HashSet to LinkedHashSet--><g id="link_HashSet_LinkedHashSet"><path codeLine="19" d="M237.25,181.74 C241.7,181.74 246.14,181.74 250.59,181.74 " fill="none" id="HashSet-backto-LinkedHashSet" style="stroke:#000000;stroke-width:1.0;"/><polygon fill="none" points="237.46,188.74,217.46,181.74,237.46,174.74,237.46,188.74" style="stroke:#000000;stroke-width:1.0;"/></g><!--reverse link LinkedHashSet to LinkedHashMap--><g id="link_LinkedHashSet_LinkedHashMap"><path codeLine="20" d="M409.33,181.74 C416.37,181.74 423.4,181.74 430.44,181.74 " fill="none" id="LinkedHashSet-backto-LinkedHashMap" style="stroke:#000000;stroke-width:1.0;"/><polygon fill="#000000" points="396.35,181.74,402.35,185.74,408.35,181.74,402.35,177.74,396.35,181.74" style="stroke:#000000;stroke-width:1.0;"/></g><!--SRC=[XO-xZW8n34LhyXNUZbUGa2ZHD2YhbNYAGVGcOqIMJ3AQ60eU_qu6A1WeA7tEbNtzmplA2GgBnecmDwx04dDWmvP-lUFKd0ZwWnULqHOFbh_A6SQz8- -2jnY4SKpb5ZL1IZnKYT2H1lZ3i7i0E8k6lCzJB8QgEz_ya-O4SYmgSGwCRFJrWM6nLAcQhKIZ0vXbJTM2ZVUMq5L4n-lndV26IyhzaLxXzTbYOjoUibgNJrNL6dVNYH2rEFGElKjIVIK-IJqfhOpyERsvjYnb_TWD]--></g></svg>