<?xml version="1.0" encoding="us-ascii" standalone="no"?><svg xmlns="http://www.w3.org/2000/svg" xmlns:xlink="http://www.w3.org/1999/xlink" contentStyleType="text/css" height="512px" preserveAspectRatio="none" style="width:609px;height:512px;background:#FFFFFF;" version="1.1" viewBox="0 0 609 512" width="609px" zoomAndPan="magnify"><defs/><g><text fill="#000000" font-family="Consolas" font-size="14" font-weight="bold" lengthAdjust="spacing" textLength="444" x="81" y="27.9951">AbstractAutowireCapableBeanFactory#createBean&#30340;&#27969;&#31243;</text><ellipse cx="241.5" cy="52.2969" fill="#FFFFFF" rx="10" ry="10" style="stroke:#000000;stroke-width:1.0;"/><rect fill="#FFFFFF" height="52.5938" rx="12.5" ry="12.5" style="stroke:#000000;stroke-width:1.0;" width="298" x="92.5" y="82.2969"/><text fill="#000000" font-family="Consolas" font-size="14" lengthAdjust="spacing" textLength="115" x="106.5" y="105.292">&#35299;&#26512;Bean&#30340;Class</text><text fill="#000000" font-family="Consolas" font-size="14" lengthAdjust="spacing" textLength="278" x="102.5" y="121.5889">AbstractBeanFactory#resolveBeanClass</text><rect fill="#FFFFFF" height="52.5938" rx="12.5" ry="12.5" style="stroke:#000000;stroke-width:1.0;" width="363" x="60" y="154.8906"/><text fill="#000000" font-family="Consolas" font-size="14" lengthAdjust="spacing" textLength="84" x="74" y="177.8857">&#20934;&#22791;&#26041;&#27861;&#37325;&#20889;</text><text fill="#000000" font-family="Consolas" font-size="14" lengthAdjust="spacing" textLength="343" x="70" y="194.1826">AbstractBeanDefinition#prepareMethodOverrides</text><rect fill="#FFFFFF" height="52.5938" rx="12.5" ry="12.5" style="stroke:#000000;stroke-width:1.0;" width="471" x="6" y="227.4844"/><text fill="#000000" font-family="Consolas" font-size="14" lengthAdjust="spacing" textLength="120" x="20" y="250.4795">&#23454;&#20363;&#21270;&#21069;&#35299;&#26512;Bean</text><text fill="#000000" font-family="Consolas" font-size="14" lengthAdjust="spacing" textLength="451" x="16" y="266.7764">AbstractAutowireCapableBeanFactory#resolveBeforeInstantiation</text><polygon fill="#FFFFFF" points="107.5,300.0781,375.5,300.0781,387.5,312.0781,375.5,324.0781,107.5,324.0781,95.5,312.0781,107.5,300.0781" style="stroke:#000000;stroke-width:1.0;"/><text fill="#000000" font-family="Consolas" font-size="14" lengthAdjust="spacing" textLength="268" x="107.5" y="316.9248">&#23454;&#20363;&#21270;&#21069;&#35299;&#26512;Bean&#26159;&#21542;&#36820;&#22238;&#20102;Bean&#23454;&#20363;&#65311;</text><text fill="#000000" font-family="Consolas" font-size="14" lengthAdjust="spacing" textLength="14" x="81.5" y="308.7764">&#26159;</text><text fill="#000000" font-family="Consolas" font-size="14" lengthAdjust="spacing" textLength="14" x="387.5" y="308.7764">&#21542;</text><rect fill="#FFFFFF" height="36.2969" rx="12.5" ry="12.5" style="stroke:#000000;stroke-width:1.0;" width="158" x="6.5" y="334.0781"/><text fill="#000000" font-family="Consolas" font-size="14" lengthAdjust="spacing" textLength="134" x="20.5" y="357.0732">&#36820;&#22238;&#35299;&#26512;&#30340;Bean&#23454;&#20363;</text><rect fill="#FFFFFF" height="100.8906" style="stroke:#000000;stroke-width:1.0;" width="411" x="192" y="334.0781"/><path d="M573,334.0781 L573,343.375 L563,353.375 L192,353.375 " fill="none" style="stroke:#000000;stroke-width:1.0;"/><text fill="#000000" font-family="Consolas" font-size="14" lengthAdjust="spacing" textLength="371" x="195" y="348.0732">AbstractAutowireCapableBeanFactory#doCreateBean</text><rect fill="#FFFFFF" height="52.5938" rx="12.5" ry="12.5" style="stroke:#000000;stroke-width:1.0;" width="391" x="202" y="370.375"/><text fill="#000000" font-family="Consolas" font-size="14" lengthAdjust="spacing" textLength="92" x="216" y="393.3701">&#21019;&#24314;Bean&#23454;&#20363;</text><text fill="#000000" font-family="Consolas" font-size="14" lengthAdjust="spacing" textLength="371" x="212" y="409.667">AbstractAutowireCapableBeanFactory#doCreateBean</text><polygon fill="#FFFFFF" points="241.5,440.9688,253.5,452.9688,241.5,464.9688,229.5,452.9688,241.5,440.9688" style="stroke:#000000;stroke-width:1.0;"/><ellipse cx="241.5" cy="495.9688" fill="#FFFFFF" rx="11" ry="11" style="stroke:#000000;stroke-width:1.0;"/><ellipse cx="241.5" cy="495.9688" fill="#000000" rx="6" ry="6" style="stroke:#7F7F7F;stroke-width:1.0;"/><line style="stroke:#000000;stroke-width:1.0;" x1="241.5" x2="241.5" y1="62.2969" y2="82.2969"/><polygon fill="#000000" points="237.5,72.2969,241.5,82.2969,245.5,72.2969,241.5,76.2969" style="stroke:#000000;stroke-width:1.0;"/><line style="stroke:#000000;stroke-width:1.0;" x1="241.5" x2="241.5" y1="134.8906" y2="154.8906"/><polygon fill="#000000" points="237.5,144.8906,241.5,154.8906,245.5,144.8906,241.5,148.8906" style="stroke:#000000;stroke-width:1.0;"/><line style="stroke:#000000;stroke-width:1.0;" x1="241.5" x2="241.5" y1="207.4844" y2="227.4844"/><polygon fill="#000000" points="237.5,217.4844,241.5,227.4844,245.5,217.4844,241.5,221.4844" style="stroke:#000000;stroke-width:1.0;"/><line style="stroke:#000000;stroke-width:1.0;" x1="95.5" x2="85.5" y1="312.0781" y2="312.0781"/><line style="stroke:#000000;stroke-width:1.0;" x1="85.5" x2="85.5" y1="312.0781" y2="334.0781"/><polygon fill="#000000" points="81.5,324.0781,85.5,334.0781,89.5,324.0781,85.5,328.0781" style="stroke:#000000;stroke-width:1.0;"/><line style="stroke:#000000;stroke-width:1.0;" x1="387.5" x2="397.5" y1="312.0781" y2="312.0781"/><line style="stroke:#000000;stroke-width:1.0;" x1="397.5" x2="397.5" y1="312.0781" y2="370.375"/><polygon fill="#000000" points="393.5,360.375,397.5,370.375,401.5,360.375,397.5,364.375" style="stroke:#000000;stroke-width:1.0;"/><line style="stroke:#000000;stroke-width:1.0;" x1="85.5" x2="85.5" y1="370.375" y2="452.9688"/><line style="stroke:#000000;stroke-width:1.0;" x1="85.5" x2="229.5" y1="452.9688" y2="452.9688"/><polygon fill="#000000" points="219.5,448.9688,229.5,452.9688,219.5,456.9688,223.5,452.9688" style="stroke:#000000;stroke-width:1.0;"/><line style="stroke:#000000;stroke-width:1.0;" x1="397.5" x2="397.5" y1="422.9688" y2="452.9688"/><line style="stroke:#000000;stroke-width:1.0;" x1="397.5" x2="253.5" y1="452.9688" y2="452.9688"/><polygon fill="#000000" points="263.5,448.9688,253.5,452.9688,263.5,456.9688,259.5,452.9688" style="stroke:#000000;stroke-width:1.0;"/><line style="stroke:#000000;stroke-width:1.0;" x1="241.5" x2="241.5" y1="280.0781" y2="300.0781"/><polygon fill="#000000" points="237.5,290.0781,241.5,300.0781,245.5,290.0781,241.5,294.0781" style="stroke:#000000;stroke-width:1.0;"/><line style="stroke:#000000;stroke-width:1.0;" x1="241.5" x2="241.5" y1="464.9688" y2="484.9688"/><polygon fill="#000000" points="237.5,474.9688,241.5,484.9688,245.5,474.9688,241.5,478.9688" style="stroke:#000000;stroke-width:1.0;"/><!--SRC=[ZP6nJW9148PhzYdMq41fOkLLU8R4GYriRHPkJZOUkvUzFOns9WOqI4AXH2N1GeDMMXWBqUZBi0TMleB3eHmcHkasC_zyC__-Sxe4PQ2-nxWWmJONFbEiJ3NN7kIbq1jy3-ZymbJB0PU5dlwtkSQGQqiHI8y590RIN27GYXLrBjHoXokmcSyA7Ym14taiIxMRBYfWEguCBWwYn_t1RPsGG3EboI8Ttbn5dUPNqqPki2c-cTCG1RYr4bDYbOMpfbOrrxMezHGzdBxN6gPw_dDs6LmkkEPIf7q5Q0TMGPUairu1fRW3OyXTf_zQDySjSzH8Zab0VnYRtEHA1Ii2BGdDsMYVHRXBCx-ZexDxq-mEtqvCkzFlLKUbiV3ZvJ9BCJn1CwZ9aXJ-JgmQp-B_95gBW1S0hcXsKRYbPEZF4eKZxKaO8xuvR9ldNeAToVOqn28f40wD3o3uuYucA_rF]--></g></svg>