<?xml version="1.0" encoding="us-ascii" standalone="no"?><svg xmlns="http://www.w3.org/2000/svg" xmlns:xlink="http://www.w3.org/1999/xlink" contentStyleType="text/css" height="718px" preserveAspectRatio="none" style="width:549px;height:718px;background:#FFFFFF;" version="1.1" viewBox="0 0 549 718" width="549px" zoomAndPan="magnify"><defs/><g><text fill="#000000" font-family="Consolas" font-size="14" font-weight="bold" lengthAdjust="spacing" textLength="207" x="169.5" y="27.9951">&#33719;&#21462;&#24212;&#29992;&#19978;&#19979;&#25991;&#20351;&#29992;&#30340;Bean&#24037;&#21378;</text><text fill="#000000" font-family="Consolas" font-size="14" font-weight="bold" lengthAdjust="spacing" textLength="448" x="49" y="44.292">&#65288;AbstractApplicationContext#obtainFreshBeanFactory&#65289;</text><ellipse cx="274.75" cy="68.5938" fill="#FFFFFF" rx="10" ry="10" style="stroke:#000000;stroke-width:1.0;"/><rect fill="#FFFFFF" height="509.0078" style="stroke:#000000;stroke-width:1.0;" width="537" x="6" y="89.3955"/><path d="M538,89.3955 L538,98.6924 L528,108.6924 L6,108.6924 " fill="none" style="stroke:#000000;stroke-width:1.0;"/><text fill="#000000" font-family="Consolas" font-size="14" lengthAdjust="spacing" textLength="522" x="9" y="103.3906">&#21047;&#26032;Bean&#24037;&#21378;&#65306;AbstractRefreshableApplicationContext#refreshBeanFactory</text><rect fill="#FFFFFF" height="52.5938" rx="12.5" ry="12.5" style="stroke:#000000;stroke-width:1.0;" width="314" x="117.75" y="184.4346"/><text fill="#000000" font-family="Consolas" font-size="14" lengthAdjust="spacing" textLength="64" x="127.75" y="207.4297">&#38144;&#27585;Bean</text><text fill="#000000" font-family="Consolas" font-size="14" lengthAdjust="spacing" textLength="294" x="127.75" y="223.7266">AbstractApplicationContext#destroyBeans</text><rect fill="#FFFFFF" height="52.5938" rx="12.5" ry="12.5" style="stroke:#000000;stroke-width:1.0;" width="424" x="62.75" y="272.0283"/><text fill="#000000" font-family="Consolas" font-size="14" lengthAdjust="spacing" textLength="92" x="72.75" y="295.0234">&#20851;&#38381;Bean&#24037;&#21378;</text><text fill="#000000" font-family="Consolas" font-size="14" lengthAdjust="spacing" textLength="404" x="72.75" y="311.3203">AbstractRefreshableApplicationContext#closeBeanFactory</text><polygon fill="#FFFFFF" points="78.75,125.6924,470.75,125.6924,482.75,141.9893,470.75,158.2861,78.75,158.2861,66.75,141.9893,78.75,125.6924" style="stroke:#000000;stroke-width:1.0;"/><text fill="#000000" font-family="Consolas" font-size="14" lengthAdjust="spacing" textLength="14" x="278.75" y="171.2813">&#26159;</text><text fill="#000000" font-family="Consolas" font-size="14" lengthAdjust="spacing" textLength="162" x="78.75" y="138.6875">Bean&#24037;&#21378;&#26159;&#21542;&#24050;&#32463;&#23384;&#22312;&#65311;</text><text fill="#000000" font-family="Consolas" font-size="14" lengthAdjust="spacing" textLength="392" x="78.75" y="154.9844">AbstractRefreshableApplicationContext#hasBeanFactory</text><text fill="#000000" font-family="Consolas" font-size="14" lengthAdjust="spacing" textLength="14" x="482.75" y="138.6875">&#21542;</text><polygon fill="#FFFFFF" points="274.75,344.6221,286.75,356.6221,274.75,368.6221,262.75,356.6221,274.75,344.6221" style="stroke:#000000;stroke-width:1.0;"/><rect fill="#FFFFFF" height="52.5938" rx="12.5" ry="12.5" style="stroke:#000000;stroke-width:1.0;" width="431" x="59.25" y="388.6221"/><text fill="#000000" font-family="Consolas" font-size="14" lengthAdjust="spacing" textLength="92" x="69.25" y="411.6172">&#21019;&#24314;Bean&#24037;&#21378;</text><text fill="#000000" font-family="Consolas" font-size="14" lengthAdjust="spacing" textLength="411" x="69.25" y="427.9141">AbstractRefreshableApplicationContext#createBeanFactory</text><rect fill="#FFFFFF" height="52.5938" rx="12.5" ry="12.5" style="stroke:#000000;stroke-width:1.0;" width="459" x="45.25" y="461.2158"/><text fill="#000000" font-family="Consolas" font-size="14" lengthAdjust="spacing" textLength="106" x="55.25" y="484.2109">&#33258;&#23450;&#20041;Bean&#24037;&#21378;</text><text fill="#000000" font-family="Consolas" font-size="14" lengthAdjust="spacing" textLength="439" x="55.25" y="500.5078">AbstractRefreshableApplicationContext#customizeBeanFactory</text><rect fill="#FFFFFF" height="52.5938" rx="12.5" ry="12.5" style="stroke:#000000;stroke-width:1.0;" width="439" x="55.25" y="533.8096"/><text fill="#000000" font-family="Consolas" font-size="14" lengthAdjust="spacing" textLength="92" x="65.25" y="556.8047">&#21152;&#36733;Bean&#23450;&#20041;</text><text fill="#000000" font-family="Consolas" font-size="14" lengthAdjust="spacing" textLength="419" x="65.25" y="573.1016">AbstractRefreshableApplicationContext#loadBeanDefinitions</text><rect fill="#FFFFFF" height="52.5938" rx="12.5" ry="12.5" style="stroke:#000000;stroke-width:1.0;" width="327" x="111.25" y="618.4033"/><text fill="#000000" font-family="Consolas" font-size="14" lengthAdjust="spacing" textLength="92" x="121.25" y="641.3984">&#36820;&#22238;Bean&#24037;&#21378;</text><text fill="#000000" font-family="Consolas" font-size="14" lengthAdjust="spacing" textLength="307" x="121.25" y="657.6953">AbstractApplicationContext#getBeanFactory</text><ellipse cx="274.75" cy="701.9971" fill="#FFFFFF" rx="11" ry="11" style="stroke:#000000;stroke-width:1.0;"/><ellipse cx="274.75" cy="701.9971" fill="#000000" rx="6" ry="6" style="stroke:#7F7F7F;stroke-width:1.0;"/><line style="stroke:#000000;stroke-width:1.0;" x1="274.75" x2="274.75" y1="237.0283" y2="272.0283"/><polygon fill="#000000" points="270.75,262.0283,274.75,272.0283,278.75,262.0283,274.75,266.0283" style="stroke:#000000;stroke-width:1.0;"/><line style="stroke:#000000;stroke-width:1.0;" x1="274.75" x2="274.75" y1="158.2861" y2="184.4346"/><polygon fill="#000000" points="270.75,174.4346,274.75,184.4346,278.75,174.4346,274.75,178.4346" style="stroke:#000000;stroke-width:1.0;"/><line style="stroke:#000000;stroke-width:1.0;" x1="482.75" x2="496.75" y1="141.9893" y2="141.9893"/><polygon fill="#000000" points="492.75,242.3799,496.75,252.3799,500.75,242.3799,496.75,246.3799" style="stroke:#000000;stroke-width:1.0;"/><line style="stroke:#000000;stroke-width:1.0;" x1="496.75" x2="496.75" y1="141.9893" y2="356.6221"/><line style="stroke:#000000;stroke-width:1.0;" x1="496.75" x2="286.75" y1="356.6221" y2="356.6221"/><polygon fill="#000000" points="296.75,352.6221,286.75,356.6221,296.75,360.6221,292.75,356.6221" style="stroke:#000000;stroke-width:1.0;"/><line style="stroke:#000000;stroke-width:1.0;" x1="274.75" x2="274.75" y1="324.6221" y2="344.6221"/><polygon fill="#000000" points="270.75,334.6221,274.75,344.6221,278.75,334.6221,274.75,338.6221" style="stroke:#000000;stroke-width:1.0;"/><line style="stroke:#000000;stroke-width:1.0;" x1="274.75" x2="274.75" y1="368.6221" y2="388.6221"/><polygon fill="#000000" points="270.75,378.6221,274.75,388.6221,278.75,378.6221,274.75,382.6221" style="stroke:#000000;stroke-width:1.0;"/><line style="stroke:#000000;stroke-width:1.0;" x1="274.75" x2="274.75" y1="441.2158" y2="461.2158"/><polygon fill="#000000" points="270.75,451.2158,274.75,461.2158,278.75,451.2158,274.75,455.2158" style="stroke:#000000;stroke-width:1.0;"/><line style="stroke:#000000;stroke-width:1.0;" x1="274.75" x2="274.75" y1="513.8096" y2="533.8096"/><polygon fill="#000000" points="270.75,523.8096,274.75,533.8096,278.75,523.8096,274.75,527.8096" style="stroke:#000000;stroke-width:1.0;"/><line style="stroke:#000000;stroke-width:1.0;" x1="274.75" x2="274.75" y1="78.5938" y2="125.6924"/><polygon fill="#000000" points="270.75,115.6924,274.75,125.6924,278.75,115.6924,274.75,119.6924" style="stroke:#000000;stroke-width:1.0;"/><line style="stroke:#000000;stroke-width:1.0;" x1="274.75" x2="274.75" y1="586.4033" y2="618.4033"/><polygon fill="#000000" points="270.75,608.4033,274.75,618.4033,278.75,608.4033,274.75,612.4033" style="stroke:#000000;stroke-width:1.0;"/><line style="stroke:#000000;stroke-width:1.0;" x1="274.75" x2="274.75" y1="670.9971" y2="690.9971"/><polygon fill="#000000" points="270.75,680.9971,274.75,690.9971,278.75,680.9971,274.75,684.9971" style="stroke:#000000;stroke-width:1.0;"/><!--SRC=[dT9BIq9160RW_VoAYJQw35hfoWgNBMhhPjJlwD0uSpWpGhQgABm4sa9CBAfD8O4PjT2yu9znlApy2yqnmYC8YSlXdU_XdSkMIa8AiCq8vKYUK6uJXwImeef1M71rJCy0x-nweZXO9CtKl-4XCUw-u58m8j4Sn9DYIvSgkbCUb-l3Tc7OlXbLiiF-m2p7jQiz85otNdJnCi9dlLmeAfL3OYfasup6YAA26qx1gTeMKMNwXXsGINSeR7O99pFhvP5Kn54euOYqZNMkDQfyBDHPh_Pd7e7b3fCeWnMyyvjwQ4Gjx5j8esfJtxxgrkUuMzADgdweptfF4RwUdYJI8_knUG6EVORqey2qV3vgNhZnGbj1nC548kFkaq4KqDTVqxk6z_hMQn9ZGeAdIn01au1zvcn-X837gMNmtBtkTZR07I1gMGzCic_wlJRypc_0fQKIAVFXbaLTU9xq-tDk3g_BCK7YxjG1M9HJDp4NQKwCvr_7D1sKzVtZgfehi0IefLQcgVq3]--></g></svg>