<?xml version="1.0" encoding="us-ascii" standalone="no"?><svg xmlns="http://www.w3.org/2000/svg" xmlns:xlink="http://www.w3.org/1999/xlink" contentStyleType="text/css" height="94px" preserveAspectRatio="none" style="width:749px;height:94px;background:#FFFFFF;" version="1.1" viewBox="0 0 749 94" width="749px" zoomAndPan="magnify"><defs/><g><!--class BeanDefinitionRegistry--><g id="elem_BeanDefinitionRegistry"><rect codeLine="1" fill="#F1F1F1" height="64.2969" id="BeanDefinitionRegistry" rx="2.5" ry="2.5" style="stroke:#181818;stroke-width:0.5;" width="339" x="7" y="15.14"/><ellipse cx="93.75" cy="31.14" fill="#B4A7E5" rx="11" ry="11" style="stroke:#181818;stroke-width:1.0;"/><path d="M89.6719,26.9056 L89.6719,24.7494 L97.0625,24.7494 L97.0625,26.9056 L94.5938,26.9056 L94.5938,34.9838 L97.0625,34.9838 L97.0625,37.14 L89.6719,37.14 L89.6719,34.9838 L92.1406,34.9838 L92.1406,26.9056 L89.6719,26.9056 Z " fill="#000000"/><text fill="#000000" font-family="sans-serif" font-size="14" font-style="italic" lengthAdjust="spacing" textLength="157" x="114.25" y="35.9867">BeanDefinitionRegistry</text><line style="stroke:#181818;stroke-width:0.5;" x1="8" x2="345" y1="47.14" y2="47.14"/><line style="stroke:#181818;stroke-width:0.5;" x1="8" x2="345" y1="55.14" y2="55.14"/><ellipse cx="18" cy="68.7884" fill="#84BE84" rx="3" ry="3" style="stroke:#038048;stroke-width:1.0;"/><text fill="#000000" font-family="sans-serif" font-size="14" lengthAdjust="spacing" textLength="313" x="27" y="72.1351">registerBeanDefinition(String, BeanDefinition)</text></g><!--class DefaultListableBeanFactory--><g id="elem_DefaultListableBeanFactory"><rect codeLine="5" fill="#F1F1F1" height="80.5938" id="DefaultListableBeanFactory" rx="2.5" ry="2.5" style="stroke:#181818;stroke-width:0.5;" width="361" x="381" y="7"/><ellipse cx="463.75" cy="23" fill="#ADD1B2" rx="11" ry="11" style="stroke:#181818;stroke-width:1.0;"/><path d="M466.7188,28.6406 Q466.1406,28.9375 465.5,29.0781 Q464.8594,29.2344 464.1563,29.2344 Q461.6563,29.2344 460.3281,27.5938 Q459.0156,25.9375 459.0156,22.8125 Q459.0156,19.6875 460.3281,18.0313 Q461.6563,16.375 464.1563,16.375 Q464.8594,16.375 465.5,16.5313 Q466.1563,16.6875 466.7188,16.9844 L466.7188,19.7031 Q466.0938,19.125 465.5,18.8594 Q464.9063,18.5781 464.2813,18.5781 Q462.9375,18.5781 462.25,19.6563 Q461.5625,20.7188 461.5625,22.8125 Q461.5625,24.9063 462.25,25.9844 Q462.9375,27.0469 464.2813,27.0469 Q464.9063,27.0469 465.5,26.7813 Q466.0938,26.5 466.7188,25.9219 L466.7188,28.6406 Z " fill="#000000"/><text fill="#000000" font-family="sans-serif" font-size="14" lengthAdjust="spacing" textLength="187" x="484.25" y="27.8467">DefaultListableBeanFactory</text><line style="stroke:#181818;stroke-width:0.5;" x1="382" x2="741" y1="39" y2="39"/><ellipse cx="392" cy="52.6484" fill="none" rx="3" ry="3" style="stroke:#038048;stroke-width:1.0;"/><text fill="#000000" font-family="sans-serif" font-size="14" lengthAdjust="spacing" textLength="335" x="401" y="55.9951">Map&lt;String, BeanDefinition&gt; beanDefinitionMap</text><line style="stroke:#181818;stroke-width:0.5;" x1="382" x2="741" y1="63.2969" y2="63.2969"/><ellipse cx="392" cy="76.9453" fill="#84BE84" rx="3" ry="3" style="stroke:#038048;stroke-width:1.0;"/><text fill="#000000" font-family="sans-serif" font-size="14" lengthAdjust="spacing" textLength="313" x="401" y="80.292">registerBeanDefinition(String, BeanDefinition)</text></g><!--reverse link BeanDefinitionRegistry to DefaultListableBeanFactory--><g id="link_BeanDefinitionRegistry_DefaultListableBeanFactory"><path codeLine="10" d="M367.43,47.29 C371.91,47.29 376.4,47.29 380.88,47.29 " fill="none" id="BeanDefinitionRegistry-backto-DefaultListableBeanFactory" style="stroke:#181818;stroke-width:1.0;stroke-dasharray:7.0,7.0;"/><polygon fill="none" points="367.44,54.29,347.44,47.29,367.44,40.29,367.44,54.29" style="stroke:#181818;stroke-width:1.0;"/></g><!--SRC=[oymhIIrAIqnELN1AJSnpIKtBpCiioSpF2qfDpomkAQfKgERYr5Oe0lDIYr3LQ0IN56NcfUkWQTNagkNYIiv9B2vM00ecbkQK-00r9oRbf8BKkIKcb-J3pFLDBB31ReYTGX8A7wYIF8VWSO9UZbwD7Gv_0m00]--></g></svg>