<?xml version="1.0" encoding="us-ascii" standalone="no"?><svg xmlns="http://www.w3.org/2000/svg" xmlns:xlink="http://www.w3.org/1999/xlink" contentStyleType="text/css" height="321px" preserveAspectRatio="none" style="width:243px;height:321px;background:#FFFFFF;" version="1.1" viewBox="0 0 243 321" width="243px" zoomAndPan="magnify"><defs/><g><text fill="#000000" font-family="sans-serif" font-size="14" font-weight="bold" lengthAdjust="spacing" textLength="53" x="88.25" y="22.9951">Vector</text><!--class List--><g id="elem_List"><rect codeLine="2" fill="#F1F1F1" height="48" id="List" rx="2.5" ry="2.5" style="stroke:#181818;stroke-width:0.5;" width="55" x="181.5" y="44.2969"/><ellipse cx="196.5" cy="60.2969" fill="#B4A7E5" rx="11" ry="11" style="stroke:#181818;stroke-width:1.0;"/><path d="M192.4219,56.0625 L192.4219,53.9063 L199.8125,53.9063 L199.8125,56.0625 L197.3438,56.0625 L197.3438,64.1406 L199.8125,64.1406 L199.8125,66.2969 L192.4219,66.2969 L192.4219,64.1406 L194.8906,64.1406 L194.8906,56.0625 L192.4219,56.0625 Z " fill="#000000"/><text fill="#000000" font-family="sans-serif" font-size="14" font-style="italic" lengthAdjust="spacing" textLength="23" x="210.5" y="65.1436">List</text><line style="stroke:#181818;stroke-width:0.5;" x1="182.5" x2="235.5" y1="76.2969" y2="76.2969"/><line style="stroke:#181818;stroke-width:0.5;" x1="182.5" x2="235.5" y1="84.2969" y2="84.2969"/></g><!--class RandomAccess--><g id="elem_RandomAccess"><rect codeLine="3" fill="#F1F1F1" height="48" id="RandomAccess" rx="2.5" ry="2.5" style="stroke:#181818;stroke-width:0.5;" width="140" x="7" y="44.2969"/><ellipse cx="22" cy="60.2969" fill="#B4A7E5" rx="11" ry="11" style="stroke:#181818;stroke-width:1.0;"/><path d="M17.9219,56.0625 L17.9219,53.9063 L25.3125,53.9063 L25.3125,56.0625 L22.8438,56.0625 L22.8438,64.1406 L25.3125,64.1406 L25.3125,66.2969 L17.9219,66.2969 L17.9219,64.1406 L20.3906,64.1406 L20.3906,56.0625 L17.9219,56.0625 Z " fill="#000000"/><text fill="#000000" font-family="sans-serif" font-size="14" font-style="italic" lengthAdjust="spacing" textLength="108" x="36" y="65.1436">RandomAccess</text><line style="stroke:#181818;stroke-width:0.5;" x1="8" x2="146" y1="76.2969" y2="76.2969"/><line style="stroke:#181818;stroke-width:0.5;" x1="8" x2="146" y1="84.2969" y2="84.2969"/></g><!--class Vector--><g id="elem_Vector"><rect codeLine="4" fill="#F1F1F1" height="162.0781" id="Vector" rx="2.5" ry="2.5" style="stroke:#181818;stroke-width:0.5;" width="174" x="56" y="152.2969"/><ellipse cx="116.25" cy="168.2969" fill="#ADD1B2" rx="11" ry="11" style="stroke:#181818;stroke-width:1.0;"/><path d="M119.2188,173.9375 Q118.6406,174.2344 118,174.375 Q117.3594,174.5312 116.6563,174.5312 Q114.1563,174.5312 112.8281,172.8906 Q111.5156,171.2344 111.5156,168.1094 Q111.5156,164.9844 112.8281,163.3281 Q114.1563,161.6719 116.6563,161.6719 Q117.3594,161.6719 118,161.8281 Q118.6563,161.9844 119.2188,162.2812 L119.2188,165 Q118.5938,164.4219 118,164.1562 Q117.4063,163.875 116.7813,163.875 Q115.4375,163.875 114.75,164.9531 Q114.0625,166.0156 114.0625,168.1094 Q114.0625,170.2031 114.75,171.2812 Q115.4375,172.3437 116.7813,172.3437 Q117.4063,172.3437 118,172.0781 Q118.5938,171.7969 119.2188,171.2187 L119.2188,173.9375 Z " fill="#000000"/><text fill="#000000" font-family="sans-serif" font-size="14" lengthAdjust="spacing" textLength="45" x="136.75" y="173.1436">Vector</text><line style="stroke:#181818;stroke-width:0.5;" x1="57" x2="229" y1="184.2969" y2="184.2969"/><polygon fill="none" points="67,192.9453,71,196.9453,67,200.9453,63,196.9453" style="stroke:#B38D22;stroke-width:1.0;"/><text fill="#000000" font-family="sans-serif" font-size="14" lengthAdjust="spacing" textLength="148" x="76" y="201.292">Object[] elementData</text><polygon fill="none" points="67,209.2422,71,213.2422,67,217.2422,63,213.2422" style="stroke:#B38D22;stroke-width:1.0;"/><text fill="#000000" font-family="sans-serif" font-size="14" lengthAdjust="spacing" textLength="120" x="76" y="217.5889">int elementCount</text><polygon fill="none" points="67,225.5391,71,229.5391,67,233.5391,63,229.5391" style="stroke:#B38D22;stroke-width:1.0;"/><text fill="#000000" font-family="sans-serif" font-size="14" lengthAdjust="spacing" textLength="147" x="76" y="233.8857">int capacityIncrement</text><polygon fill="none" points="67,241.8359,71,245.8359,67,249.8359,63,245.8359" style="stroke:#B38D22;stroke-width:1.0;"/><text fill="#000000" font-family="sans-serif" font-size="14" lengthAdjust="spacing" textLength="94" x="76" y="250.1826">int modCount</text><line style="stroke:#181818;stroke-width:0.5;" x1="57" x2="229" y1="257.4844" y2="257.4844"/><ellipse cx="67" cy="271.1328" fill="#84BE84" rx="3" ry="3" style="stroke:#038048;stroke-width:1.0;"/><text fill="#000000" font-family="sans-serif" font-size="14" lengthAdjust="spacing" textLength="105" x="76" y="274.4795">add(E) boolean</text><ellipse cx="67" cy="287.4297" fill="#84BE84" rx="3" ry="3" style="stroke:#038048;stroke-width:1.0;"/><text fill="#000000" font-family="sans-serif" font-size="14" lengthAdjust="spacing" textLength="63" x="76" y="290.7764">get(int) E</text><ellipse cx="67" cy="303.7266" fill="#84BE84" rx="3" ry="3" style="stroke:#038048;stroke-width:1.0;"/><text fill="#000000" font-family="sans-serif" font-size="14" lengthAdjust="spacing" textLength="145" x="76" y="307.0732">iterator() Iterator&lt;E&gt;</text></g><!--reverse link List to Vector--><g id="link_List_Vector"><path codeLine="13" d="M191.83,111.7069 C186.82,124.0869 181.18,138.0369 175.55,151.9369 " fill="none" id="List-backto-Vector" style="stroke:#181818;stroke-width:1.0;stroke-dasharray:7.0,7.0;"/><polygon fill="none" points="185.55,109.5669,199.54,93.6569,198.53,114.8269,185.55,109.5669" style="stroke:#181818;stroke-width:1.0;"/></g><!--reverse link RandomAccess to Vector--><g id="link_RandomAccess_Vector"><path codeLine="14" d="M94.17,111.7069 C99.18,124.0869 104.82,138.0369 110.45,151.9369 " fill="none" id="RandomAccess-backto-Vector" style="stroke:#181818;stroke-width:1.0;stroke-dasharray:7.0,7.0;"/><polygon fill="none" points="87.47,114.8269,86.46,93.6569,100.45,109.5669,87.47,114.8269" style="stroke:#181818;stroke-width:1.0;"/></g><!--SRC=[LOz12y8m38NFzbS4l6m8-mKo4DrXC10yU14FMHgbqhMoPWTH_xkTTZ1lUTzx2IzYn38ScSJtoZZX_eB4q9WWCtb0ftst8U8G55aC8Qt0KosMi6zlKPtEm9OxTh93mP770nFQ-i79n0ZlI4OUjQF-wqv6vtKAhW2rpgeSMkyjenl9bIMBgHogKPbO3cE5B8SwZUkgL6-LcXL3yIf_Z_oH-IyV]--></g></svg>