<?xml version="1.0" encoding="us-ascii" standalone="no"?><svg xmlns="http://www.w3.org/2000/svg" xmlns:xlink="http://www.w3.org/1999/xlink" contentStyleType="text/css" height="274px" preserveAspectRatio="none" style="width:365px;height:274px;background:#FFFFFF;" version="1.1" viewBox="0 0 365 274" width="365px" zoomAndPan="magnify"><defs/><g><!--class Queue--><g id="elem_Queue"><rect codeLine="5" fill="#FFFFFF" height="44" id="Queue" rx="2.5" ry="2.5" style="stroke:#000000;stroke-width:1.0;" width="88" x="170.5" y="15"/><ellipse cx="183.5" cy="29" fill="#FFFFFF" rx="9" ry="9" style="stroke:#000000;stroke-width:1.0;"/><path d="M180.6719,25.5781 L180.6719,23.7969 L186.75,23.7969 L186.75,25.5781 L184.7188,25.5781 L184.7188,32.2188 L186.75,32.2188 L186.75,34 L180.6719,34 L180.6719,32.2188 L182.7031,32.2188 L182.7031,25.5781 L180.6719,25.5781 Z " fill="#000000"/><text fill="#000000" font-family="Consolas" font-size="14" font-style="italic" lengthAdjust="spacing" textLength="47" x="195.5" y="33.8467">Queue</text><rect fill="#FFFFFF" height="18.2969" style="stroke:#000000;stroke-width:1.0;stroke-dasharray:2.0,2.0;" width="11" x="250.5" y="12"/><text fill="#000000" font-family="Verdana" font-size="14" font-style="italic" lengthAdjust="spacing" textLength="9" x="251.5" y="25.9951">E</text><line style="stroke:#000000;stroke-width:1.0;" x1="171.5" x2="257.5" y1="43" y2="43"/><line style="stroke:#000000;stroke-width:1.0;" x1="171.5" x2="257.5" y1="51" y2="51"/></g><!--class Deque--><g id="elem_Deque"><rect codeLine="6" fill="#FFFFFF" height="44" id="Deque" rx="2.5" ry="2.5" style="stroke:#000000;stroke-width:1.0;" width="88" x="97.5" y="119"/><ellipse cx="110.5" cy="133" fill="#FFFFFF" rx="9" ry="9" style="stroke:#000000;stroke-width:1.0;"/><path d="M107.6719,129.5781 L107.6719,127.7969 L113.75,127.7969 L113.75,129.5781 L111.7188,129.5781 L111.7188,136.2188 L113.75,136.2188 L113.75,138 L107.6719,138 L107.6719,136.2188 L109.7031,136.2188 L109.7031,129.5781 L107.6719,129.5781 Z " fill="#000000"/><text fill="#000000" font-family="Consolas" font-size="14" font-style="italic" lengthAdjust="spacing" textLength="47" x="122.5" y="137.8467">Deque</text><rect fill="#FFFFFF" height="18.2969" style="stroke:#000000;stroke-width:1.0;stroke-dasharray:2.0,2.0;" width="11" x="177.5" y="116"/><text fill="#000000" font-family="Verdana" font-size="14" font-style="italic" lengthAdjust="spacing" textLength="9" x="178.5" y="129.9951">E</text><line style="stroke:#000000;stroke-width:1.0;" x1="98.5" x2="184.5" y1="147" y2="147"/><line style="stroke:#000000;stroke-width:1.0;" x1="98.5" x2="184.5" y1="155" y2="155"/></g><!--class LinkedList--><g id="elem_LinkedList"><rect codeLine="7" fill="#FFFFFF" height="44" id="LinkedList" rx="2.5" ry="2.5" style="stroke:#000000;stroke-width:1.0;" width="109" x="12" y="223"/><ellipse cx="25" cy="237" fill="#FFFFFF" rx="9" ry="9" style="stroke:#000000;stroke-width:1.0;"/><path d="M27.3906,241.7031 Q26.9063,241.9531 26.375,242.0781 Q25.8594,242.2031 25.2813,242.2031 Q23.2188,242.2031 22.125,240.8438 Q21.0469,239.4844 21.0469,236.9063 Q21.0469,234.3281 22.125,232.9688 Q23.2188,231.6094 25.2813,231.6094 Q25.8594,231.6094 26.3906,231.7344 Q26.9219,231.8594 27.3906,232.0938 L27.3906,234.3438 Q26.875,233.8594 26.375,233.6406 Q25.8906,233.4219 25.375,233.4219 Q24.2656,233.4219 23.7031,234.2969 Q23.1406,235.1719 23.1406,236.9063 Q23.1406,238.625 23.7031,239.5156 Q24.2656,240.3906 25.375,240.3906 Q25.8906,240.3906 26.375,240.1719 Q26.875,239.9375 27.3906,239.4688 L27.3906,241.7031 Z " fill="#000000"/><text fill="#000000" font-family="Consolas" font-size="14" lengthAdjust="spacing" textLength="68" x="37" y="241.8467">LinkedList</text><rect fill="#FFFFFF" height="18.2969" style="stroke:#000000;stroke-width:1.0;stroke-dasharray:2.0,2.0;" width="11" x="113" y="220"/><text fill="#000000" font-family="Verdana" font-size="14" font-style="italic" lengthAdjust="spacing" textLength="9" x="114" y="233.9951">E</text><line style="stroke:#000000;stroke-width:1.0;" x1="13" x2="120" y1="251" y2="251"/><line style="stroke:#000000;stroke-width:1.0;" x1="13" x2="120" y1="259" y2="259"/></g><!--class ArrayDeque--><g id="elem_ArrayDeque"><rect codeLine="8" fill="#FFFFFF" height="44" id="ArrayDeque" rx="2.5" ry="2.5" style="stroke:#000000;stroke-width:1.0;" width="122" x="155.5" y="223"/><ellipse cx="168.5" cy="237" fill="#FFFFFF" rx="9" ry="9" style="stroke:#000000;stroke-width:1.0;"/><path d="M170.8906,241.7031 Q170.4063,241.9531 169.875,242.0781 Q169.3594,242.2031 168.7813,242.2031 Q166.7188,242.2031 165.625,240.8438 Q164.5469,239.4844 164.5469,236.9063 Q164.5469,234.3281 165.625,232.9688 Q166.7188,231.6094 168.7813,231.6094 Q169.3594,231.6094 169.8906,231.7344 Q170.4219,231.8594 170.8906,232.0938 L170.8906,234.3438 Q170.375,233.8594 169.875,233.6406 Q169.3906,233.4219 168.875,233.4219 Q167.7656,233.4219 167.2031,234.2969 Q166.6406,235.1719 166.6406,236.9063 Q166.6406,238.625 167.2031,239.5156 Q167.7656,240.3906 168.875,240.3906 Q169.3906,240.3906 169.875,240.1719 Q170.375,239.9375 170.8906,239.4688 L170.8906,241.7031 Z " fill="#000000"/><text fill="#000000" font-family="Consolas" font-size="14" lengthAdjust="spacing" textLength="81" x="180.5" y="241.8467">ArrayDeque</text><rect fill="#FFFFFF" height="18.2969" style="stroke:#000000;stroke-width:1.0;stroke-dasharray:2.0,2.0;" width="11" x="269.5" y="220"/><text fill="#000000" font-family="Verdana" font-size="14" font-style="italic" lengthAdjust="spacing" textLength="9" x="270.5" y="233.9951">E</text><line style="stroke:#000000;stroke-width:1.0;" x1="156.5" x2="276.5" y1="251" y2="251"/><line style="stroke:#000000;stroke-width:1.0;" x1="156.5" x2="276.5" y1="259" y2="259"/></g><!--class PriorityQueue--><g id="elem_PriorityQueue"><rect codeLine="9" fill="#FFFFFF" height="44" id="PriorityQueue" rx="2.5" ry="2.5" style="stroke:#000000;stroke-width:1.0;" width="134" x="220.5" y="119"/><ellipse cx="233.5" cy="133" fill="#FFFFFF" rx="9" ry="9" style="stroke:#000000;stroke-width:1.0;"/><path d="M235.8906,137.7031 Q235.4063,137.9531 234.875,138.0781 Q234.3594,138.2031 233.7813,138.2031 Q231.7188,138.2031 230.625,136.8438 Q229.5469,135.4844 229.5469,132.9063 Q229.5469,130.3281 230.625,128.9688 Q231.7188,127.6094 233.7813,127.6094 Q234.3594,127.6094 234.8906,127.7344 Q235.4219,127.8594 235.8906,128.0938 L235.8906,130.3438 Q235.375,129.8594 234.875,129.6406 Q234.3906,129.4219 233.875,129.4219 Q232.7656,129.4219 232.2031,130.2969 Q231.6406,131.1719 231.6406,132.9063 Q231.6406,134.625 232.2031,135.5156 Q232.7656,136.3906 233.875,136.3906 Q234.3906,136.3906 234.875,136.1719 Q235.375,135.9375 235.8906,135.4688 L235.8906,137.7031 Z " fill="#000000"/><text fill="#000000" font-family="Consolas" font-size="14" lengthAdjust="spacing" textLength="93" x="245.5" y="137.8467">PriorityQueue</text><rect fill="#FFFFFF" height="18.2969" style="stroke:#000000;stroke-width:1.0;stroke-dasharray:2.0,2.0;" width="11" x="346.5" y="116"/><text fill="#000000" font-family="Verdana" font-size="14" font-style="italic" lengthAdjust="spacing" textLength="9" x="347.5" y="129.9951">E</text><line style="stroke:#000000;stroke-width:1.0;" x1="221.5" x2="353.5" y1="147" y2="147"/><line style="stroke:#000000;stroke-width:1.0;" x1="221.5" x2="353.5" y1="155" y2="155"/></g><!--reverse link Queue to Deque--><g id="link_Queue_Deque"><path codeLine="11" d="M187.2,76.14 C176.95,90.47 165.65,106.25 156.86,118.54 " fill="none" id="Queue-backto-Deque" style="stroke:#000000;stroke-width:1.0;"/><polygon fill="none" points="182.04,72.32,199.37,60.13,193.43,80.47,182.04,72.32" style="stroke:#000000;stroke-width:1.0;"/></g><!--reverse link Deque to LinkedList--><g id="link_Deque_LinkedList"><path codeLine="12" d="M113.81,179.66 C103.18,194.12 91.41,210.12 82.28,222.54 " fill="none" id="Deque-backto-LinkedList" style="stroke:#000000;stroke-width:1.0;stroke-dasharray:7.0,7.0;"/><polygon fill="none" points="108.47,176.1,125.96,164.13,119.75,184.39,108.47,176.1" style="stroke:#000000;stroke-width:1.0;"/></g><!--reverse link Deque to ArrayDeque--><g id="link_Deque_ArrayDeque"><path codeLine="13" d="M169.19,179.66 C179.82,194.12 191.59,210.12 200.72,222.54 " fill="none" id="Deque-backto-ArrayDeque" style="stroke:#000000;stroke-width:1.0;stroke-dasharray:7.0,7.0;"/><polygon fill="none" points="163.25,184.39,157.04,164.13,174.53,176.1,163.25,184.39" style="stroke:#000000;stroke-width:1.0;"/></g><!--reverse link Queue to PriorityQueue--><g id="link_Queue_PriorityQueue"><path codeLine="14" d="M241.8,76.14 C252.05,90.47 263.35,106.25 272.14,118.54 " fill="none" id="Queue-backto-PriorityQueue" style="stroke:#000000;stroke-width:1.0;stroke-dasharray:7.0,7.0;"/><polygon fill="none" points="235.57,80.47,229.63,60.13,246.96,72.32,235.57,80.47" style="stroke:#000000;stroke-width:1.0;"/></g><!--SRC=[XOrD2i8m44RtESLuW1O4br8GVrP554ymj5CScYOrcImg7jxGYcdTk1lUztYpaZjr1Br6DigtR7fqs86mQ3fP8pT-4gmtiwcc1eEMl-CPOtTlZRSQlM8Zv1gi2Aw10csFnGmTw36XAgeUIZOjrILxIMpd70u_tiMnTIp3jwX60RAGlOhfZqejo4CUyQYeb5lWHV6pZFSR]--></g></svg>