<?xml version="1.0" encoding="us-ascii" standalone="no"?><svg xmlns="http://www.w3.org/2000/svg" xmlns:xlink="http://www.w3.org/1999/xlink" contentStyleType="text/css" height="310px" preserveAspectRatio="none" style="width:1176px;height:310px;background:#FFFFFF;" version="1.1" viewBox="0 0 1176 310" width="1176px" zoomAndPan="magnify"><defs/><g><!--class Resource--><g id="elem_Resource"><rect codeLine="1" fill="#F1F1F1" height="64.2969" id="Resource" rx="2.5" ry="2.5" style="stroke:#181818;stroke-width:0.5;" width="231" x="281" y="7"/><ellipse cx="358.75" cy="23" fill="#B4A7E5" rx="11" ry="11" style="stroke:#181818;stroke-width:1.0;"/><path d="M354.6719,18.7656 L354.6719,16.6094 L362.0625,16.6094 L362.0625,18.7656 L359.5938,18.7656 L359.5938,26.8438 L362.0625,26.8438 L362.0625,29 L354.6719,29 L354.6719,26.8438 L357.1406,26.8438 L357.1406,18.7656 L354.6719,18.7656 Z " fill="#000000"/><text fill="#000000" font-family="sans-serif" font-size="14" font-style="italic" lengthAdjust="spacing" textLength="67" x="379.25" y="27.8467">Resource</text><line style="stroke:#181818;stroke-width:0.5;" x1="282" x2="511" y1="39" y2="39"/><line style="stroke:#181818;stroke-width:0.5;" x1="282" x2="511" y1="47" y2="47"/><ellipse cx="292" cy="60.6484" fill="#84BE84" rx="3" ry="3" style="stroke:#038048;stroke-width:1.0;"/><text fill="#000000" font-family="sans-serif" font-size="14" lengthAdjust="spacing" textLength="205" x="301" y="63.9951">getInputStream() InputStream</text></g><!--class ResourceLoader--><g id="elem_ResourceLoader"><rect codeLine="5" fill="#F1F1F1" height="64.2969" id="ResourceLoader" rx="2.5" ry="2.5" style="stroke:#181818;stroke-width:0.5;" width="237" x="644" y="7"/><ellipse cx="701.25" cy="23" fill="#B4A7E5" rx="11" ry="11" style="stroke:#181818;stroke-width:1.0;"/><path d="M697.1719,18.7656 L697.1719,16.6094 L704.5625,16.6094 L704.5625,18.7656 L702.0938,18.7656 L702.0938,26.8438 L704.5625,26.8438 L704.5625,29 L697.1719,29 L697.1719,26.8438 L699.6406,26.8438 L699.6406,18.7656 L697.1719,18.7656 Z " fill="#000000"/><text fill="#000000" font-family="sans-serif" font-size="14" font-style="italic" lengthAdjust="spacing" textLength="114" x="721.75" y="27.8467">ResourceLoader</text><line style="stroke:#181818;stroke-width:0.5;" x1="645" x2="880" y1="39" y2="39"/><line style="stroke:#181818;stroke-width:0.5;" x1="645" x2="880" y1="47" y2="47"/><ellipse cx="655" cy="60.6484" fill="#84BE84" rx="3" ry="3" style="stroke:#038048;stroke-width:1.0;"/><text fill="#000000" font-family="sans-serif" font-size="14" lengthAdjust="spacing" textLength="211" x="664" y="63.9951">getResource(String) Resource</text></g><!--class ResourcePatternResolver--><g id="elem_ResourcePatternResolver"><rect codeLine="9" fill="#F1F1F1" height="64.2969" id="ResourcePatternResolver" rx="2.5" ry="2.5" style="stroke:#181818;stroke-width:0.5;" width="255" x="635" y="131.29"/><ellipse cx="670.7" cy="147.29" fill="#B4A7E5" rx="11" ry="11" style="stroke:#181818;stroke-width:1.0;"/><path d="M666.6219,143.0556 L666.6219,140.8994 L674.0125,140.8994 L674.0125,143.0556 L671.5438,143.0556 L671.5438,151.1337 L674.0125,151.1337 L674.0125,153.29 L666.6219,153.29 L666.6219,151.1337 L669.0906,151.1337 L669.0906,143.0556 L666.6219,143.0556 Z " fill="#000000"/><text fill="#000000" font-family="sans-serif" font-size="14" font-style="italic" lengthAdjust="spacing" textLength="177" x="689.3" y="152.1367">ResourcePatternResolver</text><line style="stroke:#181818;stroke-width:0.5;" x1="636" x2="889" y1="163.29" y2="163.29"/><line style="stroke:#181818;stroke-width:0.5;" x1="636" x2="889" y1="171.29" y2="171.29"/><ellipse cx="646" cy="184.9384" fill="#84BE84" rx="3" ry="3" style="stroke:#038048;stroke-width:1.0;"/><text fill="#000000" font-family="sans-serif" font-size="14" lengthAdjust="spacing" textLength="229" x="655" y="188.2851">getResources(String) Resource[]</text></g><!--class ContextResource--><g id="elem_ContextResource"><rect codeLine="12" fill="#F1F1F1" height="48" id="ContextResource" rx="2.5" ry="2.5" style="stroke:#181818;stroke-width:0.5;" width="153" x="93" y="15.14"/><ellipse cx="108" cy="31.14" fill="#B4A7E5" rx="11" ry="11" style="stroke:#181818;stroke-width:1.0;"/><path d="M103.9219,26.9056 L103.9219,24.7494 L111.3125,24.7494 L111.3125,26.9056 L108.8438,26.9056 L108.8438,34.9837 L111.3125,34.9837 L111.3125,37.14 L103.9219,37.14 L103.9219,34.9837 L106.3906,34.9837 L106.3906,26.9056 L103.9219,26.9056 Z " fill="#000000"/><text fill="#000000" font-family="sans-serif" font-size="14" font-style="italic" lengthAdjust="spacing" textLength="121" x="122" y="35.9867">ContextResource</text><line style="stroke:#181818;stroke-width:0.5;" x1="94" x2="245" y1="47.14" y2="47.14"/><line style="stroke:#181818;stroke-width:0.5;" x1="94" x2="245" y1="55.14" y2="55.14"/></g><!--class ClassPathContextResource--><g id="elem_ClassPathContextResource"><rect fill="#F1F1F1" height="48" id="ClassPathContextResource" rx="2.5" ry="2.5" style="stroke:#181818;stroke-width:0.5;" width="221" x="59" y="139.44"/><ellipse cx="74" cy="155.44" fill="#ADD1B2" rx="11" ry="11" style="stroke:#181818;stroke-width:1.0;"/><path d="M76.9688,161.0806 Q76.3906,161.3775 75.75,161.5181 Q75.1094,161.6744 74.4063,161.6744 Q71.9063,161.6744 70.5781,160.0337 Q69.2656,158.3775 69.2656,155.2525 Q69.2656,152.1275 70.5781,150.4712 Q71.9063,148.815 74.4063,148.815 Q75.1094,148.815 75.75,148.9712 Q76.4063,149.1275 76.9688,149.4244 L76.9688,152.1431 Q76.3438,151.565 75.75,151.2994 Q75.1563,151.0181 74.5313,151.0181 Q73.1875,151.0181 72.5,152.0962 Q71.8125,153.1587 71.8125,155.2525 Q71.8125,157.3462 72.5,158.4244 Q73.1875,159.4869 74.5313,159.4869 Q75.1563,159.4869 75.75,159.2212 Q76.3438,158.94 76.9688,158.3619 L76.9688,161.0806 Z " fill="#000000"/><text fill="#000000" font-family="sans-serif" font-size="14" lengthAdjust="spacing" textLength="189" x="88" y="160.2867">ClassPathContextResource</text><line style="stroke:#181818;stroke-width:0.5;" x1="60" x2="279" y1="171.44" y2="171.44"/><line style="stroke:#181818;stroke-width:0.5;" x1="60" x2="279" y1="179.44" y2="179.44"/></g><!--class AbstractResource--><g id="elem_AbstractResource"><rect fill="#F1F1F1" height="48" id="AbstractResource" rx="2.5" ry="2.5" style="stroke:#181818;stroke-width:0.5;" width="156" x="316.5" y="139.44"/><ellipse cx="331.5" cy="155.44" fill="#ADD1B2" rx="11" ry="11" style="stroke:#181818;stroke-width:1.0;"/><path d="M334.4688,161.0806 Q333.8906,161.3775 333.25,161.5181 Q332.6094,161.6744 331.9063,161.6744 Q329.4063,161.6744 328.0781,160.0337 Q326.7656,158.3775 326.7656,155.2525 Q326.7656,152.1275 328.0781,150.4712 Q329.4063,148.815 331.9063,148.815 Q332.6094,148.815 333.25,148.9712 Q333.9063,149.1275 334.4688,149.4244 L334.4688,152.1431 Q333.8438,151.565 333.25,151.2994 Q332.6563,151.0181 332.0313,151.0181 Q330.6875,151.0181 330,152.0962 Q329.3125,153.1587 329.3125,155.2525 Q329.3125,157.3462 330,158.4244 Q330.6875,159.4869 332.0313,159.4869 Q332.6563,159.4869 333.25,159.2212 Q333.8438,158.94 334.4688,158.3619 L334.4688,161.0806 Z " fill="#000000"/><text fill="#000000" font-family="sans-serif" font-size="14" lengthAdjust="spacing" textLength="124" x="345.5" y="160.2867">AbstractResource</text><line style="stroke:#181818;stroke-width:0.5;" x1="317.5" x2="471.5" y1="171.44" y2="171.44"/><line style="stroke:#181818;stroke-width:0.5;" x1="317.5" x2="471.5" y1="179.44" y2="179.44"/></g><!--class FileSystemResource--><g id="elem_FileSystemResource"><rect fill="#F1F1F1" height="48" id="FileSystemResource" rx="2.5" ry="2.5" style="stroke:#181818;stroke-width:0.5;" width="173" x="7" y="255.59"/><ellipse cx="22" cy="271.59" fill="#ADD1B2" rx="11" ry="11" style="stroke:#181818;stroke-width:1.0;"/><path d="M24.9688,277.2306 Q24.3906,277.5275 23.75,277.6681 Q23.1094,277.8244 22.4063,277.8244 Q19.9063,277.8244 18.5781,276.1838 Q17.2656,274.5275 17.2656,271.4025 Q17.2656,268.2775 18.5781,266.6213 Q19.9063,264.965 22.4063,264.965 Q23.1094,264.965 23.75,265.1213 Q24.4063,265.2775 24.9688,265.5744 L24.9688,268.2931 Q24.3438,267.715 23.75,267.4494 Q23.1563,267.1681 22.5313,267.1681 Q21.1875,267.1681 20.5,268.2463 Q19.8125,269.3088 19.8125,271.4025 Q19.8125,273.4963 20.5,274.5744 Q21.1875,275.6369 22.5313,275.6369 Q23.1563,275.6369 23.75,275.3713 Q24.3438,275.09 24.9688,274.5119 L24.9688,277.2306 Z " fill="#000000"/><text fill="#000000" font-family="sans-serif" font-size="14" lengthAdjust="spacing" textLength="141" x="36" y="276.4367">FileSystemResource</text><line style="stroke:#181818;stroke-width:0.5;" x1="8" x2="179" y1="287.59" y2="287.59"/><line style="stroke:#181818;stroke-width:0.5;" x1="8" x2="179" y1="295.59" y2="295.59"/></g><!--class ByteArrayResource--><g id="elem_ByteArrayResource"><rect fill="#F1F1F1" height="48" id="ByteArrayResource" rx="2.5" ry="2.5" style="stroke:#181818;stroke-width:0.5;" width="164" x="215.5" y="255.59"/><ellipse cx="230.5" cy="271.59" fill="#ADD1B2" rx="11" ry="11" style="stroke:#181818;stroke-width:1.0;"/><path d="M233.4688,277.2306 Q232.8906,277.5275 232.25,277.6681 Q231.6094,277.8244 230.9063,277.8244 Q228.4063,277.8244 227.0781,276.1838 Q225.7656,274.5275 225.7656,271.4025 Q225.7656,268.2775 227.0781,266.6213 Q228.4063,264.965 230.9063,264.965 Q231.6094,264.965 232.25,265.1213 Q232.9063,265.2775 233.4688,265.5744 L233.4688,268.2931 Q232.8438,267.715 232.25,267.4494 Q231.6563,267.1681 231.0313,267.1681 Q229.6875,267.1681 229,268.2463 Q228.3125,269.3088 228.3125,271.4025 Q228.3125,273.4963 229,274.5744 Q229.6875,275.6369 231.0313,275.6369 Q231.6563,275.6369 232.25,275.3713 Q232.8438,275.09 233.4688,274.5119 L233.4688,277.2306 Z " fill="#000000"/><text fill="#000000" font-family="sans-serif" font-size="14" lengthAdjust="spacing" textLength="132" x="244.5" y="276.4367">ByteArrayResource</text><line style="stroke:#181818;stroke-width:0.5;" x1="216.5" x2="378.5" y1="287.59" y2="287.59"/><line style="stroke:#181818;stroke-width:0.5;" x1="216.5" x2="378.5" y1="295.59" y2="295.59"/></g><!--class EncodedResource--><g id="elem_EncodedResource"><rect fill="#F1F1F1" height="48" id="EncodedResource" rx="2.5" ry="2.5" style="stroke:#181818;stroke-width:0.5;" width="161" x="415" y="255.59"/><ellipse cx="430" cy="271.59" fill="#ADD1B2" rx="11" ry="11" style="stroke:#181818;stroke-width:1.0;"/><path d="M432.9688,277.2306 Q432.3906,277.5275 431.75,277.6681 Q431.1094,277.8244 430.4063,277.8244 Q427.9063,277.8244 426.5781,276.1838 Q425.2656,274.5275 425.2656,271.4025 Q425.2656,268.2775 426.5781,266.6213 Q427.9063,264.965 430.4063,264.965 Q431.1094,264.965 431.75,265.1213 Q432.4063,265.2775 432.9688,265.5744 L432.9688,268.2931 Q432.3438,267.715 431.75,267.4494 Q431.1563,267.1681 430.5313,267.1681 Q429.1875,267.1681 428.5,268.2463 Q427.8125,269.3088 427.8125,271.4025 Q427.8125,273.4963 428.5,274.5744 Q429.1875,275.6369 430.5313,275.6369 Q431.1563,275.6369 431.75,275.3713 Q432.3438,275.09 432.9688,274.5119 L432.9688,277.2306 Z " fill="#000000"/><text fill="#000000" font-family="sans-serif" font-size="14" lengthAdjust="spacing" textLength="129" x="444" y="276.4367">EncodedResource</text><line style="stroke:#181818;stroke-width:0.5;" x1="416" x2="575" y1="287.59" y2="287.59"/><line style="stroke:#181818;stroke-width:0.5;" x1="416" x2="575" y1="295.59" y2="295.59"/></g><!--class DefaultResourceLoader--><g id="elem_DefaultResourceLoader"><rect fill="#F1F1F1" height="48" id="DefaultResourceLoader" rx="2.5" ry="2.5" style="stroke:#181818;stroke-width:0.5;" width="195" x="943" y="139.44"/><ellipse cx="958" cy="155.44" fill="#ADD1B2" rx="11" ry="11" style="stroke:#181818;stroke-width:1.0;"/><path d="M960.9688,161.0806 Q960.3906,161.3775 959.75,161.5181 Q959.1094,161.6744 958.4063,161.6744 Q955.9063,161.6744 954.5781,160.0337 Q953.2656,158.3775 953.2656,155.2525 Q953.2656,152.1275 954.5781,150.4712 Q955.9063,148.815 958.4063,148.815 Q959.1094,148.815 959.75,148.9712 Q960.4063,149.1275 960.9688,149.4244 L960.9688,152.1431 Q960.3438,151.565 959.75,151.2994 Q959.1563,151.0181 958.5313,151.0181 Q957.1875,151.0181 956.5,152.0962 Q955.8125,153.1587 955.8125,155.2525 Q955.8125,157.3462 956.5,158.4244 Q957.1875,159.4869 958.5313,159.4869 Q959.1563,159.4869 959.75,159.2212 Q960.3438,158.94 960.9688,158.3619 L960.9688,161.0806 Z " fill="#000000"/><text fill="#000000" font-family="sans-serif" font-size="14" lengthAdjust="spacing" textLength="163" x="972" y="160.2867">DefaultResourceLoader</text><line style="stroke:#181818;stroke-width:0.5;" x1="944" x2="1137" y1="171.44" y2="171.44"/><line style="stroke:#181818;stroke-width:0.5;" x1="944" x2="1137" y1="179.44" y2="179.44"/></g><!--class FileSystemResourceLoader--><g id="elem_FileSystemResourceLoader"><rect fill="#F1F1F1" height="48" id="FileSystemResourceLoader" rx="2.5" ry="2.5" style="stroke:#181818;stroke-width:0.5;" width="220" x="949.5" y="255.59"/><ellipse cx="964.5" cy="271.59" fill="#ADD1B2" rx="11" ry="11" style="stroke:#181818;stroke-width:1.0;"/><path d="M967.4688,277.2306 Q966.8906,277.5275 966.25,277.6681 Q965.6094,277.8244 964.9063,277.8244 Q962.4063,277.8244 961.0781,276.1838 Q959.7656,274.5275 959.7656,271.4025 Q959.7656,268.2775 961.0781,266.6213 Q962.4063,264.965 964.9063,264.965 Q965.6094,264.965 966.25,265.1213 Q966.9063,265.2775 967.4688,265.5744 L967.4688,268.2931 Q966.8438,267.715 966.25,267.4494 Q965.6563,267.1681 965.0313,267.1681 Q963.6875,267.1681 963,268.2463 Q962.3125,269.3088 962.3125,271.4025 Q962.3125,273.4963 963,274.5744 Q963.6875,275.6369 965.0313,275.6369 Q965.6563,275.6369 966.25,275.3713 Q966.8438,275.09 967.4688,274.5119 L967.4688,277.2306 Z " fill="#000000"/><text fill="#000000" font-family="sans-serif" font-size="14" lengthAdjust="spacing" textLength="188" x="978.5" y="276.4367">FileSystemResourceLoader</text><line style="stroke:#181818;stroke-width:0.5;" x1="950.5" x2="1168.5" y1="287.59" y2="287.59"/><line style="stroke:#181818;stroke-width:0.5;" x1="950.5" x2="1168.5" y1="295.59" y2="295.59"/></g><!--class PathMatchingResourcePatternResolver--><g id="elem_PathMatchingResourcePatternResolver"><rect fill="#F1F1F1" height="48" id="PathMatchingResourcePatternResolver" rx="2.5" ry="2.5" style="stroke:#181818;stroke-width:0.5;" width="303" x="611" y="255.59"/><ellipse cx="626" cy="271.59" fill="#ADD1B2" rx="11" ry="11" style="stroke:#181818;stroke-width:1.0;"/><path d="M628.9688,277.2306 Q628.3906,277.5275 627.75,277.6681 Q627.1094,277.8244 626.4063,277.8244 Q623.9063,277.8244 622.5781,276.1838 Q621.2656,274.5275 621.2656,271.4025 Q621.2656,268.2775 622.5781,266.6213 Q623.9063,264.965 626.4063,264.965 Q627.1094,264.965 627.75,265.1213 Q628.4063,265.2775 628.9688,265.5744 L628.9688,268.2931 Q628.3438,267.715 627.75,267.4494 Q627.1563,267.1681 626.5313,267.1681 Q625.1875,267.1681 624.5,268.2463 Q623.8125,269.3088 623.8125,271.4025 Q623.8125,273.4963 624.5,274.5744 Q625.1875,275.6369 626.5313,275.6369 Q627.1563,275.6369 627.75,275.3713 Q628.3438,275.09 628.9688,274.5119 L628.9688,277.2306 Z " fill="#000000"/><text fill="#000000" font-family="sans-serif" font-size="14" lengthAdjust="spacing" textLength="271" x="640" y="276.4367">PathMatchingResourcePatternResolver</text><line style="stroke:#181818;stroke-width:0.5;" x1="612" x2="913" y1="287.59" y2="287.59"/><line style="stroke:#181818;stroke-width:0.5;" x1="612" x2="913" y1="295.59" y2="295.59"/></g><!--link ContextResource to Resource--><g id="link_ContextResource_Resource"><path codeLine="13" d="M246.2,39.14 C250.67,39.14 255.15,39.14 259.62,39.14 " fill="none" id="ContextResource-to-Resource" style="stroke:#181818;stroke-width:1.0;"/><polygon fill="none" points="259.55,32.14,279.55,39.14,259.55,46.14,259.55,32.14" style="stroke:#181818;stroke-width:1.0;"/></g><!--reverse link ContextResource to ClassPathContextResource--><g id="link_ContextResource_ClassPathContextResource"><path codeLine="14" d="M169.5,84.13 C169.5,102.76 169.5,123.7 169.5,139.24 " fill="none" id="ContextResource-backto-ClassPathContextResource" style="stroke:#181818;stroke-width:1.0;stroke-dasharray:7.0,7.0;"/><polygon fill="none" points="162.5,84.44,169.5,64.44,176.5,84.44,162.5,84.44" style="stroke:#181818;stroke-width:1.0;"/></g><!--reverse link Resource to AbstractResource--><g id="link_Resource_AbstractResource"><path codeLine="15" d="M395.64,92.52 C395.38,108.8 395.1,125.94 394.88,139.17 " fill="none" id="Resource-backto-AbstractResource" style="stroke:#181818;stroke-width:1.0;stroke-dasharray:7.0,7.0;"/><polygon fill="none" points="388.66,92.52,395.98,72.64,402.66,92.75,388.66,92.52" style="stroke:#181818;stroke-width:1.0;"/></g><!--reverse link AbstractResource to FileSystemResource--><g id="link_AbstractResource_FileSystemResource"><path codeLine="16" d="M313.47,195.17 C263.73,214.03 201.04,237.81 155.31,255.15 " fill="none" id="AbstractResource-backto-FileSystemResource" style="stroke:#181818;stroke-width:1.0;"/><polygon fill="none" points="310.68,188.36,331.86,187.82,315.64,201.45,310.68,188.36" style="stroke:#181818;stroke-width:1.0;"/></g><!--reverse link AbstractResource to ByteArrayResource--><g id="link_AbstractResource_ByteArrayResource"><path codeLine="17" d="M361.2,203.63 C346.6,220.81 329.95,240.4 317.34,255.25 " fill="none" id="AbstractResource-backto-ByteArrayResource" style="stroke:#181818;stroke-width:1.0;"/><polygon fill="none" points="356.35,199.52,374.64,188.82,367.02,208.59,356.35,199.52" style="stroke:#181818;stroke-width:1.0;"/></g><!--reverse link AbstractResource to EncodedResource--><g id="link_AbstractResource_EncodedResource"><path codeLine="18" d="M428.94,203.36 C444.2,220.61 461.64,240.33 474.85,255.25 " fill="none" id="AbstractResource-backto-EncodedResource" style="stroke:#181818;stroke-width:1.0;"/><polygon fill="none" points="424.19,208.43,416.18,188.82,434.68,199.16,424.19,208.43" style="stroke:#181818;stroke-width:1.0;"/></g><!--reverse link Resource to ResourceLoader--><g id="link_Resource_ResourceLoader"><path codeLine="20" d="M518.21,39.14 C560.06,39.14 601.91,39.14 643.75,39.14 " fill="none" id="Resource-backto-ResourceLoader" style="stroke:#181818;stroke-width:1.0;stroke-dasharray:7.0,7.0;"/><polygon fill="#181818" points="513.3,39.14,522.3,43.14,518.3,39.14,522.3,35.14,513.3,39.14" style="stroke:#181818;stroke-width:1.0;"/></g><!--reverse link ResourceLoader to DefaultResourceLoader--><g id="link_ResourceLoader_DefaultResourceLoader"><path codeLine="21" d="M853.2,80.04 C897.5,99.53 949.28,122.31 987.15,138.97 " fill="none" id="ResourceLoader-backto-DefaultResourceLoader" style="stroke:#181818;stroke-width:1.0;stroke-dasharray:7.0,7.0;"/><polygon fill="none" points="850.58,86.1,835.09,71.64,856.22,73.29,850.58,86.1" style="stroke:#181818;stroke-width:1.0;"/></g><!--reverse link DefaultResourceLoader to FileSystemResourceLoader--><g id="link_DefaultResourceLoader_FileSystemResourceLoader"><path codeLine="22" d="M1047.83,208.49 C1050.48,224.42 1053.37,241.79 1055.61,255.25 " fill="none" id="DefaultResourceLoader-backto-FileSystemResourceLoader" style="stroke:#181818;stroke-width:1.0;"/><polygon fill="none" points="1040.77,209.69,1044.39,188.82,1054.58,207.4,1040.77,209.69" style="stroke:#181818;stroke-width:1.0;"/></g><!--reverse link ResourceLoader to ResourcePatternResolver--><g id="link_ResourceLoader_ResourcePatternResolver"><path codeLine="23" d="M762.5,92.22 C762.5,105.43 762.5,119.23 762.5,131.05 " fill="none" id="ResourceLoader-backto-ResourcePatternResolver" style="stroke:#181818;stroke-width:1.0;stroke-dasharray:7.0,7.0;"/><polygon fill="none" points="755.5,92.64,762.5,72.64,769.5,92.64,755.5,92.64" style="stroke:#181818;stroke-width:1.0;"/></g><!--reverse link ResourcePatternResolver to PathMatchingResourcePatternResolver--><g id="link_ResourcePatternResolver_PathMatchingResourcePatternResolver"><path codeLine="24" d="M762.5,216.46 C762.5,230.01 762.5,243.94 762.5,255.17 " fill="none" id="ResourcePatternResolver-backto-PathMatchingResourcePatternResolver" style="stroke:#181818;stroke-width:1.0;stroke-dasharray:7.0,7.0;"/><polygon fill="none" points="755.5,216.94,762.5,196.94,769.5,216.94,755.5,216.94" style="stroke:#181818;stroke-width:1.0;"/></g><!--SRC=[ZP7TYi8m48MlTvwYbuhOHn3ysGL1GVHIl9XjfsqWfYMPY4LzTrDqMpVDujubfzyv9zCHYabdc52q9LDQxGuN-1X5EV5ILPPth0cFWs7qSeCRWEZvLYMcf5ltZpnm7g7oOSk5tHja9wdcAa-16DFBsHzSKXSqBztnpDqKD_2biHPvmUFhf7lBNA8nhhlmsTXMiGCz6QRVXZKcFQu5leIaNMsOZbsjhPfEtmgpcccgDTPloK-Lb2cbRpdmTX5BoZX-UTs2ChIIVUpt30yrCCaJVxO7i-2lVOOxcZ-_HauAjzb_EhtFTm00]--></g></svg>