<?xml version="1.0" encoding="us-ascii" standalone="no"?><svg xmlns="http://www.w3.org/2000/svg" xmlns:xlink="http://www.w3.org/1999/xlink" contentStyleType="text/css" height="313px" preserveAspectRatio="none" style="width:1372px;height:313px;background:#FFFFFF;" version="1.1" viewBox="0 0 1372 313" width="1372px" zoomAndPan="magnify"><defs/><g><!--class SpringApplicationRunListener--><g id="elem_SpringApplicationRunListener"><rect codeLine="5" fill="#FFFFFF" height="158.0781" id="SpringApplicationRunListener" rx="2.5" ry="2.5" style="stroke:#000000;stroke-width:1.0;" width="607" x="758" y="28.3"/><ellipse cx="956.75" cy="42.3" fill="#FFFFFF" rx="9" ry="9" style="stroke:#000000;stroke-width:1.0;"/><path d="M953.9219,38.8781 L953.9219,37.0969 L960,37.0969 L960,38.8781 L957.9688,38.8781 L957.9688,45.5188 L960,45.5188 L960,47.3 L953.9219,47.3 L953.9219,45.5188 L955.9531,45.5188 L955.9531,38.8781 L953.9219,38.8781 Z " fill="#000000"/><text fill="#000000" font-family="Consolas" font-size="14" font-style="italic" lengthAdjust="spacing" textLength="202" x="974.25" y="47.1467">SpringApplicationRunListener</text><line style="stroke:#000000;stroke-width:1.0;" x1="759" x2="1364" y1="56.3" y2="56.3"/><line style="stroke:#000000;stroke-width:1.0;" x1="759" x2="1364" y1="64.3" y2="64.3"/><ellipse cx="769" cy="77.9484" fill="#FFFFFF" rx="3" ry="3" style="stroke:#000000;stroke-width:1.0;"/><text fill="#000000" font-family="Consolas" font-size="14" lengthAdjust="spacing" textLength="303" x="776" y="81.2951">starting(ConfigurableBootstrapContext) void</text><ellipse cx="769" cy="94.2453" fill="#FFFFFF" rx="3" ry="3" style="stroke:#000000;stroke-width:1.0;"/><text fill="#000000" font-family="Consolas" font-size="14" lengthAdjust="spacing" textLength="583" x="776" y="97.592">environmentPrepared(ConfigurableBootstrapContext, ConfigurableEnvironment) void</text><ellipse cx="769" cy="110.5422" fill="#FFFFFF" rx="3" ry="3" style="stroke:#000000;stroke-width:1.0;"/><text fill="#000000" font-family="Consolas" font-size="14" lengthAdjust="spacing" textLength="373" x="776" y="113.8889">contextPrepared(ConfigurableApplicationContext) void</text><ellipse cx="769" cy="126.8391" fill="#FFFFFF" rx="3" ry="3" style="stroke:#000000;stroke-width:1.0;"/><text fill="#000000" font-family="Consolas" font-size="14" lengthAdjust="spacing" textLength="361" x="776" y="130.1857">contextLoaded(ConfigurableApplicationContext) void</text><ellipse cx="769" cy="143.1359" fill="#FFFFFF" rx="3" ry="3" style="stroke:#000000;stroke-width:1.0;"/><text fill="#000000" font-family="Consolas" font-size="14" lengthAdjust="spacing" textLength="374" x="776" y="146.4826">started(ConfigurableApplicationContext, Duration) void</text><ellipse cx="769" cy="159.4328" fill="#FFFFFF" rx="3" ry="3" style="stroke:#000000;stroke-width:1.0;"/><text fill="#000000" font-family="Consolas" font-size="14" lengthAdjust="spacing" textLength="363" x="776" y="162.7795">ready(ConfigurableApplicationContext, Duration) void</text><ellipse cx="769" cy="175.7297" fill="#FFFFFF" rx="3" ry="3" style="stroke:#000000;stroke-width:1.0;"/><text fill="#000000" font-family="Consolas" font-size="14" lengthAdjust="spacing" textLength="374" x="776" y="179.0764">failed(ConfigurableApplicationContext, Throwable) void</text></g><!--class EventPublishingRunListener--><g id="elem_EventPublishingRunListener"><rect codeLine="14" fill="#FFFFFF" height="44" id="EventPublishingRunListener" rx="2.5" ry="2.5" style="stroke:#000000;stroke-width:1.0;" width="221" x="951" y="262.67"/><ellipse cx="964" cy="276.67" fill="#FFFFFF" rx="9" ry="9" style="stroke:#000000;stroke-width:1.0;"/><path d="M966.3906,281.3731 Q965.9063,281.6231 965.375,281.7481 Q964.8594,281.8731 964.2813,281.8731 Q962.2188,281.8731 961.125,280.5138 Q960.0469,279.1544 960.0469,276.5763 Q960.0469,273.9981 961.125,272.6388 Q962.2188,271.2794 964.2813,271.2794 Q964.8594,271.2794 965.3906,271.4044 Q965.9219,271.5294 966.3906,271.7638 L966.3906,274.0138 Q965.875,273.5294 965.375,273.3106 Q964.8906,273.0919 964.375,273.0919 Q963.2656,273.0919 962.7031,273.9669 Q962.1406,274.8419 962.1406,276.5763 Q962.1406,278.295 962.7031,279.1856 Q963.2656,280.0606 964.375,280.0606 Q964.8906,280.0606 965.375,279.8419 Q965.875,279.6075 966.3906,279.1388 L966.3906,281.3731 Z " fill="#000000"/><text fill="#000000" font-family="Consolas" font-size="14" lengthAdjust="spacing" textLength="193" x="976" y="281.5167">EventPublishingRunListener</text><line style="stroke:#000000;stroke-width:1.0;" x1="952" x2="1171" y1="290.67" y2="290.67"/><line style="stroke:#000000;stroke-width:1.0;" x1="952" x2="1171" y1="298.67" y2="298.67"/></g><!--class SpringApplicationRunListeners--><g id="elem_SpringApplicationRunListeners"><rect codeLine="17" fill="#FFFFFF" height="190.6719" id="SpringApplicationRunListeners" rx="2.5" ry="2.5" style="stroke:#000000;stroke-width:1.0;" width="709" x="14" y="12"/><ellipse cx="259.75" cy="26" fill="#FFFFFF" rx="9" ry="9" style="stroke:#000000;stroke-width:1.0;"/><path d="M262.1406,30.7031 Q261.6563,30.9531 261.125,31.0781 Q260.6094,31.2031 260.0313,31.2031 Q257.9688,31.2031 256.875,29.8438 Q255.7969,28.4844 255.7969,25.9063 Q255.7969,23.3281 256.875,21.9688 Q257.9688,20.6094 260.0313,20.6094 Q260.6094,20.6094 261.1406,20.7344 Q261.6719,20.8594 262.1406,21.0938 L262.1406,23.3438 Q261.625,22.8594 261.125,22.6406 Q260.6406,22.4219 260.125,22.4219 Q259.0156,22.4219 258.4531,23.2969 Q257.8906,24.1719 257.8906,25.9063 Q257.8906,27.625 258.4531,28.5156 Q259.0156,29.3906 260.125,29.3906 Q260.6406,29.3906 261.125,29.1719 Q261.625,28.9375 262.1406,28.4688 L262.1406,30.7031 Z " fill="#000000"/><text fill="#000000" font-family="Consolas" font-size="14" lengthAdjust="spacing" textLength="210" x="277.25" y="30.8467">SpringApplicationRunListeners</text><line style="stroke:#000000;stroke-width:1.0;" x1="15" x2="722" y1="40" y2="40"/><text fill="#000000" font-family="Consolas" font-size="14" lengthAdjust="spacing" textLength="312" x="20" y="56.9951">List&lt;SpringApplicationRunListener&gt; listeners</text><line style="stroke:#000000;stroke-width:1.0;" x1="15" x2="722" y1="64.2969" y2="64.2969"/><polygon fill="#FFFFFF" points="25,73.9453,21,79.9453,29,79.9453" style="stroke:#000000;stroke-width:1.0;"/><text fill="#000000" font-family="Consolas" font-size="14" lengthAdjust="spacing" textLength="379" x="32" y="81.292">starting(ConfigurableBootstrapContext, Class&lt;?&gt;) void</text><polygon fill="#FFFFFF" points="25,90.2422,21,96.2422,29,96.2422" style="stroke:#000000;stroke-width:1.0;"/><text fill="#000000" font-family="Consolas" font-size="14" lengthAdjust="spacing" textLength="583" x="32" y="97.5889">environmentPrepared(ConfigurableBootstrapContext, ConfigurableEnvironment) void</text><polygon fill="#FFFFFF" points="25,106.5391,21,112.5391,29,112.5391" style="stroke:#000000;stroke-width:1.0;"/><text fill="#000000" font-family="Consolas" font-size="14" lengthAdjust="spacing" textLength="373" x="32" y="113.8857">contextPrepared(ConfigurableApplicationContext) void</text><polygon fill="#FFFFFF" points="25,122.8359,21,128.8359,29,128.8359" style="stroke:#000000;stroke-width:1.0;"/><text fill="#000000" font-family="Consolas" font-size="14" lengthAdjust="spacing" textLength="361" x="32" y="130.1826">contextLoaded(ConfigurableApplicationContext) void</text><polygon fill="#FFFFFF" points="25,139.1328,21,145.1328,29,145.1328" style="stroke:#000000;stroke-width:1.0;"/><text fill="#000000" font-family="Consolas" font-size="14" lengthAdjust="spacing" textLength="374" x="32" y="146.4795">started(ConfigurableApplicationContext, Duration) void</text><polygon fill="#FFFFFF" points="25,155.4297,21,161.4297,29,161.4297" style="stroke:#000000;stroke-width:1.0;"/><text fill="#000000" font-family="Consolas" font-size="14" lengthAdjust="spacing" textLength="363" x="32" y="162.7764">ready(ConfigurableApplicationContext, Duration) void</text><polygon fill="#FFFFFF" points="25,171.7266,21,177.7266,29,177.7266" style="stroke:#000000;stroke-width:1.0;"/><text fill="#000000" font-family="Consolas" font-size="14" lengthAdjust="spacing" textLength="374" x="32" y="179.0732">failed(ConfigurableApplicationContext, Throwable) void</text><rect fill="#FFFFFF" height="6" style="stroke:#000000;stroke-width:1.0;" width="6" x="22" y="189.0234"/><text fill="#000000" font-family="Consolas" font-size="14" lengthAdjust="spacing" textLength="685" x="32" y="195.3701">doWithListeners(String, Consumer&lt;SpringApplicationRunListener&gt;, Consumer&lt;StartupStep&gt;) void</text></g><!--reverse link SpringApplicationRunListener to EventPublishingRunListener--><g id="link_SpringApplicationRunListener_EventPublishingRunListener"><path codeLine="28" d="M1061.5,207.62 C1061.5,228.35 1061.5,248.19 1061.5,262.41 " fill="none" id="SpringApplicationRunListener-backto-EventPublishingRunListener" style="stroke:#000000;stroke-width:1.0;stroke-dasharray:7.0,7.0;"/><polygon fill="none" points="1054.5,207.77,1061.5,187.77,1068.5,207.77,1054.5,207.77" style="stroke:#000000;stroke-width:1.0;"/></g><!--reverse link SpringApplicationRunListeners to SpringApplicationRunListener--><g id="link_SpringApplicationRunListeners_SpringApplicationRunListener"><path codeLine="29" d="M737.41,107.33 C744.2,107.33 751,107.33 757.79,107.33 " fill="none" id="SpringApplicationRunListeners-backto-SpringApplicationRunListener" style="stroke:#000000;stroke-width:1.0;stroke-dasharray:7.0,7.0;"/><polygon fill="#000000" points="724.46,107.33,730.46,111.33,736.46,107.33,730.46,103.33,724.46,107.33" style="stroke:#000000;stroke-width:1.0;"/><text fill="#000000" font-family="Consolas" font-size="14" lengthAdjust="spacing" textLength="9" x="730.7615" y="104.1655">1</text><text fill="#000000" font-family="Consolas" font-size="14" lengthAdjust="spacing" textLength="9" x="740.6032" y="104.1163">n</text></g><!--SRC=[jPHDJuGm48Rl_8gHqwehoIOUDnW_rjF6637nt8LXQInjqmxupM-tu8eOJNSbyKZdVQOpVT-mHmMM25emBWDxpwLcXfL0d0HUAaa9VqQO7GzA6UQi4hIrUCLSttCbhHBC1bmIcfob28asNAvFjHOyPSILlAdaabj2YGPU0e13iCGCET74uJbVLuQj19ufHPOCq-wGy97seLOyw_GeQswKB57IjK4t2MPUT0h3wkAB7lHCFwI_zXiC_tEO3RXKBFiBrksy5PZ2XIkr1mFK8CkUne0vusA7AsyBenxQuWPz2r9dgOL5tJvujHBS5iwjxpxsAf_VjZEy_PhxP368Jy39cztouKnkxv-VnFt6pJyafHcRb6PSKfhnIMd69gKPcnI08yZK7QUYTtoIK6jqzx2sAj7udH_gshqhdH3gk4-Y9uDH5Rt6_jzDu0zdE0lX838HX3BqDde7]--></g></svg>