<?xml version="1.0" encoding="us-ascii" standalone="no"?><svg xmlns="http://www.w3.org/2000/svg" xmlns:xlink="http://www.w3.org/1999/xlink" contentStyleType="text/css" height="267px" preserveAspectRatio="none" style="width:258px;height:267px;background:#FFFFFF;" version="1.1" viewBox="0 0 258 267" width="258px" zoomAndPan="magnify"><defs/><g><!--class List--><g id="elem_List"><rect codeLine="5" fill="#FFFFFF" height="44" id="List" rx="2.5" ry="2.5" style="stroke:#000000;stroke-width:1.0;" width="64" x="183" y="15"/><ellipse cx="196" cy="29" fill="#FFFFFF" rx="9" ry="9" style="stroke:#000000;stroke-width:1.0;"/><path d="M193.1719,25.5781 L193.1719,23.7969 L199.25,23.7969 L199.25,25.5781 L197.2188,25.5781 L197.2188,32.2188 L199.25,32.2188 L199.25,34 L193.1719,34 L193.1719,32.2188 L195.2031,32.2188 L195.2031,25.5781 L193.1719,25.5781 Z " fill="#000000"/><text fill="#000000" font-family="Consolas" font-size="14" font-style="italic" lengthAdjust="spacing" textLength="23" x="208" y="33.8467">List</text><rect fill="#FFFFFF" height="18.2969" style="stroke:#000000;stroke-width:1.0;stroke-dasharray:2.0,2.0;" width="11" x="239" y="12"/><text fill="#000000" font-family="Verdana" font-size="14" font-style="italic" lengthAdjust="spacing" textLength="9" x="240" y="25.9951">E</text><line style="stroke:#000000;stroke-width:1.0;" x1="184" x2="246" y1="43" y2="43"/><line style="stroke:#000000;stroke-width:1.0;" x1="184" x2="246" y1="51" y2="51"/></g><!--class RandomAccess--><g id="elem_RandomAccess"><rect codeLine="6" fill="#FFFFFF" height="44" id="RandomAccess" rx="2.5" ry="2.5" style="stroke:#000000;stroke-width:1.0;" width="136" x="12" y="15"/><ellipse cx="25" cy="29" fill="#FFFFFF" rx="9" ry="9" style="stroke:#000000;stroke-width:1.0;"/><path d="M22.1719,25.5781 L22.1719,23.7969 L28.25,23.7969 L28.25,25.5781 L26.2188,25.5781 L26.2188,32.2188 L28.25,32.2188 L28.25,34 L22.1719,34 L22.1719,32.2188 L24.2031,32.2188 L24.2031,25.5781 L22.1719,25.5781 Z " fill="#000000"/><text fill="#000000" font-family="Consolas" font-size="14" font-style="italic" lengthAdjust="spacing" textLength="108" x="37" y="33.8467">RandomAccess</text><line style="stroke:#000000;stroke-width:1.0;" x1="13" x2="147" y1="43" y2="43"/><line style="stroke:#000000;stroke-width:1.0;" x1="13" x2="147" y1="51" y2="51"/></g><!--class ArrayList--><g id="elem_ArrayList"><rect codeLine="7" fill="#FFFFFF" height="141.7813" id="ArrayList" rx="2.5" ry="2.5" style="stroke:#000000;stroke-width:1.0;" width="172" x="61" y="119"/><ellipse cx="108.25" cy="133" fill="#FFFFFF" rx="9" ry="9" style="stroke:#000000;stroke-width:1.0;"/><path d="M110.6406,137.7031 Q110.1563,137.9531 109.625,138.0781 Q109.1094,138.2031 108.5313,138.2031 Q106.4688,138.2031 105.375,136.8438 Q104.2969,135.4844 104.2969,132.9063 Q104.2969,130.3281 105.375,128.9688 Q106.4688,127.6094 108.5313,127.6094 Q109.1094,127.6094 109.6406,127.7344 Q110.1719,127.8594 110.6406,128.0938 L110.6406,130.3438 Q110.125,129.8594 109.625,129.6406 Q109.1406,129.4219 108.625,129.4219 Q107.5156,129.4219 106.9531,130.2969 Q106.3906,131.1719 106.3906,132.9063 Q106.3906,134.625 106.9531,135.5156 Q107.5156,136.3906 108.625,136.3906 Q109.1406,136.3906 109.625,136.1719 Q110.125,135.9375 110.6406,135.4688 L110.6406,137.7031 Z " fill="#000000"/><text fill="#000000" font-family="Consolas" font-size="14" lengthAdjust="spacing" textLength="57" x="125.75" y="137.8467">ArrayList</text><rect fill="#FFFFFF" height="18.2969" style="stroke:#000000;stroke-width:1.0;stroke-dasharray:2.0,2.0;" width="11" x="225" y="116"/><text fill="#000000" font-family="Verdana" font-size="14" font-style="italic" lengthAdjust="spacing" textLength="9" x="226" y="129.9951">E</text><line style="stroke:#000000;stroke-width:1.0;" x1="62" x2="232" y1="147" y2="147"/><polygon fill="none" points="72,156.6484,68,162.6484,76,162.6484" style="stroke:#000000;stroke-width:1.0;"/><text fill="#000000" font-family="Consolas" font-size="14" lengthAdjust="spacing" textLength="148" x="79" y="163.9951">Object[] elementData</text><rect fill="none" height="6" style="stroke:#000000;stroke-width:1.0;" width="6" x="69" y="173.9453"/><text fill="#000000" font-family="Consolas" font-size="14" lengthAdjust="spacing" textLength="49" x="79" y="180.292">int size</text><polygon fill="none" points="72,188.2422,76,192.2422,72,196.2422,68,192.2422" style="stroke:#000000;stroke-width:1.0;"/><text fill="#000000" font-family="Consolas" font-size="14" lengthAdjust="spacing" textLength="94" x="79" y="196.5889">int modCount</text><line style="stroke:#000000;stroke-width:1.0;" x1="62" x2="232" y1="203.8906" y2="203.8906"/><ellipse cx="72" cy="217.5391" fill="#FFFFFF" rx="3" ry="3" style="stroke:#000000;stroke-width:1.0;"/><text fill="#000000" font-family="Consolas" font-size="14" lengthAdjust="spacing" textLength="105" x="79" y="220.8857">add(E) boolean</text><ellipse cx="72" cy="233.8359" fill="#FFFFFF" rx="3" ry="3" style="stroke:#000000;stroke-width:1.0;"/><text fill="#000000" font-family="Consolas" font-size="14" lengthAdjust="spacing" textLength="63" x="79" y="237.1826">get(int) E</text><ellipse cx="72" cy="250.1328" fill="#FFFFFF" rx="3" ry="3" style="stroke:#000000;stroke-width:1.0;"/><text fill="#000000" font-family="Consolas" font-size="14" lengthAdjust="spacing" textLength="145" x="79" y="253.4795">iterator() Iterator&lt;E&gt;</text></g><!--reverse link List to ArrayList--><g id="link_List_ArrayList"><path codeLine="15" d="M196.83,78.31 C191.24,90.72 184.91,104.77 178.69,118.58 " fill="none" id="List-backto-ArrayList" style="stroke:#000000;stroke-width:1.0;stroke-dasharray:7.0,7.0;"/><polygon fill="none" points="190.8,75.66,205.4,60.3,203.57,81.41,190.8,75.66" style="stroke:#000000;stroke-width:1.0;"/></g><!--reverse link RandomAccess to ArrayList--><g id="link_RandomAccess_ArrayList"><path codeLine="16" d="M97.9,78.31 C103.41,90.72 109.65,104.77 115.78,118.58 " fill="none" id="RandomAccess-backto-ArrayList" style="stroke:#000000;stroke-width:1.0;stroke-dasharray:7.0,7.0;"/><polygon fill="none" points="91.18,81.42,89.46,60.3,103.97,75.74,91.18,81.42" style="stroke:#000000;stroke-width:1.0;"/></g><!--SRC=[XOx1QW9144JFEr_HaiikeX38CGYY6n0aWNYK7DgPLiVCTijCxq5Z_FRCYeI577AhhYggtq3tr10S0teswTFp4ICse5u3lGZhofy97fzwaQCjja7_3Lynxyw4amHCnhDItA8bMFgap_MavxmZEsccrb9AnkPsWccCUBetuSiKLtZR7CZg-WCeP63MEIgQOWHv1bBcCCN3JJVYPjAocc88w5nPLx0H2OJSEJlIChSggBlBPm9KYMK5YxlioBxDxtiOj-FBvCRyn-nZ_m00]--></g></svg>