<?xml version="1.0" encoding="us-ascii" standalone="no"?><svg xmlns="http://www.w3.org/2000/svg" xmlns:xlink="http://www.w3.org/1999/xlink" contentStyleType="text/css" height="337px" preserveAspectRatio="none" style="width:1548px;height:337px;background:#FFFFFF;" version="1.1" viewBox="0 0 1548 337" width="1548px" zoomAndPan="magnify"><defs/><g><text fill="#000000" font-family="sans-serif" font-size="14" font-weight="bold" lengthAdjust="spacing" textLength="296" x="619" y="22.9951">DispatcherServlet#getHandler&#28041;&#21450;&#30340;&#31867;</text><!--class HandlerMapping--><g id="elem_HandlerMapping"><rect codeLine="2" fill="#F1F1F1" height="64.2969" id="HandlerMapping" rx="2.5" ry="2.5" style="stroke:#181818;stroke-width:0.5;" width="411" x="453" y="76.8869"/><ellipse cx="598.25" cy="92.8869" fill="#B4A7E5" rx="11" ry="11" style="stroke:#181818;stroke-width:1.0;"/><path d="M594.1719,88.6525 L594.1719,86.4963 L601.5625,86.4963 L601.5625,88.6525 L599.0938,88.6525 L599.0938,96.7306 L601.5625,96.7306 L601.5625,98.8869 L594.1719,98.8869 L594.1719,96.7306 L596.6406,96.7306 L596.6406,88.6525 L594.1719,88.6525 Z " fill="#000000"/><text fill="#000000" font-family="sans-serif" font-size="14" font-style="italic" lengthAdjust="spacing" textLength="112" x="618.75" y="97.7336">HandlerMapping</text><line style="stroke:#181818;stroke-width:0.5;" x1="454" x2="863" y1="108.8869" y2="108.8869"/><line style="stroke:#181818;stroke-width:0.5;" x1="454" x2="863" y1="116.8869" y2="116.8869"/><ellipse cx="464" cy="130.5353" fill="#84BE84" rx="3" ry="3" style="stroke:#038048;stroke-width:1.0;"/><text fill="#000000" font-family="sans-serif" font-size="14" lengthAdjust="spacing" textLength="385" x="473" y="133.882">getHandler(HttpServletRequest) HandlerExecutionChain</text></g><!--class HandlerExecutionChain--><g id="elem_HandlerExecutionChain"><rect codeLine="6" fill="#F1F1F1" height="129.4844" id="HandlerExecutionChain" rx="2.5" ry="2.5" style="stroke:#181818;stroke-width:0.5;" width="553" x="969" y="44.2969"/><ellipse cx="1161.25" cy="60.2969" fill="#ADD1B2" rx="11" ry="11" style="stroke:#181818;stroke-width:1.0;"/><path d="M1164.2188,65.9375 Q1163.6406,66.2344 1163,66.375 Q1162.3594,66.5313 1161.6563,66.5313 Q1159.1563,66.5313 1157.8281,64.8906 Q1156.5156,63.2344 1156.5156,60.1094 Q1156.5156,56.9844 1157.8281,55.3281 Q1159.1563,53.6719 1161.6563,53.6719 Q1162.3594,53.6719 1163,53.8281 Q1163.6563,53.9844 1164.2188,54.2813 L1164.2188,57 Q1163.5938,56.4219 1163,56.1563 Q1162.4063,55.875 1161.7813,55.875 Q1160.4375,55.875 1159.75,56.9531 Q1159.0625,58.0156 1159.0625,60.1094 Q1159.0625,62.2031 1159.75,63.2813 Q1160.4375,64.3438 1161.7813,64.3438 Q1162.4063,64.3438 1163,64.0781 Q1163.5938,63.7969 1164.2188,63.2188 L1164.2188,65.9375 Z " fill="#000000"/><text fill="#000000" font-family="sans-serif" font-size="14" lengthAdjust="spacing" textLength="160" x="1181.75" y="65.1436">HandlerExecutionChain</text><line style="stroke:#181818;stroke-width:0.5;" x1="970" x2="1521" y1="76.2969" y2="76.2969"/><rect fill="none" height="6" style="stroke:#C82930;stroke-width:1.0;" width="6" x="977" y="86.9453"/><text fill="#000000" font-family="sans-serif" font-size="14" lengthAdjust="spacing" textLength="101" x="989" y="93.292">Object handler</text><rect fill="none" height="6" style="stroke:#C82930;stroke-width:1.0;" width="6" x="977" y="103.2422"/><text fill="#000000" font-family="sans-serif" font-size="14" lengthAdjust="spacing" textLength="279" x="989" y="109.5889">List&lt;HandlerInterceptor&gt; interceptorList</text><line style="stroke:#181818;stroke-width:0.5;" x1="970" x2="1521" y1="116.8906" y2="116.8906"/><text fill="#000000" font-family="sans-serif" font-size="14" lengthAdjust="spacing" textLength="520" x="975" y="133.8857">applyPreHandle(HttpServletRequest, HttpServletResponse, Object) boolean</text><text fill="#000000" font-family="sans-serif" font-size="14" lengthAdjust="spacing" textLength="500" x="975" y="150.1826">applyPostHandle(HttpServletRequest, HttpServletResponse, Object) void</text><text fill="#000000" font-family="sans-serif" font-size="14" lengthAdjust="spacing" textLength="541" x="975" y="166.4795">triggerAfterCompletion(HttpServletRequest, HttpServletResponse, Object) void</text></g><!--class HandlerInterceptor--><g id="elem_HandlerInterceptor"><rect codeLine="14" fill="#F1F1F1" height="96.8906" id="HandlerInterceptor" rx="2.5" ry="2.5" style="stroke:#181818;stroke-width:0.5;" width="521" x="1020" y="233.7769"/><ellipse cx="1211.75" cy="249.7769" fill="#B4A7E5" rx="11" ry="11" style="stroke:#181818;stroke-width:1.0;"/><path d="M1207.6719,245.5425 L1207.6719,243.3863 L1215.0625,243.3863 L1215.0625,245.5425 L1212.5938,245.5425 L1212.5938,253.6206 L1215.0625,253.6206 L1215.0625,255.7769 L1207.6719,255.7769 L1207.6719,253.6206 L1210.1406,253.6206 L1210.1406,245.5425 L1207.6719,245.5425 Z " fill="#000000"/><text fill="#000000" font-family="sans-serif" font-size="14" font-style="italic" lengthAdjust="spacing" textLength="129" x="1232.25" y="254.6236">HandlerInterceptor</text><line style="stroke:#181818;stroke-width:0.5;" x1="1021" x2="1540" y1="265.7769" y2="265.7769"/><line style="stroke:#181818;stroke-width:0.5;" x1="1021" x2="1540" y1="273.7769" y2="273.7769"/><ellipse cx="1031" cy="287.4253" fill="#84BE84" rx="3" ry="3" style="stroke:#038048;stroke-width:1.0;"/><text fill="#000000" font-family="sans-serif" font-size="14" lengthAdjust="spacing" textLength="484" x="1040" y="290.772">preHandle(HttpServletRequest, HttpServletResponse, Object) boolean</text><ellipse cx="1031" cy="303.7222" fill="#84BE84" rx="3" ry="3" style="stroke:#038048;stroke-width:1.0;"/><text fill="#000000" font-family="sans-serif" font-size="14" lengthAdjust="spacing" textLength="464" x="1040" y="307.0689">postHandle(HttpServletRequest, HttpServletResponse, Object) void</text><ellipse cx="1031" cy="320.0191" fill="#84BE84" rx="3" ry="3" style="stroke:#038048;stroke-width:1.0;"/><text fill="#000000" font-family="sans-serif" font-size="14" lengthAdjust="spacing" textLength="495" x="1040" y="323.3657">afterCompletion(HttpServletRequest, HttpServletResponse, Object) void</text></g><!--class RequestMappingHandlerMapping--><g id="elem_RequestMappingHandlerMapping"><rect fill="#F1F1F1" height="48" id="RequestMappingHandlerMapping" rx="2.5" ry="2.5" style="stroke:#181818;stroke-width:0.5;" width="262" x="206.5" y="258.2169"/><ellipse cx="221.5" cy="274.2169" fill="#ADD1B2" rx="11" ry="11" style="stroke:#181818;stroke-width:1.0;"/><path d="M224.4688,279.8575 Q223.8906,280.1544 223.25,280.295 Q222.6094,280.4513 221.9063,280.4513 Q219.4063,280.4513 218.0781,278.8106 Q216.7656,277.1544 216.7656,274.0294 Q216.7656,270.9044 218.0781,269.2481 Q219.4063,267.5919 221.9063,267.5919 Q222.6094,267.5919 223.25,267.7481 Q223.9063,267.9044 224.4688,268.2013 L224.4688,270.92 Q223.8438,270.3419 223.25,270.0763 Q222.6563,269.795 222.0313,269.795 Q220.6875,269.795 220,270.8731 Q219.3125,271.9356 219.3125,274.0294 Q219.3125,276.1231 220,277.2013 Q220.6875,278.2638 222.0313,278.2638 Q222.6563,278.2638 223.25,277.9981 Q223.8438,277.7169 224.4688,277.1388 L224.4688,279.8575 Z " fill="#000000"/><text fill="#000000" font-family="sans-serif" font-size="14" lengthAdjust="spacing" textLength="230" x="235.5" y="279.0636">RequestMappingHandlerMapping</text><line style="stroke:#181818;stroke-width:0.5;" x1="207.5" x2="467.5" y1="290.2169" y2="290.2169"/><line style="stroke:#181818;stroke-width:0.5;" x1="207.5" x2="467.5" y1="298.2169" y2="298.2169"/></g><!--class BeanNameUrlHandlerMapping--><g id="elem_BeanNameUrlHandlerMapping"><rect fill="#F1F1F1" height="48" id="BeanNameUrlHandlerMapping" rx="2.5" ry="2.5" style="stroke:#181818;stroke-width:0.5;" width="238" x="503.5" y="258.2169"/><ellipse cx="518.5" cy="274.2169" fill="#ADD1B2" rx="11" ry="11" style="stroke:#181818;stroke-width:1.0;"/><path d="M521.4688,279.8575 Q520.8906,280.1544 520.25,280.295 Q519.6094,280.4513 518.9063,280.4513 Q516.4063,280.4513 515.0781,278.8106 Q513.7656,277.1544 513.7656,274.0294 Q513.7656,270.9044 515.0781,269.2481 Q516.4063,267.5919 518.9063,267.5919 Q519.6094,267.5919 520.25,267.7481 Q520.9063,267.9044 521.4688,268.2013 L521.4688,270.92 Q520.8438,270.3419 520.25,270.0763 Q519.6563,269.795 519.0313,269.795 Q517.6875,269.795 517,270.8731 Q516.3125,271.9356 516.3125,274.0294 Q516.3125,276.1231 517,277.2013 Q517.6875,278.2638 519.0313,278.2638 Q519.6563,278.2638 520.25,277.9981 Q520.8438,277.7169 521.4688,277.1388 L521.4688,279.8575 Z " fill="#000000"/><text fill="#000000" font-family="sans-serif" font-size="14" lengthAdjust="spacing" textLength="206" x="532.5" y="279.0636">BeanNameUrlHandlerMapping</text><line style="stroke:#181818;stroke-width:0.5;" x1="504.5" x2="740.5" y1="290.2169" y2="290.2169"/><line style="stroke:#181818;stroke-width:0.5;" x1="504.5" x2="740.5" y1="298.2169" y2="298.2169"/></g><!--class SimpleUrlHandlerMapping--><g id="elem_SimpleUrlHandlerMapping"><rect fill="#F1F1F1" height="48" id="SimpleUrlHandlerMapping" rx="2.5" ry="2.5" style="stroke:#181818;stroke-width:0.5;" width="208" x="776.5" y="258.2169"/><ellipse cx="791.5" cy="274.2169" fill="#ADD1B2" rx="11" ry="11" style="stroke:#181818;stroke-width:1.0;"/><path d="M794.4688,279.8575 Q793.8906,280.1544 793.25,280.295 Q792.6094,280.4513 791.9063,280.4513 Q789.4063,280.4513 788.0781,278.8106 Q786.7656,277.1544 786.7656,274.0294 Q786.7656,270.9044 788.0781,269.2481 Q789.4063,267.5919 791.9063,267.5919 Q792.6094,267.5919 793.25,267.7481 Q793.9063,267.9044 794.4688,268.2013 L794.4688,270.92 Q793.8438,270.3419 793.25,270.0763 Q792.6563,269.795 792.0313,269.795 Q790.6875,269.795 790,270.8731 Q789.3125,271.9356 789.3125,274.0294 Q789.3125,276.1231 790,277.2013 Q790.6875,278.2638 792.0313,278.2638 Q792.6563,278.2638 793.25,277.9981 Q793.8438,277.7169 794.4688,277.1388 L794.4688,279.8575 Z " fill="#000000"/><text fill="#000000" font-family="sans-serif" font-size="14" lengthAdjust="spacing" textLength="176" x="805.5" y="279.0636">SimpleUrlHandlerMapping</text><line style="stroke:#181818;stroke-width:0.5;" x1="777.5" x2="983.5" y1="290.2169" y2="290.2169"/><line style="stroke:#181818;stroke-width:0.5;" x1="777.5" x2="983.5" y1="298.2169" y2="298.2169"/></g><!--class DispatcherServlet--><g id="elem_DispatcherServlet"><rect codeLine="26" fill="#F1F1F1" height="80.5938" id="DispatcherServlet" rx="2.5" ry="2.5" style="stroke:#181818;stroke-width:0.5;" width="411" x="7" y="68.7369"/><ellipse cx="147.25" cy="84.7369" fill="#ADD1B2" rx="11" ry="11" style="stroke:#181818;stroke-width:1.0;"/><path d="M150.2188,90.3775 Q149.6406,90.6744 149,90.815 Q148.3594,90.9713 147.6563,90.9713 Q145.1563,90.9713 143.8281,89.3306 Q142.5156,87.6744 142.5156,84.5494 Q142.5156,81.4244 143.8281,79.7681 Q145.1563,78.1119 147.6563,78.1119 Q148.3594,78.1119 149,78.2681 Q149.6563,78.4244 150.2188,78.7213 L150.2188,81.44 Q149.5938,80.8619 149,80.5963 Q148.4063,80.315 147.7813,80.315 Q146.4375,80.315 145.75,81.3931 Q145.0625,82.4556 145.0625,84.5494 Q145.0625,86.6431 145.75,87.7213 Q146.4375,88.7838 147.7813,88.7838 Q148.4063,88.7838 149,88.5181 Q149.5938,88.2369 150.2188,87.6588 L150.2188,90.3775 Z " fill="#000000"/><text fill="#000000" font-family="sans-serif" font-size="14" lengthAdjust="spacing" textLength="122" x="167.75" y="89.5836">DispatcherServlet</text><line style="stroke:#181818;stroke-width:0.5;" x1="8" x2="417" y1="100.7369" y2="100.7369"/><rect fill="none" height="6" style="stroke:#C82930;stroke-width:1.0;" width="6" x="15" y="111.3853"/><text fill="#000000" font-family="sans-serif" font-size="14" lengthAdjust="spacing" textLength="282" x="27" y="117.732">List&lt;HandlerMapping&gt; handlerMappings</text><line style="stroke:#181818;stroke-width:0.5;" x1="8" x2="417" y1="125.0338" y2="125.0338"/><ellipse cx="18" cy="138.6822" fill="#84BE84" rx="3" ry="3" style="stroke:#038048;stroke-width:1.0;"/><text fill="#000000" font-family="sans-serif" font-size="14" lengthAdjust="spacing" textLength="385" x="27" y="142.0289">getHandler(HttpServletRequest) HandlerExecutionChain</text></g><!--reverse link HandlerMapping to RequestMappingHandlerMapping--><g id="link_HandlerMapping_RequestMappingHandlerMapping"><path codeLine="20" d="M581.06,151.3369 C518.52,184.6869 432.76,230.4169 381.46,257.7769 " fill="none" id="HandlerMapping-backto-RequestMappingHandlerMapping" style="stroke:#181818;stroke-width:1.0;stroke-dasharray:7.0,7.0;"/><polygon fill="none" points="577.31,144.8669,598.25,141.6369,583.9,157.2169,577.31,144.8669" style="stroke:#181818;stroke-width:1.0;"/></g><!--reverse link HandlerMapping to BeanNameUrlHandlerMapping--><g id="link_HandlerMapping_BeanNameUrlHandlerMapping"><path codeLine="21" d="M647.66,161.5869 C640.94,193.5469 632.63,233.0769 627.44,257.7169 " fill="none" id="HandlerMapping-backto-BeanNameUrlHandlerMapping" style="stroke:#181818;stroke-width:1.0;stroke-dasharray:7.0,7.0;"/><polygon fill="none" points="640.93,160.5669,651.9,142.4369,654.63,163.4469,640.93,160.5669" style="stroke:#181818;stroke-width:1.0;"/></g><!--reverse link HandlerMapping to SimpleUrlHandlerMapping--><g id="link_HandlerMapping_SimpleUrlHandlerMapping"><path codeLine="22" d="M716.01,154.3769 C758.86,187.4269 815.69,231.2469 850.1,257.7769 " fill="none" id="HandlerMapping-backto-SimpleUrlHandlerMapping" style="stroke:#181818;stroke-width:1.0;stroke-dasharray:7.0,7.0;"/><polygon fill="none" points="712.04,159.3869,700.48,141.6369,720.59,148.2969,712.04,159.3869" style="stroke:#181818;stroke-width:1.0;"/></g><!--link HandlerMapping to HandlerExecutionChain--><g id="link_HandlerMapping_HandlerExecutionChain"><path codeLine="23" d="M864.29,109.0369 C897.14,109.0369 929.98,109.0369 962.83,109.0369 " fill="none" id="HandlerMapping-to-HandlerExecutionChain" style="stroke:#181818;stroke-width:1.0;stroke-dasharray:7.0,7.0;"/><polygon fill="#181818" points="967.53,109.0369,958.53,105.0369,962.53,109.0369,958.53,113.0369,967.53,109.0369" style="stroke:#181818;stroke-width:1.0;"/></g><!--reverse link HandlerExecutionChain to HandlerInterceptor--><g id="link_HandlerExecutionChain_HandlerInterceptor"><path codeLine="24" d="M1261.4,187.8069 C1264.58,203.3769 1267.84,219.2969 1270.74,233.4869 " fill="none" id="HandlerExecutionChain-backto-HandlerInterceptor" style="stroke:#181818;stroke-width:1.0;"/><polygon fill="#181818" points="1258.63,175.2669,1255.9189,181.9489,1261.0443,187.0215,1263.7553,180.3394,1258.63,175.2669" style="stroke:#181818;stroke-width:1.0;"/><text fill="#000000" font-family="sans-serif" font-size="13" lengthAdjust="spacing" textLength="8" x="1251.5715" y="193.8407">1</text><text fill="#000000" font-family="sans-serif" font-size="13" lengthAdjust="spacing" textLength="8" x="1260.805" y="222.655">n</text></g><!--reverse link DispatcherServlet to HandlerMapping--><g id="link_DispatcherServlet_HandlerMapping"><path codeLine="30" d="M431.92,109.0369 C438.89,109.0369 445.86,109.0369 452.83,109.0369 " fill="none" id="DispatcherServlet-backto-HandlerMapping" style="stroke:#181818;stroke-width:1.0;"/><polygon fill="#181818" points="419.08,109.0369,425.08,113.0369,431.08,109.0369,425.08,105.0369,419.08,109.0369" style="stroke:#181818;stroke-width:1.0;"/><text fill="#000000" font-family="sans-serif" font-size="13" lengthAdjust="spacing" textLength="8" x="426.2667" y="105.8135">1</text><text fill="#000000" font-family="sans-serif" font-size="13" lengthAdjust="spacing" textLength="8" x="437.295" y="105.8367">n</text></g><!--SRC=[hLFBJiCm43p7Ns652wLj9Eue4XIa8l4I5H_W9jlKoBMDlQr0m8qBNBZp5rouy3tGty1H7BLDWrIrFTgUdPtnxY170VIOMyqm6OBfWPa8m9qCiCjaAi3yVht-lBzDFrwcdz-4ImGpO0bG_thEjEOoeuyaQD9PqMuNKNkkQxWRWyL6MN9o3yaOkPAT8UEIF1EI26Pj_NDEtAQN_Lj8a0uBH7vpnYqU-8hJN5G26fM9APyTSWm9d43nS6MW0DS8Qz65EwkLjD3oFHkqhvG09aiYPN5TfedYAGdGy2m3SpXmEZjgf1tKcLsJpNtUqaZclgCOYzw2USUoiVCcPTioxT5- -ogx68sZfxYoeEJ8sRXW8xWnOXLuZ-SYLmHNCIQA_rds-XqFzqEwrqxRD9HXpHJBW2obj0Z7V1IyXBYCYZ_R3TAvtBMGQnRa-aP_]--></g></svg>