<?xml version="1.0" encoding="us-ascii" standalone="no"?><svg xmlns="http://www.w3.org/2000/svg" xmlns:xlink="http://www.w3.org/1999/xlink" contentStyleType="text/css" height="94px" preserveAspectRatio="none" style="width:753px;height:94px;background:#FFFFFF;" version="1.1" viewBox="0 0 753 94" width="753px" zoomAndPan="magnify"><defs/><g><!--class BeanDefinitionRegistry--><g id="elem_BeanDefinitionRegistry"><rect codeLine="1" fill="#F1F1F1" height="80.5938" id="BeanDefinitionRegistry" rx="2.5" ry="2.5" style="stroke:#181818;stroke-width:0.5;" width="361" x="385" y="7"/><ellipse cx="482.75" cy="23" fill="#ADD1B2" rx="11" ry="11" style="stroke:#181818;stroke-width:1.0;"/><path d="M485.7188,28.6406 Q485.1406,28.9375 484.5,29.0781 Q483.8594,29.2344 483.1563,29.2344 Q480.6563,29.2344 479.3281,27.5938 Q478.0156,25.9375 478.0156,22.8125 Q478.0156,19.6875 479.3281,18.0313 Q480.6563,16.375 483.1563,16.375 Q483.8594,16.375 484.5,16.5313 Q485.1563,16.6875 485.7188,16.9844 L485.7188,19.7031 Q485.0938,19.125 484.5,18.8594 Q483.9063,18.5781 483.2813,18.5781 Q481.9375,18.5781 481.25,19.6563 Q480.5625,20.7188 480.5625,22.8125 Q480.5625,24.9063 481.25,25.9844 Q481.9375,27.0469 483.2813,27.0469 Q483.9063,27.0469 484.5,26.7813 Q485.0938,26.5 485.7188,25.9219 L485.7188,28.6406 Z " fill="#000000"/><text fill="#000000" font-family="sans-serif" font-size="14" lengthAdjust="spacing" textLength="157" x="503.25" y="27.8467">BeanDefinitionRegistry</text><line style="stroke:#181818;stroke-width:0.5;" x1="386" x2="745" y1="39" y2="39"/><ellipse cx="396" cy="52.6484" fill="none" rx="3" ry="3" style="stroke:#038048;stroke-width:1.0;"/><text fill="#000000" font-family="sans-serif" font-size="14" lengthAdjust="spacing" textLength="335" x="405" y="55.9951">Map&lt;String, BeanDefinition&gt; beanDefinitionMap</text><line style="stroke:#181818;stroke-width:0.5;" x1="386" x2="745" y1="63.2969" y2="63.2969"/><ellipse cx="396" cy="76.9453" fill="#84BE84" rx="3" ry="3" style="stroke:#038048;stroke-width:1.0;"/><text fill="#000000" font-family="sans-serif" font-size="14" lengthAdjust="spacing" textLength="244" x="405" y="80.292">register(String, BeanDefinition) void</text></g><!--class BeanDefinitionReader--><g id="elem_BeanDefinitionReader"><rect codeLine="5" fill="#F1F1F1" height="80.5938" id="BeanDefinitionReader" rx="2.5" ry="2.5" style="stroke:#181818;stroke-width:0.5;" width="343" x="7" y="7"/><ellipse cx="98.75" cy="23" fill="#ADD1B2" rx="11" ry="11" style="stroke:#181818;stroke-width:1.0;"/><path d="M101.7188,28.6406 Q101.1406,28.9375 100.5,29.0781 Q99.8594,29.2344 99.1563,29.2344 Q96.6563,29.2344 95.3281,27.5938 Q94.0156,25.9375 94.0156,22.8125 Q94.0156,19.6875 95.3281,18.0313 Q96.6563,16.375 99.1563,16.375 Q99.8594,16.375 100.5,16.5313 Q101.1563,16.6875 101.7188,16.9844 L101.7188,19.7031 Q101.0938,19.125 100.5,18.8594 Q99.9063,18.5781 99.2813,18.5781 Q97.9375,18.5781 97.25,19.6563 Q96.5625,20.7188 96.5625,22.8125 Q96.5625,24.9063 97.25,25.9844 Q97.9375,27.0469 99.2813,27.0469 Q99.9063,27.0469 100.5,26.7813 Q101.0938,26.5 101.7188,25.9219 L101.7188,28.6406 Z " fill="#000000"/><text fill="#000000" font-family="sans-serif" font-size="14" lengthAdjust="spacing" textLength="151" x="119.25" y="27.8467">BeanDefinitionReader</text><line style="stroke:#181818;stroke-width:0.5;" x1="8" x2="349" y1="39" y2="39"/><ellipse cx="18" cy="52.6484" fill="none" rx="3" ry="3" style="stroke:#038048;stroke-width:1.0;"/><text fill="#000000" font-family="sans-serif" font-size="14" lengthAdjust="spacing" textLength="317" x="27" y="55.9951">BeanDefinitionRegistry beanDefinitionRegistry</text><line style="stroke:#181818;stroke-width:0.5;" x1="8" x2="349" y1="63.2969" y2="63.2969"/><ellipse cx="18" cy="76.9453" fill="#84BE84" rx="3" ry="3" style="stroke:#038048;stroke-width:1.0;"/><text fill="#000000" font-family="sans-serif" font-size="14" lengthAdjust="spacing" textLength="209" x="27" y="80.292">loadBeanDefinitions(String) int</text></g><!--reverse link BeanDefinitionReader to BeanDefinitionRegistry--><g id="link_BeanDefinitionReader_BeanDefinitionRegistry"><path codeLine="10" d="M364.45,47.29 C371.27,47.29 378.08,47.29 384.9,47.29 " fill="none" id="BeanDefinitionReader-backto-BeanDefinitionRegistry" style="stroke:#181818;stroke-width:1.0;"/><polygon fill="#181818" points="351.46,47.29,357.46,51.29,363.46,47.29,357.46,43.29,351.46,47.29" style="stroke:#181818;stroke-width:1.0;"/></g><!--SRC=[Iyv9B2vMS4fDp7D9JSlCoop9pCyBIatFB2ufgbIevkBKLl1DBB09BYdAp4lNGLDdfv24mWUg16ae0cjFBTB0hajJeIm_CuMhbYiPgzM9AQb548jnE2e9gp18Gqv-OWggfcAe6pGLClDAW5PoORLDIxT85uTj0000]--></g></svg>