<?xml version="1.0" encoding="us-ascii" standalone="no"?><svg xmlns="http://www.w3.org/2000/svg" xmlns:xlink="http://www.w3.org/1999/xlink" contentStyleType="text/css" height="167px" preserveAspectRatio="none" style="width:643px;height:167px;background:#FFFFFF;" version="1.1" viewBox="0 0 643 167" width="643px" zoomAndPan="magnify"><defs/><g><text fill="#000000" font-family="Consolas" font-size="14" font-weight="bold" lengthAdjust="spacing" textLength="70" x="282.25" y="27.9951">&#23545;&#35937;&#30340;&#21019;&#24314;</text><ellipse cx="21" cy="67.4369" fill="#000000" rx="10" ry="10" style="stroke:none;stroke-width:1.0;"/><rect fill="#FFFFFF" height="36.2969" rx="12.5" ry="12.5" style="stroke:#000000;stroke-width:1.0;" width="164" x="51" y="49.2969"/><text fill="#000000" font-family="Consolas" font-size="14" lengthAdjust="spacing" textLength="144" x="61" y="72.292">1. new&#25351;&#20196;&#21019;&#24314;&#26032;&#23545;&#35937;</text><rect fill="#FFFFFF" height="36.2969" rx="12.5" ry="12.5" style="stroke:#000000;stroke-width:1.0;" width="233" x="235.5" y="49.2969"/><text fill="#000000" font-family="Consolas" font-size="14" lengthAdjust="spacing" textLength="213" x="245.5" y="72.292">2. &#26410;&#21152;&#36733;&#36807;&#35813;&#31867;&#65292;&#21017;&#36827;&#34892;&#31867;&#30340;&#21152;&#36733;</text><rect fill="#FFFFFF" height="36.2969" rx="12.5" ry="12.5" style="stroke:#000000;stroke-width:1.0;" width="121" x="488.5" y="49.2969"/><text fill="#000000" font-family="Consolas" font-size="14" lengthAdjust="spacing" textLength="101" x="498.5" y="72.292">3. &#20998;&#37197;&#20869;&#23384;&#31354;&#38388;</text><rect fill="#FFFFFF" height="36.2969" rx="12.5" ry="12.5" style="stroke:#000000;stroke-width:1.0;" width="177" x="460.5" y="125.5869"/><text fill="#000000" font-family="Consolas" font-size="14" lengthAdjust="spacing" textLength="157" x="470.5" y="148.582">4. &#21021;&#22987;&#21270;&#20869;&#23384;&#31354;&#38388;&#20026;&#38646;&#20540;</text><rect fill="#FFFFFF" height="36.2969" rx="12.5" ry="12.5" style="stroke:#000000;stroke-width:1.0;" width="135" x="305.5" y="125.5869"/><text fill="#000000" font-family="Consolas" font-size="14" lengthAdjust="spacing" textLength="115" x="315.5" y="148.582">5. &#35774;&#32622;&#24517;&#35201;&#30340;&#20449;&#24687;</text><rect fill="#FFFFFF" height="36.2969" rx="12.5" ry="12.5" style="stroke:#000000;stroke-width:1.0;" width="135" x="150.5" y="125.5869"/><text fill="#000000" font-family="Consolas" font-size="14" lengthAdjust="spacing" textLength="115" x="160.5" y="148.582">6. &#25191;&#34892;&#26500;&#36896;&#22120;&#26041;&#27861;</text><ellipse cx="120" cy="143.7369" fill="none" rx="10" ry="10" style="stroke:#000000;stroke-width:1.0;"/><ellipse cx="120.5" cy="144.2369" fill="#000000" rx="6" ry="6" style="stroke:none;stroke-width:1.0;"/><!--link start to 1. new???????--><g id="link_start_1. new&#25351;&#20196;&#21019;&#24314;&#26032;&#23545;&#35937;"><path d="M31.5,67.4369 C35.86,67.4369 40.22,67.4369 44.58,67.4369 " fill="none" id="start-to-1. new&#25351;&#20196;&#21019;&#24314;&#26032;&#23545;&#35937;" style="stroke:#000000;stroke-width:1.0;"/><polygon fill="#000000" points="49.53,67.4369,40.53,63.4369,44.53,67.4369,40.53,71.4369,49.53,67.4369" style="stroke:#000000;stroke-width:1.0;"/></g><!--link 1. new??????? to 2. ??????????????--><g id="link_1. new&#25351;&#20196;&#21019;&#24314;&#26032;&#23545;&#35937;_2. &#26410;&#21152;&#36733;&#36807;&#35813;&#31867;&#65292;&#21017;&#36827;&#34892;&#31867;&#30340;&#21152;&#36733;"><path d="M215.13,67.4369 C219.82,67.4369 224.52,67.4369 229.22,67.4369 " fill="none" id="1. new&#25351;&#20196;&#21019;&#24314;&#26032;&#23545;&#35937;-to-2. &#26410;&#21152;&#36733;&#36807;&#35813;&#31867;&#65292;&#21017;&#36827;&#34892;&#31867;&#30340;&#21152;&#36733;" style="stroke:#000000;stroke-width:1.0;"/><polygon fill="#000000" points="234.18,67.4369,225.18,63.4369,229.18,67.4369,225.18,71.4369,234.18,67.4369" style="stroke:#000000;stroke-width:1.0;"/></g><!--link 2. ?????????????? to 3. ??????--><g id="link_2. &#26410;&#21152;&#36733;&#36807;&#35813;&#31867;&#65292;&#21017;&#36827;&#34892;&#31867;&#30340;&#21152;&#36733;_3. &#20998;&#37197;&#20869;&#23384;&#31354;&#38388;"><path d="M468.97,67.4369 C473.34,67.4369 477.71,67.4369 482.08,67.4369 " fill="none" id="2. &#26410;&#21152;&#36733;&#36807;&#35813;&#31867;&#65292;&#21017;&#36827;&#34892;&#31867;&#30340;&#21152;&#36733;-to-3. &#20998;&#37197;&#20869;&#23384;&#31354;&#38388;" style="stroke:#000000;stroke-width:1.0;"/><polygon fill="#000000" points="487.04,67.4369,478.04,63.4369,482.04,67.4369,478.04,71.4369,487.04,67.4369" style="stroke:#000000;stroke-width:1.0;"/></g><!--link 3. ?????? to 4. ??????????--><g id="link_3. &#20998;&#37197;&#20869;&#23384;&#31354;&#38388;_4. &#21021;&#22987;&#21270;&#20869;&#23384;&#31354;&#38388;&#20026;&#38646;&#20540;"><path d="M549,86.0469 C549,96.0469 549,108.6769 549,119.4769 " fill="none" id="3. &#20998;&#37197;&#20869;&#23384;&#31354;&#38388;-to-4. &#21021;&#22987;&#21270;&#20869;&#23384;&#31354;&#38388;&#20026;&#38646;&#20540;" style="stroke:#000000;stroke-width:1.0;"/><polygon fill="#000000" points="549,124.2569,553,115.2569,549,119.2569,545,115.2569,549,124.2569" style="stroke:#000000;stroke-width:1.0;"/></g><!--reverse link 5. ??????? to 4. ??????????--><g id="link_5. &#35774;&#32622;&#24517;&#35201;&#30340;&#20449;&#24687;_4. &#21021;&#22987;&#21270;&#20869;&#23384;&#31354;&#38388;&#20026;&#38646;&#20540;"><path d="M446.49,143.7369 C451.06,143.7369 455.62,143.7369 460.18,143.7369 " fill="none" id="5. &#35774;&#32622;&#24517;&#35201;&#30340;&#20449;&#24687;-backto-4. &#21021;&#22987;&#21270;&#20869;&#23384;&#31354;&#38388;&#20026;&#38646;&#20540;" style="stroke:#000000;stroke-width:1.0;"/><polygon fill="#000000" points="441.72,143.7369,450.72,147.7369,446.72,143.7369,450.72,139.7369,441.72,143.7369" style="stroke:#000000;stroke-width:1.0;"/></g><!--reverse link 6. ??????? to 5. ???????--><g id="link_6. &#25191;&#34892;&#26500;&#36896;&#22120;&#26041;&#27861;_5. &#35774;&#32622;&#24517;&#35201;&#30340;&#20449;&#24687;"><path d="M291.58,143.7369 C296.13,143.7369 300.68,143.7369 305.23,143.7369 " fill="none" id="6. &#25191;&#34892;&#26500;&#36896;&#22120;&#26041;&#27861;-backto-5. &#35774;&#32622;&#24517;&#35201;&#30340;&#20449;&#24687;" style="stroke:#000000;stroke-width:1.0;"/><polygon fill="#000000" points="286.81,143.7369,295.81,147.7369,291.81,143.7369,295.81,139.7369,286.81,143.7369" style="stroke:#000000;stroke-width:1.0;"/></g><!--reverse link end to 6. ???????--><g id="link_end_6. &#25191;&#34892;&#26500;&#36896;&#22120;&#26041;&#27861;"><path d="M136.23,143.7369 C140.89,143.7369 145.54,143.7369 150.2,143.7369 " fill="none" id="end-backto-6. &#25191;&#34892;&#26500;&#36896;&#22120;&#26041;&#27861;" style="stroke:#000000;stroke-width:1.0;"/><polygon fill="#000000" points="131.34,143.7369,140.34,147.7369,136.34,143.7369,140.34,139.7369,131.34,143.7369" style="stroke:#000000;stroke-width:1.0;"/></g><!--SRC=[Kop9ICrDLIZ8ISpCuohEpimhI2nAp5KeoIp9INNBpoi9pgnALJ0qGP9AIKrBBCqf8IZfbmWqrpa_hpW_9x6O2soWmjFrErziNFXyLilJZjbFT-_Yqj3ILD0jqhLJK3BKKyXBBN_Mq_vaznA8vBDf6o3AbRWWIepq59xDMVMqQy6BlNjVx6z_iNxfyusxt-_fUTenyyN-sIyMzW2v8AF12c2QZFKKddQqlMpjVThM-dJjZEShTxsSlWKecGAID059pdswlFjfppHa-ISxThsSlUrfmnwWmXoGGbCzXHVhzZtVk-xf_jONong1jZpPl_1PutgOl1dGQPtBWKvuDg_bPSE2fpDNF9ksyzdcgL1ve3S1]--></g></svg>