<?xml version="1.0" encoding="us-ascii" standalone="no"?><svg xmlns="http://www.w3.org/2000/svg" xmlns:xlink="http://www.w3.org/1999/xlink" contentStyleType="text/css" height="291px" preserveAspectRatio="none" style="width:378px;height:291px;background:#FFFFFF;" version="1.1" viewBox="0 0 378 291" width="378px" zoomAndPan="magnify"><defs/><g><text fill="#000000" font-family="sans-serif" font-size="14" font-weight="bold" lengthAdjust="spacing" textLength="288" x="38.25" y="22.9951">Java Collections Framework-HashSet</text><!--class Set--><g id="elem_Set"><rect codeLine="2" fill="#F1F1F1" height="48" id="Set" rx="2.5" ry="2.5" style="stroke:#181818;stroke-width:0.5;" width="67" x="76.5" y="47.2969"/><ellipse cx="91.5" cy="63.2969" fill="#B4A7E5" rx="11" ry="11" style="stroke:#181818;stroke-width:1.0;"/><path d="M87.4219,59.0625 L87.4219,56.9063 L94.8125,56.9063 L94.8125,59.0625 L92.3438,59.0625 L92.3438,67.1406 L94.8125,67.1406 L94.8125,69.2969 L87.4219,69.2969 L87.4219,67.1406 L89.8906,67.1406 L89.8906,59.0625 L87.4219,59.0625 Z " fill="#000000"/><text fill="#000000" font-family="sans-serif" font-size="14" font-style="italic" lengthAdjust="spacing" textLength="23" x="105.5" y="68.1436">Set</text><rect fill="#FFFFFF" height="15.9688" style="stroke:#181818;stroke-width:1.0;stroke-dasharray:2.0,2.0;" width="10" x="136.5" y="44.2969"/><text fill="#000000" font-family="sans-serif" font-size="12" font-style="italic" lengthAdjust="spacing" textLength="8" x="137.5" y="56.4355">E</text><line style="stroke:#181818;stroke-width:0.5;" x1="77.5" x2="142.5" y1="79.2969" y2="79.2969"/><line style="stroke:#181818;stroke-width:0.5;" x1="77.5" x2="142.5" y1="87.2969" y2="87.2969"/></g><!--class HashSet--><g id="elem_HashSet"><rect codeLine="3" fill="#F1F1F1" height="129.4844" id="HashSet" rx="2.5" ry="2.5" style="stroke:#181818;stroke-width:0.5;" width="206" x="7" y="155.2969"/><ellipse cx="70.75" cy="171.2969" fill="#ADD1B2" rx="11" ry="11" style="stroke:#181818;stroke-width:1.0;"/><path d="M73.7188,176.9375 Q73.1406,177.2344 72.5,177.375 Q71.8594,177.5313 71.1563,177.5313 Q68.6563,177.5313 67.3281,175.8906 Q66.0156,174.2344 66.0156,171.1094 Q66.0156,167.9844 67.3281,166.3281 Q68.6563,164.6719 71.1563,164.6719 Q71.8594,164.6719 72.5,164.8281 Q73.1563,164.9844 73.7188,165.2813 L73.7188,168 Q73.0938,167.4219 72.5,167.1563 Q71.9063,166.875 71.2813,166.875 Q69.9375,166.875 69.25,167.9531 Q68.5625,169.0156 68.5625,171.1094 Q68.5625,173.2031 69.25,174.2813 Q69.9375,175.3438 71.2813,175.3438 Q71.9063,175.3438 72.5,175.0781 Q73.0938,174.7969 73.7188,174.2188 L73.7188,176.9375 Z " fill="#000000"/><text fill="#000000" font-family="sans-serif" font-size="14" lengthAdjust="spacing" textLength="58" x="91.25" y="176.1436">HashSet</text><rect fill="#FFFFFF" height="15.9688" style="stroke:#181818;stroke-width:1.0;stroke-dasharray:2.0,2.0;" width="10" x="206" y="152.2969"/><text fill="#000000" font-family="sans-serif" font-size="12" font-style="italic" lengthAdjust="spacing" textLength="8" x="207" y="164.4355">E</text><line style="stroke:#181818;stroke-width:0.5;" x1="8" x2="212" y1="187.2969" y2="187.2969"/><rect fill="none" height="6" style="stroke:#C82930;stroke-width:1.0;" width="6" x="15" y="197.9453"/><text fill="#000000" font-family="sans-serif" font-size="14" lengthAdjust="spacing" textLength="180" x="27" y="204.292">HashMap&lt;E,Object&gt; map</text><rect fill="none" height="6" style="stroke:#C82930;stroke-width:1.0;" width="6" x="15" y="214.2422"/><text fill="#000000" font-family="sans-serif" font-size="14" lengthAdjust="spacing" text-decoration="underline" textLength="114" x="27" y="220.5889">Object PRESENT</text><line style="stroke:#181818;stroke-width:0.5;" x1="8" x2="212" y1="227.8906" y2="227.8906"/><ellipse cx="18" cy="241.5391" fill="#84BE84" rx="3" ry="3" style="stroke:#038048;stroke-width:1.0;"/><text fill="#000000" font-family="sans-serif" font-size="14" lengthAdjust="spacing" textLength="105" x="27" y="244.8857">add(E) boolean</text><ellipse cx="18" cy="257.8359" fill="#84BE84" rx="3" ry="3" style="stroke:#038048;stroke-width:1.0;"/><text fill="#000000" font-family="sans-serif" font-size="14" lengthAdjust="spacing" textLength="138" x="27" y="261.1826">contains(E) boolean</text><ellipse cx="18" cy="274.1328" fill="#84BE84" rx="3" ry="3" style="stroke:#038048;stroke-width:1.0;"/><text fill="#000000" font-family="sans-serif" font-size="14" lengthAdjust="spacing" textLength="131" x="27" y="277.4795">remove(E) boolean</text></g><!--class HashMap--><g id="elem_HashMap"><rect codeLine="10" fill="#F1F1F1" height="48" id="HashMap" rx="2.5" ry="2.5" style="stroke:#181818;stroke-width:0.5;" width="119" x="248.5" y="196.0369"/><ellipse cx="263.5" cy="212.0369" fill="#ADD1B2" rx="11" ry="11" style="stroke:#181818;stroke-width:1.0;"/><path d="M266.4688,217.6775 Q265.8906,217.9744 265.25,218.115 Q264.6094,218.2712 263.9063,218.2712 Q261.4063,218.2712 260.0781,216.6306 Q258.7656,214.9744 258.7656,211.8494 Q258.7656,208.7244 260.0781,207.0681 Q261.4063,205.4119 263.9063,205.4119 Q264.6094,205.4119 265.25,205.5681 Q265.9063,205.7244 266.4688,206.0212 L266.4688,208.74 Q265.8438,208.1619 265.25,207.8962 Q264.6563,207.615 264.0313,207.615 Q262.6875,207.615 262,208.6931 Q261.3125,209.7556 261.3125,211.8494 Q261.3125,213.9431 262,215.0212 Q262.6875,216.0837 264.0313,216.0837 Q264.6563,216.0837 265.25,215.8181 Q265.8438,215.5369 266.4688,214.9587 L266.4688,217.6775 Z " fill="#000000"/><text fill="#000000" font-family="sans-serif" font-size="14" lengthAdjust="spacing" textLength="64" x="277.5" y="216.8836">HashMap</text><rect fill="#FFFFFF" height="15.9688" style="stroke:#181818;stroke-width:1.0;stroke-dasharray:2.0,2.0;" width="21" x="349.5" y="193.0369"/><text fill="#000000" font-family="sans-serif" font-size="12" font-style="italic" lengthAdjust="spacing" textLength="19" x="350.5" y="205.1755">K,V</text><line style="stroke:#181818;stroke-width:0.5;" x1="249.5" x2="366.5" y1="228.0369" y2="228.0369"/><line style="stroke:#181818;stroke-width:0.5;" x1="249.5" x2="366.5" y1="236.0369" y2="236.0369"/></g><!--reverse link Set to HashSet--><g id="link_Set_HashSet"><path codeLine="12" d="M110,116.3169 C110,128.4969 110,141.9669 110,155.0369 " fill="none" id="Set-backto-HashSet" style="stroke:#181818;stroke-width:1.0;stroke-dasharray:7.0,7.0;"/><polygon fill="none" points="103,116.5469,110,96.5469,117,116.5469,103,116.5469" style="stroke:#181818;stroke-width:1.0;"/></g><!--reverse link HashSet to HashMap--><g id="link_HashSet_HashMap"><path codeLine="13" d="M227.12,220.0369 C234.09,220.0369 241.07,220.0369 248.04,220.0369 " fill="none" id="HashSet-backto-HashMap" style="stroke:#181818;stroke-width:1.0;"/><polygon fill="#181818" points="214.25,220.0369,220.25,224.0369,226.25,220.0369,220.25,216.0369,214.25,220.0369" style="stroke:#181818;stroke-width:1.0;"/></g><!--SRC=[NOxB3e8m54JNz2lkqWVm1OIDgJ4Q7n7Z_bAliLfQqbPS8FykA274vPn9PewNNX6iiK9O6AL8U6cqWwN5Wbx6Fg8Lkbj6dadjoLvH4BGfuIaJ2fs3lcu1r2o8ldcBPSB3VNvlrr8eiEoAsddqKZG_38SZp_Zkn88vuEKouLF8ZL64kYF2Q8zIkpzigJ0LZM4pikXUD-4vPQntWlWPlzDETo2po0wA7m00]--></g></svg>