<?xml version="1.0" encoding="us-ascii" standalone="no"?><svg xmlns="http://www.w3.org/2000/svg" xmlns:xlink="http://www.w3.org/1999/xlink" contentStyleType="text/css" height="94px" preserveAspectRatio="none" style="width:866px;height:94px;background:#FFFFFF;" version="1.1" viewBox="0 0 866 94" width="866px" zoomAndPan="magnify"><defs/><g><!--class ApplicationListener--><g id="elem_ApplicationListener"><rect codeLine="1" fill="#F1F1F1" height="64.2969" id="ApplicationListener" rx="2.5" ry="2.5" style="stroke:#181818;stroke-width:0.5;" width="336" x="519.5" y="15.14"/><ellipse cx="534.5" cy="31.14" fill="#B4A7E5" rx="11" ry="11" style="stroke:#181818;stroke-width:1.0;"/><path d="M530.4219,26.9056 L530.4219,24.7494 L537.8125,24.7494 L537.8125,26.9056 L535.3438,26.9056 L535.3438,34.9838 L537.8125,34.9838 L537.8125,37.14 L530.4219,37.14 L530.4219,34.9838 L532.8906,34.9838 L532.8906,26.9056 L530.4219,26.9056 Z " fill="#000000"/><text fill="#000000" font-family="sans-serif" font-size="14" font-style="italic" lengthAdjust="spacing" textLength="130" x="548.5" y="35.9867">ApplicationListener</text><rect fill="#FFFFFF" height="15.9688" style="stroke:#181818;stroke-width:1.0;stroke-dasharray:2.0,2.0;" width="172" x="686.5" y="12.14"/><text fill="#000000" font-family="sans-serif" font-size="12" font-style="italic" lengthAdjust="spacing" textLength="170" x="687.5" y="24.2787">E extends ApplicationEvent</text><line style="stroke:#181818;stroke-width:0.5;" x1="520.5" x2="854.5" y1="47.14" y2="47.14"/><line style="stroke:#181818;stroke-width:0.5;" x1="520.5" x2="854.5" y1="55.14" y2="55.14"/><ellipse cx="530.5" cy="68.7884" fill="#84BE84" rx="3" ry="3" style="stroke:#038048;stroke-width:1.0;"/><text fill="#000000" font-family="sans-serif" font-size="14" lengthAdjust="spacing" textLength="183" x="539.5" y="72.1351">onApplicationEvent(E) void</text></g><!--class SpringApplication--><g id="elem_SpringApplication"><rect codeLine="4" fill="#F1F1F1" height="80.5938" id="SpringApplication" rx="2.5" ry="2.5" style="stroke:#181818;stroke-width:0.5;" width="477" x="7" y="7"/><ellipse cx="181.75" cy="23" fill="#ADD1B2" rx="11" ry="11" style="stroke:#181818;stroke-width:1.0;"/><path d="M184.7188,28.6406 Q184.1406,28.9375 183.5,29.0781 Q182.8594,29.2344 182.1563,29.2344 Q179.6563,29.2344 178.3281,27.5938 Q177.0156,25.9375 177.0156,22.8125 Q177.0156,19.6875 178.3281,18.0313 Q179.6563,16.375 182.1563,16.375 Q182.8594,16.375 183.5,16.5313 Q184.1563,16.6875 184.7188,16.9844 L184.7188,19.7031 Q184.0938,19.125 183.5,18.8594 Q182.9063,18.5781 182.2813,18.5781 Q180.9375,18.5781 180.25,19.6563 Q179.5625,20.7188 179.5625,22.8125 Q179.5625,24.9063 180.25,25.9844 Q180.9375,27.0469 182.2813,27.0469 Q182.9063,27.0469 183.5,26.7813 Q184.0938,26.5 184.7188,25.9219 L184.7188,28.6406 Z " fill="#000000"/><text fill="#000000" font-family="sans-serif" font-size="14" lengthAdjust="spacing" textLength="119" x="202.25" y="27.8467">SpringApplication</text><line style="stroke:#181818;stroke-width:0.5;" x1="8" x2="483" y1="39" y2="39"/><rect fill="none" height="6" style="stroke:#C82930;stroke-width:1.0;" width="6" x="15" y="49.6484"/><text fill="#000000" font-family="sans-serif" font-size="14" lengthAdjust="spacing" textLength="271" x="27" y="55.9951">List&lt;ApplicationListener&lt;?&gt;&gt; listeners</text><line style="stroke:#181818;stroke-width:0.5;" x1="8" x2="483" y1="63.2969" y2="63.2969"/><ellipse cx="18" cy="76.9453" fill="#84BE84" rx="3" ry="3" style="stroke:#038048;stroke-width:1.0;"/><text fill="#000000" font-family="sans-serif" font-size="14" lengthAdjust="spacing" textLength="451" x="27" y="80.292">setListeners(Collection&lt;? extends ApplicationListener&lt;?&gt;&gt;) void</text></g><!--reverse link SpringApplication to ApplicationListener--><g id="link_SpringApplication_ApplicationListener"><path codeLine="8" d="M498.12,47.29 C505.13,47.29 512.13,47.29 519.14,47.29 " fill="none" id="SpringApplication-backto-ApplicationListener" style="stroke:#181818;stroke-width:1.0;stroke-dasharray:7.0,7.0;"/><polygon fill="#181818" points="485.2,47.29,491.2,51.29,497.2,47.29,491.2,43.29,485.2,47.29" style="stroke:#181818;stroke-width:1.0;"/><text fill="#000000" font-family="sans-serif" font-size="13" lengthAdjust="spacing" textLength="8" x="492.1636" y="44.1128">1</text><text fill="#000000" font-family="sans-serif" font-size="13" lengthAdjust="spacing" textLength="8" x="503.3299" y="44.0201">n</text></g><!--SRC=[ROx12W8X48RF-HI3fwreeRkuH7ZhrXE8EuKWepYo1D6xbr0XvMs6VxxvFqy5yyKwX4DAmJjRVAIJvuA4MHd0sskQkKtDWbGqtCLg2v5-Wy6iOOb-5W_XWcM6SygUhirP9NTGErIlSz8QmdlXsi5OFY4FnnW2kWgegIVNllcA_2l8lOJDc4UG97lu4m00]--></g></svg>