<?xml version="1.0" encoding="us-ascii" standalone="no"?><svg xmlns="http://www.w3.org/2000/svg" xmlns:xlink="http://www.w3.org/1999/xlink" contentStyleType="text/css" height="99px" preserveAspectRatio="none" style="width:444px;height:99px;background:#FFFFFF;" version="1.1" viewBox="0 0 444 99" width="444px" zoomAndPan="magnify"><defs/><g><text fill="#000000" font-family="sans-serif" font-size="14" font-weight="bold" lengthAdjust="spacing" textLength="211" x="109.5" y="22.9951">HashMap&#20013;&#38142;&#34920;&#21644;&#32418;&#40657;&#26641;&#30340;&#36716;&#25442;</text><!--entity l--><g id="elem_l"><rect fill="#F1F1F1" height="46.2969" rx="2.5" ry="2.5" style="stroke:#181818;stroke-width:0.5;" width="68" x="7" y="44.2969"/><rect fill="#F1F1F1" height="10" style="stroke:#181818;stroke-width:0.5;" width="15" x="55" y="49.2969"/><rect fill="#F1F1F1" height="2" style="stroke:#181818;stroke-width:0.5;" width="4" x="53" y="51.2969"/><rect fill="#F1F1F1" height="2" style="stroke:#181818;stroke-width:0.5;" width="4" x="53" y="55.2969"/><text fill="#000000" font-family="sans-serif" font-size="14" lengthAdjust="spacing" textLength="28" x="22" y="77.292">&#38142;&#34920;</text></g><!--entity t--><g id="elem_t"><rect fill="#F1F1F1" height="46.2969" rx="2.5" ry="2.5" style="stroke:#181818;stroke-width:0.5;" width="82" x="356" y="44.2969"/><rect fill="#F1F1F1" height="10" style="stroke:#181818;stroke-width:0.5;" width="15" x="418" y="49.2969"/><rect fill="#F1F1F1" height="2" style="stroke:#181818;stroke-width:0.5;" width="4" x="416" y="51.2969"/><rect fill="#F1F1F1" height="2" style="stroke:#181818;stroke-width:0.5;" width="4" x="416" y="55.2969"/><text fill="#000000" font-family="sans-serif" font-size="14" lengthAdjust="spacing" textLength="42" x="371" y="77.292">&#32418;&#40657;&#26641;</text></g><!--link l to t--><g id="link_l_t"><path d="M75.46,67.4369 C139.53,67.4369 277.07,67.4369 349.75,67.4369 " fill="none" id="l-to-t" style="stroke:#181818;stroke-width:1.0;stroke-dasharray:7.0,7.0;"/><polygon fill="#181818" points="354.73,67.4369,345.73,63.4369,349.73,67.4369,345.73,71.4369,354.73,67.4369" style="stroke:#181818;stroke-width:1.0;"/><text fill="#000000" font-family="sans-serif" font-size="13" lengthAdjust="spacing" textLength="245" x="93" y="60.5038">&#26641;&#21270;&#65288;&#26368;&#23567;&#26641;&#21270;&#23481;&#37327;&#20026;64&#65292;&#26641;&#21270;&#38408;&#20540;&#20026;8&#65289;</text></g><!--link t to l--><g id="link_t_l"><path d="M355.71,76.1869 C333.16,80.5169 304.67,85.2769 279,87.4369 C222.75,92.1769 208.22,92.4669 152,87.4369 C128.29,85.3269 102.07,80.7069 81.06,76.4369 " fill="none" id="t-to-l" style="stroke:#181818;stroke-width:1.0;stroke-dasharray:7.0,7.0;"/><polygon fill="#181818" points="76.29,75.2469,84.2924,80.9881,81.1862,76.2604,85.914,73.1542,76.29,75.2469" style="stroke:#181818;stroke-width:1.0;"/><text fill="#000000" font-family="sans-serif" font-size="13" lengthAdjust="spacing" textLength="125" x="153" y="83.5038">&#38142;&#21270;&#65288;&#38142;&#21270;&#38408;&#20540;&#20026;6&#65289;</text></g><!--SRC=[AyaioKbLy4Wipl1DB7YoO-tBoVjUB5pnT5BFyrsBNkwU-6p1nEUpMbxiNVEiTn5ND4GoLY6nM267Angk0YnGmfMZe6UdKA9WfG0KUjepxVsUZcTp6fvkw8TmdwxR-RAz_ycENMOcx_VqGCHUpkXush07A6RnVaydLmb8VmvGFz0QY7u80wxA3AWA0000]--></g></svg>