<?xml version="1.0" encoding="us-ascii" standalone="no"?><svg xmlns="http://www.w3.org/2000/svg" xmlns:xlink="http://www.w3.org/1999/xlink" contentStyleType="text/css" height="618px" preserveAspectRatio="none" style="width:1925px;height:618px;background:#FFFFFF;" version="1.1" viewBox="0 0 1925 618" width="1925px" zoomAndPan="magnify"><defs/><g><text fill="#000000" font-family="sans-serif" font-size="14" font-weight="bold" lengthAdjust="spacing" textLength="436" x="737.75" y="22.9951">RequestMappingHandlerAdapter#handleInternal&#28041;&#21450;&#30340;&#31867;</text><!--class RequestMappingHandlerAdapter--><g id="elem_RequestMappingHandlerAdapter"><rect codeLine="2" fill="#F1F1F1" height="113.1875" id="RequestMappingHandlerAdapter" rx="2.5" ry="2.5" style="stroke:#181818;stroke-width:0.5;" width="696" x="9" y="358.0769"/><ellipse cx="240.25" cy="374.0769" fill="#ADD1B2" rx="11" ry="11" style="stroke:#181818;stroke-width:1.0;"/><path d="M243.2188,379.7175 Q242.6406,380.0144 242,380.155 Q241.3594,380.3113 240.6563,380.3113 Q238.1563,380.3113 236.8281,378.6706 Q235.5156,377.0144 235.5156,373.8894 Q235.5156,370.7644 236.8281,369.1081 Q238.1563,367.4519 240.6563,367.4519 Q241.3594,367.4519 242,367.6081 Q242.6563,367.7644 243.2188,368.0613 L243.2188,370.78 Q242.5938,370.2019 242,369.9363 Q241.4063,369.655 240.7813,369.655 Q239.4375,369.655 238.75,370.7331 Q238.0625,371.7956 238.0625,373.8894 Q238.0625,375.9831 238.75,377.0613 Q239.4375,378.1238 240.7813,378.1238 Q241.4063,378.1238 242,377.8581 Q242.5938,377.5769 243.2188,376.9988 L243.2188,379.7175 Z " fill="#000000"/><text fill="#000000" font-family="sans-serif" font-size="14" lengthAdjust="spacing" textLength="225" x="260.75" y="378.9236">RequestMappingHandlerAdapter</text><line style="stroke:#181818;stroke-width:0.5;" x1="10" x2="704" y1="390.0769" y2="390.0769"/><rect fill="none" height="6" style="stroke:#C82930;stroke-width:1.0;" width="6" x="17" y="400.7253"/><text fill="#000000" font-family="sans-serif" font-size="14" lengthAdjust="spacing" textLength="448" x="29" y="407.072">HandlerMethodArgumentResolverComposite argumentResolvers</text><rect fill="none" height="6" style="stroke:#C82930;stroke-width:1.0;" width="6" x="17" y="417.0222"/><text fill="#000000" font-family="sans-serif" font-size="14" lengthAdjust="spacing" textLength="464" x="29" y="423.3689">HandlerMethodReturnValueHandlerComposite returnValueHandlers</text><line style="stroke:#181818;stroke-width:0.5;" x1="10" x2="704" y1="430.6706" y2="430.6706"/><polygon fill="#4177AF" points="20,440.3191,16,446.3191,24,446.3191" style="stroke:#1963A0;stroke-width:1.0;"/><text fill="#000000" font-family="sans-serif" font-size="14" lengthAdjust="spacing" textLength="670" x="29" y="447.6657">invokeHandlerMethod(HttpServletRequest, HttpServletResponse, HandlerMethod) ModelAndView</text><polygon fill="#4177AF" points="20,456.6159,16,462.6159,24,462.6159" style="stroke:#1963A0;stroke-width:1.0;"/><text fill="#000000" font-family="sans-serif" font-size="14" lengthAdjust="spacing" textLength="553" x="29" y="463.9626">createInvocableHandlerMethod(HandlerMethod) ServletInvocableHandlerMethod</text></g><!--class HandlerMethod--><g id="elem_HandlerMethod"><rect codeLine="9" fill="#F1F1F1" height="96.8906" id="HandlerMethod" rx="2.5" ry="2.5" style="stroke:#181818;stroke-width:0.5;" width="243" x="907.5" y="44.2969"/><ellipse cx="971.75" cy="60.2969" fill="#ADD1B2" rx="11" ry="11" style="stroke:#181818;stroke-width:1.0;"/><path d="M974.7188,65.9375 Q974.1406,66.2344 973.5,66.375 Q972.8594,66.5313 972.1563,66.5313 Q969.6563,66.5313 968.3281,64.8906 Q967.0156,63.2344 967.0156,60.1094 Q967.0156,56.9844 968.3281,55.3281 Q969.6563,53.6719 972.1563,53.6719 Q972.8594,53.6719 973.5,53.8281 Q974.1563,53.9844 974.7188,54.2813 L974.7188,57 Q974.0938,56.4219 973.5,56.1563 Q972.9063,55.875 972.2813,55.875 Q970.9375,55.875 970.25,56.9531 Q969.5625,58.0156 969.5625,60.1094 Q969.5625,62.2031 970.25,63.2813 Q970.9375,64.3438 972.2813,64.3438 Q972.9063,64.3438 973.5,64.0781 Q974.0938,63.7969 974.7188,63.2188 L974.7188,65.9375 Z " fill="#000000"/><text fill="#000000" font-family="sans-serif" font-size="14" lengthAdjust="spacing" textLength="106" x="992.25" y="65.1436">HandlerMethod</text><line style="stroke:#181818;stroke-width:0.5;" x1="908.5" x2="1149.5" y1="76.2969" y2="76.2969"/><rect fill="none" height="6" style="stroke:#C82930;stroke-width:1.0;" width="6" x="915.5" y="86.9453"/><text fill="#000000" font-family="sans-serif" font-size="14" lengthAdjust="spacing" textLength="84" x="927.5" y="93.292">Object bean</text><rect fill="none" height="6" style="stroke:#C82930;stroke-width:1.0;" width="6" x="915.5" y="103.2422"/><text fill="#000000" font-family="sans-serif" font-size="14" lengthAdjust="spacing" textLength="111" x="927.5" y="109.5889">Method method</text><rect fill="none" height="6" style="stroke:#C82930;stroke-width:1.0;" width="6" x="915.5" y="119.5391"/><text fill="#000000" font-family="sans-serif" font-size="14" lengthAdjust="spacing" textLength="217" x="927.5" y="125.8857">MethodParameter[] parameters</text><line style="stroke:#181818;stroke-width:0.5;" x1="908.5" x2="1149.5" y1="133.1875" y2="133.1875"/></g><!--class InvocableHandlerMethod--><g id="elem_InvocableHandlerMethod"><rect codeLine="14" fill="#F1F1F1" height="96.8906" id="InvocableHandlerMethod" rx="2.5" ry="2.5" style="stroke:#181818;stroke-width:0.5;" width="584" x="731" y="201.1869"/><ellipse cx="933.25" cy="217.1869" fill="#ADD1B2" rx="11" ry="11" style="stroke:#181818;stroke-width:1.0;"/><path d="M936.2188,222.8275 Q935.6406,223.1244 935,223.265 Q934.3594,223.4212 933.6563,223.4212 Q931.1563,223.4212 929.8281,221.7806 Q928.5156,220.1244 928.5156,216.9994 Q928.5156,213.8744 929.8281,212.2181 Q931.1563,210.5619 933.6563,210.5619 Q934.3594,210.5619 935,210.7181 Q935.6563,210.8744 936.2188,211.1712 L936.2188,213.89 Q935.5938,213.3119 935,213.0462 Q934.4063,212.765 933.7813,212.765 Q932.4375,212.765 931.75,213.8431 Q931.0625,214.9056 931.0625,216.9994 Q931.0625,219.0931 931.75,220.1712 Q932.4375,221.2337 933.7813,221.2337 Q934.4063,221.2337 935,220.9681 Q935.5938,220.6869 936.2188,220.1087 L936.2188,222.8275 Z " fill="#000000"/><text fill="#000000" font-family="sans-serif" font-size="14" lengthAdjust="spacing" textLength="171" x="953.75" y="222.0336">InvocableHandlerMethod</text><line style="stroke:#181818;stroke-width:0.5;" x1="732" x2="1314" y1="233.1869" y2="233.1869"/><rect fill="none" height="6" style="stroke:#C82930;stroke-width:1.0;" width="6" x="739" y="243.8353"/><text fill="#000000" font-family="sans-serif" font-size="14" lengthAdjust="spacing" textLength="376" x="751" y="250.182">HandlerMethodArgumentResolverComposite resolvers</text><line style="stroke:#181818;stroke-width:0.5;" x1="732" x2="1314" y1="257.4837" y2="257.4837"/><ellipse cx="742" cy="271.1322" fill="#84BE84" rx="3" ry="3" style="stroke:#038048;stroke-width:1.0;"/><text fill="#000000" font-family="sans-serif" font-size="14" lengthAdjust="spacing" textLength="558" x="751" y="274.4789">invokeForRequest(NativeWebRequest, ModelAndViewContainer, Object...) Object</text><ellipse cx="742" cy="287.4291" fill="#84BE84" rx="3" ry="3" style="stroke:#038048;stroke-width:1.0;"/><text fill="#000000" font-family="sans-serif" font-size="14" lengthAdjust="spacing" textLength="179" x="751" y="290.7757">doInvoke(Object...) Object</text></g><!--class ServletInvocableHandlerMethod--><g id="elem_ServletInvocableHandlerMethod"><rect codeLine="19" fill="#F1F1F1" height="80.5938" id="ServletInvocableHandlerMethod" rx="2.5" ry="2.5" style="stroke:#181818;stroke-width:0.5;" width="566" x="740" y="374.3769"/><ellipse cx="909.75" cy="390.3769" fill="#ADD1B2" rx="11" ry="11" style="stroke:#181818;stroke-width:1.0;"/><path d="M912.7188,396.0175 Q912.1406,396.3144 911.5,396.455 Q910.8594,396.6112 910.1563,396.6112 Q907.6563,396.6112 906.3281,394.9706 Q905.0156,393.3144 905.0156,390.1894 Q905.0156,387.0644 906.3281,385.4081 Q907.6563,383.7519 910.1563,383.7519 Q910.8594,383.7519 911.5,383.9081 Q912.1563,384.0644 912.7188,384.3612 L912.7188,387.08 Q912.0938,386.5019 911.5,386.2362 Q910.9063,385.955 910.2813,385.955 Q908.9375,385.955 908.25,387.0331 Q907.5625,388.0956 907.5625,390.1894 Q907.5625,392.2831 908.25,393.3612 Q908.9375,394.4237 910.2813,394.4237 Q910.9063,394.4237 911.5,394.1581 Q912.0938,393.8769 912.7188,393.2987 L912.7188,396.0175 Z " fill="#000000"/><text fill="#000000" font-family="sans-serif" font-size="14" lengthAdjust="spacing" textLength="218" x="930.25" y="395.2236">ServletInvocableHandlerMethod</text><line style="stroke:#181818;stroke-width:0.5;" x1="741" x2="1305" y1="406.3769" y2="406.3769"/><rect fill="none" height="6" style="stroke:#C82930;stroke-width:1.0;" width="6" x="748" y="417.0253"/><text fill="#000000" font-family="sans-serif" font-size="14" lengthAdjust="spacing" textLength="464" x="760" y="423.372">HandlerMethodReturnValueHandlerComposite returnValueHandlers</text><line style="stroke:#181818;stroke-width:0.5;" x1="741" x2="1305" y1="430.6737" y2="430.6737"/><ellipse cx="751" cy="444.3222" fill="#84BE84" rx="3" ry="3" style="stroke:#038048;stroke-width:1.0;"/><text fill="#000000" font-family="sans-serif" font-size="14" lengthAdjust="spacing" textLength="540" x="760" y="447.6689">invokeAndHandle(ServletWebRequest, ModelAndViewContainer, Object...) void</text></g><!--class HandlerMethodArgumentResolverComposite--><g id="elem_HandlerMethodArgumentResolverComposite"><rect codeLine="24" fill="#F1F1F1" height="64.2969" id="HandlerMethodArgumentResolverComposite" rx="2.5" ry="2.5" style="stroke:#181818;stroke-width:0.5;" width="446" x="245" y="217.4769"/><ellipse cx="309.25" cy="233.4769" fill="#ADD1B2" rx="11" ry="11" style="stroke:#181818;stroke-width:1.0;"/><path d="M312.2188,239.1175 Q311.6406,239.4144 311,239.555 Q310.3594,239.7112 309.6563,239.7112 Q307.1563,239.7112 305.8281,238.0706 Q304.5156,236.4144 304.5156,233.2894 Q304.5156,230.1644 305.8281,228.5081 Q307.1563,226.8519 309.6563,226.8519 Q310.3594,226.8519 311,227.0081 Q311.6563,227.1644 312.2188,227.4612 L312.2188,230.18 Q311.5938,229.6019 311,229.3362 Q310.4063,229.055 309.7813,229.055 Q308.4375,229.055 307.75,230.1331 Q307.0625,231.1956 307.0625,233.2894 Q307.0625,235.3831 307.75,236.4612 Q308.4375,237.5237 309.7813,237.5237 Q310.4063,237.5237 311,237.2581 Q311.5938,236.9769 312.2188,236.3987 L312.2188,239.1175 Z " fill="#000000"/><text fill="#000000" font-family="sans-serif" font-size="14" lengthAdjust="spacing" textLength="309" x="329.75" y="238.3236">HandlerMethodArgumentResolverComposite</text><line style="stroke:#181818;stroke-width:0.5;" x1="246" x2="690" y1="249.4769" y2="249.4769"/><rect fill="none" height="6" style="stroke:#C82930;stroke-width:1.0;" width="6" x="253" y="260.1253"/><text fill="#000000" font-family="sans-serif" font-size="14" lengthAdjust="spacing" textLength="420" x="265" y="266.472">List&lt;HandlerMethodArgumentResolver&gt; argumentResolvers</text><line style="stroke:#181818;stroke-width:0.5;" x1="246" x2="690" y1="273.7737" y2="273.7737"/></g><!--class HandlerMethodArgumentResolver--><g id="elem_HandlerMethodArgumentResolver"><rect codeLine="27" fill="#F1F1F1" height="80.5938" id="HandlerMethodArgumentResolver" rx="2.5" ry="2.5" style="stroke:#181818;stroke-width:0.5;" width="809" x="63.5" y="52.4469"/><ellipse cx="346.75" cy="68.4469" fill="#B4A7E5" rx="11" ry="11" style="stroke:#181818;stroke-width:1.0;"/><path d="M342.6719,64.2125 L342.6719,62.0562 L350.0625,62.0562 L350.0625,64.2125 L347.5938,64.2125 L347.5938,72.2906 L350.0625,72.2906 L350.0625,74.4469 L342.6719,74.4469 L342.6719,72.2906 L345.1406,72.2906 L345.1406,64.2125 L342.6719,64.2125 Z " fill="#000000"/><text fill="#000000" font-family="sans-serif" font-size="14" font-style="italic" lengthAdjust="spacing" textLength="234" x="367.25" y="73.2936">HandlerMethodArgumentResolver</text><line style="stroke:#181818;stroke-width:0.5;" x1="64.5" x2="871.5" y1="84.4469" y2="84.4469"/><line style="stroke:#181818;stroke-width:0.5;" x1="64.5" x2="871.5" y1="92.4469" y2="92.4469"/><ellipse cx="74.5" cy="106.0953" fill="#84BE84" rx="3" ry="3" style="stroke:#038048;stroke-width:1.0;"/><text fill="#000000" font-family="sans-serif" font-size="14" lengthAdjust="spacing" textLength="327" x="83.5" y="109.442">supportsParameter(MethodParameter) boolean</text><ellipse cx="74.5" cy="122.3922" fill="#84BE84" rx="3" ry="3" style="stroke:#038048;stroke-width:1.0;"/><text fill="#000000" font-family="sans-serif" font-size="14" lengthAdjust="spacing" textLength="783" x="83.5" y="125.7389">resolveArgument(MethodParameter, ModelAndViewContainer, NativeWebRequest, WebDataBinderFactory) Object</text></g><!--class HandlerMethodReturnValueHandlerComposite--><g id="elem_HandlerMethodReturnValueHandlerComposite"><rect codeLine="31" fill="#F1F1F1" height="64.2969" id="HandlerMethodReturnValueHandlerComposite" rx="2.5" ry="2.5" style="stroke:#181818;stroke-width:0.5;" width="462" x="1341" y="382.5169"/><ellipse cx="1408.25" cy="398.5169" fill="#ADD1B2" rx="11" ry="11" style="stroke:#181818;stroke-width:1.0;"/><path d="M1411.2188,404.1575 Q1410.6406,404.4544 1410,404.595 Q1409.3594,404.7512 1408.6563,404.7512 Q1406.1563,404.7512 1404.8281,403.1106 Q1403.5156,401.4544 1403.5156,398.3294 Q1403.5156,395.2044 1404.8281,393.5481 Q1406.1563,391.8919 1408.6563,391.8919 Q1409.3594,391.8919 1410,392.0481 Q1410.6563,392.2044 1411.2188,392.5012 L1411.2188,395.22 Q1410.5938,394.6419 1410,394.3762 Q1409.4063,394.095 1408.7813,394.095 Q1407.4375,394.095 1406.75,395.1731 Q1406.0625,396.2356 1406.0625,398.3294 Q1406.0625,400.4231 1406.75,401.5012 Q1407.4375,402.5637 1408.7813,402.5637 Q1409.4063,402.5637 1410,402.2981 Q1410.5938,402.0169 1411.2188,401.4387 L1411.2188,404.1575 Z " fill="#000000"/><text fill="#000000" font-family="sans-serif" font-size="14" lengthAdjust="spacing" textLength="319" x="1428.75" y="403.3636">HandlerMethodReturnValueHandlerComposite</text><line style="stroke:#181818;stroke-width:0.5;" x1="1342" x2="1802" y1="414.5169" y2="414.5169"/><rect fill="none" height="6" style="stroke:#C82930;stroke-width:1.0;" width="6" x="1349" y="425.1653"/><text fill="#000000" font-family="sans-serif" font-size="14" lengthAdjust="spacing" textLength="436" x="1361" y="431.512">List&lt;HandlerMethodReturnValueHandler&gt; returnValueHandlers</text><line style="stroke:#181818;stroke-width:0.5;" x1="1342" x2="1802" y1="438.8137" y2="438.8137"/></g><!--class HandlerMethodReturnValueHandler--><g id="elem_HandlerMethodReturnValueHandler"><rect codeLine="34" fill="#F1F1F1" height="80.5938" id="HandlerMethodReturnValueHandler" rx="2.5" ry="2.5" style="stroke:#181818;stroke-width:0.5;" width="693" x="1225.5" y="531.2669"/><ellipse cx="1445.75" cy="547.2669" fill="#B4A7E5" rx="11" ry="11" style="stroke:#181818;stroke-width:1.0;"/><path d="M1441.6719,543.0325 L1441.6719,540.8762 L1449.0625,540.8762 L1449.0625,543.0325 L1446.5938,543.0325 L1446.5938,551.1106 L1449.0625,551.1106 L1449.0625,553.2669 L1441.6719,553.2669 L1441.6719,551.1106 L1444.1406,551.1106 L1444.1406,543.0325 L1441.6719,543.0325 Z " fill="#000000"/><text fill="#000000" font-family="sans-serif" font-size="14" font-style="italic" lengthAdjust="spacing" textLength="244" x="1466.25" y="552.1136">HandlerMethodReturnValueHandler</text><line style="stroke:#181818;stroke-width:0.5;" x1="1226.5" x2="1917.5" y1="563.2669" y2="563.2669"/><line style="stroke:#181818;stroke-width:0.5;" x1="1226.5" x2="1917.5" y1="571.2669" y2="571.2669"/><ellipse cx="1236.5" cy="584.9153" fill="#84BE84" rx="3" ry="3" style="stroke:#038048;stroke-width:1.0;"/><text fill="#000000" font-family="sans-serif" font-size="14" lengthAdjust="spacing" textLength="337" x="1245.5" y="588.262">supportsReturnType(MethodParameter) boolean</text><ellipse cx="1236.5" cy="601.2122" fill="#84BE84" rx="3" ry="3" style="stroke:#038048;stroke-width:1.0;"/><text fill="#000000" font-family="sans-serif" font-size="14" lengthAdjust="spacing" textLength="667" x="1245.5" y="604.5589">handleReturnValue(Object, MethodParameter, ModelAndViewContainer, NativeWebRequest) void</text></g><!--link RequestMappingHandlerAdapter to ServletInvocableHandlerMethod--><g id="link_RequestMappingHandlerAdapter_ServletInvocableHandlerMethod"><path codeLine="39" d="M705.28,414.6669 C714.79,414.6669 724.3,414.6669 733.8,414.6669 " fill="none" id="RequestMappingHandlerAdapter-to-ServletInvocableHandlerMethod" style="stroke:#181818;stroke-width:1.0;stroke-dasharray:7.0,7.0;"/><polygon fill="#181818" points="738.72,414.6669,729.72,410.6669,733.72,414.6669,729.72,418.6669,738.72,414.6669" style="stroke:#181818;stroke-width:1.0;"/></g><!--reverse link HandlerMethod to InvocableHandlerMethod--><g id="link_HandlerMethod_InvocableHandlerMethod"><path codeLine="41" d="M1026.35,162.1369 C1025.85,175.1769 1025.33,188.5569 1024.85,200.7869 " fill="none" id="HandlerMethod-backto-InvocableHandlerMethod" style="stroke:#181818;stroke-width:1.0;"/><polygon fill="none" points="1019.38,162.1869,1027.15,142.4769,1033.37,162.7269,1019.38,162.1869" style="stroke:#181818;stroke-width:1.0;"/></g><!--reverse link InvocableHandlerMethod to ServletInvocableHandlerMethod--><g id="link_InvocableHandlerMethod_ServletInvocableHandlerMethod"><path codeLine="42" d="M1023,319.1269 C1023,337.8369 1023,357.4869 1023,373.9969 " fill="none" id="InvocableHandlerMethod-backto-ServletInvocableHandlerMethod" style="stroke:#181818;stroke-width:1.0;"/><polygon fill="none" points="1016,319.2269,1023,299.2269,1030,319.2269,1016,319.2269" style="stroke:#181818;stroke-width:1.0;"/></g><!--reverse link ServletInvocableHandlerMethod to HandlerMethodReturnValueHandlerComposite--><g id="link_ServletInvocableHandlerMethod_HandlerMethodReturnValueHandlerComposite"><path codeLine="43" d="M1320.26,414.6669 C1327.04,414.6669 1333.81,414.6669 1340.59,414.6669 " fill="none" id="ServletInvocableHandlerMethod-backto-HandlerMethodReturnValueHandlerComposite" style="stroke:#181818;stroke-width:1.0;"/><polygon fill="#181818" points="1307.35,414.6669,1313.35,418.6669,1319.35,414.6669,1313.35,410.6669,1307.35,414.6669" style="stroke:#181818;stroke-width:1.0;"/><text fill="#000000" font-family="sans-serif" font-size="13" lengthAdjust="spacing" textLength="8" x="1313.9827" y="411.5361">1</text><text fill="#000000" font-family="sans-serif" font-size="13" lengthAdjust="spacing" textLength="8" x="1324.8656" y="411.4899">1</text></g><!--link HandlerMethodArgumentResolverComposite to InvocableHandlerMethod--><g id="link_HandlerMethodArgumentResolverComposite_InvocableHandlerMethod"><path codeLine="44" d="M691.3,249.6269 C699.84,249.6269 708.38,249.6269 716.93,249.6269 " fill="none" id="HandlerMethodArgumentResolverComposite-to-InvocableHandlerMethod" style="stroke:#181818;stroke-width:1.0;"/><polygon fill="#181818" points="729.82,249.6269,723.82,245.6269,717.82,249.6269,723.82,253.6269,729.82,249.6269" style="stroke:#181818;stroke-width:1.0;"/><text fill="#000000" font-family="sans-serif" font-size="13" lengthAdjust="spacing" textLength="8" x="698.7583" y="246.4499">1</text><text fill="#000000" font-family="sans-serif" font-size="13" lengthAdjust="spacing" textLength="8" x="714.9527" y="246.4962">1</text></g><!--link HandlerMethodArgumentResolver to HandlerMethodArgumentResolverComposite--><g id="link_HandlerMethodArgumentResolver_HandlerMethodArgumentResolverComposite"><path codeLine="46" d="M456.72,133.2269 C454.92,154.5469 454.77,180.9669 456.27,203.1469 " fill="none" id="HandlerMethodArgumentResolver-to-HandlerMethodArgumentResolverComposite" style="stroke:#181818;stroke-width:1.0;"/><polygon fill="#181818" points="457.49,216.0169,460.9467,209.6883,456.4345,204.0634,452.9778,210.392,457.49,216.0169" style="stroke:#181818;stroke-width:1.0;"/><text fill="#000000" font-family="sans-serif" font-size="13" lengthAdjust="spacing" textLength="8" x="446.1893" y="153.252">n</text><text fill="#000000" font-family="sans-serif" font-size="13" lengthAdjust="spacing" textLength="8" x="446.724" y="206.4508">1</text></g><!--reverse link HandlerMethodArgumentResolver to HandlerMethodArgumentResolverComposite--><g id="link_HandlerMethodArgumentResolver_HandlerMethodArgumentResolverComposite"><path codeLine="48" d="M481.2,153.8769 C481.96,175.4169 481.28,198.8469 479.13,217.0169 " fill="none" id="HandlerMethodArgumentResolver-backto-HandlerMethodArgumentResolverComposite" style="stroke:#181818;stroke-width:1.0;stroke-dasharray:7.0,7.0;"/><polygon fill="none" points="474.17,154.6169,479.94,134.2269,488.14,153.7669,474.17,154.6169" style="stroke:#181818;stroke-width:1.0;"/></g><!--reverse link HandlerMethodReturnValueHandlerComposite to HandlerMethodReturnValueHandler--><g id="link_HandlerMethodReturnValueHandlerComposite_HandlerMethodReturnValueHandler"><path codeLine="47" d="M1560.29,460.8869 C1558.77,483.0969 1558.92,509.5969 1560.72,530.9969 " fill="none" id="HandlerMethodReturnValueHandlerComposite-backto-HandlerMethodReturnValueHandler" style="stroke:#181818;stroke-width:1.0;"/><polygon fill="#181818" points="1561.52,448.0169,1557.0016,453.6368,1560.4514,459.9692,1564.9698,454.3492,1561.52,448.0169" style="stroke:#181818;stroke-width:1.0;"/><text fill="#000000" font-family="sans-serif" font-size="13" lengthAdjust="spacing" textLength="8" x="1550.6693" y="466.9426">1</text><text fill="#000000" font-family="sans-serif" font-size="13" lengthAdjust="spacing" textLength="8" x="1550.1893" y="520.1137">n</text></g><!--link HandlerMethodReturnValueHandlerComposite to HandlerMethodReturnValueHandler--><g id="link_HandlerMethodReturnValueHandlerComposite_HandlerMethodReturnValueHandler"><path codeLine="49" d="M1583.1,447.0169 C1585.26,465.1769 1585.97,488.6669 1585.2,510.2769 " fill="none" id="HandlerMethodReturnValueHandlerComposite-to-HandlerMethodReturnValueHandler" style="stroke:#181818;stroke-width:1.0;stroke-dasharray:7.0,7.0;"/><polygon fill="none" points="1592.14,510.4469,1583.95,529.9969,1578.17,509.6069,1592.14,510.4469" style="stroke:#181818;stroke-width:1.0;"/></g><!--SRC=[dLJDRjGm43xZfx3A9SlkHkAELbgAgbPY0Ise71079nbQWzSszYIeWdBYKYxSUGikN7WUw6kG7sUtYPCqsvizu- -RcMzcZ1m5q3LyJC7YYcdDvTanaua0iqoOHZ3tpylhYSpFaeb_lw_-_lX-_VFRzQy_91RCsa4q_KpkpQcphG3FLR8qP-a69Ax1Af61ELGRhIn7eApbiHvs3PWQUSf42iw-GnlFb-E_KYupzG4QBC4nedu99XE0BlaPRTYiLjB2h1byGbSg0R6KoIc7JmLtR81XBascOXQ9Tf0crd5tFoQNn8dPC5VgFO_UGumq0YQBgtDjAk3My88Pbjl0l7bBTNssEN75snrth_QONLkcJjOZPPo0mJE6F8FN46qLlQdMePB8k0GpS-M4OJXnnu8kKISbOU1xwme61UmePEzPgOlAKwwCWGkvNr6PudtzxDUsJFyfj_Xe4B3es95BmelTVCTY68vM19bIcsgj3Dhjl0Ij-PdGI2bH3jkqxdbDrNxRguS_3Vdv2KFscCi4p16BKPaBhyUZ6zYZbmzPTFQwLpEVeAbQvNzreM5GjkhFl47cvdf6xohWRgu6lzlGX8jRlXhIiq7pTFvbqLI33EzSXUW9CmmzU7X07ypDl3oCxJeP91CTPBqBHyZ8nQouqvnRti9DHWzlnPbqSFgeiNc6QTZktjqJ31EFp7_-7m00]--></g></svg>