<?xml version="1.0" encoding="us-ascii" standalone="no"?><svg xmlns="http://www.w3.org/2000/svg" xmlns:xlink="http://www.w3.org/1999/xlink" contentStyleType="text/css" height="766px" preserveAspectRatio="none" style="width:1025px;height:766px;background:#FFFFFF;" version="1.1" viewBox="0 0 1025 766" width="1025px" zoomAndPan="magnify"><defs/><g><text fill="#000000" font-family="Consolas" font-size="14" font-weight="bold" lengthAdjust="spacing" textLength="306" x="358" y="27.9951">AbstractBeanFactory#doGetBean&#30340;&#27969;&#31243;</text><ellipse cx="599.625" cy="52.2969" fill="#FFFFFF" rx="10" ry="10" style="stroke:#000000;stroke-width:1.0;"/><rect fill="#FFFFFF" height="52.5938" rx="12.5" ry="12.5" style="stroke:#000000;stroke-width:1.0;" width="335" x="432.125" y="82.2969"/><text fill="#000000" font-family="Consolas" font-size="14" lengthAdjust="spacing" textLength="98" x="446.125" y="105.292">&#36716;&#25442;&#20256;&#20837;&#30340;&#21517;&#31216;</text><text fill="#000000" font-family="Consolas" font-size="14" lengthAdjust="spacing" textLength="315" x="442.125" y="121.5889">AbstractBeanFactory#transformedBeanName</text><rect fill="#FFFFFF" height="52.5938" rx="12.5" ry="12.5" style="stroke:#000000;stroke-width:1.0;" width="326" x="436.625" y="154.8906"/><text fill="#000000" font-family="Consolas" font-size="14" lengthAdjust="spacing" textLength="148" x="450.625" y="177.8857">&#20174;&#21333;&#20363;&#32531;&#23384;&#20013;&#33719;&#21462;Bean</text><text fill="#000000" font-family="Consolas" font-size="14" lengthAdjust="spacing" textLength="306" x="446.625" y="194.1826">DefaultSingletonBeanRegistry#getSingleton</text><polygon fill="#FFFFFF" points="504.625,227.4844,694.625,227.4844,706.625,239.4844,694.625,251.4844,504.625,251.4844,492.625,239.4844,504.625,227.4844" style="stroke:#000000;stroke-width:1.0;"/><text fill="#000000" font-family="Consolas" font-size="14" lengthAdjust="spacing" textLength="190" x="504.625" y="244.3311">&#21333;&#20363;&#32531;&#23384;&#20013;&#26159;&#21542;&#23384;&#22312;&#35813;Bean&#65311;</text><text fill="#000000" font-family="Consolas" font-size="14" lengthAdjust="spacing" textLength="14" x="478.625" y="236.1826">&#21542;</text><text fill="#000000" font-family="Consolas" font-size="14" lengthAdjust="spacing" textLength="134" x="706.625" y="236.1826">&#26159;&#65292;&#30452;&#25509;&#36820;&#22238;&#35813;Bean</text><polygon fill="#FFFFFF" points="232.25,261.4844,488.25,261.4844,500.25,277.7813,488.25,294.0781,232.25,294.0781,220.25,277.7813,232.25,261.4844" style="stroke:#000000;stroke-width:1.0;"/><text fill="#000000" font-family="Consolas" font-size="14" lengthAdjust="spacing" textLength="256" x="232.25" y="274.4795">&#23384;&#22312;&#29238;BeanFactory&#19988;&#24403;&#21069;BeanFactory</text><text fill="#000000" font-family="Consolas" font-size="14" lengthAdjust="spacing" textLength="171" x="232.25" y="290.7764">&#19981;&#21253;&#21547;&#35813;BeanDefinition&#65311;</text><text fill="#000000" font-family="Consolas" font-size="14" lengthAdjust="spacing" textLength="14" x="206.25" y="274.4795">&#21542;</text><text fill="#000000" font-family="Consolas" font-size="14" lengthAdjust="spacing" textLength="14" x="500.25" y="274.4795">&#26159;</text><rect fill="#FFFFFF" height="52.5938" rx="12.5" ry="12.5" style="stroke:#000000;stroke-width:1.0;" width="387" x="6" y="304.0781"/><text fill="#000000" font-family="Consolas" font-size="14" lengthAdjust="spacing" textLength="129" x="20" y="327.0732">&#21512;&#24182;BeanDefinition</text><text fill="#000000" font-family="Consolas" font-size="14" lengthAdjust="spacing" textLength="367" x="16" y="343.3701">AbstractBeanFactory#getMergedLocalBeanDefinition</text><rect fill="#FFFFFF" height="36.2969" rx="12.5" ry="12.5" style="stroke:#000000;stroke-width:1.0;" width="94" x="152.5" y="391.6719"/><text fill="#000000" font-family="Consolas" font-size="14" lengthAdjust="spacing" textLength="70" x="166.5" y="414.667">&#26816;&#26597;&#20381;&#36182;&#39033;</text><rect fill="#FFFFFF" height="100.8906" style="stroke:#000000;stroke-width:1.0;" width="371" x="14" y="438.7705"/><path d="M375,438.7705 L375,448.0674 L365,458.0674 L14,458.0674 " fill="none" style="stroke:#000000;stroke-width:1.0;"/><text fill="#000000" font-family="Consolas" font-size="14" lengthAdjust="spacing" textLength="351" x="17" y="452.7656">AbstractAutowireCapableBeanFactory#createBean</text><rect fill="#FFFFFF" height="52.5938" rx="12.5" ry="12.5" style="stroke:#000000;stroke-width:1.0;" width="326" x="36.5" y="475.0674"/><text fill="#000000" font-family="Consolas" font-size="14" lengthAdjust="spacing" textLength="148" x="50.5" y="498.0625">&#26681;&#25454;&#20316;&#29992;&#22495;&#26469;&#21019;&#24314;Bean</text><text fill="#000000" font-family="Consolas" font-size="14" lengthAdjust="spacing" textLength="306" x="46.5" y="514.3594">DefaultSingletonBeanRegistry#getSingleton</text><rect fill="#FFFFFF" height="52.5938" rx="12.5" ry="12.5" style="stroke:#000000;stroke-width:1.0;" width="360" x="19.5" y="559.6611"/><text fill="#000000" font-family="Consolas" font-size="14" lengthAdjust="spacing" textLength="148" x="33.5" y="582.6563">&#20174;Bean&#23454;&#20363;&#20013;&#33719;&#21462;&#23545;&#35937;</text><text fill="#000000" font-family="Consolas" font-size="14" lengthAdjust="spacing" textLength="340" x="29.5" y="598.9531">AbstractBeanFactory#getObjectForBeanInstance</text><rect fill="#FFFFFF" height="36.2969" rx="12.5" ry="12.5" style="stroke:#000000;stroke-width:1.0;" width="216" x="413" y="304.0781"/><text fill="#000000" font-family="Consolas" font-size="14" lengthAdjust="spacing" textLength="192" x="427" y="327.0732">&#20174;&#29238;BeanFactory&#20013;&#33719;&#21462;Bean</text><ellipse cx="521" cy="386.375" fill="#FFFFFF" rx="11" ry="11" style="stroke:#000000;stroke-width:1.0;"/><ellipse cx="521" cy="386.375" fill="#000000" rx="6" ry="6" style="stroke:#7F7F7F;stroke-width:1.0;"/><rect fill="#FFFFFF" height="52.5938" rx="12.5" ry="12.5" style="stroke:#000000;stroke-width:1.0;" width="360" x="659" y="261.4844"/><text fill="#000000" font-family="Consolas" font-size="14" lengthAdjust="spacing" textLength="148" x="673" y="284.4795">&#20174;Bean&#23454;&#20363;&#20013;&#33719;&#21462;&#23545;&#35937;</text><text fill="#000000" font-family="Consolas" font-size="14" lengthAdjust="spacing" textLength="340" x="669" y="300.7764">AbstractBeanFactory#getObjectForBeanInstance</text><polygon fill="#FFFFFF" points="599.625,622.2549,611.625,634.2549,599.625,646.2549,587.625,634.2549,599.625,622.2549" style="stroke:#000000;stroke-width:1.0;"/><rect fill="#FFFFFF" height="52.5938" rx="12.5" ry="12.5" style="stroke:#000000;stroke-width:1.0;" width="309" x="445.125" y="666.2549"/><text fill="#000000" font-family="Consolas" font-size="14" lengthAdjust="spacing" textLength="134" x="459.125" y="689.25">&#36866;&#37197;Bean&#23454;&#20363;&#30340;&#31867;&#22411;</text><text fill="#000000" font-family="Consolas" font-size="14" lengthAdjust="spacing" textLength="289" x="455.125" y="705.5469">AbstractBeanFactory#adaptBeanInstance</text><ellipse cx="599.625" cy="749.8486" fill="#FFFFFF" rx="11" ry="11" style="stroke:#000000;stroke-width:1.0;"/><ellipse cx="599.625" cy="749.8486" fill="#000000" rx="6" ry="6" style="stroke:#7F7F7F;stroke-width:1.0;"/><line style="stroke:#000000;stroke-width:1.0;" x1="599.625" x2="599.625" y1="62.2969" y2="82.2969"/><polygon fill="#000000" points="595.625,72.2969,599.625,82.2969,603.625,72.2969,599.625,76.2969" style="stroke:#000000;stroke-width:1.0;"/><line style="stroke:#000000;stroke-width:1.0;" x1="599.625" x2="599.625" y1="134.8906" y2="154.8906"/><polygon fill="#000000" points="595.625,144.8906,599.625,154.8906,603.625,144.8906,599.625,148.8906" style="stroke:#000000;stroke-width:1.0;"/><line style="stroke:#000000;stroke-width:1.0;" x1="199.5" x2="199.5" y1="356.6719" y2="391.6719"/><polygon fill="#000000" points="195.5,381.6719,199.5,391.6719,203.5,381.6719,199.5,385.6719" style="stroke:#000000;stroke-width:1.0;"/><line style="stroke:#000000;stroke-width:1.0;" x1="199.5" x2="199.5" y1="427.9688" y2="475.0674"/><polygon fill="#000000" points="195.5,465.0674,199.5,475.0674,203.5,465.0674,199.5,469.0674" style="stroke:#000000;stroke-width:1.0;"/><line style="stroke:#000000;stroke-width:1.0;" x1="199.5" x2="199.5" y1="527.6611" y2="559.6611"/><polygon fill="#000000" points="195.5,549.6611,199.5,559.6611,203.5,549.6611,199.5,553.6611" style="stroke:#000000;stroke-width:1.0;"/><line style="stroke:#000000;stroke-width:1.0;" x1="521" x2="521" y1="340.375" y2="375.375"/><polygon fill="#000000" points="517,365.375,521,375.375,525,365.375,521,369.375" style="stroke:#000000;stroke-width:1.0;"/><line style="stroke:#000000;stroke-width:1.0;" x1="220.25" x2="199.5" y1="277.7813" y2="277.7813"/><line style="stroke:#000000;stroke-width:1.0;" x1="199.5" x2="199.5" y1="277.7813" y2="304.0781"/><polygon fill="#000000" points="195.5,294.0781,199.5,304.0781,203.5,294.0781,199.5,298.0781" style="stroke:#000000;stroke-width:1.0;"/><line style="stroke:#000000;stroke-width:1.0;" x1="500.25" x2="521" y1="277.7813" y2="277.7813"/><line style="stroke:#000000;stroke-width:1.0;" x1="521" x2="521" y1="277.7813" y2="304.0781"/><polygon fill="#000000" points="517,294.0781,521,304.0781,525,294.0781,521,298.0781" style="stroke:#000000;stroke-width:1.0;"/><line style="stroke:#000000;stroke-width:1.0;" x1="199.5" x2="199.5" y1="612.2549" y2="634.2549"/><line style="stroke:#000000;stroke-width:1.0;" x1="199.5" x2="587.625" y1="634.2549" y2="634.2549"/><polygon fill="#000000" points="577.625,630.2549,587.625,634.2549,577.625,638.2549,581.625,634.2549" style="stroke:#000000;stroke-width:1.0;"/><line style="stroke:#000000;stroke-width:1.0;" x1="492.625" x2="360.25" y1="239.4844" y2="239.4844"/><line style="stroke:#000000;stroke-width:1.0;" x1="360.25" x2="360.25" y1="239.4844" y2="261.4844"/><polygon fill="#000000" points="356.25,251.4844,360.25,261.4844,364.25,251.4844,360.25,255.4844" style="stroke:#000000;stroke-width:1.0;"/><line style="stroke:#000000;stroke-width:1.0;" x1="706.625" x2="839" y1="239.4844" y2="239.4844"/><line style="stroke:#000000;stroke-width:1.0;" x1="839" x2="839" y1="239.4844" y2="261.4844"/><polygon fill="#000000" points="835,251.4844,839,261.4844,843,251.4844,839,255.4844" style="stroke:#000000;stroke-width:1.0;"/><line style="stroke:#000000;stroke-width:1.0;" x1="839" x2="839" y1="314.0781" y2="634.2549"/><line style="stroke:#000000;stroke-width:1.0;" x1="839" x2="611.625" y1="634.2549" y2="634.2549"/><polygon fill="#000000" points="621.625,630.2549,611.625,634.2549,621.625,638.2549,617.625,634.2549" style="stroke:#000000;stroke-width:1.0;"/><line style="stroke:#000000;stroke-width:1.0;" x1="599.625" x2="599.625" y1="207.4844" y2="227.4844"/><polygon fill="#000000" points="595.625,217.4844,599.625,227.4844,603.625,217.4844,599.625,221.4844" style="stroke:#000000;stroke-width:1.0;"/><line style="stroke:#000000;stroke-width:1.0;" x1="599.625" x2="599.625" y1="646.2549" y2="666.2549"/><polygon fill="#000000" points="595.625,656.2549,599.625,666.2549,603.625,656.2549,599.625,660.2549" style="stroke:#000000;stroke-width:1.0;"/><line style="stroke:#000000;stroke-width:1.0;" x1="599.625" x2="599.625" y1="718.8486" y2="738.8486"/><polygon fill="#000000" points="595.625,728.8486,599.625,738.8486,603.625,728.8486,599.625,732.8486" style="stroke:#000000;stroke-width:1.0;"/><!--SRC=[hPDFRn916CRFxASOqqivcdY2KwsfCV5FOgzS1dR0qMLcCpl4r5Crac3euYQbJICjj1egYRROn5OGg5zcPtSvzIluxbBfKZ76nDDkdlTzV_lCFE_Ua4z8aI3Jm9HfrZFAJ2nm4Kag3RB2cLobBmYwUIjMqaaUbmpvr-933DnbpYnkO4kBW6WfQqc1S_8smMm5dboiBUZyBea4_zrhx_IbtwbgbiH2QYaKZ3vxzdjtkA_ARQWgn_O_VicmUHGGc9NdeaZqK0u_dWQ2EwWfUyizh_h3JNMqu_QEWjetzNOxxCcmEnEtgvGL328v2zN7f401lxPG85U5j4RpQF4QoTlfAkSGtjLk9-Ysm-6BOIk9u4OPD3k7IIqHZKKTVkKivjVjrTLeKxsnOrg6kJrRRPILy-aI1_ueevBoty69559EHVNFPllcNmuSvG4H1QBVvpbip4wa8vRtOTrhjTtplU1qUtpG3yM2u2LpcjXIIVBdL91bREAiGUBqd21OHie4jT_tx6DtjElNEwhLylRQgj9GW-__VEM9164wYcn4OCWox5R7JKXXcgJgzeEJWp-U-r7sASd1FefGlyTWirWEDYD138kWHOWm-OjzFQ3OfeHUBCd11ZYYUMqwV37Sy1jVlLex-55NZUPbR83ylsudNqsXyVghSTc-mi8_uPyCLBCw7uXrRCfPKdYAdm00]--></g></svg>