<?xml version="1.0" encoding="us-ascii" standalone="no"?><svg xmlns="http://www.w3.org/2000/svg" xmlns:xlink="http://www.w3.org/1999/xlink" contentStyleType="text/css" height="202px" preserveAspectRatio="none" style="width:910px;height:202px;background:#FFFFFF;" version="1.1" viewBox="0 0 910 202" width="910px" zoomAndPan="magnify"><defs/><g><!--class ApplicationContextFactory--><g id="elem_ApplicationContextFactory"><rect codeLine="1" fill="#F1F1F1" height="80.5938" id="ApplicationContextFactory" rx="2.5" ry="2.5" style="stroke:#181818;stroke-width:0.5;" width="485" x="301.5" y="7"/><ellipse cx="450.25" cy="23" fill="#B4A7E5" rx="11" ry="11" style="stroke:#181818;stroke-width:1.0;"/><path d="M446.1719,18.7656 L446.1719,16.6094 L453.5625,16.6094 L453.5625,18.7656 L451.0938,18.7656 L451.0938,26.8438 L453.5625,26.8438 L453.5625,29 L446.1719,29 L446.1719,26.8438 L448.6406,26.8438 L448.6406,18.7656 L446.1719,18.7656 Z " fill="#000000"/><text fill="#000000" font-family="sans-serif" font-size="14" font-style="italic" lengthAdjust="spacing" textLength="179" x="470.75" y="27.8467">ApplicationContextFactory</text><line style="stroke:#181818;stroke-width:0.5;" x1="302.5" x2="785.5" y1="39" y2="39"/><line style="stroke:#181818;stroke-width:0.5;" x1="302.5" x2="785.5" y1="47" y2="47"/><ellipse cx="312.5" cy="60.6484" fill="#84BE84" rx="3" ry="3" style="stroke:#038048;stroke-width:1.0;"/><text fill="#000000" font-family="sans-serif" font-size="14" lengthAdjust="spacing" textLength="459" x="321.5" y="63.9951">createEnvironment(WebApplicationType) ConfigurableEnvironment</text><ellipse cx="312.5" cy="76.9453" fill="#84BE84" rx="3" ry="3" style="stroke:#038048;stroke-width:1.0;"/><text fill="#000000" font-family="sans-serif" font-size="14" lengthAdjust="spacing" textLength="414" x="321.5" y="80.292">create(WebApplicationType) ConfigurableApplicationContext</text></g><!--class DefaultApplicationContextFactory--><g id="elem_DefaultApplicationContextFactory"><rect codeLine="5" fill="#F1F1F1" height="48" id="DefaultApplicationContextFactory" rx="2.5" ry="2.5" style="stroke:#181818;stroke-width:0.5;" width="260" x="7" y="23.29"/><ellipse cx="22" cy="39.29" fill="#ADD1B2" rx="11" ry="11" style="stroke:#181818;stroke-width:1.0;"/><path d="M24.9688,44.9306 Q24.3906,45.2275 23.75,45.3681 Q23.1094,45.5244 22.4063,45.5244 Q19.9063,45.5244 18.5781,43.8837 Q17.2656,42.2275 17.2656,39.1025 Q17.2656,35.9775 18.5781,34.3212 Q19.9063,32.665 22.4063,32.665 Q23.1094,32.665 23.75,32.8212 Q24.4063,32.9775 24.9688,33.2744 L24.9688,35.9931 Q24.3438,35.415 23.75,35.1494 Q23.1563,34.8681 22.5313,34.8681 Q21.1875,34.8681 20.5,35.9462 Q19.8125,37.0087 19.8125,39.1025 Q19.8125,41.1962 20.5,42.2744 Q21.1875,43.3369 22.5313,43.3369 Q23.1563,43.3369 23.75,43.0712 Q24.3438,42.79 24.9688,42.2119 L24.9688,44.9306 Z " fill="#000000"/><text fill="#000000" font-family="sans-serif" font-size="14" lengthAdjust="spacing" textLength="228" x="36" y="44.1367">DefaultApplicationContextFactory</text><line style="stroke:#181818;stroke-width:0.5;" x1="8" x2="266" y1="55.29" y2="55.29"/><line style="stroke:#181818;stroke-width:0.5;" x1="8" x2="266" y1="63.29" y2="63.29"/></g><!--class ServletWebServerApplicationContextFactory--><g id="elem_ServletWebServerApplicationContextFactory"><rect codeLine="8" fill="#F1F1F1" height="48" id="ServletWebServerApplicationContextFactory" rx="2.5" ry="2.5" style="stroke:#181818;stroke-width:0.5;" width="333" x="190.5" y="147.59"/><ellipse cx="205.5" cy="163.59" fill="#ADD1B2" rx="11" ry="11" style="stroke:#181818;stroke-width:1.0;"/><path d="M208.4688,169.2306 Q207.8906,169.5275 207.25,169.6681 Q206.6094,169.8244 205.9063,169.8244 Q203.4063,169.8244 202.0781,168.1838 Q200.7656,166.5275 200.7656,163.4025 Q200.7656,160.2775 202.0781,158.6213 Q203.4063,156.965 205.9063,156.965 Q206.6094,156.965 207.25,157.1213 Q207.9063,157.2775 208.4688,157.5744 L208.4688,160.2931 Q207.8438,159.715 207.25,159.4494 Q206.6563,159.1681 206.0313,159.1681 Q204.6875,159.1681 204,160.2463 Q203.3125,161.3088 203.3125,163.4025 Q203.3125,165.4963 204,166.5744 Q204.6875,167.6369 206.0313,167.6369 Q206.6563,167.6369 207.25,167.3713 Q207.8438,167.09 208.4688,166.5119 L208.4688,169.2306 Z " fill="#000000"/><text fill="#000000" font-family="sans-serif" font-size="14" lengthAdjust="spacing" textLength="301" x="219.5" y="168.4367">ServletWebServerApplicationContextFactory</text><line style="stroke:#181818;stroke-width:0.5;" x1="191.5" x2="522.5" y1="179.59" y2="179.59"/><line style="stroke:#181818;stroke-width:0.5;" x1="191.5" x2="522.5" y1="187.59" y2="187.59"/></g><!--class ReactiveWebServerApplicationContextFactory--><g id="elem_ReactiveWebServerApplicationContextFactory"><rect codeLine="11" fill="#F1F1F1" height="48" id="ReactiveWebServerApplicationContextFactory" rx="2.5" ry="2.5" style="stroke:#181818;stroke-width:0.5;" width="345" x="558.5" y="147.59"/><ellipse cx="573.5" cy="163.59" fill="#ADD1B2" rx="11" ry="11" style="stroke:#181818;stroke-width:1.0;"/><path d="M576.4688,169.2306 Q575.8906,169.5275 575.25,169.6681 Q574.6094,169.8244 573.9063,169.8244 Q571.4063,169.8244 570.0781,168.1838 Q568.7656,166.5275 568.7656,163.4025 Q568.7656,160.2775 570.0781,158.6213 Q571.4063,156.965 573.9063,156.965 Q574.6094,156.965 575.25,157.1213 Q575.9063,157.2775 576.4688,157.5744 L576.4688,160.2931 Q575.8438,159.715 575.25,159.4494 Q574.6563,159.1681 574.0313,159.1681 Q572.6875,159.1681 572,160.2463 Q571.3125,161.3088 571.3125,163.4025 Q571.3125,165.4963 572,166.5744 Q572.6875,167.6369 574.0313,167.6369 Q574.6563,167.6369 575.25,167.3713 Q575.8438,167.09 576.4688,166.5119 L576.4688,169.2306 Z " fill="#000000"/><text fill="#000000" font-family="sans-serif" font-size="14" lengthAdjust="spacing" textLength="313" x="587.5" y="168.4367">ReactiveWebServerApplicationContextFactory</text><line style="stroke:#181818;stroke-width:0.5;" x1="559.5" x2="902.5" y1="179.59" y2="179.59"/><line style="stroke:#181818;stroke-width:0.5;" x1="559.5" x2="902.5" y1="187.59" y2="187.59"/></g><!--link DefaultApplicationContextFactory to ApplicationContextFactory--><g id="link_DefaultApplicationContextFactory_ApplicationContextFactory"><path codeLine="15" d="M267.37,47.29 C271.68,47.29 275.99,47.29 280.29,47.29 " fill="none" id="DefaultApplicationContextFactory-to-ApplicationContextFactory" style="stroke:#181818;stroke-width:1.0;stroke-dasharray:7.0,7.0;"/><polygon fill="none" points="280.14,40.29,300.14,47.29,280.14,54.29,280.14,40.29" style="stroke:#181818;stroke-width:1.0;"/></g><!--reverse link ApplicationContextFactory to ServletWebServerApplicationContextFactory--><g id="link_ApplicationContextFactory_ServletWebServerApplicationContextFactory"><path codeLine="16" d="M466.05,99.27 C440.64,115.89 413.66,133.53 392.9,147.11 " fill="none" id="ApplicationContextFactory-backto-ServletWebServerApplicationContextFactory" style="stroke:#181818;stroke-width:1.0;stroke-dasharray:7.0,7.0;"/><polygon fill="none" points="461.72,93.09,482.29,88,469.38,104.8,461.72,93.09" style="stroke:#181818;stroke-width:1.0;"/></g><!--reverse link ApplicationContextFactory to ReactiveWebServerApplicationContextFactory--><g id="link_ApplicationContextFactory_ReactiveWebServerApplicationContextFactory"><path codeLine="17" d="M621.95,99.27 C647.36,115.89 674.34,133.53 695.1,147.11 " fill="none" id="ApplicationContextFactory-backto-ReactiveWebServerApplicationContextFactory" style="stroke:#181818;stroke-width:1.0;stroke-dasharray:7.0,7.0;"/><polygon fill="none" points="618.62,104.8,605.71,88,626.28,93.09,618.62,104.8" style="stroke:#181818;stroke-width:1.0;"/></g><!--SRC=[bP1D2i8m48NNvXHPAaAF88W_1z22wsbubK1CodGQBEhTZHijY4tT3O_vtdoCzGAkoK2lcyPPGsA3tuIKNcLFHWBt-gPcIsqO9DZvQ3du2xpCJwW6JDatMEX4rlRSCLLkkFifo5BV6kgXZAEsrLlKr3aP4ttl7i7HGTArrmIU11sGCXinbL9PeuAB- -htQzLqpQ8RR_h3FLFr1000]--></g></svg>