<?xml version="1.0" encoding="us-ascii" standalone="no"?><svg xmlns="http://www.w3.org/2000/svg" xmlns:xlink="http://www.w3.org/1999/xlink" contentStyleType="text/css" height="231px" preserveAspectRatio="none" style="width:673px;height:231px;background:#FFFFFF;" version="1.1" viewBox="0 0 673 231" width="673px" zoomAndPan="magnify"><defs/><g><!--class ConfigurationClass--><g id="elem_ConfigurationClass"><rect codeLine="1" fill="#F1F1F1" height="210.9688" id="ConfigurationClass" rx="2.5" ry="2.5" style="stroke:#181818;stroke-width:0.5;" width="652" x="7" y="7"/><ellipse cx="264.25" cy="23" fill="#ADD1B2" rx="11" ry="11" style="stroke:#181818;stroke-width:1.0;"/><path d="M267.2188,28.6406 Q266.6406,28.9375 266,29.0781 Q265.3594,29.2344 264.6563,29.2344 Q262.1563,29.2344 260.8281,27.5938 Q259.5156,25.9375 259.5156,22.8125 Q259.5156,19.6875 260.8281,18.0313 Q262.1563,16.375 264.6563,16.375 Q265.3594,16.375 266,16.5313 Q266.6563,16.6875 267.2188,16.9844 L267.2188,19.7031 Q266.5938,19.125 266,18.8594 Q265.4063,18.5781 264.7813,18.5781 Q263.4375,18.5781 262.75,19.6563 Q262.0625,20.7188 262.0625,22.8125 Q262.0625,24.9063 262.75,25.9844 Q263.4375,27.0469 264.7813,27.0469 Q265.4063,27.0469 266,26.7813 Q266.5938,26.5 267.2188,25.9219 L267.2188,28.6406 Z " fill="#000000"/><text fill="#000000" font-family="sans-serif" font-size="14" lengthAdjust="spacing" textLength="129" x="284.75" y="27.8467">ConfigurationClass</text><line style="stroke:#181818;stroke-width:0.5;" x1="8" x2="658" y1="39" y2="39"/><rect fill="none" height="6" style="stroke:#C82930;stroke-width:1.0;" width="6" x="15" y="49.6484"/><text fill="#000000" font-family="sans-serif" font-size="14" lengthAdjust="spacing" textLength="208" x="27" y="55.9951">AnnotationMetadata metadata</text><rect fill="none" height="6" style="stroke:#C82930;stroke-width:1.0;" width="6" x="15" y="65.9453"/><text fill="#000000" font-family="sans-serif" font-size="14" lengthAdjust="spacing" textLength="119" x="27" y="72.292">String beanName</text><rect fill="none" height="6" style="stroke:#C82930;stroke-width:1.0;" width="6" x="15" y="82.2422"/><text fill="#000000" font-family="sans-serif" font-size="14" lengthAdjust="spacing" textLength="259" x="27" y="88.5889">Set&lt;ConfigurationClass&gt; importedBy</text><rect fill="none" height="6" style="stroke:#C82930;stroke-width:1.0;" width="6" x="15" y="98.5391"/><text fill="#000000" font-family="sans-serif" font-size="14" lengthAdjust="spacing" textLength="236" x="27" y="104.8857">Set&lt;BeanMethod&gt; beanMethods</text><rect fill="none" height="6" style="stroke:#C82930;stroke-width:1.0;" width="6" x="15" y="114.8359"/><text fill="#000000" font-family="sans-serif" font-size="14" lengthAdjust="spacing" textLength="525" x="27" y="121.1826">Map&lt;String, Class&lt;? extends BeanDefinitionReader&gt;&gt; importedResources</text><rect fill="none" height="6" style="stroke:#C82930;stroke-width:1.0;" width="6" x="15" y="131.1328"/><text fill="#000000" font-family="sans-serif" font-size="14" lengthAdjust="spacing" textLength="626" x="27" y="137.4795">Map&lt;ImportBeanDefinitionRegistrar, AnnotationMetadata&gt; importBeanDefinitionRegistrars</text><rect fill="none" height="6" style="stroke:#C82930;stroke-width:1.0;" width="6" x="15" y="147.4297"/><text fill="#000000" font-family="sans-serif" font-size="14" lengthAdjust="spacing" textLength="243" x="27" y="153.7764">Set&lt;String&gt; skippedBeanMethods</text><line style="stroke:#181818;stroke-width:0.5;" x1="8" x2="658" y1="161.0781" y2="161.0781"/><text fill="#000000" font-family="sans-serif" font-size="14" lengthAdjust="spacing" textLength="258" x="13" y="178.0732">addBeanDefinition(BeanMethod) void</text><text fill="#000000" font-family="sans-serif" font-size="14" lengthAdjust="spacing" textLength="528" x="13" y="194.3701">addImportedResource(String, Class&lt;? extends BeanDefinitionReader&gt;) void</text><text fill="#000000" font-family="sans-serif" font-size="14" lengthAdjust="spacing" textLength="629" x="13" y="210.667">addImportBeanDefinitionRegistrar(ImportBeanDefinitionRegistrar, AnnotationMetadata) void</text></g><!--SRC=[bP1D3e9038NNUeekCT4R48m_6nUum1DKfc2Zp92POZJ6kmi3-E_2NTFNz-MzfWTq3XP6PvnN5eMDNlZLPJYOm4nh8tuPaw12GIYweP4tObddi2NKQop8hqZ2Jre4N9J62gdvkR-QrwwQkZCgyeHsTeqSOncsx35uVpW5EWbfvQ2nBIbZpGqz8LHaemS_8MSgczATi_B2kojd9nRj-4l3dlN3ulhyRS08t9xBiYxsN06LUhK73ta4HyFAtwpUGWT_bVu0_KWS_Fs2Zdoz0G00]--></g></svg>