<?xml version="1.0" encoding="us-ascii" standalone="no"?><svg xmlns="http://www.w3.org/2000/svg" xmlns:xlink="http://www.w3.org/1999/xlink" contentStyleType="text/css" height="46px" preserveAspectRatio="none" style="width:438px;height:46px;background:#FFFFFF;" version="1.1" viewBox="0 0 438 46" width="438px" zoomAndPan="magnify"><defs/><g><ellipse cx="16" cy="23.99" fill="#222222" rx="10" ry="10" style="stroke:none;stroke-width:1.0;"/><rect fill="#F1F1F1" height="33.9688" rx="12.5" ry="12.5" style="stroke:#181818;stroke-width:0.5;" width="124" x="46" y="7"/><text fill="#000000" font-family="sans-serif" font-size="12" lengthAdjust="spacing" textLength="104" x="56" y="28.1387">class&#20108;&#36827;&#21046;&#23383;&#33410;&#27969;</text><rect fill="#F1F1F1" height="33.9688" rx="12.5" ry="12.5" style="stroke:#181818;stroke-width:0.5;" width="56" x="190" y="7"/><text fill="#000000" font-family="sans-serif" font-size="12" lengthAdjust="spacing" textLength="36" x="200" y="28.1387">&#31867;&#21152;&#36733;</text><rect fill="#F1F1F1" height="33.9688" rx="12.5" ry="12.5" style="stroke:#181818;stroke-width:0.5;" width="125" x="266.5" y="7"/><text fill="#000000" font-family="sans-serif" font-size="12" lengthAdjust="spacing" textLength="105" x="276.5" y="28.1387">&#20869;&#23384;&#20013;&#30340;Class&#23545;&#35937;</text><ellipse cx="422" cy="23.99" fill="none" rx="10" ry="10" style="stroke:#222222;stroke-width:1.0;"/><ellipse cx="422.5" cy="24.49" fill="#222222" rx="6" ry="6" style="stroke:none;stroke-width:1.0;"/><!--link start to class??????--><g id="link_start_class&#20108;&#36827;&#21046;&#23383;&#33410;&#27969;"><path d="M26.42,23.99 C30.8,23.99 35.19,23.99 39.57,23.99 " fill="none" id="start-to-class&#20108;&#36827;&#21046;&#23383;&#33410;&#27969;" style="stroke:#181818;stroke-width:1.0;"/><polygon fill="#181818" points="44.54,23.99,35.54,19.99,39.54,23.99,35.54,27.99,44.54,23.99" style="stroke:#181818;stroke-width:1.0;"/></g><!--link class?????? to ???--><g id="link_class&#20108;&#36827;&#21046;&#23383;&#33410;&#27969;_&#31867;&#21152;&#36733;"><path d="M170.3,23.99 C174.85,23.99 179.39,23.99 183.93,23.99 " fill="none" id="class&#20108;&#36827;&#21046;&#23383;&#33410;&#27969;-to-&#31867;&#21152;&#36733;" style="stroke:#181818;stroke-width:1.0;"/><polygon fill="#181818" points="188.68,23.99,179.68,19.99,183.68,23.99,179.68,27.99,188.68,23.99" style="stroke:#181818;stroke-width:1.0;"/></g><!--link ??? to ????Class??--><g id="link_&#31867;&#21152;&#36733;_&#20869;&#23384;&#20013;&#30340;Class&#23545;&#35937;"><path d="M246.18,23.99 C250.88,23.99 255.59,23.99 260.29,23.99 " fill="none" id="&#31867;&#21152;&#36733;-to-&#20869;&#23384;&#20013;&#30340;Class&#23545;&#35937;" style="stroke:#181818;stroke-width:1.0;"/><polygon fill="#181818" points="265.24,23.99,256.24,19.99,260.24,23.99,256.24,27.99,265.24,23.99" style="stroke:#181818;stroke-width:1.0;"/></g><!--link ????Class?? to end--><g id="link_&#20869;&#23384;&#20013;&#30340;Class&#23545;&#35937;_end"><path d="M391.85,23.99 C396.49,23.99 401.12,23.99 405.76,23.99 " fill="none" id="&#20869;&#23384;&#20013;&#30340;Class&#23545;&#35937;-to-end" style="stroke:#181818;stroke-width:1.0;"/><polygon fill="#181818" points="410.64,23.99,401.64,19.99,405.64,23.99,401.64,27.99,410.64,23.99" style="stroke:#181818;stroke-width:1.0;"/></g><!--SRC=[qz3ILD0jqhLJICv9B2v-igldnVxPJpksFLqx_KLNqxEjZLnWoUSRTp_jMl1Yxru8zsbRwzErCvxiMFjyLeipID_JzJjVR5m8aTJGqWG0]--></g></svg>