<?xml version="1.0" encoding="us-ascii" standalone="no"?><svg xmlns="http://www.w3.org/2000/svg" xmlns:xlink="http://www.w3.org/1999/xlink" contentStyleType="text/css" height="505px" preserveAspectRatio="none" style="width:959px;height:505px;background:#FFFFFF;" version="1.1" viewBox="0 0 959 505" width="959px" zoomAndPan="magnify"><defs/><g><!--class BeanDefinition--><g id="elem_BeanDefinition"><rect codeLine="6" fill="#FFFFFF" height="44" id="BeanDefinition" rx="2.5" ry="2.5" style="stroke:#000000;stroke-width:1.0;" width="129" x="557.5" y="12"/><ellipse cx="570.5" cy="26" fill="#FFFFFF" rx="9" ry="9" style="stroke:#000000;stroke-width:1.0;"/><path d="M567.6719,22.5781 L567.6719,20.7969 L573.75,20.7969 L573.75,22.5781 L571.7188,22.5781 L571.7188,29.2188 L573.75,29.2188 L573.75,31 L567.6719,31 L567.6719,29.2188 L569.7031,29.2188 L569.7031,22.5781 L567.6719,22.5781 Z " fill="#000000"/><text fill="#000000" font-family="Consolas" font-size="14" font-style="italic" lengthAdjust="spacing" textLength="101" x="582.5" y="30.8467">BeanDefinition</text><line style="stroke:#000000;stroke-width:1.0;" x1="558.5" x2="685.5" y1="40" y2="40"/><line style="stroke:#000000;stroke-width:1.0;" x1="558.5" x2="685.5" y1="48" y2="48"/></g><!--class AbstractBeanDefinition--><g id="elem_AbstractBeanDefinition"><rect codeLine="7" fill="#FFFFFF" height="92.8906" id="AbstractBeanDefinition" rx="2.5" ry="2.5" style="stroke:#000000;stroke-width:1.0;" width="418" x="282" y="116"/><ellipse cx="408.25" cy="130" fill="#FFFFFF" rx="9" ry="9" style="stroke:#000000;stroke-width:1.0;"/><path d="M407.9688,126.1406 L407.0156,130.3125 L408.9219,130.3125 L407.9688,126.1406 Z M406.7344,124.2969 L409.2031,124.2969 L411.9531,134.5 L409.9375,134.5 L409.3125,131.9844 L406.6094,131.9844 L406,134.5 L403.9688,134.5 L406.7344,124.2969 Z " fill="#000000"/><text fill="#000000" font-family="Consolas" font-size="14" font-style="italic" lengthAdjust="spacing" textLength="158" x="425.75" y="134.8467">AbstractBeanDefinition</text><line style="stroke:#000000;stroke-width:1.0;" x1="283" x2="699" y1="144" y2="144"/><rect fill="none" height="6" style="stroke:#000000;stroke-width:1.0;" width="6" x="290" y="154.6484"/><text fill="#000000" font-family="Consolas" font-size="14" lengthAdjust="spacing" textLength="121" x="300" y="160.9951">Object beanClass</text><rect fill="none" height="6" style="stroke:#000000;stroke-width:1.0;" width="6" x="290" y="170.9453"/><text fill="#000000" font-family="Consolas" font-size="14" lengthAdjust="spacing" textLength="394" x="300" y="177.292">ConstructorArgumentValues constructorArgumentValues</text><rect fill="none" height="6" style="stroke:#000000;stroke-width:1.0;" width="6" x="290" y="187.2422"/><text fill="#000000" font-family="Consolas" font-size="14" lengthAdjust="spacing" textLength="267" x="300" y="193.5889">MutablePropertyValues propertyValues</text><line style="stroke:#000000;stroke-width:1.0;" x1="283" x2="699" y1="200.8906" y2="200.8906"/></g><!--class RootBeanDefinition--><g id="elem_RootBeanDefinition"><rect codeLine="12" fill="#FFFFFF" height="44" id="RootBeanDefinition" rx="2.5" ry="2.5" style="stroke:#000000;stroke-width:1.0;" width="162" x="85" y="140.45"/><ellipse cx="98" cy="154.45" fill="#FFFFFF" rx="9" ry="9" style="stroke:#000000;stroke-width:1.0;"/><path d="M100.3906,159.1531 Q99.9063,159.4031 99.375,159.5281 Q98.8594,159.6531 98.2813,159.6531 Q96.2188,159.6531 95.125,158.2938 Q94.0469,156.9344 94.0469,154.3563 Q94.0469,151.7781 95.125,150.4188 Q96.2188,149.0594 98.2813,149.0594 Q98.8594,149.0594 99.3906,149.1844 Q99.9219,149.3094 100.3906,149.5438 L100.3906,151.7938 Q99.875,151.3094 99.375,151.0906 Q98.8906,150.8719 98.375,150.8719 Q97.2656,150.8719 96.7031,151.7469 Q96.1406,152.6219 96.1406,154.3563 Q96.1406,156.075 96.7031,156.9656 Q97.2656,157.8406 98.375,157.8406 Q98.8906,157.8406 99.375,157.6219 Q99.875,157.3875 100.3906,156.9188 L100.3906,159.1531 Z " fill="#000000"/><text fill="#000000" font-family="Consolas" font-size="14" lengthAdjust="spacing" textLength="134" x="110" y="159.2967">RootBeanDefinition</text><line style="stroke:#000000;stroke-width:1.0;" x1="86" x2="246" y1="168.45" y2="168.45"/><line style="stroke:#000000;stroke-width:1.0;" x1="86" x2="246" y1="176.45" y2="176.45"/></g><!--class GenericBeanDefinition--><g id="elem_GenericBeanDefinition"><rect codeLine="13" fill="#FFFFFF" height="60.2969" id="GenericBeanDefinition" rx="2.5" ry="2.5" style="stroke:#000000;stroke-width:1.0;" width="183" x="389.5" y="285.19"/><ellipse cx="402.5" cy="299.19" fill="#FFFFFF" rx="9" ry="9" style="stroke:#000000;stroke-width:1.0;"/><path d="M404.8906,303.8931 Q404.4063,304.1431 403.875,304.2681 Q403.3594,304.3931 402.7813,304.3931 Q400.7188,304.3931 399.625,303.0338 Q398.5469,301.6744 398.5469,299.0963 Q398.5469,296.5181 399.625,295.1588 Q400.7188,293.7994 402.7813,293.7994 Q403.3594,293.7994 403.8906,293.9244 Q404.4219,294.0494 404.8906,294.2838 L404.8906,296.5338 Q404.375,296.0494 403.875,295.8306 Q403.3906,295.6119 402.875,295.6119 Q401.7656,295.6119 401.2031,296.4869 Q400.6406,297.3619 400.6406,299.0963 Q400.6406,300.815 401.2031,301.7056 Q401.7656,302.5806 402.875,302.5806 Q403.3906,302.5806 403.875,302.3619 Q404.375,302.1275 404.8906,301.6588 L404.8906,303.8931 Z " fill="#000000"/><text fill="#000000" font-family="Consolas" font-size="14" lengthAdjust="spacing" textLength="155" x="414.5" y="304.0367">GenericBeanDefinition</text><line style="stroke:#000000;stroke-width:1.0;" x1="390.5" x2="571.5" y1="313.19" y2="313.19"/><rect fill="none" height="6" style="stroke:#000000;stroke-width:1.0;" width="6" x="397.5" y="323.8384"/><text fill="#000000" font-family="Consolas" font-size="14" lengthAdjust="spacing" textLength="129" x="407.5" y="330.1851">String parentName</text><line style="stroke:#000000;stroke-width:1.0;" x1="390.5" x2="571.5" y1="337.4869" y2="337.4869"/></g><!--class ScannedGenericBeanDefinition--><g id="elem_ScannedGenericBeanDefinition"><rect codeLine="16" fill="#FFFFFF" height="60.2969" id="ScannedGenericBeanDefinition" rx="2.5" ry="2.5" style="stroke:#000000;stroke-width:1.0;" width="244" x="353" y="429.93"/><ellipse cx="366" cy="443.93" fill="#FFFFFF" rx="9" ry="9" style="stroke:#000000;stroke-width:1.0;"/><path d="M368.3906,448.6331 Q367.9063,448.8831 367.375,449.0081 Q366.8594,449.1331 366.2813,449.1331 Q364.2188,449.1331 363.125,447.7738 Q362.0469,446.4144 362.0469,443.8363 Q362.0469,441.2581 363.125,439.8988 Q364.2188,438.5394 366.2813,438.5394 Q366.8594,438.5394 367.3906,438.6644 Q367.9219,438.7894 368.3906,439.0238 L368.3906,441.2738 Q367.875,440.7894 367.375,440.5706 Q366.8906,440.3519 366.375,440.3519 Q365.2656,440.3519 364.7031,441.2269 Q364.1406,442.1019 364.1406,443.8363 Q364.1406,445.555 364.7031,446.4456 Q365.2656,447.3206 366.375,447.3206 Q366.8906,447.3206 367.375,447.1019 Q367.875,446.8675 368.3906,446.3988 L368.3906,448.6331 Z " fill="#000000"/><text fill="#000000" font-family="Consolas" font-size="14" lengthAdjust="spacing" textLength="216" x="378" y="448.7767">ScannedGenericBeanDefinition</text><line style="stroke:#000000;stroke-width:1.0;" x1="354" x2="596" y1="457.93" y2="457.93"/><rect fill="none" height="6" style="stroke:#000000;stroke-width:1.0;" width="6" x="361" y="468.5784"/><text fill="#000000" font-family="Consolas" font-size="14" lengthAdjust="spacing" textLength="208" x="371" y="474.9251">AnnotationMetadata metadata</text><line style="stroke:#000000;stroke-width:1.0;" x1="354" x2="596" y1="482.2269" y2="482.2269"/></g><!--class AnnotatedBeanDefinition--><g id="elem_AnnotatedBeanDefinition"><rect codeLine="19" fill="#FFFFFF" height="76.5938" id="AnnotatedBeanDefinition" rx="2.5" ry="2.5" style="stroke:#000000;stroke-width:1.0;" width="345" x="607.5" y="277.04"/><ellipse cx="689.75" cy="291.04" fill="#FFFFFF" rx="9" ry="9" style="stroke:#000000;stroke-width:1.0;"/><path d="M686.9219,287.6181 L686.9219,285.8369 L693,285.8369 L693,287.6181 L690.9688,287.6181 L690.9688,294.2587 L693,294.2587 L693,296.04 L686.9219,296.04 L686.9219,294.2587 L688.9531,294.2587 L688.9531,287.6181 L686.9219,287.6181 Z " fill="#000000"/><text fill="#000000" font-family="Consolas" font-size="14" font-style="italic" lengthAdjust="spacing" textLength="173" x="707.25" y="295.8867">AnnotatedBeanDefinition</text><line style="stroke:#000000;stroke-width:1.0;" x1="608.5" x2="951.5" y1="305.04" y2="305.04"/><line style="stroke:#000000;stroke-width:1.0;" x1="608.5" x2="951.5" y1="313.04" y2="313.04"/><ellipse cx="618.5" cy="326.6884" fill="#FFFFFF" rx="3" ry="3" style="stroke:#000000;stroke-width:1.0;"/><text fill="#000000" font-family="Consolas" font-size="14" lengthAdjust="spacing" textLength="240" x="625.5" y="330.0351">getMetadata() AnnotationMetadata</text><ellipse cx="618.5" cy="342.9853" fill="#FFFFFF" rx="3" ry="3" style="stroke:#000000;stroke-width:1.0;"/><text fill="#000000" font-family="Consolas" font-size="14" lengthAdjust="spacing" textLength="321" x="625.5" y="346.332">getFactoryMethodMetadata() MethodMetadata</text></g><!--class AnnotatedGenericBeanDefinition--><g id="elem_AnnotatedGenericBeanDefinition"><rect codeLine="23" fill="#FFFFFF" height="76.5938" id="AnnotatedGenericBeanDefinition" rx="2.5" ry="2.5" style="stroke:#000000;stroke-width:1.0;" width="308" x="632" y="421.79"/><ellipse cx="668.85" cy="435.79" fill="#FFFFFF" rx="9" ry="9" style="stroke:#000000;stroke-width:1.0;"/><path d="M671.2406,440.4931 Q670.7563,440.7431 670.225,440.8681 Q669.7094,440.9931 669.1313,440.9931 Q667.0688,440.9931 665.975,439.6337 Q664.8969,438.2744 664.8969,435.6962 Q664.8969,433.1181 665.975,431.7587 Q667.0688,430.3994 669.1313,430.3994 Q669.7094,430.3994 670.2406,430.5244 Q670.7719,430.6494 671.2406,430.8837 L671.2406,433.1337 Q670.725,432.6494 670.225,432.4306 Q669.7406,432.2119 669.225,432.2119 Q668.1156,432.2119 667.5531,433.0869 Q666.9906,433.9619 666.9906,435.6962 Q666.9906,437.415 667.5531,438.3056 Q668.1156,439.1806 669.225,439.1806 Q669.7406,439.1806 670.225,438.9619 Q670.725,438.7275 671.2406,438.2587 L671.2406,440.4931 Z " fill="#000000"/><text fill="#000000" font-family="Consolas" font-size="14" lengthAdjust="spacing" textLength="227" x="686.15" y="440.6367">AnnotatedGenericBeanDefinition</text><line style="stroke:#000000;stroke-width:1.0;" x1="633" x2="939" y1="449.79" y2="449.79"/><rect fill="none" height="6" style="stroke:#000000;stroke-width:1.0;" width="6" x="640" y="460.4384"/><text fill="#000000" font-family="Consolas" font-size="14" lengthAdjust="spacing" textLength="208" x="650" y="466.7851">AnnotationMetadata metadata</text><rect fill="none" height="6" style="stroke:#000000;stroke-width:1.0;" width="6" x="640" y="476.7353"/><text fill="#000000" font-family="Consolas" font-size="14" lengthAdjust="spacing" textLength="284" x="650" y="483.082">MethodMetadata factoryMethodMetadata</text><line style="stroke:#000000;stroke-width:1.0;" x1="633" x2="939" y1="490.3837" y2="490.3837"/></g><!--class ConfigurationClassBeanDefinition--><g id="elem_ConfigurationClassBeanDefinition"><rect codeLine="27" fill="#FFFFFF" height="92.8906" id="ConfigurationClassBeanDefinition" rx="2.5" ry="2.5" style="stroke:#000000;stroke-width:1.0;" width="308" x="12" y="268.9"/><ellipse cx="47.5" cy="282.9" fill="#FFFFFF" rx="9" ry="9" style="stroke:#000000;stroke-width:1.0;"/><path d="M49.8906,287.6031 Q49.4063,287.8531 48.875,287.9781 Q48.3594,288.1031 47.7813,288.1031 Q45.7188,288.1031 44.625,286.7438 Q43.5469,285.3844 43.5469,282.8063 Q43.5469,280.2281 44.625,278.8688 Q45.7188,277.5094 47.7813,277.5094 Q48.3594,277.5094 48.8906,277.6344 Q49.4219,277.7594 49.8906,277.9938 L49.8906,280.2438 Q49.375,279.7594 48.875,279.5406 Q48.3906,279.3219 47.875,279.3219 Q46.7656,279.3219 46.2031,280.1969 Q45.6406,281.0719 45.6406,282.8063 Q45.6406,284.525 46.2031,285.4156 Q46.7656,286.2906 47.875,286.2906 Q48.3906,286.2906 48.875,286.0719 Q49.375,285.8375 49.8906,285.3688 L49.8906,287.6031 Z " fill="#000000"/><text fill="#000000" font-family="Consolas" font-size="14" lengthAdjust="spacing" textLength="230" x="64.5" y="287.7467">ConfigurationClassBeanDefinition</text><line style="stroke:#000000;stroke-width:1.0;" x1="13" x2="319" y1="296.9" y2="296.9"/><rect fill="none" height="6" style="stroke:#000000;stroke-width:1.0;" width="6" x="20" y="307.5484"/><text fill="#000000" font-family="Consolas" font-size="14" lengthAdjust="spacing" textLength="281" x="30" y="313.8951">AnnotationMetadata annotationMetadata</text><rect fill="none" height="6" style="stroke:#000000;stroke-width:1.0;" width="6" x="20" y="323.8453"/><text fill="#000000" font-family="Consolas" font-size="14" lengthAdjust="spacing" textLength="284" x="30" y="330.192">MethodMetadata factoryMethodMetadata</text><rect fill="none" height="6" style="stroke:#000000;stroke-width:1.0;" width="6" x="20" y="340.1422"/><text fill="#000000" font-family="Consolas" font-size="14" lengthAdjust="spacing" textLength="171" x="30" y="346.4889">String derivedBeanName</text><line style="stroke:#000000;stroke-width:1.0;" x1="13" x2="319" y1="353.7906" y2="353.7906"/></g><!--reverse link BeanDefinition to AbstractBeanDefinition--><g id="link_BeanDefinition_AbstractBeanDefinition"><path codeLine="32" d="M585.12,70.6 C570.61,84.61 553.76,100.87 538.37,115.73 " fill="none" id="BeanDefinition-backto-AbstractBeanDefinition" style="stroke:#000000;stroke-width:1.0;stroke-dasharray:7.0,7.0;"/><polygon fill="none" points="579.53,66.31,598.78,57.45,589.25,76.38,579.53,66.31" style="stroke:#000000;stroke-width:1.0;"/></g><!--link RootBeanDefinition to AbstractBeanDefinition--><g id="link_RootBeanDefinition_AbstractBeanDefinition"><path codeLine="33" d="M247.25,162.45 C251.71,162.45 256.18,162.45 260.64,162.45 " fill="none" id="RootBeanDefinition-to-AbstractBeanDefinition" style="stroke:#000000;stroke-width:1.0;"/><polygon fill="none" points="260.53,155.45,280.53,162.45,260.53,169.45,260.53,155.45" style="stroke:#000000;stroke-width:1.0;"/></g><!--reverse link AbstractBeanDefinition to GenericBeanDefinition--><g id="link_AbstractBeanDefinition_GenericBeanDefinition"><path codeLine="34" d="M486.6,229.89 C485.32,249.17 483.99,269.25 482.95,284.99 " fill="none" id="AbstractBeanDefinition-backto-GenericBeanDefinition" style="stroke:#000000;stroke-width:1.0;"/><polygon fill="none" points="479.67,229.63,487.97,210.13,493.63,230.55,479.67,229.63" style="stroke:#000000;stroke-width:1.0;"/></g><!--reverse link BeanDefinition to AnnotatedBeanDefinition--><g id="link_BeanDefinition_AnnotatedBeanDefinition"><path codeLine="35" d="M672.7,68.86 C689.09,81.93 706.09,98.08 718,116 C751.24,166.04 767.47,234.88 774.75,276.91 " fill="none" id="BeanDefinition-backto-AnnotatedBeanDefinition" style="stroke:#000000;stroke-width:1.0;"/><polygon fill="none" points="668.88,74,657.07,56.4,677.28,62.79,668.88,74" style="stroke:#000000;stroke-width:1.0;"/></g><!--reverse link AnnotatedBeanDefinition to AnnotatedGenericBeanDefinition--><g id="link_AnnotatedBeanDefinition_AnnotatedGenericBeanDefinition"><path codeLine="36" d="M782.46,374.79 C783.12,390.5 783.81,407.08 784.41,421.33 " fill="none" id="AnnotatedBeanDefinition-backto-AnnotatedGenericBeanDefinition" style="stroke:#000000;stroke-width:1.0;stroke-dasharray:7.0,7.0;"/><polygon fill="none" points="775.42,375.12,781.58,354.84,789.41,374.53,775.42,375.12" style="stroke:#000000;stroke-width:1.0;"/></g><!--reverse link GenericBeanDefinition to AnnotatedGenericBeanDefinition--><g id="link_GenericBeanDefinition_AnnotatedGenericBeanDefinition"><path codeLine="37" d="M563.08,354.75 C607.25,375.43 661.52,400.83 705.45,421.39 " fill="none" id="GenericBeanDefinition-backto-AnnotatedGenericBeanDefinition" style="stroke:#000000;stroke-width:1.0;"/><polygon fill="none" points="560.34,360.73,545.2,345.92,566.28,348.05,560.34,360.73" style="stroke:#000000;stroke-width:1.0;"/></g><!--reverse link AnnotatedBeanDefinition to ScannedGenericBeanDefinition--><g id="link_AnnotatedBeanDefinition_ScannedGenericBeanDefinition"><path codeLine="38" d="M680.58,362.87 C633.71,384.8 579.2,410.32 538.09,429.56 " fill="none" id="AnnotatedBeanDefinition-backto-ScannedGenericBeanDefinition" style="stroke:#000000;stroke-width:1.0;stroke-dasharray:7.0,7.0;"/><polygon fill="none" points="677.38,356.17,698.47,354.03,683.32,368.85,677.38,356.17" style="stroke:#000000;stroke-width:1.0;"/></g><!--reverse link GenericBeanDefinition to ScannedGenericBeanDefinition--><g id="link_GenericBeanDefinition_ScannedGenericBeanDefinition"><path codeLine="39" d="M478.88,366.87 C477.99,387.85 477,411.47 476.24,429.54 " fill="none" id="GenericBeanDefinition-backto-ScannedGenericBeanDefinition" style="stroke:#000000;stroke-width:1.0;"/><polygon fill="none" points="471.92,366.61,479.76,346.92,485.91,367.19,471.92,366.61" style="stroke:#000000;stroke-width:1.0;"/></g><!--reverse link RootBeanDefinition to ConfigurationClassBeanDefinition--><g id="link_RootBeanDefinition_ConfigurationClassBeanDefinition"><path codeLine="40" d="M166,205.62 C166,225.23 166,248.59 166,268.62 " fill="none" id="RootBeanDefinition-backto-ConfigurationClassBeanDefinition" style="stroke:#000000;stroke-width:1.0;"/><polygon fill="none" points="159,205.75,166,185.75,173,205.75,159,205.75" style="stroke:#000000;stroke-width:1.0;"/></g><!--SRC=[dL9BJyCm33wJNn5k8DH9I9oHnj0u3H2JkBkjsmLQfqeTfF7uxoHhwTRrDN5BukyLs-UymHnbaO4YKRuhAi10BbbnXajDl5QVAAzl3aen9c0pdYm-WjDTQ2fr1gKGYXXD0X7AEmIwnqIHOgL9G5YoWOXbv72bdDVNDaf-YRD0FeLlw82XAoqysBzv1pOsOctc9hKv4hz2Ph6KqL35qrQM8SpmsUW23MzhIj6wYXzHPNhH-YXFNNX0GgEYlgnhDefIwTg2LIyQjNK4H1YFSET4ci7VLyWG0uFCwuDJsNUonc7S5RcIAV8V- -AoHxB6BC4tQEjUDpe-8BGVcl2DvJ_Z-zQtb6NI5w3nS-DDL6hDJcutz1CTeUV39thlfnUxBtvKxQr7EB2UCplxlZtUxExQoC043jSl8lfR6jWHoj0615dGpJCnk-eF0ufJv2fbRqsCBlouwoXrp7DoRofoTqI_]--></g></svg>