<?xml version="1.0" encoding="us-ascii" standalone="no"?><svg xmlns="http://www.w3.org/2000/svg" xmlns:xlink="http://www.w3.org/1999/xlink" contentStyleType="text/css" height="365px" preserveAspectRatio="none" style="width:487px;height:365px;background:#FFFFFF;" version="1.1" viewBox="0 0 487 365" width="487px" zoomAndPan="magnify"><defs/><g><!--class BeanDefinition--><g id="elem_BeanDefinition"><rect codeLine="1" fill="#F1F1F1" height="226.9688" id="BeanDefinition" rx="2.5" ry="2.5" style="stroke:#181818;stroke-width:0.5;" width="455" x="7" y="131.3"/><ellipse cx="179.75" cy="147.3" fill="#B4A7E5" rx="11" ry="11" style="stroke:#181818;stroke-width:1.0;"/><path d="M175.6719,143.0656 L175.6719,140.9094 L183.0625,140.9094 L183.0625,143.0656 L180.5938,143.0656 L180.5938,151.1437 L183.0625,151.1437 L183.0625,153.3 L175.6719,153.3 L175.6719,151.1437 L178.1406,151.1437 L178.1406,143.0656 L175.6719,143.0656 Z " fill="#000000"/><text fill="#000000" font-family="sans-serif" font-size="14" font-style="italic" lengthAdjust="spacing" textLength="101" x="200.25" y="152.1467">BeanDefinition</text><line style="stroke:#181818;stroke-width:0.5;" x1="8" x2="461" y1="163.3" y2="163.3"/><ellipse cx="18" cy="176.9484" fill="#84BE84" rx="3" ry="3" style="stroke:#038048;stroke-width:1.0;"/><text fill="#000000" font-family="sans-serif" font-size="14" lengthAdjust="spacing" textLength="190" x="27" y="180.2951">getBeanClassName() String</text><ellipse cx="18" cy="193.2453" fill="#84BE84" rx="3" ry="3" style="stroke:#038048;stroke-width:1.0;"/><text fill="#000000" font-family="sans-serif" font-size="14" lengthAdjust="spacing" textLength="300" x="27" y="196.592">getPropertyValues() MutablePropertyValues</text><ellipse cx="18" cy="209.5422" fill="#84BE84" rx="3" ry="3" style="stroke:#038048;stroke-width:1.0;"/><text fill="#000000" font-family="sans-serif" font-size="14" lengthAdjust="spacing" textLength="429" x="27" y="212.8889">getConstructorArgumentValues() ConstructorArgumentValues</text><line style="stroke:#181818;stroke-width:1.0;stroke-dasharray:1.0,2.0;" x1="8" x2="461" y1="220.1906" y2="220.1906"/><ellipse cx="18" cy="233.8391" fill="#84BE84" rx="3" ry="3" style="stroke:#038048;stroke-width:1.0;"/><text fill="#000000" font-family="sans-serif" font-size="14" lengthAdjust="spacing" textLength="190" x="27" y="237.1857">getInitMethodName() String</text><ellipse cx="18" cy="250.1359" fill="#84BE84" rx="3" ry="3" style="stroke:#038048;stroke-width:1.0;"/><text fill="#000000" font-family="sans-serif" font-size="14" lengthAdjust="spacing" textLength="224" x="27" y="253.4826">getDestroyMethodName() String</text><line style="stroke:#181818;stroke-width:1.0;stroke-dasharray:1.0,2.0;" x1="8" x2="461" y1="260.7844" y2="260.7844"/><ellipse cx="18" cy="274.4328" fill="#84BE84" rx="3" ry="3" style="stroke:#038048;stroke-width:1.0;"/><text fill="#000000" font-family="sans-serif" font-size="14" lengthAdjust="spacing" textLength="203" x="27" y="277.7795">getFactoryBeanName() String</text><ellipse cx="18" cy="290.7297" fill="#84BE84" rx="3" ry="3" style="stroke:#038048;stroke-width:1.0;"/><text fill="#000000" font-family="sans-serif" font-size="14" lengthAdjust="spacing" textLength="220" x="27" y="294.0764">getFactoryMethodName() String</text><line style="stroke:#181818;stroke-width:1.0;stroke-dasharray:1.0,2.0;" x1="8" x2="461" y1="301.3781" y2="301.3781"/><ellipse cx="18" cy="315.0266" fill="#84BE84" rx="3" ry="3" style="stroke:#038048;stroke-width:1.0;"/><text fill="#000000" font-family="sans-serif" font-size="14" lengthAdjust="spacing" textLength="131" x="27" y="318.3732">isLazyInit() boolean</text><ellipse cx="18" cy="331.3234" fill="#84BE84" rx="3" ry="3" style="stroke:#038048;stroke-width:1.0;"/><text fill="#000000" font-family="sans-serif" font-size="14" lengthAdjust="spacing" textLength="121" x="27" y="334.6701">getScope() String</text><ellipse cx="18" cy="347.6203" fill="#84BE84" rx="3" ry="3" style="stroke:#038048;stroke-width:1.0;"/><text fill="#000000" font-family="sans-serif" font-size="14" lengthAdjust="spacing" textLength="171" x="27" y="350.967">getDependsOn() String[]</text></g><!--class AttributeAccessor--><g id="elem_AttributeAccessor"><rect codeLine="16" fill="#F1F1F1" height="64.2969" id="AttributeAccessor" rx="2.5" ry="2.5" style="stroke:#181818;stroke-width:0.5;" width="242" x="238.5" y="7"/><ellipse cx="293.75" cy="23" fill="#B4A7E5" rx="11" ry="11" style="stroke:#181818;stroke-width:1.0;"/><path d="M289.6719,18.7656 L289.6719,16.6094 L297.0625,16.6094 L297.0625,18.7656 L294.5938,18.7656 L294.5938,26.8438 L297.0625,26.8438 L297.0625,29 L289.6719,29 L289.6719,26.8438 L292.1406,26.8438 L292.1406,18.7656 L289.6719,18.7656 Z " fill="#000000"/><text fill="#000000" font-family="sans-serif" font-size="14" font-style="italic" lengthAdjust="spacing" textLength="123" x="314.25" y="27.8467">AttributeAccessor</text><line style="stroke:#181818;stroke-width:0.5;" x1="239.5" x2="479.5" y1="39" y2="39"/><line style="stroke:#181818;stroke-width:0.5;" x1="239.5" x2="479.5" y1="47" y2="47"/><ellipse cx="249.5" cy="60.6484" fill="#84BE84" rx="3" ry="3" style="stroke:#038048;stroke-width:1.0;"/><text fill="#000000" font-family="sans-serif" font-size="14" lengthAdjust="spacing" textLength="216" x="258.5" y="63.9951">setAttribute(String, Object) void</text></g><!--class BeanMetadataElement--><g id="elem_BeanMetadataElement"><rect codeLine="19" fill="#F1F1F1" height="64.2969" id="BeanMetadataElement" rx="2.5" ry="2.5" style="stroke:#181818;stroke-width:0.5;" width="189" x="15" y="7"/><ellipse cx="30" cy="23" fill="#B4A7E5" rx="11" ry="11" style="stroke:#181818;stroke-width:1.0;"/><path d="M25.9219,18.7656 L25.9219,16.6094 L33.3125,16.6094 L33.3125,18.7656 L30.8438,18.7656 L30.8438,26.8438 L33.3125,26.8438 L33.3125,29 L25.9219,29 L25.9219,26.8438 L28.3906,26.8438 L28.3906,18.7656 L25.9219,18.7656 Z " fill="#000000"/><text fill="#000000" font-family="sans-serif" font-size="14" font-style="italic" lengthAdjust="spacing" textLength="157" x="44" y="27.8467">BeanMetadataElement</text><line style="stroke:#181818;stroke-width:0.5;" x1="16" x2="203" y1="39" y2="39"/><line style="stroke:#181818;stroke-width:0.5;" x1="16" x2="203" y1="47" y2="47"/><ellipse cx="26" cy="60.6484" fill="#84BE84" rx="3" ry="3" style="stroke:#038048;stroke-width:1.0;"/><text fill="#000000" font-family="sans-serif" font-size="14" lengthAdjust="spacing" textLength="131" x="35" y="63.9951">getSource() Object</text></g><!--reverse link AttributeAccessor to BeanDefinition--><g id="link_AttributeAccessor_BeanDefinition"><path codeLine="23" d="M329.47,89.07 C321.6,101.9 312.77,116.28 303.75,130.97 " fill="none" id="AttributeAccessor-backto-BeanDefinition" style="stroke:#181818;stroke-width:1.0;"/><polygon fill="none" points="323.81,85.91,340.24,72.52,335.75,93.23,323.81,85.91" style="stroke:#181818;stroke-width:1.0;"/></g><!--reverse link BeanMetadataElement to BeanDefinition--><g id="link_BeanMetadataElement_BeanDefinition"><path codeLine="24" d="M139.53,89.07 C147.4,101.9 156.23,116.28 165.25,130.97 " fill="none" id="BeanMetadataElement-backto-BeanDefinition" style="stroke:#181818;stroke-width:1.0;"/><polygon fill="none" points="133.25,93.23,128.76,72.52,145.19,85.91,133.25,93.23" style="stroke:#181818;stroke-width:1.0;"/></g><!--SRC=[VP7TIWCn48MlcwV8POlMHn3MLa6mLbZmHhoOpKxNI9fPaecm_hox2Hk2jTlcSiwSaszcj6LqEr0eRn3i6dVQQjPavPUONSWEEPLN1hn_X3tE5x9cfssNnIT7FJeUdi44z57T18R6u64zDw_8UdP1CRdATM6Fbellf2PcL_7bXFl8ja5-etOAPeqnWeR9XZyXTv1-6T9SKobPFfkY_GDy3eacYWsHYLdPNgiu-J5PZxRrMrk4brVn8tJPVSMnsWJ6IYdqdjouVezSbFbel9JRvXqLB-G7wVOW94qKiQ45Xbk3QOVbYZK5fnBNw8u-yU_Uoz0llw-FIKxqJNps2m00]--></g></svg>