<?xml version="1.0" encoding="us-ascii" standalone="no"?><svg xmlns="http://www.w3.org/2000/svg" xmlns:xlink="http://www.w3.org/1999/xlink" contentStyleType="text/css" height="914px" preserveAspectRatio="none" style="width:1118px;height:914px;background:#FFFFFF;" version="1.1" viewBox="0 0 1118 914" width="1118px" zoomAndPan="magnify"><defs/><g><text fill="#000000" font-family="sans-serif" font-size="14" font-weight="bold" lengthAdjust="spacing" textLength="126" x="494.5" y="32.9951">&#23545;&#35937;&#30340;&#20869;&#23384;&#20998;&#37197;&#27969;&#31243;</text><ellipse cx="466.8125" cy="57.2969" fill="#222222" rx="10" ry="10" style="stroke:#222222;stroke-width:1.0;"/><rect fill="#F1F1F1" height="33.9688" rx="12.5" ry="12.5" style="stroke:#181818;stroke-width:0.5;" width="92" x="420.8125" y="87.2969"/><text fill="#000000" font-family="sans-serif" font-size="12" lengthAdjust="spacing" textLength="72" x="430.8125" y="108.4355">&#21019;&#24314;&#26032;&#30340;&#23545;&#35937;</text><polygon fill="#F1F1F1" points="411.8125,141.2656,521.8125,141.2656,533.8125,153.2656,521.8125,165.2656,411.8125,165.2656,399.8125,153.2656,411.8125,141.2656" style="stroke:#181818;stroke-width:0.5;"/><text fill="#000000" font-family="sans-serif" font-size="11" lengthAdjust="spacing" textLength="110" x="411.8125" y="157.0737">&#26032;&#23545;&#35937;&#26159;&#21542;&#26159;&#22823;&#23545;&#35937;&#65311;</text><text fill="#000000" font-family="sans-serif" font-size="11" lengthAdjust="spacing" textLength="11" x="388.8125" y="150.6714">&#26159;</text><text fill="#000000" font-family="sans-serif" font-size="11" lengthAdjust="spacing" textLength="11" x="533.8125" y="150.6714">&#21542;</text><rect fill="#F1F1F1" height="47.9375" rx="12.5" ry="12.5" style="stroke:#181818;stroke-width:0.5;" width="258" x="11" y="175.2656"/><text fill="#000000" font-family="sans-serif" font-size="12" lengthAdjust="spacing" textLength="144" x="21" y="196.4043">&#22312;&#32769;&#24180;&#20195;&#20026;&#26032;&#23545;&#35937;&#20998;&#37197;&#20869;&#23384;</text><text fill="#000000" font-family="sans-serif" font-size="12" lengthAdjust="spacing" textLength="238" x="21" y="210.373">&#20869;&#23384;&#19981;&#36275;&#20250;&#36827;&#34892;&#19968;&#27425;Full GC&#65292;&#36824;&#19981;&#36275;&#20250;OOM</text><polygon fill="#F1F1F1" points="650.125,223.668,1013.125,223.668,1025.125,236.4727,1013.125,249.2773,650.125,249.2773,638.125,236.4727,650.125,223.668" style="stroke:#181818;stroke-width:0.5;"/><text fill="#000000" font-family="sans-serif" font-size="11" lengthAdjust="spacing" textLength="319" x="650.125" y="233.8784">&#32769;&#24180;&#20195;&#30340;&#26368;&#22823;&#21487;&#29992;&#30340;&#36830;&#32493;&#31354;&#38388;&#26159;&#21542;&#22823;&#20110;&#26032;&#29983;&#20195;&#25152;&#26377;&#23545;&#35937;&#30340;&#24635;&#22823;&#23567;&#65311;</text><text fill="#000000" font-family="sans-serif" font-size="11" lengthAdjust="spacing" textLength="363" x="650.125" y="246.6831">&#25110;&#32769;&#24180;&#20195;&#30340;&#26368;&#22823;&#21487;&#29992;&#30340;&#36830;&#32493;&#31354;&#38388;&#26159;&#21542;&#22823;&#20110;&#21382;&#20195;&#26187;&#21319;&#32769;&#24180;&#20195;&#23545;&#35937;&#30340;&#24179;&#22343;&#22823;&#23567;&#65311;</text><text fill="#000000" font-family="sans-serif" font-size="11" lengthAdjust="spacing" textLength="11" x="627.125" y="233.8784">&#26159;</text><text fill="#000000" font-family="sans-serif" font-size="11" lengthAdjust="spacing" textLength="11" x="1025.125" y="233.8784">&#21542;</text><rect fill="none" height="429.8828" style="stroke:#000000;stroke-width:1.5;" width="717" x="279" y="259.2773"/><path d="M352,259.2773 L352,268.5742 L342,278.5742 L279,278.5742 " fill="none" style="stroke:#000000;stroke-width:1.5;"/><text fill="#000000" font-family="sans-serif" font-size="14" lengthAdjust="spacing" textLength="63" x="282" y="273.2725">Minor GC</text><rect fill="#F1F1F1" height="33.9688" rx="12.5" ry="12.5" style="stroke:#181818;stroke-width:0.5;" width="164" x="534.25" y="295.5742"/><text fill="#000000" font-family="sans-serif" font-size="12" lengthAdjust="spacing" textLength="144" x="544.25" y="316.7129">&#26631;&#35760;&#26032;&#29983;&#20195;&#20013;&#21487;&#22238;&#25910;&#30340;&#23545;&#35937;</text><polygon fill="#F1F1F1" points="499.25,349.543,733.25,349.543,745.25,361.543,733.25,373.543,499.25,373.543,487.25,361.543,499.25,349.543" style="stroke:#181818;stroke-width:0.5;"/><text fill="#000000" font-family="sans-serif" font-size="11" lengthAdjust="spacing" textLength="234" x="499.25" y="365.3511">Survivor&#21306;&#26159;&#21542;&#22823;&#20110;&#26032;&#29983;&#20195;&#23384;&#27963;&#30340;&#23545;&#35937;&#24635;&#22823;&#23567;&#65311;</text><text fill="#000000" font-family="sans-serif" font-size="11" lengthAdjust="spacing" textLength="11" x="476.25" y="358.9487">&#26159;</text><text fill="#000000" font-family="sans-serif" font-size="11" lengthAdjust="spacing" textLength="11" x="745.25" y="358.9487">&#21542;</text><rect fill="#F1F1F1" height="33.9688" rx="12.5" ry="12.5" style="stroke:#181818;stroke-width:0.5;" width="297" x="291.5" y="383.543"/><text fill="#000000" font-family="sans-serif" font-size="12" lengthAdjust="spacing" textLength="277" x="301.5" y="404.6816">&#23558;&#23384;&#27963;&#30340;&#23545;&#35937;&#22797;&#21046;&#21040;Survivor&#21306;&#65292;&#24182;&#22686;&#38271;&#23545;&#35937;&#30340;&#24180;&#40836;</text><rect fill="none" height="194.6484" style="stroke:#000000;stroke-width:1.5;" width="310" x="291" y="452.5117"/><path d="M413,452.5117 L413,461.8086 L403,471.8086 L291,471.8086 " fill="none" style="stroke:#000000;stroke-width:1.5;"/><text fill="#000000" font-family="sans-serif" font-size="14" lengthAdjust="spacing" textLength="112" x="294" y="466.5068">&#23384;&#27963;&#23545;&#35937;&#24180;&#40836;&#21028;&#26029;</text><rect fill="#F1F1F1" height="47.9375" rx="12.5" ry="12.5" style="stroke:#181818;stroke-width:0.5;" width="258" x="311" y="538.8203"/><text fill="#000000" font-family="sans-serif" font-size="12" lengthAdjust="spacing" textLength="96" x="325" y="559.959">&#23558;&#23545;&#35937;&#25918;&#20837;&#32769;&#24180;&#20195;</text><text fill="#000000" font-family="sans-serif" font-size="12" lengthAdjust="spacing" textLength="238" x="321" y="573.9277">&#20869;&#23384;&#19981;&#36275;&#20250;&#36827;&#34892;&#19968;&#27425;Full GC&#65292;&#36824;&#19981;&#36275;&#20250;OOM</text><polygon fill="#F1F1F1" points="357.5,488.8086,522.5,488.8086,534.5,501.6133,522.5,514.418,357.5,514.418,345.5,501.6133,357.5,488.8086" style="stroke:#181818;stroke-width:0.5;"/><text fill="#000000" font-family="sans-serif" font-size="11" lengthAdjust="spacing" textLength="11" x="444" y="524.6284">&#26159;</text><text fill="#000000" font-family="sans-serif" font-size="11" lengthAdjust="spacing" textLength="165" x="357.5" y="499.019">&#23384;&#27963;&#23545;&#35937;&#30340;&#24180;&#40836;&#26159;&#21542;&#36798;&#21040;&#24180;&#40836;&#38408;&#20540;</text><text fill="#000000" font-family="sans-serif" font-size="11" lengthAdjust="spacing" textLength="165" x="357.5" y="511.8237">&#25110;&#23384;&#27963;&#23545;&#35937;&#30340;&#24180;&#40836;&#22823;&#20110;&#21160;&#24577;&#24180;&#40836;&#65311;</text><text fill="#000000" font-family="sans-serif" font-size="11" lengthAdjust="spacing" textLength="11" x="534.5" y="499.019">&#21542;</text><polygon fill="#F1F1F1" points="440,611.1602,452,623.1602,440,635.1602,428,623.1602,440,611.1602" style="stroke:#181818;stroke-width:0.5;"/><rect fill="#F1F1F1" height="33.9688" rx="12.5" ry="12.5" style="stroke:#181818;stroke-width:0.5;" width="62" x="761.5" y="431.9453"/><text fill="#000000" font-family="sans-serif" font-size="12" lengthAdjust="spacing" textLength="42" x="771.5" y="453.084">Full GC</text><polygon fill="#F1F1F1" points="633,383.543,952,383.543,964,395.543,952,407.543,633,407.543,621,395.543,633,383.543" style="stroke:#181818;stroke-width:0.5;"/><text fill="#000000" font-family="sans-serif" font-size="11" lengthAdjust="spacing" textLength="11" x="796.5" y="417.7534">&#21542;</text><text fill="#000000" font-family="sans-serif" font-size="11" lengthAdjust="spacing" textLength="319" x="633" y="399.3511">&#32769;&#24180;&#20195;&#30340;&#26368;&#22823;&#21487;&#29992;&#30340;&#36830;&#32493;&#31354;&#38388;&#26159;&#21542;&#22823;&#20110;&#26032;&#29983;&#20195;&#23384;&#27963;&#30340;&#23545;&#35937;&#24635;&#22823;&#23567;&#65311;</text><text fill="#000000" font-family="sans-serif" font-size="11" lengthAdjust="spacing" textLength="11" x="964" y="392.9487">&#26159;</text><polygon fill="#F1F1F1" points="792.5,490.3164,804.5,502.3164,792.5,514.3164,780.5,502.3164,792.5,490.3164" style="stroke:#181818;stroke-width:0.5;"/><rect fill="#F1F1F1" height="47.9375" rx="12.5" ry="12.5" style="stroke:#181818;stroke-width:0.5;" width="188" x="698.5" y="549.3164"/><text fill="#000000" font-family="sans-serif" font-size="12" lengthAdjust="spacing" textLength="168" x="708.5" y="570.4551">&#23558;&#26032;&#29983;&#20195;&#23384;&#27963;&#30340;&#23545;&#35937;&#25918;&#20837;&#32769;&#24180;&#20195;</text><text fill="#000000" font-family="sans-serif" font-size="12" lengthAdjust="spacing" textLength="88" x="708.5" y="584.4238">&#20869;&#23384;&#19981;&#36275;&#20250;OOM</text><polygon fill="#F1F1F1" points="616.25,653.1602,628.25,665.1602,616.25,677.1602,604.25,665.1602,616.25,653.1602" style="stroke:#181818;stroke-width:0.5;"/><rect fill="#F1F1F1" height="33.9688" rx="12.5" ry="12.5" style="stroke:#181818;stroke-width:0.5;" width="62" x="1016" y="259.2773"/><text fill="#000000" font-family="sans-serif" font-size="12" lengthAdjust="spacing" textLength="42" x="1026" y="280.416">Full GC</text><polygon fill="#F1F1F1" points="831.625,695.1602,843.625,707.1602,831.625,719.1602,819.625,707.1602,831.625,695.1602" style="stroke:#181818;stroke-width:0.5;"/><polygon fill="#F1F1F1" points="718.625,175.2656,944.625,175.2656,956.625,187.2656,944.625,199.2656,718.625,199.2656,706.625,187.2656,718.625,175.2656" style="stroke:#181818;stroke-width:0.5;"/><text fill="#000000" font-family="sans-serif" font-size="11" lengthAdjust="spacing" textLength="11" x="835.625" y="209.4761">&#21542;</text><text fill="#000000" font-family="sans-serif" font-size="11" lengthAdjust="spacing" textLength="226" x="718.625" y="191.0737">&#26032;&#29983;&#20195;&#30340;Eden&#21306;&#30340;&#21487;&#29992;&#26159;&#21542;&#22823;&#20110;&#26032;&#23545;&#35937;&#22823;&#23567;&#65311;</text><text fill="#000000" font-family="sans-serif" font-size="11" lengthAdjust="spacing" textLength="11" x="956.625" y="184.6714">&#26159;</text><polygon fill="#F1F1F1" points="831.625,739.1602,843.625,751.1602,831.625,763.1602,819.625,751.1602,831.625,739.1602" style="stroke:#181818;stroke-width:0.5;"/><rect fill="#F1F1F1" height="47.9375" rx="12.5" ry="12.5" style="stroke:#181818;stroke-width:0.5;" width="220" x="721.625" y="783.1602"/><text fill="#000000" font-family="sans-serif" font-size="12" lengthAdjust="spacing" textLength="200" x="731.625" y="804.2988">&#22312;&#26032;&#29983;&#20195;&#30340;Eden&#21306;&#20026;&#26032;&#23545;&#35937;&#20998;&#37197;&#20869;&#23384;</text><text fill="#000000" font-family="sans-serif" font-size="12" lengthAdjust="spacing" textLength="88" x="731.625" y="818.2676">&#20869;&#23384;&#19981;&#36275;&#20250;OOM</text><polygon fill="#F1F1F1" points="466.8125,837.0977,478.8125,849.0977,466.8125,861.0977,454.8125,849.0977,466.8125,837.0977" style="stroke:#181818;stroke-width:0.5;"/><ellipse cx="466.8125" cy="892.0977" fill="none" rx="11" ry="11" style="stroke:#222222;stroke-width:1.0;"/><ellipse cx="466.8125" cy="892.0977" fill="#222222" rx="6" ry="6" style="stroke:#111111;stroke-width:1.0;"/><line style="stroke:#181818;stroke-width:1.0;" x1="466.8125" x2="466.8125" y1="67.2969" y2="87.2969"/><polygon fill="#181818" points="462.8125,77.2969,466.8125,87.2969,470.8125,77.2969,466.8125,81.2969" style="stroke:#181818;stroke-width:1.0;"/><line style="stroke:#181818;stroke-width:1.0;" x1="440" x2="440" y1="514.418" y2="538.8203"/><polygon fill="#181818" points="436,528.8203,440,538.8203,444,528.8203,440,532.8203" style="stroke:#181818;stroke-width:1.0;"/><line style="stroke:#181818;stroke-width:1.0;" x1="534.5" x2="579" y1="501.6133" y2="501.6133"/><polygon fill="#181818" points="575,552.3867,579,562.3867,583,552.3867,579,556.3867" style="stroke:#181818;stroke-width:1.0;"/><line style="stroke:#181818;stroke-width:1.0;" x1="579" x2="579" y1="501.6133" y2="623.1602"/><line style="stroke:#181818;stroke-width:1.0;" x1="579" x2="452" y1="623.1602" y2="623.1602"/><polygon fill="#181818" points="462,619.1602,452,623.1602,462,627.1602,458,623.1602" style="stroke:#181818;stroke-width:1.0;"/><line style="stroke:#181818;stroke-width:1.0;" x1="440" x2="440" y1="586.7578" y2="611.1602"/><polygon fill="#181818" points="436,601.1602,440,611.1602,444,601.1602,440,605.1602" style="stroke:#181818;stroke-width:1.0;"/><line style="stroke:#181818;stroke-width:1.0;" x1="440" x2="440" y1="417.5117" y2="488.8086"/><polygon fill="#181818" points="436,478.8086,440,488.8086,444,478.8086,440,482.8086" style="stroke:#181818;stroke-width:1.0;"/><line style="stroke:#181818;stroke-width:1.0;" x1="792.5" x2="792.5" y1="407.543" y2="431.9453"/><polygon fill="#181818" points="788.5,421.9453,792.5,431.9453,796.5,421.9453,792.5,425.9453" style="stroke:#181818;stroke-width:1.0;"/><line style="stroke:#181818;stroke-width:1.0;" x1="964" x2="976" y1="395.543" y2="395.543"/><polygon fill="#181818" points="972,438.9297,976,448.9297,980,438.9297,976,442.9297" style="stroke:#181818;stroke-width:1.0;"/><line style="stroke:#181818;stroke-width:1.0;" x1="976" x2="976" y1="395.543" y2="502.3164"/><line style="stroke:#181818;stroke-width:1.0;" x1="976" x2="804.5" y1="502.3164" y2="502.3164"/><polygon fill="#181818" points="814.5,498.3164,804.5,502.3164,814.5,506.3164,810.5,502.3164" style="stroke:#181818;stroke-width:1.0;"/><line style="stroke:#181818;stroke-width:1.0;" x1="792.5" x2="792.5" y1="465.9141" y2="490.3164"/><polygon fill="#181818" points="788.5,480.3164,792.5,490.3164,796.5,480.3164,792.5,484.3164" style="stroke:#181818;stroke-width:1.0;"/><line style="stroke:#181818;stroke-width:1.0;" x1="792.5" x2="792.5" y1="514.3164" y2="549.3164"/><polygon fill="#181818" points="788.5,539.3164,792.5,549.3164,796.5,539.3164,792.5,543.3164" style="stroke:#181818;stroke-width:1.0;"/><line style="stroke:#181818;stroke-width:1.0;" x1="487.25" x2="440" y1="361.543" y2="361.543"/><line style="stroke:#181818;stroke-width:1.0;" x1="440" x2="440" y1="361.543" y2="383.543"/><polygon fill="#181818" points="436,373.543,440,383.543,444,373.543,440,377.543" style="stroke:#181818;stroke-width:1.0;"/><line style="stroke:#181818;stroke-width:1.0;" x1="745.25" x2="792.5" y1="361.543" y2="361.543"/><line style="stroke:#181818;stroke-width:1.0;" x1="792.5" x2="792.5" y1="361.543" y2="383.543"/><polygon fill="#181818" points="788.5,373.543,792.5,383.543,796.5,373.543,792.5,377.543" style="stroke:#181818;stroke-width:1.0;"/><line style="stroke:#181818;stroke-width:1.0;" x1="440" x2="440" y1="635.1602" y2="665.1602"/><line style="stroke:#181818;stroke-width:1.0;" x1="440" x2="604.25" y1="665.1602" y2="665.1602"/><polygon fill="#181818" points="594.25,661.1602,604.25,665.1602,594.25,669.1602,598.25,665.1602" style="stroke:#181818;stroke-width:1.0;"/><line style="stroke:#181818;stroke-width:1.0;" x1="792.5" x2="792.5" y1="597.2539" y2="665.1602"/><line style="stroke:#181818;stroke-width:1.0;" x1="792.5" x2="628.25" y1="665.1602" y2="665.1602"/><polygon fill="#181818" points="638.25,661.1602,628.25,665.1602,638.25,669.1602,634.25,665.1602" style="stroke:#181818;stroke-width:1.0;"/><line style="stroke:#181818;stroke-width:1.0;" x1="616.25" x2="616.25" y1="329.543" y2="349.543"/><polygon fill="#181818" points="612.25,339.543,616.25,349.543,620.25,339.543,616.25,343.543" style="stroke:#181818;stroke-width:1.0;"/><line style="stroke:#181818;stroke-width:1.0;" x1="638.125" x2="616.25" y1="236.4727" y2="236.4727"/><line style="stroke:#181818;stroke-width:1.0;" x1="616.25" x2="616.25" y1="236.4727" y2="295.5742"/><polygon fill="#181818" points="612.25,285.5742,616.25,295.5742,620.25,285.5742,616.25,289.5742" style="stroke:#181818;stroke-width:1.0;"/><line style="stroke:#181818;stroke-width:1.0;" x1="1025.125" x2="1047" y1="236.4727" y2="236.4727"/><line style="stroke:#181818;stroke-width:1.0;" x1="1047" x2="1047" y1="236.4727" y2="259.2773"/><polygon fill="#181818" points="1043,249.2773,1047,259.2773,1051,249.2773,1047,253.2773" style="stroke:#181818;stroke-width:1.0;"/><line style="stroke:#181818;stroke-width:1.0;" x1="616.25" x2="616.25" y1="677.1602" y2="707.1602"/><line style="stroke:#181818;stroke-width:1.0;" x1="616.25" x2="819.625" y1="707.1602" y2="707.1602"/><polygon fill="#181818" points="809.625,703.1602,819.625,707.1602,809.625,711.1602,813.625,707.1602" style="stroke:#181818;stroke-width:1.0;"/><line style="stroke:#181818;stroke-width:1.0;" x1="1047" x2="1047" y1="293.2461" y2="707.1602"/><line style="stroke:#181818;stroke-width:1.0;" x1="1047" x2="843.625" y1="707.1602" y2="707.1602"/><polygon fill="#181818" points="853.625,703.1602,843.625,707.1602,853.625,711.1602,849.625,707.1602" style="stroke:#181818;stroke-width:1.0;"/><line style="stroke:#181818;stroke-width:1.0;" x1="831.625" x2="831.625" y1="199.2656" y2="223.668"/><polygon fill="#181818" points="827.625,213.668,831.625,223.668,835.625,213.668,831.625,217.668" style="stroke:#181818;stroke-width:1.0;"/><line style="stroke:#181818;stroke-width:1.0;" x1="956.625" x2="1092" y1="187.2656" y2="187.2656"/><polygon fill="#181818" points="1088,461.9141,1092,471.9141,1096,461.9141,1092,465.9141" style="stroke:#181818;stroke-width:1.0;"/><line style="stroke:#181818;stroke-width:1.0;" x1="1092" x2="1092" y1="187.2656" y2="751.1602"/><line style="stroke:#181818;stroke-width:1.0;" x1="1092" x2="843.625" y1="751.1602" y2="751.1602"/><polygon fill="#181818" points="853.625,747.1602,843.625,751.1602,853.625,755.1602,849.625,751.1602" style="stroke:#181818;stroke-width:1.0;"/><line style="stroke:#181818;stroke-width:1.0;" x1="831.625" x2="831.625" y1="719.1602" y2="739.1602"/><polygon fill="#181818" points="827.625,729.1602,831.625,739.1602,835.625,729.1602,831.625,733.1602" style="stroke:#181818;stroke-width:1.0;"/><line style="stroke:#181818;stroke-width:1.0;" x1="831.625" x2="831.625" y1="763.1602" y2="783.1602"/><polygon fill="#181818" points="827.625,773.1602,831.625,783.1602,835.625,773.1602,831.625,777.1602" style="stroke:#181818;stroke-width:1.0;"/><line style="stroke:#181818;stroke-width:1.0;" x1="399.8125" x2="140" y1="153.2656" y2="153.2656"/><line style="stroke:#181818;stroke-width:1.0;" x1="140" x2="140" y1="153.2656" y2="175.2656"/><polygon fill="#181818" points="136,165.2656,140,175.2656,144,165.2656,140,169.2656" style="stroke:#181818;stroke-width:1.0;"/><line style="stroke:#181818;stroke-width:1.0;" x1="533.8125" x2="831.625" y1="153.2656" y2="153.2656"/><line style="stroke:#181818;stroke-width:1.0;" x1="831.625" x2="831.625" y1="153.2656" y2="175.2656"/><polygon fill="#181818" points="827.625,165.2656,831.625,175.2656,835.625,165.2656,831.625,169.2656" style="stroke:#181818;stroke-width:1.0;"/><line style="stroke:#181818;stroke-width:1.0;" x1="140" x2="140" y1="223.2031" y2="849.0977"/><line style="stroke:#181818;stroke-width:1.0;" x1="140" x2="454.8125" y1="849.0977" y2="849.0977"/><polygon fill="#181818" points="444.8125,845.0977,454.8125,849.0977,444.8125,853.0977,448.8125,849.0977" style="stroke:#181818;stroke-width:1.0;"/><line style="stroke:#181818;stroke-width:1.0;" x1="831.625" x2="831.625" y1="831.0977" y2="849.0977"/><line style="stroke:#181818;stroke-width:1.0;" x1="831.625" x2="478.8125" y1="849.0977" y2="849.0977"/><polygon fill="#181818" points="488.8125,845.0977,478.8125,849.0977,488.8125,853.0977,484.8125,849.0977" style="stroke:#181818;stroke-width:1.0;"/><line style="stroke:#181818;stroke-width:1.0;" x1="466.8125" x2="466.8125" y1="121.2656" y2="141.2656"/><polygon fill="#181818" points="462.8125,131.2656,466.8125,141.2656,470.8125,131.2656,466.8125,135.2656" style="stroke:#181818;stroke-width:1.0;"/><line style="stroke:#181818;stroke-width:1.0;" x1="466.8125" x2="466.8125" y1="861.0977" y2="881.0977"/><polygon fill="#181818" points="462.8125,871.0977,466.8125,881.0977,470.8125,871.0977,466.8125,875.0977" style="stroke:#181818;stroke-width:1.0;"/><!--SRC=[fLJDRjf043xRJ-5ZyWhcMBKzHJdqcakbEAqbP29ZSdQa04u3IG-Kqa19QMbBfL9SXIAm4RoCPssVyWgTtJMBun2rJI-sTppp_SoinjAjlAR0Q1Rzx8MN9r0fmx05JYKkryclut1m9XUjvwObg-2qmVT8qwLPB3qdwmVA5aRuaRH6yFeBVVQ_yiZD_6fRiLvg1cQrHjkof49d4Dd7C1i7_gTWwebQJiZ9zmp-3gRrQ78Tp2-ZPJlgrOAfJRxtdfJoUUNfevjvBLgkCtPtTtAobYzgoXPAGA94MDYuGY8K_7XVCw3cKUaNex0nu5fHQE2ThqMWRlVYZkWqBWCM3X2ET6nQna3n62sxeJyCltdnst66WsiXfpRfd8fs4ziNh7i6SPeFm8Rp2WL-TmRrgYXV3tHs3U-hzrYJf1TceNIexEX6mSIsqeXAFbIZ7wvG74o7A07QNTAOf4OlyLuyAvb7-b71nEPkz8jp96DVrANzPgNWxN0hcNpery6PWEEcU73sC9l0nsxyPfcoEOuN9qnMueaZ9J3iBpXzqXoo52ezdI0Gk8beiK1E7ebR3jXpDfoD5SaGNWq8wpr6DdcJL8MwuqreBA3yMOpgeVUTejwwctWqzlM3rPV2-Y3VpVhVE_mlCyrGIsfYA9VHIsT_By4V-hNgXa1Bcxyj84s_IfTNNtGxRLWQVxsd-1PYM4MhSFWR]--></g></svg>