<?xml version="1.0" encoding="us-ascii" standalone="no"?><svg xmlns="http://www.w3.org/2000/svg" xmlns:xlink="http://www.w3.org/1999/xlink" contentStyleType="text/css" height="457px" preserveAspectRatio="none" style="width:1532px;height:457px;background:#FFFFFF;" version="1.1" viewBox="0 0 1532 457" width="1532px" zoomAndPan="magnify"><defs/><g><!--class InjectMetadata--><g id="elem_InjectMetadata"><rect codeLine="1" fill="#F1F1F1" height="113.1875" id="InjectMetadata" rx="2.5" ry="2.5" style="stroke:#181818;stroke-width:0.5;" width="336" x="998" y="15.15"/><ellipse cx="1111.25" cy="31.15" fill="#ADD1B2" rx="11" ry="11" style="stroke:#181818;stroke-width:1.0;"/><path d="M1114.2188,36.7906 Q1113.6406,37.0875 1113,37.2281 Q1112.3594,37.3844 1111.6563,37.3844 Q1109.1563,37.3844 1107.8281,35.7437 Q1106.5156,34.0875 1106.5156,30.9625 Q1106.5156,27.8375 1107.8281,26.1812 Q1109.1563,24.525 1111.6563,24.525 Q1112.3594,24.525 1113,24.6812 Q1113.6563,24.8375 1114.2188,25.1344 L1114.2188,27.8531 Q1113.5938,27.275 1113,27.0094 Q1112.4063,26.7281 1111.7813,26.7281 Q1110.4375,26.7281 1109.75,27.8062 Q1109.0625,28.8687 1109.0625,30.9625 Q1109.0625,33.0562 1109.75,34.1344 Q1110.4375,35.1969 1111.7813,35.1969 Q1112.4063,35.1969 1113,34.9312 Q1113.5938,34.65 1114.2188,34.0719 L1114.2188,36.7906 Z " fill="#000000"/><text fill="#000000" font-family="sans-serif" font-size="14" lengthAdjust="spacing" textLength="101" x="1131.75" y="35.9967">InjectMetadata</text><line style="stroke:#181818;stroke-width:0.5;" x1="999" x2="1333" y1="47.15" y2="47.15"/><rect fill="none" height="6" style="stroke:#C82930;stroke-width:1.0;" width="6" x="1006" y="57.7984"/><text fill="#000000" font-family="sans-serif" font-size="14" lengthAdjust="spacing" textLength="119" x="1018" y="64.1451">Class targetClass</text><rect fill="none" height="6" style="stroke:#C82930;stroke-width:1.0;" width="6" x="1006" y="74.0953"/><text fill="#000000" font-family="sans-serif" font-size="14" lengthAdjust="spacing" textLength="310" x="1018" y="80.442">Collection&lt;InjectElement&gt; injectedElements</text><rect fill="none" height="6" style="stroke:#C82930;stroke-width:1.0;" width="6" x="1006" y="90.3922"/><text fill="#000000" font-family="sans-serif" font-size="14" lengthAdjust="spacing" textLength="270" x="1018" y="96.7389">Set&lt;InjectElement&gt; checkedElements</text><line style="stroke:#181818;stroke-width:0.5;" x1="999" x2="1333" y1="104.0406" y2="104.0406"/><ellipse cx="1009" cy="117.6891" fill="#84BE84" rx="3" ry="3" style="stroke:#038048;stroke-width:1.0;"/><text fill="#000000" font-family="sans-serif" font-size="14" lengthAdjust="spacing" textLength="284" x="1018" y="121.0357">inject(Object, String, PropertyValues) void</text></g><!--class InjectElement--><g id="elem_InjectElement"><rect codeLine="7" fill="#F1F1F1" height="129.4844" id="InjectElement" rx="2.5" ry="2.5" style="stroke:#181818;stroke-width:0.5;" width="323" x="639.5" y="7"/><ellipse cx="749.75" cy="23" fill="#A9DCDF" rx="11" ry="11" style="stroke:#181818;stroke-width:1.0;"/><path d="M749.8594,18.3438 L748.7031,23.4219 L751.0313,23.4219 L749.8594,18.3438 Z M748.375,16.1094 L751.3594,16.1094 L754.7188,28.5 L752.2656,28.5 L751.5,25.4375 L748.2188,25.4375 L747.4688,28.5 L745.0313,28.5 L748.375,16.1094 Z " fill="#000000"/><text fill="#000000" font-family="sans-serif" font-size="14" font-style="italic" lengthAdjust="spacing" textLength="94" x="770.25" y="27.8467">InjectElement</text><line style="stroke:#181818;stroke-width:0.5;" x1="640.5" x2="961.5" y1="39" y2="39"/><polygon fill="none" points="650.5,47.6484,654.5,51.6484,650.5,55.6484,646.5,51.6484" style="stroke:#B38D22;stroke-width:1.0;"/><text fill="#000000" font-family="sans-serif" font-size="14" lengthAdjust="spacing" textLength="119" x="659.5" y="55.9951">Member member</text><polygon fill="none" points="650.5,63.9453,654.5,67.9453,650.5,71.9453,646.5,67.9453" style="stroke:#B38D22;stroke-width:1.0;"/><text fill="#000000" font-family="sans-serif" font-size="14" lengthAdjust="spacing" textLength="103" x="659.5" y="72.292">boolean isField</text><polygon fill="none" points="650.5,80.2422,654.5,84.2422,650.5,88.2422,646.5,84.2422" style="stroke:#B38D22;stroke-width:1.0;"/><text fill="#000000" font-family="sans-serif" font-size="14" lengthAdjust="spacing" textLength="152" x="659.5" y="88.5889">PropertyDescriptor pd</text><line style="stroke:#181818;stroke-width:0.5;" x1="640.5" x2="961.5" y1="95.8906" y2="95.8906"/><polygon fill="#FFFF44" points="650.5,104.5391,654.5,108.5391,650.5,112.5391,646.5,108.5391" style="stroke:#B38D22;stroke-width:1.0;"/><text fill="#000000" font-family="sans-serif" font-size="14" lengthAdjust="spacing" textLength="284" x="659.5" y="112.8857">inject(Object, String, PropertyValues) void</text><polygon fill="#FFFF44" points="650.5,120.8359,654.5,124.8359,650.5,128.8359,646.5,124.8359" style="stroke:#B38D22;stroke-width:1.0;"/><text fill="#000000" font-family="sans-serif" font-size="14" lengthAdjust="spacing" textLength="297" x="659.5" y="129.1826">getResourceToInject(Object, String) Object</text></g><!--class AutowiredElement--><g id="elem_AutowiredElement"><rect codeLine="15" fill="#F1F1F1" height="64.2969" id="AutowiredElement" rx="2.5" ry="2.5" style="stroke:#181818;stroke-width:0.5;" width="158" x="517" y="220.93"/><ellipse cx="532" cy="236.93" fill="#A9DCDF" rx="11" ry="11" style="stroke:#181818;stroke-width:1.0;"/><path d="M532.1094,232.2737 L530.9531,237.3519 L533.2813,237.3519 L532.1094,232.2737 Z M530.625,230.0394 L533.6094,230.0394 L536.9688,242.43 L534.5156,242.43 L533.75,239.3675 L530.4688,239.3675 L529.7188,242.43 L527.2813,242.43 L530.625,230.0394 Z " fill="#000000"/><text fill="#000000" font-family="sans-serif" font-size="14" font-style="italic" lengthAdjust="spacing" textLength="126" x="546" y="241.7767">AutowiredElement</text><line style="stroke:#181818;stroke-width:0.5;" x1="518" x2="674" y1="252.93" y2="252.93"/><polygon fill="none" points="528,261.5784,532,265.5784,528,269.5784,524,265.5784" style="stroke:#B38D22;stroke-width:1.0;"/><text fill="#000000" font-family="sans-serif" font-size="14" lengthAdjust="spacing" textLength="118" x="537" y="269.9251">boolean required</text><line style="stroke:#181818;stroke-width:0.5;" x1="518" x2="674" y1="277.2269" y2="277.2269"/></g><!--class AutowiredFieldElement--><g id="elem_AutowiredFieldElement"><rect codeLine="19" fill="#F1F1F1" height="80.5938" id="AutowiredFieldElement" rx="2.5" ry="2.5" style="stroke:#181818;stroke-width:0.5;" width="338" x="9" y="369.68"/><ellipse cx="94.75" cy="385.68" fill="#ADD1B2" rx="11" ry="11" style="stroke:#181818;stroke-width:1.0;"/><path d="M97.7188,391.3206 Q97.1406,391.6175 96.5,391.7581 Q95.8594,391.9144 95.1563,391.9144 Q92.6563,391.9144 91.3281,390.2737 Q90.0156,388.6175 90.0156,385.4925 Q90.0156,382.3675 91.3281,380.7112 Q92.6563,379.055 95.1563,379.055 Q95.8594,379.055 96.5,379.2112 Q97.1563,379.3675 97.7188,379.6644 L97.7188,382.3831 Q97.0938,381.805 96.5,381.5394 Q95.9063,381.2581 95.2813,381.2581 Q93.9375,381.2581 93.25,382.3362 Q92.5625,383.3987 92.5625,385.4925 Q92.5625,387.5862 93.25,388.6644 Q93.9375,389.7269 95.2813,389.7269 Q95.9063,389.7269 96.5,389.4612 Q97.0938,389.18 97.7188,388.6019 L97.7188,391.3206 Z " fill="#000000"/><text fill="#000000" font-family="sans-serif" font-size="14" lengthAdjust="spacing" textLength="158" x="115.25" y="390.5267">AutowiredFieldElement</text><line style="stroke:#181818;stroke-width:0.5;" x1="10" x2="346" y1="401.68" y2="401.68"/><line style="stroke:#181818;stroke-width:0.5;" x1="10" x2="346" y1="409.68" y2="409.68"/><polygon fill="#FFFF44" points="20,418.3284,24,422.3284,20,426.3284,16,422.3284" style="stroke:#B38D22;stroke-width:1.0;"/><text fill="#000000" font-family="sans-serif" font-size="14" lengthAdjust="spacing" textLength="284" x="29" y="426.6751">inject(Object, String, PropertyValues) void</text><rect fill="#F24D5C" height="6" style="stroke:#C82930;stroke-width:1.0;" width="6" x="17" y="436.6253"/><text fill="#000000" font-family="sans-serif" font-size="14" lengthAdjust="spacing" textLength="312" x="29" y="442.972">resolveFieldValue(Field, Object, String) Object</text></g><!--class AutowiredMethodElement--><g id="elem_AutowiredMethodElement"><rect codeLine="24" fill="#F1F1F1" height="80.5938" id="AutowiredMethodElement" rx="2.5" ry="2.5" style="stroke:#181818;stroke-width:0.5;" width="428" x="382" y="369.68"/><ellipse cx="502.25" cy="385.68" fill="#ADD1B2" rx="11" ry="11" style="stroke:#181818;stroke-width:1.0;"/><path d="M505.2188,391.3206 Q504.6406,391.6175 504,391.7581 Q503.3594,391.9144 502.6563,391.9144 Q500.1563,391.9144 498.8281,390.2737 Q497.5156,388.6175 497.5156,385.4925 Q497.5156,382.3675 498.8281,380.7112 Q500.1563,379.055 502.6563,379.055 Q503.3594,379.055 504,379.2112 Q504.6563,379.3675 505.2188,379.6644 L505.2188,382.3831 Q504.5938,381.805 504,381.5394 Q503.4063,381.2581 502.7813,381.2581 Q501.4375,381.2581 500.75,382.3362 Q500.0625,383.3987 500.0625,385.4925 Q500.0625,387.5862 500.75,388.6644 Q501.4375,389.7269 502.7813,389.7269 Q503.4063,389.7269 504,389.4612 Q504.5938,389.18 505.2188,388.6019 L505.2188,391.3206 Z " fill="#000000"/><text fill="#000000" font-family="sans-serif" font-size="14" lengthAdjust="spacing" textLength="179" x="522.75" y="390.5267">AutowiredMethodElement</text><line style="stroke:#181818;stroke-width:0.5;" x1="383" x2="809" y1="401.68" y2="401.68"/><line style="stroke:#181818;stroke-width:0.5;" x1="383" x2="809" y1="409.68" y2="409.68"/><polygon fill="#FFFF44" points="393,418.3284,397,422.3284,393,426.3284,389,422.3284" style="stroke:#B38D22;stroke-width:1.0;"/><text fill="#000000" font-family="sans-serif" font-size="14" lengthAdjust="spacing" textLength="284" x="402" y="426.6751">inject(Object, String, PropertyValues) void</text><rect fill="#F24D5C" height="6" style="stroke:#C82930;stroke-width:1.0;" width="6" x="390" y="436.6253"/><text fill="#000000" font-family="sans-serif" font-size="14" lengthAdjust="spacing" textLength="402" x="402" y="442.972">resolveMethodArguments(Method, Object, String) Object[]</text></g><!--class LookupElement--><g id="elem_LookupElement"><rect codeLine="29" fill="#F1F1F1" height="113.1875" id="LookupElement" rx="2.5" ry="2.5" style="stroke:#181818;stroke-width:0.5;" width="186" x="913" y="196.49"/><ellipse cx="948.7" cy="212.49" fill="#A9DCDF" rx="11" ry="11" style="stroke:#181818;stroke-width:1.0;"/><path d="M948.8094,207.8337 L947.6531,212.9119 L949.9813,212.9119 L948.8094,207.8337 Z M947.325,205.5994 L950.3094,205.5994 L953.6688,217.99 L951.2156,217.99 L950.45,214.9275 L947.1688,214.9275 L946.4188,217.99 L943.9813,217.99 L947.325,205.5994 Z " fill="#000000"/><text fill="#000000" font-family="sans-serif" font-size="14" font-style="italic" lengthAdjust="spacing" textLength="108" x="967.3" y="217.3367">LookupElement</text><line style="stroke:#181818;stroke-width:0.5;" x1="914" x2="1098" y1="228.49" y2="228.49"/><polygon fill="none" points="924,237.1384,928,241.1384,924,245.1384,920,241.1384" style="stroke:#B38D22;stroke-width:1.0;"/><text fill="#000000" font-family="sans-serif" font-size="14" lengthAdjust="spacing" textLength="83" x="933" y="245.4851">String name</text><polygon fill="none" points="924,253.4353,928,257.4353,924,261.4353,920,257.4353" style="stroke:#B38D22;stroke-width:1.0;"/><text fill="#000000" font-family="sans-serif" font-size="14" lengthAdjust="spacing" textLength="160" x="933" y="261.782">boolean isDefaultName</text><polygon fill="none" points="924,269.7322,928,273.7322,924,277.7322,920,273.7322" style="stroke:#B38D22;stroke-width:1.0;"/><text fill="#000000" font-family="sans-serif" font-size="14" lengthAdjust="spacing" textLength="122" x="933" y="278.0789">Class lookupType</text><polygon fill="none" points="924,286.0291,928,290.0291,924,294.0291,920,290.0291" style="stroke:#B38D22;stroke-width:1.0;"/><text fill="#000000" font-family="sans-serif" font-size="14" lengthAdjust="spacing" textLength="141" x="933" y="294.3757">String mappedName</text><line style="stroke:#181818;stroke-width:0.5;" x1="914" x2="1098" y1="301.6775" y2="301.6775"/></g><!--class EjbRefElement--><g id="elem_EjbRefElement"><rect codeLine="36" fill="#F1F1F1" height="80.5938" id="EjbRefElement" rx="2.5" ry="2.5" style="stroke:#181818;stroke-width:0.5;" width="323" x="844.5" y="369.68"/><ellipse cx="951.25" cy="385.68" fill="#ADD1B2" rx="11" ry="11" style="stroke:#181818;stroke-width:1.0;"/><path d="M954.2188,391.3206 Q953.6406,391.6175 953,391.7581 Q952.3594,391.9144 951.6563,391.9144 Q949.1563,391.9144 947.8281,390.2737 Q946.5156,388.6175 946.5156,385.4925 Q946.5156,382.3675 947.8281,380.7112 Q949.1563,379.055 951.6563,379.055 Q952.3594,379.055 953,379.2112 Q953.6563,379.3675 954.2188,379.6644 L954.2188,382.3831 Q953.5938,381.805 953,381.5394 Q952.4063,381.2581 951.7813,381.2581 Q950.4375,381.2581 949.75,382.3362 Q949.0625,383.3987 949.0625,385.4925 Q949.0625,387.5862 949.75,388.6644 Q950.4375,389.7269 951.7813,389.7269 Q952.4063,389.7269 953,389.4612 Q953.5938,389.18 954.2188,388.6019 L954.2188,391.3206 Z " fill="#000000"/><text fill="#000000" font-family="sans-serif" font-size="14" lengthAdjust="spacing" textLength="101" x="971.75" y="390.5267">EjbRefElement</text><line style="stroke:#181818;stroke-width:0.5;" x1="845.5" x2="1166.5" y1="401.68" y2="401.68"/><rect fill="none" height="6" style="stroke:#C82930;stroke-width:1.0;" width="6" x="852.5" y="412.3284"/><text fill="#000000" font-family="sans-serif" font-size="14" lengthAdjust="spacing" textLength="119" x="864.5" y="418.6751">String beanName</text><line style="stroke:#181818;stroke-width:0.5;" x1="845.5" x2="1166.5" y1="425.9769" y2="425.9769"/><polygon fill="#FFFF44" points="855.5,434.6253,859.5,438.6253,855.5,442.6253,851.5,438.6253" style="stroke:#B38D22;stroke-width:1.0;"/><text fill="#000000" font-family="sans-serif" font-size="14" lengthAdjust="spacing" textLength="297" x="864.5" y="442.972">getResourceToInject(Object, String) Object</text></g><!--class ResourceElement--><g id="elem_ResourceElement"><rect codeLine="41" fill="#F1F1F1" height="80.5938" id="ResourceElement" rx="2.5" ry="2.5" style="stroke:#181818;stroke-width:0.5;" width="323" x="1202.5" y="369.68"/><ellipse cx="1297.75" cy="385.68" fill="#ADD1B2" rx="11" ry="11" style="stroke:#181818;stroke-width:1.0;"/><path d="M1300.7188,391.3206 Q1300.1406,391.6175 1299.5,391.7581 Q1298.8594,391.9144 1298.1563,391.9144 Q1295.6563,391.9144 1294.3281,390.2737 Q1293.0156,388.6175 1293.0156,385.4925 Q1293.0156,382.3675 1294.3281,380.7112 Q1295.6563,379.055 1298.1563,379.055 Q1298.8594,379.055 1299.5,379.2112 Q1300.1563,379.3675 1300.7188,379.6644 L1300.7188,382.3831 Q1300.0938,381.805 1299.5,381.5394 Q1298.9063,381.2581 1298.2813,381.2581 Q1296.9375,381.2581 1296.25,382.3362 Q1295.5625,383.3987 1295.5625,385.4925 Q1295.5625,387.5862 1296.25,388.6644 Q1296.9375,389.7269 1298.2813,389.7269 Q1298.9063,389.7269 1299.5,389.4612 Q1300.0938,389.18 1300.7188,388.6019 L1300.7188,391.3206 Z " fill="#000000"/><text fill="#000000" font-family="sans-serif" font-size="14" lengthAdjust="spacing" textLength="124" x="1318.25" y="390.5267">ResourceElement</text><line style="stroke:#181818;stroke-width:0.5;" x1="1203.5" x2="1524.5" y1="401.68" y2="401.68"/><rect fill="none" height="6" style="stroke:#C82930;stroke-width:1.0;" width="6" x="1210.5" y="412.3284"/><text fill="#000000" font-family="sans-serif" font-size="14" lengthAdjust="spacing" textLength="137" x="1222.5" y="418.6751">boolean lazyLookup</text><line style="stroke:#181818;stroke-width:0.5;" x1="1203.5" x2="1524.5" y1="425.9769" y2="425.9769"/><polygon fill="#FFFF44" points="1213.5,434.6253,1217.5,438.6253,1213.5,442.6253,1209.5,438.6253" style="stroke:#B38D22;stroke-width:1.0;"/><text fill="#000000" font-family="sans-serif" font-size="14" lengthAdjust="spacing" textLength="297" x="1222.5" y="442.972">getResourceToInject(Object, String) Object</text></g><!--reverse link InjectElement to LookupElement--><g id="link_InjectElement_LookupElement"><path codeLine="45" d="M890.2,150.78 C907.6,166 925.52,181.68 941.91,196.02 " fill="none" id="InjectElement-backto-LookupElement" style="stroke:#181818;stroke-width:1.0;"/><polygon fill="none" points="885.87,155.42,875.43,136.98,895.09,144.88,885.87,155.42" style="stroke:#181818;stroke-width:1.0;"/></g><!--reverse link LookupElement to ResourceElement--><g id="link_LookupElement_ResourceElement"><path codeLine="46" d="M1118.39,302.71 C1167.92,324.14 1225.38,349 1272.27,369.29 " fill="none" id="LookupElement-backto-ResourceElement" style="stroke:#181818;stroke-width:1.0;"/><polygon fill="none" points="1115.7,308.74,1100.13,294.37,1121.26,295.89,1115.7,308.74" style="stroke:#181818;stroke-width:1.0;"/></g><!--reverse link LookupElement to EjbRefElement--><g id="link_LookupElement_EjbRefElement"><path codeLine="47" d="M1006,330.86 C1006,344.3 1006,357.76 1006,369.64 " fill="none" id="LookupElement-backto-EjbRefElement" style="stroke:#181818;stroke-width:1.0;"/><polygon fill="none" points="999,331,1006,311,1013,331,999,331" style="stroke:#181818;stroke-width:1.0;"/></g><!--reverse link InjectElement to AutowiredElement--><g id="link_InjectElement_AutowiredElement"><path codeLine="49" d="M712.07,150.54 C683.82,175.26 654.17,201.2 631.9,220.67 " fill="none" id="InjectElement-backto-AutowiredElement" style="stroke:#181818;stroke-width:1.0;"/><polygon fill="none" points="706.91,144.88,726.57,136.98,716.13,155.42,706.91,144.88" style="stroke:#181818;stroke-width:1.0;"/></g><!--reverse link AutowiredElement to AutowiredFieldElement--><g id="link_AutowiredElement_AutowiredFieldElement"><path codeLine="50" d="M497.33,290.64 C433.56,314.27 350.59,345.02 285.21,369.25 " fill="none" id="AutowiredElement-backto-AutowiredFieldElement" style="stroke:#181818;stroke-width:1.0;"/><polygon fill="none" points="494.7,283.78,515.89,283.4,499.56,296.91,494.7,283.78" style="stroke:#181818;stroke-width:1.0;"/></g><!--reverse link AutowiredElement to AutowiredMethodElement--><g id="link_AutowiredElement_AutowiredMethodElement"><path codeLine="51" d="M596,306.41 C596,327 596,350.25 596,369.41 " fill="none" id="AutowiredElement-backto-AutowiredMethodElement" style="stroke:#181818;stroke-width:1.0;"/><polygon fill="none" points="589,306.43,596,286.43,603,306.43,589,306.43" style="stroke:#181818;stroke-width:1.0;"/></g><!--link InjectElement to InjectMetadata--><g id="link_InjectElement_InjectMetadata"><path codeLine="53" d="M962.83,71.75 C969.83,71.75 976.83,71.75 983.83,71.75 " fill="none" id="InjectElement-to-InjectMetadata" style="stroke:#181818;stroke-width:1.0;"/><polygon fill="#181818" points="996.75,71.75,990.75,67.75,984.75,71.75,990.75,75.75,996.75,71.75" style="stroke:#181818;stroke-width:1.0;"/><text fill="#000000" font-family="sans-serif" font-size="13" lengthAdjust="spacing" textLength="8" x="970.3442" y="68.4804">n</text><text fill="#000000" font-family="sans-serif" font-size="13" lengthAdjust="spacing" textLength="8" x="981.9449" y="68.4803">1</text></g><!--SRC=[hLJBJiCm43oJhrY5ImlDWJkgLD4YLQA0seeBuk0uszQj4mVRAIgFVoUnaoeEoI4I9zkxC-DPQnBAYL8mJ_P8zG8rYOWcyELT171dEfh8BMgpDqN1UOva8hcrd1d761Cz1cQE69K5WrwXRiBe3kcXZhekcOEdi5X6iDAI9TiHF4kHejId5y8pL4Cu2XPvFnu9bPQ4Qg0rvwLSOVmI5XY7A24sIr48XU184c3gdY6FYb8bFaL59Kkra92QHXypEJn_coKgaKcAQp5lumx1ddFhJU-JJ8iF9i-lOUrNRYM-PqMp83RmPWo7rCjsa6ihmOzeT4nlOBOZwFRUi91dPIV-muCLciXjPW8niESk9wzlBU_u8CGXInqlbWK9YT5Dm1Gt9EFwiMpOa7CZi3wbMEF694qnCi3p-BDzkCHDxQQWGeUvV2NQBnHMkI8usfLjJZvFTiZUykxR15dmFNQ_6QzviyKuFC-TkmtX_Gbpsrtj2RR8fe3NaRKEjDVuX_atFbm5F00_yLqNlm00]--></g></svg>