<?xml version="1.0" encoding="us-ascii" standalone="no"?><svg xmlns="http://www.w3.org/2000/svg" xmlns:xlink="http://www.w3.org/1999/xlink" contentStyleType="text/css" height="144px" preserveAspectRatio="none" style="width:766px;height:144px;background:#FFFFFF;" version="1.1" viewBox="0 0 766 144" width="766px" zoomAndPan="magnify"><defs/><g><!--class TransactionAttribute--><g id="elem_TransactionAttribute"><rect codeLine="5" fill="#FFFFFF" height="92.8906" id="TransactionAttribute" rx="2.5" ry="2.5" style="stroke:#000000;stroke-width:1.0;" width="239" x="268" y="28.29"/><ellipse cx="313.75" cy="42.29" fill="#FFFFFF" rx="9" ry="9" style="stroke:#000000;stroke-width:1.0;"/><path d="M310.9219,38.8681 L310.9219,37.0869 L317,37.0869 L317,38.8681 L314.9688,38.8681 L314.9688,45.5088 L317,45.5088 L317,47.29 L310.9219,47.29 L310.9219,45.5088 L312.9531,45.5088 L312.9531,38.8681 L310.9219,38.8681 Z " fill="#000000"/><text fill="#000000" font-family="Consolas" font-size="14" font-style="italic" lengthAdjust="spacing" textLength="140" x="331.25" y="47.1367">TransactionAttribute</text><line style="stroke:#000000;stroke-width:1.0;" x1="269" x2="506" y1="56.29" y2="56.29"/><line style="stroke:#000000;stroke-width:1.0;" x1="269" x2="506" y1="64.29" y2="64.29"/><ellipse cx="279" cy="77.9384" fill="#FFFFFF" rx="3" ry="3" style="stroke:#000000;stroke-width:1.0;"/><text fill="#000000" font-family="Consolas" font-size="14" lengthAdjust="spacing" textLength="132" x="286" y="81.2851">getQualifier() String</text><ellipse cx="279" cy="94.2353" fill="#FFFFFF" rx="3" ry="3" style="stroke:#000000;stroke-width:1.0;"/><text fill="#000000" font-family="Consolas" font-size="14" lengthAdjust="spacing" textLength="213" x="286" y="97.582">getLabels() Collection&lt;String&gt;</text><ellipse cx="279" cy="110.5322" fill="#FFFFFF" rx="3" ry="3" style="stroke:#000000;stroke-width:1.0;"/><text fill="#000000" font-family="Consolas" font-size="14" lengthAdjust="spacing" textLength="215" x="286" y="113.8789">rollbackOn(Throwable) boolean</text></g><!--class TransactionDefinition--><g id="elem_TransactionDefinition"><rect codeLine="10" fill="#FFFFFF" height="125.4844" id="TransactionDefinition" rx="2.5" ry="2.5" style="stroke:#000000;stroke-width:1.0;" width="221" x="12" y="12"/><ellipse cx="46.15" cy="26" fill="#FFFFFF" rx="9" ry="9" style="stroke:#000000;stroke-width:1.0;"/><path d="M43.3219,22.5781 L43.3219,20.7969 L49.4,20.7969 L49.4,22.5781 L47.3688,22.5781 L47.3688,29.2188 L49.4,29.2188 L49.4,31 L43.3219,31 L43.3219,29.2188 L45.3531,29.2188 L45.3531,22.5781 L43.3219,22.5781 Z " fill="#000000"/><text fill="#000000" font-family="Consolas" font-size="14" font-style="italic" lengthAdjust="spacing" textLength="146" x="62.85" y="30.8467">TransactionDefinition</text><line style="stroke:#000000;stroke-width:1.0;" x1="13" x2="232" y1="40" y2="40"/><line style="stroke:#000000;stroke-width:1.0;" x1="13" x2="232" y1="48" y2="48"/><ellipse cx="23" cy="61.6484" fill="#FFFFFF" rx="3" ry="3" style="stroke:#000000;stroke-width:1.0;"/><text fill="#000000" font-family="Consolas" font-size="14" lengthAdjust="spacing" textLength="197" x="30" y="64.9951">getPropagationBehavior() int</text><ellipse cx="23" cy="77.9453" fill="#FFFFFF" rx="3" ry="3" style="stroke:#000000;stroke-width:1.0;"/><text fill="#000000" font-family="Consolas" font-size="14" lengthAdjust="spacing" textLength="146" x="30" y="81.292">getIsolationLevel() int</text><ellipse cx="23" cy="94.2422" fill="#FFFFFF" rx="3" ry="3" style="stroke:#000000;stroke-width:1.0;"/><text fill="#000000" font-family="Consolas" font-size="14" lengthAdjust="spacing" textLength="111" x="30" y="97.5889">getTimeout() int</text><ellipse cx="23" cy="110.5391" fill="#FFFFFF" rx="3" ry="3" style="stroke:#000000;stroke-width:1.0;"/><text fill="#000000" font-family="Consolas" font-size="14" lengthAdjust="spacing" textLength="147" x="30" y="113.8857">isReadOnly() boolean</text><ellipse cx="23" cy="126.8359" fill="#FFFFFF" rx="3" ry="3" style="stroke:#000000;stroke-width:1.0;"/><text fill="#000000" font-family="Consolas" font-size="14" lengthAdjust="spacing" textLength="117" x="30" y="130.1826">getName() String</text></g><!--class DefaultTransactionAttribute--><g id="elem_DefaultTransactionAttribute"><rect codeLine="17" fill="#FFFFFF" height="44" id="DefaultTransactionAttribute" rx="2.5" ry="2.5" style="stroke:#000000;stroke-width:1.0;" width="217" x="542" y="52.74"/><ellipse cx="555" cy="66.74" fill="#FFFFFF" rx="9" ry="9" style="stroke:#000000;stroke-width:1.0;"/><path d="M557.3906,71.4431 Q556.9063,71.6931 556.375,71.8181 Q555.8594,71.9431 555.2813,71.9431 Q553.2188,71.9431 552.125,70.5838 Q551.0469,69.2244 551.0469,66.6463 Q551.0469,64.0681 552.125,62.7088 Q553.2188,61.3494 555.2813,61.3494 Q555.8594,61.3494 556.3906,61.4744 Q556.9219,61.5994 557.3906,61.8338 L557.3906,64.0838 Q556.875,63.5994 556.375,63.3806 Q555.8906,63.1619 555.375,63.1619 Q554.2656,63.1619 553.7031,64.0369 Q553.1406,64.9119 553.1406,66.6463 Q553.1406,68.365 553.7031,69.2556 Q554.2656,70.1306 555.375,70.1306 Q555.8906,70.1306 556.375,69.9119 Q556.875,69.6775 557.3906,69.2088 L557.3906,71.4431 Z " fill="#000000"/><text fill="#000000" font-family="Consolas" font-size="14" lengthAdjust="spacing" textLength="189" x="567" y="71.5867">DefaultTransactionAttribute</text><line style="stroke:#000000;stroke-width:1.0;" x1="543" x2="758" y1="80.74" y2="80.74"/><line style="stroke:#000000;stroke-width:1.0;" x1="543" x2="758" y1="88.74" y2="88.74"/></g><!--reverse link TransactionDefinition to TransactionAttribute--><g id="link_TransactionDefinition_TransactionAttribute"><path codeLine="18" d="M254.19,74.74 C258.66,74.74 263.13,74.74 267.6,74.74 " fill="none" id="TransactionDefinition-backto-TransactionAttribute" style="stroke:#000000;stroke-width:1.0;"/><polygon fill="none" points="254.26,81.74,234.26,74.74,254.26,67.74,254.26,81.74" style="stroke:#000000;stroke-width:1.0;"/></g><!--reverse link TransactionAttribute to DefaultTransactionAttribute--><g id="link_TransactionAttribute_DefaultTransactionAttribute"><path codeLine="19" d="M528.21,74.74 C532.65,74.74 537.09,74.74 541.53,74.74 " fill="none" id="TransactionAttribute-backto-DefaultTransactionAttribute" style="stroke:#000000;stroke-width:1.0;stroke-dasharray:7.0,7.0;"/><polygon fill="none" points="528.44,81.74,508.44,74.74,528.44,67.74,528.44,81.74" style="stroke:#000000;stroke-width:1.0;"/></g><!--SRC=[XP3TIiD048MltQTOxrAa1S5BAMYB81IhDYymIIV9qCbis9rK_CcxcxMbiH3qRZZVcRzpgHNMQ1i64XDs90rugAsICZuuqGrzeBs- -OMsM43B-YzyWdxkmabm3C6GAFe2ShIf1mcGApcvK_MKjOhsqrnSsHBrfGMcWj0d4xlfePH7i88CEVJgmZ7ZJ_VjmJ2F3j-h6UIxjIHfvTqRP8mJcpd726AwyVLBB4WeLgVzpzurK4BKxh62FRbuITzzv8_ncqXNk4S-GodLw5eTD0gl2Dkry7iod7Bmnco63pkJzn45kpo4DnvGPqRrAK-_vkDFcR_cpNXstdT2tm00]--></g></svg>