<?xml version="1.0" encoding="us-ascii" standalone="no"?><svg xmlns="http://www.w3.org/2000/svg" xmlns:xlink="http://www.w3.org/1999/xlink" contentStyleType="text/css" height="251px" preserveAspectRatio="none" style="width:592px;height:251px;background:#FFFFFF;" version="1.1" viewBox="0 0 592 251" width="592px" zoomAndPan="magnify"><defs/><g><text fill="#000000" font-family="sans-serif" font-size="14" font-weight="bold" lengthAdjust="spacing" textLength="98" x="245.5" y="32.9951">&#23545;&#35937;&#30340;&#20869;&#23384;&#20998;&#37197;</text><ellipse cx="300.5" cy="57.2969" fill="#222222" rx="10" ry="10" style="stroke:#222222;stroke-width:1.0;"/><polygon fill="#F1F1F1" points="32,87.2969,131,87.2969,143,99.2969,131,111.2969,32,111.2969,20,99.2969,32,87.2969" style="stroke:#181818;stroke-width:0.5;"/><text fill="#000000" font-family="sans-serif" font-size="11" lengthAdjust="spacing" textLength="11" x="85.5" y="121.5073">&#26159;</text><text fill="#000000" font-family="sans-serif" font-size="11" lengthAdjust="spacing" textLength="99" x="32" y="103.105">&#26632;&#19978;&#20998;&#37197;&#26159;&#21542;&#25104;&#21151;&#65311;</text><rect fill="#F1F1F1" height="33.9688" rx="12.5" ry="12.5" style="stroke:#181818;stroke-width:0.5;" width="80" x="41.5" y="144.1016"/><text fill="#000000" font-family="sans-serif" font-size="12" lengthAdjust="spacing" textLength="60" x="51.5" y="165.2402">&#22312;&#26632;&#19978;&#20998;&#37197;</text><polygon fill="#F1F1F1" points="175,87.2969,280,87.2969,292,99.2969,280,111.2969,175,111.2969,163,99.2969,175,87.2969" style="stroke:#181818;stroke-width:0.5;"/><text fill="#000000" font-family="sans-serif" font-size="11" lengthAdjust="spacing" textLength="11" x="231.5" y="121.5073">&#26159;</text><text fill="#000000" font-family="sans-serif" font-size="11" lengthAdjust="spacing" textLength="105" x="175" y="103.105">TLAB&#20998;&#37197;&#26159;&#21542;&#25104;&#21151;&#65311;</text><rect fill="#F1F1F1" height="33.9688" rx="12.5" ry="12.5" style="stroke:#181818;stroke-width:0.5;" width="85" x="185" y="144.1016"/><text fill="#000000" font-family="sans-serif" font-size="12" lengthAdjust="spacing" textLength="65" x="195" y="165.2402">&#22312;TLAB&#20998;&#37197;</text><polygon fill="#F1F1F1" points="324,87.2969,401,87.2969,413,99.2969,401,111.2969,324,111.2969,312,99.2969,324,87.2969" style="stroke:#181818;stroke-width:0.5;"/><text fill="#000000" font-family="sans-serif" font-size="11" lengthAdjust="spacing" textLength="11" x="366.5" y="121.5073">&#26159;</text><text fill="#000000" font-family="sans-serif" font-size="11" lengthAdjust="spacing" textLength="77" x="324" y="103.105">&#26159;&#21542;&#26159;&#22823;&#23545;&#35937;&#65311;</text><text fill="#000000" font-family="sans-serif" font-size="11" lengthAdjust="spacing" textLength="11" x="413" y="96.7026">&#21542;</text><rect fill="#F1F1F1" height="33.9688" rx="12.5" ry="12.5" style="stroke:#181818;stroke-width:0.5;" width="92" x="316.5" y="144.1016"/><text fill="#000000" font-family="sans-serif" font-size="12" lengthAdjust="spacing" textLength="72" x="326.5" y="165.2402">&#22312;&#32769;&#24180;&#20195;&#20998;&#37197;</text><rect fill="#F1F1F1" height="33.9688" rx="12.5" ry="12.5" style="stroke:#181818;stroke-width:0.5;" width="148" x="433" y="140.6992"/><text fill="#000000" font-family="sans-serif" font-size="12" lengthAdjust="spacing" textLength="128" x="443" y="161.8379">&#22312;&#26032;&#29983;&#20195;&#30340;Eden&#21306;&#20998;&#37197;</text><ellipse cx="300.5" cy="229.0703" fill="none" rx="11" ry="11" style="stroke:#222222;stroke-width:1.0;"/><ellipse cx="300.5" cy="229.0703" fill="#222222" rx="6" ry="6" style="stroke:#111111;stroke-width:1.0;"/><line style="stroke:#181818;stroke-width:1.0;" x1="81.5" x2="81.5" y1="111.2969" y2="144.1016"/><polygon fill="#181818" points="77.5,134.1016,81.5,144.1016,85.5,134.1016,81.5,138.1016" style="stroke:#181818;stroke-width:1.0;"/><line style="stroke:#181818;stroke-width:1.0;" x1="81.5" x2="81.5" y1="178.0703" y2="198.0703"/><polygon fill="#181818" points="77.5,188.0703,81.5,198.0703,85.5,188.0703,81.5,192.0703" style="stroke:#181818;stroke-width:1.0;"/><line style="stroke:#181818;stroke-width:1.0;" x1="227.5" x2="227.5" y1="111.2969" y2="144.1016"/><polygon fill="#181818" points="223.5,134.1016,227.5,144.1016,231.5,134.1016,227.5,138.1016" style="stroke:#181818;stroke-width:1.0;"/><line style="stroke:#181818;stroke-width:1.0;" x1="227.5" x2="227.5" y1="178.0703" y2="198.0703"/><polygon fill="#181818" points="223.5,188.0703,227.5,198.0703,231.5,188.0703,227.5,192.0703" style="stroke:#181818;stroke-width:1.0;"/><line style="stroke:#181818;stroke-width:1.0;" x1="362.5" x2="362.5" y1="111.2969" y2="144.1016"/><polygon fill="#181818" points="358.5,134.1016,362.5,144.1016,366.5,134.1016,362.5,138.1016" style="stroke:#181818;stroke-width:1.0;"/><line style="stroke:#181818;stroke-width:1.0;" x1="362.5" x2="362.5" y1="178.0703" y2="198.0703"/><polygon fill="#181818" points="358.5,188.0703,362.5,198.0703,366.5,188.0703,362.5,192.0703" style="stroke:#181818;stroke-width:1.0;"/><line style="stroke:#181818;stroke-width:1.0;" x1="143" x2="163" y1="99.2969" y2="99.2969"/><polygon fill="#181818" points="153,95.2969,163,99.2969,153,103.2969,157,99.2969" style="stroke:#181818;stroke-width:1.0;"/><line style="stroke:#181818;stroke-width:1.0;" x1="292" x2="312" y1="99.2969" y2="99.2969"/><polygon fill="#181818" points="302,95.2969,312,99.2969,302,103.2969,306,99.2969" style="stroke:#181818;stroke-width:1.0;"/><line style="stroke:#181818;stroke-width:1.0;" x1="300.5" x2="300.5" y1="67.2969" y2="72.2969"/><line style="stroke:#181818;stroke-width:1.0;" x1="300.5" x2="81.5" y1="72.2969" y2="72.2969"/><line style="stroke:#181818;stroke-width:1.0;" x1="81.5" x2="81.5" y1="72.2969" y2="87.2969"/><polygon fill="#181818" points="77.5,77.2969,81.5,87.2969,85.5,77.2969,81.5,81.2969" style="stroke:#181818;stroke-width:1.0;"/><line style="stroke:#181818;stroke-width:1.0;" x1="413" x2="507" y1="99.2969" y2="99.2969"/><line style="stroke:#181818;stroke-width:1.0;" x1="507" x2="507" y1="99.2969" y2="140.6992"/><polygon fill="#181818" points="503,130.6992,507,140.6992,511,130.6992,507,134.6992" style="stroke:#181818;stroke-width:1.0;"/><line style="stroke:#181818;stroke-width:1.0;" x1="507" x2="507" y1="174.668" y2="198.0703"/><polygon fill="#181818" points="503,188.0703,507,198.0703,511,188.0703,507,192.0703" style="stroke:#181818;stroke-width:1.0;"/><line style="stroke:#181818;stroke-width:1.0;" x1="81.5" x2="507" y1="198.0703" y2="198.0703"/><line style="stroke:#181818;stroke-width:1.0;" x1="300.5" x2="300.5" y1="198.0703" y2="218.0703"/><polygon fill="#181818" points="296.5,208.0703,300.5,218.0703,304.5,208.0703,300.5,212.0703" style="stroke:#181818;stroke-width:1.0;"/><!--SRC=[AyaioKbLUBf-vukD2v_FQddQrlfqxOod7MqlMtkvYaiIYqeKk3BJ53IUBUXuigCB8lvinlgd4vOzwvZmj6l- -ptpDHLACbBpW4fchDVauhHwEcS5ic9hhjISubIG4I4-Zav46e1GYj0ErGGaboo7E1UhrXSDZKztRdcoUp6oVWKDe5QOuwPjU3vbFb01qBUkAQbvJtjsmPNcfMIc0NsTNm00]--></g></svg>