<?xml version="1.0" encoding="us-ascii" standalone="no"?><svg xmlns="http://www.w3.org/2000/svg" xmlns:xlink="http://www.w3.org/1999/xlink" contentStyleType="text/css" height="484px" preserveAspectRatio="none" style="width:578px;height:484px;background:#FFFFFF;" version="1.1" viewBox="0 0 578 484" width="578px" zoomAndPan="magnify"><defs/><g><text fill="#000000" font-family="sans-serif" font-size="14" font-weight="bold" lengthAdjust="spacing" textLength="126" x="224.5" y="32.9951">&#20381;&#36182;&#27880;&#20837;&#21457;&#29983;&#30340;&#26102;&#26426;</text><rect fill="none" height="425.4053" style="stroke:#000000;stroke-width:1.5;" width="556" x="11" y="48.2969"/><path d="M498,48.2969 L498,57.5938 L488,67.5938 L11,67.5938 " fill="none" style="stroke:#000000;stroke-width:1.5;"/><text fill="#000000" font-family="sans-serif" font-size="14" lengthAdjust="spacing" textLength="477" x="14" y="62.292">&#21019;&#24314;&#19968;&#20010;Bean&#65306;AbstractAutowireCapableBeanFactory#doCreateBean</text><ellipse cx="289" cy="87.5938" fill="#222222" rx="10" ry="10" style="stroke:#222222;stroke-width:1.0;"/><rect fill="none" height="164.1719" style="stroke:#000000;stroke-width:1.5;" width="536" x="21" y="108.3955"/><path d="M546,108.3955 L546,117.6924 L536,127.6924 L21,127.6924 " fill="none" style="stroke:#000000;stroke-width:1.5;"/><text fill="#000000" font-family="sans-serif" font-size="14" lengthAdjust="spacing" textLength="515" x="24" y="122.3906">1.&#23454;&#20363;&#21270;Bean&#65306;AbstractAutowireCapableBeanFactory#createBeanInstance</text><rect fill="#F1F1F1" height="47.9375" rx="12.5" ry="12.5" style="stroke:#181818;stroke-width:0.5;" width="516" x="31" y="144.6924"/><text fill="#000000" font-family="sans-serif" font-size="12" lengthAdjust="spacing" textLength="4" x="41" y="165.8311">&#160;</text><text fill="#000000" font-family="sans-serif" font-size="12" font-weight="bold" lengthAdjust="spacing" textLength="110" x="45" y="165.8311">1.1.&#33719;&#21462;&#20505;&#36873;&#26500;&#36896;&#22120;</text><text fill="#000000" font-family="sans-serif" font-size="12" lengthAdjust="spacing" textLength="496" x="41" y="179.7998">SmartInstantiationAwareBeanPostProcessor#determineCandidateConstructors</text><rect fill="#F1F1F1" height="47.9375" rx="12.5" ry="12.5" style="stroke:#181818;stroke-width:0.5;" width="394" x="92" y="212.6299"/><text fill="#000000" font-family="sans-serif" font-size="12" lengthAdjust="spacing" textLength="4" x="102" y="233.7686">&#160;</text><text fill="#000000" font-family="sans-serif" font-size="12" font-weight="bold" lengthAdjust="spacing" textLength="86" x="106" y="233.7686">1.2.&#26500;&#36896;&#22120;&#27880;&#20837;</text><text fill="#000000" font-family="sans-serif" font-size="12" lengthAdjust="spacing" textLength="374" x="102" y="247.7373">AbstractAutowireCapableBeanFactory#autowireConstructor</text><rect fill="none" height="96.2344" style="stroke:#000000;stroke-width:1.5;" width="521" x="28.5" y="283.3691"/><path d="M539.5,283.3691 L539.5,292.666 L529.5,302.666 L28.5,302.666 " fill="none" style="stroke:#000000;stroke-width:1.5;"/><text fill="#000000" font-family="sans-serif" font-size="14" lengthAdjust="spacing" textLength="501" x="31.5" y="297.3643">2.&#35774;&#32622;Bean&#30340;&#23646;&#24615;&#65306;AbstractAutowireCapableBeanFactory#populateBean</text><rect fill="#F1F1F1" height="47.9375" rx="12.5" ry="12.5" style="stroke:#181818;stroke-width:0.5;" width="413" x="82.5" y="319.666"/><text fill="#000000" font-family="sans-serif" font-size="12" lengthAdjust="spacing" textLength="4" x="92.5" y="340.8047">&#160;</text><text fill="#000000" font-family="sans-serif" font-size="12" font-weight="bold" lengthAdjust="spacing" textLength="134" x="96.5" y="340.8047">2.1.&#23383;&#27573;&#27880;&#20837;&#21644;&#26041;&#27861;&#27880;&#20837;</text><text fill="#000000" font-family="sans-serif" font-size="12" lengthAdjust="spacing" textLength="393" x="92.5" y="354.7734">InstantiationAwareBeanPostProcessor#postProcessProperties</text><rect fill="none" height="31.2969" style="stroke:#000000;stroke-width:1.5;" width="486" x="46" y="390.4053"/><path d="M522,390.4053 L522,399.7021 L512,409.7021 L46,409.7021 " fill="none" style="stroke:#000000;stroke-width:1.5;"/><text fill="#000000" font-family="sans-serif" font-size="14" lengthAdjust="spacing" textLength="466" x="49" y="404.4004">3.&#21021;&#22987;&#21270;Bean&#65306;AbstractAutowireCapableBeanFactory#initializeBean</text><ellipse cx="289" cy="451.7021" fill="none" rx="10" ry="10" style="stroke:#222222;stroke-width:1.5;"/><line style="stroke:#222222;stroke-width:2.5;" x1="282.8128" x2="295.1872" y1="445.515" y2="457.8893"/><line style="stroke:#222222;stroke-width:2.5;" x1="295.1872" x2="282.8128" y1="445.515" y2="457.8893"/><line style="stroke:#181818;stroke-width:1.0;" x1="289" x2="289" y1="192.6299" y2="212.6299"/><polygon fill="#181818" points="285,202.6299,289,212.6299,293,202.6299,289,206.6299" style="stroke:#181818;stroke-width:1.0;"/><line style="stroke:#181818;stroke-width:1.0;" x1="289" x2="289" y1="97.5938" y2="144.6924"/><polygon fill="#181818" points="285,134.6924,289,144.6924,293,134.6924,289,138.6924" style="stroke:#181818;stroke-width:1.0;"/><line style="stroke:#181818;stroke-width:1.0;" x1="289" x2="289" y1="260.5674" y2="319.666"/><polygon fill="#181818" points="285,309.666,289,319.666,293,309.666,289,313.666" style="stroke:#181818;stroke-width:1.0;"/><line style="stroke:#181818;stroke-width:1.0;" x1="289" x2="289" y1="367.6035" y2="441.7021"/><polygon fill="#181818" points="285,431.7021,289,441.7021,293,431.7021,289,435.7021" style="stroke:#181818;stroke-width:1.0;"/><!--SRC=[bP4nJy9068Rt_eecR1sQW9jCI6BYHkBgShGNSqcvQwxN49qwO8AHI3HQ0Wgw60Y9JGn14PLVqpjWyYzuXK8T7EfqzttVtVE-UJ-6c0NLSDPTZ7qn6l2p9zwycjyyp3irqNeLzrFbc1BNLddzZdzCmuaNJePx4E3lpqwXx30A35Pm6QaY2el01cKBHjDzsIRq96EI8eM0hNgAmm1bCIwhyw0NpYvumqzFCxQi0onXs83AhgffMJshBoxVUDFdNdlfdOjURUazylP0quxmOKMAhfyp11WYk505T0Kf4OULA36Wun2QCI63j8Am5COcCgLGaSXlr8sqdNoibDEtz7LQaKOAws0pIfXv1M9JNSMXnAdaz4Kmcty5qK-v0FxI4ru_NJOsiLrhatJaDITJuSyj4OpZjLutXFykHhU9xpIns4ab3njIXg3pX_KTdTUxlF-_XIACfBg5JjUsVq7bDIb_0000]--></g></svg>