<?xml version="1.0" encoding="us-ascii" standalone="no"?><svg xmlns="http://www.w3.org/2000/svg" xmlns:xlink="http://www.w3.org/1999/xlink" contentStyleType="text/css" height="501px" preserveAspectRatio="none" style="width:678px;height:501px;background:#FFFFFF;" version="1.1" viewBox="0 0 678 501" width="678px" zoomAndPan="magnify"><defs/><g><text fill="#000000" font-family="sans-serif" font-size="14" font-weight="bold" lengthAdjust="spacing" textLength="182" x="246.5" y="32.9951">&#33258;&#21160;&#35013;&#37197;&#27880;&#35299;&#26041;&#27861;&#27880;&#20837;&#30340;&#27969;&#31243;</text><rect fill="none" height="441.708" style="stroke:#000000;stroke-width:1.5;" width="656" x="11" y="48.2969"/><path d="M249,48.2969 L249,57.5938 L239,67.5938 L11,67.5938 " fill="none" style="stroke:#000000;stroke-width:1.5;"/><text fill="#000000" font-family="sans-serif" font-size="14" lengthAdjust="spacing" textLength="228" x="14" y="62.292">AutowiredMethodElement#inject</text><ellipse cx="329.5" cy="87.5938" fill="#222222" rx="10" ry="10" style="stroke:#222222;stroke-width:1.0;"/><rect fill="none" height="259.6719" style="stroke:#000000;stroke-width:1.5;" width="636" x="21" y="108.3955"/><path d="M652,108.3955 L652,117.6924 L642,127.6924 L21,127.6924 " fill="none" style="stroke:#000000;stroke-width:1.5;"/><text fill="#000000" font-family="sans-serif" font-size="14" lengthAdjust="spacing" textLength="621" x="24" y="122.3906">1.&#20381;&#27425;&#35299;&#26512;&#26041;&#27861;&#21442;&#25968;&#21015;&#34920;&#25152;&#23545;&#24212;&#30340;&#20381;&#36182;&#65306;AutowiredMethodElement#resolveMethodArguments</text><rect fill="#F1F1F1" height="47.9375" rx="12.5" ry="12.5" style="stroke:#181818;stroke-width:0.5;" width="180" x="239.5" y="188.6924"/><text fill="#000000" font-family="sans-serif" font-size="12" lengthAdjust="spacing" textLength="156" x="253.5" y="209.8311">&#26681;&#25454;&#26041;&#27861;&#21442;&#25968;&#26500;&#24314;&#20381;&#36182;&#25551;&#36848;&#31526;</text><text fill="#000000" font-family="sans-serif" font-size="12" lengthAdjust="spacing" textLength="143" x="249.5" y="223.7998">DependencyDescriptor</text><rect fill="#F1F1F1" height="47.9375" rx="12.5" ry="12.5" style="stroke:#181818;stroke-width:0.5;" width="336" x="161.5" y="264.1299"/><text fill="#000000" font-family="sans-serif" font-size="12" lengthAdjust="spacing" textLength="144" x="175.5" y="285.2686">&#35299;&#26512;&#20381;&#36182;&#25551;&#36848;&#31526;&#23545;&#24212;&#30340;&#20381;&#36182;</text><text fill="#000000" font-family="sans-serif" font-size="12" lengthAdjust="spacing" textLength="316" x="171.5" y="299.2373">AutowireCapableBeanFactory#resolveDependency</text><polygon fill="#F1F1F1" points="329.5,144.6924,341.5,156.6924,329.5,168.6924,317.5,156.6924,329.5,144.6924" style="stroke:#181818;stroke-width:0.5;"/><polygon fill="#F1F1F1" points="274.5,332.0674,384.5,332.0674,396.5,344.0674,384.5,356.0674,274.5,356.0674,262.5,344.0674,274.5,332.0674" style="stroke:#181818;stroke-width:0.5;"/><text fill="#000000" font-family="sans-serif" font-size="11" lengthAdjust="spacing" textLength="110" x="274.5" y="347.8755">&#26041;&#27861;&#21442;&#25968;&#22343;&#35299;&#26512;&#23436;&#27605;&#65311;</text><rect fill="#F1F1F1" height="47.9375" rx="12.5" ry="12.5" style="stroke:#181818;stroke-width:0.5;" width="192" x="233.5" y="388.0674"/><text fill="#000000" font-family="sans-serif" font-size="12" lengthAdjust="spacing" textLength="168" x="247.5" y="409.2061">2.&#36890;&#36807;&#21453;&#23556;&#35843;&#29992;&#26041;&#27861;&#26469;&#27880;&#20837;&#20381;&#36182;</text><text fill="#000000" font-family="sans-serif" font-size="12" lengthAdjust="spacing" textLength="97" x="243.5" y="423.1748">Method#invoke</text><ellipse cx="329.5" cy="467.0049" fill="none" rx="11" ry="11" style="stroke:#222222;stroke-width:1.0;"/><ellipse cx="329.5" cy="467.0049" fill="#222222" rx="6" ry="6" style="stroke:#111111;stroke-width:1.0;"/><line style="stroke:#181818;stroke-width:1.0;" x1="329.5" x2="329.5" y1="236.6299" y2="264.1299"/><polygon fill="#181818" points="325.5,254.1299,329.5,264.1299,333.5,254.1299,329.5,258.1299" style="stroke:#181818;stroke-width:1.0;"/><line style="stroke:#181818;stroke-width:1.0;" x1="329.5" x2="329.5" y1="168.6924" y2="188.6924"/><polygon fill="#181818" points="325.5,178.6924,329.5,188.6924,333.5,178.6924,329.5,182.6924" style="stroke:#181818;stroke-width:1.0;"/><line style="stroke:#181818;stroke-width:1.0;" x1="396.5" x2="509.5" y1="344.0674" y2="344.0674"/><polygon fill="#181818" points="505.5,256.6299,509.5,246.6299,513.5,256.6299,509.5,252.6299" style="stroke:#181818;stroke-width:1.0;"/><line style="stroke:#181818;stroke-width:1.0;" x1="509.5" x2="509.5" y1="156.6924" y2="344.0674"/><line style="stroke:#181818;stroke-width:1.0;" x1="509.5" x2="341.5" y1="156.6924" y2="156.6924"/><polygon fill="#181818" points="351.5,152.6924,341.5,156.6924,351.5,160.6924,347.5,156.6924" style="stroke:#181818;stroke-width:1.0;"/><line style="stroke:#181818;stroke-width:1.0;" x1="329.5" x2="329.5" y1="312.0674" y2="332.0674"/><polygon fill="#181818" points="325.5,322.0674,329.5,332.0674,333.5,322.0674,329.5,326.0674" style="stroke:#181818;stroke-width:1.0;"/><line style="stroke:#181818;stroke-width:1.0;" x1="329.5" x2="329.5" y1="97.5938" y2="144.6924"/><polygon fill="#181818" points="325.5,134.6924,329.5,144.6924,333.5,134.6924,329.5,138.6924" style="stroke:#181818;stroke-width:1.0;"/><line style="stroke:#181818;stroke-width:1.0;" x1="329.5" x2="329.5" y1="356.0674" y2="388.0674"/><polygon fill="#181818" points="325.5,378.0674,329.5,388.0674,333.5,378.0674,329.5,382.0674" style="stroke:#181818;stroke-width:1.0;"/><line style="stroke:#181818;stroke-width:1.0;" x1="329.5" x2="329.5" y1="436.0049" y2="456.0049"/><polygon fill="#181818" points="325.5,446.0049,329.5,456.0049,333.5,446.0049,329.5,450.0049" style="stroke:#181818;stroke-width:1.0;"/><!--SRC=[TP5FIm9168Vl-oaMkjH5g6EUBElMD_2ohI-wjSqiixEADol5_ibsK0D1IyHQGdH1F6YINwQP7Kz-XSPMiOHkm_2-p_lm-r63cg2AqZkxyqIxE2kM-S0JRsrU6_51LRvPiHFK2tnu6NZtIefWnr9Z3iLPWq3o16WQ9uzCk014jmnq1ZfLRAeHkfpSZNnzDdYtjG0s7qCcSwzurMStJwBbyTiywu_Ok29Fo4anhCqdzN_m16niPY3yZ96Ki_Yr5G8MQ5JPL_dBY9Txls_mPe5zZ4CkTrqnzOFkQmB5vGPA0j9pSR1rObWKawW4X98Runjw2RIoEzGixTI40z3GiQPBH6vbkEP7btPgDct8bBV_1D0eXGTPxu7tg_F9yuwgo3tr9pcfinUPvUjYMc9kcVa5uLy75M_PIgCJ5hDo2ZEH1MJmEKHb0zXQexu1]--></g></svg>