<?xml version="1.0" encoding="us-ascii" standalone="no"?><svg xmlns="http://www.w3.org/2000/svg" xmlns:xlink="http://www.w3.org/1999/xlink" contentStyleType="text/css" height="284px" preserveAspectRatio="none" style="width:370px;height:284px;background:#FFFFFF;" version="1.1" viewBox="0 0 370 284" width="370px" zoomAndPan="magnify"><defs/><g><!--class List--><g id="elem_List"><rect codeLine="5" fill="#FFFFFF" height="44" id="List" rx="2.5" ry="2.5" style="stroke:#000000;stroke-width:1.0;" width="64" x="135" y="15"/><ellipse cx="148" cy="29" fill="#FFFFFF" rx="9" ry="9" style="stroke:#000000;stroke-width:1.0;"/><path d="M145.1719,25.5781 L145.1719,23.7969 L151.25,23.7969 L151.25,25.5781 L149.2188,25.5781 L149.2188,32.2188 L151.25,32.2188 L151.25,34 L145.1719,34 L145.1719,32.2188 L147.2031,32.2188 L147.2031,25.5781 L145.1719,25.5781 Z " fill="#000000"/><text fill="#000000" font-family="Consolas" font-size="14" font-style="italic" lengthAdjust="spacing" textLength="23" x="160" y="33.8467">List</text><rect fill="#FFFFFF" height="18.2969" style="stroke:#000000;stroke-width:1.0;stroke-dasharray:2.0,2.0;" width="11" x="191" y="12"/><text fill="#000000" font-family="Verdana" font-size="14" font-style="italic" lengthAdjust="spacing" textLength="9" x="192" y="25.9951">E</text><line style="stroke:#000000;stroke-width:1.0;" x1="136" x2="198" y1="43" y2="43"/><line style="stroke:#000000;stroke-width:1.0;" x1="136" x2="198" y1="51" y2="51"/></g><!--class Deque--><g id="elem_Deque"><rect codeLine="6" fill="#FFFFFF" height="44" id="Deque" rx="2.5" ry="2.5" style="stroke:#000000;stroke-width:1.0;" width="88" x="12" y="15"/><ellipse cx="25" cy="29" fill="#FFFFFF" rx="9" ry="9" style="stroke:#000000;stroke-width:1.0;"/><path d="M22.1719,25.5781 L22.1719,23.7969 L28.25,23.7969 L28.25,25.5781 L26.2188,25.5781 L26.2188,32.2188 L28.25,32.2188 L28.25,34 L22.1719,34 L22.1719,32.2188 L24.2031,32.2188 L24.2031,25.5781 L22.1719,25.5781 Z " fill="#000000"/><text fill="#000000" font-family="Consolas" font-size="14" font-style="italic" lengthAdjust="spacing" textLength="47" x="37" y="33.8467">Deque</text><rect fill="#FFFFFF" height="18.2969" style="stroke:#000000;stroke-width:1.0;stroke-dasharray:2.0,2.0;" width="11" x="92" y="12"/><text fill="#000000" font-family="Verdana" font-size="14" font-style="italic" lengthAdjust="spacing" textLength="9" x="93" y="25.9951">E</text><line style="stroke:#000000;stroke-width:1.0;" x1="13" x2="99" y1="43" y2="43"/><line style="stroke:#000000;stroke-width:1.0;" x1="13" x2="99" y1="51" y2="51"/></g><!--class LinkedList--><g id="elem_LinkedList"><rect codeLine="7" fill="#FFFFFF" height="158.0781" id="LinkedList" rx="2.5" ry="2.5" style="stroke:#000000;stroke-width:1.0;" width="169" x="26.5" y="119"/><ellipse cx="66.75" cy="133" fill="#FFFFFF" rx="9" ry="9" style="stroke:#000000;stroke-width:1.0;"/><path d="M69.1406,137.7031 Q68.6563,137.9531 68.125,138.0781 Q67.6094,138.2031 67.0313,138.2031 Q64.9688,138.2031 63.875,136.8437 Q62.7969,135.4844 62.7969,132.9062 Q62.7969,130.3281 63.875,128.9687 Q64.9688,127.6094 67.0313,127.6094 Q67.6094,127.6094 68.1406,127.7344 Q68.6719,127.8594 69.1406,128.0937 L69.1406,130.3437 Q68.625,129.8594 68.125,129.6406 Q67.6406,129.4219 67.125,129.4219 Q66.0156,129.4219 65.4531,130.2969 Q64.8906,131.1719 64.8906,132.9062 Q64.8906,134.625 65.4531,135.5156 Q66.0156,136.3906 67.125,136.3906 Q67.6406,136.3906 68.125,136.1719 Q68.625,135.9375 69.1406,135.4687 L69.1406,137.7031 Z " fill="#000000"/><text fill="#000000" font-family="Consolas" font-size="14" lengthAdjust="spacing" textLength="68" x="84.25" y="137.8467">LinkedList</text><rect fill="#FFFFFF" height="18.2969" style="stroke:#000000;stroke-width:1.0;stroke-dasharray:2.0,2.0;" width="11" x="187.5" y="116"/><text fill="#000000" font-family="Verdana" font-size="14" font-style="italic" lengthAdjust="spacing" textLength="9" x="188.5" y="129.9951">E</text><line style="stroke:#000000;stroke-width:1.0;" x1="27.5" x2="194.5" y1="147" y2="147"/><polygon fill="none" points="37.5,156.6484,33.5,162.6484,41.5,162.6484" style="stroke:#000000;stroke-width:1.0;"/><text fill="#000000" font-family="Consolas" font-size="14" lengthAdjust="spacing" textLength="49" x="44.5" y="163.9951">int size</text><polygon fill="none" points="37.5,172.9453,33.5,178.9453,41.5,178.9453" style="stroke:#000000;stroke-width:1.0;"/><text fill="#000000" font-family="Consolas" font-size="14" lengthAdjust="spacing" textLength="99" x="44.5" y="180.292">Node&lt;E&gt; first</text><polygon fill="none" points="37.5,189.2422,33.5,195.2422,41.5,195.2422" style="stroke:#000000;stroke-width:1.0;"/><text fill="#000000" font-family="Consolas" font-size="14" lengthAdjust="spacing" textLength="98" x="44.5" y="196.5889">Node&lt;E&gt; last</text><polygon fill="none" points="37.5,204.5391,41.5,208.5391,37.5,212.5391,33.5,208.5391" style="stroke:#000000;stroke-width:1.0;"/><text fill="#000000" font-family="Consolas" font-size="14" lengthAdjust="spacing" textLength="94" x="44.5" y="212.8857">int modCount</text><line style="stroke:#000000;stroke-width:1.0;" x1="27.5" x2="194.5" y1="220.1875" y2="220.1875"/><ellipse cx="37.5" cy="233.8359" fill="#FFFFFF" rx="3" ry="3" style="stroke:#000000;stroke-width:1.0;"/><text fill="#000000" font-family="Consolas" font-size="14" lengthAdjust="spacing" textLength="105" x="44.5" y="237.1826">add(E) boolean</text><ellipse cx="37.5" cy="250.1328" fill="#FFFFFF" rx="3" ry="3" style="stroke:#000000;stroke-width:1.0;"/><text fill="#000000" font-family="Consolas" font-size="14" lengthAdjust="spacing" textLength="63" x="44.5" y="253.4795">get(int) E</text><ellipse cx="37.5" cy="266.4297" fill="#FFFFFF" rx="3" ry="3" style="stroke:#000000;stroke-width:1.0;"/><text fill="#000000" font-family="Consolas" font-size="14" lengthAdjust="spacing" textLength="145" x="44.5" y="269.7764">iterator() Iterator&lt;E&gt;</text></g><!--class Node--><g id="elem_Node"><rect codeLine="16" fill="#FFFFFF" height="92.8906" id="Node" rx="2.5" ry="2.5" style="stroke:#000000;stroke-width:1.0;" width="128" x="231" y="151.6"/><ellipse cx="266.5" cy="165.6" fill="#FFFFFF" rx="9" ry="9" style="stroke:#000000;stroke-width:1.0;"/><path d="M268.8906,170.3031 Q268.4063,170.5531 267.875,170.6781 Q267.3594,170.8031 266.7813,170.8031 Q264.7188,170.8031 263.625,169.4437 Q262.5469,168.0844 262.5469,165.5062 Q262.5469,162.9281 263.625,161.5687 Q264.7188,160.2094 266.7813,160.2094 Q267.3594,160.2094 267.8906,160.3344 Q268.4219,160.4594 268.8906,160.6937 L268.8906,162.9437 Q268.375,162.4594 267.875,162.2406 Q267.3906,162.0219 266.875,162.0219 Q265.7656,162.0219 265.2031,162.8969 Q264.6406,163.7719 264.6406,165.5062 Q264.6406,167.225 265.2031,168.1156 Q265.7656,168.9906 266.875,168.9906 Q267.3906,168.9906 267.875,168.7719 Q268.375,168.5375 268.8906,168.0687 L268.8906,170.3031 Z " fill="#000000"/><text fill="#000000" font-family="Consolas" font-size="14" lengthAdjust="spacing" textLength="37" x="283.5" y="170.4467">Node</text><rect fill="#FFFFFF" height="18.2969" style="stroke:#000000;stroke-width:1.0;stroke-dasharray:2.0,2.0;" width="11" x="351" y="148.6"/><text fill="#000000" font-family="Verdana" font-size="14" font-style="italic" lengthAdjust="spacing" textLength="9" x="352" y="162.5951">E</text><line style="stroke:#000000;stroke-width:1.0;" x1="232" x2="358" y1="179.6" y2="179.6"/><polygon fill="none" points="242,189.2484,238,195.2484,246,195.2484" style="stroke:#000000;stroke-width:1.0;"/><text fill="#000000" font-family="Consolas" font-size="14" lengthAdjust="spacing" textLength="43" x="249" y="196.5951">E item</text><polygon fill="none" points="242,205.5453,238,211.5453,246,211.5453" style="stroke:#000000;stroke-width:1.0;"/><text fill="#000000" font-family="Consolas" font-size="14" lengthAdjust="spacing" textLength="104" x="249" y="212.892">Node&lt;E&gt; next</text><polygon fill="none" points="242,221.8422,238,227.8422,246,227.8422" style="stroke:#000000;stroke-width:1.0;"/><text fill="#000000" font-family="Consolas" font-size="14" lengthAdjust="spacing" textLength="104" x="249" y="229.1889">Node&lt;E&gt; prev</text><line style="stroke:#000000;stroke-width:1.0;" x1="232" x2="358" y1="236.4906" y2="236.4906"/></g><!--reverse link List to LinkedList--><g id="link_List_LinkedList"><path codeLine="21" d="M152.62,78.84 C148.3,91.11 143.41,105 138.54,118.84 " fill="none" id="List-backto-LinkedList" style="stroke:#000000;stroke-width:1.0;stroke-dasharray:7.0,7.0;"/><polygon fill="none" points="146.2,76.99,159.45,60.45,159.41,81.64,146.2,76.99" style="stroke:#000000;stroke-width:1.0;"/></g><!--reverse link Deque to LinkedList--><g id="link_Deque_LinkedList"><path codeLine="22" d="M70.28,79.29 C74.48,91.45 79.23,105.17 83.96,118.84 " fill="none" id="Deque-backto-LinkedList" style="stroke:#000000;stroke-width:1.0;stroke-dasharray:7.0,7.0;"/><polygon fill="none" points="63.34,81.64,63.42,60.45,76.57,77.06,63.34,81.64" style="stroke:#000000;stroke-width:1.0;"/></g><!--reverse link LinkedList to Node--><g id="link_LinkedList_Node"><path codeLine="23" d="M209.71,198.04 C216.7,198.04 223.69,198.04 230.68,198.04 " fill="none" id="LinkedList-backto-Node" style="stroke:#000000;stroke-width:1.0;"/><polygon fill="#000000" points="196.81,198.04,202.81,202.04,208.81,198.04,202.81,194.04,196.81,198.04" style="stroke:#000000;stroke-width:1.0;"/></g><!--SRC=[XO_FIiH03CRFzYaYNbfb5mIFifUrWY1xyGdYJgh3JfCwauhuxzdD31L7F7ZBz-MNvCknFj98C0NqtAI3vmaZZg1U0rqBwvr_9JY_g5gE1fo3_jlSeUtT2YS9c1hFId70FS6jJthPRohdYfvcojRUo6G07yWj6BmrHvzWB2GxbkkTk0p3u6FIsh1XqoS57iLjPMRJPu3EjNq7zoA1aBFpGDeQrK6VbRSSg1BR3cwMCeVvME9yhoz1-aoFzLMcbryffaZFDllp1ApdzVkclFtNBQ_NzkaghigkBm00]--></g></svg>