<?xml version="1.0" encoding="us-ascii" standalone="no"?><svg xmlns="http://www.w3.org/2000/svg" xmlns:xlink="http://www.w3.org/1999/xlink" contentStyleType="text/css" height="546px" preserveAspectRatio="none" style="width:594px;height:546px;background:#FFFFFF;" version="1.1" viewBox="0 0 594 546" width="594px" zoomAndPan="magnify"><defs/><g><text fill="#000000" font-family="sans-serif" font-size="14" font-weight="bold" lengthAdjust="spacing" textLength="444" x="73.875" y="32.9951">AbstractAutowireCapableBeanFactory#createBean&#30340;&#27969;&#31243;</text><rect fill="none" height="487.3438" style="stroke:#000000;stroke-width:1.5;" width="572.75" x="11" y="48.2969"/><path d="M256,48.2969 L256,57.5938 L246,67.5938 L11,67.5938 " fill="none" style="stroke:#000000;stroke-width:1.5;"/><text fill="#000000" font-family="sans-serif" font-size="14" lengthAdjust="spacing" textLength="235" x="14" y="62.292">AbstractBeanFactory#createBean</text><ellipse cx="238.5" cy="87.5938" fill="#222222" rx="10" ry="10" style="stroke:#222222;stroke-width:1.0;"/><rect fill="#F1F1F1" height="47.9375" rx="12.5" ry="12.5" style="stroke:#181818;stroke-width:0.5;" width="271" x="103" y="117.5938"/><text fill="#000000" font-family="sans-serif" font-size="12" lengthAdjust="spacing" textLength="101" x="117" y="138.7324">&#35299;&#26512;Bean&#30340;Class</text><text fill="#000000" font-family="sans-serif" font-size="12" lengthAdjust="spacing" textLength="251" x="113" y="152.7012">AbstractBeanFactory#resolveBeanClass</text><rect fill="#F1F1F1" height="47.9375" rx="12.5" ry="12.5" style="stroke:#181818;stroke-width:0.5;" width="330" x="73.5" y="185.5313"/><text fill="#000000" font-family="sans-serif" font-size="12" lengthAdjust="spacing" textLength="72" x="87.5" y="206.6699">&#20934;&#22791;&#26041;&#27861;&#37325;&#20889;</text><text fill="#000000" font-family="sans-serif" font-size="12" lengthAdjust="spacing" textLength="310" x="83.5" y="220.6387">AbstractBeanDefinition#prepareMethodOverrides</text><rect fill="#F1F1F1" height="47.9375" rx="12.5" ry="12.5" style="stroke:#181818;stroke-width:0.5;" width="431" x="23" y="253.4688"/><text fill="#000000" font-family="sans-serif" font-size="12" lengthAdjust="spacing" textLength="104" x="37" y="274.6074">&#23454;&#20363;&#21270;&#21069;&#35299;&#26512;Bean</text><text fill="#000000" font-family="sans-serif" font-size="12" lengthAdjust="spacing" textLength="411" x="33" y="288.5762">AbstractAutowireCapableBeanFactory#resolveBeforeInstantiation</text><polygon fill="#F1F1F1" points="132.5,321.4063,344.5,321.4063,356.5,333.4063,344.5,345.4063,132.5,345.4063,120.5,333.4063,132.5,321.4063" style="stroke:#181818;stroke-width:0.5;"/><text fill="#000000" font-family="sans-serif" font-size="11" lengthAdjust="spacing" textLength="212" x="132.5" y="337.2144">&#23454;&#20363;&#21270;&#21069;&#35299;&#26512;Bean&#26159;&#21542;&#36820;&#22238;&#20102;Bean&#23454;&#20363;&#65311;</text><text fill="#000000" font-family="sans-serif" font-size="11" lengthAdjust="spacing" textLength="11" x="109.5" y="330.812">&#26159;</text><text fill="#000000" font-family="sans-serif" font-size="11" lengthAdjust="spacing" textLength="11" x="356.5" y="330.812">&#21542;</text><rect fill="#F1F1F1" height="33.9688" rx="12.5" ry="12.5" style="stroke:#181818;stroke-width:0.5;" width="140" x="25.75" y="355.4063"/><text fill="#000000" font-family="sans-serif" font-size="12" lengthAdjust="spacing" textLength="116" x="39.75" y="376.5449">&#36820;&#22238;&#35299;&#26512;&#30340;Bean&#23454;&#20363;</text><rect fill="none" height="96.2344" style="stroke:#000000;stroke-width:1.5;" width="386" x="185.75" y="355.4063"/><path d="M566.75,355.4063 L566.75,364.7031 L556.75,374.7031 L185.75,374.7031 " fill="none" style="stroke:#000000;stroke-width:1.5;"/><text fill="#000000" font-family="sans-serif" font-size="14" lengthAdjust="spacing" textLength="371" x="188.75" y="369.4014">AbstractAutowireCapableBeanFactory#doCreateBean</text><rect fill="#F1F1F1" height="47.9375" rx="12.5" ry="12.5" style="stroke:#181818;stroke-width:0.5;" width="356" x="203.25" y="391.7031"/><text fill="#000000" font-family="sans-serif" font-size="12" lengthAdjust="spacing" textLength="80" x="217.25" y="412.8418">&#21019;&#24314;Bean&#23454;&#20363;</text><text fill="#000000" font-family="sans-serif" font-size="12" lengthAdjust="spacing" textLength="336" x="213.25" y="426.8105">AbstractAutowireCapableBeanFactory#doCreateBean</text><polygon fill="#F1F1F1" points="238.5,457.6406,250.5,469.6406,238.5,481.6406,226.5,469.6406,238.5,457.6406" style="stroke:#181818;stroke-width:0.5;"/><ellipse cx="238.5" cy="512.6406" fill="none" rx="11" ry="11" style="stroke:#222222;stroke-width:1.0;"/><ellipse cx="238.5" cy="512.6406" fill="#222222" rx="6" ry="6" style="stroke:#111111;stroke-width:1.0;"/><line style="stroke:#181818;stroke-width:1.0;" x1="238.5" x2="238.5" y1="97.5938" y2="117.5938"/><polygon fill="#181818" points="234.5,107.5938,238.5,117.5938,242.5,107.5938,238.5,111.5938" style="stroke:#181818;stroke-width:1.0;"/><line style="stroke:#181818;stroke-width:1.0;" x1="238.5" x2="238.5" y1="165.5313" y2="185.5313"/><polygon fill="#181818" points="234.5,175.5313,238.5,185.5313,242.5,175.5313,238.5,179.5313" style="stroke:#181818;stroke-width:1.0;"/><line style="stroke:#181818;stroke-width:1.0;" x1="238.5" x2="238.5" y1="233.4688" y2="253.4688"/><polygon fill="#181818" points="234.5,243.4688,238.5,253.4688,242.5,243.4688,238.5,247.4688" style="stroke:#181818;stroke-width:1.0;"/><line style="stroke:#181818;stroke-width:1.0;" x1="120.5" x2="95.75" y1="333.4063" y2="333.4063"/><line style="stroke:#181818;stroke-width:1.0;" x1="95.75" x2="95.75" y1="333.4063" y2="355.4063"/><polygon fill="#181818" points="91.75,345.4063,95.75,355.4063,99.75,345.4063,95.75,349.4063" style="stroke:#181818;stroke-width:1.0;"/><line style="stroke:#181818;stroke-width:1.0;" x1="356.5" x2="381.25" y1="333.4063" y2="333.4063"/><line style="stroke:#181818;stroke-width:1.0;" x1="381.25" x2="381.25" y1="333.4063" y2="391.7031"/><polygon fill="#181818" points="377.25,381.7031,381.25,391.7031,385.25,381.7031,381.25,385.7031" style="stroke:#181818;stroke-width:1.0;"/><line style="stroke:#181818;stroke-width:1.0;" x1="95.75" x2="95.75" y1="389.375" y2="469.6406"/><line style="stroke:#181818;stroke-width:1.0;" x1="95.75" x2="226.5" y1="469.6406" y2="469.6406"/><polygon fill="#181818" points="216.5,465.6406,226.5,469.6406,216.5,473.6406,220.5,469.6406" style="stroke:#181818;stroke-width:1.0;"/><line style="stroke:#181818;stroke-width:1.0;" x1="381.25" x2="381.25" y1="439.6406" y2="469.6406"/><line style="stroke:#181818;stroke-width:1.0;" x1="381.25" x2="250.5" y1="469.6406" y2="469.6406"/><polygon fill="#181818" points="260.5,465.6406,250.5,469.6406,260.5,473.6406,256.5,469.6406" style="stroke:#181818;stroke-width:1.0;"/><line style="stroke:#181818;stroke-width:1.0;" x1="238.5" x2="238.5" y1="301.4063" y2="321.4063"/><polygon fill="#181818" points="234.5,311.4063,238.5,321.4063,242.5,311.4063,238.5,315.4063" style="stroke:#181818;stroke-width:1.0;"/><line style="stroke:#181818;stroke-width:1.0;" x1="238.5" x2="238.5" y1="481.6406" y2="501.6406"/><polygon fill="#181818" points="234.5,491.6406,238.5,501.6406,242.5,491.6406,238.5,495.6406" style="stroke:#181818;stroke-width:1.0;"/><!--SRC=[ZL71IiD053ntlsAXb_ONpAb610_Y3tZPDYzs8Uo6tMt5eo29KWivQ54ByQ1KJtee7goYFzDDwybVSBkHna8etXx3pBoPznHL0U16Kof1MghHKVoG2d19I9e1R09XsmRcugZQ4a2KHMOt9zdByUonXmu4xuHBSJaRIKM4GXju_d2NfSclWHiGAVTPcLI0v47NQYtBCLeTH_e-pWQlsVZoA-xhw7fLkmK-PLHHpggXW908s0NLvjvU5uIW7kGcJ-dqewVF1_giNuGfZDQKNsRokO0TPYenHSbYduEeZslbrjdLiqv6yyyBFKodasW1vSJlzziwLcrWk6OuTLGnrx6iN6lkKt0T1844io8P6UBgnTSazhXRlC3uwzEXVfiKjl-g_TV4GHLW7hO1a9ceRpxBxPY3Fm00]--></g></svg>