<?xml version="1.0" encoding="us-ascii" standalone="no"?><svg xmlns="http://www.w3.org/2000/svg" xmlns:xlink="http://www.w3.org/1999/xlink" contentStyleType="text/css" height="938px" preserveAspectRatio="none" style="width:1282px;height:938px;background:#FFFFFF;" version="1.1" viewBox="0 0 1282 938" width="1282px" zoomAndPan="magnify"><defs/><g><text fill="#000000" font-family="Consolas" font-size="14" font-weight="bold" lengthAdjust="spacing" textLength="154" x="562.5" y="27.9951">&#23545;&#35937;&#30340;&#22534;&#20869;&#20869;&#23384;&#20998;&#37197;&#27969;&#31243;</text><ellipse cx="537.75" cy="52.2969" fill="#FFFFFF" rx="10" ry="10" style="stroke:#000000;stroke-width:1.0;"/><rect fill="#FFFFFF" height="36.2969" rx="12.5" ry="12.5" style="stroke:#000000;stroke-width:1.0;" width="104" x="485.75" y="82.2969"/><text fill="#000000" font-family="Consolas" font-size="14" lengthAdjust="spacing" textLength="84" x="495.75" y="105.292">&#21019;&#24314;&#26032;&#30340;&#23545;&#35937;</text><polygon fill="#FFFFFF" points="467.75,138.5938,607.75,138.5938,619.75,150.5938,607.75,162.5938,467.75,162.5938,455.75,150.5938,467.75,138.5938" style="stroke:#000000;stroke-width:1.0;"/><text fill="#000000" font-family="Consolas" font-size="14" lengthAdjust="spacing" textLength="140" x="467.75" y="155.4404">&#26032;&#23545;&#35937;&#26159;&#21542;&#26159;&#22823;&#23545;&#35937;&#65311;</text><text fill="#000000" font-family="Consolas" font-size="14" lengthAdjust="spacing" textLength="14" x="441.75" y="147.292">&#26159;</text><text fill="#000000" font-family="Consolas" font-size="14" lengthAdjust="spacing" textLength="14" x="619.75" y="147.292">&#21542;</text><rect fill="#FFFFFF" height="52.5938" rx="12.5" ry="12.5" style="stroke:#000000;stroke-width:1.0;" width="298" x="6" y="172.5938"/><text fill="#000000" font-family="Consolas" font-size="14" lengthAdjust="spacing" textLength="168" x="16" y="195.5889">&#22312;&#32769;&#24180;&#20195;&#20026;&#26032;&#23545;&#35937;&#20998;&#37197;&#20869;&#23384;</text><text fill="#000000" font-family="Consolas" font-size="14" lengthAdjust="spacing" textLength="278" x="16" y="211.8857">&#20869;&#23384;&#19981;&#36275;&#20250;&#36827;&#34892;&#19968;&#27425;Full GC&#65292;&#36824;&#19981;&#36275;&#20250;OOM</text><polygon fill="#FFFFFF" points="727.5,222.7422,1189.5,222.7422,1201.5,239.0391,1189.5,255.3359,727.5,255.3359,715.5,239.0391,727.5,222.7422" style="stroke:#000000;stroke-width:1.0;"/><text fill="#000000" font-family="Consolas" font-size="14" lengthAdjust="spacing" textLength="406" x="727.5" y="235.7373">&#32769;&#24180;&#20195;&#30340;&#26368;&#22823;&#21487;&#29992;&#30340;&#36830;&#32493;&#31354;&#38388;&#26159;&#21542;&#22823;&#20110;&#26032;&#29983;&#20195;&#25152;&#26377;&#23545;&#35937;&#30340;&#24635;&#22823;&#23567;&#65311;</text><text fill="#000000" font-family="Consolas" font-size="14" lengthAdjust="spacing" textLength="462" x="727.5" y="252.0342">&#25110;&#32769;&#24180;&#20195;&#30340;&#26368;&#22823;&#21487;&#29992;&#30340;&#36830;&#32493;&#31354;&#38388;&#26159;&#21542;&#22823;&#20110;&#21382;&#20195;&#26187;&#21319;&#32769;&#24180;&#20195;&#23545;&#35937;&#30340;&#24179;&#22343;&#22823;&#23567;&#65311;</text><text fill="#000000" font-family="Consolas" font-size="14" lengthAdjust="spacing" textLength="14" x="701.5" y="235.7373">&#26159;</text><text fill="#000000" font-family="Consolas" font-size="14" lengthAdjust="spacing" textLength="14" x="1201.5" y="235.7373">&#21542;</text><rect fill="#FFFFFF" height="448.7813" style="stroke:#000000;stroke-width:1.0;" width="845" x="314" y="265.3359"/><path d="M387,265.3359 L387,274.6328 L377,284.6328 L314,284.6328 " fill="none" style="stroke:#000000;stroke-width:1.0;"/><text fill="#000000" font-family="Consolas" font-size="14" lengthAdjust="spacing" textLength="63" x="317" y="279.3311">Minor GC</text><rect fill="#FFFFFF" height="36.2969" rx="12.5" ry="12.5" style="stroke:#000000;stroke-width:1.0;" width="188" x="610" y="301.6328"/><text fill="#000000" font-family="Consolas" font-size="14" lengthAdjust="spacing" textLength="168" x="620" y="324.6279">&#26631;&#35760;&#26032;&#29983;&#20195;&#20013;&#21487;&#22238;&#25910;&#30340;&#23545;&#35937;</text><polygon fill="#FFFFFF" points="558,357.9297,850,357.9297,862,369.9297,850,381.9297,558,381.9297,546,369.9297,558,357.9297" style="stroke:#000000;stroke-width:1.0;"/><text fill="#000000" font-family="Consolas" font-size="14" lengthAdjust="spacing" textLength="292" x="558" y="374.7764">Survivor&#21306;&#26159;&#21542;&#22823;&#20110;&#26032;&#29983;&#20195;&#23384;&#27963;&#30340;&#23545;&#35937;&#24635;&#22823;&#23567;&#65311;</text><text fill="#000000" font-family="Consolas" font-size="14" lengthAdjust="spacing" textLength="14" x="532" y="366.6279">&#26159;</text><text fill="#000000" font-family="Consolas" font-size="14" lengthAdjust="spacing" textLength="14" x="862" y="366.6279">&#21542;</text><rect fill="#FFFFFF" height="36.2969" rx="12.5" ry="12.5" style="stroke:#000000;stroke-width:1.0;" width="340" x="326" y="391.9297"/><text fill="#000000" font-family="Consolas" font-size="14" lengthAdjust="spacing" textLength="320" x="336" y="414.9248">&#23558;&#23384;&#27963;&#30340;&#23545;&#35937;&#22797;&#21046;&#21040;Survivor&#21306;&#65292;&#24182;&#22686;&#38271;&#23545;&#35937;&#30340;&#24180;&#40836;</text><rect fill="#FFFFFF" height="208.8906" style="stroke:#000000;stroke-width:1.0;" width="350" x="327" y="463.2266"/><path d="M449,463.2266 L449,472.5234 L439,482.5234 L327,482.5234 " fill="none" style="stroke:#000000;stroke-width:1.0;"/><text fill="#000000" font-family="Consolas" font-size="14" lengthAdjust="spacing" textLength="112" x="330" y="477.2217">&#23384;&#27963;&#23545;&#35937;&#24180;&#40836;&#21028;&#26029;</text><rect fill="#FFFFFF" height="52.5938" rx="12.5" ry="12.5" style="stroke:#000000;stroke-width:1.0;" width="298" x="347" y="558.2656"/><text fill="#000000" font-family="Consolas" font-size="14" lengthAdjust="spacing" textLength="112" x="361" y="581.2607">&#23558;&#23545;&#35937;&#25918;&#20837;&#32769;&#24180;&#20195;</text><text fill="#000000" font-family="Consolas" font-size="14" lengthAdjust="spacing" textLength="278" x="357" y="597.5576">&#20869;&#23384;&#19981;&#36275;&#20250;&#36827;&#34892;&#19968;&#27425;Full GC&#65292;&#36824;&#19981;&#36275;&#20250;OOM</text><polygon fill="#FFFFFF" points="391,499.5234,601,499.5234,613,515.8203,601,532.1172,391,532.1172,379,515.8203,391,499.5234" style="stroke:#000000;stroke-width:1.0;"/><text fill="#000000" font-family="Consolas" font-size="14" lengthAdjust="spacing" textLength="14" x="500" y="545.1123">&#26159;</text><text fill="#000000" font-family="Consolas" font-size="14" lengthAdjust="spacing" textLength="210" x="391" y="512.5186">&#23384;&#27963;&#23545;&#35937;&#30340;&#24180;&#40836;&#26159;&#21542;&#36798;&#21040;&#24180;&#40836;&#38408;&#20540;</text><text fill="#000000" font-family="Consolas" font-size="14" lengthAdjust="spacing" textLength="210" x="391" y="528.8154">&#25110;&#23384;&#27963;&#23545;&#35937;&#30340;&#24180;&#40836;&#22823;&#20110;&#21160;&#24577;&#24180;&#40836;&#65311;</text><text fill="#000000" font-family="Consolas" font-size="14" lengthAdjust="spacing" textLength="14" x="613" y="512.5186">&#21542;</text><polygon fill="#FFFFFF" points="496,636.1172,508,648.1172,496,660.1172,484,648.1172,496,636.1172" style="stroke:#000000;stroke-width:1.0;"/><rect fill="#FFFFFF" height="36.2969" rx="12.5" ry="12.5" style="stroke:#000000;stroke-width:1.0;" width="68" x="878" y="442.0781"/><text fill="#000000" font-family="Consolas" font-size="14" lengthAdjust="spacing" textLength="48" x="888" y="465.0732">Full GC</text><polygon fill="#FFFFFF" points="709,391.9297,1115,391.9297,1127,403.9297,1115,415.9297,709,415.9297,697,403.9297,709,391.9297" style="stroke:#000000;stroke-width:1.0;"/><text fill="#000000" font-family="Consolas" font-size="14" lengthAdjust="spacing" textLength="14" x="916" y="428.9248">&#21542;</text><text fill="#000000" font-family="Consolas" font-size="14" lengthAdjust="spacing" textLength="406" x="709" y="408.7764">&#32769;&#24180;&#20195;&#30340;&#26368;&#22823;&#21487;&#29992;&#30340;&#36830;&#32493;&#31354;&#38388;&#26159;&#21542;&#22823;&#20110;&#26032;&#29983;&#20195;&#23384;&#27963;&#30340;&#23545;&#35937;&#24635;&#22823;&#23567;&#65311;</text><text fill="#000000" font-family="Consolas" font-size="14" lengthAdjust="spacing" textLength="14" x="1127" y="400.6279">&#26159;</text><polygon fill="#FFFFFF" points="912,504.5234,924,516.5234,912,528.5234,900,516.5234,912,504.5234" style="stroke:#000000;stroke-width:1.0;"/><rect fill="#FFFFFF" height="52.5938" rx="12.5" ry="12.5" style="stroke:#000000;stroke-width:1.0;" width="216" x="804" y="563.5234"/><text fill="#000000" font-family="Consolas" font-size="14" lengthAdjust="spacing" textLength="196" x="814" y="586.5186">&#23558;&#26032;&#29983;&#20195;&#23384;&#27963;&#30340;&#23545;&#35937;&#25918;&#20837;&#32769;&#24180;&#20195;</text><text fill="#000000" font-family="Consolas" font-size="14" lengthAdjust="spacing" textLength="104" x="814" y="602.8154">&#20869;&#23384;&#19981;&#36275;&#20250;OOM</text><polygon fill="#FFFFFF" points="704,678.1172,716,690.1172,704,702.1172,692,690.1172,704,678.1172" style="stroke:#000000;stroke-width:1.0;"/><rect fill="#FFFFFF" height="36.2969" rx="12.5" ry="12.5" style="stroke:#000000;stroke-width:1.0;" width="68" x="1179" y="265.3359"/><text fill="#000000" font-family="Consolas" font-size="14" lengthAdjust="spacing" textLength="48" x="1189" y="288.3311">Full GC</text><polygon fill="#FFFFFF" points="958.5,720.1172,970.5,732.1172,958.5,744.1172,946.5,732.1172,958.5,720.1172" style="stroke:#000000;stroke-width:1.0;"/><polygon fill="#FFFFFF" points="814.5,172.5938,1102.5,172.5938,1114.5,184.5938,1102.5,196.5938,814.5,196.5938,802.5,184.5938,814.5,172.5938" style="stroke:#000000;stroke-width:1.0;"/><text fill="#000000" font-family="Consolas" font-size="14" lengthAdjust="spacing" textLength="14" x="962.5" y="209.5889">&#21542;</text><text fill="#000000" font-family="Consolas" font-size="14" lengthAdjust="spacing" textLength="288" x="814.5" y="189.4404">&#26032;&#29983;&#20195;&#30340;Eden&#21306;&#30340;&#21487;&#29992;&#26159;&#21542;&#22823;&#20110;&#26032;&#23545;&#35937;&#22823;&#23567;&#65311;</text><text fill="#000000" font-family="Consolas" font-size="14" lengthAdjust="spacing" textLength="14" x="1114.5" y="181.292">&#26159;</text><polygon fill="#FFFFFF" points="958.5,764.1172,970.5,776.1172,958.5,788.1172,946.5,776.1172,958.5,764.1172" style="stroke:#000000;stroke-width:1.0;"/><rect fill="#FFFFFF" height="52.5938" rx="12.5" ry="12.5" style="stroke:#000000;stroke-width:1.0;" width="252" x="832.5" y="808.1172"/><text fill="#000000" font-family="Consolas" font-size="14" lengthAdjust="spacing" textLength="232" x="842.5" y="831.1123">&#22312;&#26032;&#29983;&#20195;&#30340;Eden&#21306;&#20026;&#26032;&#23545;&#35937;&#20998;&#37197;&#20869;&#23384;</text><text fill="#000000" font-family="Consolas" font-size="14" lengthAdjust="spacing" textLength="104" x="842.5" y="847.4092">&#20869;&#23384;&#19981;&#36275;&#20250;OOM</text><polygon fill="#FFFFFF" points="537.75,866.7109,549.75,878.7109,537.75,890.7109,525.75,878.7109,537.75,866.7109" style="stroke:#000000;stroke-width:1.0;"/><ellipse cx="537.75" cy="921.7109" fill="#FFFFFF" rx="11" ry="11" style="stroke:#000000;stroke-width:1.0;"/><ellipse cx="537.75" cy="921.7109" fill="#000000" rx="6" ry="6" style="stroke:#7F7F7F;stroke-width:1.0;"/><line style="stroke:#000000;stroke-width:1.0;" x1="537.75" x2="537.75" y1="62.2969" y2="82.2969"/><polygon fill="#000000" points="533.75,72.2969,537.75,82.2969,541.75,72.2969,537.75,76.2969" style="stroke:#000000;stroke-width:1.0;"/><line style="stroke:#000000;stroke-width:1.0;" x1="496" x2="496" y1="532.1172" y2="558.2656"/><polygon fill="#000000" points="492,548.2656,496,558.2656,500,548.2656,496,552.2656" style="stroke:#000000;stroke-width:1.0;"/><line style="stroke:#000000;stroke-width:1.0;" x1="613" x2="655" y1="515.8203" y2="515.8203"/><polygon fill="#000000" points="651,572.4141,655,582.4141,659,572.4141,655,576.4141" style="stroke:#000000;stroke-width:1.0;"/><line style="stroke:#000000;stroke-width:1.0;" x1="655" x2="655" y1="515.8203" y2="648.1172"/><line style="stroke:#000000;stroke-width:1.0;" x1="655" x2="508" y1="648.1172" y2="648.1172"/><polygon fill="#000000" points="518,644.1172,508,648.1172,518,652.1172,514,648.1172" style="stroke:#000000;stroke-width:1.0;"/><line style="stroke:#000000;stroke-width:1.0;" x1="496" x2="496" y1="610.8594" y2="636.1172"/><polygon fill="#000000" points="492,626.1172,496,636.1172,500,626.1172,496,630.1172" style="stroke:#000000;stroke-width:1.0;"/><line style="stroke:#000000;stroke-width:1.0;" x1="496" x2="496" y1="428.2266" y2="499.5234"/><polygon fill="#000000" points="492,489.5234,496,499.5234,500,489.5234,496,493.5234" style="stroke:#000000;stroke-width:1.0;"/><line style="stroke:#000000;stroke-width:1.0;" x1="912" x2="912" y1="415.9297" y2="442.0781"/><polygon fill="#000000" points="908,432.0781,912,442.0781,916,432.0781,912,436.0781" style="stroke:#000000;stroke-width:1.0;"/><line style="stroke:#000000;stroke-width:1.0;" x1="1127" x2="1139" y1="403.9297" y2="403.9297"/><polygon fill="#000000" points="1135,450.2266,1139,460.2266,1143,450.2266,1139,454.2266" style="stroke:#000000;stroke-width:1.0;"/><line style="stroke:#000000;stroke-width:1.0;" x1="1139" x2="1139" y1="403.9297" y2="516.5234"/><line style="stroke:#000000;stroke-width:1.0;" x1="1139" x2="924" y1="516.5234" y2="516.5234"/><polygon fill="#000000" points="934,512.5234,924,516.5234,934,520.5234,930,516.5234" style="stroke:#000000;stroke-width:1.0;"/><line style="stroke:#000000;stroke-width:1.0;" x1="912" x2="912" y1="478.375" y2="504.5234"/><polygon fill="#000000" points="908,494.5234,912,504.5234,916,494.5234,912,498.5234" style="stroke:#000000;stroke-width:1.0;"/><line style="stroke:#000000;stroke-width:1.0;" x1="912" x2="912" y1="528.5234" y2="563.5234"/><polygon fill="#000000" points="908,553.5234,912,563.5234,916,553.5234,912,557.5234" style="stroke:#000000;stroke-width:1.0;"/><line style="stroke:#000000;stroke-width:1.0;" x1="546" x2="496" y1="369.9297" y2="369.9297"/><line style="stroke:#000000;stroke-width:1.0;" x1="496" x2="496" y1="369.9297" y2="391.9297"/><polygon fill="#000000" points="492,381.9297,496,391.9297,500,381.9297,496,385.9297" style="stroke:#000000;stroke-width:1.0;"/><line style="stroke:#000000;stroke-width:1.0;" x1="862" x2="912" y1="369.9297" y2="369.9297"/><line style="stroke:#000000;stroke-width:1.0;" x1="912" x2="912" y1="369.9297" y2="391.9297"/><polygon fill="#000000" points="908,381.9297,912,391.9297,916,381.9297,912,385.9297" style="stroke:#000000;stroke-width:1.0;"/><line style="stroke:#000000;stroke-width:1.0;" x1="496" x2="496" y1="660.1172" y2="690.1172"/><line style="stroke:#000000;stroke-width:1.0;" x1="496" x2="692" y1="690.1172" y2="690.1172"/><polygon fill="#000000" points="682,686.1172,692,690.1172,682,694.1172,686,690.1172" style="stroke:#000000;stroke-width:1.0;"/><line style="stroke:#000000;stroke-width:1.0;" x1="912" x2="912" y1="616.1172" y2="690.1172"/><line style="stroke:#000000;stroke-width:1.0;" x1="912" x2="716" y1="690.1172" y2="690.1172"/><polygon fill="#000000" points="726,686.1172,716,690.1172,726,694.1172,722,690.1172" style="stroke:#000000;stroke-width:1.0;"/><line style="stroke:#000000;stroke-width:1.0;" x1="704" x2="704" y1="337.9297" y2="357.9297"/><polygon fill="#000000" points="700,347.9297,704,357.9297,708,347.9297,704,351.9297" style="stroke:#000000;stroke-width:1.0;"/><line style="stroke:#000000;stroke-width:1.0;" x1="715.5" x2="704" y1="239.0391" y2="239.0391"/><line style="stroke:#000000;stroke-width:1.0;" x1="704" x2="704" y1="239.0391" y2="301.6328"/><polygon fill="#000000" points="700,291.6328,704,301.6328,708,291.6328,704,295.6328" style="stroke:#000000;stroke-width:1.0;"/><line style="stroke:#000000;stroke-width:1.0;" x1="1201.5" x2="1213" y1="239.0391" y2="239.0391"/><line style="stroke:#000000;stroke-width:1.0;" x1="1213" x2="1213" y1="239.0391" y2="265.3359"/><polygon fill="#000000" points="1209,255.3359,1213,265.3359,1217,255.3359,1213,259.3359" style="stroke:#000000;stroke-width:1.0;"/><line style="stroke:#000000;stroke-width:1.0;" x1="704" x2="704" y1="702.1172" y2="732.1172"/><line style="stroke:#000000;stroke-width:1.0;" x1="704" x2="946.5" y1="732.1172" y2="732.1172"/><polygon fill="#000000" points="936.5,728.1172,946.5,732.1172,936.5,736.1172,940.5,732.1172" style="stroke:#000000;stroke-width:1.0;"/><line style="stroke:#000000;stroke-width:1.0;" x1="1213" x2="1213" y1="301.6328" y2="732.1172"/><line style="stroke:#000000;stroke-width:1.0;" x1="1213" x2="970.5" y1="732.1172" y2="732.1172"/><polygon fill="#000000" points="980.5,728.1172,970.5,732.1172,980.5,736.1172,976.5,732.1172" style="stroke:#000000;stroke-width:1.0;"/><line style="stroke:#000000;stroke-width:1.0;" x1="958.5" x2="958.5" y1="196.5938" y2="222.7422"/><polygon fill="#000000" points="954.5,212.7422,958.5,222.7422,962.5,212.7422,958.5,216.7422" style="stroke:#000000;stroke-width:1.0;"/><line style="stroke:#000000;stroke-width:1.0;" x1="1114.5" x2="1261" y1="184.5938" y2="184.5938"/><polygon fill="#000000" points="1257,474.375,1261,484.375,1265,474.375,1261,478.375" style="stroke:#000000;stroke-width:1.0;"/><line style="stroke:#000000;stroke-width:1.0;" x1="1261" x2="1261" y1="184.5938" y2="776.1172"/><line style="stroke:#000000;stroke-width:1.0;" x1="1261" x2="970.5" y1="776.1172" y2="776.1172"/><polygon fill="#000000" points="980.5,772.1172,970.5,776.1172,980.5,780.1172,976.5,776.1172" style="stroke:#000000;stroke-width:1.0;"/><line style="stroke:#000000;stroke-width:1.0;" x1="958.5" x2="958.5" y1="744.1172" y2="764.1172"/><polygon fill="#000000" points="954.5,754.1172,958.5,764.1172,962.5,754.1172,958.5,758.1172" style="stroke:#000000;stroke-width:1.0;"/><line style="stroke:#000000;stroke-width:1.0;" x1="958.5" x2="958.5" y1="788.1172" y2="808.1172"/><polygon fill="#000000" points="954.5,798.1172,958.5,808.1172,962.5,798.1172,958.5,802.1172" style="stroke:#000000;stroke-width:1.0;"/><line style="stroke:#000000;stroke-width:1.0;" x1="455.75" x2="155" y1="150.5938" y2="150.5938"/><line style="stroke:#000000;stroke-width:1.0;" x1="155" x2="155" y1="150.5938" y2="172.5938"/><polygon fill="#000000" points="151,162.5938,155,172.5938,159,162.5938,155,166.5938" style="stroke:#000000;stroke-width:1.0;"/><line style="stroke:#000000;stroke-width:1.0;" x1="619.75" x2="958.5" y1="150.5938" y2="150.5938"/><line style="stroke:#000000;stroke-width:1.0;" x1="958.5" x2="958.5" y1="150.5938" y2="172.5938"/><polygon fill="#000000" points="954.5,162.5938,958.5,172.5938,962.5,162.5938,958.5,166.5938" style="stroke:#000000;stroke-width:1.0;"/><line style="stroke:#000000;stroke-width:1.0;" x1="155" x2="155" y1="225.1875" y2="878.7109"/><line style="stroke:#000000;stroke-width:1.0;" x1="155" x2="525.75" y1="878.7109" y2="878.7109"/><polygon fill="#000000" points="515.75,874.7109,525.75,878.7109,515.75,882.7109,519.75,878.7109" style="stroke:#000000;stroke-width:1.0;"/><line style="stroke:#000000;stroke-width:1.0;" x1="958.5" x2="958.5" y1="860.7109" y2="878.7109"/><line style="stroke:#000000;stroke-width:1.0;" x1="958.5" x2="549.75" y1="878.7109" y2="878.7109"/><polygon fill="#000000" points="559.75,874.7109,549.75,878.7109,559.75,882.7109,555.75,878.7109" style="stroke:#000000;stroke-width:1.0;"/><line style="stroke:#000000;stroke-width:1.0;" x1="537.75" x2="537.75" y1="118.5938" y2="138.5938"/><polygon fill="#000000" points="533.75,128.5938,537.75,138.5938,541.75,128.5938,537.75,132.5938" style="stroke:#000000;stroke-width:1.0;"/><line style="stroke:#000000;stroke-width:1.0;" x1="537.75" x2="537.75" y1="890.7109" y2="910.7109"/><polygon fill="#000000" points="533.75,900.7109,537.75,910.7109,541.75,900.7109,537.75,904.7109" style="stroke:#000000;stroke-width:1.0;"/><!--SRC=[fLHBRzf043xRls9xIuwLSe9ZrFIKvf1hBfOmhLN7HhR9eIT72iPf8Ec1KXee2IrDgLGALIZY9VWpdhKvvIzq7s0SGfGsbIpREplpFMPM-yHw9U_BAALAYYQQhnKj9HdIFh8KIvMtTCtQLTx8wEb6P2iX9wMqQZsu-K8Yk9kwPkggP8eYGqJGwWU_Qlxv4Lmwu6Jeqoo1wqmpUVpxq6-SYAOb6POO0xSCmm4kjcakAugBIXAjaGXVub8BtbtHT_qRZzoCBjOHiQEHh59hNHHYK6a4zY7qEzxmYzSRXBMSa9FlQVphzV91zzeRdGUJSb3BUJqR_wXjfLKLFT-y6UM2oI9ZPsSxBiggAQCr8e4GpOJvXGj2H0G_IyWQv0PK-bdBBpIuLYBK6vmkH13TxRCxegEu33XqGE1mnQPb39GiWqdL7pRzxuFfXyuI1zU2ZsrSEGwRZkrXoBgdORVu26muTIZmnnF8PyFonLZxr_0fUuyrGNXfwEaKsbOqtI1jfP4Olim6FzkXOg_N91AWNCM5RcJq0k_5RjeuK0vqWpHtfLyoHzmPXdLHlyjIoEbeEqlvKC-3smMt7U4XiuT-5pvNf-yd4PkTwVY8oPfvuaWp6BOBRXqNcoo5IeycX0ZSH30U4quUcPPSi4TiE2ihPaDusy2izoIoofiGGzGTRq9X39cluQWUUzufwgspIPPQGadE_n3hWtWtwt_FyB_CT8bQYCqCnPVqqjdVI_10l-RT2D6YvcyBYDBFqyNv7xsTLbmQVtrFyLk8OPcMdle3]--></g></svg>