<?xml version="1.0" encoding="us-ascii" standalone="no"?><svg xmlns="http://www.w3.org/2000/svg" xmlns:xlink="http://www.w3.org/1999/xlink" contentStyleType="text/css" height="94px" preserveAspectRatio="none" style="width:1046px;height:94px;background:#FFFFFF;" version="1.1" viewBox="0 0 1046 94" width="1046px" zoomAndPan="magnify"><defs/><g><!--class ApplicationContextInitializer--><g id="elem_ApplicationContextInitializer"><rect codeLine="1" fill="#F1F1F1" height="64.2969" id="ApplicationContextInitializer" rx="2.5" ry="2.5" style="stroke:#181818;stroke-width:0.5;" width="486" x="549.5" y="15.14"/><ellipse cx="564.5" cy="31.14" fill="#B4A7E5" rx="11" ry="11" style="stroke:#181818;stroke-width:1.0;"/><path d="M560.4219,26.9056 L560.4219,24.7494 L567.8125,24.7494 L567.8125,26.9056 L565.3438,26.9056 L565.3438,34.9838 L567.8125,34.9838 L567.8125,37.14 L560.4219,37.14 L560.4219,34.9838 L562.8906,34.9838 L562.8906,26.9056 L560.4219,26.9056 Z " fill="#000000"/><text fill="#000000" font-family="sans-serif" font-size="14" font-style="italic" lengthAdjust="spacing" textLength="188" x="578.5" y="35.9867">ApplicationContextInitializer</text><rect fill="#FFFFFF" height="15.9688" style="stroke:#181818;stroke-width:1.0;stroke-dasharray:2.0,2.0;" width="264" x="774.5" y="12.14"/><text fill="#000000" font-family="sans-serif" font-size="12" font-style="italic" lengthAdjust="spacing" textLength="262" x="775.5" y="24.2787">C extends ConfigurableApplicationContext</text><line style="stroke:#181818;stroke-width:0.5;" x1="550.5" x2="1034.5" y1="47.14" y2="47.14"/><line style="stroke:#181818;stroke-width:0.5;" x1="550.5" x2="1034.5" y1="55.14" y2="55.14"/><ellipse cx="560.5" cy="68.7884" fill="#84BE84" rx="3" ry="3" style="stroke:#038048;stroke-width:1.0;"/><text fill="#000000" font-family="sans-serif" font-size="14" lengthAdjust="spacing" textLength="106" x="569.5" y="72.1351">initialize(C) void</text></g><!--class SpringApplication--><g id="elem_SpringApplication"><rect codeLine="4" fill="#F1F1F1" height="80.5938" id="SpringApplication" rx="2.5" ry="2.5" style="stroke:#181818;stroke-width:0.5;" width="507" x="7" y="7"/><ellipse cx="196.75" cy="23" fill="#ADD1B2" rx="11" ry="11" style="stroke:#181818;stroke-width:1.0;"/><path d="M199.7188,28.6406 Q199.1406,28.9375 198.5,29.0781 Q197.8594,29.2344 197.1563,29.2344 Q194.6563,29.2344 193.3281,27.5938 Q192.0156,25.9375 192.0156,22.8125 Q192.0156,19.6875 193.3281,18.0313 Q194.6563,16.375 197.1563,16.375 Q197.8594,16.375 198.5,16.5313 Q199.1563,16.6875 199.7188,16.9844 L199.7188,19.7031 Q199.0938,19.125 198.5,18.8594 Q197.9063,18.5781 197.2813,18.5781 Q195.9375,18.5781 195.25,19.6563 Q194.5625,20.7188 194.5625,22.8125 Q194.5625,24.9063 195.25,25.9844 Q195.9375,27.0469 197.2813,27.0469 Q197.9063,27.0469 198.5,26.7813 Q199.0938,26.5 199.7188,25.9219 L199.7188,28.6406 Z " fill="#000000"/><text fill="#000000" font-family="sans-serif" font-size="14" lengthAdjust="spacing" textLength="119" x="217.25" y="27.8467">SpringApplication</text><line style="stroke:#181818;stroke-width:0.5;" x1="8" x2="513" y1="39" y2="39"/><rect fill="none" height="6" style="stroke:#C82930;stroke-width:1.0;" width="6" x="15" y="49.6484"/><text fill="#000000" font-family="sans-serif" font-size="14" lengthAdjust="spacing" textLength="337" x="27" y="55.9951">List&lt;ApplicationContextInitializer&lt;?&gt;&gt; initializers</text><line style="stroke:#181818;stroke-width:0.5;" x1="8" x2="513" y1="63.2969" y2="63.2969"/><ellipse cx="18" cy="76.9453" fill="#84BE84" rx="3" ry="3" style="stroke:#038048;stroke-width:1.0;"/><text fill="#000000" font-family="sans-serif" font-size="14" lengthAdjust="spacing" textLength="481" x="27" y="80.292">setInitializers(Collection&lt;? extends ApplicationContextInitializer&lt;?&gt;&gt;)</text></g><!--reverse link SpringApplication to ApplicationContextInitializer--><g id="link_SpringApplication_ApplicationContextInitializer"><path codeLine="8" d="M528.15,47.29 C535.12,47.29 542.09,47.29 549.07,47.29 " fill="none" id="SpringApplication-backto-ApplicationContextInitializer" style="stroke:#181818;stroke-width:1.0;stroke-dasharray:7.0,7.0;"/><polygon fill="#181818" points="515.29,47.29,521.29,51.29,527.29,47.29,521.29,43.29,515.29,47.29" style="stroke:#181818;stroke-width:1.0;"/><text fill="#000000" font-family="sans-serif" font-size="13" lengthAdjust="spacing" textLength="8" x="521.9431" y="44.136">1</text><text fill="#000000" font-family="sans-serif" font-size="13" lengthAdjust="spacing" textLength="8" x="533.7244" y="44.1363">n</text></g><!--SRC=[XOx12i8m343FzYj2JvlYm7lPa9u4Rtv1xR8HAEregeZYlzjUnc0mhqdUooEVC0x68fodoP4rYOBN8KzVwU8faN7qngWqv07wdY4l1neVqTmThfaMFc9t09hHIjVm3DIBhx3ECCDjYkJ71Lc88ro9azfkwDfs8OvS7Z4kJxZImJcqHQ2wEVcljivrwovvah1lOWFIost73m00]--></g></svg>