<?xml version="1.0" encoding="us-ascii" standalone="no"?><svg xmlns="http://www.w3.org/2000/svg" xmlns:xlink="http://www.w3.org/1999/xlink" contentStyleType="text/css" height="158px" preserveAspectRatio="none" style="width:573px;height:158px;background:#FFFFFF;" version="1.1" viewBox="0 0 573 158" width="573px" zoomAndPan="magnify"><defs/><g><text fill="#000000" font-family="sans-serif" font-size="14" font-weight="bold" lengthAdjust="spacing" textLength="70" x="244.5" y="22.9951">&#23545;&#35937;&#30340;&#21019;&#24314;</text><ellipse cx="16" cy="61.2869" fill="#222222" rx="10" ry="10" style="stroke:none;stroke-width:1.0;"/><rect fill="#F1F1F1" height="33.9688" rx="12.5" ry="12.5" style="stroke:#181818;stroke-width:0.5;" width="145" x="46.5" y="44.2969"/><text fill="#000000" font-family="sans-serif" font-size="12" lengthAdjust="spacing" textLength="125" x="56.5" y="65.4355">1. new&#25351;&#20196;&#21019;&#24314;&#26032;&#23545;&#35937;</text><rect fill="#F1F1F1" height="33.9688" rx="12.5" ry="12.5" style="stroke:#181818;stroke-width:0.5;" width="204" x="211" y="44.2969"/><text fill="#000000" font-family="sans-serif" font-size="12" lengthAdjust="spacing" textLength="184" x="221" y="65.4355">2. &#26410;&#21152;&#36733;&#36807;&#35813;&#31867;&#65292;&#21017;&#36827;&#34892;&#31867;&#30340;&#21152;&#36733;</text><rect fill="#F1F1F1" height="33.9688" rx="12.5" ry="12.5" style="stroke:#181818;stroke-width:0.5;" width="108" x="435" y="44.2969"/><text fill="#000000" font-family="sans-serif" font-size="12" lengthAdjust="spacing" textLength="88" x="445" y="65.4355">3. &#20998;&#37197;&#20869;&#23384;&#31354;&#38388;</text><rect fill="#F1F1F1" height="33.9688" rx="12.5" ry="12.5" style="stroke:#181818;stroke-width:0.5;" width="156" x="411" y="118.2669"/><text fill="#000000" font-family="sans-serif" font-size="12" lengthAdjust="spacing" textLength="136" x="421" y="139.4055">4. &#21021;&#22987;&#21270;&#20869;&#23384;&#31354;&#38388;&#20026;&#38646;&#20540;</text><rect fill="#F1F1F1" height="33.9688" rx="12.5" ry="12.5" style="stroke:#181818;stroke-width:0.5;" width="120" x="271" y="118.2669"/><text fill="#000000" font-family="sans-serif" font-size="12" lengthAdjust="spacing" textLength="100" x="281" y="139.4055">5. &#35774;&#32622;&#24517;&#35201;&#30340;&#20449;&#24687;</text><rect fill="#F1F1F1" height="33.9688" rx="12.5" ry="12.5" style="stroke:#181818;stroke-width:0.5;" width="120" x="131" y="118.2669"/><text fill="#000000" font-family="sans-serif" font-size="12" lengthAdjust="spacing" textLength="100" x="141" y="139.4055">6. &#25191;&#34892;&#26500;&#36896;&#22120;&#26041;&#27861;</text><ellipse cx="101" cy="135.2569" fill="none" rx="10" ry="10" style="stroke:#222222;stroke-width:1.0;"/><ellipse cx="101.5" cy="135.7569" fill="#222222" rx="6" ry="6" style="stroke:none;stroke-width:1.0;"/><!--link start to 1. new???????--><g id="link_start_1. new&#25351;&#20196;&#21019;&#24314;&#26032;&#23545;&#35937;"><path d="M26.46,61.2869 C31.12,61.2869 35.78,61.2869 40.44,61.2869 " fill="none" id="start-to-1. new&#25351;&#20196;&#21019;&#24314;&#26032;&#23545;&#35937;" style="stroke:#181818;stroke-width:1.0;"/><polygon fill="#181818" points="45.34,61.2869,36.34,57.2869,40.34,61.2869,36.34,65.2869,45.34,61.2869" style="stroke:#181818;stroke-width:1.0;"/></g><!--link 1. new??????? to 2. ??????????????--><g id="link_1. new&#25351;&#20196;&#21019;&#24314;&#26032;&#23545;&#35937;_2. &#26410;&#21152;&#36733;&#36807;&#35813;&#31867;&#65292;&#21017;&#36827;&#34892;&#31867;&#30340;&#21152;&#36733;"><path d="M191.75,61.2869 C196.09,61.2869 200.43,61.2869 204.77,61.2869 " fill="none" id="1. new&#25351;&#20196;&#21019;&#24314;&#26032;&#23545;&#35937;-to-2. &#26410;&#21152;&#36733;&#36807;&#35813;&#31867;&#65292;&#21017;&#36827;&#34892;&#31867;&#30340;&#21152;&#36733;" style="stroke:#181818;stroke-width:1.0;"/><polygon fill="#181818" points="209.7,61.2869,200.7,57.2869,204.7,61.2869,200.7,65.2869,209.7,61.2869" style="stroke:#181818;stroke-width:1.0;"/></g><!--link 2. ?????????????? to 3. ??????--><g id="link_2. &#26410;&#21152;&#36733;&#36807;&#35813;&#31867;&#65292;&#21017;&#36827;&#34892;&#31867;&#30340;&#21152;&#36733;_3. &#20998;&#37197;&#20869;&#23384;&#31354;&#38388;"><path d="M415.44,61.2869 C419.95,61.2869 424.46,61.2869 428.97,61.2869 " fill="none" id="2. &#26410;&#21152;&#36733;&#36807;&#35813;&#31867;&#65292;&#21017;&#36827;&#34892;&#31867;&#30340;&#21152;&#36733;-to-3. &#20998;&#37197;&#20869;&#23384;&#31354;&#38388;" style="stroke:#181818;stroke-width:1.0;"/><polygon fill="#181818" points="433.69,61.2869,424.69,57.2869,428.69,61.2869,424.69,65.2869,433.69,61.2869" style="stroke:#181818;stroke-width:1.0;"/></g><!--link 3. ?????? to 4. ??????????--><g id="link_3. &#20998;&#37197;&#20869;&#23384;&#31354;&#38388;_4. &#21021;&#22987;&#21270;&#20869;&#23384;&#31354;&#38388;&#20026;&#38646;&#20540;"><path d="M489,78.6169 C489,88.5569 489,101.3769 489,112.2069 " fill="none" id="3. &#20998;&#37197;&#20869;&#23384;&#31354;&#38388;-to-4. &#21021;&#22987;&#21270;&#20869;&#23384;&#31354;&#38388;&#20026;&#38646;&#20540;" style="stroke:#181818;stroke-width:1.0;"/><polygon fill="#181818" points="489,116.9869,493,107.9869,489,111.9869,485,107.9869,489,116.9869" style="stroke:#181818;stroke-width:1.0;"/></g><!--reverse link 5. ??????? to 4. ??????????--><g id="link_5. &#35774;&#32622;&#24517;&#35201;&#30340;&#20449;&#24687;_4. &#21021;&#22987;&#21270;&#20869;&#23384;&#31354;&#38388;&#20026;&#38646;&#20540;"><path d="M397.44,135.2569 C401.8,135.2569 406.17,135.2569 410.53,135.2569 " fill="none" id="5. &#35774;&#32622;&#24517;&#35201;&#30340;&#20449;&#24687;-backto-4. &#21021;&#22987;&#21270;&#20869;&#23384;&#31354;&#38388;&#20026;&#38646;&#20540;" style="stroke:#181818;stroke-width:1.0;"/><polygon fill="#181818" points="392.48,135.2569,401.48,139.2569,397.48,135.2569,401.48,131.2569,392.48,135.2569" style="stroke:#181818;stroke-width:1.0;"/></g><!--reverse link 6. ??????? to 5. ???????--><g id="link_6. &#25191;&#34892;&#26500;&#36896;&#22120;&#26041;&#27861;_5. &#35774;&#32622;&#24517;&#35201;&#30340;&#20449;&#24687;"><path d="M257.15,135.2569 C261.67,135.2569 266.18,135.2569 270.7,135.2569 " fill="none" id="6. &#25191;&#34892;&#26500;&#36896;&#22120;&#26041;&#27861;-backto-5. &#35774;&#32622;&#24517;&#35201;&#30340;&#20449;&#24687;" style="stroke:#181818;stroke-width:1.0;"/><polygon fill="#181818" points="252.43,135.2569,261.43,139.2569,257.43,135.2569,261.43,131.2569,252.43,135.2569" style="stroke:#181818;stroke-width:1.0;"/></g><!--reverse link end to 6. ???????--><g id="link_end_6. &#25191;&#34892;&#26500;&#36896;&#22120;&#26041;&#27861;"><path d="M116.93,135.2569 C121.46,135.2569 125.99,135.2569 130.52,135.2569 " fill="none" id="end-backto-6. &#25191;&#34892;&#26500;&#36896;&#22120;&#26041;&#27861;" style="stroke:#181818;stroke-width:1.0;"/><polygon fill="#181818" points="112.2,135.2569,121.2,139.2569,117.2,135.2569,121.2,131.2569,112.2,135.2569" style="stroke:#181818;stroke-width:1.0;"/></g><!--SRC=[JO_B3i5G48RtdkB42eachajFemk9M8Z4LfEMefPA5T44HK894RtfotHEJrTUmQcIM4w-xv_vfrLhrLa4XaakMZ3ZGLJ1jXAfJ1fbczaAIkOOr63RMEhvzZg6M3x7UZ8HAta6uVa11YlYkiJh4MCJNEoN8u6e44ybcaJ7QFL7-8KA30An6meZw0fmd0PxAvpSAAn6i1Z11UX3aEH_xZ-iKBr3nw5YFH9B32AdP-2Um1F8bgDNV4_3dF7ZPLgjhzCAUCc7dHKeEooR-3h-Slhc6m00]--></g></svg>