<?xml version="1.0" encoding="us-ascii" standalone="no"?><svg xmlns="http://www.w3.org/2000/svg" xmlns:xlink="http://www.w3.org/1999/xlink" contentStyleType="text/css" height="429px" preserveAspectRatio="none" style="width:1498px;height:429px;background:#FFFFFF;" version="1.1" viewBox="0 0 1498 429" width="1498px" zoomAndPan="magnify"><defs/><g><text fill="#000000" font-family="sans-serif" font-size="14" font-weight="bold" lengthAdjust="spacing" textLength="296" x="594" y="22.9951">DispatcherServlet#getHandler&#28041;&#21450;&#30340;&#31867;</text><!--class HandlerMapping--><g id="elem_HandlerMapping"><rect codeLine="2" fill="#F1F1F1" height="64.2969" id="HandlerMapping" rx="2.5" ry="2.5" style="stroke:#181818;stroke-width:0.5;" width="411" x="453" y="241.9269"/><ellipse cx="598.25" cy="257.9269" fill="#B4A7E5" rx="11" ry="11" style="stroke:#181818;stroke-width:1.0;"/><path d="M594.1719,253.6925 L594.1719,251.5363 L601.5625,251.5363 L601.5625,253.6925 L599.0938,253.6925 L599.0938,261.7706 L601.5625,261.7706 L601.5625,263.9269 L594.1719,263.9269 L594.1719,261.7706 L596.6406,261.7706 L596.6406,253.6925 L594.1719,253.6925 Z " fill="#000000"/><text fill="#000000" font-family="sans-serif" font-size="14" font-style="italic" lengthAdjust="spacing" textLength="112" x="618.75" y="262.7736">HandlerMapping</text><line style="stroke:#181818;stroke-width:0.5;" x1="454" x2="863" y1="273.9269" y2="273.9269"/><line style="stroke:#181818;stroke-width:0.5;" x1="454" x2="863" y1="281.9269" y2="281.9269"/><ellipse cx="464" cy="295.5753" fill="#84BE84" rx="3" ry="3" style="stroke:#038048;stroke-width:1.0;"/><text fill="#000000" font-family="sans-serif" font-size="14" lengthAdjust="spacing" textLength="385" x="473" y="298.922">getHandler(HttpServletRequest) HandlerExecutionChain</text></g><!--class HandlerExecutionChain--><g id="elem_HandlerExecutionChain"><rect codeLine="6" fill="#F1F1F1" height="129.4844" id="HandlerExecutionChain" rx="2.5" ry="2.5" style="stroke:#181818;stroke-width:0.5;" width="553" x="382" y="44.2969"/><ellipse cx="574.25" cy="60.2969" fill="#ADD1B2" rx="11" ry="11" style="stroke:#181818;stroke-width:1.0;"/><path d="M577.2188,65.9375 Q576.6406,66.2344 576,66.375 Q575.3594,66.5313 574.6563,66.5313 Q572.1563,66.5313 570.8281,64.8906 Q569.5156,63.2344 569.5156,60.1094 Q569.5156,56.9844 570.8281,55.3281 Q572.1563,53.6719 574.6563,53.6719 Q575.3594,53.6719 576,53.8281 Q576.6563,53.9844 577.2188,54.2813 L577.2188,57 Q576.5938,56.4219 576,56.1563 Q575.4063,55.875 574.7813,55.875 Q573.4375,55.875 572.75,56.9531 Q572.0625,58.0156 572.0625,60.1094 Q572.0625,62.2031 572.75,63.2813 Q573.4375,64.3438 574.7813,64.3438 Q575.4063,64.3438 576,64.0781 Q576.5938,63.7969 577.2188,63.2188 L577.2188,65.9375 Z " fill="#000000"/><text fill="#000000" font-family="sans-serif" font-size="14" lengthAdjust="spacing" textLength="160" x="594.75" y="65.1436">HandlerExecutionChain</text><line style="stroke:#181818;stroke-width:0.5;" x1="383" x2="934" y1="76.2969" y2="76.2969"/><rect fill="none" height="6" style="stroke:#C82930;stroke-width:1.0;" width="6" x="390" y="86.9453"/><text fill="#000000" font-family="sans-serif" font-size="14" lengthAdjust="spacing" textLength="101" x="402" y="93.292">Object handler</text><rect fill="none" height="6" style="stroke:#C82930;stroke-width:1.0;" width="6" x="390" y="103.2422"/><text fill="#000000" font-family="sans-serif" font-size="14" lengthAdjust="spacing" textLength="279" x="402" y="109.5889">List&lt;HandlerInterceptor&gt; interceptorList</text><line style="stroke:#181818;stroke-width:0.5;" x1="383" x2="934" y1="116.8906" y2="116.8906"/><text fill="#000000" font-family="sans-serif" font-size="14" lengthAdjust="spacing" textLength="520" x="388" y="133.8857">applyPreHandle(HttpServletRequest, HttpServletResponse, Object) boolean</text><text fill="#000000" font-family="sans-serif" font-size="14" lengthAdjust="spacing" textLength="500" x="388" y="150.1826">applyPostHandle(HttpServletRequest, HttpServletResponse, Object) void</text><text fill="#000000" font-family="sans-serif" font-size="14" lengthAdjust="spacing" textLength="541" x="388" y="166.4795">triggerAfterCompletion(HttpServletRequest, HttpServletResponse, Object) void</text></g><!--class HandlerInterceptor--><g id="elem_HandlerInterceptor"><rect codeLine="14" fill="#F1F1F1" height="96.8906" id="HandlerInterceptor" rx="2.5" ry="2.5" style="stroke:#181818;stroke-width:0.5;" width="521" x="970" y="60.5969"/><ellipse cx="1161.75" cy="76.5969" fill="#B4A7E5" rx="11" ry="11" style="stroke:#181818;stroke-width:1.0;"/><path d="M1157.6719,72.3625 L1157.6719,70.2063 L1165.0625,70.2063 L1165.0625,72.3625 L1162.5938,72.3625 L1162.5938,80.4406 L1165.0625,80.4406 L1165.0625,82.5969 L1157.6719,82.5969 L1157.6719,80.4406 L1160.1406,80.4406 L1160.1406,72.3625 L1157.6719,72.3625 Z " fill="#000000"/><text fill="#000000" font-family="sans-serif" font-size="14" font-style="italic" lengthAdjust="spacing" textLength="129" x="1182.25" y="81.4436">HandlerInterceptor</text><line style="stroke:#181818;stroke-width:0.5;" x1="971" x2="1490" y1="92.5969" y2="92.5969"/><line style="stroke:#181818;stroke-width:0.5;" x1="971" x2="1490" y1="100.5969" y2="100.5969"/><ellipse cx="981" cy="114.2453" fill="#84BE84" rx="3" ry="3" style="stroke:#038048;stroke-width:1.0;"/><text fill="#000000" font-family="sans-serif" font-size="14" lengthAdjust="spacing" textLength="484" x="990" y="117.592">preHandle(HttpServletRequest, HttpServletResponse, Object) boolean</text><ellipse cx="981" cy="130.5422" fill="#84BE84" rx="3" ry="3" style="stroke:#038048;stroke-width:1.0;"/><text fill="#000000" font-family="sans-serif" font-size="14" lengthAdjust="spacing" textLength="464" x="990" y="133.8889">postHandle(HttpServletRequest, HttpServletResponse, Object) void</text><ellipse cx="981" cy="146.8391" fill="#84BE84" rx="3" ry="3" style="stroke:#038048;stroke-width:1.0;"/><text fill="#000000" font-family="sans-serif" font-size="14" lengthAdjust="spacing" textLength="495" x="990" y="150.1857">afterCompletion(HttpServletRequest, HttpServletResponse, Object) void</text></g><!--class RequestMappingHandlerMapping--><g id="elem_RequestMappingHandlerMapping"><rect fill="#F1F1F1" height="48" id="RequestMappingHandlerMapping" rx="2.5" ry="2.5" style="stroke:#181818;stroke-width:0.5;" width="262" x="242.5" y="374.3769"/><ellipse cx="257.5" cy="390.3769" fill="#ADD1B2" rx="11" ry="11" style="stroke:#181818;stroke-width:1.0;"/><path d="M260.4688,396.0175 Q259.8906,396.3144 259.25,396.455 Q258.6094,396.6113 257.9063,396.6113 Q255.4063,396.6113 254.0781,394.9706 Q252.7656,393.3144 252.7656,390.1894 Q252.7656,387.0644 254.0781,385.4081 Q255.4063,383.7519 257.9063,383.7519 Q258.6094,383.7519 259.25,383.9081 Q259.9063,384.0644 260.4688,384.3613 L260.4688,387.08 Q259.8438,386.5019 259.25,386.2363 Q258.6563,385.955 258.0313,385.955 Q256.6875,385.955 256,387.0331 Q255.3125,388.0956 255.3125,390.1894 Q255.3125,392.2831 256,393.3613 Q256.6875,394.4238 258.0313,394.4238 Q258.6563,394.4238 259.25,394.1581 Q259.8438,393.8769 260.4688,393.2988 L260.4688,396.0175 Z " fill="#000000"/><text fill="#000000" font-family="sans-serif" font-size="14" lengthAdjust="spacing" textLength="230" x="271.5" y="395.2236">RequestMappingHandlerMapping</text><line style="stroke:#181818;stroke-width:0.5;" x1="243.5" x2="503.5" y1="406.3769" y2="406.3769"/><line style="stroke:#181818;stroke-width:0.5;" x1="243.5" x2="503.5" y1="414.3769" y2="414.3769"/></g><!--class BeanNameUrlHandlerMapping--><g id="elem_BeanNameUrlHandlerMapping"><rect fill="#F1F1F1" height="48" id="BeanNameUrlHandlerMapping" rx="2.5" ry="2.5" style="stroke:#181818;stroke-width:0.5;" width="238" x="539.5" y="374.3769"/><ellipse cx="554.5" cy="390.3769" fill="#ADD1B2" rx="11" ry="11" style="stroke:#181818;stroke-width:1.0;"/><path d="M557.4688,396.0175 Q556.8906,396.3144 556.25,396.455 Q555.6094,396.6113 554.9063,396.6113 Q552.4063,396.6113 551.0781,394.9706 Q549.7656,393.3144 549.7656,390.1894 Q549.7656,387.0644 551.0781,385.4081 Q552.4063,383.7519 554.9063,383.7519 Q555.6094,383.7519 556.25,383.9081 Q556.9063,384.0644 557.4688,384.3613 L557.4688,387.08 Q556.8438,386.5019 556.25,386.2363 Q555.6563,385.955 555.0313,385.955 Q553.6875,385.955 553,387.0331 Q552.3125,388.0956 552.3125,390.1894 Q552.3125,392.2831 553,393.3613 Q553.6875,394.4238 555.0313,394.4238 Q555.6563,394.4238 556.25,394.1581 Q556.8438,393.8769 557.4688,393.2988 L557.4688,396.0175 Z " fill="#000000"/><text fill="#000000" font-family="sans-serif" font-size="14" lengthAdjust="spacing" textLength="206" x="568.5" y="395.2236">BeanNameUrlHandlerMapping</text><line style="stroke:#181818;stroke-width:0.5;" x1="540.5" x2="776.5" y1="406.3769" y2="406.3769"/><line style="stroke:#181818;stroke-width:0.5;" x1="540.5" x2="776.5" y1="414.3769" y2="414.3769"/></g><!--class SimpleUrlHandlerMapping--><g id="elem_SimpleUrlHandlerMapping"><rect fill="#F1F1F1" height="48" id="SimpleUrlHandlerMapping" rx="2.5" ry="2.5" style="stroke:#181818;stroke-width:0.5;" width="208" x="812.5" y="374.3769"/><ellipse cx="827.5" cy="390.3769" fill="#ADD1B2" rx="11" ry="11" style="stroke:#181818;stroke-width:1.0;"/><path d="M830.4688,396.0175 Q829.8906,396.3144 829.25,396.455 Q828.6094,396.6113 827.9063,396.6113 Q825.4063,396.6113 824.0781,394.9706 Q822.7656,393.3144 822.7656,390.1894 Q822.7656,387.0644 824.0781,385.4081 Q825.4063,383.7519 827.9063,383.7519 Q828.6094,383.7519 829.25,383.9081 Q829.9063,384.0644 830.4688,384.3613 L830.4688,387.08 Q829.8438,386.5019 829.25,386.2363 Q828.6563,385.955 828.0313,385.955 Q826.6875,385.955 826,387.0331 Q825.3125,388.0956 825.3125,390.1894 Q825.3125,392.2831 826,393.3613 Q826.6875,394.4238 828.0313,394.4238 Q828.6563,394.4238 829.25,394.1581 Q829.8438,393.8769 830.4688,393.2988 L830.4688,396.0175 Z " fill="#000000"/><text fill="#000000" font-family="sans-serif" font-size="14" lengthAdjust="spacing" textLength="176" x="841.5" y="395.2236">SimpleUrlHandlerMapping</text><line style="stroke:#181818;stroke-width:0.5;" x1="813.5" x2="1019.5" y1="406.3769" y2="406.3769"/><line style="stroke:#181818;stroke-width:0.5;" x1="813.5" x2="1019.5" y1="414.3769" y2="414.3769"/></g><!--class DispatcherServlet--><g id="elem_DispatcherServlet"><rect codeLine="26" fill="#F1F1F1" height="80.5938" id="DispatcherServlet" rx="2.5" ry="2.5" style="stroke:#181818;stroke-width:0.5;" width="411" x="7" y="233.7869"/><ellipse cx="147.25" cy="249.7869" fill="#ADD1B2" rx="11" ry="11" style="stroke:#181818;stroke-width:1.0;"/><path d="M150.2188,255.4275 Q149.6406,255.7244 149,255.865 Q148.3594,256.0213 147.6563,256.0213 Q145.1563,256.0213 143.8281,254.3806 Q142.5156,252.7244 142.5156,249.5994 Q142.5156,246.4744 143.8281,244.8181 Q145.1563,243.1619 147.6563,243.1619 Q148.3594,243.1619 149,243.3181 Q149.6563,243.4744 150.2188,243.7713 L150.2188,246.49 Q149.5938,245.9119 149,245.6463 Q148.4063,245.365 147.7813,245.365 Q146.4375,245.365 145.75,246.4431 Q145.0625,247.5056 145.0625,249.5994 Q145.0625,251.6931 145.75,252.7713 Q146.4375,253.8338 147.7813,253.8338 Q148.4063,253.8338 149,253.5681 Q149.5938,253.2869 150.2188,252.7088 L150.2188,255.4275 Z " fill="#000000"/><text fill="#000000" font-family="sans-serif" font-size="14" lengthAdjust="spacing" textLength="122" x="167.75" y="254.6336">DispatcherServlet</text><line style="stroke:#181818;stroke-width:0.5;" x1="8" x2="417" y1="265.7869" y2="265.7869"/><rect fill="none" height="6" style="stroke:#C82930;stroke-width:1.0;" width="6" x="15" y="276.4353"/><text fill="#000000" font-family="sans-serif" font-size="14" lengthAdjust="spacing" textLength="282" x="27" y="282.782">List&lt;HandlerMapping&gt; handlerMappings</text><line style="stroke:#181818;stroke-width:0.5;" x1="8" x2="417" y1="290.0838" y2="290.0838"/><ellipse cx="18" cy="303.7322" fill="#84BE84" rx="3" ry="3" style="stroke:#038048;stroke-width:1.0;"/><text fill="#000000" font-family="sans-serif" font-size="14" lengthAdjust="spacing" textLength="385" x="27" y="307.0789">getHandler(HttpServletRequest) HandlerExecutionChain</text></g><!--reverse link HandlerMapping to RequestMappingHandlerMapping--><g id="link_HandlerMapping_RequestMappingHandlerMapping"><path codeLine="20" d="M565.82,314.8469 C520.34,334.3669 467.1,357.2069 428.19,373.9069 " fill="none" id="HandlerMapping-backto-RequestMappingHandlerMapping" style="stroke:#181818;stroke-width:1.0;stroke-dasharray:7.0,7.0;"/><polygon fill="none" points="562.97,308.0269,584.11,306.5769,568.49,320.8969,562.97,308.0269" style="stroke:#181818;stroke-width:1.0;"/></g><!--reverse link HandlerMapping to BeanNameUrlHandlerMapping--><g id="link_HandlerMapping_BeanNameUrlHandlerMapping"><path codeLine="21" d="M658.5,327.4469 C658.5,343.7369 658.5,360.8669 658.5,374.0969 " fill="none" id="HandlerMapping-backto-BeanNameUrlHandlerMapping" style="stroke:#181818;stroke-width:1.0;stroke-dasharray:7.0,7.0;"/><polygon fill="none" points="651.5,327.5769,658.5,307.5769,665.5,327.5769,651.5,327.5769" style="stroke:#181818;stroke-width:1.0;"/></g><!--reverse link HandlerMapping to SimpleUrlHandlerMapping--><g id="link_HandlerMapping_SimpleUrlHandlerMapping"><path codeLine="22" d="M743.78,315.5069 C784.65,334.8769 832.16,357.3969 866.99,373.9069 " fill="none" id="HandlerMapping-backto-SimpleUrlHandlerMapping" style="stroke:#181818;stroke-width:1.0;stroke-dasharray:7.0,7.0;"/><polygon fill="none" points="741.02,321.4669,725.94,306.5769,747.01,308.8169,741.02,321.4669" style="stroke:#181818;stroke-width:1.0;"/></g><!--reverse link HandlerExecutionChain to HandlerMapping--><g id="link_HandlerExecutionChain_HandlerMapping"><path codeLine="23" d="M658.5,179.7569 C658.5,201.2969 658.5,223.9669 658.5,241.5669 " fill="none" id="HandlerExecutionChain-backto-HandlerMapping" style="stroke:#181818;stroke-width:1.0;stroke-dasharray:7.0,7.0;"/><polygon fill="#181818" points="658.5,175.0069,654.5,184.0069,658.5,180.0069,662.5,184.0069,658.5,175.0069" style="stroke:#181818;stroke-width:1.0;"/></g><!--reverse link HandlerExecutionChain to HandlerInterceptor--><g id="link_HandlerExecutionChain_HandlerInterceptor"><path codeLine="24" d="M949.22,109.0369 C956.01,109.0369 962.8,109.0369 969.59,109.0369 " fill="none" id="HandlerExecutionChain-backto-HandlerInterceptor" style="stroke:#181818;stroke-width:1.0;"/><polygon fill="#181818" points="936.28,109.0369,942.28,113.0369,948.28,109.0369,942.28,105.0369,936.28,109.0369" style="stroke:#181818;stroke-width:1.0;"/><text fill="#000000" font-family="sans-serif" font-size="13" lengthAdjust="spacing" textLength="8" x="942.7382" y="105.9063">1</text><text fill="#000000" font-family="sans-serif" font-size="13" lengthAdjust="spacing" textLength="8" x="953.7255" y="105.8829">n</text></g><!--reverse link DispatcherServlet to HandlerMapping--><g id="link_DispatcherServlet_HandlerMapping"><path codeLine="30" d="M431.92,274.0769 C438.89,274.0769 445.86,274.0769 452.83,274.0769 " fill="none" id="DispatcherServlet-backto-HandlerMapping" style="stroke:#181818;stroke-width:1.0;"/><polygon fill="#181818" points="419.08,274.0769,425.08,278.0769,431.08,274.0769,425.08,270.0769,419.08,274.0769" style="stroke:#181818;stroke-width:1.0;"/><text fill="#000000" font-family="sans-serif" font-size="13" lengthAdjust="spacing" textLength="8" x="426.2667" y="270.8531">1</text><text fill="#000000" font-family="sans-serif" font-size="13" lengthAdjust="spacing" textLength="8" x="437.295" y="270.8767">n</text></g><!--SRC=[hLFBJiCm43pNNs652wLD9Uue4XIa8l4I5H_Wfjl4oBMDlQb0m8qBNBZp5rouz7kWlu6ZE6ffWbIrFTgUdPtnxY170VIOMyqmJi7qmKm4u4u2s6DoAC3yVBr-lx_DFbvcdrF29O8PiHYeVprdMdEPq4VIQD5vqMuFKNkkQxZBm6ApB3cvXpX3hcGtPLoIPq9YmQojVyw9Gtevk8KOQLeWyfipRl70LvpcecBGg4n4-VoGOqZ32HGFLmOAS8smDlrpPxMI5jg-PvCEb1B0P4caBAxBD55yI1feU9A0EHmvdLqrrWxgpAx9vZwlCfA5xoZ6ehTWth5ixBn5sRPCUxJVlgLTx6ITfsXfGScHit71nd1Zn2hmFiz5hWYkOg9_bhr-nuFzWEw59gI136gcM0Qaaj8Y78jHy1AYCYh-R3T8PxLhdLpVw1S0]--></g></svg>