<?xml version="1.0" encoding="us-ascii" standalone="no"?><svg xmlns="http://www.w3.org/2000/svg" xmlns:xlink="http://www.w3.org/1999/xlink" contentStyleType="text/css" height="316px" preserveAspectRatio="none" style="width:1371px;height:316px;background:#FFFFFF;" version="1.1" viewBox="0 0 1371 316" width="1371px" zoomAndPan="magnify"><defs/><g><!--class SpringApplicationRunListener--><g id="elem_SpringApplicationRunListener"><rect codeLine="1" fill="#F1F1F1" height="162.0781" id="SpringApplicationRunListener" rx="2.5" ry="2.5" style="stroke:#181818;stroke-width:0.5;" width="609" x="755" y="23.29"/><ellipse cx="954.25" cy="39.29" fill="#B4A7E5" rx="11" ry="11" style="stroke:#181818;stroke-width:1.0;"/><path d="M950.1719,35.0556 L950.1719,32.8994 L957.5625,32.8994 L957.5625,35.0556 L955.0938,35.0556 L955.0938,43.1338 L957.5625,43.1338 L957.5625,45.29 L950.1719,45.29 L950.1719,43.1338 L952.6406,43.1338 L952.6406,35.0556 L950.1719,35.0556 Z " fill="#000000"/><text fill="#000000" font-family="sans-serif" font-size="14" font-style="italic" lengthAdjust="spacing" textLength="202" x="974.75" y="44.1367">SpringApplicationRunListener</text><line style="stroke:#181818;stroke-width:0.5;" x1="756" x2="1363" y1="55.29" y2="55.29"/><line style="stroke:#181818;stroke-width:0.5;" x1="756" x2="1363" y1="63.29" y2="63.29"/><ellipse cx="766" cy="76.9384" fill="#84BE84" rx="3" ry="3" style="stroke:#038048;stroke-width:1.0;"/><text fill="#000000" font-family="sans-serif" font-size="14" lengthAdjust="spacing" textLength="303" x="775" y="80.2851">starting(ConfigurableBootstrapContext) void</text><ellipse cx="766" cy="93.2353" fill="#84BE84" rx="3" ry="3" style="stroke:#038048;stroke-width:1.0;"/><text fill="#000000" font-family="sans-serif" font-size="14" lengthAdjust="spacing" textLength="583" x="775" y="96.582">environmentPrepared(ConfigurableBootstrapContext, ConfigurableEnvironment) void</text><ellipse cx="766" cy="109.5322" fill="#84BE84" rx="3" ry="3" style="stroke:#038048;stroke-width:1.0;"/><text fill="#000000" font-family="sans-serif" font-size="14" lengthAdjust="spacing" textLength="373" x="775" y="112.8789">contextPrepared(ConfigurableApplicationContext) void</text><ellipse cx="766" cy="125.8291" fill="#84BE84" rx="3" ry="3" style="stroke:#038048;stroke-width:1.0;"/><text fill="#000000" font-family="sans-serif" font-size="14" lengthAdjust="spacing" textLength="361" x="775" y="129.1757">contextLoaded(ConfigurableApplicationContext) void</text><ellipse cx="766" cy="142.1259" fill="#84BE84" rx="3" ry="3" style="stroke:#038048;stroke-width:1.0;"/><text fill="#000000" font-family="sans-serif" font-size="14" lengthAdjust="spacing" textLength="374" x="775" y="145.4726">started(ConfigurableApplicationContext, Duration) void</text><ellipse cx="766" cy="158.4228" fill="#84BE84" rx="3" ry="3" style="stroke:#038048;stroke-width:1.0;"/><text fill="#000000" font-family="sans-serif" font-size="14" lengthAdjust="spacing" textLength="363" x="775" y="161.7695">ready(ConfigurableApplicationContext, Duration) void</text><ellipse cx="766" cy="174.7197" fill="#84BE84" rx="3" ry="3" style="stroke:#038048;stroke-width:1.0;"/><text fill="#000000" font-family="sans-serif" font-size="14" lengthAdjust="spacing" textLength="374" x="775" y="178.0664">failed(ConfigurableApplicationContext, Throwable) void</text></g><!--class EventPublishingRunListener--><g id="elem_EventPublishingRunListener"><rect codeLine="10" fill="#F1F1F1" height="48" id="EventPublishingRunListener" rx="2.5" ry="2.5" style="stroke:#181818;stroke-width:0.5;" width="225" x="947" y="261.67"/><ellipse cx="962" cy="277.67" fill="#ADD1B2" rx="11" ry="11" style="stroke:#181818;stroke-width:1.0;"/><path d="M964.9688,283.3106 Q964.3906,283.6075 963.75,283.7481 Q963.1094,283.9044 962.4063,283.9044 Q959.9063,283.9044 958.5781,282.2638 Q957.2656,280.6075 957.2656,277.4825 Q957.2656,274.3575 958.5781,272.7013 Q959.9063,271.045 962.4063,271.045 Q963.1094,271.045 963.75,271.2013 Q964.4063,271.3575 964.9688,271.6544 L964.9688,274.3731 Q964.3438,273.795 963.75,273.5294 Q963.1563,273.2481 962.5313,273.2481 Q961.1875,273.2481 960.5,274.3263 Q959.8125,275.3888 959.8125,277.4825 Q959.8125,279.5763 960.5,280.6544 Q961.1875,281.7169 962.5313,281.7169 Q963.1563,281.7169 963.75,281.4513 Q964.3438,281.17 964.9688,280.5919 L964.9688,283.3106 Z " fill="#000000"/><text fill="#000000" font-family="sans-serif" font-size="14" lengthAdjust="spacing" textLength="193" x="976" y="282.5167">EventPublishingRunListener</text><line style="stroke:#181818;stroke-width:0.5;" x1="948" x2="1171" y1="293.67" y2="293.67"/><line style="stroke:#181818;stroke-width:0.5;" x1="948" x2="1171" y1="301.67" y2="301.67"/></g><!--class SpringApplicationRunListeners--><g id="elem_SpringApplicationRunListeners"><rect codeLine="13" fill="#F1F1F1" height="194.6719" id="SpringApplicationRunListeners" rx="2.5" ry="2.5" style="stroke:#181818;stroke-width:0.5;" width="711" x="9" y="7"/><ellipse cx="255.25" cy="23" fill="#ADD1B2" rx="11" ry="11" style="stroke:#181818;stroke-width:1.0;"/><path d="M258.2188,28.6406 Q257.6406,28.9375 257,29.0781 Q256.3594,29.2344 255.6563,29.2344 Q253.1563,29.2344 251.8281,27.5938 Q250.5156,25.9375 250.5156,22.8125 Q250.5156,19.6875 251.8281,18.0313 Q253.1563,16.375 255.6563,16.375 Q256.3594,16.375 257,16.5313 Q257.6563,16.6875 258.2188,16.9844 L258.2188,19.7031 Q257.5938,19.125 257,18.8594 Q256.4063,18.5781 255.7813,18.5781 Q254.4375,18.5781 253.75,19.6563 Q253.0625,20.7188 253.0625,22.8125 Q253.0625,24.9063 253.75,25.9844 Q254.4375,27.0469 255.7813,27.0469 Q256.4063,27.0469 257,26.7813 Q257.5938,26.5 258.2188,25.9219 L258.2188,28.6406 Z " fill="#000000"/><text fill="#000000" font-family="sans-serif" font-size="14" lengthAdjust="spacing" textLength="210" x="275.75" y="27.8467">SpringApplicationRunListeners</text><line style="stroke:#181818;stroke-width:0.5;" x1="10" x2="719" y1="39" y2="39"/><text fill="#000000" font-family="sans-serif" font-size="14" lengthAdjust="spacing" textLength="312" x="15" y="55.9951">List&lt;SpringApplicationRunListener&gt; listeners</text><line style="stroke:#181818;stroke-width:0.5;" x1="10" x2="719" y1="63.2969" y2="63.2969"/><polygon fill="#4177AF" points="20,72.9453,16,78.9453,24,78.9453" style="stroke:#1963A0;stroke-width:1.0;"/><text fill="#000000" font-family="sans-serif" font-size="14" lengthAdjust="spacing" textLength="379" x="29" y="80.292">starting(ConfigurableBootstrapContext, Class&lt;?&gt;) void</text><polygon fill="#4177AF" points="20,89.2422,16,95.2422,24,95.2422" style="stroke:#1963A0;stroke-width:1.0;"/><text fill="#000000" font-family="sans-serif" font-size="14" lengthAdjust="spacing" textLength="583" x="29" y="96.5889">environmentPrepared(ConfigurableBootstrapContext, ConfigurableEnvironment) void</text><polygon fill="#4177AF" points="20,105.5391,16,111.5391,24,111.5391" style="stroke:#1963A0;stroke-width:1.0;"/><text fill="#000000" font-family="sans-serif" font-size="14" lengthAdjust="spacing" textLength="373" x="29" y="112.8857">contextPrepared(ConfigurableApplicationContext) void</text><polygon fill="#4177AF" points="20,121.8359,16,127.8359,24,127.8359" style="stroke:#1963A0;stroke-width:1.0;"/><text fill="#000000" font-family="sans-serif" font-size="14" lengthAdjust="spacing" textLength="361" x="29" y="129.1826">contextLoaded(ConfigurableApplicationContext) void</text><polygon fill="#4177AF" points="20,138.1328,16,144.1328,24,144.1328" style="stroke:#1963A0;stroke-width:1.0;"/><text fill="#000000" font-family="sans-serif" font-size="14" lengthAdjust="spacing" textLength="374" x="29" y="145.4795">started(ConfigurableApplicationContext, Duration) void</text><polygon fill="#4177AF" points="20,154.4297,16,160.4297,24,160.4297" style="stroke:#1963A0;stroke-width:1.0;"/><text fill="#000000" font-family="sans-serif" font-size="14" lengthAdjust="spacing" textLength="363" x="29" y="161.7764">ready(ConfigurableApplicationContext, Duration) void</text><polygon fill="#4177AF" points="20,170.7266,16,176.7266,24,176.7266" style="stroke:#1963A0;stroke-width:1.0;"/><text fill="#000000" font-family="sans-serif" font-size="14" lengthAdjust="spacing" textLength="374" x="29" y="178.0732">failed(ConfigurableApplicationContext, Throwable) void</text><rect fill="#F24D5C" height="6" style="stroke:#C82930;stroke-width:1.0;" width="6" x="17" y="188.0234"/><text fill="#000000" font-family="sans-serif" font-size="14" lengthAdjust="spacing" textLength="685" x="29" y="194.3701">doWithListeners(String, Consumer&lt;SpringApplicationRunListener&gt;, Consumer&lt;StartupStep&gt;) void</text></g><!--reverse link SpringApplicationRunListener to EventPublishingRunListener--><g id="link_SpringApplicationRunListener_EventPublishingRunListener"><path codeLine="24" d="M1059.5,206.55 C1059.5,227.16 1059.5,246.95 1059.5,261.45 " fill="none" id="SpringApplicationRunListener-backto-EventPublishingRunListener" style="stroke:#181818;stroke-width:1.0;stroke-dasharray:7.0,7.0;"/><polygon fill="none" points="1052.5,206.82,1059.5,186.82,1066.5,206.82,1052.5,206.82" style="stroke:#181818;stroke-width:1.0;"/></g><!--reverse link SpringApplicationRunListeners to SpringApplicationRunListener--><g id="link_SpringApplicationRunListeners_SpringApplicationRunListener"><path codeLine="25" d="M734.34,104.33 C741.09,104.33 747.84,104.33 754.58,104.33 " fill="none" id="SpringApplicationRunListeners-backto-SpringApplicationRunListener" style="stroke:#181818;stroke-width:1.0;stroke-dasharray:7.0,7.0;"/><polygon fill="#181818" points="721.48,104.33,727.48,108.33,733.48,104.33,727.48,100.33,721.48,104.33" style="stroke:#181818;stroke-width:1.0;"/><text fill="#000000" font-family="sans-serif" font-size="13" lengthAdjust="spacing" textLength="8" x="727.7921" y="101.2458">1</text><text fill="#000000" font-family="sans-serif" font-size="13" lengthAdjust="spacing" textLength="8" x="739.3397" y="101.2227">n</text></g><!--SRC=[jPJDJiCm48JlVOfLJWLA9EvL43-zzO084cStsJIMKjjQRm88yBCJXnA2GAPOucZlpDhh-MIf6AaI1K9kIAhjXJ6DB0HBhMvRjPQMKI71ympW12mBubuqlzAgajkMnAR1IwtPCWdJRp8-yX5qMfQ37bKdIQiTAhuXD8Am35eNCAskFjsJdiMxzCT-ayj_lypUkDQY_8jjcFbNmmAk-vBVc5W9HVaKOwo4R0uuyguc_U2BU-lhh6Y4jR3g_8EtcqRQka_hQuwZAfIt7GBtgsL8ba7pOUZbxZ0- -f3z-SlpR9pO_GCfBfOK5qUAYoV5nPBYOaa1E8LItqkknyJdEVkWXuUrxGufdFnKv-TkJSveif7408DfcxvauUzc5eOpEKlWEAKK4fK46xq1]--></g></svg>