<?xml version="1.0" encoding="us-ascii" standalone="no"?><svg xmlns="http://www.w3.org/2000/svg" xmlns:xlink="http://www.w3.org/1999/xlink" contentStyleType="text/css" height="318px" preserveAspectRatio="none" style="width:368px;height:318px;background:#FFFFFF;" version="1.1" viewBox="0 0 368 318" width="368px" zoomAndPan="magnify"><defs/><g><text fill="#000000" font-family="sans-serif" font-size="14" font-weight="bold" lengthAdjust="spacing" textLength="275" x="39.75" y="22.9951">Java Collections Framework-Queue</text><!--class Queue--><g id="elem_Queue"><rect codeLine="2" fill="#F1F1F1" height="48" id="Queue" rx="2.5" ry="2.5" style="stroke:#181818;stroke-width:0.5;" width="91" x="168.5" y="47.2969"/><ellipse cx="183.5" cy="63.2969" fill="#B4A7E5" rx="11" ry="11" style="stroke:#181818;stroke-width:1.0;"/><path d="M179.4219,59.0625 L179.4219,56.9063 L186.8125,56.9063 L186.8125,59.0625 L184.3438,59.0625 L184.3438,67.1406 L186.8125,67.1406 L186.8125,69.2969 L179.4219,69.2969 L179.4219,67.1406 L181.8906,67.1406 L181.8906,59.0625 L179.4219,59.0625 Z " fill="#000000"/><text fill="#000000" font-family="sans-serif" font-size="14" font-style="italic" lengthAdjust="spacing" textLength="47" x="197.5" y="68.1436">Queue</text><rect fill="#FFFFFF" height="15.9688" style="stroke:#181818;stroke-width:1.0;stroke-dasharray:2.0,2.0;" width="10" x="252.5" y="44.2969"/><text fill="#000000" font-family="sans-serif" font-size="12" font-style="italic" lengthAdjust="spacing" textLength="8" x="253.5" y="56.4355">E</text><line style="stroke:#181818;stroke-width:0.5;" x1="169.5" x2="258.5" y1="79.2969" y2="79.2969"/><line style="stroke:#181818;stroke-width:0.5;" x1="169.5" x2="258.5" y1="87.2969" y2="87.2969"/></g><!--class Deque--><g id="elem_Deque"><rect codeLine="3" fill="#F1F1F1" height="48" id="Deque" rx="2.5" ry="2.5" style="stroke:#181818;stroke-width:0.5;" width="91" x="94.5" y="155.2969"/><ellipse cx="109.5" cy="171.2969" fill="#B4A7E5" rx="11" ry="11" style="stroke:#181818;stroke-width:1.0;"/><path d="M105.4219,167.0625 L105.4219,164.9063 L112.8125,164.9063 L112.8125,167.0625 L110.3438,167.0625 L110.3438,175.1406 L112.8125,175.1406 L112.8125,177.2969 L105.4219,177.2969 L105.4219,175.1406 L107.8906,175.1406 L107.8906,167.0625 L105.4219,167.0625 Z " fill="#000000"/><text fill="#000000" font-family="sans-serif" font-size="14" font-style="italic" lengthAdjust="spacing" textLength="47" x="123.5" y="176.1436">Deque</text><rect fill="#FFFFFF" height="15.9688" style="stroke:#181818;stroke-width:1.0;stroke-dasharray:2.0,2.0;" width="10" x="178.5" y="152.2969"/><text fill="#000000" font-family="sans-serif" font-size="12" font-style="italic" lengthAdjust="spacing" textLength="8" x="179.5" y="164.4355">E</text><line style="stroke:#181818;stroke-width:0.5;" x1="95.5" x2="184.5" y1="187.2969" y2="187.2969"/><line style="stroke:#181818;stroke-width:0.5;" x1="95.5" x2="184.5" y1="195.2969" y2="195.2969"/></g><!--class LinkedList--><g id="elem_LinkedList"><rect codeLine="4" fill="#F1F1F1" height="48" id="LinkedList" rx="2.5" ry="2.5" style="stroke:#181818;stroke-width:0.5;" width="112" x="7" y="263.2969"/><ellipse cx="22" cy="279.2969" fill="#ADD1B2" rx="11" ry="11" style="stroke:#181818;stroke-width:1.0;"/><path d="M24.9688,284.9375 Q24.3906,285.2344 23.75,285.375 Q23.1094,285.5313 22.4063,285.5313 Q19.9063,285.5313 18.5781,283.8906 Q17.2656,282.2344 17.2656,279.1094 Q17.2656,275.9844 18.5781,274.3281 Q19.9063,272.6719 22.4063,272.6719 Q23.1094,272.6719 23.75,272.8281 Q24.4063,272.9844 24.9688,273.2813 L24.9688,276 Q24.3438,275.4219 23.75,275.1563 Q23.1563,274.875 22.5313,274.875 Q21.1875,274.875 20.5,275.9531 Q19.8125,277.0156 19.8125,279.1094 Q19.8125,281.2031 20.5,282.2813 Q21.1875,283.3438 22.5313,283.3438 Q23.1563,283.3438 23.75,283.0781 Q24.3438,282.7969 24.9688,282.2188 L24.9688,284.9375 Z " fill="#000000"/><text fill="#000000" font-family="sans-serif" font-size="14" lengthAdjust="spacing" textLength="68" x="36" y="284.1436">LinkedList</text><rect fill="#FFFFFF" height="15.9688" style="stroke:#181818;stroke-width:1.0;stroke-dasharray:2.0,2.0;" width="10" x="112" y="260.2969"/><text fill="#000000" font-family="sans-serif" font-size="12" font-style="italic" lengthAdjust="spacing" textLength="8" x="113" y="272.4355">E</text><line style="stroke:#181818;stroke-width:0.5;" x1="8" x2="118" y1="295.2969" y2="295.2969"/><line style="stroke:#181818;stroke-width:0.5;" x1="8" x2="118" y1="303.2969" y2="303.2969"/></g><!--class ArrayDeque--><g id="elem_ArrayDeque"><rect codeLine="5" fill="#F1F1F1" height="48" id="ArrayDeque" rx="2.5" ry="2.5" style="stroke:#181818;stroke-width:0.5;" width="125" x="154.5" y="263.2969"/><ellipse cx="169.5" cy="279.2969" fill="#ADD1B2" rx="11" ry="11" style="stroke:#181818;stroke-width:1.0;"/><path d="M172.4688,284.9375 Q171.8906,285.2344 171.25,285.375 Q170.6094,285.5313 169.9063,285.5313 Q167.4063,285.5313 166.0781,283.8906 Q164.7656,282.2344 164.7656,279.1094 Q164.7656,275.9844 166.0781,274.3281 Q167.4063,272.6719 169.9063,272.6719 Q170.6094,272.6719 171.25,272.8281 Q171.9063,272.9844 172.4688,273.2813 L172.4688,276 Q171.8438,275.4219 171.25,275.1563 Q170.6563,274.875 170.0313,274.875 Q168.6875,274.875 168,275.9531 Q167.3125,277.0156 167.3125,279.1094 Q167.3125,281.2031 168,282.2813 Q168.6875,283.3438 170.0313,283.3438 Q170.6563,283.3438 171.25,283.0781 Q171.8438,282.7969 172.4688,282.2188 L172.4688,284.9375 Z " fill="#000000"/><text fill="#000000" font-family="sans-serif" font-size="14" lengthAdjust="spacing" textLength="81" x="183.5" y="284.1436">ArrayDeque</text><rect fill="#FFFFFF" height="15.9688" style="stroke:#181818;stroke-width:1.0;stroke-dasharray:2.0,2.0;" width="10" x="272.5" y="260.2969"/><text fill="#000000" font-family="sans-serif" font-size="12" font-style="italic" lengthAdjust="spacing" textLength="8" x="273.5" y="272.4355">E</text><line style="stroke:#181818;stroke-width:0.5;" x1="155.5" x2="278.5" y1="295.2969" y2="295.2969"/><line style="stroke:#181818;stroke-width:0.5;" x1="155.5" x2="278.5" y1="303.2969" y2="303.2969"/></g><!--class PriorityQueue--><g id="elem_PriorityQueue"><rect codeLine="6" fill="#F1F1F1" height="48" id="PriorityQueue" rx="2.5" ry="2.5" style="stroke:#181818;stroke-width:0.5;" width="137" x="220.5" y="155.2969"/><ellipse cx="235.5" cy="171.2969" fill="#ADD1B2" rx="11" ry="11" style="stroke:#181818;stroke-width:1.0;"/><path d="M238.4688,176.9375 Q237.8906,177.2344 237.25,177.375 Q236.6094,177.5313 235.9063,177.5313 Q233.4063,177.5313 232.0781,175.8906 Q230.7656,174.2344 230.7656,171.1094 Q230.7656,167.9844 232.0781,166.3281 Q233.4063,164.6719 235.9063,164.6719 Q236.6094,164.6719 237.25,164.8281 Q237.9063,164.9844 238.4688,165.2813 L238.4688,168 Q237.8438,167.4219 237.25,167.1563 Q236.6563,166.875 236.0313,166.875 Q234.6875,166.875 234,167.9531 Q233.3125,169.0156 233.3125,171.1094 Q233.3125,173.2031 234,174.2813 Q234.6875,175.3438 236.0313,175.3438 Q236.6563,175.3438 237.25,175.0781 Q237.8438,174.7969 238.4688,174.2188 L238.4688,176.9375 Z " fill="#000000"/><text fill="#000000" font-family="sans-serif" font-size="14" lengthAdjust="spacing" textLength="93" x="249.5" y="176.1436">PriorityQueue</text><rect fill="#FFFFFF" height="15.9688" style="stroke:#181818;stroke-width:1.0;stroke-dasharray:2.0,2.0;" width="10" x="350.5" y="152.2969"/><text fill="#000000" font-family="sans-serif" font-size="12" font-style="italic" lengthAdjust="spacing" textLength="8" x="351.5" y="164.4355">E</text><line style="stroke:#181818;stroke-width:0.5;" x1="221.5" x2="356.5" y1="187.2969" y2="187.2969"/><line style="stroke:#181818;stroke-width:0.5;" x1="221.5" x2="356.5" y1="195.2969" y2="195.2969"/></g><!--reverse link Queue to Deque--><g id="link_Queue_Deque"><path codeLine="8" d="M185.81,112.6869 C175.79,127.0269 164.87,142.6669 156.2,155.0869 " fill="none" id="Queue-backto-Deque" style="stroke:#181818;stroke-width:1.0;"/><polygon fill="none" points="180.57,108.9469,197.76,96.5569,192.05,116.9669,180.57,108.9469" style="stroke:#181818;stroke-width:1.0;"/></g><!--reverse link Deque to LinkedList--><g id="link_Deque_LinkedList"><path codeLine="9" d="M111.01,220.2069 C100.5,234.6769 88.98,250.5369 79.86,263.0869 " fill="none" id="Deque-backto-LinkedList" style="stroke:#181818;stroke-width:1.0;stroke-dasharray:7.0,7.0;"/><polygon fill="none" points="105.68,216.6269,123.1,204.5569,117.01,224.8569,105.68,216.6269" style="stroke:#181818;stroke-width:1.0;"/></g><!--reverse link Deque to ArrayDeque--><g id="link_Deque_ArrayDeque"><path codeLine="10" d="M168.99,220.2069 C179.5,234.6769 191.02,250.5369 200.14,263.0869 " fill="none" id="Deque-backto-ArrayDeque" style="stroke:#181818;stroke-width:1.0;stroke-dasharray:7.0,7.0;"/><polygon fill="none" points="162.99,224.8569,156.9,204.5569,174.32,216.6269,162.99,224.8569" style="stroke:#181818;stroke-width:1.0;"/></g><!--reverse link Queue to PriorityQueue--><g id="link_Queue_PriorityQueue"><path codeLine="11" d="M242.57,112.6869 C252.72,127.0269 263.79,142.6669 272.58,155.0869 " fill="none" id="Queue-backto-PriorityQueue" style="stroke:#181818;stroke-width:1.0;stroke-dasharray:7.0,7.0;"/><polygon fill="none" points="236.3,116.9269,230.46,96.5569,247.73,108.8469,236.3,116.9269" style="stroke:#181818;stroke-width:1.0;"/></g><!--SRC=[NOrH2i8m343_UufSe3l168Xk7x8FFKAe4S9gYscg33oyqebr-qjU7Y_AwWcE-43OH-_9ASUGO12yqJFAPC-PCXaEId95Hr3sjk_-q87k2t8UKuAHmqINaPDMjXF1UUETXAEmph-YAGBOR5_TyiVK5ZIv-U2Yc9fRuLNnUodp6m00]--></g></svg>