<?xml version="1.0" encoding="us-ascii" standalone="no"?><svg xmlns="http://www.w3.org/2000/svg" xmlns:xlink="http://www.w3.org/1999/xlink" contentStyleType="text/css" height="167px" preserveAspectRatio="none" style="width:714px;height:167px;background:#FFFFFF;" version="1.1" viewBox="0 0 714 167" width="714px" zoomAndPan="magnify"><defs/><g><text fill="#000000" font-family="Consolas" font-size="14" font-weight="bold" lengthAdjust="spacing" textLength="135" x="285.25" y="27.9951">Spring&#24212;&#29992;&#21019;&#24314;&#27969;&#31243;</text><ellipse cx="21" cy="67.4369" fill="#000000" rx="10" ry="10" style="stroke:none;stroke-width:1.0;"/><rect fill="#FFFFFF" height="36.2969" rx="12.5" ry="12.5" style="stroke:#000000;stroke-width:1.0;" width="131" x="50.5" y="49.2969"/><text fill="#000000" font-family="Consolas" font-size="14" lengthAdjust="spacing" textLength="111" x="60.5" y="72.292">1.&#35774;&#32622;&#36164;&#28304;&#21152;&#36733;&#22120;</text><rect fill="#FFFFFF" height="36.2969" rx="12.5" ry="12.5" style="stroke:#000000;stroke-width:1.0;" width="131" x="201.5" y="49.2969"/><text fill="#000000" font-family="Consolas" font-size="14" lengthAdjust="spacing" textLength="111" x="211.5" y="72.292">2.&#35774;&#32622;&#21021;&#22987;&#36164;&#28304;&#31867;</text><rect fill="#FFFFFF" height="36.2969" rx="12.5" ry="12.5" style="stroke:#000000;stroke-width:1.0;" width="148" x="353" y="49.2969"/><text fill="#000000" font-family="Consolas" font-size="14" lengthAdjust="spacing" textLength="128" x="363" y="72.292">3.&#25512;&#27979;Web&#24212;&#29992;&#31867;&#22411;</text><rect fill="#FFFFFF" height="36.2969" rx="12.5" ry="12.5" style="stroke:#000000;stroke-width:1.0;" width="187" x="521.5" y="49.2969"/><text fill="#000000" font-family="Consolas" font-size="14" lengthAdjust="spacing" textLength="167" x="531.5" y="72.292">4.&#35774;&#32622;&#24341;&#23548;&#19978;&#19979;&#25991;&#21021;&#22987;&#21270;&#22120;</text><rect fill="#FFFFFF" height="36.2969" rx="12.5" ry="12.5" style="stroke:#000000;stroke-width:1.0;" width="187" x="521.5" y="125.5869"/><text fill="#000000" font-family="Consolas" font-size="14" lengthAdjust="spacing" textLength="167" x="531.5" y="148.582">5.&#35774;&#32622;&#24212;&#29992;&#19978;&#19979;&#25991;&#21021;&#22987;&#21270;&#22120;</text><rect fill="#FFFFFF" height="36.2969" rx="12.5" ry="12.5" style="stroke:#000000;stroke-width:1.0;" width="131" x="370.5" y="125.5869"/><text fill="#000000" font-family="Consolas" font-size="14" lengthAdjust="spacing" textLength="111" x="380.5" y="148.582">6.&#35774;&#32622;&#24212;&#29992;&#30417;&#21548;&#22120;</text><rect fill="#FFFFFF" height="36.2969" rx="12.5" ry="12.5" style="stroke:#000000;stroke-width:1.0;" width="103" x="247.5" y="125.5869"/><text fill="#000000" font-family="Consolas" font-size="14" lengthAdjust="spacing" textLength="83" x="257.5" y="148.582">7.&#25512;&#27979;&#21551;&#21160;&#31867;</text><ellipse cx="217" cy="143.7369" fill="none" rx="10" ry="10" style="stroke:#000000;stroke-width:1.0;"/><ellipse cx="217.5" cy="144.2369" fill="#000000" rx="6" ry="6" style="stroke:none;stroke-width:1.0;"/><!--link start to 1.???????--><g id="link_start_1.&#35774;&#32622;&#36164;&#28304;&#21152;&#36733;&#22120;"><path d="M31.39,67.4369 C35.71,67.4369 40.03,67.4369 44.34,67.4369 " fill="none" id="start-to-1.&#35774;&#32622;&#36164;&#28304;&#21152;&#36733;&#22120;" style="stroke:#000000;stroke-width:1.0;"/><polygon fill="#000000" points="49.23,67.4369,40.23,63.4369,44.23,67.4369,40.23,71.4369,49.23,67.4369" style="stroke:#000000;stroke-width:1.0;"/></g><!--link 1.??????? to 2.???????--><g id="link_1.&#35774;&#32622;&#36164;&#28304;&#21152;&#36733;&#22120;_2.&#35774;&#32622;&#21021;&#22987;&#36164;&#28304;&#31867;"><path d="M181.77,67.4369 C186.29,67.4369 190.82,67.4369 195.35,67.4369 " fill="none" id="1.&#35774;&#32622;&#36164;&#28304;&#21152;&#36733;&#22120;-to-2.&#35774;&#32622;&#21021;&#22987;&#36164;&#28304;&#31867;" style="stroke:#000000;stroke-width:1.0;"/><polygon fill="#000000" points="200.08,67.4369,191.08,63.4369,195.08,67.4369,191.08,71.4369,200.08,67.4369" style="stroke:#000000;stroke-width:1.0;"/></g><!--link 2.??????? to 3.??Web????--><g id="link_2.&#35774;&#32622;&#21021;&#22987;&#36164;&#28304;&#31867;_3.&#25512;&#27979;Web&#24212;&#29992;&#31867;&#22411;"><path d="M332.94,67.4369 C337.59,67.4369 342.24,67.4369 346.89,67.4369 " fill="none" id="2.&#35774;&#32622;&#21021;&#22987;&#36164;&#28304;&#31867;-to-3.&#25512;&#27979;Web&#24212;&#29992;&#31867;&#22411;" style="stroke:#000000;stroke-width:1.0;"/><polygon fill="#000000" points="351.78,67.4369,342.78,63.4369,346.78,67.4369,342.78,71.4369,351.78,67.4369" style="stroke:#000000;stroke-width:1.0;"/></g><!--link 3.??Web???? to 4.???????????--><g id="link_3.&#25512;&#27979;Web&#24212;&#29992;&#31867;&#22411;_4.&#35774;&#32622;&#24341;&#23548;&#19978;&#19979;&#25991;&#21021;&#22987;&#21270;&#22120;"><path d="M501.17,67.4369 C505.86,67.4369 510.55,67.4369 515.24,67.4369 " fill="none" id="3.&#25512;&#27979;Web&#24212;&#29992;&#31867;&#22411;-to-4.&#35774;&#32622;&#24341;&#23548;&#19978;&#19979;&#25991;&#21021;&#22987;&#21270;&#22120;" style="stroke:#000000;stroke-width:1.0;"/><polygon fill="#000000" points="520.18,67.4369,511.18,63.4369,515.18,67.4369,511.18,71.4369,520.18,67.4369" style="stroke:#000000;stroke-width:1.0;"/></g><!--link 4.??????????? to 5.???????????--><g id="link_4.&#35774;&#32622;&#24341;&#23548;&#19978;&#19979;&#25991;&#21021;&#22987;&#21270;&#22120;_5.&#35774;&#32622;&#24212;&#29992;&#19978;&#19979;&#25991;&#21021;&#22987;&#21270;&#22120;"><path d="M615,86.0469 C615,96.0469 615,108.6769 615,119.4769 " fill="none" id="4.&#35774;&#32622;&#24341;&#23548;&#19978;&#19979;&#25991;&#21021;&#22987;&#21270;&#22120;-to-5.&#35774;&#32622;&#24212;&#29992;&#19978;&#19979;&#25991;&#21021;&#22987;&#21270;&#22120;" style="stroke:#000000;stroke-width:1.0;"/><polygon fill="#000000" points="615,124.2569,619,115.2569,615,119.2569,611,115.2569,615,124.2569" style="stroke:#000000;stroke-width:1.0;"/></g><!--reverse link 6.??????? to 5.???????????--><g id="link_6.&#35774;&#32622;&#24212;&#29992;&#30417;&#21548;&#22120;_5.&#35774;&#32622;&#24212;&#29992;&#19978;&#19979;&#25991;&#21021;&#22987;&#21270;&#22120;"><path d="M507.51,143.7369 C512.07,143.7369 516.63,143.7369 521.2,143.7369 " fill="none" id="6.&#35774;&#32622;&#24212;&#29992;&#30417;&#21548;&#22120;-backto-5.&#35774;&#32622;&#24212;&#29992;&#19978;&#19979;&#25991;&#21021;&#22987;&#21270;&#22120;" style="stroke:#000000;stroke-width:1.0;"/><polygon fill="#000000" points="502.73,143.7369,511.73,147.7369,507.73,143.7369,511.73,139.7369,502.73,143.7369" style="stroke:#000000;stroke-width:1.0;"/></g><!--reverse link 7.????? to 6.???????--><g id="link_7.&#25512;&#27979;&#21551;&#21160;&#31867;_6.&#35774;&#32622;&#24212;&#29992;&#30417;&#21548;&#22120;"><path d="M356.63,143.7369 C361.15,143.7369 365.67,143.7369 370.19,143.7369 " fill="none" id="7.&#25512;&#27979;&#21551;&#21160;&#31867;-backto-6.&#35774;&#32622;&#24212;&#29992;&#30417;&#21548;&#22120;" style="stroke:#000000;stroke-width:1.0;"/><polygon fill="#000000" points="351.91,143.7369,360.91,147.7369,356.91,143.7369,360.91,139.7369,351.91,143.7369" style="stroke:#000000;stroke-width:1.0;"/></g><!--reverse link end to 7.?????--><g id="link_end_7.&#25512;&#27979;&#21551;&#21160;&#31867;"><path d="M233.16,143.7369 C237.82,143.7369 242.49,143.7369 247.15,143.7369 " fill="none" id="end-backto-7.&#25512;&#27979;&#21551;&#21160;&#31867;" style="stroke:#000000;stroke-width:1.0;"/><polygon fill="#000000" points="228.25,143.7369,237.25,147.7369,233.25,143.7369,237.25,139.7369,228.25,143.7369" style="stroke:#000000;stroke-width:1.0;"/></g><!--SRC=[Kop9ICrDLIZ8ISpCuohEpimhI2nAp5KeoIp9INNBpoi9pgnALJ0qGP9AIKrBBCqf8IZfbmWqrpa_hpW_9x6O2soWGd11KMPU-jDTKvvFMV6qO_RJtRkURMrylgARIqDBKq6tIDTEmL3lnRfzp_UkUx6rvTck2K-x5hpOk_Vfp1LSO4aZgEJJZhbFbtT3b3pVk1iYQQpth6_5iwtTuQb940k0Ca_dTKCaJM0wzqnzkdxFanrTJtPqFvlM3Z7eQSyqi1KfG8McC8LW8t0ep04gD4DH-7psnASJri0bpQ5kUJfX_TEk5M0dWeI1lWG0]--></g></svg>