<?xml version="1.0" encoding="us-ascii" standalone="no"?><svg xmlns="http://www.w3.org/2000/svg" xmlns:xlink="http://www.w3.org/1999/xlink" contentStyleType="text/css" height="127px" preserveAspectRatio="none" style="width:908px;height:127px;background:#FFFFFF;" version="1.1" viewBox="0 0 908 127" width="908px" zoomAndPan="magnify"><defs/><g><!--class Iterable--><g id="elem_Iterable"><rect codeLine="1" fill="#F1F1F1" height="64.2969" id="Iterable" rx="2.5" ry="2.5" style="stroke:#181818;stroke-width:0.5;" width="258" x="7" y="31.45"/><ellipse cx="106.25" cy="47.45" fill="#B4A7E5" rx="11" ry="11" style="stroke:#181818;stroke-width:1.0;"/><path d="M102.1719,43.2156 L102.1719,41.0594 L109.5625,41.0594 L109.5625,43.2156 L107.0938,43.2156 L107.0938,51.2938 L109.5625,51.2938 L109.5625,53.45 L102.1719,53.45 L102.1719,51.2938 L104.6406,51.2938 L104.6406,43.2156 L102.1719,43.2156 Z " fill="#000000"/><text fill="#000000" font-family="sans-serif" font-size="14" font-style="italic" lengthAdjust="spacing" textLength="51" x="126.75" y="52.2967">Iterable</text><line style="stroke:#181818;stroke-width:0.5;" x1="8" x2="264" y1="63.45" y2="63.45"/><line style="stroke:#181818;stroke-width:0.5;" x1="8" x2="264" y1="71.45" y2="71.45"/><ellipse cx="18" cy="85.0984" fill="#84BE84" rx="3" ry="3" style="stroke:#038048;stroke-width:1.0;"/><text fill="#000000" font-family="sans-serif" font-size="14" lengthAdjust="spacing" textLength="232" x="27" y="88.4451">iterator() Iterator&lt;PropertyValue&gt;</text></g><!--class PropertyValues--><g id="elem_PropertyValues"><rect codeLine="4" fill="#F1F1F1" height="80.5938" id="PropertyValues" rx="2.5" ry="2.5" style="stroke:#181818;stroke-width:0.5;" width="273" x="300.5" y="23.3"/><ellipse cx="380.75" cy="39.3" fill="#B4A7E5" rx="11" ry="11" style="stroke:#181818;stroke-width:1.0;"/><path d="M376.6719,35.0656 L376.6719,32.9094 L384.0625,32.9094 L384.0625,35.0656 L381.5938,35.0656 L381.5938,43.1438 L384.0625,43.1438 L384.0625,45.3 L376.6719,45.3 L376.6719,43.1438 L379.1406,43.1438 L379.1406,35.0656 L376.6719,35.0656 Z " fill="#000000"/><text fill="#000000" font-family="sans-serif" font-size="14" font-style="italic" lengthAdjust="spacing" textLength="104" x="401.25" y="44.1467">PropertyValues</text><line style="stroke:#181818;stroke-width:0.5;" x1="301.5" x2="572.5" y1="55.3" y2="55.3"/><line style="stroke:#181818;stroke-width:0.5;" x1="301.5" x2="572.5" y1="63.3" y2="63.3"/><ellipse cx="311.5" cy="76.9484" fill="#84BE84" rx="3" ry="3" style="stroke:#038048;stroke-width:1.0;"/><text fill="#000000" font-family="sans-serif" font-size="14" lengthAdjust="spacing" textLength="232" x="320.5" y="80.2951">iterator() Iterator&lt;PropertyValue&gt;</text><ellipse cx="311.5" cy="93.2453" fill="#84BE84" rx="3" ry="3" style="stroke:#038048;stroke-width:1.0;"/><text fill="#000000" font-family="sans-serif" font-size="14" lengthAdjust="spacing" textLength="247" x="320.5" y="96.592">getPropertyValues() PropertyValue[]</text></g><!--class MutablePropertyValues--><g id="elem_MutablePropertyValues"><rect codeLine="8" fill="#F1F1F1" height="113.1875" id="MutablePropertyValues" rx="2.5" ry="2.5" style="stroke:#181818;stroke-width:0.5;" width="292" x="609" y="7"/><ellipse cx="671.25" cy="23" fill="#ADD1B2" rx="11" ry="11" style="stroke:#181818;stroke-width:1.0;"/><path d="M674.2188,28.6406 Q673.6406,28.9375 673,29.0781 Q672.3594,29.2344 671.6563,29.2344 Q669.1563,29.2344 667.8281,27.5938 Q666.5156,25.9375 666.5156,22.8125 Q666.5156,19.6875 667.8281,18.0313 Q669.1563,16.375 671.6563,16.375 Q672.3594,16.375 673,16.5313 Q673.6563,16.6875 674.2188,16.9844 L674.2188,19.7031 Q673.5938,19.125 673,18.8594 Q672.4063,18.5781 671.7813,18.5781 Q670.4375,18.5781 669.75,19.6563 Q669.0625,20.7188 669.0625,22.8125 Q669.0625,24.9063 669.75,25.9844 Q670.4375,27.0469 671.7813,27.0469 Q672.4063,27.0469 673,26.7813 Q673.5938,26.5 674.2188,25.9219 L674.2188,28.6406 Z " fill="#000000"/><text fill="#000000" font-family="sans-serif" font-size="14" lengthAdjust="spacing" textLength="159" x="691.75" y="27.8467">MutablePropertyValues</text><line style="stroke:#181818;stroke-width:0.5;" x1="610" x2="900" y1="39" y2="39"/><rect fill="none" height="6" style="stroke:#C82930;stroke-width:1.0;" width="6" x="617" y="49.6484"/><text fill="#000000" font-family="sans-serif" font-size="14" lengthAdjust="spacing" textLength="266" x="629" y="55.9951">List&lt;PropertyValue&gt; propertyValueList</text><line style="stroke:#181818;stroke-width:0.5;" x1="610" x2="900" y1="63.2969" y2="63.2969"/><ellipse cx="620" cy="76.9453" fill="#84BE84" rx="3" ry="3" style="stroke:#038048;stroke-width:1.0;"/><text fill="#000000" font-family="sans-serif" font-size="14" lengthAdjust="spacing" textLength="257" x="629" y="80.292">addPropertyValue(String, Object) void</text><ellipse cx="620" cy="93.2422" fill="#84BE84" rx="3" ry="3" style="stroke:#038048;stroke-width:1.0;"/><text fill="#000000" font-family="sans-serif" font-size="14" lengthAdjust="spacing" textLength="247" x="629" y="96.5889">getPropertyValues() PropertyValue[]</text><ellipse cx="620" cy="109.5391" fill="#84BE84" rx="3" ry="3" style="stroke:#038048;stroke-width:1.0;"/><text fill="#000000" font-family="sans-serif" font-size="14" lengthAdjust="spacing" textLength="232" x="629" y="112.8857">iterator() Iterator&lt;PropertyValue&gt;</text></g><!--reverse link Iterable to PropertyValues--><g id="link_Iterable_PropertyValues"><path codeLine="14" d="M286.31,63.6 C290.94,63.6 295.57,63.6 300.21,63.6 " fill="none" id="Iterable-backto-PropertyValues" style="stroke:#181818;stroke-width:1.0;"/><polygon fill="none" points="286.34,70.6,266.34,63.6,286.34,56.6,286.34,70.6" style="stroke:#181818;stroke-width:1.0;"/></g><!--reverse link PropertyValues to MutablePropertyValues--><g id="link_PropertyValues_MutablePropertyValues"><path codeLine="15" d="M594.8,63.6 C599.4,63.6 604,63.6 608.61,63.6 " fill="none" id="PropertyValues-backto-MutablePropertyValues" style="stroke:#181818;stroke-width:1.0;stroke-dasharray:7.0,7.0;"/><polygon fill="none" points="594.95,70.6,574.95,63.6,594.95,56.6,594.95,70.6" style="stroke:#181818;stroke-width:1.0;"/></g><!--SRC=[oymhIIrAIqnELV04CXAJSbAhkJYr5J91d9By8WrDY3YGQHDGb5-GMbHI6PQOKvfgnrNBbGdNYo9LJAm9G5NfgIMeUe7AKGIYOu4M9USa5XSh-9QMWDo7gbu1Q9ckWazcSGcQwGe5o5oG0f1zYIafACeqWakAClFITHJyax9Iaqiq5ShoCrE8THYnuOJcOjqStHexU71pOVUMNeuUK16g8000]--></g></svg>