<?xml version="1.0" encoding="us-ascii" standalone="no"?><svg xmlns="http://www.w3.org/2000/svg" xmlns:xlink="http://www.w3.org/1999/xlink" contentStyleType="text/css" height="230px" preserveAspectRatio="none" style="width:167px;height:230px;background:#FFFFFF;" version="1.1" viewBox="0 0 167 230" width="167px" zoomAndPan="magnify"><defs/><g><text fill="#000000" font-family="sans-serif" font-size="14" font-weight="bold" lengthAdjust="spacing" textLength="139" x="10" y="22.9951">TreeMap&#30340;&#24213;&#23618;&#32467;&#26500;</text><!--entity a--><g id="elem_a"><rect fill="#000000" height="20" rx="2.5" ry="2.5" style="stroke:#181818;stroke-width:0.5;" width="20" x="101.5" y="44.2969"/></g><!--entity b--><g id="elem_b"><rect fill="#000000" height="20" rx="2.5" ry="2.5" style="stroke:#181818;stroke-width:0.5;" width="20" x="74.5" y="124.2969"/></g><!--entity c--><g id="elem_c"><rect fill="#FF0000" height="20" rx="2.5" ry="2.5" style="stroke:#181818;stroke-width:0.5;" width="20" x="129.5" y="124.2969"/></g><!--entity d--><g id="elem_d"><rect fill="#FF0000" height="20" rx="2.5" ry="2.5" style="stroke:#181818;stroke-width:0.5;" width="20" x="19.5" y="204.2969"/></g><!--entity e--><g id="elem_e"><rect fill="#FF0000" height="20" rx="2.5" ry="2.5" style="stroke:#181818;stroke-width:0.5;" width="20" x="74.5" y="204.2969"/></g><!--entity f--><g id="elem_f"><rect fill="#000000" height="20" rx="2.5" ry="2.5" style="stroke:#181818;stroke-width:0.5;" width="20" x="129.5" y="204.2969"/></g><!--link a to b--><g id="link_a_b"><path d="M108.3,64.5469 C103.67,77.9169 95.07,102.7769 89.57,118.6469 " fill="none" id="a-to-b" style="stroke:#181818;stroke-width:1.0;"/><polygon fill="#181818" points="87.7,123.0569,94.4321,115.8681,89.3409,118.3338,86.8752,113.2426,87.7,123.0569" style="stroke:#181818;stroke-width:1.0;"/></g><!--link a to c--><g id="link_a_c"><path d="M114.82,64.5469 C119.62,77.9169 128.54,102.7769 134.24,118.6469 " fill="none" id="a-to-c" style="stroke:#181818;stroke-width:1.0;"/><polygon fill="#181818" points="136.18,123.0569,136.9067,113.2349,134.492,118.3504,129.3764,115.9357,136.18,123.0569" style="stroke:#181818;stroke-width:1.0;"/></g><!--link b to d--><g id="link_b_d"><path d="M77.97,144.5469 C68.38,158.1569 50.41,183.6469 39.24,199.4769 " fill="none" id="b-to-d" style="stroke:#181818;stroke-width:1.0;"/><polygon fill="#181818" points="36.02,203.0569,44.4794,198.0132,38.9045,198.9728,37.9449,193.398,36.02,203.0569" style="stroke:#181818;stroke-width:1.0;"/></g><!--link b to e--><g id="link_b_e"><path d="M84.5,144.5469 C84.5,157.8069 84.5,182.3369 84.5,198.2269 " fill="none" id="b-to-e" style="stroke:#181818;stroke-width:1.0;"/><polygon fill="#181818" points="84.5,203.0569,88.5,194.0569,84.5,198.0569,80.5,194.0569,84.5,203.0569" style="stroke:#181818;stroke-width:1.0;"/></g><!--link c to f--><g id="link_c_f"><path d="M139.5,144.5469 C139.5,157.8069 139.5,182.3369 139.5,198.2269 " fill="none" id="c-to-f" style="stroke:#181818;stroke-width:1.0;"/><polygon fill="#181818" points="139.5,203.0569,143.5,194.0569,139.5,198.0569,135.5,194.0569,139.5,203.0569" style="stroke:#181818;stroke-width:1.0;"/></g><!--SRC=[AyaioKbL22bAJVLDB7W-g-NfhgbFDpOztptvsRmMhgBKv9B4l7IW0kMadCJaR0Kb85H8B5P8LC0jbuGYLvIQ0fT9nYcJWbCc5OzDQGfSN8aAkYcwTWf9C4OoLnA4aG9Zf78bGnXf0000]--></g></svg>