<?xml version="1.0" encoding="us-ascii" standalone="no"?><svg xmlns="http://www.w3.org/2000/svg" xmlns:xlink="http://www.w3.org/1999/xlink" contentStyleType="text/css" height="1386px" preserveAspectRatio="none" style="width:1458px;height:1386px;background:#FFFFFF;" version="1.1" viewBox="0 0 1458 1386" width="1458px" zoomAndPan="magnify"><defs/><g><text fill="#000000" font-family="Consolas" font-size="14" font-weight="bold" lengthAdjust="spacing" textLength="123" x="666" y="27.9951">Bean&#30340;&#21019;&#24314;&#30340;&#27969;&#31243;</text><ellipse cx="949.25" cy="52.2969" fill="#FFFFFF" rx="10" ry="10" style="stroke:#000000;stroke-width:1.0;"/><rect fill="#FFFFFF" height="52.5938" rx="12.5" ry="12.5" style="stroke:#000000;stroke-width:1.0;" width="335" x="781.75" y="82.2969"/><text fill="#000000" font-family="Consolas" font-size="14" lengthAdjust="spacing" textLength="98" x="795.75" y="105.292">&#36716;&#25442;&#20256;&#20837;&#30340;&#21517;&#31216;</text><text fill="#000000" font-family="Consolas" font-size="14" lengthAdjust="spacing" textLength="315" x="791.75" y="121.5889">AbstractBeanFactory#transformedBeanName</text><rect fill="#FFFFFF" height="52.5938" rx="12.5" ry="12.5" style="stroke:#000000;stroke-width:1.0;" width="326" x="786.25" y="154.8906"/><text fill="#000000" font-family="Consolas" font-size="14" lengthAdjust="spacing" textLength="148" x="800.25" y="177.8857">&#20174;&#21333;&#20363;&#32531;&#23384;&#20013;&#33719;&#21462;Bean</text><text fill="#000000" font-family="Consolas" font-size="14" lengthAdjust="spacing" textLength="306" x="796.25" y="194.1826">DefaultSingletonBeanRegistry#getSingleton</text><polygon fill="#FFFFFF" points="854.25,227.4844,1044.25,227.4844,1056.25,239.4844,1044.25,251.4844,854.25,251.4844,842.25,239.4844,854.25,227.4844" style="stroke:#000000;stroke-width:1.0;"/><text fill="#000000" font-family="Consolas" font-size="14" lengthAdjust="spacing" textLength="190" x="854.25" y="244.3311">&#21333;&#20363;&#32531;&#23384;&#20013;&#26159;&#21542;&#23384;&#22312;&#35813;Bean&#65311;</text><text fill="#000000" font-family="Consolas" font-size="14" lengthAdjust="spacing" textLength="14" x="828.25" y="236.1826">&#21542;</text><text fill="#000000" font-family="Consolas" font-size="14" lengthAdjust="spacing" textLength="134" x="1056.25" y="236.1826">&#26159;&#65292;&#30452;&#25509;&#36820;&#22238;&#35813;Bean</text><polygon fill="#FFFFFF" points="498.5,261.4844,754.5,261.4844,766.5,277.7813,754.5,294.0781,498.5,294.0781,486.5,277.7813,498.5,261.4844" style="stroke:#000000;stroke-width:1.0;"/><text fill="#000000" font-family="Consolas" font-size="14" lengthAdjust="spacing" textLength="256" x="498.5" y="274.4795">&#23384;&#22312;&#29238;BeanFactory&#19988;&#24403;&#21069;BeanFactory</text><text fill="#000000" font-family="Consolas" font-size="14" lengthAdjust="spacing" textLength="171" x="498.5" y="290.7764">&#19981;&#21253;&#21547;&#35813;BeanDefinition&#65311;</text><text fill="#000000" font-family="Consolas" font-size="14" lengthAdjust="spacing" textLength="14" x="472.5" y="274.4795">&#21542;</text><text fill="#000000" font-family="Consolas" font-size="14" lengthAdjust="spacing" textLength="14" x="766.5" y="274.4795">&#26159;</text><rect fill="#FFFFFF" height="52.5938" rx="12.5" ry="12.5" style="stroke:#000000;stroke-width:1.0;" width="387" x="105.5" y="304.0781"/><text fill="#000000" font-family="Consolas" font-size="14" lengthAdjust="spacing" textLength="129" x="119.5" y="327.0732">&#21512;&#24182;BeanDefinition</text><text fill="#000000" font-family="Consolas" font-size="14" lengthAdjust="spacing" textLength="367" x="115.5" y="343.3701">AbstractBeanFactory#getMergedLocalBeanDefinition</text><rect fill="#FFFFFF" height="36.2969" rx="12.5" ry="12.5" style="stroke:#000000;stroke-width:1.0;" width="94" x="252" y="391.6719"/><text fill="#000000" font-family="Consolas" font-size="14" lengthAdjust="spacing" textLength="70" x="266" y="414.667">&#26816;&#26597;&#20381;&#36182;&#39033;</text><rect fill="#FFFFFF" height="721.3438" style="stroke:#000000;stroke-width:1.0;" width="820" x="6" y="437.9688"/><path d="M251,437.9688 L251,447.2656 L241,457.2656 L6,457.2656 " fill="none" style="stroke:#000000;stroke-width:1.0;"/><text fill="#000000" font-family="Consolas" font-size="14" lengthAdjust="spacing" textLength="235" x="9" y="451.9639">AbstractBeanFactory#createBean</text><rect fill="#FFFFFF" height="52.5938" rx="12.5" ry="12.5" style="stroke:#000000;stroke-width:1.0;" width="298" x="150" y="474.2656"/><text fill="#000000" font-family="Consolas" font-size="14" lengthAdjust="spacing" textLength="115" x="164" y="497.2607">&#35299;&#26512;Bean&#30340;Class</text><text fill="#000000" font-family="Consolas" font-size="14" lengthAdjust="spacing" textLength="278" x="160" y="513.5576">AbstractBeanFactory#resolveBeanClass</text><rect fill="#FFFFFF" height="52.5938" rx="12.5" ry="12.5" style="stroke:#000000;stroke-width:1.0;" width="363" x="117.5" y="546.8594"/><text fill="#000000" font-family="Consolas" font-size="14" lengthAdjust="spacing" textLength="84" x="131.5" y="569.8545">&#20934;&#22791;&#26041;&#27861;&#37325;&#20889;</text><text fill="#000000" font-family="Consolas" font-size="14" lengthAdjust="spacing" textLength="343" x="127.5" y="586.1514">AbstractBeanDefinition#prepareMethodOverrides</text><rect fill="#FFFFFF" height="52.5938" rx="12.5" ry="12.5" style="stroke:#000000;stroke-width:1.0;" width="471" x="63.5" y="619.4531"/><text fill="#000000" font-family="Consolas" font-size="14" lengthAdjust="spacing" textLength="120" x="77.5" y="642.4482">&#23454;&#20363;&#21270;&#21069;&#35299;&#26512;Bean</text><text fill="#000000" font-family="Consolas" font-size="14" lengthAdjust="spacing" textLength="451" x="73.5" y="658.7451">AbstractAutowireCapableBeanFactory#resolveBeforeInstantiation</text><polygon fill="#FFFFFF" points="165,692.0469,433,692.0469,445,704.0469,433,716.0469,165,716.0469,153,704.0469,165,692.0469" style="stroke:#000000;stroke-width:1.0;"/><text fill="#000000" font-family="Consolas" font-size="14" lengthAdjust="spacing" textLength="268" x="165" y="708.8936">&#23454;&#20363;&#21270;&#21069;&#35299;&#26512;Bean&#26159;&#21542;&#36820;&#22238;&#20102;Bean&#23454;&#20363;&#65311;</text><text fill="#000000" font-family="Consolas" font-size="14" lengthAdjust="spacing" textLength="14" x="139" y="700.7451">&#26159;</text><text fill="#000000" font-family="Consolas" font-size="14" lengthAdjust="spacing" textLength="14" x="445" y="700.7451">&#21542;</text><rect fill="#FFFFFF" height="36.2969" rx="12.5" ry="12.5" style="stroke:#000000;stroke-width:1.0;" width="158" x="18" y="726.0469"/><text fill="#000000" font-family="Consolas" font-size="14" lengthAdjust="spacing" textLength="134" x="32" y="749.042">&#36820;&#22238;&#35299;&#26512;&#30340;Bean&#23454;&#20363;</text><rect fill="#FFFFFF" height="391.2656" style="stroke:#000000;stroke-width:1.0;" width="610" x="196" y="726.0469"/><path d="M577,726.0469 L577,735.3438 L567,745.3438 L196,745.3438 " fill="none" style="stroke:#000000;stroke-width:1.0;"/><text fill="#000000" font-family="Consolas" font-size="14" lengthAdjust="spacing" textLength="371" x="199" y="740.042">AbstractAutowireCapableBeanFactory#doCreateBean</text><rect fill="#FFFFFF" height="52.5938" rx="12.5" ry="12.5" style="stroke:#000000;stroke-width:1.0;" width="430" x="286" y="762.3438"/><text fill="#000000" font-family="Consolas" font-size="14" lengthAdjust="spacing" textLength="78" x="300" y="785.3389">&#23454;&#20363;&#21270;Bean</text><text fill="#000000" font-family="Consolas" font-size="14" lengthAdjust="spacing" textLength="410" x="296" y="801.6357">AbstractAutowireCapableBeanFactory#createBeanInstance</text><rect fill="#FFFFFF" height="52.5938" rx="12.5" ry="12.5" style="stroke:#000000;stroke-width:1.0;" width="590" x="206" y="834.9375"/><text fill="#000000" font-family="Consolas" font-size="14" lengthAdjust="spacing" textLength="185" x="220" y="857.9326">&#21512;&#24182;BeanDefinition&#21518;&#32622;&#22788;&#29702;</text><text fill="#000000" font-family="Consolas" font-size="14" lengthAdjust="spacing" textLength="570" x="216" y="874.2295">AbstractAutowireCapableBeanFactory#applyMergedBeanDefinitionPostProcessors</text><rect fill="#FFFFFF" height="52.5938" rx="12.5" ry="12.5" style="stroke:#000000;stroke-width:1.0;" width="388" x="307" y="907.5313"/><text fill="#000000" font-family="Consolas" font-size="14" lengthAdjust="spacing" textLength="106" x="321" y="930.5264">&#35774;&#32622;Bean&#30340;&#23646;&#24615;</text><text fill="#000000" font-family="Consolas" font-size="14" lengthAdjust="spacing" textLength="368" x="317" y="946.8232">AbstractAutowireCapableBeanFactory#populateBean</text><rect fill="#FFFFFF" height="52.5938" rx="12.5" ry="12.5" style="stroke:#000000;stroke-width:1.0;" width="381" x="310.5" y="980.125"/><text fill="#000000" font-family="Consolas" font-size="14" lengthAdjust="spacing" textLength="78" x="324.5" y="1003.1201">&#21021;&#22987;&#21270;Bean</text><text fill="#000000" font-family="Consolas" font-size="14" lengthAdjust="spacing" textLength="361" x="320.5" y="1019.417">AbstractAutowireCapableBeanFactory#initializeBean</text><rect fill="#FFFFFF" height="52.5938" rx="12.5" ry="12.5" style="stroke:#000000;stroke-width:1.0;" width="536" x="233" y="1052.7188"/><text fill="#000000" font-family="Consolas" font-size="14" lengthAdjust="spacing" textLength="134" x="247" y="1075.7139">&#27880;&#20876;Bean&#30340;&#38144;&#27585;&#22238;&#35843;</text><text fill="#000000" font-family="Consolas" font-size="14" lengthAdjust="spacing" textLength="516" x="243" y="1092.0107">AbstractAutowireCapableBeanFactory#registerDisposableBeanIfNecessary</text><polygon fill="#FFFFFF" points="299,1123.3125,311,1135.3125,299,1147.3125,287,1135.3125,299,1123.3125" style="stroke:#000000;stroke-width:1.0;"/><rect fill="#FFFFFF" height="52.5938" rx="12.5" ry="12.5" style="stroke:#000000;stroke-width:1.0;" width="360" x="119" y="1179.3125"/><text fill="#000000" font-family="Consolas" font-size="14" lengthAdjust="spacing" textLength="148" x="133" y="1202.3076">&#20174;Bean&#23454;&#20363;&#20013;&#33719;&#21462;&#23545;&#35937;</text><text fill="#000000" font-family="Consolas" font-size="14" lengthAdjust="spacing" textLength="340" x="129" y="1218.6045">AbstractBeanFactory#getObjectForBeanInstance</text><rect fill="#FFFFFF" height="36.2969" rx="12.5" ry="12.5" style="stroke:#000000;stroke-width:1.0;" width="216" x="846" y="304.0781"/><text fill="#000000" font-family="Consolas" font-size="14" lengthAdjust="spacing" textLength="192" x="860" y="327.0732">&#20174;&#29238;BeanFactory&#20013;&#33719;&#21462;Bean</text><ellipse cx="954" cy="386.375" fill="#FFFFFF" rx="11" ry="11" style="stroke:#000000;stroke-width:1.0;"/><ellipse cx="954" cy="386.375" fill="#000000" rx="6" ry="6" style="stroke:#7F7F7F;stroke-width:1.0;"/><rect fill="#FFFFFF" height="52.5938" rx="12.5" ry="12.5" style="stroke:#000000;stroke-width:1.0;" width="360" x="1092" y="261.4844"/><text fill="#000000" font-family="Consolas" font-size="14" lengthAdjust="spacing" textLength="148" x="1106" y="284.4795">&#20174;Bean&#23454;&#20363;&#20013;&#33719;&#21462;&#23545;&#35937;</text><text fill="#000000" font-family="Consolas" font-size="14" lengthAdjust="spacing" textLength="340" x="1102" y="300.7764">AbstractBeanFactory#getObjectForBeanInstance</text><polygon fill="#FFFFFF" points="949.25,1241.9063,961.25,1253.9063,949.25,1265.9063,937.25,1253.9063,949.25,1241.9063" style="stroke:#000000;stroke-width:1.0;"/><rect fill="#FFFFFF" height="52.5938" rx="12.5" ry="12.5" style="stroke:#000000;stroke-width:1.0;" width="309" x="794.75" y="1285.9063"/><text fill="#000000" font-family="Consolas" font-size="14" lengthAdjust="spacing" textLength="134" x="808.75" y="1308.9014">&#36866;&#37197;Bean&#23454;&#20363;&#30340;&#31867;&#22411;</text><text fill="#000000" font-family="Consolas" font-size="14" lengthAdjust="spacing" textLength="289" x="804.75" y="1325.1982">AbstractBeanFactory#adaptBeanInstance</text><ellipse cx="949.25" cy="1369.5" fill="#FFFFFF" rx="11" ry="11" style="stroke:#000000;stroke-width:1.0;"/><ellipse cx="949.25" cy="1369.5" fill="#000000" rx="6" ry="6" style="stroke:#7F7F7F;stroke-width:1.0;"/><line style="stroke:#000000;stroke-width:1.0;" x1="949.25" x2="949.25" y1="62.2969" y2="82.2969"/><polygon fill="#000000" points="945.25,72.2969,949.25,82.2969,953.25,72.2969,949.25,76.2969" style="stroke:#000000;stroke-width:1.0;"/><line style="stroke:#000000;stroke-width:1.0;" x1="949.25" x2="949.25" y1="134.8906" y2="154.8906"/><polygon fill="#000000" points="945.25,144.8906,949.25,154.8906,953.25,144.8906,949.25,148.8906" style="stroke:#000000;stroke-width:1.0;"/><line style="stroke:#000000;stroke-width:1.0;" x1="299" x2="299" y1="356.6719" y2="391.6719"/><polygon fill="#000000" points="295,381.6719,299,391.6719,303,381.6719,299,385.6719" style="stroke:#000000;stroke-width:1.0;"/><line style="stroke:#000000;stroke-width:1.0;" x1="299" x2="299" y1="526.8594" y2="546.8594"/><polygon fill="#000000" points="295,536.8594,299,546.8594,303,536.8594,299,540.8594" style="stroke:#000000;stroke-width:1.0;"/><line style="stroke:#000000;stroke-width:1.0;" x1="299" x2="299" y1="599.4531" y2="619.4531"/><polygon fill="#000000" points="295,609.4531,299,619.4531,303,609.4531,299,613.4531" style="stroke:#000000;stroke-width:1.0;"/><line style="stroke:#000000;stroke-width:1.0;" x1="501" x2="501" y1="814.9375" y2="834.9375"/><polygon fill="#000000" points="497,824.9375,501,834.9375,505,824.9375,501,828.9375" style="stroke:#000000;stroke-width:1.0;"/><line style="stroke:#000000;stroke-width:1.0;" x1="501" x2="501" y1="887.5313" y2="907.5313"/><polygon fill="#000000" points="497,897.5313,501,907.5313,505,897.5313,501,901.5313" style="stroke:#000000;stroke-width:1.0;"/><line style="stroke:#000000;stroke-width:1.0;" x1="501" x2="501" y1="960.125" y2="980.125"/><polygon fill="#000000" points="497,970.125,501,980.125,505,970.125,501,974.125" style="stroke:#000000;stroke-width:1.0;"/><line style="stroke:#000000;stroke-width:1.0;" x1="501" x2="501" y1="1032.7188" y2="1052.7188"/><polygon fill="#000000" points="497,1042.7188,501,1052.7188,505,1042.7188,501,1046.7188" style="stroke:#000000;stroke-width:1.0;"/><line style="stroke:#000000;stroke-width:1.0;" x1="153" x2="97" y1="704.0469" y2="704.0469"/><line style="stroke:#000000;stroke-width:1.0;" x1="97" x2="97" y1="704.0469" y2="726.0469"/><polygon fill="#000000" points="93,716.0469,97,726.0469,101,716.0469,97,720.0469" style="stroke:#000000;stroke-width:1.0;"/><line style="stroke:#000000;stroke-width:1.0;" x1="445" x2="501" y1="704.0469" y2="704.0469"/><line style="stroke:#000000;stroke-width:1.0;" x1="501" x2="501" y1="704.0469" y2="762.3438"/><polygon fill="#000000" points="497,752.3438,501,762.3438,505,752.3438,501,756.3438" style="stroke:#000000;stroke-width:1.0;"/><line style="stroke:#000000;stroke-width:1.0;" x1="97" x2="97" y1="762.3438" y2="1135.3125"/><line style="stroke:#000000;stroke-width:1.0;" x1="97" x2="287" y1="1135.3125" y2="1135.3125"/><polygon fill="#000000" points="277,1131.3125,287,1135.3125,277,1139.3125,281,1135.3125" style="stroke:#000000;stroke-width:1.0;"/><line style="stroke:#000000;stroke-width:1.0;" x1="501" x2="501" y1="1105.3125" y2="1135.3125"/><line style="stroke:#000000;stroke-width:1.0;" x1="501" x2="311" y1="1135.3125" y2="1135.3125"/><polygon fill="#000000" points="321,1131.3125,311,1135.3125,321,1139.3125,317,1135.3125" style="stroke:#000000;stroke-width:1.0;"/><line style="stroke:#000000;stroke-width:1.0;" x1="299" x2="299" y1="672.0469" y2="692.0469"/><polygon fill="#000000" points="295,682.0469,299,692.0469,303,682.0469,299,686.0469" style="stroke:#000000;stroke-width:1.0;"/><line style="stroke:#000000;stroke-width:1.0;" x1="299" x2="299" y1="427.9688" y2="474.2656"/><polygon fill="#000000" points="295,464.2656,299,474.2656,303,464.2656,299,468.2656" style="stroke:#000000;stroke-width:1.0;"/><line style="stroke:#000000;stroke-width:1.0;" x1="299" x2="299" y1="1147.3125" y2="1179.3125"/><polygon fill="#000000" points="295,1169.3125,299,1179.3125,303,1169.3125,299,1173.3125" style="stroke:#000000;stroke-width:1.0;"/><line style="stroke:#000000;stroke-width:1.0;" x1="954" x2="954" y1="340.375" y2="375.375"/><polygon fill="#000000" points="950,365.375,954,375.375,958,365.375,954,369.375" style="stroke:#000000;stroke-width:1.0;"/><line style="stroke:#000000;stroke-width:1.0;" x1="486.5" x2="299" y1="277.7813" y2="277.7813"/><line style="stroke:#000000;stroke-width:1.0;" x1="299" x2="299" y1="277.7813" y2="304.0781"/><polygon fill="#000000" points="295,294.0781,299,304.0781,303,294.0781,299,298.0781" style="stroke:#000000;stroke-width:1.0;"/><line style="stroke:#000000;stroke-width:1.0;" x1="766.5" x2="954" y1="277.7813" y2="277.7813"/><line style="stroke:#000000;stroke-width:1.0;" x1="954" x2="954" y1="277.7813" y2="304.0781"/><polygon fill="#000000" points="950,294.0781,954,304.0781,958,294.0781,954,298.0781" style="stroke:#000000;stroke-width:1.0;"/><line style="stroke:#000000;stroke-width:1.0;" x1="299" x2="299" y1="1231.9063" y2="1253.9063"/><line style="stroke:#000000;stroke-width:1.0;" x1="299" x2="937.25" y1="1253.9063" y2="1253.9063"/><polygon fill="#000000" points="927.25,1249.9063,937.25,1253.9063,927.25,1257.9063,931.25,1253.9063" style="stroke:#000000;stroke-width:1.0;"/><line style="stroke:#000000;stroke-width:1.0;" x1="842.25" x2="626.5" y1="239.4844" y2="239.4844"/><line style="stroke:#000000;stroke-width:1.0;" x1="626.5" x2="626.5" y1="239.4844" y2="261.4844"/><polygon fill="#000000" points="622.5,251.4844,626.5,261.4844,630.5,251.4844,626.5,255.4844" style="stroke:#000000;stroke-width:1.0;"/><line style="stroke:#000000;stroke-width:1.0;" x1="1056.25" x2="1272" y1="239.4844" y2="239.4844"/><line style="stroke:#000000;stroke-width:1.0;" x1="1272" x2="1272" y1="239.4844" y2="261.4844"/><polygon fill="#000000" points="1268,251.4844,1272,261.4844,1276,251.4844,1272,255.4844" style="stroke:#000000;stroke-width:1.0;"/><line style="stroke:#000000;stroke-width:1.0;" x1="1272" x2="1272" y1="314.0781" y2="1253.9063"/><line style="stroke:#000000;stroke-width:1.0;" x1="1272" x2="961.25" y1="1253.9063" y2="1253.9063"/><polygon fill="#000000" points="971.25,1249.9063,961.25,1253.9063,971.25,1257.9063,967.25,1253.9063" style="stroke:#000000;stroke-width:1.0;"/><line style="stroke:#000000;stroke-width:1.0;" x1="949.25" x2="949.25" y1="207.4844" y2="227.4844"/><polygon fill="#000000" points="945.25,217.4844,949.25,227.4844,953.25,217.4844,949.25,221.4844" style="stroke:#000000;stroke-width:1.0;"/><line style="stroke:#000000;stroke-width:1.0;" x1="949.25" x2="949.25" y1="1265.9063" y2="1285.9063"/><polygon fill="#000000" points="945.25,1275.9063,949.25,1285.9063,953.25,1275.9063,949.25,1279.9063" style="stroke:#000000;stroke-width:1.0;"/><line style="stroke:#000000;stroke-width:1.0;" x1="949.25" x2="949.25" y1="1338.5" y2="1358.5"/><polygon fill="#000000" points="945.25,1348.5,949.25,1358.5,953.25,1348.5,949.25,1352.5" style="stroke:#000000;stroke-width:1.0;"/><!--SRC=[hLJFJnf163tBNx6DbtfiqfESBCR4fFv8lNePsG6dNMSsiuCDFM6hI2FGJLHYQyLQHKnQHMErecZ_cPtTvUI_q9bTO87IbYOz0T-yxysRxps-1smUBa15rm328UC5mZgWO45XY6bmZ60sWrv1vT7ZjYCLna12Otyzd0I2DqAmGJHWX3n2vGa4sFcmp3FR_EPQVB4lbfoZjL38O82oqB3YtdwrSv-jsYU-Kf8uC-UKJsVno9p1A8WosJucFWbD3ee2DcA4Ba1LbkLjOS5WtUHvRjEwMtDgw_nuoxewTlFV-Rk2nCpYKL_U3C9n3JA2PVKPZ2D1dnoCm-0W748nvM4NaxrLuUQX-Cu_7hcLaco-h-qEAMA4M83Dmw7GWDVc8PpCPPjUwsg3twxpjxcssYoshd8ykyBDBmqweGzXn13vbNXWME5cXbSlEt6zXoEUCW5f7AfFIHHedHrXZylUJzcx9UjknxqerFUgiXYd9A4hlUYY5086PKN0HBDRthUBPiFCYB3Nw2s3Gc7-ejVeeS9-ErzDyuDLkr2rppVhgpcUVj_P7cWTr2aKmO8JaCqJTMeHKefKsE8vAGfxUBOWnXf82hX64eoyH1H6W0xcDDXJcKWG7CSYVvWXq1oFxs9FTZy3xeyDlbsqhjEov0FR31COQPWtAG_ejujP1N3l6gWPiELljm5_KA-II9SZBR5zJo3mr7z-53QdsYDbtCmxjoVyODanqtsn0rtNadu4EvccYS6cAOb2mo2qQQHxSYVecylXh6YdodtTeXCzeJLUqLIVsU7bVng49mneOfMrqTZdHpoTRIYgRwJiofBqyVHDd-cIAmNIKMJen6YUZiSceNmte4dVVQmgdkMD7oZMNVNMMP2PrZBZbQfxjlVRl_xKt7CO5JkOThdhnwsHJe-xUqUrBKifqM14oF2bjPhlQrbd-vkTBpMoxMykGVb_rVgt3YlrrElwIYwW5NuuPpUykDQR4AX0PvrCyXK_0G00]--></g></svg>