<?xml version="1.0" encoding="us-ascii" standalone="no"?><svg xmlns="http://www.w3.org/2000/svg" xmlns:xlink="http://www.w3.org/1999/xlink" contentStyleType="text/css" height="598px" preserveAspectRatio="none" style="width:513px;height:598px;background:#FFFFFF;" version="1.1" viewBox="0 0 513 598" width="513px" zoomAndPan="magnify"><defs/><g><text fill="#000000" font-family="sans-serif" font-size="14" font-weight="bold" lengthAdjust="spacing" textLength="140" x="185" y="32.9951">&#31867;&#21152;&#36733;&#22120;&#21152;&#36733;&#31867;&#30340;&#36807;&#31243;</text><ellipse cx="224.25" cy="57.2969" fill="#222222" rx="10" ry="10" style="stroke:#222222;stroke-width:1.0;"/><rect fill="none" height="470.0547" style="stroke:#000000;stroke-width:1.5;" width="491" x="11" y="77.2969"/><path d="M183,77.2969 L183,86.5938 L173,96.5938 L11,96.5938 " fill="none" style="stroke:#000000;stroke-width:1.5;"/><text fill="#000000" font-family="sans-serif" font-size="14" lengthAdjust="spacing" textLength="162" x="14" y="91.292">ClassLoader#loadClass</text><polygon fill="#F1F1F1" points="163.75,163.6055,284.75,163.6055,296.75,175.6055,284.75,187.6055,163.75,187.6055,151.75,175.6055,163.75,163.6055" style="stroke:#181818;stroke-width:0.5;"/><text fill="#000000" font-family="sans-serif" font-size="11" lengthAdjust="spacing" textLength="121" x="163.75" y="179.4136">&#29238;&#31867;&#21152;&#36733;&#22120;&#26159;&#21542;&#19981;&#20026;&#31354;&#65311;</text><text fill="#000000" font-family="sans-serif" font-size="11" lengthAdjust="spacing" textLength="11" x="140.75" y="173.0112">&#26159;</text><text fill="#000000" font-family="sans-serif" font-size="11" lengthAdjust="spacing" textLength="11" x="296.75" y="173.0112">&#21542;</text><rect fill="#F1F1F1" height="47.9375" rx="12.5" ry="12.5" style="stroke:#181818;stroke-width:0.5;" width="168" x="23" y="197.6055"/><text fill="#000000" font-family="sans-serif" font-size="12" lengthAdjust="spacing" textLength="144" x="37" y="218.7441">&#22996;&#27966;&#32473;&#29238;&#31867;&#21152;&#36733;&#22120;&#21435;&#21152;&#36733;&#31867;</text><text fill="#000000" font-family="sans-serif" font-size="12" lengthAdjust="spacing" textLength="146" x="33" y="232.7129">ClassLoader#loadClass</text><rect fill="#F1F1F1" height="47.9375" rx="12.5" ry="12.5" style="stroke:#181818;stroke-width:0.5;" width="261" x="211" y="197.6055"/><text fill="#000000" font-family="sans-serif" font-size="12" lengthAdjust="spacing" textLength="156" x="225" y="218.7441">&#22996;&#27966;&#32473;&#21551;&#21160;&#31867;&#21152;&#36733;&#22120;&#21435;&#21152;&#36733;&#31867;</text><text fill="#000000" font-family="sans-serif" font-size="12" lengthAdjust="spacing" textLength="241" x="221" y="232.7129">ClassLoader#findBootstrapClassOrNull</text><polygon fill="#F1F1F1" points="224.25,251.543,236.25,263.543,224.25,275.543,212.25,263.543,224.25,251.543" style="stroke:#181818;stroke-width:0.5;"/><rect fill="#F1F1F1" height="47.9375" rx="12.5" ry="12.5" style="stroke:#181818;stroke-width:0.5;" width="162" x="143.25" y="345.4453"/><text fill="#000000" font-family="sans-serif" font-size="12" lengthAdjust="spacing" textLength="120" x="153.25" y="366.584">&#24403;&#21069;&#31867;&#21152;&#36733;&#22120;&#21435;&#21152;&#36733;&#31867;</text><text fill="#000000" font-family="sans-serif" font-size="12" lengthAdjust="spacing" textLength="142" x="153.25" y="380.5527">ClassLoader#findClass</text><polygon fill="#F1F1F1" points="185.75,297.043,262.75,297.043,274.75,309.043,262.75,321.043,185.75,321.043,173.75,309.043,185.75,297.043" style="stroke:#181818;stroke-width:0.5;"/><text fill="#000000" font-family="sans-serif" font-size="11" lengthAdjust="spacing" textLength="11" x="228.25" y="331.2534">&#21542;</text><text fill="#000000" font-family="sans-serif" font-size="11" lengthAdjust="spacing" textLength="77" x="185.75" y="312.8511">&#21152;&#36733;&#31867;&#26159;&#21542;&#25104;&#21151;</text><text fill="#000000" font-family="sans-serif" font-size="11" lengthAdjust="spacing" textLength="11" x="274.75" y="306.4487">&#26159;</text><polygon fill="#F1F1F1" points="224.25,413.3828,236.25,425.3828,224.25,437.3828,212.25,425.3828,224.25,413.3828" style="stroke:#181818;stroke-width:0.5;"/><polygon fill="#F1F1F1" points="158.25,113.5938,290.25,113.5938,302.25,126.3984,290.25,139.2031,158.25,139.2031,146.25,126.3984,158.25,113.5938" style="stroke:#181818;stroke-width:0.5;"/><text fill="#000000" font-family="sans-serif" font-size="11" lengthAdjust="spacing" textLength="11" x="228.25" y="149.4136">&#21542;</text><text fill="#000000" font-family="sans-serif" font-size="11" lengthAdjust="spacing" textLength="132" x="158.25" y="123.8042">&#25351;&#23450;&#31867;&#26159;&#21542;&#24050;&#32463;&#34987;&#21152;&#36733;&#36807;&#65311;</text><text fill="#000000" font-family="sans-serif" font-size="11" lengthAdjust="spacing" textLength="4" x="158.25" y="136.6089">&#160;</text><text fill="#000000" font-family="sans-serif" font-size="11" lengthAdjust="spacing" textLength="11" x="302.25" y="123.8042">&#26159;</text><polygon fill="#F1F1F1" points="224.25,457.3828,236.25,469.3828,224.25,481.3828,212.25,469.3828,224.25,457.3828" style="stroke:#181818;stroke-width:0.5;"/><rect fill="#F1F1F1" height="33.9688" rx="12.5" ry="12.5" style="stroke:#181818;stroke-width:0.5;" width="96" x="176.25" y="501.3828"/><text fill="#000000" font-family="sans-serif" font-size="12" lengthAdjust="spacing" textLength="72" x="190.25" y="522.5215">&#36820;&#22238;&#21152;&#36733;&#30340;&#31867;</text><ellipse cx="224.25" cy="577.3516" fill="none" rx="10" ry="10" style="stroke:#222222;stroke-width:1.5;"/><line style="stroke:#222222;stroke-width:2.5;" x1="218.0628" x2="230.4372" y1="571.1644" y2="583.5387"/><line style="stroke:#222222;stroke-width:2.5;" x1="230.4372" x2="218.0628" y1="571.1644" y2="583.5387"/><line style="stroke:#181818;stroke-width:1.0;" x1="151.75" x2="107" y1="175.6055" y2="175.6055"/><line style="stroke:#181818;stroke-width:1.0;" x1="107" x2="107" y1="175.6055" y2="197.6055"/><polygon fill="#181818" points="103,187.6055,107,197.6055,111,187.6055,107,191.6055" style="stroke:#181818;stroke-width:1.0;"/><line style="stroke:#181818;stroke-width:1.0;" x1="296.75" x2="341.5" y1="175.6055" y2="175.6055"/><line style="stroke:#181818;stroke-width:1.0;" x1="341.5" x2="341.5" y1="175.6055" y2="197.6055"/><polygon fill="#181818" points="337.5,187.6055,341.5,197.6055,345.5,187.6055,341.5,191.6055" style="stroke:#181818;stroke-width:1.0;"/><line style="stroke:#181818;stroke-width:1.0;" x1="107" x2="107" y1="245.543" y2="263.543"/><line style="stroke:#181818;stroke-width:1.0;" x1="107" x2="212.25" y1="263.543" y2="263.543"/><polygon fill="#181818" points="202.25,259.543,212.25,263.543,202.25,267.543,206.25,263.543" style="stroke:#181818;stroke-width:1.0;"/><line style="stroke:#181818;stroke-width:1.0;" x1="341.5" x2="341.5" y1="245.543" y2="263.543"/><line style="stroke:#181818;stroke-width:1.0;" x1="341.5" x2="236.25" y1="263.543" y2="263.543"/><polygon fill="#181818" points="246.25,259.543,236.25,263.543,246.25,267.543,242.25,263.543" style="stroke:#181818;stroke-width:1.0;"/><line style="stroke:#181818;stroke-width:1.0;" x1="224.25" x2="224.25" y1="321.043" y2="345.4453"/><polygon fill="#181818" points="220.25,335.4453,224.25,345.4453,228.25,335.4453,224.25,339.4453" style="stroke:#181818;stroke-width:1.0;"/><line style="stroke:#181818;stroke-width:1.0;" x1="274.75" x2="315.25" y1="309.043" y2="309.043"/><polygon fill="#181818" points="311.25,359.4141,315.25,369.4141,319.25,359.4141,315.25,363.4141" style="stroke:#181818;stroke-width:1.0;"/><line style="stroke:#181818;stroke-width:1.0;" x1="315.25" x2="315.25" y1="309.043" y2="425.3828"/><line style="stroke:#181818;stroke-width:1.0;" x1="315.25" x2="236.25" y1="425.3828" y2="425.3828"/><polygon fill="#181818" points="246.25,421.3828,236.25,425.3828,246.25,429.3828,242.25,425.3828" style="stroke:#181818;stroke-width:1.0;"/><line style="stroke:#181818;stroke-width:1.0;" x1="224.25" x2="224.25" y1="393.3828" y2="413.3828"/><polygon fill="#181818" points="220.25,403.3828,224.25,413.3828,228.25,403.3828,224.25,407.3828" style="stroke:#181818;stroke-width:1.0;"/><line style="stroke:#181818;stroke-width:1.0;" x1="224.25" x2="224.25" y1="275.543" y2="297.043"/><polygon fill="#181818" points="220.25,287.043,224.25,297.043,228.25,287.043,224.25,291.043" style="stroke:#181818;stroke-width:1.0;"/><line style="stroke:#181818;stroke-width:1.0;" x1="224.25" x2="224.25" y1="139.2031" y2="163.6055"/><polygon fill="#181818" points="220.25,153.6055,224.25,163.6055,228.25,153.6055,224.25,157.6055" style="stroke:#181818;stroke-width:1.0;"/><line style="stroke:#181818;stroke-width:1.0;" x1="302.25" x2="486" y1="126.3984" y2="126.3984"/><polygon fill="#181818" points="482,285.543,486,295.543,490,285.543,486,289.543" style="stroke:#181818;stroke-width:1.0;"/><line style="stroke:#181818;stroke-width:1.0;" x1="486" x2="486" y1="126.3984" y2="469.3828"/><line style="stroke:#181818;stroke-width:1.0;" x1="486" x2="236.25" y1="469.3828" y2="469.3828"/><polygon fill="#181818" points="246.25,465.3828,236.25,469.3828,246.25,473.3828,242.25,469.3828" style="stroke:#181818;stroke-width:1.0;"/><line style="stroke:#181818;stroke-width:1.0;" x1="224.25" x2="224.25" y1="437.3828" y2="457.3828"/><polygon fill="#181818" points="220.25,447.3828,224.25,457.3828,228.25,447.3828,224.25,451.3828" style="stroke:#181818;stroke-width:1.0;"/><line style="stroke:#181818;stroke-width:1.0;" x1="224.25" x2="224.25" y1="481.3828" y2="501.3828"/><polygon fill="#181818" points="220.25,491.3828,224.25,501.3828,228.25,491.3828,224.25,495.3828" style="stroke:#181818;stroke-width:1.0;"/><line style="stroke:#181818;stroke-width:1.0;" x1="224.25" x2="224.25" y1="67.2969" y2="113.5938"/><polygon fill="#181818" points="220.25,103.5938,224.25,113.5938,228.25,103.5938,224.25,107.5938" style="stroke:#181818;stroke-width:1.0;"/><line style="stroke:#181818;stroke-width:1.0;" x1="224.25" x2="224.25" y1="535.3516" y2="567.3516"/><polygon fill="#181818" points="220.25,557.3516,224.25,567.3516,228.25,557.3516,224.25,561.3516" style="stroke:#181818;stroke-width:1.0;"/><!--SRC=[AyaioKbLUBvnzzEk1I_sxdqwSmM40HHvFglbnVxsvokwkOfB4ejAkDAByaiB59np4ekBVV8JKrABb7E059ZFbPcceF6if_tfkbb0ZSzch7ywOTdJxPkUx-v_iMWrn42WKU_tp8_9qrGeoKZD0wgUiLwJYvChDQSuLK43g1p80Hdol6CRicCWHZtPqVjanwxdAtS1JK3Lpscby7Jvb6TRzZtVFHDDwzE-tN2lnEHXTROr5oUo_SY6FPsm_cdN2kBCIylCIt7ApoyfBYbAB01B-1VvbURaW8pFIybCW_WChXdYfsST4vvseVi6tJrFzqv-sjbBl2lWlW9R2o6j55xid_9qzZoejbajG9tM83a5S8I2M000]--></g></svg>