<?xml version="1.0" encoding="us-ascii" standalone="no"?><svg xmlns="http://www.w3.org/2000/svg" xmlns:xlink="http://www.w3.org/1999/xlink" contentStyleType="text/css" height="86px" preserveAspectRatio="none" style="width:648px;height:86px;background:#FFFFFF;" version="1.1" viewBox="0 0 648 86" width="648px" zoomAndPan="magnify"><defs/><g><text fill="#000000" font-family="sans-serif" font-size="14" font-weight="bold" lengthAdjust="spacing" textLength="126" x="254" y="22.9951">&#38142;&#34920;&#27861;&#35299;&#20915;&#21704;&#24076;&#20914;&#31361;</text><!--entity a--><g id="elem_a"><rect fill="#FFFFFF" height="36.2969" rx="2.5" ry="2.5" style="stroke:#181818;stroke-width:0.5;" width="99" x="7" y="44.2969"/><text fill="#000000" font-family="sans-serif" font-size="14" lengthAdjust="spacing" textLength="79" x="17" y="67.292">hash: 9527</text></g><!--entity b--><g id="elem_b"><rect fill="#FFFFFF" height="36.2969" rx="2.5" ry="2.5" style="stroke:#181818;stroke-width:0.5;" width="99" x="141" y="44.2969"/><text fill="#000000" font-family="sans-serif" font-size="14" lengthAdjust="spacing" textLength="79" x="151" y="67.292">hash: 9527</text></g><!--entity c--><g id="elem_c"><rect fill="#FFFFFF" height="36.2969" rx="2.5" ry="2.5" style="stroke:#181818;stroke-width:0.5;" width="99" x="275" y="44.2969"/><text fill="#000000" font-family="sans-serif" font-size="14" lengthAdjust="spacing" textLength="79" x="285" y="67.292">hash: 9527</text></g><!--entity d--><g id="elem_d"><rect fill="#FFFFFF" height="36.2969" rx="2.5" ry="2.5" style="stroke:#181818;stroke-width:0.5;" width="99" x="409" y="44.2969"/><text fill="#000000" font-family="sans-serif" font-size="14" lengthAdjust="spacing" textLength="79" x="419" y="67.292">hash: 9527</text></g><!--entity e--><g id="elem_e"><rect fill="#FFFFFF" height="36.2969" rx="2.5" ry="2.5" style="stroke:#181818;stroke-width:0.5;" width="99" x="543" y="44.2969"/><text fill="#000000" font-family="sans-serif" font-size="14" lengthAdjust="spacing" textLength="79" x="553" y="67.292">hash: 9527</text></g><!--link a to b--><g id="link_a_b"><path d="M106.49,62.4469 C115.91,62.4469 125.33,62.4469 134.75,62.4469 " fill="none" id="a-to-b" style="stroke:#181818;stroke-width:1.0;"/><polygon fill="#181818" points="139.62,62.4469,130.62,58.4469,134.62,62.4469,130.62,66.4469,139.62,62.4469" style="stroke:#181818;stroke-width:1.0;"/></g><!--link b to c--><g id="link_b_c"><path d="M240.49,62.4469 C249.91,62.4469 259.33,62.4469 268.75,62.4469 " fill="none" id="b-to-c" style="stroke:#181818;stroke-width:1.0;"/><polygon fill="#181818" points="273.62,62.4469,264.62,58.4469,268.62,62.4469,264.62,66.4469,273.62,62.4469" style="stroke:#181818;stroke-width:1.0;"/></g><!--link c to d--><g id="link_c_d"><path d="M374.49,62.4469 C383.91,62.4469 393.33,62.4469 402.75,62.4469 " fill="none" id="c-to-d" style="stroke:#181818;stroke-width:1.0;"/><polygon fill="#181818" points="407.62,62.4469,398.62,58.4469,402.62,62.4469,398.62,66.4469,407.62,62.4469" style="stroke:#181818;stroke-width:1.0;"/></g><!--link d to e--><g id="link_d_e"><path d="M508.49,62.4469 C517.91,62.4469 527.33,62.4469 536.75,62.4469 " fill="none" id="d-to-e" style="stroke:#181818;stroke-width:1.0;"/><polygon fill="#181818" points="541.62,62.4469,532.62,58.4469,536.62,62.4469,532.62,66.4469,541.62,62.4469" style="stroke:#181818;stroke-width:1.0;"/></g><!--SRC=[AyaioKbLU3bvtuk5AvvjdlfY-UAdRPkVJkvukgFdQTkcvwiQkOfIaqiIyzA1gfJBCp9BKXMKCXABCwmKB4sDp9KK51AB5HA9K9D4X9fa8jIa4A4cbIjHGTSEQ6KIY4hcIWPHALmf82eL0000]--></g></svg>