<?xml version="1.0" encoding="us-ascii" standalone="no"?><svg xmlns="http://www.w3.org/2000/svg" xmlns:xlink="http://www.w3.org/1999/xlink" contentStyleType="text/css" height="375px" preserveAspectRatio="none" style="width:739px;height:375px;background:#FFFFFF;" version="1.1" viewBox="0 0 739 375" width="739px" zoomAndPan="magnify"><defs/><g><!--class TransactionAttributeSource--><g id="elem_TransactionAttributeSource"><rect codeLine="1" fill="#F1F1F1" height="80.5938" id="TransactionAttributeSource" rx="2.5" ry="2.5" style="stroke:#181818;stroke-width:0.5;" width="472" x="28.5" y="7"/><ellipse cx="165.75" cy="23" fill="#B4A7E5" rx="11" ry="11" style="stroke:#181818;stroke-width:1.0;"/><path d="M161.6719,18.7656 L161.6719,16.6094 L169.0625,16.6094 L169.0625,18.7656 L166.5938,18.7656 L166.5938,26.8438 L169.0625,26.8438 L169.0625,29 L161.6719,29 L161.6719,26.8438 L164.1406,26.8438 L164.1406,18.7656 L161.6719,18.7656 Z " fill="#000000"/><text fill="#000000" font-family="sans-serif" font-size="14" font-style="italic" lengthAdjust="spacing" textLength="189" x="186.25" y="27.8467">TransactionAttributeSource</text><line style="stroke:#181818;stroke-width:0.5;" x1="29.5" x2="499.5" y1="39" y2="39"/><line style="stroke:#181818;stroke-width:0.5;" x1="29.5" x2="499.5" y1="47" y2="47"/><ellipse cx="39.5" cy="60.6484" fill="#84BE84" rx="3" ry="3" style="stroke:#038048;stroke-width:1.0;"/><text fill="#000000" font-family="sans-serif" font-size="14" lengthAdjust="spacing" textLength="256" x="48.5" y="63.9951">isCandidateClass(Class&lt;?&gt;) boolean</text><ellipse cx="39.5" cy="76.9453" fill="#84BE84" rx="3" ry="3" style="stroke:#038048;stroke-width:1.0;"/><text fill="#000000" font-family="sans-serif" font-size="14" lengthAdjust="spacing" textLength="446" x="48.5" y="80.292">getTransactionAttribute(Method, Class&lt;?&gt;) TransactionAttribute</text></g><!--class AbstractFallbackTransactionAttributeSource--><g id="elem_AbstractFallbackTransactionAttributeSource"><rect codeLine="5" fill="#F1F1F1" height="96.8906" id="AbstractFallbackTransactionAttributeSource" rx="2.5" ry="2.5" style="stroke:#181818;stroke-width:0.5;" width="511" x="9" y="147.59"/><ellipse cx="109.75" cy="163.59" fill="#A9DCDF" rx="11" ry="11" style="stroke:#181818;stroke-width:1.0;"/><path d="M109.8594,158.9337 L108.7031,164.0119 L111.0313,164.0119 L109.8594,158.9337 Z M108.375,156.6994 L111.3594,156.6994 L114.7188,169.09 L112.2656,169.09 L111.5,166.0275 L108.2188,166.0275 L107.4688,169.09 L105.0313,169.09 L108.375,156.6994 Z " fill="#000000"/><text fill="#000000" font-family="sans-serif" font-size="14" font-style="italic" lengthAdjust="spacing" textLength="301" x="130.25" y="168.4367">AbstractFallbackTransactionAttributeSource</text><line style="stroke:#181818;stroke-width:0.5;" x1="10" x2="519" y1="179.59" y2="179.59"/><line style="stroke:#181818;stroke-width:0.5;" x1="10" x2="519" y1="187.59" y2="187.59"/><polygon fill="#4177AF" points="20,197.2384,16,203.2384,24,203.2384" style="stroke:#1963A0;stroke-width:1.0;"/><text fill="#000000" font-family="sans-serif" font-size="14" lengthAdjust="spacing" textLength="485" x="29" y="204.5851">computeTransactionAttribute(Method, Class&lt;?&gt;) TransactionAttribute</text><polygon fill="#4177AF" points="20,213.5353,16,219.5353,24,219.5353" style="stroke:#1963A0;stroke-width:1.0;"/><text fill="#000000" font-family="sans-serif" font-size="14" font-style="italic" lengthAdjust="spacing" textLength="372" x="29" y="220.882">findTransactionAttribute(Method) TransactionAttribute</text><polygon fill="#4177AF" points="20,229.8322,16,235.8322,24,235.8322" style="stroke:#1963A0;stroke-width:1.0;"/><text fill="#000000" font-family="sans-serif" font-size="14" font-style="italic" lengthAdjust="spacing" textLength="387" x="29" y="237.1789">findTransactionAttribute(Class&lt;?&gt;) TransactionAttribute</text></g><!--class AnnotationTransactionAttributeSource--><g id="elem_AnnotationTransactionAttributeSource"><rect codeLine="10" fill="#F1F1F1" height="64.2969" id="AnnotationTransactionAttributeSource" rx="2.5" ry="2.5" style="stroke:#181818;stroke-width:0.5;" width="403" x="63" y="304.48"/><ellipse cx="128.25" cy="320.48" fill="#ADD1B2" rx="11" ry="11" style="stroke:#181818;stroke-width:1.0;"/><path d="M131.2188,326.1206 Q130.6406,326.4175 130,326.5581 Q129.3594,326.7144 128.6563,326.7144 Q126.1563,326.7144 124.8281,325.0737 Q123.5156,323.4175 123.5156,320.2925 Q123.5156,317.1675 124.8281,315.5112 Q126.1563,313.855 128.6563,313.855 Q129.3594,313.855 130,314.0112 Q130.6563,314.1675 131.2188,314.4644 L131.2188,317.1831 Q130.5938,316.605 130,316.3394 Q129.4063,316.0581 128.7813,316.0581 Q127.4375,316.0581 126.75,317.1362 Q126.0625,318.1987 126.0625,320.2925 Q126.0625,322.3862 126.75,323.4644 Q127.4375,324.5269 128.7813,324.5269 Q129.4063,324.5269 130,324.2612 Q130.5938,323.98 131.2188,323.4019 L131.2188,326.1206 Z " fill="#000000"/><text fill="#000000" font-family="sans-serif" font-size="14" lengthAdjust="spacing" textLength="264" x="148.75" y="325.3267">AnnotationTransactionAttributeSource</text><line style="stroke:#181818;stroke-width:0.5;" x1="64" x2="465" y1="336.48" y2="336.48"/><rect fill="none" height="6" style="stroke:#C82930;stroke-width:1.0;" width="6" x="71" y="347.1284"/><text fill="#000000" font-family="sans-serif" font-size="14" lengthAdjust="spacing" textLength="377" x="83" y="353.4751">Set&lt;TransactionAnnotationParser&gt; annotationParsers</text><line style="stroke:#181818;stroke-width:0.5;" x1="64" x2="465" y1="360.7769" y2="360.7769"/></g><!--class TransactionAnnotationParser--><g id="elem_TransactionAnnotationParser"><rect fill="#F1F1F1" height="48" id="TransactionAnnotationParser" rx="2.5" ry="2.5" style="stroke:#181818;stroke-width:0.5;" width="232" x="500.5" y="312.63"/><ellipse cx="515.5" cy="328.63" fill="#ADD1B2" rx="11" ry="11" style="stroke:#181818;stroke-width:1.0;"/><path d="M518.4688,334.2706 Q517.8906,334.5675 517.25,334.7081 Q516.6094,334.8644 515.9063,334.8644 Q513.4063,334.8644 512.0781,333.2238 Q510.7656,331.5675 510.7656,328.4425 Q510.7656,325.3175 512.0781,323.6613 Q513.4063,322.005 515.9063,322.005 Q516.6094,322.005 517.25,322.1613 Q517.9063,322.3175 518.4688,322.6144 L518.4688,325.3331 Q517.8438,324.755 517.25,324.4894 Q516.6563,324.2081 516.0313,324.2081 Q514.6875,324.2081 514,325.2863 Q513.3125,326.3488 513.3125,328.4425 Q513.3125,330.5363 514,331.6144 Q514.6875,332.6769 516.0313,332.6769 Q516.6563,332.6769 517.25,332.4113 Q517.8438,332.13 518.4688,331.5519 L518.4688,334.2706 Z " fill="#000000"/><text fill="#000000" font-family="sans-serif" font-size="14" lengthAdjust="spacing" textLength="200" x="529.5" y="333.4767">TransactionAnnotationParser</text><line style="stroke:#181818;stroke-width:0.5;" x1="501.5" x2="731.5" y1="344.63" y2="344.63"/><line style="stroke:#181818;stroke-width:0.5;" x1="501.5" x2="731.5" y1="352.63" y2="352.63"/></g><!--reverse link TransactionAttributeSource to AbstractFallbackTransactionAttributeSource--><g id="link_TransactionAttributeSource_AbstractFallbackTransactionAttributeSource"><path codeLine="13" d="M264.5,108.77 C264.5,121.58 264.5,134.93 264.5,147.2 " fill="none" id="TransactionAttributeSource-backto-AbstractFallbackTransactionAttributeSource" style="stroke:#181818;stroke-width:1.0;stroke-dasharray:7.0,7.0;"/><polygon fill="none" points="257.5,109.01,264.5,89.01,271.5,109.01,257.5,109.01" style="stroke:#181818;stroke-width:1.0;"/></g><!--reverse link AbstractFallbackTransactionAttributeSource to AnnotationTransactionAttributeSource--><g id="link_AbstractFallbackTransactionAttributeSource_AnnotationTransactionAttributeSource"><path codeLine="14" d="M264.5,265.7 C264.5,279.26 264.5,292.84 264.5,304.38 " fill="none" id="AbstractFallbackTransactionAttributeSource-backto-AnnotationTransactionAttributeSource" style="stroke:#181818;stroke-width:1.0;"/><polygon fill="none" points="257.5,265.73,264.5,245.73,271.5,265.73,257.5,265.73" style="stroke:#181818;stroke-width:1.0;"/></g><!--reverse link AnnotationTransactionAttributeSource to TransactionAnnotationParser--><g id="link_AnnotationTransactionAttributeSource_TransactionAnnotationParser"><path codeLine="15" d="M480.25,336.63 C486.84,336.63 493.43,336.63 500.02,336.63 " fill="none" id="AnnotationTransactionAttributeSource-backto-TransactionAnnotationParser" style="stroke:#181818;stroke-width:1.0;stroke-dasharray:7.0,7.0;"/><polygon fill="#181818" points="467.28,336.63,473.28,340.63,479.28,336.63,473.28,332.63,467.28,336.63" style="stroke:#181818;stroke-width:1.0;"/><text fill="#000000" font-family="sans-serif" font-size="13" lengthAdjust="spacing" textLength="8" x="474.3183" y="333.4066">1</text><text fill="#000000" font-family="sans-serif" font-size="13" lengthAdjust="spacing" textLength="8" x="484.6783" y="333.2439">n</text></g><!--SRC=[fPBB2i8m44NNzYk6hdoru5ug8hWJ1Fs1QJfgi4uacQvyVBkf-48aLjm4CdFdpCqbceNi2XN1qY8xLA8DZqMipYkXXQciRnsYLW-qco0Nka2XIOdEjQ_dS9Hr83Uc9EHQjIRv16hFI3QcwCDpw9CiEaMOEx6-3AfMmlXsdM9PvgYsOPTdK6QtzwL_F7ZAuUxY12lDHO3s7-Dh6hSGc8rWtGi_Fu45oV1LynYSetLaCy2tYlDBViWuhT9Z5lWgKIEhIPLuIlErpQZn88PkQbE8EOP021S0]--></g></svg>