<?xml version="1.0" encoding="us-ascii" standalone="no"?><svg xmlns="http://www.w3.org/2000/svg" xmlns:xlink="http://www.w3.org/1999/xlink" contentStyleType="text/css" height="423px" preserveAspectRatio="none" style="width:1002px;height:423px;background:#FFFFFF;" version="1.1" viewBox="0 0 1002 423" width="1002px" zoomAndPan="magnify"><defs/><g><text fill="#000000" font-family="sans-serif" font-size="14" font-weight="bold" lengthAdjust="spacing" textLength="255" x="366.5" y="22.9951">Java Collections Framework-Map</text><!--class Map--><g id="elem_Map"><rect codeLine="2" fill="#F1F1F1" height="48" id="Map" rx="2.5" ry="2.5" style="stroke:#181818;stroke-width:0.5;" width="61" x="451" y="44.2969"/><ellipse cx="466" cy="60.2969" fill="#B4A7E5" rx="11" ry="11" style="stroke:#181818;stroke-width:1.0;"/><path d="M461.9219,56.0625 L461.9219,53.9063 L469.3125,53.9063 L469.3125,56.0625 L466.8438,56.0625 L466.8438,64.1406 L469.3125,64.1406 L469.3125,66.2969 L461.9219,66.2969 L461.9219,64.1406 L464.3906,64.1406 L464.3906,56.0625 L461.9219,56.0625 Z " fill="#000000"/><text fill="#000000" font-family="sans-serif" font-size="14" font-style="italic" lengthAdjust="spacing" textLength="29" x="480" y="65.1436">Map</text><line style="stroke:#181818;stroke-width:0.5;" x1="452" x2="511" y1="76.2969" y2="76.2969"/><line style="stroke:#181818;stroke-width:0.5;" x1="452" x2="511" y1="84.2969" y2="84.2969"/></g><!--class SortedMap--><g id="elem_SortedMap"><rect codeLine="3" fill="#F1F1F1" height="48" id="SortedMap" rx="2.5" ry="2.5" style="stroke:#181818;stroke-width:0.5;" width="107" x="330" y="152.2969"/><ellipse cx="345" cy="168.2969" fill="#B4A7E5" rx="11" ry="11" style="stroke:#181818;stroke-width:1.0;"/><path d="M340.9219,164.0625 L340.9219,161.9063 L348.3125,161.9063 L348.3125,164.0625 L345.8438,164.0625 L345.8438,172.1406 L348.3125,172.1406 L348.3125,174.2969 L340.9219,174.2969 L340.9219,172.1406 L343.3906,172.1406 L343.3906,164.0625 L340.9219,164.0625 Z " fill="#000000"/><text fill="#000000" font-family="sans-serif" font-size="14" font-style="italic" lengthAdjust="spacing" textLength="75" x="359" y="173.1436">SortedMap</text><line style="stroke:#181818;stroke-width:0.5;" x1="331" x2="436" y1="184.2969" y2="184.2969"/><line style="stroke:#181818;stroke-width:0.5;" x1="331" x2="436" y1="192.2969" y2="192.2969"/></g><!--class NavigableMap--><g id="elem_NavigableMap"><rect codeLine="4" fill="#F1F1F1" height="48" id="NavigableMap" rx="2.5" ry="2.5" style="stroke:#181818;stroke-width:0.5;" width="127" x="297" y="260.2969"/><ellipse cx="312" cy="276.2969" fill="#B4A7E5" rx="11" ry="11" style="stroke:#181818;stroke-width:1.0;"/><path d="M307.9219,272.0625 L307.9219,269.9063 L315.3125,269.9063 L315.3125,272.0625 L312.8438,272.0625 L312.8438,280.1406 L315.3125,280.1406 L315.3125,282.2969 L307.9219,282.2969 L307.9219,280.1406 L310.3906,280.1406 L310.3906,272.0625 L307.9219,272.0625 Z " fill="#000000"/><text fill="#000000" font-family="sans-serif" font-size="14" font-style="italic" lengthAdjust="spacing" textLength="95" x="326" y="281.1436">NavigableMap</text><line style="stroke:#181818;stroke-width:0.5;" x1="298" x2="423" y1="292.2969" y2="292.2969"/><line style="stroke:#181818;stroke-width:0.5;" x1="298" x2="423" y1="300.2969" y2="300.2969"/></g><!--class HashMap--><g id="elem_HashMap"><rect codeLine="5" fill="#F1F1F1" height="48" id="HashMap" rx="2.5" ry="2.5" style="stroke:#181818;stroke-width:0.5;" width="96" x="609.5" y="44.2969"/><ellipse cx="624.5" cy="60.2969" fill="#ADD1B2" rx="11" ry="11" style="stroke:#181818;stroke-width:1.0;"/><path d="M627.4688,65.9375 Q626.8906,66.2344 626.25,66.375 Q625.6094,66.5313 624.9063,66.5313 Q622.4063,66.5313 621.0781,64.8906 Q619.7656,63.2344 619.7656,60.1094 Q619.7656,56.9844 621.0781,55.3281 Q622.4063,53.6719 624.9063,53.6719 Q625.6094,53.6719 626.25,53.8281 Q626.9063,53.9844 627.4688,54.2813 L627.4688,57 Q626.8438,56.4219 626.25,56.1563 Q625.6563,55.875 625.0313,55.875 Q623.6875,55.875 623,56.9531 Q622.3125,58.0156 622.3125,60.1094 Q622.3125,62.2031 623,63.2813 Q623.6875,64.3438 625.0313,64.3438 Q625.6563,64.3438 626.25,64.0781 Q626.8438,63.7969 627.4688,63.2188 L627.4688,65.9375 Z " fill="#000000"/><text fill="#000000" font-family="sans-serif" font-size="14" lengthAdjust="spacing" textLength="64" x="638.5" y="65.1436">HashMap</text><line style="stroke:#181818;stroke-width:0.5;" x1="610.5" x2="704.5" y1="76.2969" y2="76.2969"/><line style="stroke:#181818;stroke-width:0.5;" x1="610.5" x2="704.5" y1="84.2969" y2="84.2969"/></g><!--class LinkedHashMap--><g id="elem_LinkedHashMap"><rect codeLine="6" fill="#F1F1F1" height="48" id="LinkedHashMap" rx="2.5" ry="2.5" style="stroke:#181818;stroke-width:0.5;" width="141" x="608" y="152.2969"/><ellipse cx="623" cy="168.2969" fill="#ADD1B2" rx="11" ry="11" style="stroke:#181818;stroke-width:1.0;"/><path d="M625.9688,173.9375 Q625.3906,174.2344 624.75,174.375 Q624.1094,174.5313 623.4063,174.5313 Q620.9063,174.5313 619.5781,172.8906 Q618.2656,171.2344 618.2656,168.1094 Q618.2656,164.9844 619.5781,163.3281 Q620.9063,161.6719 623.4063,161.6719 Q624.1094,161.6719 624.75,161.8281 Q625.4063,161.9844 625.9688,162.2813 L625.9688,165 Q625.3438,164.4219 624.75,164.1563 Q624.1563,163.875 623.5313,163.875 Q622.1875,163.875 621.5,164.9531 Q620.8125,166.0156 620.8125,168.1094 Q620.8125,170.2031 621.5,171.2813 Q622.1875,172.3438 623.5313,172.3438 Q624.1563,172.3438 624.75,172.0781 Q625.3438,171.7969 625.9688,171.2188 L625.9688,173.9375 Z " fill="#000000"/><text fill="#000000" font-family="sans-serif" font-size="14" lengthAdjust="spacing" textLength="109" x="637" y="173.1436">LinkedHashMap</text><line style="stroke:#181818;stroke-width:0.5;" x1="609" x2="748" y1="184.2969" y2="184.2969"/><line style="stroke:#181818;stroke-width:0.5;" x1="609" x2="748" y1="192.2969" y2="192.2969"/></g><!--class TreeMap--><g id="elem_TreeMap"><rect codeLine="7" fill="#F1F1F1" height="48" id="TreeMap" rx="2.5" ry="2.5" style="stroke:#181818;stroke-width:0.5;" width="93" x="314" y="368.2969"/><ellipse cx="329" cy="384.2969" fill="#ADD1B2" rx="11" ry="11" style="stroke:#181818;stroke-width:1.0;"/><path d="M331.9688,389.9375 Q331.3906,390.2344 330.75,390.375 Q330.1094,390.5313 329.4063,390.5313 Q326.9063,390.5313 325.5781,388.8906 Q324.2656,387.2344 324.2656,384.1094 Q324.2656,380.9844 325.5781,379.3281 Q326.9063,377.6719 329.4063,377.6719 Q330.1094,377.6719 330.75,377.8281 Q331.4063,377.9844 331.9688,378.2813 L331.9688,381 Q331.3438,380.4219 330.75,380.1563 Q330.1563,379.875 329.5313,379.875 Q328.1875,379.875 327.5,380.9531 Q326.8125,382.0156 326.8125,384.1094 Q326.8125,386.2031 327.5,387.2813 Q328.1875,388.3438 329.5313,388.3438 Q330.1563,388.3438 330.75,388.0781 Q331.3438,387.7969 331.9688,387.2188 L331.9688,389.9375 Z " fill="#000000"/><text fill="#000000" font-family="sans-serif" font-size="14" lengthAdjust="spacing" textLength="61" x="343" y="389.1436">TreeMap</text><line style="stroke:#181818;stroke-width:0.5;" x1="315" x2="406" y1="400.2969" y2="400.2969"/><line style="stroke:#181818;stroke-width:0.5;" x1="315" x2="406" y1="408.2969" y2="408.2969"/></g><!--class EnumMap--><g id="elem_EnumMap"><rect codeLine="8" fill="#F1F1F1" height="48" id="EnumMap" rx="2.5" ry="2.5" style="stroke:#181818;stroke-width:0.5;" width="101" x="472" y="152.2969"/><ellipse cx="487" cy="168.2969" fill="#ADD1B2" rx="11" ry="11" style="stroke:#181818;stroke-width:1.0;"/><path d="M489.9688,173.9375 Q489.3906,174.2344 488.75,174.375 Q488.1094,174.5313 487.4063,174.5313 Q484.9063,174.5313 483.5781,172.8906 Q482.2656,171.2344 482.2656,168.1094 Q482.2656,164.9844 483.5781,163.3281 Q484.9063,161.6719 487.4063,161.6719 Q488.1094,161.6719 488.75,161.8281 Q489.4063,161.9844 489.9688,162.2813 L489.9688,165 Q489.3438,164.4219 488.75,164.1563 Q488.1563,163.875 487.5313,163.875 Q486.1875,163.875 485.5,164.9531 Q484.8125,166.0156 484.8125,168.1094 Q484.8125,170.2031 485.5,171.2813 Q486.1875,172.3438 487.5313,172.3438 Q488.1563,172.3438 488.75,172.0781 Q489.3438,171.7969 489.9688,171.2188 L489.9688,173.9375 Z " fill="#000000"/><text fill="#000000" font-family="sans-serif" font-size="14" lengthAdjust="spacing" textLength="69" x="501" y="173.1436">EnumMap</text><line style="stroke:#181818;stroke-width:0.5;" x1="473" x2="572" y1="184.2969" y2="184.2969"/><line style="stroke:#181818;stroke-width:0.5;" x1="473" x2="572" y1="192.2969" y2="192.2969"/></g><!--class Hashtable--><g id="elem_Hashtable"><rect codeLine="9" fill="#F1F1F1" height="48" id="Hashtable" rx="2.5" ry="2.5" style="stroke:#181818;stroke-width:0.5;" width="101" x="234" y="44.2969"/><ellipse cx="249" cy="60.2969" fill="#ADD1B2" rx="11" ry="11" style="stroke:#181818;stroke-width:1.0;"/><path d="M251.9688,65.9375 Q251.3906,66.2344 250.75,66.375 Q250.1094,66.5313 249.4063,66.5313 Q246.9063,66.5313 245.5781,64.8906 Q244.2656,63.2344 244.2656,60.1094 Q244.2656,56.9844 245.5781,55.3281 Q246.9063,53.6719 249.4063,53.6719 Q250.1094,53.6719 250.75,53.8281 Q251.4063,53.9844 251.9688,54.2813 L251.9688,57 Q251.3438,56.4219 250.75,56.1563 Q250.1563,55.875 249.5313,55.875 Q248.1875,55.875 247.5,56.9531 Q246.8125,58.0156 246.8125,60.1094 Q246.8125,62.2031 247.5,63.2813 Q248.1875,64.3438 249.5313,64.3438 Q250.1563,64.3438 250.75,64.0781 Q251.3438,63.7969 251.9688,63.2188 L251.9688,65.9375 Z " fill="#000000"/><text fill="#000000" font-family="sans-serif" font-size="14" lengthAdjust="spacing" textLength="69" x="263" y="65.1436">Hashtable</text><line style="stroke:#181818;stroke-width:0.5;" x1="235" x2="334" y1="76.2969" y2="76.2969"/><line style="stroke:#181818;stroke-width:0.5;" x1="235" x2="334" y1="84.2969" y2="84.2969"/></g><!--class Properties--><g id="elem_Properties"><rect codeLine="10" fill="#F1F1F1" height="48" id="Properties" rx="2.5" ry="2.5" style="stroke:#181818;stroke-width:0.5;" width="103" x="192" y="152.2969"/><ellipse cx="207" cy="168.2969" fill="#ADD1B2" rx="11" ry="11" style="stroke:#181818;stroke-width:1.0;"/><path d="M209.9688,173.9375 Q209.3906,174.2344 208.75,174.375 Q208.1094,174.5313 207.4063,174.5313 Q204.9063,174.5313 203.5781,172.8906 Q202.2656,171.2344 202.2656,168.1094 Q202.2656,164.9844 203.5781,163.3281 Q204.9063,161.6719 207.4063,161.6719 Q208.1094,161.6719 208.75,161.8281 Q209.4063,161.9844 209.9688,162.2813 L209.9688,165 Q209.3438,164.4219 208.75,164.1563 Q208.1563,163.875 207.5313,163.875 Q206.1875,163.875 205.5,164.9531 Q204.8125,166.0156 204.8125,168.1094 Q204.8125,170.2031 205.5,171.2813 Q206.1875,172.3438 207.5313,172.3438 Q208.1563,172.3438 208.75,172.0781 Q209.3438,171.7969 209.9688,171.2188 L209.9688,173.9375 Z " fill="#000000"/><text fill="#000000" font-family="sans-serif" font-size="14" lengthAdjust="spacing" textLength="71" x="221" y="173.1436">Properties</text><line style="stroke:#181818;stroke-width:0.5;" x1="193" x2="294" y1="184.2969" y2="184.2969"/><line style="stroke:#181818;stroke-width:0.5;" x1="193" x2="294" y1="192.2969" y2="192.2969"/></g><g id="elem_GMN26"><path d="M740.5,48.1669 L740.5,64.2969 L705.69,68.2969 L740.5,72.2969 L740.5,88.4325 A0,0 0 0 0 740.5,88.4325 L912.5,88.4325 A0,0 0 0 0 912.5,88.4325 L912.5,58.1669 L902.5,48.1669 L740.5,48.1669 A0,0 0 0 0 740.5,48.1669 " fill="#FEFFDD" style="stroke:#181818;stroke-width:0.5;"/><path d="M902.5,48.1669 L902.5,58.1669 L912.5,58.1669 L902.5,48.1669 " fill="#FEFFDD" style="stroke:#181818;stroke-width:0.5;"/><text fill="#000000" font-family="sans-serif" font-size="13" lengthAdjust="spacing" textLength="143" x="746.5" y="65.2338">&#22522;&#20110;&#25968;&#32452;&#65292;&#38142;&#34920;&#21644;&#32418;&#40657;&#26641;</text><text fill="#000000" font-family="sans-serif" font-size="13" lengthAdjust="spacing" textLength="151" x="746.5" y="80.3666">&#32447;&#31243;&#19981;&#23433;&#20840;&#30340;&#65288;fast-fail&#65289;</text></g><g id="elem_GMN29"><path d="M784,156.1669 L784,172.2969 L749.38,176.2969 L784,180.2969 L784,196.4325 A0,0 0 0 0 784,196.4325 L995,196.4325 A0,0 0 0 0 995,196.4325 L995,166.1669 L985,156.1669 L784,156.1669 A0,0 0 0 0 784,156.1669 " fill="#FEFFDD" style="stroke:#181818;stroke-width:0.5;"/><path d="M985,156.1669 L985,166.1669 L995,166.1669 L985,156.1669 " fill="#FEFFDD" style="stroke:#181818;stroke-width:0.5;"/><text fill="#000000" font-family="sans-serif" font-size="13" lengthAdjust="spacing" textLength="190" x="790" y="173.2338">&#32487;&#25215;HashMap&#65292;&#21452;&#21521;&#38142;&#34920;&#65292;&#26377;&#24207;</text><text fill="#000000" font-family="sans-serif" font-size="13" lengthAdjust="spacing" textLength="151" x="790" y="188.3666">&#32447;&#31243;&#19981;&#23433;&#20840;&#30340;&#65288;fast-fail&#65289;</text></g><g id="elem_GMN32"><path d="M106.5,372.1669 L106.5,412.4325 A0,0 0 0 0 106.5,412.4325 L278.5,412.4325 A0,0 0 0 0 278.5,412.4325 L278.5,396.2969 L313.58,392.2969 L278.5,388.2969 L278.5,382.1669 L268.5,372.1669 L106.5,372.1669 A0,0 0 0 0 106.5,372.1669 " fill="#FEFFDD" style="stroke:#181818;stroke-width:0.5;"/><path d="M268.5,372.1669 L268.5,382.1669 L278.5,382.1669 L268.5,372.1669 " fill="#FEFFDD" style="stroke:#181818;stroke-width:0.5;"/><text fill="#000000" font-family="sans-serif" font-size="13" lengthAdjust="spacing" textLength="104" x="112.5" y="389.2338">&#22522;&#20110;&#32418;&#40657;&#26641;&#65292;&#26377;&#24207;</text><text fill="#000000" font-family="sans-serif" font-size="13" lengthAdjust="spacing" textLength="151" x="112.5" y="404.3666">&#32447;&#31243;&#19981;&#23433;&#20840;&#30340;&#65288;fast-fail&#65289;</text></g><g id="elem_GMN35"><path d="M459.5,264.1669 L459.5,304.4325 A0,0 0 0 0 459.5,304.4325 L631.5,304.4325 A0,0 0 0 0 631.5,304.4325 L631.5,274.1669 L621.5,264.1669 L545.31,264.1669 L527.55,200.5569 L537.31,264.1669 L459.5,264.1669 A0,0 0 0 0 459.5,264.1669 " fill="#FEFFDD" style="stroke:#181818;stroke-width:0.5;"/><path d="M621.5,264.1669 L621.5,274.1669 L631.5,274.1669 L621.5,264.1669 " fill="#FEFFDD" style="stroke:#181818;stroke-width:0.5;"/><text fill="#000000" font-family="sans-serif" font-size="13" lengthAdjust="spacing" textLength="52" x="465.5" y="281.2338">&#22522;&#20110;&#25968;&#32452;</text><text fill="#000000" font-family="sans-serif" font-size="13" lengthAdjust="spacing" textLength="151" x="465.5" y="296.3666">&#32447;&#31243;&#19981;&#23433;&#20840;&#30340;&#65288;fast-fail&#65289;</text></g><g id="elem_GMN38"><path d="M48,48.1669 L48,88.4325 A0,0 0 0 0 48,88.4325 L199,88.4325 A0,0 0 0 0 199,88.4325 L199,72.2969 L233.57,68.2969 L199,64.2969 L199,58.1669 L189,48.1669 L48,48.1669 A0,0 0 0 0 48,48.1669 " fill="#FEFFDD" style="stroke:#181818;stroke-width:0.5;"/><path d="M189,48.1669 L189,58.1669 L199,58.1669 L189,48.1669 " fill="#FEFFDD" style="stroke:#181818;stroke-width:0.5;"/><text fill="#000000" font-family="sans-serif" font-size="13" lengthAdjust="spacing" textLength="91" x="54" y="65.2338">&#22522;&#20110;&#25968;&#32452;&#21644;&#38142;&#34920;</text><text fill="#000000" font-family="sans-serif" font-size="13" lengthAdjust="spacing" textLength="130" x="54" y="80.3666">&#32447;&#31243;&#23433;&#20840;&#30340;&#65288;&#20869;&#32622;&#38145;&#65289;</text></g><g id="elem_GMN41"><path d="M6,156.1669 L6,196.4325 A0,0 0 0 0 6,196.4325 L157,196.4325 A0,0 0 0 0 157,196.4325 L157,180.2969 L191.73,176.2969 L157,172.2969 L157,166.1669 L147,156.1669 L6,156.1669 A0,0 0 0 0 6,156.1669 " fill="#FEFFDD" style="stroke:#181818;stroke-width:0.5;"/><path d="M147,156.1669 L147,166.1669 L157,166.1669 L147,156.1669 " fill="#FEFFDD" style="stroke:#181818;stroke-width:0.5;"/><text fill="#000000" font-family="sans-serif" font-size="13" lengthAdjust="spacing" textLength="91" x="12" y="173.2338">&#32487;&#25215;Hashtable</text><text fill="#000000" font-family="sans-serif" font-size="13" lengthAdjust="spacing" textLength="130" x="12" y="188.3666">&#32447;&#31243;&#23433;&#20840;&#30340;&#65288;&#20869;&#32622;&#38145;&#65289;</text></g><!--reverse link Map to SortedMap--><g id="link_Map_SortedMap"><path codeLine="12" d="M445.92,107.7769 C432.2,122.6269 416.95,139.1169 404.96,152.0869 " fill="none" id="Map-backto-SortedMap" style="stroke:#181818;stroke-width:1.0;"/><polygon fill="none" points="440.28,103.4969,458.99,93.5569,450.56,112.9969,440.28,103.4969" style="stroke:#181818;stroke-width:1.0;"/></g><!--reverse link SortedMap to NavigableMap--><g id="link_SortedMap_NavigableMap"><path codeLine="13" d="M374.01,221.0469 C371.1,234.4369 368.02,248.6369 365.54,260.0869 " fill="none" id="SortedMap-backto-NavigableMap" style="stroke:#181818;stroke-width:1.0;"/><polygon fill="none" points="367.37,219.6169,378.45,201.5569,381.05,222.5869,367.37,219.6169" style="stroke:#181818;stroke-width:1.0;"/></g><!--reverse link Map to HashMap--><g id="link_Map_HashMap"><path codeLine="14" d="M533.19,68.2969 C558.48,68.2969 583.77,68.2969 609.05,68.2969 " fill="none" id="Map-backto-HashMap" style="stroke:#181818;stroke-width:1.0;stroke-dasharray:7.0,7.0;"/><polygon fill="none" points="533.44,75.2969,513.44,68.2969,533.44,61.2969,533.44,75.2969" style="stroke:#181818;stroke-width:1.0;"/></g><!--reverse link HashMap to LinkedHashMap--><g id="link_HashMap_LinkedHashMap"><path codeLine="15" d="M666.17,113.0469 C668.82,126.4369 671.63,140.6369 673.9,152.0869 " fill="none" id="HashMap-backto-LinkedHashMap" style="stroke:#181818;stroke-width:1.0;"/><polygon fill="none" points="659.13,114.5369,662.11,93.5569,672.86,111.8169,659.13,114.5369" style="stroke:#181818;stroke-width:1.0;"/></g><!--reverse link NavigableMap to TreeMap--><g id="link_NavigableMap_TreeMap"><path codeLine="16" d="M360.5,329.5369 C360.5,342.7769 360.5,356.7769 360.5,368.0869 " fill="none" id="NavigableMap-backto-TreeMap" style="stroke:#181818;stroke-width:1.0;stroke-dasharray:7.0,7.0;"/><polygon fill="none" points="353.5,329.5569,360.5,309.5569,367.5,329.5569,353.5,329.5569" style="stroke:#181818;stroke-width:1.0;"/></g><!--reverse link Map to EnumMap--><g id="link_Map_EnumMap"><path codeLine="17" d="M498.05,112.0869 C503.34,125.7469 508.99,140.3569 513.52,152.0869 " fill="none" id="Map-backto-EnumMap" style="stroke:#181818;stroke-width:1.0;stroke-dasharray:7.0,7.0;"/><polygon fill="none" points="491.18,114.7369,490.5,93.5569,504.24,109.6869,491.18,114.7369" style="stroke:#181818;stroke-width:1.0;"/></g><!--link Hashtable to Map--><g id="link_Hashtable_Map"><path codeLine="18" d="M335.29,68.2969 C366.84,68.2969 398.38,68.2969 429.93,68.2969 " fill="none" id="Hashtable-to-Map" style="stroke:#181818;stroke-width:1.0;stroke-dasharray:7.0,7.0;"/><polygon fill="none" points="429.66,61.2969,449.66,68.2969,429.66,75.2969,429.66,61.2969" style="stroke:#181818;stroke-width:1.0;"/></g><!--reverse link Hashtable to Properties--><g id="link_Hashtable_Properties"><path codeLine="19" d="M267.95,112.0869 C262.66,125.7469 257.01,140.3569 252.48,152.0869 " fill="none" id="Hashtable-backto-Properties" style="stroke:#181818;stroke-width:1.0;"/><polygon fill="none" points="261.76,109.6869,275.5,93.5569,274.82,114.7369,261.76,109.6869" style="stroke:#181818;stroke-width:1.0;"/></g><!--SRC=[bP6xJiCm58RtF8LV87c03Ym8X10W91XPtDPfhRfnvRXbOK6YY8X2APS58N5Pw5GnehJGbwbZElKLI5AxYM60ZkVavFk_Symn9mXimXO4gvGGLEAOUZvOPx2E3YchsTkmOM6F8-R24W9cjKSPHsMpjmDRk0AB12Nj4e6-3pQWNysgBUpLKDdixJEKcr_pcdNpRvu0LRtBQ0CnZf5lMGi1O3VjevLKBo-WsfcdYWKESTIueQFcjPpI0aupcJOsKuxgaqQddi1XkfUvviZpPIoFSWGOhbGveAwE10KW7iD9U1dTlSdXoMpKcTvyVZttnNL7XY_JOIzwwXruCXpB_lda_K8C0j7ko_juyCo5FhTTYCbi5Fo0cpiMW1o-Hi5OrN66w7R4LM-U59VHGo32xhzZ27BJ57qjlS92U7baaN9EwmbKtzcyoz9ksUEOeFYkyxKrCOyJfstvCPZU7l_2vTurVyqquI_IDm00]--></g></svg>