<?xml version="1.0" encoding="us-ascii" standalone="no"?><svg xmlns="http://www.w3.org/2000/svg" xmlns:xlink="http://www.w3.org/1999/xlink" contentStyleType="text/css" height="516px" preserveAspectRatio="none" style="width:958px;height:516px;background:#FFFFFF;" version="1.1" viewBox="0 0 958 516" width="958px" zoomAndPan="magnify"><defs/><g><!--class BeanDefinition--><g id="elem_BeanDefinition"><rect codeLine="1" fill="#F1F1F1" height="48" id="BeanDefinition" rx="2.5" ry="2.5" style="stroke:#181818;stroke-width:0.5;" width="133" x="540.5" y="7"/><ellipse cx="555.5" cy="23" fill="#B4A7E5" rx="11" ry="11" style="stroke:#181818;stroke-width:1.0;"/><path d="M551.4219,18.7656 L551.4219,16.6094 L558.8125,16.6094 L558.8125,18.7656 L556.3438,18.7656 L556.3438,26.8438 L558.8125,26.8438 L558.8125,29 L551.4219,29 L551.4219,26.8438 L553.8906,26.8438 L553.8906,18.7656 L551.4219,18.7656 Z " fill="#000000"/><text fill="#000000" font-family="sans-serif" font-size="14" font-style="italic" lengthAdjust="spacing" textLength="101" x="569.5" y="27.8467">BeanDefinition</text><line style="stroke:#181818;stroke-width:0.5;" x1="541.5" x2="672.5" y1="39" y2="39"/><line style="stroke:#181818;stroke-width:0.5;" x1="541.5" x2="672.5" y1="47" y2="47"/></g><!--class AbstractBeanDefinition--><g id="elem_AbstractBeanDefinition"><rect codeLine="2" fill="#F1F1F1" height="96.8906" id="AbstractBeanDefinition" rx="2.5" ry="2.5" style="stroke:#181818;stroke-width:0.5;" width="420" x="266" y="115"/><ellipse cx="392.75" cy="131" fill="#A9DCDF" rx="11" ry="11" style="stroke:#181818;stroke-width:1.0;"/><path d="M392.8594,126.3438 L391.7031,131.4219 L394.0313,131.4219 L392.8594,126.3438 Z M391.375,124.1094 L394.3594,124.1094 L397.7188,136.5 L395.2656,136.5 L394.5,133.4375 L391.2188,133.4375 L390.4688,136.5 L388.0313,136.5 L391.375,124.1094 Z " fill="#000000"/><text fill="#000000" font-family="sans-serif" font-size="14" font-style="italic" lengthAdjust="spacing" textLength="158" x="413.25" y="135.8467">AbstractBeanDefinition</text><line style="stroke:#181818;stroke-width:0.5;" x1="267" x2="685" y1="147" y2="147"/><rect fill="none" height="6" style="stroke:#C82930;stroke-width:1.0;" width="6" x="274" y="157.6484"/><text fill="#000000" font-family="sans-serif" font-size="14" lengthAdjust="spacing" textLength="121" x="286" y="163.9951">Object beanClass</text><rect fill="none" height="6" style="stroke:#C82930;stroke-width:1.0;" width="6" x="274" y="173.9453"/><text fill="#000000" font-family="sans-serif" font-size="14" lengthAdjust="spacing" textLength="394" x="286" y="180.292">ConstructorArgumentValues constructorArgumentValues</text><rect fill="none" height="6" style="stroke:#C82930;stroke-width:1.0;" width="6" x="274" y="190.2422"/><text fill="#000000" font-family="sans-serif" font-size="14" lengthAdjust="spacing" textLength="267" x="286" y="196.5889">MutablePropertyValues propertyValues</text><line style="stroke:#181818;stroke-width:0.5;" x1="267" x2="685" y1="203.8906" y2="203.8906"/></g><!--class RootBeanDefinition--><g id="elem_RootBeanDefinition"><rect codeLine="7" fill="#F1F1F1" height="48" id="RootBeanDefinition" rx="2.5" ry="2.5" style="stroke:#181818;stroke-width:0.5;" width="166" x="130" y="288.19"/><ellipse cx="145" cy="304.19" fill="#ADD1B2" rx="11" ry="11" style="stroke:#181818;stroke-width:1.0;"/><path d="M147.9688,309.8306 Q147.3906,310.1275 146.75,310.2681 Q146.1094,310.4244 145.4063,310.4244 Q142.9063,310.4244 141.5781,308.7838 Q140.2656,307.1275 140.2656,304.0025 Q140.2656,300.8775 141.5781,299.2213 Q142.9063,297.565 145.4063,297.565 Q146.1094,297.565 146.75,297.7213 Q147.4063,297.8775 147.9688,298.1744 L147.9688,300.8931 Q147.3438,300.315 146.75,300.0494 Q146.1563,299.7681 145.5313,299.7681 Q144.1875,299.7681 143.5,300.8463 Q142.8125,301.9088 142.8125,304.0025 Q142.8125,306.0963 143.5,307.1744 Q144.1875,308.2369 145.5313,308.2369 Q146.1563,308.2369 146.75,307.9713 Q147.3438,307.69 147.9688,307.1119 L147.9688,309.8306 Z " fill="#000000"/><text fill="#000000" font-family="sans-serif" font-size="14" lengthAdjust="spacing" textLength="134" x="159" y="309.0367">RootBeanDefinition</text><line style="stroke:#181818;stroke-width:0.5;" x1="131" x2="295" y1="320.19" y2="320.19"/><line style="stroke:#181818;stroke-width:0.5;" x1="131" x2="295" y1="328.19" y2="328.19"/></g><!--class GenericBeanDefinition--><g id="elem_GenericBeanDefinition"><rect codeLine="8" fill="#F1F1F1" height="64.2969" id="GenericBeanDefinition" rx="2.5" ry="2.5" style="stroke:#181818;stroke-width:0.5;" width="187" x="382.5" y="280.04"/><ellipse cx="397.5" cy="296.04" fill="#ADD1B2" rx="11" ry="11" style="stroke:#181818;stroke-width:1.0;"/><path d="M400.4688,301.6806 Q399.8906,301.9775 399.25,302.1181 Q398.6094,302.2744 397.9063,302.2744 Q395.4063,302.2744 394.0781,300.6337 Q392.7656,298.9775 392.7656,295.8525 Q392.7656,292.7275 394.0781,291.0712 Q395.4063,289.415 397.9063,289.415 Q398.6094,289.415 399.25,289.5712 Q399.9063,289.7275 400.4688,290.0244 L400.4688,292.7431 Q399.8438,292.165 399.25,291.8994 Q398.6563,291.6181 398.0313,291.6181 Q396.6875,291.6181 396,292.6962 Q395.3125,293.7587 395.3125,295.8525 Q395.3125,297.9462 396,299.0244 Q396.6875,300.0869 398.0313,300.0869 Q398.6563,300.0869 399.25,299.8212 Q399.8438,299.54 400.4688,298.9619 L400.4688,301.6806 Z " fill="#000000"/><text fill="#000000" font-family="sans-serif" font-size="14" lengthAdjust="spacing" textLength="155" x="411.5" y="300.8867">GenericBeanDefinition</text><line style="stroke:#181818;stroke-width:0.5;" x1="383.5" x2="568.5" y1="312.04" y2="312.04"/><rect fill="none" height="6" style="stroke:#C82930;stroke-width:1.0;" width="6" x="390.5" y="322.6884"/><text fill="#000000" font-family="sans-serif" font-size="14" lengthAdjust="spacing" textLength="129" x="402.5" y="329.0351">String parentName</text><line style="stroke:#181818;stroke-width:0.5;" x1="383.5" x2="568.5" y1="336.3369" y2="336.3369"/></g><!--class ScannedGenericBeanDefinition--><g id="elem_ScannedGenericBeanDefinition"><rect codeLine="11" fill="#F1F1F1" height="64.2969" id="ScannedGenericBeanDefinition" rx="2.5" ry="2.5" style="stroke:#181818;stroke-width:0.5;" width="248" x="352" y="428.79"/><ellipse cx="367" cy="444.79" fill="#ADD1B2" rx="11" ry="11" style="stroke:#181818;stroke-width:1.0;"/><path d="M369.9688,450.4306 Q369.3906,450.7275 368.75,450.8681 Q368.1094,451.0244 367.4063,451.0244 Q364.9063,451.0244 363.5781,449.3837 Q362.2656,447.7275 362.2656,444.6025 Q362.2656,441.4775 363.5781,439.8212 Q364.9063,438.165 367.4063,438.165 Q368.1094,438.165 368.75,438.3212 Q369.4063,438.4775 369.9688,438.7744 L369.9688,441.4931 Q369.3438,440.915 368.75,440.6494 Q368.1563,440.3681 367.5313,440.3681 Q366.1875,440.3681 365.5,441.4462 Q364.8125,442.5087 364.8125,444.6025 Q364.8125,446.6962 365.5,447.7744 Q366.1875,448.8369 367.5313,448.8369 Q368.1563,448.8369 368.75,448.5712 Q369.3438,448.29 369.9688,447.7119 L369.9688,450.4306 Z " fill="#000000"/><text fill="#000000" font-family="sans-serif" font-size="14" lengthAdjust="spacing" textLength="216" x="381" y="449.6367">ScannedGenericBeanDefinition</text><line style="stroke:#181818;stroke-width:0.5;" x1="353" x2="599" y1="460.79" y2="460.79"/><rect fill="none" height="6" style="stroke:#C82930;stroke-width:1.0;" width="6" x="360" y="471.4384"/><text fill="#000000" font-family="sans-serif" font-size="14" lengthAdjust="spacing" textLength="208" x="372" y="477.7851">AnnotationMetadata metadata</text><line style="stroke:#181818;stroke-width:0.5;" x1="353" x2="599" y1="485.0869" y2="485.0869"/></g><!--class AnnotatedBeanDefinition--><g id="elem_AnnotatedBeanDefinition"><rect codeLine="14" fill="#F1F1F1" height="80.5938" id="AnnotatedBeanDefinition" rx="2.5" ry="2.5" style="stroke:#181818;stroke-width:0.5;" width="347" x="604.5" y="271.9"/><ellipse cx="687.25" cy="287.9" fill="#B4A7E5" rx="11" ry="11" style="stroke:#181818;stroke-width:1.0;"/><path d="M683.1719,283.6656 L683.1719,281.5094 L690.5625,281.5094 L690.5625,283.6656 L688.0938,283.6656 L688.0938,291.7438 L690.5625,291.7438 L690.5625,293.9 L683.1719,293.9 L683.1719,291.7438 L685.6406,291.7438 L685.6406,283.6656 L683.1719,283.6656 Z " fill="#000000"/><text fill="#000000" font-family="sans-serif" font-size="14" font-style="italic" lengthAdjust="spacing" textLength="173" x="707.75" y="292.7467">AnnotatedBeanDefinition</text><line style="stroke:#181818;stroke-width:0.5;" x1="605.5" x2="950.5" y1="303.9" y2="303.9"/><line style="stroke:#181818;stroke-width:0.5;" x1="605.5" x2="950.5" y1="311.9" y2="311.9"/><ellipse cx="615.5" cy="325.5484" fill="#84BE84" rx="3" ry="3" style="stroke:#038048;stroke-width:1.0;"/><text fill="#000000" font-family="sans-serif" font-size="14" lengthAdjust="spacing" textLength="240" x="624.5" y="328.8951">getMetadata() AnnotationMetadata</text><ellipse cx="615.5" cy="341.8453" fill="#84BE84" rx="3" ry="3" style="stroke:#038048;stroke-width:1.0;"/><text fill="#000000" font-family="sans-serif" font-size="14" lengthAdjust="spacing" textLength="321" x="624.5" y="345.192">getFactoryMethodMetadata() MethodMetadata</text></g><!--class AnnotatedGenericBeanDefinition--><g id="elem_AnnotatedGenericBeanDefinition"><rect codeLine="18" fill="#F1F1F1" height="80.5938" id="AnnotatedGenericBeanDefinition" rx="2.5" ry="2.5" style="stroke:#181818;stroke-width:0.5;" width="310" x="635" y="420.64"/><ellipse cx="672.95" cy="436.64" fill="#ADD1B2" rx="11" ry="11" style="stroke:#181818;stroke-width:1.0;"/><path d="M675.9188,442.2806 Q675.3406,442.5775 674.7,442.7181 Q674.0594,442.8744 673.3563,442.8744 Q670.8563,442.8744 669.5281,441.2338 Q668.2156,439.5775 668.2156,436.4525 Q668.2156,433.3275 669.5281,431.6713 Q670.8563,430.015 673.3563,430.015 Q674.0594,430.015 674.7,430.1713 Q675.3563,430.3275 675.9188,430.6244 L675.9188,433.3431 Q675.2938,432.765 674.7,432.4994 Q674.1063,432.2181 673.4813,432.2181 Q672.1375,432.2181 671.45,433.2963 Q670.7625,434.3588 670.7625,436.4525 Q670.7625,438.5463 671.45,439.6244 Q672.1375,440.6869 673.4813,440.6869 Q674.1063,440.6869 674.7,440.4213 Q675.2938,440.14 675.9188,439.5619 L675.9188,442.2806 Z " fill="#000000"/><text fill="#000000" font-family="sans-serif" font-size="14" lengthAdjust="spacing" textLength="227" x="692.05" y="441.4867">AnnotatedGenericBeanDefinition</text><line style="stroke:#181818;stroke-width:0.5;" x1="636" x2="944" y1="452.64" y2="452.64"/><rect fill="none" height="6" style="stroke:#C82930;stroke-width:1.0;" width="6" x="643" y="463.2884"/><text fill="#000000" font-family="sans-serif" font-size="14" lengthAdjust="spacing" textLength="208" x="655" y="469.6351">AnnotationMetadata metadata</text><rect fill="none" height="6" style="stroke:#C82930;stroke-width:1.0;" width="6" x="643" y="479.5853"/><text fill="#000000" font-family="sans-serif" font-size="14" lengthAdjust="spacing" textLength="284" x="655" y="485.932">MethodMetadata factoryMethodMetadata</text><line style="stroke:#181818;stroke-width:0.5;" x1="636" x2="944" y1="493.2338" y2="493.2338"/></g><!--class ConfigurationClassBeanDefinition--><g id="elem_ConfigurationClassBeanDefinition"><rect codeLine="22" fill="#F1F1F1" height="96.8906" id="ConfigurationClassBeanDefinition" rx="2.5" ry="2.5" style="stroke:#181818;stroke-width:0.5;" width="310" x="7" y="412.49"/><ellipse cx="43.6" cy="428.49" fill="#ADD1B2" rx="11" ry="11" style="stroke:#181818;stroke-width:1.0;"/><path d="M46.5688,434.1306 Q45.9906,434.4275 45.35,434.5681 Q44.7094,434.7244 44.0063,434.7244 Q41.5063,434.7244 40.1781,433.0838 Q38.8656,431.4275 38.8656,428.3025 Q38.8656,425.1775 40.1781,423.5213 Q41.5063,421.865 44.0063,421.865 Q44.7094,421.865 45.35,422.0213 Q46.0063,422.1775 46.5688,422.4744 L46.5688,425.1931 Q45.9438,424.615 45.35,424.3494 Q44.7563,424.0681 44.1313,424.0681 Q42.7875,424.0681 42.1,425.1463 Q41.4125,426.2088 41.4125,428.3025 Q41.4125,430.3963 42.1,431.4744 Q42.7875,432.5369 44.1313,432.5369 Q44.7563,432.5369 45.35,432.2713 Q45.9438,431.99 46.5688,431.4119 L46.5688,434.1306 Z " fill="#000000"/><text fill="#000000" font-family="sans-serif" font-size="14" lengthAdjust="spacing" textLength="230" x="62.4" y="433.3367">ConfigurationClassBeanDefinition</text><line style="stroke:#181818;stroke-width:0.5;" x1="8" x2="316" y1="444.49" y2="444.49"/><rect fill="none" height="6" style="stroke:#C82930;stroke-width:1.0;" width="6" x="15" y="455.1384"/><text fill="#000000" font-family="sans-serif" font-size="14" lengthAdjust="spacing" textLength="281" x="27" y="461.4851">AnnotationMetadata annotationMetadata</text><rect fill="none" height="6" style="stroke:#C82930;stroke-width:1.0;" width="6" x="15" y="471.4353"/><text fill="#000000" font-family="sans-serif" font-size="14" lengthAdjust="spacing" textLength="284" x="27" y="477.782">MethodMetadata factoryMethodMetadata</text><rect fill="none" height="6" style="stroke:#C82930;stroke-width:1.0;" width="6" x="15" y="487.7322"/><text fill="#000000" font-family="sans-serif" font-size="14" lengthAdjust="spacing" textLength="171" x="27" y="494.0789">String derivedBeanName</text><line style="stroke:#181818;stroke-width:0.5;" x1="8" x2="316" y1="501.3806" y2="501.3806"/></g><!--reverse link BeanDefinition to AbstractBeanDefinition--><g id="link_BeanDefinition_AbstractBeanDefinition"><path codeLine="27" d="M568.78,70.07 C554.75,84.04 538.68,100.04 523.9,114.75 " fill="none" id="BeanDefinition-backto-AbstractBeanDefinition" style="stroke:#181818;stroke-width:1.0;stroke-dasharray:7.0,7.0;"/><polygon fill="none" points="563.47,65.48,582.58,56.33,573.35,75.4,563.47,65.48" style="stroke:#181818;stroke-width:1.0;"/></g><!--reverse link AbstractBeanDefinition to RootBeanDefinition--><g id="link_AbstractBeanDefinition_RootBeanDefinition"><path codeLine="28" d="M372.05,222.45 C331.06,245.32 286.34,270.27 254.79,287.88 " fill="none" id="AbstractBeanDefinition-backto-RootBeanDefinition" style="stroke:#181818;stroke-width:1.0;"/><polygon fill="none" points="368.37,215.93,389.25,212.3,375.19,228.15,368.37,215.93" style="stroke:#181818;stroke-width:1.0;"/></g><!--reverse link AbstractBeanDefinition to GenericBeanDefinition--><g id="link_AbstractBeanDefinition_GenericBeanDefinition"><path codeLine="29" d="M476,232.9 C476,249.37 476,266.17 476,279.96 " fill="none" id="AbstractBeanDefinition-backto-GenericBeanDefinition" style="stroke:#181818;stroke-width:1.0;"/><polygon fill="none" points="469,233.09,476,213.09,483,233.09,469,233.09" style="stroke:#181818;stroke-width:1.0;"/></g><!--reverse link BeanDefinition to AnnotatedBeanDefinition--><g id="link_BeanDefinition_AnnotatedBeanDefinition"><path codeLine="30" d="M658.41,68.46 C674.33,81.69 690.86,97.69 703,115 C737.12,163.67 758.2,229.9 769.01,271.6 " fill="none" id="BeanDefinition-backto-AnnotatedBeanDefinition" style="stroke:#181818;stroke-width:1.0;"/><polygon fill="none" points="654.31,73.36,642.92,55.49,662.97,62.36,654.31,73.36" style="stroke:#181818;stroke-width:1.0;"/></g><!--reverse link AnnotatedBeanDefinition to AnnotatedGenericBeanDefinition--><g id="link_AnnotatedBeanDefinition_AnnotatedGenericBeanDefinition"><path codeLine="31" d="M782.96,373.82 C784.24,389.47 785.58,405.92 786.75,420.19 " fill="none" id="AnnotatedBeanDefinition-backto-AnnotatedGenericBeanDefinition" style="stroke:#181818;stroke-width:1.0;stroke-dasharray:7.0,7.0;"/><polygon fill="none" points="775.9,374.41,781.25,353.9,789.85,373.27,775.9,374.41" style="stroke:#181818;stroke-width:1.0;"/></g><!--reverse link GenericBeanDefinition to AnnotatedGenericBeanDefinition--><g id="link_GenericBeanDefinition_AnnotatedGenericBeanDefinition"><path codeLine="32" d="M562.11,353.43 C606.61,374.23 660.74,399.53 705.07,420.25 " fill="none" id="GenericBeanDefinition-backto-AnnotatedGenericBeanDefinition" style="stroke:#181818;stroke-width:1.0;"/><polygon fill="none" points="559.52,359.48,544.36,344.67,565.44,346.8,559.52,359.48" style="stroke:#181818;stroke-width:1.0;"/></g><!--reverse link AnnotatedBeanDefinition to ScannedGenericBeanDefinition--><g id="link_AnnotatedBeanDefinition_ScannedGenericBeanDefinition"><path codeLine="33" d="M677.48,362.04 C632.52,383.88 580.83,409 541.05,428.32 " fill="none" id="AnnotatedBeanDefinition-backto-ScannedGenericBeanDefinition" style="stroke:#181818;stroke-width:1.0;stroke-dasharray:7.0,7.0;"/><polygon fill="none" points="674.23,355.35,695.27,352.9,680.34,367.94,674.23,355.35" style="stroke:#181818;stroke-width:1.0;"/></g><!--reverse link GenericBeanDefinition to ScannedGenericBeanDefinition--><g id="link_GenericBeanDefinition_ScannedGenericBeanDefinition"><path codeLine="34" d="M476,365.4 C476,386.5 476,410.14 476,428.51 " fill="none" id="GenericBeanDefinition-backto-ScannedGenericBeanDefinition" style="stroke:#181818;stroke-width:1.0;"/><polygon fill="none" points="469,365.67,476,345.67,483,365.67,469,365.67" style="stroke:#181818;stroke-width:1.0;"/></g><!--reverse link RootBeanDefinition to ConfigurationClassBeanDefinition--><g id="link_RootBeanDefinition_ConfigurationClassBeanDefinition"><path codeLine="35" d="M198.07,356.14 C191.96,373.72 184.87,394.14 178.59,412.19 " fill="none" id="RootBeanDefinition-backto-ConfigurationClassBeanDefinition" style="stroke:#181818;stroke-width:1.0;"/><polygon fill="none" points="191.74,354.04,204.92,337.44,204.97,358.63,191.74,354.04" style="stroke:#181818;stroke-width:1.0;"/></g><!--SRC=[dLBDJiCm33wJfyWHXBf7G2f3S1eW9d5tKxS4jKwLEaWJyEwaMoXqJTjfjpZ-VlodYT4Me53U8j0T5feqQqC2ifOjA9QgWhQLQGY7AFafBXBvbBsZ1sO-jUx0tT_Qa2SunSQcjdGr4hz2vR2LQYhJqJQE8QlmsPe6BUy2fHc4ubiSQdenvgYUa7X0GgjLhDOjMqsbRC1wtqUeiLVRAY32V8QR4Xc6BjuWGmuCiWuFhwBxIGOSvcEHQraY_x8lhoAI0NCFtO1s_lVDvFy8mu- - -DxopFAxqG-KPH4heFVpworqwUnURh_q4nqXql29td_RotsB7uVnXXLEdEVADQklc-FJ7j-DJ5oJU61SHiI7Ei-PEeB0caB7hK8V4vfBx60PJOhPir_mdUNEkYxUJs2FL_K3]--></g></svg>