<?xml version="1.0" encoding="us-ascii" standalone="no"?><svg xmlns="http://www.w3.org/2000/svg" xmlns:xlink="http://www.w3.org/1999/xlink" contentStyleType="text/css" height="128px" preserveAspectRatio="none" style="width:907px;height:128px;background:#FFFFFF;" version="1.1" viewBox="0 0 907 128" width="907px" zoomAndPan="magnify"><defs/><g><!--class Iterable--><g id="elem_Iterable"><rect codeLine="5" fill="#FFFFFF" height="60.2969" id="Iterable" rx="2.5" ry="2.5" style="stroke:#000000;stroke-width:1.0;" width="256" x="12" y="36.45"/><ellipse cx="110.75" cy="50.45" fill="#FFFFFF" rx="9" ry="9" style="stroke:#000000;stroke-width:1.0;"/><path d="M107.9219,47.0281 L107.9219,45.2469 L114,45.2469 L114,47.0281 L111.9688,47.0281 L111.9688,53.6688 L114,53.6688 L114,55.45 L107.9219,55.45 L107.9219,53.6688 L109.9531,53.6688 L109.9531,47.0281 L107.9219,47.0281 Z " fill="#000000"/><text fill="#000000" font-family="Consolas" font-size="14" font-style="italic" lengthAdjust="spacing" textLength="51" x="128.25" y="55.2967">Iterable</text><line style="stroke:#000000;stroke-width:1.0;" x1="13" x2="267" y1="64.45" y2="64.45"/><line style="stroke:#000000;stroke-width:1.0;" x1="13" x2="267" y1="72.45" y2="72.45"/><ellipse cx="23" cy="86.0984" fill="#FFFFFF" rx="3" ry="3" style="stroke:#000000;stroke-width:1.0;"/><text fill="#000000" font-family="Consolas" font-size="14" lengthAdjust="spacing" textLength="232" x="30" y="89.4451">iterator() Iterator&lt;PropertyValue&gt;</text></g><!--class PropertyValues--><g id="elem_PropertyValues"><rect codeLine="8" fill="#FFFFFF" height="76.5938" id="PropertyValues" rx="2.5" ry="2.5" style="stroke:#000000;stroke-width:1.0;" width="271" x="303.5" y="28.3"/><ellipse cx="383.25" cy="42.3" fill="#FFFFFF" rx="9" ry="9" style="stroke:#000000;stroke-width:1.0;"/><path d="M380.4219,38.8781 L380.4219,37.0969 L386.5,37.0969 L386.5,38.8781 L384.4688,38.8781 L384.4688,45.5188 L386.5,45.5188 L386.5,47.3 L380.4219,47.3 L380.4219,45.5188 L382.4531,45.5188 L382.4531,38.8781 L380.4219,38.8781 Z " fill="#000000"/><text fill="#000000" font-family="Consolas" font-size="14" font-style="italic" lengthAdjust="spacing" textLength="104" x="400.75" y="47.1467">PropertyValues</text><line style="stroke:#000000;stroke-width:1.0;" x1="304.5" x2="573.5" y1="56.3" y2="56.3"/><line style="stroke:#000000;stroke-width:1.0;" x1="304.5" x2="573.5" y1="64.3" y2="64.3"/><ellipse cx="314.5" cy="77.9484" fill="#FFFFFF" rx="3" ry="3" style="stroke:#000000;stroke-width:1.0;"/><text fill="#000000" font-family="Consolas" font-size="14" lengthAdjust="spacing" textLength="232" x="321.5" y="81.2951">iterator() Iterator&lt;PropertyValue&gt;</text><ellipse cx="314.5" cy="94.2453" fill="#FFFFFF" rx="3" ry="3" style="stroke:#000000;stroke-width:1.0;"/><text fill="#000000" font-family="Consolas" font-size="14" lengthAdjust="spacing" textLength="247" x="321.5" y="97.592">getPropertyValues() PropertyValue[]</text></g><!--class MutablePropertyValues--><g id="elem_MutablePropertyValues"><rect codeLine="12" fill="#FFFFFF" height="109.1875" id="MutablePropertyValues" rx="2.5" ry="2.5" style="stroke:#000000;stroke-width:1.0;" width="290" x="610" y="12"/><ellipse cx="671.75" cy="26" fill="#FFFFFF" rx="9" ry="9" style="stroke:#000000;stroke-width:1.0;"/><path d="M674.1406,30.7031 Q673.6563,30.9531 673.125,31.0781 Q672.6094,31.2031 672.0313,31.2031 Q669.9688,31.2031 668.875,29.8438 Q667.7969,28.4844 667.7969,25.9063 Q667.7969,23.3281 668.875,21.9688 Q669.9688,20.6094 672.0313,20.6094 Q672.6094,20.6094 673.1406,20.7344 Q673.6719,20.8594 674.1406,21.0938 L674.1406,23.3438 Q673.625,22.8594 673.125,22.6406 Q672.6406,22.4219 672.125,22.4219 Q671.0156,22.4219 670.4531,23.2969 Q669.8906,24.1719 669.8906,25.9063 Q669.8906,27.625 670.4531,28.5156 Q671.0156,29.3906 672.125,29.3906 Q672.6406,29.3906 673.125,29.1719 Q673.625,28.9375 674.1406,28.4688 L674.1406,30.7031 Z " fill="#000000"/><text fill="#000000" font-family="Consolas" font-size="14" lengthAdjust="spacing" textLength="159" x="689.25" y="30.8467">MutablePropertyValues</text><line style="stroke:#000000;stroke-width:1.0;" x1="611" x2="899" y1="40" y2="40"/><rect fill="none" height="6" style="stroke:#000000;stroke-width:1.0;" width="6" x="618" y="50.6484"/><text fill="#000000" font-family="Consolas" font-size="14" lengthAdjust="spacing" textLength="266" x="628" y="56.9951">List&lt;PropertyValue&gt; propertyValueList</text><line style="stroke:#000000;stroke-width:1.0;" x1="611" x2="899" y1="64.2969" y2="64.2969"/><ellipse cx="621" cy="77.9453" fill="#FFFFFF" rx="3" ry="3" style="stroke:#000000;stroke-width:1.0;"/><text fill="#000000" font-family="Consolas" font-size="14" lengthAdjust="spacing" textLength="257" x="628" y="81.292">addPropertyValue(String, Object) void</text><ellipse cx="621" cy="94.2422" fill="#FFFFFF" rx="3" ry="3" style="stroke:#000000;stroke-width:1.0;"/><text fill="#000000" font-family="Consolas" font-size="14" lengthAdjust="spacing" textLength="247" x="628" y="97.5889">getPropertyValues() PropertyValue[]</text><ellipse cx="621" cy="110.5391" fill="#FFFFFF" rx="3" ry="3" style="stroke:#000000;stroke-width:1.0;"/><text fill="#000000" font-family="Consolas" font-size="14" lengthAdjust="spacing" textLength="232" x="628" y="113.8857">iterator() Iterator&lt;PropertyValue&gt;</text></g><!--reverse link Iterable to PropertyValues--><g id="link_Iterable_PropertyValues"><path codeLine="18" d="M289.31,66.6 C293.91,66.6 298.51,66.6 303.11,66.6 " fill="none" id="Iterable-backto-PropertyValues" style="stroke:#000000;stroke-width:1.0;"/><polygon fill="none" points="289.48,73.6,269.48,66.6,289.48,59.6,289.48,73.6" style="stroke:#000000;stroke-width:1.0;"/></g><!--reverse link PropertyValues to MutablePropertyValues--><g id="link_PropertyValues_MutablePropertyValues"><path codeLine="19" d="M595.74,66.6 C600.37,66.6 605,66.6 609.63,66.6 " fill="none" id="PropertyValues-backto-MutablePropertyValues" style="stroke:#000000;stroke-width:1.0;stroke-dasharray:7.0,7.0;"/><polygon fill="none" points="595.78,73.6,575.78,66.6,595.78,59.6,595.78,73.6" style="stroke:#000000;stroke-width:1.0;"/></g><!--SRC=[ZL1DQm9133qxloBULdG5mMFnKX24LeM5NaeFSJTgT9nPPh92F_plpL8eErBetfBtNl9UCfGZNGXgY-nCFBEhCU05XCNIqZif-8DWDkzG5UsniV8lkKRT- -XTz1QZOISKzbWIhBJ0dQLFCnW3jutua8r-S2qVji7N5EJz1Mr32tFhp2PKxBj1LGUIT5Rb2V3wfaQb9etmt4YRBzM3ckNmn57kjaFTRLj1wuTLbSYoGWAxmmGsknELCeAhvwfliBv_kakSs_nhyVjky_TPKpjLKGf-0m00]--></g></svg>