<?xml version="1.0" encoding="us-ascii" standalone="no"?><svg xmlns="http://www.w3.org/2000/svg" xmlns:xlink="http://www.w3.org/1999/xlink" contentStyleType="text/css" height="84px" preserveAspectRatio="none" style="width:844px;height:84px;background:#FFFFFF;" version="1.1" viewBox="0 0 844 84" width="844px" zoomAndPan="magnify"><defs/><g><text fill="#000000" font-family="sans-serif" font-size="14" font-weight="bold" lengthAdjust="spacing" textLength="84" x="373" y="22.9951">&#31867;&#21152;&#36733;&#30340;&#27493;&#39588;</text><ellipse cx="16" cy="61.2869" fill="#222222" rx="10" ry="10" style="stroke:none;stroke-width:1.0;"/><rect fill="#F1F1F1" height="33.9688" rx="12.5" ry="12.5" style="stroke:#181818;stroke-width:0.5;" width="117" x="46.5" y="44.2969"/><text fill="#000000" font-family="sans-serif" font-size="12" lengthAdjust="spacing" textLength="97" x="56.5" y="65.4355">&#21152;&#36733;&#65288;Loading&#65289;</text><rect fill="#F1F1F1" height="33.9688" rx="12.5" ry="12.5" style="stroke:#181818;stroke-width:0.5;" width="138" x="184" y="44.2969"/><text fill="#000000" font-family="sans-serif" font-size="12" lengthAdjust="spacing" textLength="118" x="194" y="65.4355">&#39564;&#35777;&#65288;Verification&#65289;</text><rect fill="#F1F1F1" height="33.9688" rx="12.5" ry="12.5" style="stroke:#181818;stroke-width:0.5;" width="142" x="342" y="44.2969"/><text fill="#000000" font-family="sans-serif" font-size="12" lengthAdjust="spacing" textLength="122" x="352" y="65.4355">&#20934;&#22791;&#65288;Preparation&#65289;</text><rect fill="#F1F1F1" height="33.9688" rx="12.5" ry="12.5" style="stroke:#181818;stroke-width:0.5;" width="134" x="504" y="44.2969"/><text fill="#000000" font-family="sans-serif" font-size="12" lengthAdjust="spacing" textLength="114" x="514" y="65.4355">&#35299;&#26512;&#65288;Resolution&#65289;</text><rect fill="#F1F1F1" height="33.9688" rx="12.5" ry="12.5" style="stroke:#181818;stroke-width:0.5;" width="140" x="658" y="44.2969"/><text fill="#000000" font-family="sans-serif" font-size="12" lengthAdjust="spacing" textLength="120" x="668" y="65.4355">&#21021;&#22987;&#21270;&#65288;Initializing&#65289;</text><ellipse cx="828" cy="61.2869" fill="none" rx="10" ry="10" style="stroke:#222222;stroke-width:1.0;"/><ellipse cx="828.5" cy="61.7869" fill="#222222" rx="6" ry="6" style="stroke:none;stroke-width:1.0;"/><!--link start to ???Loading?--><g id="link_start_&#21152;&#36733;&#65288;Loading&#65289;"><path d="M26.43,61.2869 C31.03,61.2869 35.64,61.2869 40.24,61.2869 " fill="none" id="start-to-&#21152;&#36733;&#65288;Loading&#65289;" style="stroke:#181818;stroke-width:1.0;"/><polygon fill="#181818" points="45.07,61.2869,36.07,57.2869,40.07,61.2869,36.07,65.2869,45.07,61.2869" style="stroke:#181818;stroke-width:1.0;"/></g><!--link ???Loading? to ???Verification?--><g id="link_&#21152;&#36733;&#65288;Loading&#65289;_&#39564;&#35777;&#65288;Verification&#65289;"><path d="M163.97,61.2869 C168.61,61.2869 173.26,61.2869 177.91,61.2869 " fill="none" id="&#21152;&#36733;&#65288;Loading&#65289;-to-&#39564;&#35777;&#65288;Verification&#65289;" style="stroke:#181818;stroke-width:1.0;"/><polygon fill="#181818" points="182.79,61.2869,173.79,57.2869,177.79,61.2869,173.79,65.2869,182.79,61.2869" style="stroke:#181818;stroke-width:1.0;"/></g><!--link ???Verification? to ???Preparation?--><g id="link_&#39564;&#35777;&#65288;Verification&#65289;_&#20934;&#22791;&#65288;Preparation&#65289;"><path d="M322.38,61.2869 C326.94,61.2869 331.5,61.2869 336.07,61.2869 " fill="none" id="&#39564;&#35777;&#65288;Verification&#65289;-to-&#20934;&#22791;&#65288;Preparation&#65289;" style="stroke:#181818;stroke-width:1.0;"/><polygon fill="#181818" points="340.85,61.2869,331.85,57.2869,335.85,61.2869,331.85,65.2869,340.85,61.2869" style="stroke:#181818;stroke-width:1.0;"/></g><!--link ???Preparation? to ???Resolution?--><g id="link_&#20934;&#22791;&#65288;Preparation&#65289;_&#35299;&#26512;&#65288;Resolution&#65289;"><path d="M484.29,61.2869 C488.81,61.2869 493.34,61.2869 497.86,61.2869 " fill="none" id="&#20934;&#22791;&#65288;Preparation&#65289;-to-&#35299;&#26512;&#65288;Resolution&#65289;" style="stroke:#181818;stroke-width:1.0;"/><polygon fill="#181818" points="502.59,61.2869,493.59,57.2869,497.59,61.2869,493.59,65.2869,502.59,61.2869" style="stroke:#181818;stroke-width:1.0;"/></g><!--link ???Resolution? to ????Initializing?--><g id="link_&#35299;&#26512;&#65288;Resolution&#65289;_&#21021;&#22987;&#21270;&#65288;Initializing&#65289;"><path d="M638.46,61.2869 C642.97,61.2869 647.48,61.2869 651.99,61.2869 " fill="none" id="&#35299;&#26512;&#65288;Resolution&#65289;-to-&#21021;&#22987;&#21270;&#65288;Initializing&#65289;" style="stroke:#181818;stroke-width:1.0;"/><polygon fill="#181818" points="656.7,61.2869,647.7,57.2869,651.7,61.2869,647.7,65.2869,656.7,61.2869" style="stroke:#181818;stroke-width:1.0;"/></g><!--link ????Initializing? to end--><g id="link_&#21021;&#22987;&#21270;&#65288;Initializing&#65289;_end"><path d="M798.31,61.2869 C802.88,61.2869 807.44,61.2869 812.01,61.2869 " fill="none" id="&#21021;&#22987;&#21270;&#65288;Initializing&#65289;-to-end" style="stroke:#181818;stroke-width:1.0;"/><polygon fill="#181818" points="816.79,61.2869,807.79,57.2869,811.79,61.2869,807.79,65.2869,816.79,61.2869" style="stroke:#181818;stroke-width:1.0;"/></g><!--SRC=[AyaioKbLUBvnzzEk1I_sxdq-g-NPsgKlLotXqj3ILD0jqhLJK8B8lD_JuPEVc9APb_v-JwSI5qJgvQgU5-iRWL9XgKMPQPd9YIMP-Nb8ya_RsvukQGVA1nIb5YGMeKk_MBxusRm9GEcWrEByd59qpHrpdoxlVjep3QZ0Co-p93Cn9xCAnNwW6m40]--></g></svg>