<?xml version="1.0" encoding="us-ascii" standalone="no"?><svg xmlns="http://www.w3.org/2000/svg" xmlns:xlink="http://www.w3.org/1999/xlink" contentStyleType="text/css" height="304px" preserveAspectRatio="none" style="width:393px;height:304px;background:#FFFFFF;" version="1.1" viewBox="0 0 393 304" width="393px" zoomAndPan="magnify"><defs/><g><!--cluster t1--><g id="cluster_t1"><rect fill="none" height="113.29" rx="2.5" ry="2.5" style="stroke:#181818;stroke-width:1.0;" width="265" x="122" y="7"/><path d="M204,7 L204,16.2969 L194,26.2969 L122,26.2969 " fill="none" style="stroke:#181818;stroke-width:1.0;"/><text fill="#000000" font-family="sans-serif" font-size="14" font-weight="bold" lengthAdjust="spacing" textLength="72" x="125" y="20.9951">Thread-1</text></g><!--cluster t2--><g id="cluster_t2"><rect fill="none" height="113.3" rx="2.5" ry="2.5" style="stroke:#181818;stroke-width:1.0;" width="265" x="7" y="185.29"/><path d="M89,185.29 L89,194.5869 L79,204.5869 L7,204.5869 " fill="none" style="stroke:#181818;stroke-width:1.0;"/><text fill="#000000" font-family="sans-serif" font-size="14" font-weight="bold" lengthAdjust="spacing" textLength="72" x="10" y="199.2851">Thread-2</text></g><!--entity l1--><g id="elem_l1"><rect fill="#F1F1F1" height="46.2969" rx="2.5" ry="2.5" style="stroke:#181818;stroke-width:0.5;" width="198" x="165" y="50"/><rect fill="#F1F1F1" height="10" style="stroke:#181818;stroke-width:0.5;" width="15" x="343" y="55"/><rect fill="#F1F1F1" height="2" style="stroke:#181818;stroke-width:0.5;" width="4" x="341" y="57"/><rect fill="#F1F1F1" height="2" style="stroke:#181818;stroke-width:0.5;" width="4" x="341" y="61"/><text fill="#000000" font-family="sans-serif" font-size="14" lengthAdjust="spacing" textLength="158" x="180" y="82.9951">0x000000076bcae728</text></g><!--entity l2--><g id="elem_l2"><rect fill="#F1F1F1" height="46.2969" rx="2.5" ry="2.5" style="stroke:#181818;stroke-width:0.5;" width="198" x="31" y="228.29"/><rect fill="#F1F1F1" height="10" style="stroke:#181818;stroke-width:0.5;" width="15" x="209" y="233.29"/><rect fill="#F1F1F1" height="2" style="stroke:#181818;stroke-width:0.5;" width="4" x="207" y="235.29"/><rect fill="#F1F1F1" height="2" style="stroke:#181818;stroke-width:0.5;" width="4" x="207" y="239.29"/><text fill="#000000" font-family="sans-serif" font-size="14" lengthAdjust="spacing" textLength="158" x="46" y="261.2851">0x000000076bcae718</text></g><g id="elem_GMN8"><path d="M13,60.58 L13,85.7128 L95,85.7128 L95,70.58 L85,60.58 L13,60.58 " fill="#FEFFDD" style="stroke:#181818;stroke-width:0.5;"/><path d="M85,60.58 L85,70.58 L95,70.58 L85,60.58 " fill="#FEFFDD" style="stroke:#181818;stroke-width:1.0;"/><text fill="#000000" font-family="sans-serif" font-size="13" lengthAdjust="spacing" textLength="61" x="19" y="77.6469">BLOCKED</text></g><g id="elem_GMN11"><path d="M299,238.88 L299,264.0128 L381,264.0128 L381,248.88 L371,238.88 L299,238.88 " fill="#FEFFDD" style="stroke:#181818;stroke-width:0.5;"/><path d="M371,238.88 L371,248.88 L381,248.88 L371,238.88 " fill="#FEFFDD" style="stroke:#181818;stroke-width:1.0;"/><text fill="#000000" font-family="sans-serif" font-size="13" lengthAdjust="spacing" textLength="61" x="305" y="255.9469">BLOCKED</text></g><!--link t1 to l2--><g id="link_t1_l2"><path d="M130,120.9303 C130,121.1553 130,121.3808 130,121.6067 C130,122.0585 130,122.5122 130,122.9676 C130,123.8785 130,124.7963 130,125.7207 C130,127.5696 130,129.4445 130,131.3412 C130,161.69 130,197.645 130,222.05 " fill="none" id="t1-to-l2" style="stroke:#FF0000;stroke-width:1.0;stroke-dasharray:7.0,7.0;"/><polygon fill="#FF0000" points="130,227.05,134,218.05,130,222.05,126,218.05,130,227.05" style="stroke:#FF0000;stroke-width:1.0;"/><text fill="#000000" font-family="sans-serif" font-size="13" lengthAdjust="spacing" textLength="44" x="131" y="157.3569">waiting</text></g><!--link t2 to l1--><g id="link_t2_l1"><path d="M264,184.742 C264,183.7591 264,182.7722 264,181.7818 C264,177.8203 264,173.8034 264,169.7656 C264,161.6898 264,153.5298 264,145.5592 C264,129.6181 264,114.435 264,102.2 " fill="none" id="t2-to-l1" style="stroke:#FF0000;stroke-width:1.0;stroke-dasharray:7.0,7.0;"/><polygon fill="#FF0000" points="264,97.47,260,106.47,264,102.47,268,106.47,264,97.47" style="stroke:#FF0000;stroke-width:1.0;"/><text fill="#000000" font-family="sans-serif" font-size="13" lengthAdjust="spacing" textLength="44" x="265" y="157.3569">waiting</text></g><!--link GMN8 to t1--><g id="link_GMN8_t1"><path d="M95.27,73.14 C100.92,73.14 106.5725,73.14 112.2263,73.14 C115.0531,73.14 117.8803,73.14 120.7077,73.14 C121.0611,73.14 121.4145,73.14 121.7679,73.14 C121.8121,73.14 121.8563,73.14 121.9005,73.14 " fill="none" id="GMN8-t1" style="stroke:#181818;stroke-width:1.0;stroke-dasharray:7.0,7.0;"/></g><!--link t2 to GMN11--><g id="link_t2_GMN11"><path d="M272.0647,251.44 C272.4206,251.44 272.7766,251.44 273.1325,251.44 C275.98,251.44 278.8275,251.44 281.675,251.44 C287.37,251.44 293.065,251.44 298.76,251.44 " fill="none" id="t2-GMN11" style="stroke:#181818;stroke-width:1.0;stroke-dasharray:7.0,7.0;"/></g><!--SRC=[IojAp4rL2CaeIarCqJLKI2nMA35KgERYZ3QeC800SxEavCHKSoEBM91iZY5NBLSQiYOZi2OZh9eCePgCW9guW0RhHIiNfQR4wja1XHIi5CeJCqioyzAvWBgHP0oHPFBoIr8LSbBJIXJoqq0kir9myl5tzdPrWSWKPQPdGAIC4580]--></g></svg>