<?xml version="1.0" encoding="us-ascii" standalone="no"?><svg xmlns="http://www.w3.org/2000/svg" xmlns:xlink="http://www.w3.org/1999/xlink" contentStyleType="text/css" height="225px" preserveAspectRatio="none" style="width:537px;height:225px;background:#FFFFFF;" version="1.1" viewBox="0 0 537 225" width="537px" zoomAndPan="magnify"><defs/><g><text fill="#000000" font-family="Consolas" font-size="14" font-weight="bold" lengthAdjust="spacing" textLength="84" x="222" y="27.9951">&#22235;&#31181;&#23545;&#35937;&#24341;&#29992;</text><!--entity R--><g id="elem_R"><rect fill="#FFFFFF" height="46.2969" rx="2.5" ry="2.5" style="stroke:#000000;stroke-width:1.0;" width="50" x="252" y="49.2969"/><rect fill="#FFFFFF" height="10" style="stroke:#000000;stroke-width:1.0;" width="15" x="282" y="54.2969"/><rect fill="#FFFFFF" height="2" style="stroke:#000000;stroke-width:1.0;" width="4" x="280" y="56.2969"/><rect fill="#FFFFFF" height="2" style="stroke:#000000;stroke-width:1.0;" width="4" x="280" y="60.2969"/><text fill="#000000" font-family="Consolas" font-size="14" lengthAdjust="spacing" textLength="10" x="267" y="82.292">R</text></g><!--entity ???--><g id="elem_&#24378;&#24341;&#29992;"><rect fill="#FFFFFF" height="46.2969" rx="2.5" ry="2.5" style="stroke:#000000;stroke-width:1.0;" width="82" x="12" y="173.5869"/><rect fill="#FFFFFF" height="10" style="stroke:#000000;stroke-width:1.0;" width="15" x="74" y="178.5869"/><rect fill="#FFFFFF" height="2" style="stroke:#000000;stroke-width:1.0;" width="4" x="72" y="180.5869"/><rect fill="#FFFFFF" height="2" style="stroke:#000000;stroke-width:1.0;" width="4" x="72" y="184.5869"/><text fill="#000000" font-family="Consolas" font-size="14" lengthAdjust="spacing" textLength="42" x="27" y="206.582">&#24378;&#24341;&#29992;</text></g><!--entity ???--><g id="elem_&#36719;&#24341;&#29992;"><rect fill="#FFFFFF" height="46.2969" rx="2.5" ry="2.5" style="stroke:#000000;stroke-width:1.0;" width="82" x="166" y="173.5869"/><rect fill="#FFFFFF" height="10" style="stroke:#000000;stroke-width:1.0;" width="15" x="228" y="178.5869"/><rect fill="#FFFFFF" height="2" style="stroke:#000000;stroke-width:1.0;" width="4" x="226" y="180.5869"/><rect fill="#FFFFFF" height="2" style="stroke:#000000;stroke-width:1.0;" width="4" x="226" y="184.5869"/><text fill="#000000" font-family="Consolas" font-size="14" lengthAdjust="spacing" textLength="42" x="181" y="206.582">&#36719;&#24341;&#29992;</text></g><!--entity ???--><g id="elem_&#24369;&#24341;&#29992;"><rect fill="#FFFFFF" height="46.2969" rx="2.5" ry="2.5" style="stroke:#000000;stroke-width:1.0;" width="82" x="306" y="173.5869"/><rect fill="#FFFFFF" height="10" style="stroke:#000000;stroke-width:1.0;" width="15" x="368" y="178.5869"/><rect fill="#FFFFFF" height="2" style="stroke:#000000;stroke-width:1.0;" width="4" x="366" y="180.5869"/><rect fill="#FFFFFF" height="2" style="stroke:#000000;stroke-width:1.0;" width="4" x="366" y="184.5869"/><text fill="#000000" font-family="Consolas" font-size="14" lengthAdjust="spacing" textLength="42" x="321" y="206.582">&#24369;&#24341;&#29992;</text></g><!--entity ???--><g id="elem_&#34394;&#24341;&#29992;"><rect fill="#FFFFFF" height="46.2969" rx="2.5" ry="2.5" style="stroke:#000000;stroke-width:1.0;" width="82" x="439" y="173.5869"/><rect fill="#FFFFFF" height="10" style="stroke:#000000;stroke-width:1.0;" width="15" x="501" y="178.5869"/><rect fill="#FFFFFF" height="2" style="stroke:#000000;stroke-width:1.0;" width="4" x="499" y="180.5869"/><rect fill="#FFFFFF" height="2" style="stroke:#000000;stroke-width:1.0;" width="4" x="499" y="184.5869"/><text fill="#000000" font-family="Consolas" font-size="14" lengthAdjust="spacing" textLength="42" x="454" y="206.582">&#34394;&#24341;&#29992;</text></g><!--link R to ???--><g id="link_R_&#24378;&#24341;&#29992;"><path d="M251.78,72.7069 C209.74,72.8869 125.15,79.4469 76,125.5869 C64.45,136.4369 58.69,153.1569 55.83,167.5569 " fill="none" id="R-to-&#24378;&#24341;&#29992;" style="stroke:#000000;stroke-width:1.0;"/><polygon fill="#000000" points="54.83,172.1469,60.3359,163.9808,55.7006,167.2232,52.4581,162.5879,54.83,172.1469" style="stroke:#000000;stroke-width:1.0;"/><text fill="#000000" font-family="Consolas" font-size="14" lengthAdjust="spacing" textLength="112" x="77" y="139.582">&#19981;&#20250;&#21457;&#29983;&#22403;&#22334;&#22238;&#25910;</text></g><!--link R to ???--><g id="link_R_&#36719;&#24341;&#29992;"><path d="M251.76,83.9169 C234.87,92.4269 213.98,106.1969 204,125.5869 C197.41,138.3969 197.54,154.3169 199.59,167.7569 " fill="none" id="R-to-&#36719;&#24341;&#29992;" style="stroke:#0000FF;stroke-width:1.0;stroke-dasharray:7.0,7.0;"/><polygon fill="#0000FF" points="200.58,172.3469,202.9471,162.7867,199.707,167.4237,195.07,164.1835,200.58,172.3469" style="stroke:#0000FF;stroke-width:1.0;"/><text fill="#000000" font-family="Consolas" font-size="14" lengthAdjust="spacing" textLength="98" x="205" y="139.582">&#20869;&#23384;&#19981;&#36275;&#26102;&#22238;&#25910;</text></g><!--link R to ???--><g id="link_R_&#24369;&#24341;&#29992;"><path d="M290.57,95.9469 C296.04,105.1069 302.38,115.8169 308,125.5869 C316.03,139.5569 324.77,155.2269 331.93,168.1969 " fill="none" id="R-to-&#24369;&#24341;&#29992;" style="stroke:#008000;stroke-width:1.0;stroke-dasharray:7.0,7.0;"/><polygon fill="#008000" points="334.69,172.2169,333.8404,162.4047,332.2727,167.84,326.8374,166.2724,334.69,172.2169" style="stroke:#008000;stroke-width:1.0;"/><text fill="#000000" font-family="Consolas" font-size="14" lengthAdjust="spacing" textLength="91" x="318" y="139.582">&#19979;&#27425;GC&#26102;&#22238;&#25910;</text></g><!--link R to ???--><g id="link_R_&#34394;&#24341;&#29992;"><path d="M302.44,78.8469 C332.11,86.0069 381.72,100.7369 418,125.5869 C434.75,137.0569 449.91,154.0369 461.05,168.4069 " fill="none" id="R-to-&#34394;&#24341;&#29992;" style="stroke:#FF0000;stroke-width:1.0;stroke-dasharray:7.0,7.0;"/><polygon fill="#FF0000" points="464.67,172.1769,462.3932,162.5948,461.6381,168.201,456.0318,167.4459,464.67,172.1769" style="stroke:#FF0000;stroke-width:1.0;"/><text fill="#000000" font-family="Consolas" font-size="14" lengthAdjust="spacing" textLength="91" x="438" y="139.582">&#19979;&#27425;GC&#26102;&#22238;&#25910;</text></g><!--SRC=[Kop9ICrDLIZ8ISpCuohEpimhI2nAp5KeoIp9INNBpoi9pgnALJ0qGP9AIKrBBCqf8IZfbmWqrpa_hpW_9x6O2soWmjFPivylxtswVkUBZGkVxfdwVCeAhkYWM0NT55qxXUYdUtP1n68Lh1IUxEXzicVMq_w9pwVCVpgl-UcSVKzdptisPHjOlLvAj79IJcbgh1vGsukzwn7QdhQrFbqx0wZvnRRDpwPlGzEJNfIQcWVMz7JFHcIxkf-jMUZkZAcXA3K5OiVCMNYK0m00]--></g></svg>