<?xml version="1.0" encoding="us-ascii" standalone="no"?><svg xmlns="http://www.w3.org/2000/svg" xmlns:xlink="http://www.w3.org/1999/xlink" contentStyleType="text/css" height="335px" preserveAspectRatio="none" style="width:634px;height:335px;background:#FFFFFF;" version="1.1" viewBox="0 0 634 335" width="634px" zoomAndPan="magnify"><defs/><g><text fill="#000000" font-family="Consolas" font-size="14" font-weight="bold" lengthAdjust="spacing" textLength="285" x="173" y="27.9951">@Resource&#27880;&#35299;&#23383;&#27573;&#27880;&#20837;&#21644;&#26041;&#27861;&#27880;&#20837;&#30340;&#27969;&#31243;</text><text fill="#000000" font-family="Consolas" font-size="14" font-weight="bold" lengthAdjust="spacing" textLength="221" x="205" y="44.292">&#65288;ResourceElement#inject&#65289;</text><ellipse cx="317" cy="68.5938" fill="#FFFFFF" rx="10" ry="10" style="stroke:#000000;stroke-width:1.0;"/><polygon fill="#FFFFFF" points="219,98.5938,415,98.5938,427,110.5938,415,122.5938,219,122.5938,207,110.5938,219,98.5938" style="stroke:#000000;stroke-width:1.0;"/><text fill="#000000" font-family="Consolas" font-size="14" lengthAdjust="spacing" textLength="196" x="219" y="115.4404">&#24403;&#21069;&#27880;&#20837;&#20803;&#32032;&#26159;&#21542;&#26469;&#28304;&#20110;&#23383;&#27573;&#65311;</text><text fill="#000000" font-family="Consolas" font-size="14" lengthAdjust="spacing" textLength="14" x="193" y="107.292">&#26159;</text><text fill="#000000" font-family="Consolas" font-size="14" lengthAdjust="spacing" textLength="14" x="427" y="107.292">&#21542;</text><rect fill="#FFFFFF" height="52.5938" rx="12.5" ry="12.5" style="stroke:#000000;stroke-width:1.0;" width="301" x="6" y="132.5938"/><text fill="#000000" font-family="Consolas" font-size="14" lengthAdjust="spacing" textLength="112" x="20" y="155.5889">&#33719;&#21462;&#35201;&#27880;&#20837;&#30340;&#36164;&#28304;</text><text fill="#000000" font-family="Consolas" font-size="14" lengthAdjust="spacing" textLength="281" x="16" y="171.8857">ResourceElement#getResourceToInject</text><rect fill="#FFFFFF" height="52.5938" rx="12.5" ry="12.5" style="stroke:#000000;stroke-width:1.0;" width="220" x="46.5" y="205.1875"/><text fill="#000000" font-family="Consolas" font-size="14" lengthAdjust="spacing" textLength="196" x="60.5" y="228.1826">&#36890;&#36807;&#21453;&#23556;&#35774;&#32622;&#23383;&#27573;&#20540;&#26469;&#27880;&#20837;&#20381;&#36182;</text><text fill="#000000" font-family="Consolas" font-size="14" lengthAdjust="spacing" textLength="66" x="56.5" y="244.4795">Field#set</text><rect fill="#FFFFFF" height="52.5938" rx="12.5" ry="12.5" style="stroke:#000000;stroke-width:1.0;" width="301" x="327" y="132.5938"/><text fill="#000000" font-family="Consolas" font-size="14" lengthAdjust="spacing" textLength="112" x="341" y="155.5889">&#33719;&#21462;&#35201;&#27880;&#20837;&#30340;&#36164;&#28304;</text><text fill="#000000" font-family="Consolas" font-size="14" lengthAdjust="spacing" textLength="281" x="337" y="171.8857">ResourceElement#getResourceToInject</text><rect fill="#FFFFFF" height="52.5938" rx="12.5" ry="12.5" style="stroke:#000000;stroke-width:1.0;" width="206" x="374.5" y="205.1875"/><text fill="#000000" font-family="Consolas" font-size="14" lengthAdjust="spacing" textLength="182" x="388.5" y="228.1826">&#36890;&#36807;&#21453;&#23556;&#35843;&#29992;&#26041;&#27861;&#26469;&#27880;&#20837;&#20381;&#36182;</text><text fill="#000000" font-family="Consolas" font-size="14" lengthAdjust="spacing" textLength="110" x="384.5" y="244.4795">Method#invoke</text><polygon fill="#FFFFFF" points="317,263.7813,329,275.7813,317,287.7813,305,275.7813,317,263.7813" style="stroke:#000000;stroke-width:1.0;"/><ellipse cx="317" cy="318.7813" fill="#FFFFFF" rx="11" ry="11" style="stroke:#000000;stroke-width:1.0;"/><ellipse cx="317" cy="318.7813" fill="#000000" rx="6" ry="6" style="stroke:#7F7F7F;stroke-width:1.0;"/><line style="stroke:#000000;stroke-width:1.0;" x1="156.5" x2="156.5" y1="185.1875" y2="205.1875"/><polygon fill="#000000" points="152.5,195.1875,156.5,205.1875,160.5,195.1875,156.5,199.1875" style="stroke:#000000;stroke-width:1.0;"/><line style="stroke:#000000;stroke-width:1.0;" x1="477.5" x2="477.5" y1="185.1875" y2="205.1875"/><polygon fill="#000000" points="473.5,195.1875,477.5,205.1875,481.5,195.1875,477.5,199.1875" style="stroke:#000000;stroke-width:1.0;"/><line style="stroke:#000000;stroke-width:1.0;" x1="207" x2="156.5" y1="110.5938" y2="110.5938"/><line style="stroke:#000000;stroke-width:1.0;" x1="156.5" x2="156.5" y1="110.5938" y2="132.5938"/><polygon fill="#000000" points="152.5,122.5938,156.5,132.5938,160.5,122.5938,156.5,126.5938" style="stroke:#000000;stroke-width:1.0;"/><line style="stroke:#000000;stroke-width:1.0;" x1="427" x2="477.5" y1="110.5938" y2="110.5938"/><line style="stroke:#000000;stroke-width:1.0;" x1="477.5" x2="477.5" y1="110.5938" y2="132.5938"/><polygon fill="#000000" points="473.5,122.5938,477.5,132.5938,481.5,122.5938,477.5,126.5938" style="stroke:#000000;stroke-width:1.0;"/><line style="stroke:#000000;stroke-width:1.0;" x1="156.5" x2="156.5" y1="257.7813" y2="275.7813"/><line style="stroke:#000000;stroke-width:1.0;" x1="156.5" x2="305" y1="275.7813" y2="275.7813"/><polygon fill="#000000" points="295,271.7813,305,275.7813,295,279.7813,299,275.7813" style="stroke:#000000;stroke-width:1.0;"/><line style="stroke:#000000;stroke-width:1.0;" x1="477.5" x2="477.5" y1="257.7813" y2="275.7813"/><line style="stroke:#000000;stroke-width:1.0;" x1="477.5" x2="329" y1="275.7813" y2="275.7813"/><polygon fill="#000000" points="339,271.7813,329,275.7813,339,279.7813,335,275.7813" style="stroke:#000000;stroke-width:1.0;"/><line style="stroke:#000000;stroke-width:1.0;" x1="317" x2="317" y1="78.5938" y2="98.5938"/><polygon fill="#000000" points="313,88.5938,317,98.5938,321,88.5938,317,92.5938" style="stroke:#000000;stroke-width:1.0;"/><line style="stroke:#000000;stroke-width:1.0;" x1="317" x2="317" y1="287.7813" y2="307.7813"/><polygon fill="#000000" points="313,297.7813,317,307.7813,321,297.7813,317,301.7813" style="stroke:#000000;stroke-width:1.0;"/><!--SRC=[jP0xJq8n7CLdxwUeOO7Hn4aN4oE9WmxgoD9m_qZbqX9Q79mWG9GeZ_X0Ga8qCI2BI88tHdB1BqDxhnDVmV8oXiN9hUt9EUVNiogY40UKi32X1eyHci1974U220k2Z8f3SWPeRVsNP484fopnfxYFTUusevnPc1lJGBHr09obac5GlRRt_2HVxbN7rcUPRyhhArNzKBsxsTMjvvITSTkN8JfsBXQs7Kl3Kk4Zz0J2OkmK38CBd1G6YI2_7Dp8Gd6Ubi-wRu-gzYehBTLegdvbr2_DwiREGm3fNrFarth0MDb0NkbTbgjUA_FJxTavxGdHvU9Z48kd8xOxfTYS97obwzxdkImNPJVdTORke3ChasbdKZ-D7GqRdbqDqI01o_Hnq4wmE6ZmIki_CBfPzxOzttIPOGz4b9bwnrCM0yr1JHBHKxB4Dm00]--></g></svg>