<?xml version="1.0" encoding="us-ascii" standalone="no"?><svg xmlns="http://www.w3.org/2000/svg" xmlns:xlink="http://www.w3.org/1999/xlink" contentStyleType="text/css" height="158px" preserveAspectRatio="none" style="width:638px;height:158px;background:#FFFFFF;" version="1.1" viewBox="0 0 638 158" width="638px" zoomAndPan="magnify"><defs/><g><text fill="#000000" font-family="sans-serif" font-size="14" font-weight="bold" lengthAdjust="spacing" textLength="135" x="244.5" y="22.9951">Spring&#24212;&#29992;&#21019;&#24314;&#27969;&#31243;</text><ellipse cx="16" cy="61.2869" fill="#222222" rx="10" ry="10" style="stroke:none;stroke-width:1.0;"/><rect fill="#F1F1F1" height="33.9688" rx="12.5" ry="12.5" style="stroke:#181818;stroke-width:0.5;" width="116" x="46" y="44.2969"/><text fill="#000000" font-family="sans-serif" font-size="12" lengthAdjust="spacing" textLength="96" x="56" y="65.4355">1.&#35774;&#32622;&#36164;&#28304;&#21152;&#36733;&#22120;</text><rect fill="#F1F1F1" height="33.9688" rx="12.5" ry="12.5" style="stroke:#181818;stroke-width:0.5;" width="116" x="182" y="44.2969"/><text fill="#000000" font-family="sans-serif" font-size="12" lengthAdjust="spacing" textLength="96" x="192" y="65.4355">2.&#35774;&#32622;&#21021;&#22987;&#36164;&#28304;&#31867;</text><rect fill="#F1F1F1" height="33.9688" rx="12.5" ry="12.5" style="stroke:#181818;stroke-width:0.5;" width="131" x="317.5" y="44.2969"/><text fill="#000000" font-family="sans-serif" font-size="12" lengthAdjust="spacing" textLength="111" x="327.5" y="65.4355">3.&#25512;&#27979;Web&#24212;&#29992;&#31867;&#22411;</text><rect fill="#F1F1F1" height="33.9688" rx="12.5" ry="12.5" style="stroke:#181818;stroke-width:0.5;" width="164" x="468" y="44.2969"/><text fill="#000000" font-family="sans-serif" font-size="12" lengthAdjust="spacing" textLength="144" x="478" y="65.4355">4.&#35774;&#32622;&#24341;&#23548;&#19978;&#19979;&#25991;&#21021;&#22987;&#21270;&#22120;</text><rect fill="#F1F1F1" height="33.9688" rx="12.5" ry="12.5" style="stroke:#181818;stroke-width:0.5;" width="164" x="468" y="118.2669"/><text fill="#000000" font-family="sans-serif" font-size="12" lengthAdjust="spacing" textLength="144" x="478" y="139.4055">5.&#35774;&#32622;&#24212;&#29992;&#19978;&#19979;&#25991;&#21021;&#22987;&#21270;&#22120;</text><rect fill="#F1F1F1" height="33.9688" rx="12.5" ry="12.5" style="stroke:#181818;stroke-width:0.5;" width="116" x="332" y="118.2669"/><text fill="#000000" font-family="sans-serif" font-size="12" lengthAdjust="spacing" textLength="96" x="342" y="139.4055">6.&#35774;&#32622;&#24212;&#29992;&#30417;&#21548;&#22120;</text><rect fill="#F1F1F1" height="33.9688" rx="12.5" ry="12.5" style="stroke:#181818;stroke-width:0.5;" width="92" x="220" y="118.2669"/><text fill="#000000" font-family="sans-serif" font-size="12" lengthAdjust="spacing" textLength="72" x="230" y="139.4055">7.&#25512;&#27979;&#21551;&#21160;&#31867;</text><ellipse cx="190" cy="135.2569" fill="none" rx="10" ry="10" style="stroke:#222222;stroke-width:1.0;"/><ellipse cx="190.5" cy="135.7569" fill="#222222" rx="6" ry="6" style="stroke:none;stroke-width:1.0;"/><!--link start to 1.???????--><g id="link_start_1.&#35774;&#32622;&#36164;&#28304;&#21152;&#36733;&#22120;"><path d="M26.31,61.2869 C30.86,61.2869 35.42,61.2869 39.97,61.2869 " fill="none" id="start-to-1.&#35774;&#32622;&#36164;&#28304;&#21152;&#36733;&#22120;" style="stroke:#181818;stroke-width:1.0;"/><polygon fill="#181818" points="44.73,61.2869,35.73,57.2869,39.73,61.2869,35.73,65.2869,44.73,61.2869" style="stroke:#181818;stroke-width:1.0;"/></g><!--link 1.??????? to 2.???????--><g id="link_1.&#35774;&#32622;&#36164;&#28304;&#21152;&#36733;&#22120;_2.&#35774;&#32622;&#21021;&#22987;&#36164;&#28304;&#31867;"><path d="M162.44,61.2869 C166.81,61.2869 171.19,61.2869 175.56,61.2869 " fill="none" id="1.&#35774;&#32622;&#36164;&#28304;&#21152;&#36733;&#22120;-to-2.&#35774;&#32622;&#21021;&#22987;&#36164;&#28304;&#31867;" style="stroke:#181818;stroke-width:1.0;"/><polygon fill="#181818" points="180.53,61.2869,171.53,57.2869,175.53,61.2869,171.53,65.2869,180.53,61.2869" style="stroke:#181818;stroke-width:1.0;"/></g><!--link 2.??????? to 3.??Web????--><g id="link_2.&#35774;&#32622;&#21021;&#22987;&#36164;&#28304;&#31867;_3.&#25512;&#27979;Web&#24212;&#29992;&#31867;&#22411;"><path d="M298.37,61.2869 C302.69,61.2869 307.01,61.2869 311.33,61.2869 " fill="none" id="2.&#35774;&#32622;&#21021;&#22987;&#36164;&#28304;&#31867;-to-3.&#25512;&#27979;Web&#24212;&#29992;&#31867;&#22411;" style="stroke:#181818;stroke-width:1.0;"/><polygon fill="#181818" points="316.22,61.2869,307.22,57.2869,311.22,61.2869,307.22,65.2869,316.22,61.2869" style="stroke:#181818;stroke-width:1.0;"/></g><!--link 3.??Web???? to 4.???????????--><g id="link_3.&#25512;&#27979;Web&#24212;&#29992;&#31867;&#22411;_4.&#35774;&#32622;&#24341;&#23548;&#19978;&#19979;&#25991;&#21021;&#22987;&#21270;&#22120;"><path d="M448.89,61.2869 C453.23,61.2869 457.58,61.2869 461.92,61.2869 " fill="none" id="3.&#25512;&#27979;Web&#24212;&#29992;&#31867;&#22411;-to-4.&#35774;&#32622;&#24341;&#23548;&#19978;&#19979;&#25991;&#21021;&#22987;&#21270;&#22120;" style="stroke:#181818;stroke-width:1.0;"/><polygon fill="#181818" points="466.85,61.2869,457.85,57.2869,461.85,61.2869,457.85,65.2869,466.85,61.2869" style="stroke:#181818;stroke-width:1.0;"/></g><!--link 4.??????????? to 5.???????????--><g id="link_4.&#35774;&#32622;&#24341;&#23548;&#19978;&#19979;&#25991;&#21021;&#22987;&#21270;&#22120;_5.&#35774;&#32622;&#24212;&#29992;&#19978;&#19979;&#25991;&#21021;&#22987;&#21270;&#22120;"><path d="M550,78.6169 C550,88.5569 550,101.3769 550,112.2069 " fill="none" id="4.&#35774;&#32622;&#24341;&#23548;&#19978;&#19979;&#25991;&#21021;&#22987;&#21270;&#22120;-to-5.&#35774;&#32622;&#24212;&#29992;&#19978;&#19979;&#25991;&#21021;&#22987;&#21270;&#22120;" style="stroke:#181818;stroke-width:1.0;"/><polygon fill="#181818" points="550,116.9869,554,107.9869,550,111.9869,546,107.9869,550,116.9869" style="stroke:#181818;stroke-width:1.0;"/></g><!--reverse link 6.??????? to 5.???????????--><g id="link_6.&#35774;&#32622;&#24212;&#29992;&#30417;&#21548;&#22120;_5.&#35774;&#32622;&#24212;&#29992;&#19978;&#19979;&#25991;&#21021;&#22987;&#21270;&#22120;"><path d="M454.21,135.2569 C458.76,135.2569 463.32,135.2569 467.88,135.2569 " fill="none" id="6.&#35774;&#32622;&#24212;&#29992;&#30417;&#21548;&#22120;-backto-5.&#35774;&#32622;&#24212;&#29992;&#19978;&#19979;&#25991;&#21021;&#22987;&#21270;&#22120;" style="stroke:#181818;stroke-width:1.0;"/><polygon fill="#181818" points="449.44,135.2569,458.44,139.2569,454.44,135.2569,458.44,131.2569,449.44,135.2569" style="stroke:#181818;stroke-width:1.0;"/></g><!--reverse link 7.????? to 6.???????--><g id="link_7.&#25512;&#27979;&#21551;&#21160;&#31867;_6.&#35774;&#32622;&#24212;&#29992;&#30417;&#21548;&#22120;"><path d="M318.46,135.2569 C322.83,135.2569 327.2,135.2569 331.57,135.2569 " fill="none" id="7.&#25512;&#27979;&#21551;&#21160;&#31867;-backto-6.&#35774;&#32622;&#24212;&#29992;&#30417;&#21548;&#22120;" style="stroke:#181818;stroke-width:1.0;"/><polygon fill="#181818" points="313.5,135.2569,322.5,139.2569,318.5,135.2569,322.5,131.2569,313.5,135.2569" style="stroke:#181818;stroke-width:1.0;"/></g><!--reverse link end to 7.?????--><g id="link_end_7.&#25512;&#27979;&#21551;&#21160;&#31867;"><path d="M206.1,135.2569 C210.6,135.2569 215.11,135.2569 219.61,135.2569 " fill="none" id="end-backto-7.&#25512;&#27979;&#21551;&#21160;&#31867;" style="stroke:#181818;stroke-width:1.0;"/><polygon fill="#181818" points="201.39,135.2569,210.39,139.2569,206.39,135.2569,210.39,131.2569,201.39,135.2569" style="stroke:#181818;stroke-width:1.0;"/></g><!--SRC=[AyaioKbL22ueoinBVxfholCfAvvsp7wwUzUphOtFLtHpQMXfAkWMwTef6EgzMBVl-TvrBxQsFDiruMdNWXTxzpwTkO8BB6a4bNpQCVVfycw8akSRTqCaZVMUzQrujhKxF3K9OW5GvkcyReYa2KpddgbFr-zvigFhoOxkPzFQ8GOzxPa6jY85gD0KfX1i10w5EK25PYWAdy-U-7J26hYaETGjJoUiVzgr0kn4a33Gbm00]--></g></svg>