<?xml version="1.0" encoding="us-ascii" standalone="no"?><svg xmlns="http://www.w3.org/2000/svg" xmlns:xlink="http://www.w3.org/1999/xlink" contentStyleType="text/css" height="94px" preserveAspectRatio="none" style="width:889px;height:94px;background:#FFFFFF;" version="1.1" viewBox="0 0 889 94" width="889px" zoomAndPan="magnify"><defs/><g><!--class TransactionAnnotationParser--><g id="elem_TransactionAnnotationParser"><rect codeLine="1" fill="#F1F1F1" height="80.5938" id="TransactionAnnotationParser" rx="2.5" ry="2.5" style="stroke:#181818;stroke-width:0.5;" width="565" x="7" y="7"/><ellipse cx="185.25" cy="23" fill="#B4A7E5" rx="11" ry="11" style="stroke:#181818;stroke-width:1.0;"/><path d="M181.1719,18.7656 L181.1719,16.6094 L188.5625,16.6094 L188.5625,18.7656 L186.0938,18.7656 L186.0938,26.8438 L188.5625,26.8438 L188.5625,29 L181.1719,29 L181.1719,26.8438 L183.6406,26.8438 L183.6406,18.7656 L181.1719,18.7656 Z " fill="#000000"/><text fill="#000000" font-family="sans-serif" font-size="14" font-style="italic" lengthAdjust="spacing" textLength="200" x="205.75" y="27.8467">TransactionAnnotationParser</text><line style="stroke:#181818;stroke-width:0.5;" x1="8" x2="571" y1="39" y2="39"/><line style="stroke:#181818;stroke-width:0.5;" x1="8" x2="571" y1="47" y2="47"/><ellipse cx="18" cy="60.6484" fill="#84BE84" rx="3" ry="3" style="stroke:#038048;stroke-width:1.0;"/><text fill="#000000" font-family="sans-serif" font-size="14" lengthAdjust="spacing" textLength="256" x="27" y="63.9951">isCandidateClass(Class&lt;?&gt;) boolean</text><ellipse cx="18" cy="76.9453" fill="#84BE84" rx="3" ry="3" style="stroke:#038048;stroke-width:1.0;"/><text fill="#000000" font-family="sans-serif" font-size="14" lengthAdjust="spacing" textLength="539" x="27" y="80.292">parseTransactionAnnotation(AnnotatedElement element) TransactionAttribute</text></g><!--class SpringTransactionAnnotationParser--><g id="elem_SpringTransactionAnnotationParser"><rect codeLine="5" fill="#F1F1F1" height="48" id="SpringTransactionAnnotationParser" rx="2.5" ry="2.5" style="stroke:#181818;stroke-width:0.5;" width="276" x="606.5" y="23.29"/><ellipse cx="621.5" cy="39.29" fill="#ADD1B2" rx="11" ry="11" style="stroke:#181818;stroke-width:1.0;"/><path d="M624.4688,44.9306 Q623.8906,45.2275 623.25,45.3681 Q622.6094,45.5244 621.9063,45.5244 Q619.4063,45.5244 618.0781,43.8838 Q616.7656,42.2275 616.7656,39.1025 Q616.7656,35.9775 618.0781,34.3213 Q619.4063,32.665 621.9063,32.665 Q622.6094,32.665 623.25,32.8213 Q623.9063,32.9775 624.4688,33.2744 L624.4688,35.9931 Q623.8438,35.415 623.25,35.1494 Q622.6563,34.8681 622.0313,34.8681 Q620.6875,34.8681 620,35.9463 Q619.3125,37.0088 619.3125,39.1025 Q619.3125,41.1963 620,42.2744 Q620.6875,43.3369 622.0313,43.3369 Q622.6563,43.3369 623.25,43.0713 Q623.8438,42.79 624.4688,42.2119 L624.4688,44.9306 Z " fill="#000000"/><text fill="#000000" font-family="sans-serif" font-size="14" lengthAdjust="spacing" textLength="244" x="635.5" y="44.1367">SpringTransactionAnnotationParser</text><line style="stroke:#181818;stroke-width:0.5;" x1="607.5" x2="881.5" y1="55.29" y2="55.29"/><line style="stroke:#181818;stroke-width:0.5;" x1="607.5" x2="881.5" y1="63.29" y2="63.29"/></g><!--reverse link TransactionAnnotationParser to SpringTransactionAnnotationParser--><g id="link_TransactionAnnotationParser_SpringTransactionAnnotationParser"><path codeLine="6" d="M593.09,47.29 C597.43,47.29 601.77,47.29 606.11,47.29 " fill="none" id="TransactionAnnotationParser-backto-SpringTransactionAnnotationParser" style="stroke:#181818;stroke-width:1.0;stroke-dasharray:7.0,7.0;"/><polygon fill="none" points="593.1,54.29,573.1,47.29,593.1,40.29,593.1,54.29" style="stroke:#181818;stroke-width:1.0;"/></g><!--SRC=[XOz12i9034NNpYcoR15w0gb8SI_e1TAPA84nKvAuqjvTHjq8KZV9N_oVby_Yf6UC12T5COpEHNOYnR6g0wgHmZsiri0se2HEw3HaD6jUSxFjMnXBoOHINLDD_BpLV2IbVQOhYGEzT_l5TbSURquGvX0h0OwJibmM_vl3VrENkqU_LFC9]--></g></svg>