<?xml version="1.0" encoding="us-ascii" standalone="no"?><svg xmlns="http://www.w3.org/2000/svg" xmlns:xlink="http://www.w3.org/1999/xlink" contentStyleType="text/css" height="358px" preserveAspectRatio="none" style="width:488px;height:358px;background:#FFFFFF;" version="1.1" viewBox="0 0 488 358" width="488px" zoomAndPan="magnify"><defs/><g><text fill="#000000" font-family="sans-serif" font-size="14" font-weight="bold" lengthAdjust="spacing" textLength="56" x="209" y="22.9951">&#31867;&#21152;&#36733;&#22120;</text><!--entity boot--><g id="elem_boot"><rect fill="#F1F1F1" height="62.5938" rx="2.5" ry="2.5" style="stroke:#181818;stroke-width:0.5;" width="198" x="145.5" y="44.2969"/><rect fill="#F1F1F1" height="10" style="stroke:#181818;stroke-width:0.5;" width="15" x="323.5" y="49.2969"/><rect fill="#F1F1F1" height="2" style="stroke:#181818;stroke-width:0.5;" width="4" x="321.5" y="51.2969"/><rect fill="#F1F1F1" height="2" style="stroke:#181818;stroke-width:0.5;" width="4" x="321.5" y="55.2969"/><text fill="#000000" font-family="sans-serif" font-size="14" lengthAdjust="spacing" textLength="84" x="160.5" y="77.292">&#21551;&#21160;&#31867;&#21152;&#36733;&#22120;</text><text fill="#000000" font-family="sans-serif" font-size="14" lengthAdjust="spacing" textLength="158" x="160.5" y="93.5889">${JAVA_HOME}/lib/*.jar</text></g><!--entity ext--><g id="elem_ext"><rect fill="#F1F1F1" height="62.5938" rx="2.5" ry="2.5" style="stroke:#181818;stroke-width:0.5;" width="224" x="132.5" y="166.8869"/><rect fill="#F1F1F1" height="10" style="stroke:#181818;stroke-width:0.5;" width="15" x="336.5" y="171.8869"/><rect fill="#F1F1F1" height="2" style="stroke:#181818;stroke-width:0.5;" width="4" x="334.5" y="173.8869"/><rect fill="#F1F1F1" height="2" style="stroke:#181818;stroke-width:0.5;" width="4" x="334.5" y="177.8869"/><text fill="#000000" font-family="sans-serif" font-size="14" lengthAdjust="spacing" textLength="84" x="147.5" y="199.882">&#25193;&#23637;&#31867;&#21152;&#36733;&#22120;</text><text fill="#000000" font-family="sans-serif" font-size="14" lengthAdjust="spacing" textLength="184" x="147.5" y="216.1789">${JAVA_HOME}/lib/ext/*.jar</text></g><!--entity app--><g id="elem_app"><rect fill="#F1F1F1" height="62.5938" rx="2.5" ry="2.5" style="stroke:#181818;stroke-width:0.5;" width="138" x="175.5" y="289.4869"/><rect fill="#F1F1F1" height="10" style="stroke:#181818;stroke-width:0.5;" width="15" x="293.5" y="294.4869"/><rect fill="#F1F1F1" height="2" style="stroke:#181818;stroke-width:0.5;" width="4" x="291.5" y="296.4869"/><rect fill="#F1F1F1" height="2" style="stroke:#181818;stroke-width:0.5;" width="4" x="291.5" y="300.4869"/><text fill="#000000" font-family="sans-serif" font-size="14" lengthAdjust="spacing" textLength="84" x="190.5" y="322.482">&#24212;&#29992;&#31867;&#21152;&#36733;&#22120;</text><text fill="#000000" font-family="sans-serif" font-size="14" lengthAdjust="spacing" textLength="98" x="190.5" y="338.7789">classpath/*.jar</text></g><!--entity user1--><g id="elem_user1"><rect fill="#F1F1F1" height="46.2969" rx="2.5" ry="2.5" style="stroke:#181818;stroke-width:0.5;" width="133" x="7" y="297.6269"/><rect fill="#F1F1F1" height="10" style="stroke:#181818;stroke-width:0.5;" width="15" x="120" y="302.6269"/><rect fill="#F1F1F1" height="2" style="stroke:#181818;stroke-width:0.5;" width="4" x="118" y="304.6269"/><rect fill="#F1F1F1" height="2" style="stroke:#181818;stroke-width:0.5;" width="4" x="118" y="308.6269"/><text fill="#000000" font-family="sans-serif" font-size="14" lengthAdjust="spacing" textLength="93" x="22" y="330.622">&#33258;&#23450;&#20041;&#31867;&#21152;&#36733;1</text></g><!--entity user2--><g id="elem_user2"><rect fill="#F1F1F1" height="46.2969" rx="2.5" ry="2.5" style="stroke:#181818;stroke-width:0.5;" width="133" x="349" y="297.6269"/><rect fill="#F1F1F1" height="10" style="stroke:#181818;stroke-width:0.5;" width="15" x="462" y="302.6269"/><rect fill="#F1F1F1" height="2" style="stroke:#181818;stroke-width:0.5;" width="4" x="460" y="304.6269"/><rect fill="#F1F1F1" height="2" style="stroke:#181818;stroke-width:0.5;" width="4" x="460" y="308.6269"/><text fill="#000000" font-family="sans-serif" font-size="14" lengthAdjust="spacing" textLength="93" x="364" y="330.622">&#33258;&#23450;&#20041;&#31867;&#21152;&#36733;2</text></g><!--link user1 to app--><g id="link_user1_app"><path d="M140.3,320.7769 C150.05,320.7769 159.81,320.7769 169.56,320.7769 " fill="none" id="user1-to-app" style="stroke:#181818;stroke-width:1.0;"/><polygon fill="#181818" points="174.3,320.7769,165.3,316.7769,169.3,320.7769,165.3,324.7769,174.3,320.7769" style="stroke:#181818;stroke-width:1.0;"/></g><!--reverse link app to user2--><g id="link_app_user2"><path d="M319.97,320.7769 C329.6,320.7769 339.24,320.7769 348.87,320.7769 " fill="none" id="app-backto-user2" style="stroke:#181818;stroke-width:1.0;"/><polygon fill="#181818" points="314.97,320.7769,323.97,324.7769,319.97,320.7769,323.97,316.7769,314.97,320.7769" style="stroke:#181818;stroke-width:1.0;"/></g><!--reverse link ext to app--><g id="link_ext_app"><path d="M244.5,235.5969 C244.5,252.6769 244.5,272.7969 244.5,289.0969 " fill="none" id="ext-backto-app" style="stroke:#181818;stroke-width:1.0;"/><polygon fill="#181818" points="244.5,230.9269,240.5,239.9269,244.5,235.9269,248.5,239.9269,244.5,230.9269" style="stroke:#181818;stroke-width:1.0;"/></g><!--reverse link boot to ext--><g id="link_boot_ext"><path d="M244.5,112.9969 C244.5,130.0769 244.5,150.2069 244.5,166.4969 " fill="none" id="boot-backto-ext" style="stroke:#181818;stroke-width:1.0;"/><polygon fill="#181818" points="244.5,108.3369,240.5,117.3369,244.5,113.3369,248.5,117.3369,244.5,108.3369" style="stroke:#181818;stroke-width:1.0;"/></g><!--SRC=[AyaioKbLUBvnzzEk1I_sxdqwSmLNzDC9wvzshK0MYybJgVPo37ECz_3tTQtLpybCqjVIoqeiYbL8B5P8oiyluOf-rhdowSQf13IbLfGWQGJoW9Rjcl9y2ffboJc9nSK5YIKPI8eJ2mgueb-qhtgwRjQJdPrmzOPWoTBYr293RD96S6aZBYwmAWNT8bqxi6bWKGNT72WNY1LqIu4SaBE06C81UGu0]--></g></svg>