<?xml version="1.0" encoding="us-ascii" standalone="no"?><svg xmlns="http://www.w3.org/2000/svg" xmlns:xlink="http://www.w3.org/1999/xlink" contentStyleType="text/css" height="516px" preserveAspectRatio="none" style="width:962px;height:516px;background:#FFFFFF;" version="1.1" viewBox="0 0 962 516" width="962px" zoomAndPan="magnify"><defs/><g><!--class BeanDefinition--><g id="elem_BeanDefinition"><rect codeLine="1" fill="#F1F1F1" height="48" id="BeanDefinition" rx="2.5" ry="2.5" style="stroke:#181818;stroke-width:0.5;" width="133" x="554.5" y="7"/><ellipse cx="569.5" cy="23" fill="#B4A7E5" rx="11" ry="11" style="stroke:#181818;stroke-width:1.0;"/><path d="M565.4219,18.7656 L565.4219,16.6094 L572.8125,16.6094 L572.8125,18.7656 L570.3438,18.7656 L570.3438,26.8438 L572.8125,26.8438 L572.8125,29 L565.4219,29 L565.4219,26.8438 L567.8906,26.8438 L567.8906,18.7656 L565.4219,18.7656 Z " fill="#000000"/><text fill="#000000" font-family="sans-serif" font-size="14" font-style="italic" lengthAdjust="spacing" textLength="101" x="583.5" y="27.8467">BeanDefinition</text><line style="stroke:#181818;stroke-width:0.5;" x1="555.5" x2="686.5" y1="39" y2="39"/><line style="stroke:#181818;stroke-width:0.5;" x1="555.5" x2="686.5" y1="47" y2="47"/></g><!--class AbstractBeanDefinition--><g id="elem_AbstractBeanDefinition"><rect codeLine="2" fill="#F1F1F1" height="96.8906" id="AbstractBeanDefinition" rx="2.5" ry="2.5" style="stroke:#181818;stroke-width:0.5;" width="420" x="280" y="115"/><ellipse cx="406.75" cy="131" fill="#A9DCDF" rx="11" ry="11" style="stroke:#181818;stroke-width:1.0;"/><path d="M406.8594,126.3438 L405.7031,131.4219 L408.0313,131.4219 L406.8594,126.3438 Z M405.375,124.1094 L408.3594,124.1094 L411.7188,136.5 L409.2656,136.5 L408.5,133.4375 L405.2188,133.4375 L404.4688,136.5 L402.0313,136.5 L405.375,124.1094 Z " fill="#000000"/><text fill="#000000" font-family="sans-serif" font-size="14" font-style="italic" lengthAdjust="spacing" textLength="158" x="427.25" y="135.8467">AbstractBeanDefinition</text><line style="stroke:#181818;stroke-width:0.5;" x1="281" x2="699" y1="147" y2="147"/><rect fill="none" height="6" style="stroke:#C82930;stroke-width:1.0;" width="6" x="288" y="157.6484"/><text fill="#000000" font-family="sans-serif" font-size="14" lengthAdjust="spacing" textLength="121" x="300" y="163.9951">Object beanClass</text><rect fill="none" height="6" style="stroke:#C82930;stroke-width:1.0;" width="6" x="288" y="173.9453"/><text fill="#000000" font-family="sans-serif" font-size="14" lengthAdjust="spacing" textLength="394" x="300" y="180.292">ConstructorArgumentValues constructorArgumentValues</text><rect fill="none" height="6" style="stroke:#C82930;stroke-width:1.0;" width="6" x="288" y="190.2422"/><text fill="#000000" font-family="sans-serif" font-size="14" lengthAdjust="spacing" textLength="267" x="300" y="196.5889">MutablePropertyValues propertyValues</text><line style="stroke:#181818;stroke-width:0.5;" x1="281" x2="699" y1="203.8906" y2="203.8906"/></g><!--class RootBeanDefinition--><g id="elem_RootBeanDefinition"><rect codeLine="7" fill="#F1F1F1" height="48" id="RootBeanDefinition" rx="2.5" ry="2.5" style="stroke:#181818;stroke-width:0.5;" width="166" x="79" y="139.45"/><ellipse cx="94" cy="155.45" fill="#ADD1B2" rx="11" ry="11" style="stroke:#181818;stroke-width:1.0;"/><path d="M96.9688,161.0906 Q96.3906,161.3875 95.75,161.5281 Q95.1094,161.6844 94.4063,161.6844 Q91.9063,161.6844 90.5781,160.0438 Q89.2656,158.3875 89.2656,155.2625 Q89.2656,152.1375 90.5781,150.4813 Q91.9063,148.825 94.4063,148.825 Q95.1094,148.825 95.75,148.9813 Q96.4063,149.1375 96.9688,149.4344 L96.9688,152.1531 Q96.3438,151.575 95.75,151.3094 Q95.1563,151.0281 94.5313,151.0281 Q93.1875,151.0281 92.5,152.1063 Q91.8125,153.1688 91.8125,155.2625 Q91.8125,157.3563 92.5,158.4344 Q93.1875,159.4969 94.5313,159.4969 Q95.1563,159.4969 95.75,159.2313 Q96.3438,158.95 96.9688,158.3719 L96.9688,161.0906 Z " fill="#000000"/><text fill="#000000" font-family="sans-serif" font-size="14" lengthAdjust="spacing" textLength="134" x="108" y="160.2967">RootBeanDefinition</text><line style="stroke:#181818;stroke-width:0.5;" x1="80" x2="244" y1="171.45" y2="171.45"/><line style="stroke:#181818;stroke-width:0.5;" x1="80" x2="244" y1="179.45" y2="179.45"/></g><!--class GenericBeanDefinition--><g id="elem_GenericBeanDefinition"><rect codeLine="8" fill="#F1F1F1" height="64.2969" id="GenericBeanDefinition" rx="2.5" ry="2.5" style="stroke:#181818;stroke-width:0.5;" width="187" x="386.5" y="288.19"/><ellipse cx="401.5" cy="304.19" fill="#ADD1B2" rx="11" ry="11" style="stroke:#181818;stroke-width:1.0;"/><path d="M404.4688,309.8306 Q403.8906,310.1275 403.25,310.2681 Q402.6094,310.4244 401.9063,310.4244 Q399.4063,310.4244 398.0781,308.7838 Q396.7656,307.1275 396.7656,304.0025 Q396.7656,300.8775 398.0781,299.2213 Q399.4063,297.565 401.9063,297.565 Q402.6094,297.565 403.25,297.7213 Q403.9063,297.8775 404.4688,298.1744 L404.4688,300.8931 Q403.8438,300.315 403.25,300.0494 Q402.6563,299.7681 402.0313,299.7681 Q400.6875,299.7681 400,300.8463 Q399.3125,301.9088 399.3125,304.0025 Q399.3125,306.0963 400,307.1744 Q400.6875,308.2369 402.0313,308.2369 Q402.6563,308.2369 403.25,307.9713 Q403.8438,307.69 404.4688,307.1119 L404.4688,309.8306 Z " fill="#000000"/><text fill="#000000" font-family="sans-serif" font-size="14" lengthAdjust="spacing" textLength="155" x="415.5" y="309.0367">GenericBeanDefinition</text><line style="stroke:#181818;stroke-width:0.5;" x1="387.5" x2="572.5" y1="320.19" y2="320.19"/><rect fill="none" height="6" style="stroke:#C82930;stroke-width:1.0;" width="6" x="394.5" y="330.8384"/><text fill="#000000" font-family="sans-serif" font-size="14" lengthAdjust="spacing" textLength="129" x="406.5" y="337.1851">String parentName</text><line style="stroke:#181818;stroke-width:0.5;" x1="387.5" x2="572.5" y1="344.4869" y2="344.4869"/></g><!--class ScannedGenericBeanDefinition--><g id="elem_ScannedGenericBeanDefinition"><rect codeLine="11" fill="#F1F1F1" height="64.2969" id="ScannedGenericBeanDefinition" rx="2.5" ry="2.5" style="stroke:#181818;stroke-width:0.5;" width="248" x="350" y="436.93"/><ellipse cx="365" cy="452.93" fill="#ADD1B2" rx="11" ry="11" style="stroke:#181818;stroke-width:1.0;"/><path d="M367.9688,458.5706 Q367.3906,458.8675 366.75,459.0081 Q366.1094,459.1644 365.4063,459.1644 Q362.9063,459.1644 361.5781,457.5238 Q360.2656,455.8675 360.2656,452.7425 Q360.2656,449.6175 361.5781,447.9613 Q362.9063,446.305 365.4063,446.305 Q366.1094,446.305 366.75,446.4613 Q367.4063,446.6175 367.9688,446.9144 L367.9688,449.6331 Q367.3438,449.055 366.75,448.7894 Q366.1563,448.5081 365.5313,448.5081 Q364.1875,448.5081 363.5,449.5863 Q362.8125,450.6488 362.8125,452.7425 Q362.8125,454.8363 363.5,455.9144 Q364.1875,456.9769 365.5313,456.9769 Q366.1563,456.9769 366.75,456.7113 Q367.3438,456.43 367.9688,455.8519 L367.9688,458.5706 Z " fill="#000000"/><text fill="#000000" font-family="sans-serif" font-size="14" lengthAdjust="spacing" textLength="216" x="379" y="457.7767">ScannedGenericBeanDefinition</text><line style="stroke:#181818;stroke-width:0.5;" x1="351" x2="597" y1="468.93" y2="468.93"/><rect fill="none" height="6" style="stroke:#C82930;stroke-width:1.0;" width="6" x="358" y="479.5784"/><text fill="#000000" font-family="sans-serif" font-size="14" lengthAdjust="spacing" textLength="208" x="370" y="485.9251">AnnotationMetadata metadata</text><line style="stroke:#181818;stroke-width:0.5;" x1="351" x2="597" y1="493.2269" y2="493.2269"/></g><!--class AnnotatedBeanDefinition--><g id="elem_AnnotatedBeanDefinition"><rect codeLine="14" fill="#F1F1F1" height="80.5938" id="AnnotatedBeanDefinition" rx="2.5" ry="2.5" style="stroke:#181818;stroke-width:0.5;" width="347" x="608.5" y="280.04"/><ellipse cx="691.25" cy="296.04" fill="#B4A7E5" rx="11" ry="11" style="stroke:#181818;stroke-width:1.0;"/><path d="M687.1719,291.8056 L687.1719,289.6494 L694.5625,289.6494 L694.5625,291.8056 L692.0938,291.8056 L692.0938,299.8837 L694.5625,299.8837 L694.5625,302.04 L687.1719,302.04 L687.1719,299.8837 L689.6406,299.8837 L689.6406,291.8056 L687.1719,291.8056 Z " fill="#000000"/><text fill="#000000" font-family="sans-serif" font-size="14" font-style="italic" lengthAdjust="spacing" textLength="173" x="711.75" y="300.8867">AnnotatedBeanDefinition</text><line style="stroke:#181818;stroke-width:0.5;" x1="609.5" x2="954.5" y1="312.04" y2="312.04"/><line style="stroke:#181818;stroke-width:0.5;" x1="609.5" x2="954.5" y1="320.04" y2="320.04"/><ellipse cx="619.5" cy="333.6884" fill="#84BE84" rx="3" ry="3" style="stroke:#038048;stroke-width:1.0;"/><text fill="#000000" font-family="sans-serif" font-size="14" lengthAdjust="spacing" textLength="240" x="628.5" y="337.0351">getMetadata() AnnotationMetadata</text><ellipse cx="619.5" cy="349.9853" fill="#84BE84" rx="3" ry="3" style="stroke:#038048;stroke-width:1.0;"/><text fill="#000000" font-family="sans-serif" font-size="14" lengthAdjust="spacing" textLength="321" x="628.5" y="353.332">getFactoryMethodMetadata() MethodMetadata</text></g><!--class AnnotatedGenericBeanDefinition--><g id="elem_AnnotatedGenericBeanDefinition"><rect codeLine="18" fill="#F1F1F1" height="80.5938" id="AnnotatedGenericBeanDefinition" rx="2.5" ry="2.5" style="stroke:#181818;stroke-width:0.5;" width="310" x="633" y="428.79"/><ellipse cx="670.95" cy="444.79" fill="#ADD1B2" rx="11" ry="11" style="stroke:#181818;stroke-width:1.0;"/><path d="M673.9188,450.4306 Q673.3406,450.7275 672.7,450.8681 Q672.0594,451.0244 671.3563,451.0244 Q668.8563,451.0244 667.5281,449.3837 Q666.2156,447.7275 666.2156,444.6025 Q666.2156,441.4775 667.5281,439.8212 Q668.8563,438.165 671.3563,438.165 Q672.0594,438.165 672.7,438.3212 Q673.3563,438.4775 673.9188,438.7744 L673.9188,441.4931 Q673.2938,440.915 672.7,440.6494 Q672.1063,440.3681 671.4813,440.3681 Q670.1375,440.3681 669.45,441.4462 Q668.7625,442.5087 668.7625,444.6025 Q668.7625,446.6962 669.45,447.7744 Q670.1375,448.8369 671.4813,448.8369 Q672.1063,448.8369 672.7,448.5712 Q673.2938,448.29 673.9188,447.7119 L673.9188,450.4306 Z " fill="#000000"/><text fill="#000000" font-family="sans-serif" font-size="14" lengthAdjust="spacing" textLength="227" x="690.05" y="449.6367">AnnotatedGenericBeanDefinition</text><line style="stroke:#181818;stroke-width:0.5;" x1="634" x2="942" y1="460.79" y2="460.79"/><rect fill="none" height="6" style="stroke:#C82930;stroke-width:1.0;" width="6" x="641" y="471.4384"/><text fill="#000000" font-family="sans-serif" font-size="14" lengthAdjust="spacing" textLength="208" x="653" y="477.7851">AnnotationMetadata metadata</text><rect fill="none" height="6" style="stroke:#C82930;stroke-width:1.0;" width="6" x="641" y="487.7353"/><text fill="#000000" font-family="sans-serif" font-size="14" lengthAdjust="spacing" textLength="284" x="653" y="494.082">MethodMetadata factoryMethodMetadata</text><line style="stroke:#181818;stroke-width:0.5;" x1="634" x2="942" y1="501.3837" y2="501.3837"/></g><!--class ConfigurationClassBeanDefinition--><g id="elem_ConfigurationClassBeanDefinition"><rect codeLine="22" fill="#F1F1F1" height="96.8906" id="ConfigurationClassBeanDefinition" rx="2.5" ry="2.5" style="stroke:#181818;stroke-width:0.5;" width="310" x="7" y="271.9"/><ellipse cx="43.6" cy="287.9" fill="#ADD1B2" rx="11" ry="11" style="stroke:#181818;stroke-width:1.0;"/><path d="M46.5688,293.5406 Q45.9906,293.8375 45.35,293.9781 Q44.7094,294.1344 44.0063,294.1344 Q41.5063,294.1344 40.1781,292.4938 Q38.8656,290.8375 38.8656,287.7125 Q38.8656,284.5875 40.1781,282.9313 Q41.5063,281.275 44.0063,281.275 Q44.7094,281.275 45.35,281.4313 Q46.0063,281.5875 46.5688,281.8844 L46.5688,284.6031 Q45.9438,284.025 45.35,283.7594 Q44.7563,283.4781 44.1313,283.4781 Q42.7875,283.4781 42.1,284.5563 Q41.4125,285.6188 41.4125,287.7125 Q41.4125,289.8063 42.1,290.8844 Q42.7875,291.9469 44.1313,291.9469 Q44.7563,291.9469 45.35,291.6813 Q45.9438,291.4 46.5688,290.8219 L46.5688,293.5406 Z " fill="#000000"/><text fill="#000000" font-family="sans-serif" font-size="14" lengthAdjust="spacing" textLength="230" x="62.4" y="292.7467">ConfigurationClassBeanDefinition</text><line style="stroke:#181818;stroke-width:0.5;" x1="8" x2="316" y1="303.9" y2="303.9"/><rect fill="none" height="6" style="stroke:#C82930;stroke-width:1.0;" width="6" x="15" y="314.5484"/><text fill="#000000" font-family="sans-serif" font-size="14" lengthAdjust="spacing" textLength="281" x="27" y="320.8951">AnnotationMetadata annotationMetadata</text><rect fill="none" height="6" style="stroke:#C82930;stroke-width:1.0;" width="6" x="15" y="330.8453"/><text fill="#000000" font-family="sans-serif" font-size="14" lengthAdjust="spacing" textLength="284" x="27" y="337.192">MethodMetadata factoryMethodMetadata</text><rect fill="none" height="6" style="stroke:#C82930;stroke-width:1.0;" width="6" x="15" y="347.1422"/><text fill="#000000" font-family="sans-serif" font-size="14" lengthAdjust="spacing" textLength="171" x="27" y="353.4889">String derivedBeanName</text><line style="stroke:#181818;stroke-width:0.5;" x1="8" x2="316" y1="360.7906" y2="360.7906"/></g><!--reverse link BeanDefinition to AbstractBeanDefinition--><g id="link_BeanDefinition_AbstractBeanDefinition"><path codeLine="27" d="M582.78,70.07 C568.75,84.04 552.68,100.04 537.9,114.75 " fill="none" id="BeanDefinition-backto-AbstractBeanDefinition" style="stroke:#181818;stroke-width:1.0;stroke-dasharray:7.0,7.0;"/><polygon fill="none" points="577.47,65.48,596.58,56.33,587.35,75.4,577.47,65.48" style="stroke:#181818;stroke-width:1.0;"/></g><!--link RootBeanDefinition to AbstractBeanDefinition--><g id="link_RootBeanDefinition_AbstractBeanDefinition"><path codeLine="28" d="M245.28,163.45 C249.76,163.45 254.24,163.45 258.72,163.45 " fill="none" id="RootBeanDefinition-to-AbstractBeanDefinition" style="stroke:#181818;stroke-width:1.0;"/><polygon fill="none" points="258.69,156.45,278.69,163.45,258.69,170.45,258.69,156.45" style="stroke:#181818;stroke-width:1.0;"/></g><!--reverse link AbstractBeanDefinition to GenericBeanDefinition--><g id="link_AbstractBeanDefinition_GenericBeanDefinition"><path codeLine="29" d="M485.58,232.96 C484.33,252.22 483.04,272.23 482.01,288.14 " fill="none" id="AbstractBeanDefinition-backto-GenericBeanDefinition" style="stroke:#181818;stroke-width:1.0;"/><polygon fill="none" points="478.64,232.69,486.92,213.19,492.61,233.6,478.64,232.69" style="stroke:#181818;stroke-width:1.0;"/></g><!--reverse link BeanDefinition to AnnotatedBeanDefinition--><g id="link_BeanDefinition_AnnotatedBeanDefinition"><path codeLine="30" d="M673.36,68.37 C689.21,81.52 705.45,97.49 717,115 C750.81,166.28 768.04,236.35 776.02,279.68 " fill="none" id="BeanDefinition-backto-AnnotatedBeanDefinition" style="stroke:#181818;stroke-width:1.0;"/><polygon fill="none" points="669.34,73.33,657.89,55.5,677.96,62.29,669.34,73.33" style="stroke:#181818;stroke-width:1.0;"/></g><!--reverse link AnnotatedBeanDefinition to AnnotatedGenericBeanDefinition--><g id="link_AnnotatedBeanDefinition_AnnotatedGenericBeanDefinition"><path codeLine="31" d="M784.48,381.97 C785.12,397.62 785.79,414.06 786.38,428.34 " fill="none" id="AnnotatedBeanDefinition-backto-AnnotatedGenericBeanDefinition" style="stroke:#181818;stroke-width:1.0;stroke-dasharray:7.0,7.0;"/><polygon fill="none" points="777.45,382.32,783.62,362.05,791.44,381.75,777.45,382.32" style="stroke:#181818;stroke-width:1.0;"/></g><!--reverse link GenericBeanDefinition to AnnotatedGenericBeanDefinition--><g id="link_GenericBeanDefinition_AnnotatedGenericBeanDefinition"><path codeLine="32" d="M564.75,361.72 C608.35,382.49 661.31,407.72 704.7,428.39 " fill="none" id="GenericBeanDefinition-backto-AnnotatedGenericBeanDefinition" style="stroke:#181818;stroke-width:1.0;"/><polygon fill="none" points="562.12,367.74,547.07,352.82,568.14,355.1,562.12,367.74" style="stroke:#181818;stroke-width:1.0;"/></g><!--reverse link AnnotatedBeanDefinition to ScannedGenericBeanDefinition--><g id="link_AnnotatedBeanDefinition_ScannedGenericBeanDefinition"><path codeLine="33" d="M679.79,370.04 C633.87,391.92 581,417.1 540.35,436.47 " fill="none" id="AnnotatedBeanDefinition-backto-ScannedGenericBeanDefinition" style="stroke:#181818;stroke-width:1.0;stroke-dasharray:7.0,7.0;"/><polygon fill="none" points="676.58,363.33,697.65,361.05,682.61,375.97,676.58,363.33" style="stroke:#181818;stroke-width:1.0;"/></g><!--reverse link GenericBeanDefinition to ScannedGenericBeanDefinition--><g id="link_GenericBeanDefinition_ScannedGenericBeanDefinition"><path codeLine="34" d="M477.87,373.55 C477,394.64 476.04,418.29 475.29,436.66 " fill="none" id="GenericBeanDefinition-backto-ScannedGenericBeanDefinition" style="stroke:#181818;stroke-width:1.0;"/><polygon fill="none" points="470.9,373.52,478.71,353.82,484.89,374.09,470.9,373.52" style="stroke:#181818;stroke-width:1.0;"/></g><!--reverse link RootBeanDefinition to ConfigurationClassBeanDefinition--><g id="link_RootBeanDefinition_ConfigurationClassBeanDefinition"><path codeLine="35" d="M162,208.39 C162,228.13 162,251.46 162,271.62 " fill="none" id="RootBeanDefinition-backto-ConfigurationClassBeanDefinition" style="stroke:#181818;stroke-width:1.0;"/><polygon fill="none" points="155,208.64,162,188.64,169,208.64,155,208.64" style="stroke:#181818;stroke-width:1.0;"/></g><!--SRC=[dLBDJiCm33wJfyWHXB97G2f3S1eW9d5tKxS4jKcLEaWJyEuaQoXqJRjfjpZsz-CVfGbj2HBvBOA-mr9fHSfe1db75YHnMKFNyIo6uoh-oIu4VyhVqHVcFhKEnU5lRRG7E4d6PhPo3MfwXTfXn-LS9i0sZY2lyTcQ5Ytj8gGTXUoRzPvUZ3dm4nCFgD4gcVAw9QjqnLkmNlSH6XpOjXAqnc81csbj24AyGO8227WJ7vv53PECTLXCIQvvXVIBlhnAKCQQUmW3sldVDrFy0um_1lE3v9dsm-X7pBnC6HZq_7fBLJcxfzil_KH5I3HyelRVzWhVuaS_thZ2cVDSkTNNpU5bJy-62ojyNPg4fKSgt09axW94BQP-Zkokxs66yHYuTvdCiSM3NrPTX2vf7hsR7ZnTqGy0]--></g></svg>