<?xml version="1.0" encoding="us-ascii" standalone="no"?><svg xmlns="http://www.w3.org/2000/svg" xmlns:xlink="http://www.w3.org/1999/xlink" contentStyleType="text/css" height="392px" preserveAspectRatio="none" style="width:306px;height:392px;background:#FFFFFF;" version="1.1" viewBox="0 0 306 392" width="306px" zoomAndPan="magnify"><defs/><g><!--class Iterable--><g id="elem_Iterable"><rect codeLine="1" fill="#F1F1F1" height="64.2969" id="Iterable" rx="2.5" ry="2.5" style="stroke:#181818;stroke-width:0.5;" width="258" x="24" y="7"/><ellipse cx="123.25" cy="23" fill="#B4A7E5" rx="11" ry="11" style="stroke:#181818;stroke-width:1.0;"/><path d="M119.1719,18.7656 L119.1719,16.6094 L126.5625,16.6094 L126.5625,18.7656 L124.0938,18.7656 L124.0938,26.8438 L126.5625,26.8438 L126.5625,29 L119.1719,29 L119.1719,26.8438 L121.6406,26.8438 L121.6406,18.7656 L119.1719,18.7656 Z " fill="#000000"/><text fill="#000000" font-family="sans-serif" font-size="14" font-style="italic" lengthAdjust="spacing" textLength="51" x="143.75" y="27.8467">Iterable</text><line style="stroke:#181818;stroke-width:0.5;" x1="25" x2="281" y1="39" y2="39"/><line style="stroke:#181818;stroke-width:0.5;" x1="25" x2="281" y1="47" y2="47"/><ellipse cx="35" cy="60.6484" fill="#84BE84" rx="3" ry="3" style="stroke:#038048;stroke-width:1.0;"/><text fill="#000000" font-family="sans-serif" font-size="14" lengthAdjust="spacing" textLength="232" x="44" y="63.9951">iterator() Iterator&lt;PropertyValue&gt;</text></g><!--class PropertyValues--><g id="elem_PropertyValues"><rect codeLine="4" fill="#F1F1F1" height="80.5938" id="PropertyValues" rx="2.5" ry="2.5" style="stroke:#181818;stroke-width:0.5;" width="273" x="16.5" y="131.3"/><ellipse cx="96.75" cy="147.3" fill="#B4A7E5" rx="11" ry="11" style="stroke:#181818;stroke-width:1.0;"/><path d="M92.6719,143.0656 L92.6719,140.9094 L100.0625,140.9094 L100.0625,143.0656 L97.5938,143.0656 L97.5938,151.1437 L100.0625,151.1437 L100.0625,153.3 L92.6719,153.3 L92.6719,151.1437 L95.1406,151.1437 L95.1406,143.0656 L92.6719,143.0656 Z " fill="#000000"/><text fill="#000000" font-family="sans-serif" font-size="14" font-style="italic" lengthAdjust="spacing" textLength="104" x="117.25" y="152.1467">PropertyValues</text><line style="stroke:#181818;stroke-width:0.5;" x1="17.5" x2="288.5" y1="163.3" y2="163.3"/><line style="stroke:#181818;stroke-width:0.5;" x1="17.5" x2="288.5" y1="171.3" y2="171.3"/><ellipse cx="27.5" cy="184.9484" fill="#84BE84" rx="3" ry="3" style="stroke:#038048;stroke-width:1.0;"/><text fill="#000000" font-family="sans-serif" font-size="14" lengthAdjust="spacing" textLength="232" x="36.5" y="188.2951">iterator() Iterator&lt;PropertyValue&gt;</text><ellipse cx="27.5" cy="201.2453" fill="#84BE84" rx="3" ry="3" style="stroke:#038048;stroke-width:1.0;"/><text fill="#000000" font-family="sans-serif" font-size="14" lengthAdjust="spacing" textLength="247" x="36.5" y="204.592">getPropertyValues() PropertyValue[]</text></g><!--class MutablePropertyValues--><g id="elem_MutablePropertyValues"><rect codeLine="8" fill="#F1F1F1" height="113.1875" id="MutablePropertyValues" rx="2.5" ry="2.5" style="stroke:#181818;stroke-width:0.5;" width="292" x="7" y="271.89"/><ellipse cx="69.25" cy="287.89" fill="#ADD1B2" rx="11" ry="11" style="stroke:#181818;stroke-width:1.0;"/><path d="M72.2188,293.5306 Q71.6406,293.8275 71,293.9681 Q70.3594,294.1244 69.6563,294.1244 Q67.1563,294.1244 65.8281,292.4838 Q64.5156,290.8275 64.5156,287.7025 Q64.5156,284.5775 65.8281,282.9213 Q67.1563,281.265 69.6563,281.265 Q70.3594,281.265 71,281.4213 Q71.6563,281.5775 72.2188,281.8744 L72.2188,284.5931 Q71.5938,284.015 71,283.7494 Q70.4063,283.4681 69.7813,283.4681 Q68.4375,283.4681 67.75,284.5463 Q67.0625,285.6088 67.0625,287.7025 Q67.0625,289.7963 67.75,290.8744 Q68.4375,291.9369 69.7813,291.9369 Q70.4063,291.9369 71,291.6713 Q71.5938,291.39 72.2188,290.8119 L72.2188,293.5306 Z " fill="#000000"/><text fill="#000000" font-family="sans-serif" font-size="14" lengthAdjust="spacing" textLength="159" x="89.75" y="292.7367">MutablePropertyValues</text><line style="stroke:#181818;stroke-width:0.5;" x1="8" x2="298" y1="303.89" y2="303.89"/><rect fill="none" height="6" style="stroke:#C82930;stroke-width:1.0;" width="6" x="15" y="314.5384"/><text fill="#000000" font-family="sans-serif" font-size="14" lengthAdjust="spacing" textLength="266" x="27" y="320.8851">List&lt;PropertyValue&gt; propertyValueList</text><line style="stroke:#181818;stroke-width:0.5;" x1="8" x2="298" y1="328.1869" y2="328.1869"/><ellipse cx="18" cy="341.8353" fill="#84BE84" rx="3" ry="3" style="stroke:#038048;stroke-width:1.0;"/><text fill="#000000" font-family="sans-serif" font-size="14" lengthAdjust="spacing" textLength="257" x="27" y="345.182">addPropertyValue(String, Object) void</text><ellipse cx="18" cy="358.1322" fill="#84BE84" rx="3" ry="3" style="stroke:#038048;stroke-width:1.0;"/><text fill="#000000" font-family="sans-serif" font-size="14" lengthAdjust="spacing" textLength="247" x="27" y="361.4789">getPropertyValues() PropertyValue[]</text><ellipse cx="18" cy="374.4291" fill="#84BE84" rx="3" ry="3" style="stroke:#038048;stroke-width:1.0;"/><text fill="#000000" font-family="sans-serif" font-size="14" lengthAdjust="spacing" textLength="232" x="27" y="377.7757">iterator() Iterator&lt;PropertyValue&gt;</text></g><!--reverse link Iterable to PropertyValues--><g id="link_Iterable_PropertyValues"><path codeLine="14" d="M153,92.32 C153,105.18 153,118.74 153,130.89 " fill="none" id="Iterable-backto-PropertyValues" style="stroke:#181818;stroke-width:1.0;"/><polygon fill="none" points="146,92.73,153,72.73,160,92.73,146,92.73" style="stroke:#181818;stroke-width:1.0;"/></g><!--reverse link PropertyValues to MutablePropertyValues--><g id="link_PropertyValues_MutablePropertyValues"><path codeLine="15" d="M153,232.65 C153,245.41 153,258.82 153,271.42 " fill="none" id="PropertyValues-backto-MutablePropertyValues" style="stroke:#181818;stroke-width:1.0;stroke-dasharray:7.0,7.0;"/><polygon fill="none" points="146,233.08,153,213.08,160,233.08,146,233.08" style="stroke:#181818;stroke-width:1.0;"/></g><!--SRC=[oymhIIrAIqnELV04CXAJSbAhkJYr5J91d9By8WrDY3YGQHDGb5-GMbHI6PQOKvfgnrNBbGdNYo9LJAm9G5NfgIMeUe7AKGIYOu4M9USa5XSh-9QMWDo7gbu1Q9ckWazcSGcQwGe5o5oG0f1zYIafACeqWakAClFITHJyax9Iaqiq5ShoCrE8THYnuOJcOjtI0jqQEtXuSs7tbrvfWHvG5Qee0000]--></g></svg>