<?xml version="1.0" encoding="us-ascii" standalone="no"?><svg xmlns="http://www.w3.org/2000/svg" xmlns:xlink="http://www.w3.org/1999/xlink" contentStyleType="text/css" height="440px" preserveAspectRatio="none" style="width:870px;height:440px;background:#FFFFFF;" version="1.1" viewBox="0 0 870 440" width="870px" zoomAndPan="magnify"><defs/><g><!--class BeanDefinitionReader--><g id="elem_BeanDefinitionReader"><rect codeLine="1" fill="#F1F1F1" height="129.4844" id="BeanDefinitionReader" rx="2.5" ry="2.5" style="stroke:#181818;stroke-width:0.5;" width="355" x="257.5" y="7"/><ellipse cx="355.25" cy="23" fill="#B4A7E5" rx="11" ry="11" style="stroke:#181818;stroke-width:1.0;"/><path d="M351.1719,18.7656 L351.1719,16.6094 L358.5625,16.6094 L358.5625,18.7656 L356.0938,18.7656 L356.0938,26.8438 L358.5625,26.8438 L358.5625,29 L351.1719,29 L351.1719,26.8438 L353.6406,26.8438 L353.6406,18.7656 L351.1719,18.7656 Z " fill="#000000"/><text fill="#000000" font-family="sans-serif" font-size="14" font-style="italic" lengthAdjust="spacing" textLength="151" x="375.75" y="27.8467">BeanDefinitionReader</text><line style="stroke:#181818;stroke-width:0.5;" x1="258.5" x2="611.5" y1="39" y2="39"/><line style="stroke:#181818;stroke-width:0.5;" x1="258.5" x2="611.5" y1="47" y2="47"/><ellipse cx="268.5" cy="60.6484" fill="#84BE84" rx="3" ry="3" style="stroke:#038048;stroke-width:1.0;"/><text fill="#000000" font-family="sans-serif" font-size="14" lengthAdjust="spacing" textLength="250" x="277.5" y="63.9951">getRegistry() BeanDefinitionRegistry</text><ellipse cx="268.5" cy="76.9453" fill="#84BE84" rx="3" ry="3" style="stroke:#038048;stroke-width:1.0;"/><text fill="#000000" font-family="sans-serif" font-size="14" lengthAdjust="spacing" textLength="265" x="277.5" y="80.292">getResourceLoader() ResourceLoader</text><ellipse cx="268.5" cy="93.2422" fill="#84BE84" rx="3" ry="3" style="stroke:#038048;stroke-width:1.0;"/><text fill="#000000" font-family="sans-serif" font-size="14" lengthAdjust="spacing" textLength="329" x="277.5" y="96.5889">getBeanNameGenerator() BeanNameGenerator</text><ellipse cx="268.5" cy="109.5391" fill="#84BE84" rx="3" ry="3" style="stroke:#038048;stroke-width:1.0;"/><text fill="#000000" font-family="sans-serif" font-size="14" lengthAdjust="spacing" textLength="209" x="277.5" y="112.8857">loadBeanDefinitions(String) int</text><ellipse cx="268.5" cy="125.8359" fill="#84BE84" rx="3" ry="3" style="stroke:#038048;stroke-width:1.0;"/><text fill="#000000" font-family="sans-serif" font-size="14" lengthAdjust="spacing" textLength="236" x="277.5" y="129.1826">loadBeanDefinitions(Resource) int</text></g><!--class AbstractBeanDefinitionReader--><g id="elem_AbstractBeanDefinitionReader"><rect codeLine="8" fill="#F1F1F1" height="113.1875" id="AbstractBeanDefinitionReader" rx="2.5" ry="2.5" style="stroke:#181818;stroke-width:0.5;" width="321" x="274.5" y="196.49"/><ellipse cx="326.75" cy="212.49" fill="#A9DCDF" rx="11" ry="11" style="stroke:#181818;stroke-width:1.0;"/><path d="M326.8594,207.8338 L325.7031,212.9119 L328.0313,212.9119 L326.8594,207.8338 Z M325.375,205.5994 L328.3594,205.5994 L331.7188,217.99 L329.2656,217.99 L328.5,214.9275 L325.2188,214.9275 L324.4688,217.99 L322.0313,217.99 L325.375,205.5994 Z " fill="#000000"/><text fill="#000000" font-family="sans-serif" font-size="14" font-style="italic" lengthAdjust="spacing" textLength="208" x="347.25" y="217.3367">AbstractBeanDefinitionReader</text><line style="stroke:#181818;stroke-width:0.5;" x1="275.5" x2="594.5" y1="228.49" y2="228.49"/><rect fill="none" height="6" style="stroke:#C82930;stroke-width:1.0;" width="6" x="282.5" y="239.1384"/><text fill="#000000" font-family="sans-serif" font-size="14" lengthAdjust="spacing" textLength="212" x="294.5" y="245.4851">BeanDefinitionRegistry registry</text><rect fill="none" height="6" style="stroke:#C82930;stroke-width:1.0;" width="6" x="282.5" y="255.4353"/><text fill="#000000" font-family="sans-serif" font-size="14" lengthAdjust="spacing" textLength="227" x="294.5" y="261.782">ResourceLoader resourceLoader</text><rect fill="none" height="6" style="stroke:#C82930;stroke-width:1.0;" width="6" x="282.5" y="271.7322"/><text fill="#000000" font-family="sans-serif" font-size="14" lengthAdjust="spacing" textLength="295" x="294.5" y="278.0789">BeanNameGenerator beanNameGenerator</text><line style="stroke:#181818;stroke-width:0.5;" x1="275.5" x2="594.5" y1="285.3806" y2="285.3806"/><ellipse cx="285.5" cy="299.0291" fill="#84BE84" rx="3" ry="3" style="stroke:#038048;stroke-width:1.0;"/><text fill="#000000" font-family="sans-serif" font-size="14" lengthAdjust="spacing" textLength="209" x="294.5" y="302.3757">loadBeanDefinitions(String) int</text></g><!--class XmlBeanDefinitionReader--><g id="elem_XmlBeanDefinitionReader"><rect codeLine="14" fill="#F1F1F1" height="64.2969" id="XmlBeanDefinitionReader" rx="2.5" ry="2.5" style="stroke:#181818;stroke-width:0.5;" width="262" x="7" y="369.67"/><ellipse cx="46.3" cy="385.67" fill="#ADD1B2" rx="11" ry="11" style="stroke:#181818;stroke-width:1.0;"/><path d="M49.2688,391.3106 Q48.6906,391.6075 48.05,391.7481 Q47.4094,391.9044 46.7063,391.9044 Q44.2063,391.9044 42.8781,390.2638 Q41.5656,388.6075 41.5656,385.4825 Q41.5656,382.3575 42.8781,380.7013 Q44.2063,379.045 46.7063,379.045 Q47.4094,379.045 48.05,379.2013 Q48.7063,379.3575 49.2688,379.6544 L49.2688,382.3731 Q48.6438,381.795 48.05,381.5294 Q47.4563,381.2481 46.8313,381.2481 Q45.4875,381.2481 44.8,382.3263 Q44.1125,383.3888 44.1125,385.4825 Q44.1125,387.5763 44.8,388.6544 Q45.4875,389.7169 46.8313,389.7169 Q47.4563,389.7169 48.05,389.4513 Q48.6438,389.17 49.2688,388.5919 L49.2688,391.3106 Z " fill="#000000"/><text fill="#000000" font-family="sans-serif" font-size="14" lengthAdjust="spacing" textLength="176" x="65.7" y="390.5167">XmlBeanDefinitionReader</text><line style="stroke:#181818;stroke-width:0.5;" x1="8" x2="268" y1="401.67" y2="401.67"/><line style="stroke:#181818;stroke-width:0.5;" x1="8" x2="268" y1="409.67" y2="409.67"/><ellipse cx="18" cy="423.3184" fill="#84BE84" rx="3" ry="3" style="stroke:#038048;stroke-width:1.0;"/><text fill="#000000" font-family="sans-serif" font-size="14" lengthAdjust="spacing" textLength="236" x="27" y="426.6651">loadBeanDefinitions(Resource) int</text></g><!--class GroovyBeanDefinitionReader--><g id="elem_GroovyBeanDefinitionReader"><rect codeLine="17" fill="#F1F1F1" height="64.2969" id="GroovyBeanDefinitionReader" rx="2.5" ry="2.5" style="stroke:#181818;stroke-width:0.5;" width="262" x="304" y="369.67"/><ellipse cx="332.95" cy="385.67" fill="#ADD1B2" rx="11" ry="11" style="stroke:#181818;stroke-width:1.0;"/><path d="M335.9188,391.3106 Q335.3406,391.6075 334.7,391.7481 Q334.0594,391.9044 333.3563,391.9044 Q330.8563,391.9044 329.5281,390.2638 Q328.2156,388.6075 328.2156,385.4825 Q328.2156,382.3575 329.5281,380.7013 Q330.8563,379.045 333.3563,379.045 Q334.0594,379.045 334.7,379.2013 Q335.3563,379.3575 335.9188,379.6544 L335.9188,382.3731 Q335.2938,381.795 334.7,381.5294 Q334.1063,381.2481 333.4813,381.2481 Q332.1375,381.2481 331.45,382.3263 Q330.7625,383.3888 330.7625,385.4825 Q330.7625,387.5763 331.45,388.6544 Q332.1375,389.7169 333.4813,389.7169 Q334.1063,389.7169 334.7,389.4513 Q335.2938,389.17 335.9188,388.5919 L335.9188,391.3106 Z " fill="#000000"/><text fill="#000000" font-family="sans-serif" font-size="14" lengthAdjust="spacing" textLength="199" x="350.05" y="390.5167">GroovyBeanDefinitionReader</text><line style="stroke:#181818;stroke-width:0.5;" x1="305" x2="565" y1="401.67" y2="401.67"/><line style="stroke:#181818;stroke-width:0.5;" x1="305" x2="565" y1="409.67" y2="409.67"/><ellipse cx="315" cy="423.3184" fill="#84BE84" rx="3" ry="3" style="stroke:#038048;stroke-width:1.0;"/><text fill="#000000" font-family="sans-serif" font-size="14" lengthAdjust="spacing" textLength="236" x="324" y="426.6651">loadBeanDefinitions(Resource) int</text></g><!--class PropertiesBeanDefinitionReader--><g id="elem_PropertiesBeanDefinitionReader"><rect codeLine="20" fill="#F1F1F1" height="64.2969" id="PropertiesBeanDefinitionReader" rx="2.5" ry="2.5" style="stroke:#181818;stroke-width:0.5;" width="262" x="601" y="369.67"/><ellipse cx="619.6" cy="385.67" fill="#ADD1B2" rx="11" ry="11" style="stroke:#181818;stroke-width:1.0;"/><path d="M622.5688,391.3106 Q621.9906,391.6075 621.35,391.7481 Q620.7094,391.9044 620.0063,391.9044 Q617.5063,391.9044 616.1781,390.2638 Q614.8656,388.6075 614.8656,385.4825 Q614.8656,382.3575 616.1781,380.7013 Q617.5063,379.045 620.0063,379.045 Q620.7094,379.045 621.35,379.2013 Q622.0063,379.3575 622.5688,379.6544 L622.5688,382.3731 Q621.9438,381.795 621.35,381.5294 Q620.7563,381.2481 620.1313,381.2481 Q618.7875,381.2481 618.1,382.3263 Q617.4125,383.3888 617.4125,385.4825 Q617.4125,387.5763 618.1,388.6544 Q618.7875,389.7169 620.1313,389.7169 Q620.7563,389.7169 621.35,389.4513 Q621.9438,389.17 622.5688,388.5919 L622.5688,391.3106 Z " fill="#000000"/><text fill="#000000" font-family="sans-serif" font-size="14" lengthAdjust="spacing" textLength="222" x="634.4" y="390.5167">PropertiesBeanDefinitionReader</text><line style="stroke:#181818;stroke-width:0.5;" x1="602" x2="862" y1="401.67" y2="401.67"/><line style="stroke:#181818;stroke-width:0.5;" x1="602" x2="862" y1="409.67" y2="409.67"/><ellipse cx="612" cy="423.3184" fill="#84BE84" rx="3" ry="3" style="stroke:#038048;stroke-width:1.0;"/><text fill="#000000" font-family="sans-serif" font-size="14" lengthAdjust="spacing" textLength="236" x="621" y="426.6651">loadBeanDefinitions(Resource) int</text></g><!--reverse link BeanDefinitionReader to AbstractBeanDefinitionReader--><g id="link_BeanDefinitionReader_AbstractBeanDefinitionReader"><path codeLine="23" d="M435,157.79 C435,170.77 435,183.87 435,196.01 " fill="none" id="BeanDefinitionReader-backto-AbstractBeanDefinitionReader" style="stroke:#181818;stroke-width:1.0;stroke-dasharray:7.0,7.0;"/><polygon fill="none" points="428,157.98,435,137.98,442,157.98,428,157.98" style="stroke:#181818;stroke-width:1.0;"/></g><!--reverse link AbstractBeanDefinitionReader to XmlBeanDefinitionReader--><g id="link_AbstractBeanDefinitionReader_XmlBeanDefinitionReader"><path codeLine="24" d="M303.07,319.26 C267.9,336.64 231.48,354.64 201.82,369.29 " fill="none" id="AbstractBeanDefinitionReader-backto-XmlBeanDefinitionReader" style="stroke:#181818;stroke-width:1.0;"/><polygon fill="none" points="299.84,312.56,320.87,309.97,306.04,325.11,299.84,312.56" style="stroke:#181818;stroke-width:1.0;"/></g><!--reverse link AbstractBeanDefinitionReader to GroovyBeanDefinitionReader--><g id="link_AbstractBeanDefinitionReader_GroovyBeanDefinitionReader"><path codeLine="25" d="M435,330.6 C435,344.28 435,357.81 435,369.29 " fill="none" id="AbstractBeanDefinitionReader-backto-GroovyBeanDefinitionReader" style="stroke:#181818;stroke-width:1.0;"/><polygon fill="none" points="428,330.97,435,310.97,442,330.97,428,330.97" style="stroke:#181818;stroke-width:1.0;"/></g><!--reverse link AbstractBeanDefinitionReader to PropertiesBeanDefinitionReader--><g id="link_AbstractBeanDefinitionReader_PropertiesBeanDefinitionReader"><path codeLine="26" d="M566.93,319.26 C602.1,336.64 638.52,354.64 668.18,369.29 " fill="none" id="AbstractBeanDefinitionReader-backto-PropertiesBeanDefinitionReader" style="stroke:#181818;stroke-width:1.0;"/><polygon fill="none" points="563.96,325.11,549.13,309.97,570.16,312.56,563.96,325.11" style="stroke:#181818;stroke-width:1.0;"/></g><!--SRC=[hPB12i8m38RFzYbwT4Zt288Yx28YUl7QpMmKPZlIJ13rtUtO7CpPETHZapz_yYLLcW1JcG1VWjGhI9LMf8pUWJm2yYkRp7W6j8DCMSBBDEZfwaIhiwR41DQcAdVgRg1HLHORUO88DA0aWurj9rPfSrVLxMUdUqAbiu0hJJx9isajkZCPkn5bGZp9fRLyqJnznCB3oB655IzWBjNb57qW7d-3U6Vrq8TJxh_Gc2NKDX4QSxxymscBfW0a1VOtjy5hX6KHtkPl_oRpRKIKXN0rGxviO0rZoZ-mZx1u0000]--></g></svg>