<?xml version="1.0" encoding="us-ascii" standalone="no"?><svg xmlns="http://www.w3.org/2000/svg" xmlns:xlink="http://www.w3.org/1999/xlink" contentStyleType="text/css" height="1367px" preserveAspectRatio="none" style="width:1365px;height:1367px;background:#FFFFFF;" version="1.1" viewBox="0 0 1365 1367" width="1365px" zoomAndPan="magnify"><defs/><g><text fill="#000000" font-family="sans-serif" font-size="14" font-weight="bold" lengthAdjust="spacing" textLength="123" x="619.5" y="32.9951">Bean&#30340;&#21019;&#24314;&#30340;&#27969;&#31243;</text><rect fill="none" height="1308.625" style="stroke:#000000;stroke-width:1.5;" width="1343" x="11" y="48.2969"/><path d="M255,48.2969 L255,57.5938 L245,67.5938 L11,67.5938 " fill="none" style="stroke:#000000;stroke-width:1.5;"/><text fill="#000000" font-family="sans-serif" font-size="14" lengthAdjust="spacing" textLength="234" x="14" y="62.292">AbstractBeanFactory#doGetBean</text><ellipse cx="882.9375" cy="87.5938" fill="#222222" rx="10" ry="10" style="stroke:#222222;stroke-width:1.0;"/><rect fill="#F1F1F1" height="47.9375" rx="12.5" ry="12.5" style="stroke:#181818;stroke-width:0.5;" width="306" x="729.9375" y="117.5938"/><text fill="#000000" font-family="sans-serif" font-size="12" lengthAdjust="spacing" textLength="84" x="743.9375" y="138.7324">&#36716;&#25442;&#20256;&#20837;&#30340;&#21517;&#31216;</text><text fill="#000000" font-family="sans-serif" font-size="12" lengthAdjust="spacing" textLength="286" x="739.9375" y="152.7012">AbstractBeanFactory#transformedBeanName</text><rect fill="#F1F1F1" height="47.9375" rx="12.5" ry="12.5" style="stroke:#181818;stroke-width:0.5;" width="296" x="734.9375" y="185.5313"/><text fill="#000000" font-family="sans-serif" font-size="12" lengthAdjust="spacing" textLength="128" x="748.9375" y="206.6699">&#20174;&#21333;&#20363;&#32531;&#23384;&#20013;&#33719;&#21462;Bean</text><text fill="#000000" font-family="sans-serif" font-size="12" lengthAdjust="spacing" textLength="276" x="744.9375" y="220.6387">DefaultSingletonBeanRegistry#getSingleton</text><polygon fill="#F1F1F1" points="807.9375,253.4688,957.9375,253.4688,969.9375,265.4688,957.9375,277.4688,807.9375,277.4688,795.9375,265.4688,807.9375,253.4688" style="stroke:#181818;stroke-width:0.5;"/><text fill="#000000" font-family="sans-serif" font-size="11" lengthAdjust="spacing" textLength="150" x="807.9375" y="269.2769">&#21333;&#20363;&#32531;&#23384;&#20013;&#26159;&#21542;&#23384;&#22312;&#35813;Bean&#65311;</text><text fill="#000000" font-family="sans-serif" font-size="11" lengthAdjust="spacing" textLength="11" x="784.9375" y="262.8745">&#21542;</text><text fill="#000000" font-family="sans-serif" font-size="11" lengthAdjust="spacing" textLength="106" x="969.9375" y="262.8745">&#26159;&#65292;&#30452;&#25509;&#36820;&#22238;&#35813;Bean</text><polygon fill="#F1F1F1" points="484.875,287.4688,690.875,287.4688,702.875,300.2734,690.875,313.0781,484.875,313.0781,472.875,300.2734,484.875,287.4688" style="stroke:#181818;stroke-width:0.5;"/><text fill="#000000" font-family="sans-serif" font-size="11" lengthAdjust="spacing" textLength="206" x="484.875" y="297.6792">&#23384;&#22312;&#29238;BeanFactory&#19988;&#24403;&#21069;BeanFactory</text><text fill="#000000" font-family="sans-serif" font-size="11" lengthAdjust="spacing" textLength="137" x="484.875" y="310.4839">&#19981;&#21253;&#21547;&#35813;BeanDefinition&#65311;</text><text fill="#000000" font-family="sans-serif" font-size="11" lengthAdjust="spacing" textLength="11" x="461.875" y="297.6792">&#21542;</text><text fill="#000000" font-family="sans-serif" font-size="11" lengthAdjust="spacing" textLength="11" x="702.875" y="297.6792">&#26159;</text><rect fill="#F1F1F1" height="47.9375" rx="12.5" ry="12.5" style="stroke:#181818;stroke-width:0.5;" width="352" x="112.75" y="323.0781"/><text fill="#000000" font-family="sans-serif" font-size="12" lengthAdjust="spacing" textLength="115" x="126.75" y="344.2168">&#21512;&#24182;BeanDefinition</text><text fill="#000000" font-family="sans-serif" font-size="12" lengthAdjust="spacing" textLength="332" x="122.75" y="358.1855">AbstractBeanFactory#getMergedLocalBeanDefinition</text><rect fill="#F1F1F1" height="33.9688" rx="12.5" ry="12.5" style="stroke:#181818;stroke-width:0.5;" width="84" x="246.75" y="404.9844"/><text fill="#000000" font-family="sans-serif" font-size="12" lengthAdjust="spacing" textLength="60" x="260.75" y="426.123">&#26816;&#26597;&#20381;&#36182;&#39033;</text><rect fill="none" height="684.0938" style="stroke:#000000;stroke-width:1.5;" width="747" x="23" y="448.9531"/><path d="M268,448.9531 L268,458.25 L258,468.25 L23,468.25 " fill="none" style="stroke:#000000;stroke-width:1.5;"/><text fill="#000000" font-family="sans-serif" font-size="14" lengthAdjust="spacing" textLength="235" x="26" y="462.9482">AbstractBeanFactory#createBean</text><rect fill="#F1F1F1" height="47.9375" rx="12.5" ry="12.5" style="stroke:#181818;stroke-width:0.5;" width="271" x="153.25" y="485.25"/><text fill="#000000" font-family="sans-serif" font-size="12" lengthAdjust="spacing" textLength="101" x="167.25" y="506.3887">&#35299;&#26512;Bean&#30340;Class</text><text fill="#000000" font-family="sans-serif" font-size="12" lengthAdjust="spacing" textLength="251" x="163.25" y="520.3574">AbstractBeanFactory#resolveBeanClass</text><rect fill="#F1F1F1" height="47.9375" rx="12.5" ry="12.5" style="stroke:#181818;stroke-width:0.5;" width="330" x="123.75" y="553.1875"/><text fill="#000000" font-family="sans-serif" font-size="12" lengthAdjust="spacing" textLength="72" x="137.75" y="574.3262">&#20934;&#22791;&#26041;&#27861;&#37325;&#20889;</text><text fill="#000000" font-family="sans-serif" font-size="12" lengthAdjust="spacing" textLength="310" x="133.75" y="588.2949">AbstractBeanDefinition#prepareMethodOverrides</text><rect fill="#F1F1F1" height="47.9375" rx="12.5" ry="12.5" style="stroke:#181818;stroke-width:0.5;" width="431" x="73.25" y="621.125"/><text fill="#000000" font-family="sans-serif" font-size="12" lengthAdjust="spacing" textLength="104" x="87.25" y="642.2637">&#23454;&#20363;&#21270;&#21069;&#35299;&#26512;Bean</text><text fill="#000000" font-family="sans-serif" font-size="12" lengthAdjust="spacing" textLength="411" x="83.25" y="656.2324">AbstractAutowireCapableBeanFactory#resolveBeforeInstantiation</text><polygon fill="#F1F1F1" points="182.75,689.0625,394.75,689.0625,406.75,701.0625,394.75,713.0625,182.75,713.0625,170.75,701.0625,182.75,689.0625" style="stroke:#181818;stroke-width:0.5;"/><text fill="#000000" font-family="sans-serif" font-size="11" lengthAdjust="spacing" textLength="212" x="182.75" y="704.8706">&#23454;&#20363;&#21270;&#21069;&#35299;&#26512;Bean&#26159;&#21542;&#36820;&#22238;&#20102;Bean&#23454;&#20363;&#65311;</text><text fill="#000000" font-family="sans-serif" font-size="11" lengthAdjust="spacing" textLength="11" x="159.75" y="698.4683">&#26159;</text><text fill="#000000" font-family="sans-serif" font-size="11" lengthAdjust="spacing" textLength="11" x="406.75" y="698.4683">&#21542;</text><rect fill="#F1F1F1" height="33.9688" rx="12.5" ry="12.5" style="stroke:#181818;stroke-width:0.5;" width="140" x="35" y="723.0625"/><text fill="#000000" font-family="sans-serif" font-size="12" lengthAdjust="spacing" textLength="116" x="49" y="744.2012">&#36820;&#22238;&#35299;&#26512;&#30340;Bean&#23454;&#20363;</text><rect fill="none" height="367.9844" style="stroke:#000000;stroke-width:1.5;" width="555" x="195" y="723.0625"/><path d="M576,723.0625 L576,732.3594 L566,742.3594 L195,742.3594 " fill="none" style="stroke:#000000;stroke-width:1.5;"/><text fill="#000000" font-family="sans-serif" font-size="14" lengthAdjust="spacing" textLength="371" x="198" y="737.0576">AbstractAutowireCapableBeanFactory#doCreateBean</text><rect fill="#F1F1F1" height="47.9375" rx="12.5" ry="12.5" style="stroke:#181818;stroke-width:0.5;" width="393" x="276" y="759.3594"/><text fill="#000000" font-family="sans-serif" font-size="12" lengthAdjust="spacing" textLength="68" x="290" y="780.498">&#23454;&#20363;&#21270;Bean</text><text fill="#000000" font-family="sans-serif" font-size="12" lengthAdjust="spacing" textLength="373" x="286" y="794.4668">AbstractAutowireCapableBeanFactory#createBeanInstance</text><rect fill="#F1F1F1" height="47.9375" rx="12.5" ry="12.5" style="stroke:#181818;stroke-width:0.5;" width="535" x="205" y="827.2969"/><text fill="#000000" font-family="sans-serif" font-size="12" lengthAdjust="spacing" textLength="163" x="219" y="848.4355">&#21512;&#24182;BeanDefinition&#21518;&#32622;&#22788;&#29702;</text><text fill="#000000" font-family="sans-serif" font-size="12" lengthAdjust="spacing" textLength="515" x="215" y="862.4043">AbstractAutowireCapableBeanFactory#applyMergedBeanDefinitionPostProcessors</text><rect fill="#F1F1F1" height="47.9375" rx="12.5" ry="12.5" style="stroke:#181818;stroke-width:0.5;" width="354" x="295.5" y="895.2344"/><text fill="#000000" font-family="sans-serif" font-size="12" lengthAdjust="spacing" textLength="92" x="309.5" y="916.373">&#35774;&#32622;Bean&#30340;&#23646;&#24615;</text><text fill="#000000" font-family="sans-serif" font-size="12" lengthAdjust="spacing" textLength="334" x="305.5" y="930.3418">AbstractAutowireCapableBeanFactory#populateBean</text><rect fill="#F1F1F1" height="47.9375" rx="12.5" ry="12.5" style="stroke:#181818;stroke-width:0.5;" width="347" x="299" y="963.1719"/><text fill="#000000" font-family="sans-serif" font-size="12" lengthAdjust="spacing" textLength="68" x="313" y="984.3105">&#21021;&#22987;&#21270;Bean</text><text fill="#000000" font-family="sans-serif" font-size="12" lengthAdjust="spacing" textLength="327" x="309" y="998.2793">AbstractAutowireCapableBeanFactory#initializeBean</text><rect fill="#F1F1F1" height="47.9375" rx="12.5" ry="12.5" style="stroke:#181818;stroke-width:0.5;" width="488" x="228.5" y="1031.1094"/><text fill="#000000" font-family="sans-serif" font-size="12" lengthAdjust="spacing" textLength="116" x="242.5" y="1052.248">&#27880;&#20876;Bean&#30340;&#38144;&#27585;&#22238;&#35843;</text><text fill="#000000" font-family="sans-serif" font-size="12" lengthAdjust="spacing" textLength="468" x="238.5" y="1066.2168">AbstractAutowireCapableBeanFactory#registerDisposableBeanIfNecessary</text><polygon fill="#F1F1F1" points="288.75,1097.0469,300.75,1109.0469,288.75,1121.0469,276.75,1109.0469,288.75,1097.0469" style="stroke:#181818;stroke-width:0.5;"/><rect fill="#F1F1F1" height="47.9375" rx="12.5" ry="12.5" style="stroke:#181818;stroke-width:0.5;" width="328" x="124.75" y="1153.0469"/><text fill="#000000" font-family="sans-serif" font-size="12" lengthAdjust="spacing" textLength="128" x="138.75" y="1174.1855">&#20174;Bean&#23454;&#20363;&#20013;&#33719;&#21462;&#23545;&#35937;</text><text fill="#000000" font-family="sans-serif" font-size="12" lengthAdjust="spacing" textLength="308" x="134.75" y="1188.1543">AbstractBeanFactory#getObjectForBeanInstance</text><rect fill="#F1F1F1" height="33.9688" rx="12.5" ry="12.5" style="stroke:#181818;stroke-width:0.5;" width="194" x="790" y="323.0781"/><text fill="#000000" font-family="sans-serif" font-size="12" lengthAdjust="spacing" textLength="170" x="804" y="344.2168">&#20174;&#29238;BeanFactory&#20013;&#33719;&#21462;Bean</text><ellipse cx="887" cy="402.0156" fill="none" rx="11" ry="11" style="stroke:#222222;stroke-width:1.0;"/><ellipse cx="887" cy="402.0156" fill="#222222" rx="6" ry="6" style="stroke:#111111;stroke-width:1.0;"/><rect fill="#F1F1F1" height="47.9375" rx="12.5" ry="12.5" style="stroke:#181818;stroke-width:0.5;" width="328" x="1014" y="287.4688"/><text fill="#000000" font-family="sans-serif" font-size="12" lengthAdjust="spacing" textLength="128" x="1028" y="308.6074">&#20174;Bean&#23454;&#20363;&#20013;&#33719;&#21462;&#23545;&#35937;</text><text fill="#000000" font-family="sans-serif" font-size="12" lengthAdjust="spacing" textLength="308" x="1024" y="322.5762">AbstractBeanFactory#getObjectForBeanInstance</text><polygon fill="#F1F1F1" points="882.9375,1210.9844,894.9375,1222.9844,882.9375,1234.9844,870.9375,1222.9844,882.9375,1210.9844" style="stroke:#181818;stroke-width:0.5;"/><rect fill="#F1F1F1" height="47.9375" rx="12.5" ry="12.5" style="stroke:#181818;stroke-width:0.5;" width="284" x="740.9375" y="1254.9844"/><text fill="#000000" font-family="sans-serif" font-size="12" lengthAdjust="spacing" textLength="116" x="754.9375" y="1276.123">&#36866;&#37197;Bean&#23454;&#20363;&#30340;&#31867;&#22411;</text><text fill="#000000" font-family="sans-serif" font-size="12" lengthAdjust="spacing" textLength="264" x="750.9375" y="1290.0918">AbstractBeanFactory#adaptBeanInstance</text><ellipse cx="882.9375" cy="1333.9219" fill="none" rx="11" ry="11" style="stroke:#222222;stroke-width:1.0;"/><ellipse cx="882.9375" cy="1333.9219" fill="#222222" rx="6" ry="6" style="stroke:#111111;stroke-width:1.0;"/><line style="stroke:#181818;stroke-width:1.0;" x1="882.9375" x2="882.9375" y1="97.5938" y2="117.5938"/><polygon fill="#181818" points="878.9375,107.5938,882.9375,117.5938,886.9375,107.5938,882.9375,111.5938" style="stroke:#181818;stroke-width:1.0;"/><line style="stroke:#181818;stroke-width:1.0;" x1="882.9375" x2="882.9375" y1="165.5313" y2="185.5313"/><polygon fill="#181818" points="878.9375,175.5313,882.9375,185.5313,886.9375,175.5313,882.9375,179.5313" style="stroke:#181818;stroke-width:1.0;"/><line style="stroke:#181818;stroke-width:1.0;" x1="288.75" x2="288.75" y1="371.0156" y2="404.9844"/><polygon fill="#181818" points="284.75,394.9844,288.75,404.9844,292.75,394.9844,288.75,398.9844" style="stroke:#181818;stroke-width:1.0;"/><line style="stroke:#181818;stroke-width:1.0;" x1="288.75" x2="288.75" y1="533.1875" y2="553.1875"/><polygon fill="#181818" points="284.75,543.1875,288.75,553.1875,292.75,543.1875,288.75,547.1875" style="stroke:#181818;stroke-width:1.0;"/><line style="stroke:#181818;stroke-width:1.0;" x1="288.75" x2="288.75" y1="601.125" y2="621.125"/><polygon fill="#181818" points="284.75,611.125,288.75,621.125,292.75,611.125,288.75,615.125" style="stroke:#181818;stroke-width:1.0;"/><line style="stroke:#181818;stroke-width:1.0;" x1="472.5" x2="472.5" y1="807.2969" y2="827.2969"/><polygon fill="#181818" points="468.5,817.2969,472.5,827.2969,476.5,817.2969,472.5,821.2969" style="stroke:#181818;stroke-width:1.0;"/><line style="stroke:#181818;stroke-width:1.0;" x1="472.5" x2="472.5" y1="875.2344" y2="895.2344"/><polygon fill="#181818" points="468.5,885.2344,472.5,895.2344,476.5,885.2344,472.5,889.2344" style="stroke:#181818;stroke-width:1.0;"/><line style="stroke:#181818;stroke-width:1.0;" x1="472.5" x2="472.5" y1="943.1719" y2="963.1719"/><polygon fill="#181818" points="468.5,953.1719,472.5,963.1719,476.5,953.1719,472.5,957.1719" style="stroke:#181818;stroke-width:1.0;"/><line style="stroke:#181818;stroke-width:1.0;" x1="472.5" x2="472.5" y1="1011.1094" y2="1031.1094"/><polygon fill="#181818" points="468.5,1021.1094,472.5,1031.1094,476.5,1021.1094,472.5,1025.1094" style="stroke:#181818;stroke-width:1.0;"/><line style="stroke:#181818;stroke-width:1.0;" x1="170.75" x2="105" y1="701.0625" y2="701.0625"/><line style="stroke:#181818;stroke-width:1.0;" x1="105" x2="105" y1="701.0625" y2="723.0625"/><polygon fill="#181818" points="101,713.0625,105,723.0625,109,713.0625,105,717.0625" style="stroke:#181818;stroke-width:1.0;"/><line style="stroke:#181818;stroke-width:1.0;" x1="406.75" x2="472.5" y1="701.0625" y2="701.0625"/><line style="stroke:#181818;stroke-width:1.0;" x1="472.5" x2="472.5" y1="701.0625" y2="759.3594"/><polygon fill="#181818" points="468.5,749.3594,472.5,759.3594,476.5,749.3594,472.5,753.3594" style="stroke:#181818;stroke-width:1.0;"/><line style="stroke:#181818;stroke-width:1.0;" x1="105" x2="105" y1="757.0313" y2="1109.0469"/><line style="stroke:#181818;stroke-width:1.0;" x1="105" x2="276.75" y1="1109.0469" y2="1109.0469"/><polygon fill="#181818" points="266.75,1105.0469,276.75,1109.0469,266.75,1113.0469,270.75,1109.0469" style="stroke:#181818;stroke-width:1.0;"/><line style="stroke:#181818;stroke-width:1.0;" x1="472.5" x2="472.5" y1="1079.0469" y2="1109.0469"/><line style="stroke:#181818;stroke-width:1.0;" x1="472.5" x2="300.75" y1="1109.0469" y2="1109.0469"/><polygon fill="#181818" points="310.75,1105.0469,300.75,1109.0469,310.75,1113.0469,306.75,1109.0469" style="stroke:#181818;stroke-width:1.0;"/><line style="stroke:#181818;stroke-width:1.0;" x1="288.75" x2="288.75" y1="669.0625" y2="689.0625"/><polygon fill="#181818" points="284.75,679.0625,288.75,689.0625,292.75,679.0625,288.75,683.0625" style="stroke:#181818;stroke-width:1.0;"/><line style="stroke:#181818;stroke-width:1.0;" x1="288.75" x2="288.75" y1="438.9531" y2="485.25"/><polygon fill="#181818" points="284.75,475.25,288.75,485.25,292.75,475.25,288.75,479.25" style="stroke:#181818;stroke-width:1.0;"/><line style="stroke:#181818;stroke-width:1.0;" x1="288.75" x2="288.75" y1="1121.0469" y2="1153.0469"/><polygon fill="#181818" points="284.75,1143.0469,288.75,1153.0469,292.75,1143.0469,288.75,1147.0469" style="stroke:#181818;stroke-width:1.0;"/><line style="stroke:#181818;stroke-width:1.0;" x1="887" x2="887" y1="357.0469" y2="391.0156"/><polygon fill="#181818" points="883,381.0156,887,391.0156,891,381.0156,887,385.0156" style="stroke:#181818;stroke-width:1.0;"/><line style="stroke:#181818;stroke-width:1.0;" x1="472.875" x2="288.75" y1="300.2734" y2="300.2734"/><line style="stroke:#181818;stroke-width:1.0;" x1="288.75" x2="288.75" y1="300.2734" y2="323.0781"/><polygon fill="#181818" points="284.75,313.0781,288.75,323.0781,292.75,313.0781,288.75,317.0781" style="stroke:#181818;stroke-width:1.0;"/><line style="stroke:#181818;stroke-width:1.0;" x1="702.875" x2="887" y1="300.2734" y2="300.2734"/><line style="stroke:#181818;stroke-width:1.0;" x1="887" x2="887" y1="300.2734" y2="323.0781"/><polygon fill="#181818" points="883,313.0781,887,323.0781,891,313.0781,887,317.0781" style="stroke:#181818;stroke-width:1.0;"/><line style="stroke:#181818;stroke-width:1.0;" x1="288.75" x2="288.75" y1="1200.9844" y2="1222.9844"/><line style="stroke:#181818;stroke-width:1.0;" x1="288.75" x2="870.9375" y1="1222.9844" y2="1222.9844"/><polygon fill="#181818" points="860.9375,1218.9844,870.9375,1222.9844,860.9375,1226.9844,864.9375,1222.9844" style="stroke:#181818;stroke-width:1.0;"/><line style="stroke:#181818;stroke-width:1.0;" x1="795.9375" x2="587.875" y1="265.4688" y2="265.4688"/><line style="stroke:#181818;stroke-width:1.0;" x1="587.875" x2="587.875" y1="265.4688" y2="287.4688"/><polygon fill="#181818" points="583.875,277.4688,587.875,287.4688,591.875,277.4688,587.875,281.4688" style="stroke:#181818;stroke-width:1.0;"/><line style="stroke:#181818;stroke-width:1.0;" x1="969.9375" x2="1178" y1="265.4688" y2="265.4688"/><line style="stroke:#181818;stroke-width:1.0;" x1="1178" x2="1178" y1="265.4688" y2="287.4688"/><polygon fill="#181818" points="1174,277.4688,1178,287.4688,1182,277.4688,1178,281.4688" style="stroke:#181818;stroke-width:1.0;"/><line style="stroke:#181818;stroke-width:1.0;" x1="1178" x2="1178" y1="335.4063" y2="1222.9844"/><line style="stroke:#181818;stroke-width:1.0;" x1="1178" x2="894.9375" y1="1222.9844" y2="1222.9844"/><polygon fill="#181818" points="904.9375,1218.9844,894.9375,1222.9844,904.9375,1226.9844,900.9375,1222.9844" style="stroke:#181818;stroke-width:1.0;"/><line style="stroke:#181818;stroke-width:1.0;" x1="882.9375" x2="882.9375" y1="233.4688" y2="253.4688"/><polygon fill="#181818" points="878.9375,243.4688,882.9375,253.4688,886.9375,243.4688,882.9375,247.4688" style="stroke:#181818;stroke-width:1.0;"/><line style="stroke:#181818;stroke-width:1.0;" x1="882.9375" x2="882.9375" y1="1234.9844" y2="1254.9844"/><polygon fill="#181818" points="878.9375,1244.9844,882.9375,1254.9844,886.9375,1244.9844,882.9375,1248.9844" style="stroke:#181818;stroke-width:1.0;"/><line style="stroke:#181818;stroke-width:1.0;" x1="882.9375" x2="882.9375" y1="1302.9219" y2="1322.9219"/><polygon fill="#181818" points="878.9375,1312.9219,882.9375,1322.9219,886.9375,1312.9219,882.9375,1316.9219" style="stroke:#181818;stroke-width:1.0;"/><!--SRC=[hLJBJjj055sJhx34flm2ML4G5L9vgDso6UARuCfuhF64Abs55a8gujGI4D6cX588GMeX80eb4EZFU6ndnIzqF4xY90rLAdKLv_hSCsVkERvKeIf8Jm5fxgTLbYsosnl-u5okkCSRaGJ1ILqQMp0eGJ7gWoRvBoQfOHa_0r6861GH6XcLlBllZldLhdzXQsMVoZBTojcyrg-P5pGZZiaIo7vv1Yr1b3FOjtbcRjlt6svzavtisDSdNlud-r3mCVFQ1CHHKgKl5IsX0iMQNtq12ONJfuOJ4Bw8HfIuzAI7oTcfCkk8FxFFnrwrx3S_rFT69Be86WTRHoEH8T4c46xsgaElVRt5xZRPUxEZDg_ProRBhJ7hMvEEwrCqXIhuJ-AXKObPMLQxwiRr7mw_oZIG1CZFSGoftHrHmUKSf9szids_wrqM6lirl_YuKJ42Y89mQiXlzYe7Jibg-Zsk8iFeBuE0WTLbqIXGqQ2ThMVOuRfJg3aNsurrasK-ThU7MeTr0ZeYC0rq4Skpoq288aERvxJ4xM6v0XzhA2da6ajI_5eXC8vqjA12NsKyGJ2byVnfL46jyGGkzcKFCk3zscB5adsJyKi1iCCmZl4D4vCImA2Tpog4YsD0DQ3jRwy1Vr4lu_4UHzfY1vv0w6bm_HYqfjedPSpAktUdx73LjJ83iIDTLrD11BkPvh11vmYEWM5WqZBIExtdzAtzSLvoqfM1Jj6ndbIRjsYfp-wooZyDGWX3glAcayQvE6QPN5DHOoljL5Ty7y_U3PWkVwK0cL0C7HkjjrFn6V3lZKWgS5-J9M5vyuyIxwsATHPcfhtCMBNcdUy_-kdFBho269t4fCVT86xDT0hktXtLiInzYGR5N4OWhTtyKC-vnHzEljpCTh2vEEN_LHkSEYerqcyRQsP8o_rmpszPQQC_8PAHJhkPn2tQO_qD]--></g></svg>