<?xml version="1.0" encoding="us-ascii" standalone="no"?><svg xmlns="http://www.w3.org/2000/svg" xmlns:xlink="http://www.w3.org/1999/xlink" contentStyleType="text/css" height="287px" preserveAspectRatio="none" style="width:366px;height:287px;background:#FFFFFF;" version="1.1" viewBox="0 0 366 287" width="366px" zoomAndPan="magnify"><defs/><g><!--class Lock--><g id="elem_Lock"><rect codeLine="5" fill="#FFFFFF" height="44" id="Lock" rx="2.5" ry="2.5" style="stroke:#000000;stroke-width:1.0;" width="60" x="277.5" y="12"/><ellipse cx="290.5" cy="26" fill="#FFFFFF" rx="9" ry="9" style="stroke:#000000;stroke-width:1.0;"/><path d="M287.6719,22.5781 L287.6719,20.7969 L293.75,20.7969 L293.75,22.5781 L291.7188,22.5781 L291.7188,29.2188 L293.75,29.2188 L293.75,31 L287.6719,31 L287.6719,29.2188 L289.7031,29.2188 L289.7031,22.5781 L287.6719,22.5781 Z " fill="#000000"/><text fill="#000000" font-family="Consolas" font-size="14" font-style="italic" lengthAdjust="spacing" textLength="32" x="302.5" y="30.8467">Lock</text><line style="stroke:#000000;stroke-width:1.0;" x1="278.5" x2="336.5" y1="40" y2="40"/><line style="stroke:#000000;stroke-width:1.0;" x1="278.5" x2="336.5" y1="48" y2="48"/></g><!--class ReentrantLock--><g id="elem_ReentrantLock"><rect codeLine="8" fill="#FFFFFF" height="60.2969" id="ReentrantLock" rx="2.5" ry="2.5" style="stroke:#000000;stroke-width:1.0;" width="129" x="230" y="116"/><ellipse cx="243" cy="130" fill="#FFFFFF" rx="9" ry="9" style="stroke:#000000;stroke-width:1.0;"/><path d="M245.3906,134.7031 Q244.9063,134.9531 244.375,135.0781 Q243.8594,135.2031 243.2813,135.2031 Q241.2188,135.2031 240.125,133.8438 Q239.0469,132.4844 239.0469,129.9063 Q239.0469,127.3281 240.125,125.9688 Q241.2188,124.6094 243.2813,124.6094 Q243.8594,124.6094 244.3906,124.7344 Q244.9219,124.8594 245.3906,125.0938 L245.3906,127.3438 Q244.875,126.8594 244.375,126.6406 Q243.8906,126.4219 243.375,126.4219 Q242.2656,126.4219 241.7031,127.2969 Q241.1406,128.1719 241.1406,129.9063 Q241.1406,131.625 241.7031,132.5156 Q242.2656,133.3906 243.375,133.3906 Q243.8906,133.3906 244.375,133.1719 Q244.875,132.9375 245.3906,132.4688 L245.3906,134.7031 Z " fill="#000000"/><text fill="#000000" font-family="Consolas" font-size="14" lengthAdjust="spacing" textLength="101" x="255" y="134.8467">ReentrantLock</text><line style="stroke:#000000;stroke-width:1.0;" x1="231" x2="358" y1="144" y2="144"/><rect fill="none" height="6" style="stroke:#000000;stroke-width:1.0;" width="6" x="238" y="154.6484"/><text fill="#000000" font-family="Consolas" font-size="14" lengthAdjust="spacing" textLength="69" x="248" y="160.9951">Sync sync</text><line style="stroke:#000000;stroke-width:1.0;" x1="231" x2="358" y1="168.2969" y2="168.2969"/></g><!--class AbstractQueuedSynchronizer--><g id="elem_AbstractQueuedSynchronizer"><rect codeLine="11" fill="#FFFFFF" height="44" id="AbstractQueuedSynchronizer" rx="2.5" ry="2.5" style="stroke:#000000;stroke-width:1.0;" width="231" x="12" y="12"/><ellipse cx="25" cy="26" fill="#FFFFFF" rx="9" ry="9" style="stroke:#000000;stroke-width:1.0;"/><path d="M27.3906,30.7031 Q26.9063,30.9531 26.375,31.0781 Q25.8594,31.2031 25.2813,31.2031 Q23.2188,31.2031 22.125,29.8438 Q21.0469,28.4844 21.0469,25.9063 Q21.0469,23.3281 22.125,21.9688 Q23.2188,20.6094 25.2813,20.6094 Q25.8594,20.6094 26.3906,20.7344 Q26.9219,20.8594 27.3906,21.0938 L27.3906,23.3438 Q26.875,22.8594 26.375,22.6406 Q25.8906,22.4219 25.375,22.4219 Q24.2656,22.4219 23.7031,23.2969 Q23.1406,24.1719 23.1406,25.9063 Q23.1406,27.625 23.7031,28.5156 Q24.2656,29.3906 25.375,29.3906 Q25.8906,29.3906 26.375,29.1719 Q26.875,28.9375 27.3906,28.4688 L27.3906,30.7031 Z " fill="#000000"/><text fill="#000000" font-family="Consolas" font-size="14" lengthAdjust="spacing" textLength="203" x="37" y="30.8467">AbstractQueuedSynchronizer</text><line style="stroke:#000000;stroke-width:1.0;" x1="13" x2="242" y1="40" y2="40"/><line style="stroke:#000000;stroke-width:1.0;" x1="13" x2="242" y1="48" y2="48"/></g><!--class Sync--><g id="elem_Sync"><rect codeLine="13" fill="#FFFFFF" height="44" id="Sync" rx="2.5" ry="2.5" style="stroke:#000000;stroke-width:1.0;" width="61" x="109" y="124.15"/><ellipse cx="122" cy="138.15" fill="#FFFFFF" rx="9" ry="9" style="stroke:#000000;stroke-width:1.0;"/><path d="M124.3906,142.8531 Q123.9063,143.1031 123.375,143.2281 Q122.8594,143.3531 122.2813,143.3531 Q120.2188,143.3531 119.125,141.9938 Q118.0469,140.6344 118.0469,138.0563 Q118.0469,135.4781 119.125,134.1188 Q120.2188,132.7594 122.2813,132.7594 Q122.8594,132.7594 123.3906,132.8844 Q123.9219,133.0094 124.3906,133.2438 L124.3906,135.4938 Q123.875,135.0094 123.375,134.7906 Q122.8906,134.5719 122.375,134.5719 Q121.2656,134.5719 120.7031,135.4469 Q120.1406,136.3219 120.1406,138.0563 Q120.1406,139.775 120.7031,140.6656 Q121.2656,141.5406 122.375,141.5406 Q122.8906,141.5406 123.375,141.3219 Q123.875,141.0875 124.3906,140.6188 L124.3906,142.8531 Z " fill="#000000"/><text fill="#000000" font-family="Consolas" font-size="14" lengthAdjust="spacing" textLength="33" x="134" y="142.9967">Sync</text><line style="stroke:#000000;stroke-width:1.0;" x1="110" x2="169" y1="152.15" y2="152.15"/><line style="stroke:#000000;stroke-width:1.0;" x1="110" x2="169" y1="160.15" y2="160.15"/></g><!--class FairSync--><g id="elem_FairSync"><rect codeLine="14" fill="#FFFFFF" height="44" id="FairSync" rx="2.5" ry="2.5" style="stroke:#000000;stroke-width:1.0;" width="85" x="31" y="236.3"/><ellipse cx="44" cy="250.3" fill="#FFFFFF" rx="9" ry="9" style="stroke:#000000;stroke-width:1.0;"/><path d="M46.3906,255.0031 Q45.9063,255.2531 45.375,255.3781 Q44.8594,255.5031 44.2813,255.5031 Q42.2188,255.5031 41.125,254.1438 Q40.0469,252.7844 40.0469,250.2063 Q40.0469,247.6281 41.125,246.2688 Q42.2188,244.9094 44.2813,244.9094 Q44.8594,244.9094 45.3906,245.0344 Q45.9219,245.1594 46.3906,245.3938 L46.3906,247.6438 Q45.875,247.1594 45.375,246.9406 Q44.8906,246.7219 44.375,246.7219 Q43.2656,246.7219 42.7031,247.5969 Q42.1406,248.4719 42.1406,250.2063 Q42.1406,251.925 42.7031,252.8156 Q43.2656,253.6906 44.375,253.6906 Q44.8906,253.6906 45.375,253.4719 Q45.875,253.2375 46.3906,252.7688 L46.3906,255.0031 Z " fill="#000000"/><text fill="#000000" font-family="Consolas" font-size="14" lengthAdjust="spacing" textLength="57" x="56" y="255.1467">FairSync</text><line style="stroke:#000000;stroke-width:1.0;" x1="32" x2="115" y1="264.3" y2="264.3"/><line style="stroke:#000000;stroke-width:1.0;" x1="32" x2="115" y1="272.3" y2="272.3"/></g><!--class NonfairSync--><g id="elem_NonfairSync"><rect codeLine="15" fill="#FFFFFF" height="44" id="NonfairSync" rx="2.5" ry="2.5" style="stroke:#000000;stroke-width:1.0;" width="109" x="151" y="236.3"/><ellipse cx="164" cy="250.3" fill="#FFFFFF" rx="9" ry="9" style="stroke:#000000;stroke-width:1.0;"/><path d="M166.3906,255.0031 Q165.9063,255.2531 165.375,255.3781 Q164.8594,255.5031 164.2813,255.5031 Q162.2188,255.5031 161.125,254.1438 Q160.0469,252.7844 160.0469,250.2063 Q160.0469,247.6281 161.125,246.2688 Q162.2188,244.9094 164.2813,244.9094 Q164.8594,244.9094 165.3906,245.0344 Q165.9219,245.1594 166.3906,245.3938 L166.3906,247.6438 Q165.875,247.1594 165.375,246.9406 Q164.8906,246.7219 164.375,246.7219 Q163.2656,246.7219 162.7031,247.5969 Q162.1406,248.4719 162.1406,250.2063 Q162.1406,251.925 162.7031,252.8156 Q163.2656,253.6906 164.375,253.6906 Q164.8906,253.6906 165.375,253.4719 Q165.875,253.2375 166.3906,252.7688 L166.3906,255.0031 Z " fill="#000000"/><text fill="#000000" font-family="Consolas" font-size="14" lengthAdjust="spacing" textLength="81" x="176" y="255.1467">NonfairSync</text><line style="stroke:#000000;stroke-width:1.0;" x1="152" x2="259" y1="264.3" y2="264.3"/><line style="stroke:#000000;stroke-width:1.0;" x1="152" x2="259" y1="272.3" y2="272.3"/></g><!--reverse link Lock to ReentrantLock--><g id="link_Lock_ReentrantLock"><path codeLine="16" d="M302.51,77.29 C300.99,90.15 299.36,103.98 297.97,115.79 " fill="none" id="Lock-backto-ReentrantLock" style="stroke:#000000;stroke-width:1.0;stroke-dasharray:7.0,7.0;"/><polygon fill="none" points="295.67,76.54,304.96,57.5,309.57,78.18,295.67,76.54" style="stroke:#000000;stroke-width:1.0;"/></g><!--reverse link Sync to ReentrantLock--><g id="link_Sync_ReentrantLock"><path codeLine="18" d="M175.92,146.15 C193.79,146.15 211.66,146.15 229.53,146.15 " fill="none" id="Sync-backto-ReentrantLock" style="stroke:#000000;stroke-width:1.0;stroke-dasharray:7.0,7.0;"/><polygon fill="#000000" points="171.38,146.15,180.38,150.15,176.38,146.15,180.38,142.15,171.38,146.15" style="stroke:#000000;stroke-width:1.0;"/></g><!--reverse link AbstractQueuedSynchronizer to Sync--><g id="link_AbstractQueuedSynchronizer_Sync"><path codeLine="21" d="M132.11,77.33 C133.84,93.18 135.73,110.53 137.16,123.71 " fill="none" id="AbstractQueuedSynchronizer-backto-Sync" style="stroke:#000000;stroke-width:1.0;"/><polygon fill="none" points="125.05,78.14,129.84,57.5,138.97,76.63,125.05,78.14" style="stroke:#000000;stroke-width:1.0;"/></g><!--reverse link Sync to FairSync--><g id="link_Sync_FairSync"><path codeLine="22" d="M115.93,186.49 C105.96,203.12 94.75,221.84 86.35,235.86 " fill="none" id="Sync-backto-FairSync" style="stroke:#000000;stroke-width:1.0;"/><polygon fill="none" points="110.33,183.21,126.62,169.65,122.34,190.4,110.33,183.21" style="stroke:#000000;stroke-width:1.0;"/></g><!--reverse link Sync to NonfairSync--><g id="link_Sync_NonfairSync"><path codeLine="23" d="M163.07,186.49 C173.04,203.12 184.25,221.84 192.65,235.86 " fill="none" id="Sync-backto-NonfairSync" style="stroke:#000000;stroke-width:1.0;"/><polygon fill="none" points="156.66,190.4,152.38,169.65,168.67,183.21,156.66,190.4" style="stroke:#000000;stroke-width:1.0;"/></g><!--SRC=[XOxD2W8n38JFvYdY0-o2u5aGmPC8wXF4ciLYJQLD3xhwxjRwjmhY9OVvPZBJrotl6G-Eh43SMJbGe3sgLSTJBxgo9yR1i8Cst51o-XVEAV-TU8dUKGGhog4XmpZpPeSjm0LC1X6NpAA1H1-WL-7gA0PZFY_JU1spn-WYSUBDZM-3brmViBt0mrHYxJCo9Hi-bRcNfYD-5jUfFe_AEFWchXwLtm1GibMgilNt97XLtvqbsor_orS0]--></g></svg>