<?xml version="1.0" encoding="us-ascii" standalone="no"?><svg xmlns="http://www.w3.org/2000/svg" xmlns:xlink="http://www.w3.org/1999/xlink" contentStyleType="text/css" height="347px" preserveAspectRatio="none" style="width:451px;height:347px;background:#FFFFFF;" version="1.1" viewBox="0 0 451 347" width="451px" zoomAndPan="magnify"><defs/><g><text fill="#000000" font-family="sans-serif" font-size="14" font-weight="bold" lengthAdjust="spacing" textLength="139" x="149.25" y="22.9951">ThreadLocal&#30340;&#24341;&#29992;</text><!--cluster ThreadLocalMap--><g id="cluster_ThreadLocalMap"><rect fill="none" height="180.29" rx="2.5" ry="2.5" style="stroke:#181818;stroke-width:1.0;" width="322" x="123.5" y="44.2969"/><path d="M262.5,44.2969 L262.5,53.5938 L252.5,63.5938 L123.5,63.5938 " fill="none" style="stroke:#181818;stroke-width:1.0;"/><text fill="#000000" font-family="sans-serif" font-size="14" font-weight="bold" lengthAdjust="spacing" textLength="129" x="126.5" y="58.292">ThreadLocalMap</text></g><!--cluster Entry--><g id="cluster_Entry"><path d="M174.0839,104.2656 C178.3409,97.8029 186.0942,97.6882 190.0276,104.6498 C193.0537,95.6107 199.5973,94.9822 205.2864,102.1412 C210.5345,95.3649 217.8984,95.3321 222.2012,103.2308 C228.1099,94.7716 235.5813,92.935 241.3868,103.3357 C245.3276,95.1389 251.5309,95.2595 256.1471,102.6981 C261.004,95.1094 267.1956,94.8346 272.9247,101.6847 C277.2745,93.7488 284.6718,94.1842 289.2643,101.4235 C294.7379,93.1393 300.034,92.8979 306.2601,100.6247 C312.2578,92.2604 320.1245,92.7745 324.4214,102.3469 C328.6138,95.852 335.5989,96.7221 339.0521,103.1818 C345.2195,96.4528 350.4051,95.2413 355.9949,103.821 C360.5494,96.5112 368.7641,96.5689 373.419,103.6999 C379.1469,95.5387 386.32,95.9534 390.4728,105.2395 C395.2314,97.2713 402.4717,96.6038 407.9663,104.4242 C417.29,109.139 421.3528,115.9381 411.7285,124.2488 C422.6931,128.1251 427.4891,136.6793 418.1836,146.4493 C424.1972,154.4508 424.7942,160.5426 414.0975,164.8292 C421.0855,175.6666 419.1243,182.5369 405.8291,185.1015 C401.8963,192.6997 397.052,194.4428 391.0031,187.2181 C386.3127,193.9204 378.434,194.106 374.7002,186.1539 C369.8747,196.2063 360.7879,194.1107 356.075,186.0381 C350.8967,192.869 344.7028,194.4377 339.806,185.743 C336.5722,195.0072 329.8892,195.7554 323.8769,188.4073 C317.3221,197.2085 310.4215,196.5325 305.9515,186.4303 C301.4612,193.3757 293.727,193.427 289.3484,186.2986 C285.0086,193.5439 276.7977,195.3482 272.4616,186.2948 C268.4931,195.0251 261.4441,195.8371 256.3697,187.327 C252.0369,195.3928 244.5383,193.1171 240.9653,186.5283 C234.3113,194.2161 227.7338,194.8178 222.26,185.249 C218.3153,191.8816 212.1194,192.9861 207.6578,185.7951 C203.0452,193.8883 194.3418,194.4557 189.6449,185.8862 C184.6094,195.2249 176.9315,193.4547 171.6931,186.1044 C163.0289,180.3702 162.586,174.5661 169.6409,167.1317 C158.4604,161.3892 157.5634,151.9921 168.7273,145.3141 C159.9265,139.0092 161.2063,129.8901 171.1234,125.8948 C163.1765,118.0744 161.5076,109.2769 174.0839,104.2656 " fill="none" style="stroke:#181818;stroke-width:1.0;"/><text fill="#000000" font-family="sans-serif" font-size="14" font-weight="bold" lengthAdjust="spacing" textLength="41" x="268" y="121.292">Entry</text></g><!--entity reference--><g id="elem_reference"><rect fill="#F1F1F1" height="46.2969" rx="2.5" ry="2.5" style="stroke:#181818;stroke-width:0.5;" width="107" x="291" y="130.2969"/><rect fill="#F1F1F1" height="10" style="stroke:#181818;stroke-width:0.5;" width="15" x="378" y="135.2969"/><rect fill="#F1F1F1" height="2" style="stroke:#181818;stroke-width:0.5;" width="4" x="376" y="137.2969"/><rect fill="#F1F1F1" height="2" style="stroke:#181818;stroke-width:0.5;" width="4" x="376" y="141.2969"/><text fill="#000000" font-family="sans-serif" font-size="14" lengthAdjust="spacing" textLength="67" x="306" y="163.292">reference</text></g><!--entity value--><g id="elem_value"><rect fill="#F1F1F1" height="46.2969" rx="2.5" ry="2.5" style="stroke:#181818;stroke-width:0.5;" width="76" x="179.5" y="130.2969"/><rect fill="#F1F1F1" height="10" style="stroke:#181818;stroke-width:0.5;" width="15" x="235.5" y="135.2969"/><rect fill="#F1F1F1" height="2" style="stroke:#181818;stroke-width:0.5;" width="4" x="233.5" y="137.2969"/><rect fill="#F1F1F1" height="2" style="stroke:#181818;stroke-width:0.5;" width="4" x="233.5" y="141.2969"/><text fill="#000000" font-family="sans-serif" font-size="14" lengthAdjust="spacing" textLength="36" x="194.5" y="163.292">value</text></g><!--entity Thread--><g id="elem_Thread"><rect fill="#F1F1F1" height="46.2969" rx="2.5" ry="2.5" style="stroke:#181818;stroke-width:0.5;" width="89" x="7" y="130.2969"/><rect fill="#F1F1F1" height="10" style="stroke:#181818;stroke-width:0.5;" width="15" x="76" y="135.2969"/><rect fill="#F1F1F1" height="2" style="stroke:#181818;stroke-width:0.5;" width="4" x="74" y="137.2969"/><rect fill="#F1F1F1" height="2" style="stroke:#181818;stroke-width:0.5;" width="4" x="74" y="141.2969"/><text fill="#000000" font-family="sans-serif" font-size="14" lengthAdjust="spacing" textLength="49" x="22" y="163.292">Thread</text></g><!--entity Client--><g id="elem_Client"><rect fill="#F1F1F1" height="46.2969" rx="2.5" ry="2.5" style="stroke:#181818;stroke-width:0.5;" width="79" x="128" y="295.5869"/><rect fill="#F1F1F1" height="10" style="stroke:#181818;stroke-width:0.5;" width="15" x="187" y="300.5869"/><rect fill="#F1F1F1" height="2" style="stroke:#181818;stroke-width:0.5;" width="4" x="185" y="302.5869"/><rect fill="#F1F1F1" height="2" style="stroke:#181818;stroke-width:0.5;" width="4" x="185" y="306.5869"/><text fill="#000000" font-family="sans-serif" font-size="14" lengthAdjust="spacing" textLength="39" x="143" y="328.582">Client</text></g><!--entity ThreadLocal--><g id="elem_ThreadLocal"><rect fill="#F1F1F1" height="46.2969" rx="2.5" ry="2.5" style="stroke:#181818;stroke-width:0.5;" width="124" x="282.5" y="295.5869"/><rect fill="#F1F1F1" height="10" style="stroke:#181818;stroke-width:0.5;" width="15" x="386.5" y="300.5869"/><rect fill="#F1F1F1" height="2" style="stroke:#181818;stroke-width:0.5;" width="4" x="384.5" y="302.5869"/><rect fill="#F1F1F1" height="2" style="stroke:#181818;stroke-width:0.5;" width="4" x="384.5" y="306.5869"/><text fill="#000000" font-family="sans-serif" font-size="14" lengthAdjust="spacing" textLength="84" x="297.5" y="328.582">ThreadLocal</text></g><!--link Thread to ThreadLocalMap--><g id="link_Thread_ThreadLocalMap"><path d="M96.19,153.4369 C101.935,153.4369 107.6825,153.4369 113.43,153.4369 C116.3038,153.4369 119.1775,153.4369 122.0509,153.4369 C122.4101,153.4369 122.7693,153.4369 123.1285,153.4369 C123.2183,153.4369 123.308,153.4369 123.3978,153.4369 " fill="none" id="Thread-to-ThreadLocalMap" style="stroke:#181818;stroke-width:1.0;"/><polygon fill="#181818" points="123.3978,153.4369,114.3978,149.4369,118.3978,153.4369,114.3978,157.4369,123.3978,153.4369" style="stroke:#181818;stroke-width:1.0;"/></g><!--link Client to ThreadLocal--><g id="link_Client_ThreadLocal"><path d="M207.22,318.7369 C227.61,318.7369 253.03,318.7369 276.42,318.7369 " fill="none" id="Client-to-ThreadLocal" style="stroke:#181818;stroke-width:1.0;"/><polygon fill="#181818" points="281.32,318.7369,272.32,314.7369,276.32,318.7369,272.32,322.7369,281.32,318.7369" style="stroke:#181818;stroke-width:1.0;"/><text fill="#000000" font-family="sans-serif" font-size="13" lengthAdjust="spacing" textLength="39" x="225.25" y="311.8038">&#24378;&#24341;&#29992;</text></g><!--link reference to ThreadLocal--><g id="link_reference_ThreadLocal"><path d="M344.5,176.8069 C344.5,206.0769 344.5,257.4169 344.5,289.3869 " fill="none" id="reference-to-ThreadLocal" style="stroke:#008000;stroke-width:1.0;stroke-dasharray:7.0,7.0;"/><polygon fill="#008000" points="344.5,294.1169,348.5,285.1169,344.5,289.1169,340.5,285.1169,344.5,294.1169" style="stroke:#008000;stroke-width:1.0;"/><text fill="#000000" font-family="sans-serif" font-size="13" lengthAdjust="spacing" textLength="39" x="345.5" y="261.6538">&#24369;&#24341;&#29992;</text></g><!--SRC=[AyaioKbL2CaeIarCySbFJinvFglbwPwfpwUiu4ehIin5aV9DB52evk9CpialJL5mpIifgWHnEQEBKjDIYrBpabDZGRoon9nI4AkMgvOh6g8xLa6tIDTE8HhLh5YkQEUSpDIy4YpIiGfM2a_tx8Aw1Ca61RsKQENqejJKl5WzR5esGhG00000]--></g></svg>