<?xml version="1.0" encoding="us-ascii" standalone="no"?><svg xmlns="http://www.w3.org/2000/svg" xmlns:xlink="http://www.w3.org/1999/xlink" contentStyleType="text/css" height="143px" preserveAspectRatio="none" style="width:769px;height:143px;background:#FFFFFF;" version="1.1" viewBox="0 0 769 143" width="769px" zoomAndPan="magnify"><defs/><g><!--class TransactionAttribute--><g id="elem_TransactionAttribute"><rect codeLine="1" fill="#F1F1F1" height="96.8906" id="TransactionAttribute" rx="2.5" ry="2.5" style="stroke:#181818;stroke-width:0.5;" width="241" x="265" y="23.29"/><ellipse cx="311.25" cy="39.29" fill="#B4A7E5" rx="11" ry="11" style="stroke:#181818;stroke-width:1.0;"/><path d="M307.1719,35.0556 L307.1719,32.8994 L314.5625,32.8994 L314.5625,35.0556 L312.0938,35.0556 L312.0938,43.1337 L314.5625,43.1337 L314.5625,45.29 L307.1719,45.29 L307.1719,43.1337 L309.6406,43.1337 L309.6406,35.0556 L307.1719,35.0556 Z " fill="#000000"/><text fill="#000000" font-family="sans-serif" font-size="14" font-style="italic" lengthAdjust="spacing" textLength="140" x="331.75" y="44.1367">TransactionAttribute</text><line style="stroke:#181818;stroke-width:0.5;" x1="266" x2="505" y1="55.29" y2="55.29"/><line style="stroke:#181818;stroke-width:0.5;" x1="266" x2="505" y1="63.29" y2="63.29"/><ellipse cx="276" cy="76.9384" fill="#84BE84" rx="3" ry="3" style="stroke:#038048;stroke-width:1.0;"/><text fill="#000000" font-family="sans-serif" font-size="14" lengthAdjust="spacing" textLength="132" x="285" y="80.2851">getQualifier() String</text><ellipse cx="276" cy="93.2353" fill="#84BE84" rx="3" ry="3" style="stroke:#038048;stroke-width:1.0;"/><text fill="#000000" font-family="sans-serif" font-size="14" lengthAdjust="spacing" textLength="213" x="285" y="96.582">getLabels() Collection&lt;String&gt;</text><ellipse cx="276" cy="109.5322" fill="#84BE84" rx="3" ry="3" style="stroke:#038048;stroke-width:1.0;"/><text fill="#000000" font-family="sans-serif" font-size="14" lengthAdjust="spacing" textLength="215" x="285" y="112.8789">rollbackOn(Throwable) boolean</text></g><!--class TransactionDefinition--><g id="elem_TransactionDefinition"><rect codeLine="6" fill="#F1F1F1" height="129.4844" id="TransactionDefinition" rx="2.5" ry="2.5" style="stroke:#181818;stroke-width:0.5;" width="223" x="7" y="7"/><ellipse cx="42.25" cy="23" fill="#B4A7E5" rx="11" ry="11" style="stroke:#181818;stroke-width:1.0;"/><path d="M38.1719,18.7656 L38.1719,16.6094 L45.5625,16.6094 L45.5625,18.7656 L43.0938,18.7656 L43.0938,26.8438 L45.5625,26.8438 L45.5625,29 L38.1719,29 L38.1719,26.8438 L40.6406,26.8438 L40.6406,18.7656 L38.1719,18.7656 Z " fill="#000000"/><text fill="#000000" font-family="sans-serif" font-size="14" font-style="italic" lengthAdjust="spacing" textLength="146" x="60.75" y="27.8467">TransactionDefinition</text><line style="stroke:#181818;stroke-width:0.5;" x1="8" x2="229" y1="39" y2="39"/><line style="stroke:#181818;stroke-width:0.5;" x1="8" x2="229" y1="47" y2="47"/><ellipse cx="18" cy="60.6484" fill="#84BE84" rx="3" ry="3" style="stroke:#038048;stroke-width:1.0;"/><text fill="#000000" font-family="sans-serif" font-size="14" lengthAdjust="spacing" textLength="197" x="27" y="63.9951">getPropagationBehavior() int</text><ellipse cx="18" cy="76.9453" fill="#84BE84" rx="3" ry="3" style="stroke:#038048;stroke-width:1.0;"/><text fill="#000000" font-family="sans-serif" font-size="14" lengthAdjust="spacing" textLength="146" x="27" y="80.292">getIsolationLevel() int</text><ellipse cx="18" cy="93.2422" fill="#84BE84" rx="3" ry="3" style="stroke:#038048;stroke-width:1.0;"/><text fill="#000000" font-family="sans-serif" font-size="14" lengthAdjust="spacing" textLength="111" x="27" y="96.5889">getTimeout() int</text><ellipse cx="18" cy="109.5391" fill="#84BE84" rx="3" ry="3" style="stroke:#038048;stroke-width:1.0;"/><text fill="#000000" font-family="sans-serif" font-size="14" lengthAdjust="spacing" textLength="147" x="27" y="112.8857">isReadOnly() boolean</text><ellipse cx="18" cy="125.8359" fill="#84BE84" rx="3" ry="3" style="stroke:#038048;stroke-width:1.0;"/><text fill="#000000" font-family="sans-serif" font-size="14" lengthAdjust="spacing" textLength="117" x="27" y="129.1826">getName() String</text></g><!--class DefaultTransactionAttribute--><g id="elem_DefaultTransactionAttribute"><rect codeLine="13" fill="#F1F1F1" height="48" id="DefaultTransactionAttribute" rx="2.5" ry="2.5" style="stroke:#181818;stroke-width:0.5;" width="221" x="541" y="47.74"/><ellipse cx="556" cy="63.74" fill="#ADD1B2" rx="11" ry="11" style="stroke:#181818;stroke-width:1.0;"/><path d="M558.9688,69.3806 Q558.3906,69.6775 557.75,69.8181 Q557.1094,69.9744 556.4063,69.9744 Q553.9063,69.9744 552.5781,68.3338 Q551.2656,66.6775 551.2656,63.5525 Q551.2656,60.4275 552.5781,58.7712 Q553.9063,57.115 556.4063,57.115 Q557.1094,57.115 557.75,57.2712 Q558.4063,57.4275 558.9688,57.7244 L558.9688,60.4431 Q558.3438,59.865 557.75,59.5994 Q557.1563,59.3181 556.5313,59.3181 Q555.1875,59.3181 554.5,60.3962 Q553.8125,61.4587 553.8125,63.5525 Q553.8125,65.6463 554.5,66.7244 Q555.1875,67.7869 556.5313,67.7869 Q557.1563,67.7869 557.75,67.5213 Q558.3438,67.24 558.9688,66.6619 L558.9688,69.3806 Z " fill="#000000"/><text fill="#000000" font-family="sans-serif" font-size="14" lengthAdjust="spacing" textLength="189" x="570" y="68.5867">DefaultTransactionAttribute</text><line style="stroke:#181818;stroke-width:0.5;" x1="542" x2="761" y1="79.74" y2="79.74"/><line style="stroke:#181818;stroke-width:0.5;" x1="542" x2="761" y1="87.74" y2="87.74"/></g><!--reverse link TransactionDefinition to TransactionAttribute--><g id="link_TransactionDefinition_TransactionAttribute"><path codeLine="14" d="M251.22,71.74 C255.68,71.74 260.14,71.74 264.6,71.74 " fill="none" id="TransactionDefinition-backto-TransactionAttribute" style="stroke:#181818;stroke-width:1.0;"/><polygon fill="none" points="251.36,78.74,231.36,71.74,251.36,64.74,251.36,78.74" style="stroke:#181818;stroke-width:1.0;"/></g><!--reverse link TransactionAttribute to DefaultTransactionAttribute--><g id="link_TransactionAttribute_DefaultTransactionAttribute"><path codeLine="15" d="M527.2,71.74 C531.67,71.74 536.14,71.74 540.61,71.74 " fill="none" id="TransactionAttribute-backto-DefaultTransactionAttribute" style="stroke:#181818;stroke-width:1.0;stroke-dasharray:7.0,7.0;"/><polygon fill="none" points="527.29,78.74,507.29,71.74,527.29,64.74,527.29,78.74" style="stroke:#181818;stroke-width:1.0;"/></g><!--SRC=[VP1D2i8m48NNvXHPLaHF888_6q7yxGKcTLe7numagIBQkvkgM8JYBhpllSoR8HlGvP2XJXrO3raWiUCG79aoeBwhJayN63ObCEM4BkdgNOIs-80566GVrQamuoizV1j6jSD5rK1sNDaaFJYvWc7iQYF225PLYjh6pp0dI_NhEt_jv0m5rDe43t0XgPl4z8VFlV2BBl22_8DIEg6KeT78Rn7sAyktfAdozYxXXCs6bSeOlDUn3vGSsWzKgLQzp_t7g7qfzU-_0Gz-Sr_q1000]--></g></svg>