<?xml version="1.0" encoding="us-ascii" standalone="no"?><svg xmlns="http://www.w3.org/2000/svg" xmlns:xlink="http://www.w3.org/1999/xlink" contentStyleType="text/css" height="403px" preserveAspectRatio="none" style="width:796px;height:403px;background:#FFFFFF;" version="1.1" viewBox="0 0 796 403" width="796px" zoomAndPan="magnify"><defs/><g><text fill="#000000" font-family="sans-serif" font-size="14" font-weight="bold" lengthAdjust="spacing" textLength="249" x="266.5" y="22.9951">Java Collections Framework-Set</text><!--class Set--><g id="elem_Set"><rect codeLine="2" fill="#F1F1F1" height="48" id="Set" rx="2.5" ry="2.5" style="stroke:#181818;stroke-width:0.5;" width="67" x="465" y="47.2969"/><ellipse cx="480" cy="63.2969" fill="#B4A7E5" rx="11" ry="11" style="stroke:#181818;stroke-width:1.0;"/><path d="M475.9219,59.0625 L475.9219,56.9063 L483.3125,56.9063 L483.3125,59.0625 L480.8438,59.0625 L480.8438,67.1406 L483.3125,67.1406 L483.3125,69.2969 L475.9219,69.2969 L475.9219,67.1406 L478.3906,67.1406 L478.3906,59.0625 L475.9219,59.0625 Z " fill="#000000"/><text fill="#000000" font-family="sans-serif" font-size="14" font-style="italic" lengthAdjust="spacing" textLength="23" x="494" y="68.1436">Set</text><rect fill="#FFFFFF" height="15.9688" style="stroke:#181818;stroke-width:1.0;stroke-dasharray:2.0,2.0;" width="10" x="525" y="44.2969"/><text fill="#000000" font-family="sans-serif" font-size="12" font-style="italic" lengthAdjust="spacing" textLength="8" x="526" y="56.4355">E</text><line style="stroke:#181818;stroke-width:0.5;" x1="466" x2="531" y1="79.2969" y2="79.2969"/><line style="stroke:#181818;stroke-width:0.5;" x1="466" x2="531" y1="87.2969" y2="87.2969"/></g><!--class SortedSet--><g id="elem_SortedSet"><rect codeLine="3" fill="#F1F1F1" height="48" id="SortedSet" rx="2.5" ry="2.5" style="stroke:#181818;stroke-width:0.5;" width="113" x="614" y="47.2969"/><ellipse cx="629" cy="63.2969" fill="#B4A7E5" rx="11" ry="11" style="stroke:#181818;stroke-width:1.0;"/><path d="M624.9219,59.0625 L624.9219,56.9063 L632.3125,56.9063 L632.3125,59.0625 L629.8438,59.0625 L629.8438,67.1406 L632.3125,67.1406 L632.3125,69.2969 L624.9219,69.2969 L624.9219,67.1406 L627.3906,67.1406 L627.3906,59.0625 L624.9219,59.0625 Z " fill="#000000"/><text fill="#000000" font-family="sans-serif" font-size="14" font-style="italic" lengthAdjust="spacing" textLength="69" x="643" y="68.1436">SortedSet</text><rect fill="#FFFFFF" height="15.9688" style="stroke:#181818;stroke-width:1.0;stroke-dasharray:2.0,2.0;" width="10" x="720" y="44.2969"/><text fill="#000000" font-family="sans-serif" font-size="12" font-style="italic" lengthAdjust="spacing" textLength="8" x="721" y="56.4355">E</text><line style="stroke:#181818;stroke-width:0.5;" x1="615" x2="726" y1="79.2969" y2="79.2969"/><line style="stroke:#181818;stroke-width:0.5;" x1="615" x2="726" y1="87.2969" y2="87.2969"/></g><!--class NavigableSet--><g id="elem_NavigableSet"><rect codeLine="4" fill="#F1F1F1" height="48" id="NavigableSet" rx="2.5" ry="2.5" style="stroke:#181818;stroke-width:0.5;" width="133" x="652" y="155.2969"/><ellipse cx="667" cy="171.2969" fill="#B4A7E5" rx="11" ry="11" style="stroke:#181818;stroke-width:1.0;"/><path d="M662.9219,167.0625 L662.9219,164.9063 L670.3125,164.9063 L670.3125,167.0625 L667.8438,167.0625 L667.8438,175.1406 L670.3125,175.1406 L670.3125,177.2969 L662.9219,177.2969 L662.9219,175.1406 L665.3906,175.1406 L665.3906,167.0625 L662.9219,167.0625 Z " fill="#000000"/><text fill="#000000" font-family="sans-serif" font-size="14" font-style="italic" lengthAdjust="spacing" textLength="89" x="681" y="176.1436">NavigableSet</text><rect fill="#FFFFFF" height="15.9688" style="stroke:#181818;stroke-width:1.0;stroke-dasharray:2.0,2.0;" width="10" x="778" y="152.2969"/><text fill="#000000" font-family="sans-serif" font-size="12" font-style="italic" lengthAdjust="spacing" textLength="8" x="779" y="164.4355">E</text><line style="stroke:#181818;stroke-width:0.5;" x1="653" x2="784" y1="187.2969" y2="187.2969"/><line style="stroke:#181818;stroke-width:0.5;" x1="653" x2="784" y1="195.2969" y2="195.2969"/></g><!--class HashSet--><g id="elem_HashSet"><rect codeLine="5" fill="#F1F1F1" height="48" id="HashSet" rx="2.5" ry="2.5" style="stroke:#181818;stroke-width:0.5;" width="102" x="275.5" y="47.2969"/><ellipse cx="290.5" cy="63.2969" fill="#ADD1B2" rx="11" ry="11" style="stroke:#181818;stroke-width:1.0;"/><path d="M293.4688,68.9375 Q292.8906,69.2344 292.25,69.375 Q291.6094,69.5313 290.9063,69.5313 Q288.4063,69.5313 287.0781,67.8906 Q285.7656,66.2344 285.7656,63.1094 Q285.7656,59.9844 287.0781,58.3281 Q288.4063,56.6719 290.9063,56.6719 Q291.6094,56.6719 292.25,56.8281 Q292.9063,56.9844 293.4688,57.2813 L293.4688,60 Q292.8438,59.4219 292.25,59.1563 Q291.6563,58.875 291.0313,58.875 Q289.6875,58.875 289,59.9531 Q288.3125,61.0156 288.3125,63.1094 Q288.3125,65.2031 289,66.2813 Q289.6875,67.3438 291.0313,67.3438 Q291.6563,67.3438 292.25,67.0781 Q292.8438,66.7969 293.4688,66.2188 L293.4688,68.9375 Z " fill="#000000"/><text fill="#000000" font-family="sans-serif" font-size="14" lengthAdjust="spacing" textLength="58" x="304.5" y="68.1436">HashSet</text><rect fill="#FFFFFF" height="15.9688" style="stroke:#181818;stroke-width:1.0;stroke-dasharray:2.0,2.0;" width="10" x="370.5" y="44.2969"/><text fill="#000000" font-family="sans-serif" font-size="12" font-style="italic" lengthAdjust="spacing" textLength="8" x="371.5" y="56.4355">E</text><line style="stroke:#181818;stroke-width:0.5;" x1="276.5" x2="376.5" y1="79.2969" y2="79.2969"/><line style="stroke:#181818;stroke-width:0.5;" x1="276.5" x2="376.5" y1="87.2969" y2="87.2969"/></g><!--class LinkedHashSet--><g id="elem_LinkedHashSet"><rect codeLine="6" fill="#F1F1F1" height="48" id="LinkedHashSet" rx="2.5" ry="2.5" style="stroke:#181818;stroke-width:0.5;" width="147" x="202" y="155.2969"/><ellipse cx="217" cy="171.2969" fill="#ADD1B2" rx="11" ry="11" style="stroke:#181818;stroke-width:1.0;"/><path d="M219.9688,176.9375 Q219.3906,177.2344 218.75,177.375 Q218.1094,177.5313 217.4063,177.5313 Q214.9063,177.5313 213.5781,175.8906 Q212.2656,174.2344 212.2656,171.1094 Q212.2656,167.9844 213.5781,166.3281 Q214.9063,164.6719 217.4063,164.6719 Q218.1094,164.6719 218.75,164.8281 Q219.4063,164.9844 219.9688,165.2813 L219.9688,168 Q219.3438,167.4219 218.75,167.1563 Q218.1563,166.875 217.5313,166.875 Q216.1875,166.875 215.5,167.9531 Q214.8125,169.0156 214.8125,171.1094 Q214.8125,173.2031 215.5,174.2813 Q216.1875,175.3438 217.5313,175.3438 Q218.1563,175.3438 218.75,175.0781 Q219.3438,174.7969 219.9688,174.2188 L219.9688,176.9375 Z " fill="#000000"/><text fill="#000000" font-family="sans-serif" font-size="14" lengthAdjust="spacing" textLength="103" x="231" y="176.1436">LinkedHashSet</text><rect fill="#FFFFFF" height="15.9688" style="stroke:#181818;stroke-width:1.0;stroke-dasharray:2.0,2.0;" width="10" x="342" y="152.2969"/><text fill="#000000" font-family="sans-serif" font-size="12" font-style="italic" lengthAdjust="spacing" textLength="8" x="343" y="164.4355">E</text><line style="stroke:#181818;stroke-width:0.5;" x1="203" x2="348" y1="187.2969" y2="187.2969"/><line style="stroke:#181818;stroke-width:0.5;" x1="203" x2="348" y1="195.2969" y2="195.2969"/></g><!--class TreeSet--><g id="elem_TreeSet"><rect codeLine="7" fill="#F1F1F1" height="48" id="TreeSet" rx="2.5" ry="2.5" style="stroke:#181818;stroke-width:0.5;" width="99" x="674" y="263.2969"/><ellipse cx="689" cy="279.2969" fill="#ADD1B2" rx="11" ry="11" style="stroke:#181818;stroke-width:1.0;"/><path d="M691.9688,284.9375 Q691.3906,285.2344 690.75,285.375 Q690.1094,285.5313 689.4063,285.5313 Q686.9063,285.5313 685.5781,283.8906 Q684.2656,282.2344 684.2656,279.1094 Q684.2656,275.9844 685.5781,274.3281 Q686.9063,272.6719 689.4063,272.6719 Q690.1094,272.6719 690.75,272.8281 Q691.4063,272.9844 691.9688,273.2813 L691.9688,276 Q691.3438,275.4219 690.75,275.1563 Q690.1563,274.875 689.5313,274.875 Q688.1875,274.875 687.5,275.9531 Q686.8125,277.0156 686.8125,279.1094 Q686.8125,281.2031 687.5,282.2813 Q688.1875,283.3438 689.5313,283.3438 Q690.1563,283.3438 690.75,283.0781 Q691.3438,282.7969 691.9688,282.2188 L691.9688,284.9375 Z " fill="#000000"/><text fill="#000000" font-family="sans-serif" font-size="14" lengthAdjust="spacing" textLength="55" x="703" y="284.1436">TreeSet</text><rect fill="#FFFFFF" height="15.9688" style="stroke:#181818;stroke-width:1.0;stroke-dasharray:2.0,2.0;" width="10" x="766" y="260.2969"/><text fill="#000000" font-family="sans-serif" font-size="12" font-style="italic" lengthAdjust="spacing" textLength="8" x="767" y="272.4355">E</text><line style="stroke:#181818;stroke-width:0.5;" x1="675" x2="772" y1="295.2969" y2="295.2969"/><line style="stroke:#181818;stroke-width:0.5;" x1="675" x2="772" y1="303.2969" y2="303.2969"/></g><!--class EnumSet--><g id="elem_EnumSet"><rect codeLine="8" fill="#F1F1F1" height="48" id="EnumSet" rx="2.5" ry="2.5" style="stroke:#181818;stroke-width:0.5;" width="228" x="384.5" y="155.2969"/><ellipse cx="399.5" cy="171.2969" fill="#A9DCDF" rx="11" ry="11" style="stroke:#181818;stroke-width:1.0;"/><path d="M399.6094,166.6406 L398.4531,171.7188 L400.7813,171.7188 L399.6094,166.6406 Z M398.125,164.4063 L401.1094,164.4063 L404.4688,176.7969 L402.0156,176.7969 L401.25,173.7344 L397.9688,173.7344 L397.2188,176.7969 L394.7813,176.7969 L398.125,164.4063 Z " fill="#000000"/><text fill="#000000" font-family="sans-serif" font-size="14" font-style="italic" lengthAdjust="spacing" textLength="63" x="413.5" y="176.1436">EnumSet</text><rect fill="#FFFFFF" height="15.9688" style="stroke:#181818;stroke-width:1.0;stroke-dasharray:2.0,2.0;" width="131" x="484.5" y="152.2969"/><text fill="#000000" font-family="sans-serif" font-size="12" font-style="italic" lengthAdjust="spacing" textLength="129" x="485.5" y="164.4355">E extends Enum&lt;E&gt;</text><line style="stroke:#181818;stroke-width:0.5;" x1="385.5" x2="611.5" y1="187.2969" y2="187.2969"/><line style="stroke:#181818;stroke-width:0.5;" x1="385.5" x2="611.5" y1="195.2969" y2="195.2969"/></g><!--class RegularEnumSet--><g id="elem_RegularEnumSet"><rect codeLine="9" fill="#F1F1F1" height="48" id="RegularEnumSet" rx="2.5" ry="2.5" style="stroke:#181818;stroke-width:0.5;" width="281" x="358" y="263.2969"/><ellipse cx="373" cy="279.2969" fill="#ADD1B2" rx="11" ry="11" style="stroke:#181818;stroke-width:1.0;"/><path d="M375.9688,284.9375 Q375.3906,285.2344 374.75,285.375 Q374.1094,285.5313 373.4063,285.5313 Q370.9063,285.5313 369.5781,283.8906 Q368.2656,282.2344 368.2656,279.1094 Q368.2656,275.9844 369.5781,274.3281 Q370.9063,272.6719 373.4063,272.6719 Q374.1094,272.6719 374.75,272.8281 Q375.4063,272.9844 375.9688,273.2813 L375.9688,276 Q375.3438,275.4219 374.75,275.1563 Q374.1563,274.875 373.5313,274.875 Q372.1875,274.875 371.5,275.9531 Q370.8125,277.0156 370.8125,279.1094 Q370.8125,281.2031 371.5,282.2813 Q372.1875,283.3438 373.5313,283.3438 Q374.1563,283.3438 374.75,283.0781 Q375.3438,282.7969 375.9688,282.2188 L375.9688,284.9375 Z " fill="#000000"/><text fill="#000000" font-family="sans-serif" font-size="14" lengthAdjust="spacing" textLength="116" x="387" y="284.1436">RegularEnumSet</text><rect fill="#FFFFFF" height="15.9688" style="stroke:#181818;stroke-width:1.0;stroke-dasharray:2.0,2.0;" width="131" x="511" y="260.2969"/><text fill="#000000" font-family="sans-serif" font-size="12" font-style="italic" lengthAdjust="spacing" textLength="129" x="512" y="272.4355">E extends Enum&lt;E&gt;</text><line style="stroke:#181818;stroke-width:0.5;" x1="359" x2="638" y1="295.2969" y2="295.2969"/><line style="stroke:#181818;stroke-width:0.5;" x1="359" x2="638" y1="303.2969" y2="303.2969"/></g><!--class JumboEnumSet--><g id="elem_JumboEnumSet"><rect codeLine="10" fill="#F1F1F1" height="48" id="JumboEnumSet" rx="2.5" ry="2.5" style="stroke:#181818;stroke-width:0.5;" width="271" x="52" y="263.2969"/><ellipse cx="67" cy="279.2969" fill="#ADD1B2" rx="11" ry="11" style="stroke:#181818;stroke-width:1.0;"/><path d="M69.9688,284.9375 Q69.3906,285.2344 68.75,285.375 Q68.1094,285.5313 67.4063,285.5313 Q64.9063,285.5313 63.5781,283.8906 Q62.2656,282.2344 62.2656,279.1094 Q62.2656,275.9844 63.5781,274.3281 Q64.9063,272.6719 67.4063,272.6719 Q68.1094,272.6719 68.75,272.8281 Q69.4063,272.9844 69.9688,273.2813 L69.9688,276 Q69.3438,275.4219 68.75,275.1563 Q68.1563,274.875 67.5313,274.875 Q66.1875,274.875 65.5,275.9531 Q64.8125,277.0156 64.8125,279.1094 Q64.8125,281.2031 65.5,282.2813 Q66.1875,283.3438 67.5313,283.3438 Q68.1563,283.3438 68.75,283.0781 Q69.3438,282.7969 69.9688,282.2188 L69.9688,284.9375 Z " fill="#000000"/><text fill="#000000" font-family="sans-serif" font-size="14" lengthAdjust="spacing" textLength="106" x="81" y="284.1436">JumboEnumSet</text><rect fill="#FFFFFF" height="15.9688" style="stroke:#181818;stroke-width:1.0;stroke-dasharray:2.0,2.0;" width="131" x="195" y="260.2969"/><text fill="#000000" font-family="sans-serif" font-size="12" font-style="italic" lengthAdjust="spacing" textLength="129" x="196" y="272.4355">E extends Enum&lt;E&gt;</text><line style="stroke:#181818;stroke-width:0.5;" x1="53" x2="322" y1="295.2969" y2="295.2969"/><line style="stroke:#181818;stroke-width:0.5;" x1="53" x2="322" y1="303.2969" y2="303.2969"/></g><g id="elem_GMN26"><path d="M120.5,58.7269 L120.5,83.8597 A0,0 0 0 0 120.5,83.8597 L240.5,83.8597 A0,0 0 0 0 240.5,83.8597 L240.5,76.7269 L275.04,71.2969 L240.5,68.7269 L240.5,68.7269 L230.5,58.7269 L120.5,58.7269 A0,0 0 0 0 120.5,58.7269 " fill="#FEFFDD" style="stroke:#181818;stroke-width:0.5;"/><path d="M230.5,58.7269 L230.5,68.7269 L240.5,68.7269 L230.5,58.7269 " fill="#FEFFDD" style="stroke:#181818;stroke-width:0.5;"/><text fill="#000000" font-family="sans-serif" font-size="13" lengthAdjust="spacing" textLength="99" x="126.5" y="75.7938">&#32452;&#21512;&#20102;HashMap</text></g><g id="elem_GMN29"><path d="M6,166.7269 L6,191.8597 A0,0 0 0 0 6,191.8597 L167,191.8597 A0,0 0 0 0 167,191.8597 L167,184.7269 L201.56,179.2969 L167,176.7269 L167,176.7269 L157,166.7269 L6,166.7269 A0,0 0 0 0 6,166.7269 " fill="#FEFFDD" style="stroke:#181818;stroke-width:0.5;"/><path d="M157,166.7269 L157,176.7269 L167,176.7269 L157,166.7269 " fill="#FEFFDD" style="stroke:#181818;stroke-width:0.5;"/><text fill="#000000" font-family="sans-serif" font-size="13" lengthAdjust="spacing" textLength="140" x="12" y="183.7938">&#32452;&#21512;&#20102;LinkedHashMap</text></g><g id="elem_GMN32"><path d="M666,371.2969 L666,396.4297 A0,0 0 0 0 666,396.4297 L781,396.4297 A0,0 0 0 0 781,396.4297 L781,381.2969 L771,371.2969 L727.5,371.2969 L723.5,311.6669 L719.5,371.2969 L666,371.2969 A0,0 0 0 0 666,371.2969 " fill="#FEFFDD" style="stroke:#181818;stroke-width:0.5;"/><path d="M771,371.2969 L771,381.2969 L781,381.2969 L771,371.2969 " fill="#FEFFDD" style="stroke:#181818;stroke-width:0.5;"/><text fill="#000000" font-family="sans-serif" font-size="13" lengthAdjust="spacing" textLength="94" x="672" y="388.3638">&#32452;&#21512;&#20102;TreeMap</text></g><g id="elem_GMN35"><path d="M435.5,371.2969 L435.5,396.4297 A0,0 0 0 0 435.5,396.4297 L561.5,396.4297 A0,0 0 0 0 561.5,396.4297 L561.5,381.2969 L551.5,371.2969 L502.5,371.2969 L498.5,311.6669 L494.5,371.2969 L435.5,371.2969 A0,0 0 0 0 435.5,371.2969 " fill="#FEFFDD" style="stroke:#181818;stroke-width:0.5;"/><path d="M551.5,371.2969 L551.5,381.2969 L561.5,381.2969 L551.5,371.2969 " fill="#FEFFDD" style="stroke:#181818;stroke-width:0.5;"/><text fill="#000000" font-family="sans-serif" font-size="13" lengthAdjust="spacing" textLength="105" x="441.5" y="388.3638">&#22522;&#20110;long&#31867;&#22411;&#21464;&#37327;</text></g><g id="elem_GMN38"><path d="M111.5,371.2969 L111.5,396.4297 A0,0 0 0 0 111.5,396.4297 L263.5,396.4297 A0,0 0 0 0 263.5,396.4297 L263.5,381.2969 L253.5,371.2969 L191.5,371.2969 L187.5,311.6669 L183.5,371.2969 L111.5,371.2969 A0,0 0 0 0 111.5,371.2969 " fill="#FEFFDD" style="stroke:#181818;stroke-width:0.5;"/><path d="M253.5,371.2969 L253.5,381.2969 L263.5,381.2969 L253.5,371.2969 " fill="#FEFFDD" style="stroke:#181818;stroke-width:0.5;"/><text fill="#000000" font-family="sans-serif" font-size="13" lengthAdjust="spacing" textLength="131" x="117.5" y="388.3638">&#22522;&#20110;long&#31867;&#22411;&#25968;&#32452;&#21464;&#37327;</text></g><!--reverse link Set to SortedSet--><g id="link_Set_SortedSet"><path codeLine="12" d="M553.36,71.2969 C573.44,71.2969 593.52,71.2969 613.6,71.2969 " fill="none" id="Set-backto-SortedSet" style="stroke:#181818;stroke-width:1.0;"/><polygon fill="none" points="553.43,78.2969,533.43,71.2969,553.43,64.2969,553.43,78.2969" style="stroke:#181818;stroke-width:1.0;"/></g><!--reverse link SortedSet to NavigableSet--><g id="link_SortedSet_NavigableSet"><path codeLine="13" d="M689.66,114.5969 C695.91,128.4069 702.62,143.2169 707.99,155.0869 " fill="none" id="SortedSet-backto-NavigableSet" style="stroke:#181818;stroke-width:1.0;"/><polygon fill="none" points="682.91,117.6669,681.03,96.5569,695.66,111.8869,682.91,117.6669" style="stroke:#181818;stroke-width:1.0;"/></g><!--link HashSet to Set--><g id="link_HashSet_Set"><path codeLine="14" d="M377.9,71.2969 C399.79,71.2969 421.69,71.2969 443.59,71.2969 " fill="none" id="HashSet-to-Set" style="stroke:#181818;stroke-width:1.0;stroke-dasharray:7.0,7.0;"/><polygon fill="none" points="443.58,64.2969,463.58,71.2969,443.58,78.2969,443.58,64.2969" style="stroke:#181818;stroke-width:1.0;"/></g><!--reverse link HashSet to LinkedHashSet--><g id="link_HashSet_LinkedHashSet"><path codeLine="15" d="M306.38,114.1169 C299.67,128.0569 292.44,143.0869 286.67,155.0869 " fill="none" id="HashSet-backto-LinkedHashSet" style="stroke:#181818;stroke-width:1.0;"/><polygon fill="none" points="300.33,111.5469,315.31,96.5569,312.94,117.6169,300.33,111.5469" style="stroke:#181818;stroke-width:1.0;"/></g><!--reverse link NavigableSet to TreeSet--><g id="link_NavigableSet_TreeSet"><path codeLine="16" d="M720.59,224.5269 C721.21,237.7769 721.87,251.7769 722.41,263.0869 " fill="none" id="NavigableSet-backto-TreeSet" style="stroke:#181818;stroke-width:1.0;stroke-dasharray:7.0,7.0;"/><polygon fill="none" points="713.55,224.8669,719.6,204.5569,727.53,224.2069,713.55,224.8669" style="stroke:#181818;stroke-width:1.0;"/></g><!--reverse link Set to EnumSet--><g id="link_Set_EnumSet"><path codeLine="17" d="M498.5,116.5269 C498.5,129.7769 498.5,143.7769 498.5,155.0869 " fill="none" id="Set-backto-EnumSet" style="stroke:#181818;stroke-width:1.0;stroke-dasharray:7.0,7.0;"/><polygon fill="none" points="491.5,116.5569,498.5,96.5569,505.5,116.5569,491.5,116.5569" style="stroke:#181818;stroke-width:1.0;"/></g><!--reverse link EnumSet to RegularEnumSet--><g id="link_EnumSet_RegularEnumSet"><path codeLine="18" d="M498.5,224.5269 C498.5,237.7769 498.5,251.7769 498.5,263.0869 " fill="none" id="EnumSet-backto-RegularEnumSet" style="stroke:#181818;stroke-width:1.0;"/><polygon fill="none" points="491.5,224.5569,498.5,204.5569,505.5,224.5569,491.5,224.5569" style="stroke:#181818;stroke-width:1.0;"/></g><!--reverse link EnumSet to JumboEnumSet--><g id="link_EnumSet_JumboEnumSet"><path codeLine="19" d="M410.03,210.4469 C361.22,227.0869 301.5,247.4369 256.23,262.8669 " fill="none" id="EnumSet-backto-JumboEnumSet" style="stroke:#181818;stroke-width:1.0;"/><polygon fill="none" points="407.68,203.5169,428.86,203.6869,412.19,216.7669,407.68,203.5169" style="stroke:#181818;stroke-width:1.0;"/></g><!--SRC=[XOynJiCm58Ptd-9T83b0XRgW8bG10t019ta9KHsxSbuA0oC292JAWiG4Lu2rlKv3nIseKwVO2OBH___zjZ_AII2C-Op3lX82OygLBE50ym8lbPu4PqWibuGwvJ72vhGt6hg1qeH9BpxXippZaK3Rn8AN9Hpoyi8BZd8vmQGNdsjiXpmgIVEOODkCP5Kq3U0LeKosoGPifwUOLOBhVxbnLKJg3uhjn20GmVNGc3FN2eAgYLkCMGi8TMXnpyxoziIi8eILeTsBcVsLhKpYIzcRx8cv9fsAIKK80bC2bRPFmm3MovlwwNwrk3NHCP_wdFzjX_ufTfj84Qd2h5eXXpVHBsJ7PW3rssArU1HAPkkFPVtwKCzVlkxctPddsHzzFh-RXvlfDm00]--></g></svg>