<?xml version="1.0" encoding="us-ascii" standalone="no"?><svg xmlns="http://www.w3.org/2000/svg" xmlns:xlink="http://www.w3.org/1999/xlink" contentStyleType="text/css" height="131px" preserveAspectRatio="none" style="width:1091px;height:131px;background:#FFFFFF;" version="1.1" viewBox="0 0 1091 131" width="1091px" zoomAndPan="magnify"><defs/><g><text fill="#000000" font-family="sans-serif" font-size="14" font-weight="bold" lengthAdjust="spacing" textLength="373" x="352" y="22.9951">HandlerExecutionChain#applyPreHandle&#28041;&#21450;&#30340;&#31867;</text><!--class HandlerExecutionChain--><g id="elem_HandlerExecutionChain"><rect codeLine="3" fill="#F1F1F1" height="80.5938" id="HandlerExecutionChain" rx="2.5" ry="2.5" style="stroke:#181818;stroke-width:0.5;" width="532" x="7" y="44.2969"/><ellipse cx="188.75" cy="60.2969" fill="#ADD1B2" rx="11" ry="11" style="stroke:#181818;stroke-width:1.0;"/><path d="M191.7188,65.9375 Q191.1406,66.2344 190.5,66.375 Q189.8594,66.5313 189.1563,66.5313 Q186.6563,66.5313 185.3281,64.8906 Q184.0156,63.2344 184.0156,60.1094 Q184.0156,56.9844 185.3281,55.3281 Q186.6563,53.6719 189.1563,53.6719 Q189.8594,53.6719 190.5,53.8281 Q191.1563,53.9844 191.7188,54.2813 L191.7188,57 Q191.0938,56.4219 190.5,56.1563 Q189.9063,55.875 189.2813,55.875 Q187.9375,55.875 187.25,56.9531 Q186.5625,58.0156 186.5625,60.1094 Q186.5625,62.2031 187.25,63.2813 Q187.9375,64.3438 189.2813,64.3438 Q189.9063,64.3438 190.5,64.0781 Q191.0938,63.7969 191.7188,63.2188 L191.7188,65.9375 Z " fill="#000000"/><text fill="#000000" font-family="sans-serif" font-size="14" lengthAdjust="spacing" textLength="160" x="209.25" y="65.1436">HandlerExecutionChain</text><line style="stroke:#181818;stroke-width:0.5;" x1="8" x2="538" y1="76.2969" y2="76.2969"/><rect fill="none" height="6" style="stroke:#C82930;stroke-width:1.0;" width="6" x="15" y="86.9453"/><text fill="#000000" font-family="sans-serif" font-size="14" lengthAdjust="spacing" textLength="279" x="27" y="93.292">List&lt;HandlerInterceptor&gt; interceptorList</text><line style="stroke:#181818;stroke-width:0.5;" x1="8" x2="538" y1="100.5938" y2="100.5938"/><text fill="#000000" font-family="sans-serif" font-size="14" lengthAdjust="spacing" textLength="520" x="13" y="117.5889">applyPreHandle(HttpServletRequest, HttpServletResponse, Object) boolean</text></g><!--class HandlerInterceptor--><g id="elem_HandlerInterceptor"><rect codeLine="8" fill="#F1F1F1" height="64.2969" id="HandlerInterceptor" rx="2.5" ry="2.5" style="stroke:#181818;stroke-width:0.5;" width="510" x="574" y="52.4369"/><ellipse cx="760.25" cy="68.4369" fill="#B4A7E5" rx="11" ry="11" style="stroke:#181818;stroke-width:1.0;"/><path d="M756.1719,64.2025 L756.1719,62.0463 L763.5625,62.0463 L763.5625,64.2025 L761.0938,64.2025 L761.0938,72.2806 L763.5625,72.2806 L763.5625,74.4369 L756.1719,74.4369 L756.1719,72.2806 L758.6406,72.2806 L758.6406,64.2025 L756.1719,64.2025 Z " fill="#000000"/><text fill="#000000" font-family="sans-serif" font-size="14" font-style="italic" lengthAdjust="spacing" textLength="129" x="780.75" y="73.2836">HandlerInterceptor</text><line style="stroke:#181818;stroke-width:0.5;" x1="575" x2="1083" y1="84.4369" y2="84.4369"/><line style="stroke:#181818;stroke-width:0.5;" x1="575" x2="1083" y1="92.4369" y2="92.4369"/><ellipse cx="585" cy="106.0853" fill="#84BE84" rx="3" ry="3" style="stroke:#038048;stroke-width:1.0;"/><text fill="#000000" font-family="sans-serif" font-size="14" lengthAdjust="spacing" textLength="484" x="594" y="109.432">preHandle(HttpServletRequest, HttpServletResponse, Object) boolean</text></g><!--reverse link HandlerExecutionChain to HandlerInterceptor--><g id="link_HandlerExecutionChain_HandlerInterceptor"><path codeLine="12" d="M553.23,84.5869 C560.01,84.5869 566.78,84.5869 573.56,84.5869 " fill="none" id="HandlerExecutionChain-backto-HandlerInterceptor" style="stroke:#181818;stroke-width:1.0;"/><polygon fill="#181818" points="540.33,84.5869,546.33,88.5869,552.33,84.5869,546.33,80.5869,540.33,84.5869" style="stroke:#181818;stroke-width:1.0;"/><text fill="#000000" font-family="sans-serif" font-size="13" lengthAdjust="spacing" textLength="8" x="547.3554" y="81.4329">1</text><text fill="#000000" font-family="sans-serif" font-size="13" lengthAdjust="spacing" textLength="8" x="557.8579" y="81.4331">n</text></g><!--SRC=[AyaioKbLy4ZCIyb9BNAjI4qkBSdCptFEICpCKquiACYf32XAXSW-szRvjB_h-QoMvnjtSt4bvoGM5sFNfr3DnQchu9DPN683bVVCAqajIaujACalibF8H710QhWuKQtHy2WfAGXEBIhBIIq9IYqiJIqkqL504IikoCyhJjLHy4_AIaqkqLH8oi_FIKtCuwhbuWARdPQO3FSHaiqWPsah55357kp-LZ9KKj3IBT9LKCfJmk800000]--></g></svg>