<?xml version="1.0" encoding="us-ascii" standalone="no"?><svg xmlns="http://www.w3.org/2000/svg" xmlns:xlink="http://www.w3.org/1999/xlink" contentStyleType="text/css" height="246px" preserveAspectRatio="none" style="width:678px;height:246px;background:#FFFFFF;" version="1.1" viewBox="0 0 678 246" width="678px" zoomAndPan="magnify"><defs/><g><text fill="#000000" font-family="Consolas" font-size="14" font-weight="bold" lengthAdjust="spacing" textLength="98" x="288.5" y="27.9951">&#23545;&#35937;&#30340;&#20869;&#23384;&#20998;&#37197;</text><ellipse cx="343.5" cy="52.2969" fill="#FFFFFF" rx="10" ry="10" style="stroke:#000000;stroke-width:1.0;"/><polygon fill="#FFFFFF" points="27,82.2969,153,82.2969,165,94.2969,153,106.2969,27,106.2969,15,94.2969,27,82.2969" style="stroke:#000000;stroke-width:1.0;"/><text fill="#000000" font-family="Consolas" font-size="14" lengthAdjust="spacing" textLength="14" x="94" y="119.292">&#26159;</text><text fill="#000000" font-family="Consolas" font-size="14" lengthAdjust="spacing" textLength="126" x="27" y="99.1436">&#26632;&#19978;&#20998;&#37197;&#26159;&#21542;&#25104;&#21151;&#65311;</text><rect fill="#FFFFFF" height="36.2969" rx="12.5" ry="12.5" style="stroke:#000000;stroke-width:1.0;" width="90" x="45" y="142.5938"/><text fill="#000000" font-family="Consolas" font-size="14" lengthAdjust="spacing" textLength="70" x="55" y="165.5889">&#22312;&#26632;&#19978;&#20998;&#37197;</text><polygon fill="#FFFFFF" points="197,82.2969,330,82.2969,342,94.2969,330,106.2969,197,106.2969,185,94.2969,197,82.2969" style="stroke:#000000;stroke-width:1.0;"/><text fill="#000000" font-family="Consolas" font-size="14" lengthAdjust="spacing" textLength="14" x="267.5" y="119.292">&#26159;</text><text fill="#000000" font-family="Consolas" font-size="14" lengthAdjust="spacing" textLength="133" x="197" y="99.1436">TLAB&#20998;&#37197;&#26159;&#21542;&#25104;&#21151;&#65311;</text><rect fill="#FFFFFF" height="36.2969" rx="12.5" ry="12.5" style="stroke:#000000;stroke-width:1.0;" width="97" x="215" y="142.5938"/><text fill="#000000" font-family="Consolas" font-size="14" lengthAdjust="spacing" textLength="77" x="225" y="165.5889">&#22312;TLAB&#20998;&#37197;</text><polygon fill="#FFFFFF" points="374,82.2969,472,82.2969,484,94.2969,472,106.2969,374,106.2969,362,94.2969,374,82.2969" style="stroke:#000000;stroke-width:1.0;"/><text fill="#000000" font-family="Consolas" font-size="14" lengthAdjust="spacing" textLength="14" x="427" y="119.292">&#26159;</text><text fill="#000000" font-family="Consolas" font-size="14" lengthAdjust="spacing" textLength="98" x="374" y="99.1436">&#26159;&#21542;&#26159;&#22823;&#23545;&#35937;&#65311;</text><text fill="#000000" font-family="Consolas" font-size="14" lengthAdjust="spacing" textLength="14" x="484" y="90.9951">&#21542;</text><rect fill="#FFFFFF" height="36.2969" rx="12.5" ry="12.5" style="stroke:#000000;stroke-width:1.0;" width="104" x="371" y="142.5938"/><text fill="#000000" font-family="Consolas" font-size="14" lengthAdjust="spacing" textLength="84" x="381" y="165.5889">&#22312;&#32769;&#24180;&#20195;&#20998;&#37197;</text><rect fill="#FFFFFF" height="36.2969" rx="12.5" ry="12.5" style="stroke:#000000;stroke-width:1.0;" width="168" x="504" y="137.4453"/><text fill="#000000" font-family="Consolas" font-size="14" lengthAdjust="spacing" textLength="148" x="514" y="160.4404">&#22312;&#26032;&#29983;&#20195;&#30340;Eden&#21306;&#20998;&#37197;</text><ellipse cx="343.5" cy="229.8906" fill="#FFFFFF" rx="11" ry="11" style="stroke:#000000;stroke-width:1.0;"/><ellipse cx="343.5" cy="229.8906" fill="#000000" rx="6" ry="6" style="stroke:#7F7F7F;stroke-width:1.0;"/><line style="stroke:#000000;stroke-width:1.0;" x1="90" x2="90" y1="106.2969" y2="142.5938"/><polygon fill="#000000" points="86,132.5938,90,142.5938,94,132.5938,90,136.5938" style="stroke:#000000;stroke-width:1.0;"/><line style="stroke:#000000;stroke-width:1.0;" x1="90" x2="90" y1="178.8906" y2="198.8906"/><polygon fill="#000000" points="86,188.8906,90,198.8906,94,188.8906,90,192.8906" style="stroke:#000000;stroke-width:1.0;"/><line style="stroke:#000000;stroke-width:1.0;" x1="263.5" x2="263.5" y1="106.2969" y2="142.5938"/><polygon fill="#000000" points="259.5,132.5938,263.5,142.5938,267.5,132.5938,263.5,136.5938" style="stroke:#000000;stroke-width:1.0;"/><line style="stroke:#000000;stroke-width:1.0;" x1="263.5" x2="263.5" y1="178.8906" y2="198.8906"/><polygon fill="#000000" points="259.5,188.8906,263.5,198.8906,267.5,188.8906,263.5,192.8906" style="stroke:#000000;stroke-width:1.0;"/><line style="stroke:#000000;stroke-width:1.0;" x1="423" x2="423" y1="106.2969" y2="142.5938"/><polygon fill="#000000" points="419,132.5938,423,142.5938,427,132.5938,423,136.5938" style="stroke:#000000;stroke-width:1.0;"/><line style="stroke:#000000;stroke-width:1.0;" x1="423" x2="423" y1="178.8906" y2="198.8906"/><polygon fill="#000000" points="419,188.8906,423,198.8906,427,188.8906,423,192.8906" style="stroke:#000000;stroke-width:1.0;"/><line style="stroke:#000000;stroke-width:1.0;" x1="165" x2="185" y1="94.2969" y2="94.2969"/><polygon fill="#000000" points="175,90.2969,185,94.2969,175,98.2969,179,94.2969" style="stroke:#000000;stroke-width:1.0;"/><line style="stroke:#000000;stroke-width:1.0;" x1="342" x2="362" y1="94.2969" y2="94.2969"/><polygon fill="#000000" points="352,90.2969,362,94.2969,352,98.2969,356,94.2969" style="stroke:#000000;stroke-width:1.0;"/><line style="stroke:#000000;stroke-width:1.0;" x1="343.5" x2="343.5" y1="62.2969" y2="67.2969"/><line style="stroke:#000000;stroke-width:1.0;" x1="343.5" x2="90" y1="67.2969" y2="67.2969"/><line style="stroke:#000000;stroke-width:1.0;" x1="90" x2="90" y1="67.2969" y2="82.2969"/><polygon fill="#000000" points="86,72.2969,90,82.2969,94,72.2969,90,76.2969" style="stroke:#000000;stroke-width:1.0;"/><line style="stroke:#000000;stroke-width:1.0;" x1="484" x2="588" y1="94.2969" y2="94.2969"/><line style="stroke:#000000;stroke-width:1.0;" x1="588" x2="588" y1="94.2969" y2="137.4453"/><polygon fill="#000000" points="584,127.4453,588,137.4453,592,127.4453,588,131.4453" style="stroke:#000000;stroke-width:1.0;"/><line style="stroke:#000000;stroke-width:1.0;" x1="588" x2="588" y1="173.7422" y2="198.8906"/><polygon fill="#000000" points="584,188.8906,588,198.8906,592,188.8906,588,192.8906" style="stroke:#000000;stroke-width:1.0;"/><line style="stroke:#000000;stroke-width:1.0;" x1="90" x2="588" y1="198.8906" y2="198.8906"/><line style="stroke:#000000;stroke-width:1.0;" x1="343.5" x2="343.5" y1="198.8906" y2="218.8906"/><polygon fill="#000000" points="339.5,208.8906,343.5,218.8906,347.5,208.8906,343.5,212.8906" style="stroke:#000000;stroke-width:1.0;"/><!--SRC=[Kop9ICrDLIZ8ISpCuohEpimhI2nAp5KeoIp9INNBpoi9pgnALJ0qGP9AIKrBBCqf8IZfbmWqrpa_hpW_9x6O2soWmjFrErziNFXyLilJjjQdQsSyxMXxsThBLLoIM5IYm9MPfg3nR477anrT4F5dCzO_dR3iMSU4frtpt- -Phwa0T6eUKCcCzPfSd5PFvwn0LcpDbPfJd0eo8iJ7qOb80n1A4TgXce3aakKGvsBL-gAXyUdEBKzsBqRMhw01r0fptBGDpwVC1oe0-jOr9JNlQSykkDAybCmqeA_p2m00]--></g></svg>