<?xml version="1.0" encoding="us-ascii" standalone="no"?><svg xmlns="http://www.w3.org/2000/svg" xmlns:xlink="http://www.w3.org/1999/xlink" contentStyleType="text/css" height="128px" preserveAspectRatio="none" style="width:379px;height:128px;background:#FFFFFF;" version="1.1" viewBox="0 0 379 128" width="379px" zoomAndPan="magnify"><defs/><g><text fill="#000000" font-family="sans-serif" font-size="14" font-weight="bold" lengthAdjust="spacing" textLength="211" x="77" y="22.9951">HashMap&#20013;&#38142;&#34920;&#21644;&#32418;&#40657;&#26641;&#30340;&#36716;&#25442;</text><!--entity a--><g id="elem_a"><rect fill="#FFFFFF" height="36.2969" rx="2.5" ry="2.5" style="stroke:#181818;stroke-width:0.5;" width="48" x="7" y="60.7128"/><text fill="#000000" font-family="sans-serif" font-size="14" lengthAdjust="spacing" textLength="28" x="17" y="83.7079">&#38142;&#34920;</text></g><!--entity b--><g id="elem_b"><rect fill="#FFFFFF" height="36.2969" rx="2.5" ry="2.5" style="stroke:#181818;stroke-width:0.5;" width="62" x="311" y="60.7128"/><text fill="#000000" font-family="sans-serif" font-size="14" lengthAdjust="spacing" textLength="42" x="321" y="83.7079">&#32418;&#40657;&#26641;</text></g><!--link a to b--><g id="link_a_b"><path d="M55.4,78.8628 C109.75,78.8628 241.02,78.8628 305.29,78.8628 " fill="none" id="a-to-b" style="stroke:#181818;stroke-width:1.0;"/><polygon fill="#181818" points="309.93,78.8628,300.93,74.8628,304.93,78.8628,300.93,82.8628,309.93,78.8628" style="stroke:#181818;stroke-width:1.0;"/><text fill="#000000" font-family="sans-serif" font-size="13" lengthAdjust="spacing" textLength="26" x="170" y="56.9297">&#26641;&#21270;</text><text fill="#000000" font-family="sans-serif" font-size="13" lengthAdjust="spacing" textLength="219" x="73.5" y="72.0625">&#65288;&#26368;&#23567;&#26641;&#21270;&#23481;&#37327;&#20026;64&#65292;&#26641;&#21270;&#38408;&#20540;&#20026;8&#65289;</text></g><!--reverse link a to b--><g id="link_a_b"><path d="M60.83,92.0928 C80.7,100.1528 107.63,109.6928 132.5,113.8628 C176.77,121.2828 189.16,120.8328 233.5,113.8628 C260.29,109.6428 289.48,99.9228 310.83,91.7828 " fill="none" id="a-backto-b" style="stroke:#181818;stroke-width:1.0;"/><polygon fill="#181818" points="56.43,89.8528,63.2368,96.9709,61.0555,91.7515,66.2748,89.5701,56.43,89.8528" style="stroke:#181818;stroke-width:1.0;"/><text fill="#000000" font-family="sans-serif" font-size="13" lengthAdjust="spacing" textLength="26" x="170" y="94.9297">&#38142;&#21270;</text><text fill="#000000" font-family="sans-serif" font-size="13" lengthAdjust="spacing" textLength="99" x="133.5" y="110.0625">&#65288;&#38142;&#21270;&#38408;&#20540;&#20026;6&#65289;</text></g><!--SRC=[AyaioKbLy4Wipl1DB7YoO-tBoVjUB5pnT5BFyrsBNkwU-6p1nEUpMbxiNVEiTn5NKMfoIM9UEb2zSdb6PacgWX94jPA2GcAnGY8MURWX42L9N8aAkaMwTWf92bOAGD6dFTDYyjxlwNWsf-7fXdw8mDDrEr-szp_PiSlCvFsU7eZOonaTJnls0CKitk_fv4fIqCq1cf48D0DeFymC21EkqWoe4W00]--></g></svg>