<?xml version="1.0" encoding="us-ascii" standalone="no"?><svg xmlns="http://www.w3.org/2000/svg" xmlns:xlink="http://www.w3.org/1999/xlink" contentStyleType="text/css" height="46px" preserveAspectRatio="none" style="width:464px;height:46px;background:#FFFFFF;" version="1.1" viewBox="0 0 464 46" width="464px" zoomAndPan="magnify"><defs/><g><ellipse cx="16" cy="23.99" fill="#222222" rx="10" ry="10" style="stroke:none;stroke-width:1.0;"/><rect fill="#F1F1F1" height="33.9688" rx="12.5" ry="12.5" style="stroke:#181818;stroke-width:0.5;" width="124" x="46" y="7"/><text fill="#000000" font-family="sans-serif" font-size="12" lengthAdjust="spacing" textLength="104" x="56" y="28.1387">class&#20108;&#36827;&#21046;&#23383;&#33410;&#27969;</text><rect fill="#F1F1F1" height="33.9688" rx="12.5" ry="12.5" style="stroke:#181818;stroke-width:0.5;" width="56" x="190" y="7"/><text fill="#000000" font-family="sans-serif" font-size="12" lengthAdjust="spacing" textLength="36" x="200" y="28.1387">&#31867;&#21152;&#36733;</text><rect fill="#F1F1F1" height="33.9688" rx="12.5" ry="12.5" style="stroke:#181818;stroke-width:0.5;" width="152" x="266" y="7"/><text fill="#000000" font-family="sans-serif" font-size="12" lengthAdjust="spacing" textLength="132" x="276" y="28.1387">&#20869;&#23384;&#20013;&#31867;&#23545;&#24212;&#30340;&#25968;&#25454;&#32467;&#26500;</text><ellipse cx="448" cy="23.99" fill="none" rx="10" ry="10" style="stroke:#222222;stroke-width:1.0;"/><ellipse cx="448.5" cy="24.49" fill="#222222" rx="6" ry="6" style="stroke:none;stroke-width:1.0;"/><!--link start to class??????--><g id="link_start_class&#20108;&#36827;&#21046;&#23383;&#33410;&#27969;"><path d="M26.42,23.99 C30.8,23.99 35.19,23.99 39.57,23.99 " fill="none" id="start-to-class&#20108;&#36827;&#21046;&#23383;&#33410;&#27969;" style="stroke:#181818;stroke-width:1.0;"/><polygon fill="#181818" points="44.54,23.99,35.54,19.99,39.54,23.99,35.54,27.99,44.54,23.99" style="stroke:#181818;stroke-width:1.0;"/></g><!--link class?????? to ???--><g id="link_class&#20108;&#36827;&#21046;&#23383;&#33410;&#27969;_&#31867;&#21152;&#36733;"><path d="M170.3,23.99 C174.85,23.99 179.39,23.99 183.93,23.99 " fill="none" id="class&#20108;&#36827;&#21046;&#23383;&#33410;&#27969;-to-&#31867;&#21152;&#36733;" style="stroke:#181818;stroke-width:1.0;"/><polygon fill="#181818" points="188.68,23.99,179.68,19.99,183.68,23.99,179.68,27.99,188.68,23.99" style="stroke:#181818;stroke-width:1.0;"/></g><!--link ??? to ???????????--><g id="link_&#31867;&#21152;&#36733;_&#20869;&#23384;&#20013;&#31867;&#23545;&#24212;&#30340;&#25968;&#25454;&#32467;&#26500;"><path d="M246.09,23.99 C250.66,23.99 255.23,23.99 259.79,23.99 " fill="none" id="&#31867;&#21152;&#36733;-to-&#20869;&#23384;&#20013;&#31867;&#23545;&#24212;&#30340;&#25968;&#25454;&#32467;&#26500;" style="stroke:#181818;stroke-width:1.0;"/><polygon fill="#181818" points="264.57,23.99,255.57,19.99,259.57,23.99,255.57,27.99,264.57,23.99" style="stroke:#181818;stroke-width:1.0;"/></g><!--link ??????????? to end--><g id="link_&#20869;&#23384;&#20013;&#31867;&#23545;&#24212;&#30340;&#25968;&#25454;&#32467;&#26500;_end"><path d="M418.19,23.99 C422.77,23.99 427.36,23.99 431.94,23.99 " fill="none" id="&#20869;&#23384;&#20013;&#31867;&#23545;&#24212;&#30340;&#25968;&#25454;&#32467;&#26500;-to-end" style="stroke:#181818;stroke-width:1.0;"/><polygon fill="#181818" points="436.75,23.99,427.75,19.99,431.75,23.99,427.75,27.99,436.75,23.99" style="stroke:#181818;stroke-width:1.0;"/></g><!--SRC=[qz3ILD0jqhLJICv9B2v-igldnVxPJpksFLqx_KLNqxEjZLnWoUSRTp_jMl1Yxru8zsbRwzErCvxiM0iINx_pwQufpsUrF9kwuLdlkkUx9p-Rrm9Hfg6b2G00]--></g></svg>