<?xml version="1.0" encoding="us-ascii" standalone="no"?><svg xmlns="http://www.w3.org/2000/svg" xmlns:xlink="http://www.w3.org/1999/xlink" contentStyleType="text/css" height="323px" preserveAspectRatio="none" style="width:633px;height:323px;background:#FFFFFF;" version="1.1" viewBox="0 0 633 323" width="633px" zoomAndPan="magnify"><defs/><g><ellipse cx="319" cy="20" fill="#222222" rx="10" ry="10" style="stroke:#222222;stroke-width:1.0;"/><rect fill="none" height="232.1094" style="stroke:#000000;stroke-width:1.5;" width="611" x="11" y="40.8018"/><path d="M617,40.8018 L617,50.0986 L607,60.0986 L11,60.0986 " fill="none" style="stroke:#000000;stroke-width:1.5;"/><text fill="#000000" font-family="sans-serif" font-size="14" lengthAdjust="spacing" textLength="596" x="14" y="54.7969">&#38144;&#27585;&#21069;&#22788;&#29702;&#65306;InitDestroyAnnotationBeanPostProcessor#postProcessBeforeDestruction</text><rect fill="#F1F1F1" height="47.9375" rx="12.5" ry="12.5" style="stroke:#181818;stroke-width:0.5;" width="424" x="107" y="77.0986"/><text fill="#000000" font-family="sans-serif" font-size="12" lengthAdjust="spacing" textLength="165" x="117" y="98.2373">&#26681;&#25454;Class&#33719;&#21462;&#29983;&#21629;&#21608;&#26399;&#20803;&#25968;&#25454;</text><text fill="#000000" font-family="sans-serif" font-size="12" lengthAdjust="spacing" textLength="404" x="117" y="112.2061">InitDestroyAnnotationBeanPostProcessor#findLifecycleMetadata</text><rect fill="#F1F1F1" height="47.9375" rx="12.5" ry="12.5" style="stroke:#181818;stroke-width:0.5;" width="306" x="166" y="145.0361"/><text fill="#000000" font-family="sans-serif" font-size="12" lengthAdjust="spacing" textLength="286" x="176" y="166.1748">&#35843;&#29992;&#29983;&#21629;&#21608;&#26399;&#20803;&#25968;&#25454;&#30340;invokeDestroyMethods&#26041;&#27861;</text><text fill="#000000" font-family="sans-serif" font-size="12" lengthAdjust="spacing" textLength="264" x="176" y="180.1436">LifecycleMetadata#invokeDestroyMethods</text><rect fill="#F1F1F1" height="47.9375" rx="12.5" ry="12.5" style="stroke:#181818;stroke-width:0.5;" width="502" x="68" y="212.9736"/><text fill="#000000" font-family="sans-serif" font-size="12" lengthAdjust="spacing" textLength="482" x="78" y="234.1123">&#25191;&#34892;&#29983;&#21629;&#21608;&#26399;&#20803;&#32032;&#30340;invoke&#26041;&#27861;&#65292;&#36890;&#36807;&#21453;&#23556;&#30340;&#26041;&#24335;&#25191;&#34892;&#26631;&#27880;@PreDestroy&#27880;&#35299;&#30340;&#38144;&#27585;&#26041;&#27861;</text><text fill="#000000" font-family="sans-serif" font-size="12" lengthAdjust="spacing" textLength="153" x="78" y="248.0811">LifecycleElement#invoke</text><ellipse cx="319" cy="302.9111" fill="none" rx="10" ry="10" style="stroke:#222222;stroke-width:1.5;"/><line style="stroke:#222222;stroke-width:2.5;" x1="312.8128" x2="325.1872" y1="296.7239" y2="309.0983"/><line style="stroke:#222222;stroke-width:2.5;" x1="325.1872" x2="312.8128" y1="296.7239" y2="309.0983"/><line style="stroke:#181818;stroke-width:1.0;" x1="319" x2="319" y1="125.0361" y2="145.0361"/><polygon fill="#181818" points="315,135.0361,319,145.0361,323,135.0361,319,139.0361" style="stroke:#181818;stroke-width:1.0;"/><line style="stroke:#181818;stroke-width:1.0;" x1="319" x2="319" y1="192.9736" y2="212.9736"/><polygon fill="#181818" points="315,202.9736,319,212.9736,323,202.9736,319,206.9736" style="stroke:#181818;stroke-width:1.0;"/><line style="stroke:#181818;stroke-width:1.0;" x1="319" x2="319" y1="30" y2="77.0986"/><polygon fill="#181818" points="315,67.0986,319,77.0986,323,67.0986,319,71.0986" style="stroke:#181818;stroke-width:1.0;"/><line style="stroke:#181818;stroke-width:1.0;" x1="319" x2="319" y1="260.9111" y2="292.9111"/><polygon fill="#181818" points="315,282.9111,319,292.9111,323,282.9111,319,286.9111" style="stroke:#181818;stroke-width:1.0;"/><!--SRC=[ZP71IiD048RlUOf2twAzQDM3e907w6L99XgCksLtA_JMqcWfDCP2saCG6b5eJXge88M8JxERzDHNwBQf2hO7Rpix___zmmpZY7BjWf9cexG8slAj8_gUU76pXxjb6fvYcny3uvIq3Z4c776Ru1eWh1F6TKeCO8pGSkEtge55A6myJMEjrYeocallzSX1ZENt7y8VPy5433_5C9QF4t7RbQD4zUluds6MZSqpsmAZPJXm3XoPYAEgLicJRXR4UzbPwDhuXbp15gzSbyHaSZoNir4Txz3A-zGgGlQd-TFWJqJs7ltm2-8o7IpQOVxL4xud4bTrrRz8_S8kevwSnGSw_UQhAfy-ArMn_vsfJXou1iotGrKrm6PfSx3rQmK0]--></g></svg>