<?xml version="1.0" encoding="us-ascii" standalone="no"?><svg xmlns="http://www.w3.org/2000/svg" xmlns:xlink="http://www.w3.org/1999/xlink" contentStyleType="text/css" height="415px" preserveAspectRatio="none" style="width:833px;height:415px;background:#FFFFFF;" version="1.1" viewBox="0 0 833 415" width="833px" zoomAndPan="magnify"><defs/><g><text fill="#000000" font-family="sans-serif" font-size="14" font-weight="bold" lengthAdjust="spacing" textLength="251" x="284" y="22.9951">Java Collections Framework-List</text><!--class Iterable--><g id="elem_Iterable"><rect codeLine="2" fill="#F1F1F1" height="48" id="Iterable" rx="2.5" ry="2.5" style="stroke:#181818;stroke-width:0.5;" width="83" x="231.5" y="44.2969"/><ellipse cx="246.5" cy="60.2969" fill="#B4A7E5" rx="11" ry="11" style="stroke:#181818;stroke-width:1.0;"/><path d="M242.4219,56.0625 L242.4219,53.9063 L249.8125,53.9063 L249.8125,56.0625 L247.3438,56.0625 L247.3438,64.1406 L249.8125,64.1406 L249.8125,66.2969 L242.4219,66.2969 L242.4219,64.1406 L244.8906,64.1406 L244.8906,56.0625 L242.4219,56.0625 Z " fill="#000000"/><text fill="#000000" font-family="sans-serif" font-size="14" font-style="italic" lengthAdjust="spacing" textLength="51" x="260.5" y="65.1436">Iterable</text><line style="stroke:#181818;stroke-width:0.5;" x1="232.5" x2="313.5" y1="76.2969" y2="76.2969"/><line style="stroke:#181818;stroke-width:0.5;" x1="232.5" x2="313.5" y1="84.2969" y2="84.2969"/></g><!--class Collection--><g id="elem_Collection"><rect codeLine="3" fill="#F1F1F1" height="48" id="Collection" rx="2.5" ry="2.5" style="stroke:#181818;stroke-width:0.5;" width="100" x="350" y="44.2969"/><ellipse cx="365" cy="60.2969" fill="#B4A7E5" rx="11" ry="11" style="stroke:#181818;stroke-width:1.0;"/><path d="M360.9219,56.0625 L360.9219,53.9063 L368.3125,53.9063 L368.3125,56.0625 L365.8438,56.0625 L365.8438,64.1406 L368.3125,64.1406 L368.3125,66.2969 L360.9219,66.2969 L360.9219,64.1406 L363.3906,64.1406 L363.3906,56.0625 L360.9219,56.0625 Z " fill="#000000"/><text fill="#000000" font-family="sans-serif" font-size="14" font-style="italic" lengthAdjust="spacing" textLength="68" x="379" y="65.1436">Collection</text><line style="stroke:#181818;stroke-width:0.5;" x1="351" x2="449" y1="76.2969" y2="76.2969"/><line style="stroke:#181818;stroke-width:0.5;" x1="351" x2="449" y1="84.2969" y2="84.2969"/></g><!--class List--><g id="elem_List"><rect codeLine="4" fill="#F1F1F1" height="48" id="List" rx="2.5" ry="2.5" style="stroke:#181818;stroke-width:0.5;" width="55" x="372.5" y="152.2969"/><ellipse cx="387.5" cy="168.2969" fill="#B4A7E5" rx="11" ry="11" style="stroke:#181818;stroke-width:1.0;"/><path d="M383.4219,164.0625 L383.4219,161.9063 L390.8125,161.9063 L390.8125,164.0625 L388.3438,164.0625 L388.3438,172.1406 L390.8125,172.1406 L390.8125,174.2969 L383.4219,174.2969 L383.4219,172.1406 L385.8906,172.1406 L385.8906,164.0625 L383.4219,164.0625 Z " fill="#000000"/><text fill="#000000" font-family="sans-serif" font-size="14" font-style="italic" lengthAdjust="spacing" textLength="23" x="401.5" y="173.1436">List</text><line style="stroke:#181818;stroke-width:0.5;" x1="373.5" x2="426.5" y1="184.2969" y2="184.2969"/><line style="stroke:#181818;stroke-width:0.5;" x1="373.5" x2="426.5" y1="192.2969" y2="192.2969"/></g><!--class ArrayList--><g id="elem_ArrayList"><rect codeLine="5" fill="#F1F1F1" height="48" id="ArrayList" rx="2.5" ry="2.5" style="stroke:#181818;stroke-width:0.5;" width="89" x="93.5" y="260.2969"/><ellipse cx="108.5" cy="276.2969" fill="#ADD1B2" rx="11" ry="11" style="stroke:#181818;stroke-width:1.0;"/><path d="M111.4688,281.9375 Q110.8906,282.2344 110.25,282.375 Q109.6094,282.5313 108.9063,282.5313 Q106.4063,282.5313 105.0781,280.8906 Q103.7656,279.2344 103.7656,276.1094 Q103.7656,272.9844 105.0781,271.3281 Q106.4063,269.6719 108.9063,269.6719 Q109.6094,269.6719 110.25,269.8281 Q110.9063,269.9844 111.4688,270.2813 L111.4688,273 Q110.8438,272.4219 110.25,272.1563 Q109.6563,271.875 109.0313,271.875 Q107.6875,271.875 107,272.9531 Q106.3125,274.0156 106.3125,276.1094 Q106.3125,278.2031 107,279.2813 Q107.6875,280.3438 109.0313,280.3438 Q109.6563,280.3438 110.25,280.0781 Q110.8438,279.7969 111.4688,279.2188 L111.4688,281.9375 Z " fill="#000000"/><text fill="#000000" font-family="sans-serif" font-size="14" lengthAdjust="spacing" textLength="57" x="122.5" y="281.1436">ArrayList</text><line style="stroke:#181818;stroke-width:0.5;" x1="94.5" x2="181.5" y1="292.2969" y2="292.2969"/><line style="stroke:#181818;stroke-width:0.5;" x1="94.5" x2="181.5" y1="300.2969" y2="300.2969"/></g><!--class LinkedList--><g id="elem_LinkedList"><rect codeLine="6" fill="#F1F1F1" height="48" id="LinkedList" rx="2.5" ry="2.5" style="stroke:#181818;stroke-width:0.5;" width="100" x="256" y="260.2969"/><ellipse cx="271" cy="276.2969" fill="#ADD1B2" rx="11" ry="11" style="stroke:#181818;stroke-width:1.0;"/><path d="M273.9688,281.9375 Q273.3906,282.2344 272.75,282.375 Q272.1094,282.5313 271.4063,282.5313 Q268.9063,282.5313 267.5781,280.8906 Q266.2656,279.2344 266.2656,276.1094 Q266.2656,272.9844 267.5781,271.3281 Q268.9063,269.6719 271.4063,269.6719 Q272.1094,269.6719 272.75,269.8281 Q273.4063,269.9844 273.9688,270.2813 L273.9688,273 Q273.3438,272.4219 272.75,272.1563 Q272.1563,271.875 271.5313,271.875 Q270.1875,271.875 269.5,272.9531 Q268.8125,274.0156 268.8125,276.1094 Q268.8125,278.2031 269.5,279.2813 Q270.1875,280.3438 271.5313,280.3438 Q272.1563,280.3438 272.75,280.0781 Q273.3438,279.7969 273.9688,279.2188 L273.9688,281.9375 Z " fill="#000000"/><text fill="#000000" font-family="sans-serif" font-size="14" lengthAdjust="spacing" textLength="68" x="285" y="281.1436">LinkedList</text><line style="stroke:#181818;stroke-width:0.5;" x1="257" x2="355" y1="292.2969" y2="292.2969"/><line style="stroke:#181818;stroke-width:0.5;" x1="257" x2="355" y1="300.2969" y2="300.2969"/></g><!--class CopyOnWriteArrayList--><g id="elem_CopyOnWriteArrayList"><rect codeLine="7" fill="#F1F1F1" height="48" id="CopyOnWriteArrayList" rx="2.5" ry="2.5" style="stroke:#181818;stroke-width:0.5;" width="179" x="405.5" y="260.2969"/><ellipse cx="420.5" cy="276.2969" fill="#ADD1B2" rx="11" ry="11" style="stroke:#181818;stroke-width:1.0;"/><path d="M423.4688,281.9375 Q422.8906,282.2344 422.25,282.375 Q421.6094,282.5313 420.9063,282.5313 Q418.4063,282.5313 417.0781,280.8906 Q415.7656,279.2344 415.7656,276.1094 Q415.7656,272.9844 417.0781,271.3281 Q418.4063,269.6719 420.9063,269.6719 Q421.6094,269.6719 422.25,269.8281 Q422.9063,269.9844 423.4688,270.2813 L423.4688,273 Q422.8438,272.4219 422.25,272.1563 Q421.6563,271.875 421.0313,271.875 Q419.6875,271.875 419,272.9531 Q418.3125,274.0156 418.3125,276.1094 Q418.3125,278.2031 419,279.2813 Q419.6875,280.3438 421.0313,280.3438 Q421.6563,280.3438 422.25,280.0781 Q422.8438,279.7969 423.4688,279.2188 L423.4688,281.9375 Z " fill="#000000"/><text fill="#000000" font-family="sans-serif" font-size="14" lengthAdjust="spacing" textLength="147" x="434.5" y="281.1436">CopyOnWriteArrayList</text><line style="stroke:#181818;stroke-width:0.5;" x1="406.5" x2="583.5" y1="292.2969" y2="292.2969"/><line style="stroke:#181818;stroke-width:0.5;" x1="406.5" x2="583.5" y1="300.2969" y2="300.2969"/></g><!--class Vector--><g id="elem_Vector"><rect codeLine="8" fill="#F1F1F1" height="48" id="Vector" rx="2.5" ry="2.5" style="stroke:#181818;stroke-width:0.5;" width="77" x="550.5" y="152.2969"/><ellipse cx="565.5" cy="168.2969" fill="#ADD1B2" rx="11" ry="11" style="stroke:#181818;stroke-width:1.0;"/><path d="M568.4688,173.9375 Q567.8906,174.2344 567.25,174.375 Q566.6094,174.5313 565.9063,174.5313 Q563.4063,174.5313 562.0781,172.8906 Q560.7656,171.2344 560.7656,168.1094 Q560.7656,164.9844 562.0781,163.3281 Q563.4063,161.6719 565.9063,161.6719 Q566.6094,161.6719 567.25,161.8281 Q567.9063,161.9844 568.4688,162.2813 L568.4688,165 Q567.8438,164.4219 567.25,164.1563 Q566.6563,163.875 566.0313,163.875 Q564.6875,163.875 564,164.9531 Q563.3125,166.0156 563.3125,168.1094 Q563.3125,170.2031 564,171.2813 Q564.6875,172.3438 566.0313,172.3438 Q566.6563,172.3438 567.25,172.0781 Q567.8438,171.7969 568.4688,171.2188 L568.4688,173.9375 Z " fill="#000000"/><text fill="#000000" font-family="sans-serif" font-size="14" lengthAdjust="spacing" textLength="45" x="579.5" y="173.1436">Vector</text><line style="stroke:#181818;stroke-width:0.5;" x1="551.5" x2="626.5" y1="184.2969" y2="184.2969"/><line style="stroke:#181818;stroke-width:0.5;" x1="551.5" x2="626.5" y1="192.2969" y2="192.2969"/></g><!--class Stack--><g id="elem_Stack"><rect codeLine="9" fill="#F1F1F1" height="48" id="Stack" rx="2.5" ry="2.5" style="stroke:#181818;stroke-width:0.5;" width="70" x="643" y="260.2969"/><ellipse cx="658" cy="276.2969" fill="#ADD1B2" rx="11" ry="11" style="stroke:#181818;stroke-width:1.0;"/><path d="M660.9688,281.9375 Q660.3906,282.2344 659.75,282.375 Q659.1094,282.5313 658.4063,282.5313 Q655.9063,282.5313 654.5781,280.8906 Q653.2656,279.2344 653.2656,276.1094 Q653.2656,272.9844 654.5781,271.3281 Q655.9063,269.6719 658.4063,269.6719 Q659.1094,269.6719 659.75,269.8281 Q660.4063,269.9844 660.9688,270.2813 L660.9688,273 Q660.3438,272.4219 659.75,272.1563 Q659.1563,271.875 658.5313,271.875 Q657.1875,271.875 656.5,272.9531 Q655.8125,274.0156 655.8125,276.1094 Q655.8125,278.2031 656.5,279.2813 Q657.1875,280.3438 658.5313,280.3438 Q659.1563,280.3438 659.75,280.0781 Q660.3438,279.7969 660.9688,279.2188 L660.9688,281.9375 Z " fill="#000000"/><text fill="#000000" font-family="sans-serif" font-size="14" lengthAdjust="spacing" textLength="38" x="672" y="281.1436">Stack</text><line style="stroke:#181818;stroke-width:0.5;" x1="644" x2="712" y1="292.2969" y2="292.2969"/><line style="stroke:#181818;stroke-width:0.5;" x1="644" x2="712" y1="300.2969" y2="300.2969"/></g><g id="elem_GMN24"><path d="M6,368.2969 L6,408.5625 A0,0 0 0 0 6,408.5625 L178,408.5625 A0,0 0 0 0 178,408.5625 L178,378.2969 L168,368.2969 L104.8,368.2969 L127.45,308.7369 L96.8,368.2969 L6,368.2969 A0,0 0 0 0 6,368.2969 " fill="#FEFFDD" style="stroke:#181818;stroke-width:0.5;"/><path d="M168,368.2969 L168,378.2969 L178,378.2969 L168,368.2969 " fill="#FEFFDD" style="stroke:#181818;stroke-width:0.5;"/><text fill="#000000" font-family="sans-serif" font-size="13" lengthAdjust="spacing" textLength="143" x="12" y="385.3638">&#22522;&#20110;&#21160;&#24577;&#25968;&#32452;&#65292;&#33258;&#21160;&#25193;&#23481;</text><text fill="#000000" font-family="sans-serif" font-size="13" lengthAdjust="spacing" textLength="151" x="12" y="400.4966">&#32447;&#31243;&#19981;&#23433;&#20840;&#30340;&#65288;fast-fail&#65289;</text></g><g id="elem_GMN27"><path d="M213,368.2969 L213,408.5625 A0,0 0 0 0 213,408.5625 L385,408.5625 A0,0 0 0 0 385,408.5625 L385,378.2969 L375,368.2969 L304.34,368.2969 L304.39,308.7369 L296.34,368.2969 L213,368.2969 A0,0 0 0 0 213,368.2969 " fill="#FEFFDD" style="stroke:#181818;stroke-width:0.5;"/><path d="M375,368.2969 L375,378.2969 L385,378.2969 L375,368.2969 " fill="#FEFFDD" style="stroke:#181818;stroke-width:0.5;"/><text fill="#000000" font-family="sans-serif" font-size="13" lengthAdjust="spacing" textLength="78" x="219" y="385.3638">&#22522;&#20110;&#21452;&#21521;&#38142;&#34920;</text><text fill="#000000" font-family="sans-serif" font-size="13" lengthAdjust="spacing" textLength="151" x="219" y="400.4966">&#32447;&#31243;&#19981;&#23433;&#20840;&#30340;&#65288;fast-fail&#65289;</text></g><g id="elem_GMN30"><path d="M662,156.1669 L662,172.2969 L627.75,176.2969 L662,180.2969 L662,196.4325 A0,0 0 0 0 662,196.4325 L826,196.4325 A0,0 0 0 0 826,196.4325 L826,166.1669 L816,156.1669 L662,156.1669 A0,0 0 0 0 662,156.1669 " fill="#FEFFDD" style="stroke:#181818;stroke-width:0.5;"/><path d="M816,156.1669 L816,166.1669 L826,166.1669 L816,156.1669 " fill="#FEFFDD" style="stroke:#181818;stroke-width:0.5;"/><text fill="#000000" font-family="sans-serif" font-size="13" lengthAdjust="spacing" textLength="143" x="668" y="173.2338">&#22522;&#20110;&#21160;&#24577;&#25968;&#32452;&#65292;&#33258;&#21160;&#25193;&#23481;</text><text fill="#000000" font-family="sans-serif" font-size="13" lengthAdjust="spacing" textLength="130" x="668" y="188.3666">&#32447;&#31243;&#23433;&#20840;&#30340;&#65288;&#20869;&#32622;&#38145;&#65289;</text></g><g id="elem_GMN33"><path d="M420,375.8669 L420,400.9997 A0,0 0 0 0 420,400.9997 L584,400.9997 A0,0 0 0 0 584,400.9997 L584,385.8669 L574,375.8669 L505.18,375.8669 L496.61,308.7369 L497.18,375.8669 L420,375.8669 A0,0 0 0 0 420,375.8669 " fill="#FEFFDD" style="stroke:#181818;stroke-width:0.5;"/><path d="M574,375.8669 L574,385.8669 L584,385.8669 L574,375.8669 " fill="#FEFFDD" style="stroke:#181818;stroke-width:0.5;"/><text fill="#000000" font-family="sans-serif" font-size="13" lengthAdjust="spacing" textLength="143" x="426" y="392.9338">&#32447;&#31243;&#23433;&#20840;&#30340;&#65288;&#20889;&#26102;&#22797;&#21046;&#65289;</text></g><g id="elem_GMN36"><path d="M619.5,368.2969 L619.5,408.5625 A0,0 0 0 0 619.5,408.5625 L770.5,408.5625 A0,0 0 0 0 770.5,408.5625 L770.5,378.2969 L760.5,368.2969 L695.75,368.2969 L681.9,308.7369 L687.75,368.2969 L619.5,368.2969 A0,0 0 0 0 619.5,368.2969 " fill="#FEFFDD" style="stroke:#181818;stroke-width:0.5;"/><path d="M760.5,368.2969 L760.5,378.2969 L770.5,378.2969 L760.5,368.2969 " fill="#FEFFDD" style="stroke:#181818;stroke-width:0.5;"/><text fill="#000000" font-family="sans-serif" font-size="13" lengthAdjust="spacing" textLength="68" x="625.5" y="385.3638">&#32487;&#25215;Vector</text><text fill="#000000" font-family="sans-serif" font-size="13" lengthAdjust="spacing" textLength="130" x="625.5" y="400.4966">&#32447;&#31243;&#23433;&#20840;&#30340;&#65288;&#20869;&#32622;&#38145;&#65289;</text></g><!--reverse link Iterable to Collection--><g id="link_Iterable_Collection"><path codeLine="11" d="M335.45,68.2969 C340.19,68.2969 344.93,68.2969 349.67,68.2969 " fill="none" id="Iterable-backto-Collection" style="stroke:#181818;stroke-width:1.0;"/><polygon fill="none" points="335.67,75.2969,315.67,68.2969,335.67,61.2969,335.67,75.2969" style="stroke:#181818;stroke-width:1.0;"/></g><!--reverse link Collection to List--><g id="link_Collection_List"><path codeLine="12" d="M400,113.5369 C400,126.7869 400,140.7769 400,152.0969 " fill="none" id="Collection-backto-List" style="stroke:#181818;stroke-width:1.0;"/><polygon fill="none" points="393,113.5669,400,93.5669,407,113.5669,393,113.5669" style="stroke:#181818;stroke-width:1.0;"/></g><!--reverse link List to ArrayList--><g id="link_List_ArrayList"><path codeLine="13" d="M353.23,196.2269 C304.91,215.7769 230.05,246.0569 182.57,265.2669 " fill="none" id="List-backto-ArrayList" style="stroke:#181818;stroke-width:1.0;stroke-dasharray:7.0,7.0;"/><polygon fill="none" points="350.29,189.4569,371.46,188.4469,355.54,202.4369,350.29,189.4569" style="stroke:#181818;stroke-width:1.0;"/></g><!--reverse link List to LinkedList--><g id="link_List_LinkedList"><path codeLine="14" d="M365.45,216.2569 C352.4,230.9769 337.96,247.2669 326.58,260.0969 " fill="none" id="List-backto-LinkedList" style="stroke:#181818;stroke-width:1.0;stroke-dasharray:7.0,7.0;"/><polygon fill="none" points="359.86,211.8869,378.37,201.5669,370.34,221.1669,359.86,211.8869" style="stroke:#181818;stroke-width:1.0;"/></g><!--reverse link List to CopyOnWriteArrayList--><g id="link_List_CopyOnWriteArrayList"><path codeLine="15" d="M434.49,215.7869 C447.79,230.6269 462.58,247.1269 474.2,260.0969 " fill="none" id="List-backto-CopyOnWriteArrayList" style="stroke:#181818;stroke-width:1.0;stroke-dasharray:7.0,7.0;"/><polygon fill="none" points="429.98,221.1269,421.85,201.5669,440.41,211.7869,429.98,221.1269" style="stroke:#181818;stroke-width:1.0;"/></g><!--reverse link List to Vector--><g id="link_List_Vector"><path codeLine="16" d="M448.27,176.2969 C482.26,176.2969 516.26,176.2969 550.25,176.2969 " fill="none" id="List-backto-Vector" style="stroke:#181818;stroke-width:1.0;stroke-dasharray:7.0,7.0;"/><polygon fill="none" points="448.69,183.2969,428.69,176.2969,448.69,169.2969,448.69,183.2969" style="stroke:#181818;stroke-width:1.0;"/></g><!--reverse link Vector to Stack--><g id="link_Vector_Stack"><path codeLine="17" d="M621.71,216.2569 C634.07,230.9769 647.74,247.2669 658.51,260.0969 " fill="none" id="Vector-backto-Stack" style="stroke:#181818;stroke-width:1.0;"/><polygon fill="none" points="616.03,221.3769,608.53,201.5669,626.75,212.3769,616.03,221.3769" style="stroke:#181818;stroke-width:1.0;"/></g><!--SRC=[bP3FIiD048VlUOfvWVG1UX2a82W53u9Ul6pZHfTkixBPAWKF5gmssle75T6B28BHG_5KjAtsPRf9U-ehc3GXMKf0lUt-PkURRrOGGJ6ie3q41KOfDWHXbWrB75NmFkDblKXieH5BO6uY0yDoS40bYfKexLF2MPj1aMt38kUefjoBn2hZBIKeiDtQghN1YS3pRzS3CEFnPKqWewnfwJpGgNwma3g5ZQ1NmqoHIfYGg-Q2qWoVIgXfbebQZtGWHvDavXJFZ6KrYmaC9IO4gm0pq_qX3_AnD-gTorFNEwnxj-z-_sWwQ8rFtiB4UPMTpqtBxmrzzspqqPOTHpPS_o5uqZIHBNGJ4JeTEFDyPPLam4LBNbvDhh_7J-wVYPnixuWG66_v3riLB8yR_bTdSbFFKCtytpnaGUwzkwvyRijcDuCJ_NhGs7_nd67a-vlB3m00]--></g></svg>