<?xml version="1.0" encoding="us-ascii" standalone="no"?><svg xmlns="http://www.w3.org/2000/svg" xmlns:xlink="http://www.w3.org/1999/xlink" contentStyleType="text/css" height="224px" preserveAspectRatio="none" style="width:601px;height:224px;background:#FFFFFF;" version="1.1" viewBox="0 0 601 224" width="601px" zoomAndPan="magnify"><defs/><g><!--class BeanDefinition--><g id="elem_BeanDefinition"><rect codeLine="1" fill="#F1F1F1" height="48" id="BeanDefinition" rx="2.5" ry="2.5" style="stroke:#181818;stroke-width:0.5;" width="133" x="7" y="88.49"/><ellipse cx="22" cy="104.49" fill="#B4A7E5" rx="11" ry="11" style="stroke:#181818;stroke-width:1.0;"/><path d="M17.9219,100.2556 L17.9219,98.0994 L25.3125,98.0994 L25.3125,100.2556 L22.8438,100.2556 L22.8438,108.3338 L25.3125,108.3338 L25.3125,110.49 L17.9219,110.49 L17.9219,108.3338 L20.3906,108.3338 L20.3906,100.2556 L17.9219,100.2556 Z " fill="#000000"/><text fill="#000000" font-family="sans-serif" font-size="14" font-style="italic" lengthAdjust="spacing" textLength="101" x="36" y="109.3367">BeanDefinition</text><line style="stroke:#181818;stroke-width:0.5;" x1="8" x2="139" y1="120.49" y2="120.49"/><line style="stroke:#181818;stroke-width:0.5;" x1="8" x2="139" y1="128.49" y2="128.49"/></g><!--class AbstractBeanDefinition--><g id="elem_AbstractBeanDefinition"><rect codeLine="2" fill="#F1F1F1" height="210.9688" id="AbstractBeanDefinition" rx="2.5" ry="2.5" style="stroke:#181818;stroke-width:0.5;" width="420" x="174.5" y="7"/><ellipse cx="301.25" cy="23" fill="#A9DCDF" rx="11" ry="11" style="stroke:#181818;stroke-width:1.0;"/><path d="M301.3594,18.3438 L300.2031,23.4219 L302.5313,23.4219 L301.3594,18.3438 Z M299.875,16.1094 L302.8594,16.1094 L306.2188,28.5 L303.7656,28.5 L303,25.4375 L299.7188,25.4375 L298.9688,28.5 L296.5313,28.5 L299.875,16.1094 Z " fill="#000000"/><text fill="#000000" font-family="sans-serif" font-size="14" font-style="italic" lengthAdjust="spacing" textLength="158" x="321.75" y="27.8467">AbstractBeanDefinition</text><line style="stroke:#181818;stroke-width:0.5;" x1="175.5" x2="593.5" y1="39" y2="39"/><rect fill="none" height="6" style="stroke:#C82930;stroke-width:1.0;" width="6" x="182.5" y="49.6484"/><text fill="#000000" font-family="sans-serif" font-size="14" lengthAdjust="spacing" textLength="121" x="194.5" y="55.9951">Object beanClass</text><rect fill="none" height="6" style="stroke:#C82930;stroke-width:1.0;" width="6" x="182.5" y="65.9453"/><text fill="#000000" font-family="sans-serif" font-size="14" lengthAdjust="spacing" textLength="394" x="194.5" y="72.292">ConstructorArgumentValues constructorArgumentValues</text><rect fill="none" height="6" style="stroke:#C82930;stroke-width:1.0;" width="6" x="182.5" y="82.2422"/><text fill="#000000" font-family="sans-serif" font-size="14" lengthAdjust="spacing" textLength="267" x="194.5" y="88.5889">MutablePropertyValues propertyValues</text><rect fill="none" height="6" style="stroke:#C82930;stroke-width:1.0;" width="6" x="182.5" y="98.5391"/><text fill="#000000" font-family="sans-serif" font-size="14" lengthAdjust="spacing" textLength="175" x="194.5" y="104.8857">String[] initMethodNames</text><rect fill="none" height="6" style="stroke:#C82930;stroke-width:1.0;" width="6" x="182.5" y="114.8359"/><text fill="#000000" font-family="sans-serif" font-size="14" lengthAdjust="spacing" textLength="207" x="194.5" y="121.1826">String[] destroyMethodNames</text><rect fill="none" height="6" style="stroke:#C82930;stroke-width:1.0;" width="6" x="182.5" y="131.1328"/><text fill="#000000" font-family="sans-serif" font-size="14" lengthAdjust="spacing" textLength="87" x="194.5" y="137.4795">String scope</text><rect fill="none" height="6" style="stroke:#C82930;stroke-width:1.0;" width="6" x="182.5" y="147.4297"/><text fill="#000000" font-family="sans-serif" font-size="14" lengthAdjust="spacing" textLength="107" x="194.5" y="153.7764">Boolean lazyInit</text><rect fill="none" height="6" style="stroke:#C82930;stroke-width:1.0;" width="6" x="182.5" y="163.7266"/><text fill="#000000" font-family="sans-serif" font-size="14" lengthAdjust="spacing" textLength="136" x="194.5" y="170.0732">String[] dependsOn</text><rect fill="none" height="6" style="stroke:#C82930;stroke-width:1.0;" width="6" x="182.5" y="180.0234"/><text fill="#000000" font-family="sans-serif" font-size="14" lengthAdjust="spacing" textLength="110" x="194.5" y="186.3701">boolean primary</text><rect fill="none" height="6" style="stroke:#C82930;stroke-width:1.0;" width="6" x="182.5" y="196.3203"/><text fill="#000000" font-family="sans-serif" font-size="14" lengthAdjust="spacing" textLength="243" x="194.5" y="202.667">MethodOverrides methodOverrides</text><line style="stroke:#181818;stroke-width:0.5;" x1="175.5" x2="593.5" y1="209.9688" y2="209.9688"/></g><!--reverse link BeanDefinition to AbstractBeanDefinition--><g id="link_BeanDefinition_AbstractBeanDefinition"><path codeLine="14" d="M161.22,112.49 C165.54,112.49 169.86,112.49 174.18,112.49 " fill="none" id="BeanDefinition-backto-AbstractBeanDefinition" style="stroke:#181818;stroke-width:1.0;stroke-dasharray:7.0,7.0;"/><polygon fill="none" points="161.32,119.49,141.32,112.49,161.32,105.49,161.32,119.49" style="stroke:#181818;stroke-width:1.0;"/></g><!--SRC=[TL1Bhi8m35o_di8NW2CWKTYmuFL9I6mG2oSrlA3KgHmNgNpkJeAwQGNByNmy6iTASa9BK1BocawEdRh01PgeWbR1UemHbWCSg-1U_CoWCXTAGfEeLHRdsofmCdHMWopbt3N4kaVVKGJxZScsRQTeFFr9Q4cq7opj26RTJiNn-N24N6HB-X_gNsmcN4tfKUW_qX1joiou3C6dvk3nrczIsYIY9QvZnVbg1cKhha7ftttVsTMLH5nw1yqO5y_Yot1pFtyi9fk_0000]--></g></svg>