<?xml version="1.0" encoding="us-ascii" standalone="no"?><svg xmlns="http://www.w3.org/2000/svg" xmlns:xlink="http://www.w3.org/1999/xlink" contentStyleType="text/css" height="305px" preserveAspectRatio="none" style="width:243px;height:305px;background:#FFFFFF;" version="1.1" viewBox="0 0 243 305" width="243px" zoomAndPan="magnify"><defs/><g><text fill="#000000" font-family="sans-serif" font-size="14" font-weight="bold" lengthAdjust="spacing" textLength="71" x="79.25" y="22.9951">ArrayList</text><!--class List--><g id="elem_List"><rect codeLine="2" fill="#F1F1F1" height="48" id="List" rx="2.5" ry="2.5" style="stroke:#181818;stroke-width:0.5;" width="55" x="181.5" y="44.2969"/><ellipse cx="196.5" cy="60.2969" fill="#B4A7E5" rx="11" ry="11" style="stroke:#181818;stroke-width:1.0;"/><path d="M192.4219,56.0625 L192.4219,53.9063 L199.8125,53.9063 L199.8125,56.0625 L197.3438,56.0625 L197.3438,64.1406 L199.8125,64.1406 L199.8125,66.2969 L192.4219,66.2969 L192.4219,64.1406 L194.8906,64.1406 L194.8906,56.0625 L192.4219,56.0625 Z " fill="#000000"/><text fill="#000000" font-family="sans-serif" font-size="14" font-style="italic" lengthAdjust="spacing" textLength="23" x="210.5" y="65.1436">List</text><line style="stroke:#181818;stroke-width:0.5;" x1="182.5" x2="235.5" y1="76.2969" y2="76.2969"/><line style="stroke:#181818;stroke-width:0.5;" x1="182.5" x2="235.5" y1="84.2969" y2="84.2969"/></g><!--class RandomAccess--><g id="elem_RandomAccess"><rect codeLine="3" fill="#F1F1F1" height="48" id="RandomAccess" rx="2.5" ry="2.5" style="stroke:#181818;stroke-width:0.5;" width="140" x="7" y="44.2969"/><ellipse cx="22" cy="60.2969" fill="#B4A7E5" rx="11" ry="11" style="stroke:#181818;stroke-width:1.0;"/><path d="M17.9219,56.0625 L17.9219,53.9063 L25.3125,53.9063 L25.3125,56.0625 L22.8438,56.0625 L22.8438,64.1406 L25.3125,64.1406 L25.3125,66.2969 L17.9219,66.2969 L17.9219,64.1406 L20.3906,64.1406 L20.3906,56.0625 L17.9219,56.0625 Z " fill="#000000"/><text fill="#000000" font-family="sans-serif" font-size="14" font-style="italic" lengthAdjust="spacing" textLength="108" x="36" y="65.1436">RandomAccess</text><line style="stroke:#181818;stroke-width:0.5;" x1="8" x2="146" y1="76.2969" y2="76.2969"/><line style="stroke:#181818;stroke-width:0.5;" x1="8" x2="146" y1="84.2969" y2="84.2969"/></g><!--class ArrayList--><g id="elem_ArrayList"><rect codeLine="4" fill="#F1F1F1" height="145.7813" id="ArrayList" rx="2.5" ry="2.5" style="stroke:#181818;stroke-width:0.5;" width="174" x="56" y="152.2969"/><ellipse cx="110.25" cy="168.2969" fill="#ADD1B2" rx="11" ry="11" style="stroke:#181818;stroke-width:1.0;"/><path d="M113.2188,173.9375 Q112.6406,174.2344 112,174.375 Q111.3594,174.5313 110.6563,174.5313 Q108.1563,174.5313 106.8281,172.8906 Q105.5156,171.2344 105.5156,168.1094 Q105.5156,164.9844 106.8281,163.3281 Q108.1563,161.6719 110.6563,161.6719 Q111.3594,161.6719 112,161.8281 Q112.6563,161.9844 113.2188,162.2813 L113.2188,165 Q112.5938,164.4219 112,164.1563 Q111.4063,163.875 110.7813,163.875 Q109.4375,163.875 108.75,164.9531 Q108.0625,166.0156 108.0625,168.1094 Q108.0625,170.2031 108.75,171.2813 Q109.4375,172.3438 110.7813,172.3438 Q111.4063,172.3438 112,172.0781 Q112.5938,171.7969 113.2188,171.2188 L113.2188,173.9375 Z " fill="#000000"/><text fill="#000000" font-family="sans-serif" font-size="14" lengthAdjust="spacing" textLength="57" x="130.75" y="173.1436">ArrayList</text><line style="stroke:#181818;stroke-width:0.5;" x1="57" x2="229" y1="184.2969" y2="184.2969"/><polygon fill="none" points="67,193.9453,63,199.9453,71,199.9453" style="stroke:#1963A0;stroke-width:1.0;"/><text fill="#000000" font-family="sans-serif" font-size="14" lengthAdjust="spacing" textLength="148" x="76" y="201.292">Object[] elementData</text><rect fill="none" height="6" style="stroke:#C82930;stroke-width:1.0;" width="6" x="64" y="211.2422"/><text fill="#000000" font-family="sans-serif" font-size="14" lengthAdjust="spacing" textLength="49" x="76" y="217.5889">int size</text><polygon fill="none" points="67,225.5391,71,229.5391,67,233.5391,63,229.5391" style="stroke:#B38D22;stroke-width:1.0;"/><text fill="#000000" font-family="sans-serif" font-size="14" lengthAdjust="spacing" textLength="94" x="76" y="233.8857">int modCount</text><line style="stroke:#181818;stroke-width:0.5;" x1="57" x2="229" y1="241.1875" y2="241.1875"/><ellipse cx="67" cy="254.8359" fill="#84BE84" rx="3" ry="3" style="stroke:#038048;stroke-width:1.0;"/><text fill="#000000" font-family="sans-serif" font-size="14" lengthAdjust="spacing" textLength="105" x="76" y="258.1826">add(E) boolean</text><ellipse cx="67" cy="271.1328" fill="#84BE84" rx="3" ry="3" style="stroke:#038048;stroke-width:1.0;"/><text fill="#000000" font-family="sans-serif" font-size="14" lengthAdjust="spacing" textLength="63" x="76" y="274.4795">get(int) E</text><ellipse cx="67" cy="287.4297" fill="#84BE84" rx="3" ry="3" style="stroke:#038048;stroke-width:1.0;"/><text fill="#000000" font-family="sans-serif" font-size="14" lengthAdjust="spacing" textLength="145" x="76" y="290.7764">iterator() Iterator&lt;E&gt;</text></g><!--reverse link List to ArrayList--><g id="link_List_ArrayList"><path codeLine="12" d="M190.91,111.7569 C185.58,124.2569 179.59,138.3069 173.71,152.1169 " fill="none" id="List-backto-ArrayList" style="stroke:#181818;stroke-width:1.0;stroke-dasharray:7.0,7.0;"/><polygon fill="none" points="184.84,109.1369,199.12,93.4869,197.72,114.6269,184.84,109.1369" style="stroke:#181818;stroke-width:1.0;"/></g><!--reverse link RandomAccess to ArrayList--><g id="link_RandomAccess_ArrayList"><path codeLine="13" d="M95.09,111.7569 C100.42,124.2569 106.41,138.3069 112.29,152.1169 " fill="none" id="RandomAccess-backto-ArrayList" style="stroke:#181818;stroke-width:1.0;stroke-dasharray:7.0,7.0;"/><polygon fill="none" points="88.28,114.6269,86.88,93.4869,101.16,109.1369,88.28,114.6269" style="stroke:#181818;stroke-width:1.0;"/></g><!--SRC=[NKxB2i8m43ndlsB1IulOBv12qHu4GV0g7hR9Af4qWMHxyFdjjYfKUfiPvYLM76CL8rstDWbOBnnFf1adT4_UXBRIcbC2xIYbCOLtK2_SDHVMSZWYEsxPovg4G2smxy1aRmngzi5jCAlGUG4rHp8cgtDiGd1CVb3EB5dloh4UcEtdIKBCSjpyuB8kuGdZTj4LZ_BxTYh-Vtu3]--></g></svg>