<?xml version="1.0" encoding="us-ascii" standalone="no"?><svg xmlns="http://www.w3.org/2000/svg" xmlns:xlink="http://www.w3.org/1999/xlink" contentStyleType="text/css" height="378px" preserveAspectRatio="none" style="width:1024px;height:378px;background:#FFFFFF;" version="1.1" viewBox="0 0 1024 378" width="1024px" zoomAndPan="magnify"><defs/><g><!--class DependencyDescriptor--><g id="elem_DependencyDescriptor"><rect codeLine="5" fill="#FFFFFF" height="239.5625" id="DependencyDescriptor" rx="2.5" ry="2.5" style="stroke:#000000;stroke-width:1.0;" width="383" x="634" y="12"/><ellipse cx="741.25" cy="26" fill="#FFFFFF" rx="9" ry="9" style="stroke:#000000;stroke-width:1.0;"/><path d="M743.6406,30.7031 Q743.1563,30.9531 742.625,31.0781 Q742.1094,31.2031 741.5313,31.2031 Q739.4688,31.2031 738.375,29.8438 Q737.2969,28.4844 737.2969,25.9063 Q737.2969,23.3281 738.375,21.9688 Q739.4688,20.6094 741.5313,20.6094 Q742.1094,20.6094 742.6406,20.7344 Q743.1719,20.8594 743.6406,21.0938 L743.6406,23.3438 Q743.125,22.8594 742.625,22.6406 Q742.1406,22.4219 741.625,22.4219 Q740.5156,22.4219 739.9531,23.2969 Q739.3906,24.1719 739.3906,25.9063 Q739.3906,27.625 739.9531,28.5156 Q740.5156,29.3906 741.625,29.3906 Q742.1406,29.3906 742.625,29.1719 Q743.125,28.9375 743.6406,28.4688 L743.6406,30.7031 Z " fill="#000000"/><text fill="#000000" font-family="Consolas" font-size="14" lengthAdjust="spacing" textLength="161" x="758.75" y="30.8467">DependencyDescriptor</text><line style="stroke:#000000;stroke-width:1.0;" x1="635" x2="1016" y1="40" y2="40"/><rect fill="none" height="6" style="stroke:#000000;stroke-width:1.0;" width="6" x="642" y="50.6484"/><text fill="#000000" font-family="Consolas" font-size="14" lengthAdjust="spacing" textLength="141" x="652" y="56.9951">Class declaringClass</text><rect fill="none" height="6" style="stroke:#000000;stroke-width:1.0;" width="6" x="642" y="66.9453"/><text fill="#000000" font-family="Consolas" font-size="14" lengthAdjust="spacing" textLength="138" x="652" y="73.292">String methodName</text><rect fill="none" height="6" style="stroke:#000000;stroke-width:1.0;" width="6" x="642" y="83.2422"/><text fill="#000000" font-family="Consolas" font-size="14" lengthAdjust="spacing" textLength="155" x="652" y="89.5889">Class[] paramterTypes</text><rect fill="none" height="6" style="stroke:#000000;stroke-width:1.0;" width="6" x="642" y="99.5391"/><text fill="#000000" font-family="Consolas" font-size="14" lengthAdjust="spacing" textLength="129" x="652" y="105.8857">int parameterIndex</text><rect fill="none" height="6" style="stroke:#000000;stroke-width:1.0;" width="6" x="642" y="115.8359"/><text fill="#000000" font-family="Consolas" font-size="14" lengthAdjust="spacing" textLength="112" x="652" y="122.1826">String fieldName</text><rect fill="none" height="6" style="stroke:#000000;stroke-width:1.0;" width="6" x="642" y="132.1328"/><text fill="#000000" font-family="Consolas" font-size="14" lengthAdjust="spacing" textLength="118" x="652" y="138.4795">boolean required</text><rect fill="none" height="6" style="stroke:#000000;stroke-width:1.0;" width="6" x="642" y="148.4297"/><text fill="#000000" font-family="Consolas" font-size="14" lengthAdjust="spacing" textLength="100" x="652" y="154.7764">boolean eager</text><line style="stroke:#000000;stroke-width:1.0;" x1="635" x2="1016" y1="162.0781" y2="162.0781"/><ellipse cx="645" cy="175.7266" fill="#FFFFFF" rx="3" ry="3" style="stroke:#000000;stroke-width:1.0;"/><text fill="#000000" font-family="Consolas" font-size="14" lengthAdjust="spacing" textLength="359" x="652" y="179.0732">DependencyDescriptor(MethodParameter, boolean)</text><ellipse cx="645" cy="192.0234" fill="#FFFFFF" rx="3" ry="3" style="stroke:#000000;stroke-width:1.0;"/><text fill="#000000" font-family="Consolas" font-size="14" lengthAdjust="spacing" textLength="267" x="652" y="195.3701">DependencyDescriptor(Field, boolean)</text><ellipse cx="645" cy="208.3203" fill="#FFFFFF" rx="3" ry="3" style="stroke:#000000;stroke-width:1.0;"/><text fill="#000000" font-family="Consolas" font-size="14" lengthAdjust="spacing" textLength="206" x="652" y="211.667">getDependencyName() String</text><ellipse cx="645" cy="224.6172" fill="#FFFFFF" rx="3" ry="3" style="stroke:#000000;stroke-width:1.0;"/><text fill="#000000" font-family="Consolas" font-size="14" lengthAdjust="spacing" textLength="197" x="652" y="227.9639">getDependencyType() Class</text><ellipse cx="645" cy="240.9141" fill="#FFFFFF" rx="3" ry="3" style="stroke:#000000;stroke-width:1.0;"/><text fill="#000000" font-family="Consolas" font-size="14" lengthAdjust="spacing" textLength="144" x="652" y="244.2607">isRequired() boolean</text></g><!--class AutowireCapableBeanFactory--><g id="elem_AutowireCapableBeanFactory"><rect codeLine="20" fill="#FFFFFF" height="60.2969" id="AutowireCapableBeanFactory" rx="2.5" ry="2.5" style="stroke:#000000;stroke-width:1.0;" width="587" x="12" y="101.63"/><ellipse cx="200.75" cy="115.63" fill="#FFFFFF" rx="9" ry="9" style="stroke:#000000;stroke-width:1.0;"/><path d="M197.9219,112.2081 L197.9219,110.4269 L204,110.4269 L204,112.2081 L201.9688,112.2081 L201.9688,118.8488 L204,118.8488 L204,120.63 L197.9219,120.63 L197.9219,118.8488 L199.9531,118.8488 L199.9531,112.2081 L197.9219,112.2081 Z " fill="#000000"/><text fill="#000000" font-family="Consolas" font-size="14" font-style="italic" lengthAdjust="spacing" textLength="202" x="218.25" y="120.4767">AutowireCapableBeanFactory</text><line style="stroke:#000000;stroke-width:1.0;" x1="13" x2="598" y1="129.63" y2="129.63"/><line style="stroke:#000000;stroke-width:1.0;" x1="13" x2="598" y1="137.63" y2="137.63"/><ellipse cx="23" cy="151.2784" fill="#FFFFFF" rx="3" ry="3" style="stroke:#000000;stroke-width:1.0;"/><text fill="#000000" font-family="Consolas" font-size="14" lengthAdjust="spacing" textLength="563" x="30" y="154.6251">resolveDependency(DependencyDescriptor, String, Set&lt;String&gt;, TypeConverter)</text></g><!--class DefaultListableBeanFactory--><g id="elem_DefaultListableBeanFactory"><rect codeLine="24" fill="#FFFFFF" height="60.2969" id="DefaultListableBeanFactory" rx="2.5" ry="2.5" style="stroke:#000000;stroke-width:1.0;" width="587" x="12" y="311.56"/><ellipse cx="208.25" cy="325.56" fill="#FFFFFF" rx="9" ry="9" style="stroke:#000000;stroke-width:1.0;"/><path d="M210.6406,330.2631 Q210.1563,330.5131 209.625,330.6381 Q209.1094,330.7631 208.5313,330.7631 Q206.4688,330.7631 205.375,329.4038 Q204.2969,328.0444 204.2969,325.4663 Q204.2969,322.8881 205.375,321.5288 Q206.4688,320.1694 208.5313,320.1694 Q209.1094,320.1694 209.6406,320.2944 Q210.1719,320.4194 210.6406,320.6538 L210.6406,322.9038 Q210.125,322.4194 209.625,322.2006 Q209.1406,321.9819 208.625,321.9819 Q207.5156,321.9819 206.9531,322.8569 Q206.3906,323.7319 206.3906,325.4663 Q206.3906,327.185 206.9531,328.0756 Q207.5156,328.9506 208.625,328.9506 Q209.1406,328.9506 209.625,328.7319 Q210.125,328.4975 210.6406,328.0288 L210.6406,330.2631 Z " fill="#000000"/><text fill="#000000" font-family="Consolas" font-size="14" lengthAdjust="spacing" textLength="187" x="225.75" y="330.4067">DefaultListableBeanFactory</text><line style="stroke:#000000;stroke-width:1.0;" x1="13" x2="598" y1="339.56" y2="339.56"/><line style="stroke:#000000;stroke-width:1.0;" x1="13" x2="598" y1="347.56" y2="347.56"/><ellipse cx="23" cy="361.2084" fill="#FFFFFF" rx="3" ry="3" style="stroke:#000000;stroke-width:1.0;"/><text fill="#000000" font-family="Consolas" font-size="14" lengthAdjust="spacing" textLength="563" x="30" y="364.5551">resolveDependency(DependencyDescriptor, String, Set&lt;String&gt;, TypeConverter)</text></g><!--reverse link AutowireCapableBeanFactory to DefaultListableBeanFactory--><g id="link_AutowireCapableBeanFactory_DefaultListableBeanFactory"><path codeLine="28" d="M305.5,182.93 C305.5,223.01 305.5,277.83 305.5,311.17 " fill="none" id="AutowireCapableBeanFactory-backto-DefaultListableBeanFactory" style="stroke:#000000;stroke-width:1.0;stroke-dasharray:7.0,7.0;"/><polygon fill="none" points="298.5,183.13,305.5,163.13,312.5,183.13,298.5,183.13" style="stroke:#000000;stroke-width:1.0;"/></g><!--link AutowireCapableBeanFactory to DependencyDescriptor--><g id="link_AutowireCapableBeanFactory_DependencyDescriptor"><path codeLine="29" d="M599.27,131.78 C608.78,131.78 618.3,131.78 627.81,131.78 " fill="none" id="AutowireCapableBeanFactory-to-DependencyDescriptor" style="stroke:#000000;stroke-width:1.0;stroke-dasharray:7.0,7.0;"/><polygon fill="#000000" points="632.73,131.78,623.73,127.78,627.73,131.78,623.73,135.78,632.73,131.78" style="stroke:#000000;stroke-width:1.0;"/></g><!--SRC=[lL7BJiCm43pNNs5kgL8Y8N54bQ1L9IH0Y7937DnasbguTh0tXVBuTzPf-a24SkCInxlZcTcT8vfZ0LaQfQq8JzgMogk594q68sTfhDyWJqxtMWMcgZBqP_D6CU_0sU2C2YBdJv13bB05RBuQ8kHUb-IyV1UTOpce-mKOvxMTrTTO7rEyoWLexef8kGK_FCfQa-3lLoLgjBQqBeAhbwpqkiSnrJ1RYebp1ifAZ-TAUnJxDQWPlEYahNQJwzhAxKQbjtdM_VN5A0f_nyr0EsZqb7GRcp-wSJZkDXj9fGvtZMUkDfpYKmYU7NwgSiZpYjmB0mQgL1E32mQCLCvELd7NAS_CcIonaqZQRFSQGto2pjR__PwCTZZL9JpBTQFm9jew-IiTw3z43yXbLVRHFx04SM0_cS_whI5-0G00]--></g></svg>