<?xml version="1.0" encoding="us-ascii" standalone="no"?><svg xmlns="http://www.w3.org/2000/svg" xmlns:xlink="http://www.w3.org/1999/xlink" contentStyleType="text/css" height="303px" preserveAspectRatio="none" style="width:699px;height:303px;background:#FFFFFF;" version="1.1" viewBox="0 0 699 303" width="699px" zoomAndPan="magnify"><defs/><g><text fill="#000000" font-family="sans-serif" font-size="14" font-weight="bold" lengthAdjust="spacing" textLength="70" x="307.5" y="22.9951">&#22403;&#22334;&#25910;&#38598;&#22120;</text><!--cluster ???????--><g id="cluster_&#20998;&#21306;&#22403;&#22334;&#25910;&#38598;&#22120;"><path d="M8.5,43.2969 L107.5,43.2969 A3.75,3.75 0 0 1 110,45.7969 L117,65.5938 L468.5,65.5938 A2.5,2.5 0 0 1 471,68.0938 L471,293.9869 A2.5,2.5 0 0 1 468.5,296.4869 L8.5,296.4869 A2.5,2.5 0 0 1 6,293.9869 L6,45.7969 A2.5,2.5 0 0 1 8.5,43.2969 " fill="none" style="stroke:#000000;stroke-width:1.5;"/><line style="stroke:#000000;stroke-width:1.5;" x1="6" x2="117" y1="65.5938" y2="65.5938"/><text fill="#000000" font-family="sans-serif" font-size="14" font-weight="bold" lengthAdjust="spacing" textLength="98" x="10" y="58.292">&#20998;&#21306;&#22403;&#22334;&#25910;&#38598;&#22120;</text></g><!--cluster ???????--><g id="cluster_&#25972;&#22534;&#22403;&#22334;&#25910;&#38598;&#22120;"><path d="M497.5,51.4469 L596.5,51.4469 A3.75,3.75 0 0 1 599,53.9469 L606,73.7437 L689.5,73.7437 A2.5,2.5 0 0 1 692,76.2437 L692,146.2469 A2.5,2.5 0 0 1 689.5,148.7469 L497.5,148.7469 A2.5,2.5 0 0 1 495,146.2469 L495,53.9469 A2.5,2.5 0 0 1 497.5,51.4469 " fill="none" style="stroke:#000000;stroke-width:1.5;"/><line style="stroke:#000000;stroke-width:1.5;" x1="495" x2="606" y1="73.7437" y2="73.7437"/><text fill="#000000" font-family="sans-serif" font-size="14" font-weight="bold" lengthAdjust="spacing" textLength="98" x="499" y="66.442">&#25972;&#22534;&#22403;&#22334;&#25910;&#38598;&#22120;</text></g><!--entity s--><g id="elem_s"><rect fill="#F1F1F1" height="62.5938" rx="2.5" ry="2.5" style="stroke:#181818;stroke-width:0.5;" width="101" x="353.5" y="78.2969"/><rect fill="#F1F1F1" height="10" style="stroke:#181818;stroke-width:0.5;" width="15" x="434.5" y="83.2969"/><rect fill="#F1F1F1" height="2" style="stroke:#181818;stroke-width:0.5;" width="4" x="432.5" y="85.2969"/><rect fill="#F1F1F1" height="2" style="stroke:#181818;stroke-width:0.5;" width="4" x="432.5" y="89.2969"/><text fill="#000000" font-family="sans-serif" font-size="14" lengthAdjust="spacing" textLength="37" x="368.5" y="111.292">Serial</text><text fill="#000000" font-family="sans-serif" font-size="14" lengthAdjust="spacing" textLength="61" x="368.5" y="127.5889">&#26631;&#35760;-&#22797;&#21046;</text></g><!--entity pn--><g id="elem_pn"><rect fill="#F1F1F1" height="62.5938" rx="2.5" ry="2.5" style="stroke:#181818;stroke-width:0.5;" width="101" x="217.5" y="78.2969"/><rect fill="#F1F1F1" height="10" style="stroke:#181818;stroke-width:0.5;" width="15" x="298.5" y="83.2969"/><rect fill="#F1F1F1" height="2" style="stroke:#181818;stroke-width:0.5;" width="4" x="296.5" y="85.2969"/><rect fill="#F1F1F1" height="2" style="stroke:#181818;stroke-width:0.5;" width="4" x="296.5" y="89.2969"/><text fill="#000000" font-family="sans-serif" font-size="14" lengthAdjust="spacing" textLength="52" x="232.5" y="111.292">ParNew</text><text fill="#000000" font-family="sans-serif" font-size="14" lengthAdjust="spacing" textLength="61" x="232.5" y="127.5889">&#26631;&#35760;-&#22797;&#21046;</text></g><!--entity ps--><g id="elem_ps"><rect fill="#F1F1F1" height="62.5938" rx="2.5" ry="2.5" style="stroke:#181818;stroke-width:0.5;" width="160" x="22" y="78.2969"/><rect fill="#F1F1F1" height="10" style="stroke:#181818;stroke-width:0.5;" width="15" x="162" y="83.2969"/><rect fill="#F1F1F1" height="2" style="stroke:#181818;stroke-width:0.5;" width="4" x="160" y="85.2969"/><rect fill="#F1F1F1" height="2" style="stroke:#181818;stroke-width:0.5;" width="4" x="160" y="89.2969"/><text fill="#000000" font-family="sans-serif" font-size="14" lengthAdjust="spacing" textLength="120" x="37" y="111.292">Parallel Scavenge</text><text fill="#000000" font-family="sans-serif" font-size="14" lengthAdjust="spacing" textLength="61" x="37" y="127.5889">&#26631;&#35760;-&#22797;&#21046;</text></g><!--entity cms--><g id="elem_cms"><rect fill="#F1F1F1" height="62.5938" rx="2.5" ry="2.5" style="stroke:#181818;stroke-width:0.5;" width="101" x="347.5" y="217.8969"/><rect fill="#F1F1F1" height="10" style="stroke:#181818;stroke-width:0.5;" width="15" x="428.5" y="222.8969"/><rect fill="#F1F1F1" height="2" style="stroke:#181818;stroke-width:0.5;" width="4" x="426.5" y="224.8969"/><rect fill="#F1F1F1" height="2" style="stroke:#181818;stroke-width:0.5;" width="4" x="426.5" y="228.8969"/><text fill="#000000" font-family="sans-serif" font-size="14" lengthAdjust="spacing" textLength="31" x="362.5" y="250.892">CMS</text><text fill="#000000" font-family="sans-serif" font-size="14" lengthAdjust="spacing" textLength="61" x="362.5" y="267.1889">&#26631;&#35760;-&#28165;&#38500;</text></g><!--entity so--><g id="elem_so"><rect fill="#F1F1F1" height="62.5938" rx="2.5" ry="2.5" style="stroke:#181818;stroke-width:0.5;" width="104" x="209" y="217.8969"/><rect fill="#F1F1F1" height="10" style="stroke:#181818;stroke-width:0.5;" width="15" x="293" y="222.8969"/><rect fill="#F1F1F1" height="2" style="stroke:#181818;stroke-width:0.5;" width="4" x="291" y="224.8969"/><rect fill="#F1F1F1" height="2" style="stroke:#181818;stroke-width:0.5;" width="4" x="291" y="228.8969"/><text fill="#000000" font-family="sans-serif" font-size="14" lengthAdjust="spacing" textLength="64" x="224" y="250.892">Serial Old</text><text fill="#000000" font-family="sans-serif" font-size="14" lengthAdjust="spacing" textLength="61" x="224" y="267.1889">&#26631;&#35760;-&#25972;&#29702;</text></g><!--entity po--><g id="elem_po"><rect fill="#F1F1F1" height="62.5938" rx="2.5" ry="2.5" style="stroke:#181818;stroke-width:0.5;" width="115" x="44.5" y="217.8969"/><rect fill="#F1F1F1" height="10" style="stroke:#181818;stroke-width:0.5;" width="15" x="139.5" y="222.8969"/><rect fill="#F1F1F1" height="2" style="stroke:#181818;stroke-width:0.5;" width="4" x="137.5" y="224.8969"/><rect fill="#F1F1F1" height="2" style="stroke:#181818;stroke-width:0.5;" width="4" x="137.5" y="228.8969"/><text fill="#000000" font-family="sans-serif" font-size="14" lengthAdjust="spacing" textLength="75" x="59.5" y="250.892">Parallel Old</text><text fill="#000000" font-family="sans-serif" font-size="14" lengthAdjust="spacing" textLength="61" x="59.5" y="267.1889">&#26631;&#35760;-&#28165;&#38500;</text></g><!--entity G1--><g id="elem_G1"><rect fill="#F1F1F1" height="46.2969" rx="2.5" ry="2.5" style="stroke:#181818;stroke-width:0.5;" width="60" x="616" y="86.4469"/><rect fill="#F1F1F1" height="10" style="stroke:#181818;stroke-width:0.5;" width="15" x="656" y="91.4469"/><rect fill="#F1F1F1" height="2" style="stroke:#181818;stroke-width:0.5;" width="4" x="654" y="93.4469"/><rect fill="#F1F1F1" height="2" style="stroke:#181818;stroke-width:0.5;" width="4" x="654" y="97.4469"/><text fill="#000000" font-family="sans-serif" font-size="14" lengthAdjust="spacing" textLength="20" x="631" y="119.442">G1</text></g><!--entity ZGC--><g id="elem_ZGC"><rect fill="#F1F1F1" height="46.2969" rx="2.5" ry="2.5" style="stroke:#181818;stroke-width:0.5;" width="71" x="510.5" y="86.4469"/><rect fill="#F1F1F1" height="10" style="stroke:#181818;stroke-width:0.5;" width="15" x="561.5" y="91.4469"/><rect fill="#F1F1F1" height="2" style="stroke:#181818;stroke-width:0.5;" width="4" x="559.5" y="93.4469"/><rect fill="#F1F1F1" height="2" style="stroke:#181818;stroke-width:0.5;" width="4" x="559.5" y="97.4469"/><text fill="#000000" font-family="sans-serif" font-size="14" lengthAdjust="spacing" textLength="31" x="525.5" y="119.442">ZGC</text></g><!--link s to cms--><g id="link_s_cms"><path d="M402.67,141.1369 C401.67,163.9369 400.32,194.9569 399.33,217.7369 " fill="none" id="s-cms" style="stroke:#181818;stroke-width:1.0;stroke-dasharray:7.0,7.0;"/><text fill="#000000" font-family="sans-serif" font-size="13" lengthAdjust="spacing" textLength="55" x="402" y="183.9638">JDK9&#31227;&#38500;</text></g><!--link s to so--><g id="link_s_so"><path d="M375.31,141.2169 C361.55,155.6269 344.68,172.9069 329,187.8969 C318.62,197.8169 307.03,208.3069 296.4,217.6969 " fill="none" id="s-so" style="stroke:#181818;stroke-width:1.0;"/></g><!--link pn to cms--><g id="link_pn_cms"><path d="M297.6,141.1769 C306.74,150.6669 316.81,161.1869 326,170.8969 C340.5,186.2069 356.5,203.3669 369.73,217.6169 " fill="none" id="pn-cms" style="stroke:#181818;stroke-width:1.0;"/></g><!--link pn to so--><g id="link_pn_so"><path d="M266.45,141.1369 C265.29,163.9369 263.71,194.9569 262.55,217.7369 " fill="none" id="pn-so" style="stroke:#181818;stroke-width:1.0;stroke-dasharray:7.0,7.0;"/><text fill="#000000" font-family="sans-serif" font-size="13" lengthAdjust="spacing" textLength="55" x="265" y="183.9638">JDK9&#31227;&#38500;</text></g><!--link ps to so--><g id="link_ps_so"><path d="M137.29,141.1369 C163.54,163.8569 199.24,194.7469 225.54,217.4969 " fill="none" id="ps-so" style="stroke:#181818;stroke-width:1.0;"/></g><!--link ps to po--><g id="link_ps_po"><path d="M102,141.1369 C102,163.9369 102,194.9569 102,217.7369 " fill="none" id="ps-po" style="stroke:#181818;stroke-width:1.0;"/></g><!--link cms to so--><g id="link_cms_so"><path d="M347.14,249.1869 C335.91,249.1869 324.68,249.1869 313.45,249.1869 " fill="none" id="cms-so" style="stroke:#181818;stroke-width:1.0;"/></g><!--SRC=[AyaioKbLU3gl-UcSVS-cR7ivk-tfp1LS1Od9sOdfGF6EjgSzkz1a5QgvEAE3Kuio4tDYyfujQ7-nReFkqoMzJpksnIea5YiK0sK34elyKiknoHRaGQGJSt9ISnI2anFBKlFIKx6g11e4LEli6moNVRQZzUNC9M3PvDnYk2iK_7DI46gcRda-eGtYadnakr0K8GmgoEUgvIfMqDC36QbWfU3buctvVFbke3HGL5SNP4X17eW1iX780YeipaTLLm1N26O0JGGP1HQ1XoJGMKyNj64BINV3M20PvUuSorKB0000]--></g></svg>