<?xml version="1.0" encoding="us-ascii" standalone="no"?><svg xmlns="http://www.w3.org/2000/svg" xmlns:xlink="http://www.w3.org/1999/xlink" contentStyleType="text/css" height="432px" preserveAspectRatio="none" style="width:978px;height:432px;background:#FFFFFF;" version="1.1" viewBox="0 0 978 432" width="978px" zoomAndPan="magnify"><defs/><g><text fill="#000000" font-family="Consolas" font-size="14" font-weight="bold" lengthAdjust="spacing" textLength="292" x="338.75" y="27.9951">MappingRegistration#register&#28041;&#21450;&#30340;&#31867;</text><!--class HandlerMethod--><g id="elem_HandlerMethod"><rect codeLine="7" fill="#FFFFFF" height="92.8906" id="HandlerMethod" rx="2.5" ry="2.5" style="stroke:#000000;stroke-width:1.0;" width="241" x="16.5" y="316.2669"/><ellipse cx="80.25" cy="330.2669" fill="#FFFFFF" rx="9" ry="9" style="stroke:#000000;stroke-width:1.0;"/><path d="M82.6406,334.97 Q82.1563,335.22 81.625,335.345 Q81.1094,335.47 80.5313,335.47 Q78.4688,335.47 77.375,334.1106 Q76.2969,332.7513 76.2969,330.1731 Q76.2969,327.595 77.375,326.2356 Q78.4688,324.8763 80.5313,324.8763 Q81.1094,324.8763 81.6406,325.0013 Q82.1719,325.1263 82.6406,325.3606 L82.6406,327.6106 Q82.125,327.1263 81.625,326.9075 Q81.1406,326.6888 80.625,326.6888 Q79.5156,326.6888 78.9531,327.5638 Q78.3906,328.4388 78.3906,330.1731 Q78.3906,331.8919 78.9531,332.7825 Q79.5156,333.6575 80.625,333.6575 Q81.1406,333.6575 81.625,333.4388 Q82.125,333.2044 82.6406,332.7356 L82.6406,334.97 Z " fill="#000000"/><text fill="#000000" font-family="Consolas" font-size="14" lengthAdjust="spacing" textLength="106" x="97.75" y="335.1136">HandlerMethod</text><line style="stroke:#000000;stroke-width:1.0;" x1="17.5" x2="256.5" y1="344.2669" y2="344.2669"/><rect fill="none" height="6" style="stroke:#000000;stroke-width:1.0;" width="6" x="24.5" y="354.9153"/><text fill="#000000" font-family="Consolas" font-size="14" lengthAdjust="spacing" textLength="84" x="34.5" y="361.262">Object bean</text><rect fill="none" height="6" style="stroke:#000000;stroke-width:1.0;" width="6" x="24.5" y="371.2122"/><text fill="#000000" font-family="Consolas" font-size="14" lengthAdjust="spacing" textLength="111" x="34.5" y="377.5589">Method method</text><rect fill="none" height="6" style="stroke:#000000;stroke-width:1.0;" width="6" x="24.5" y="387.5091"/><text fill="#000000" font-family="Consolas" font-size="14" lengthAdjust="spacing" textLength="217" x="34.5" y="393.8557">MethodParameter[] parameters</text><line style="stroke:#000000;stroke-width:1.0;" x1="17.5" x2="256.5" y1="401.1575" y2="401.1575"/></g><!--class RequestMappingInfo--><g id="elem_RequestMappingInfo"><rect codeLine="12" fill="#FFFFFF" height="158.0781" id="RequestMappingInfo" rx="2.5" ry="2.5" style="stroke:#000000;stroke-width:1.0;" width="401" x="570.5" y="65.5969"/><ellipse cx="695.75" cy="79.5969" fill="#FFFFFF" rx="9" ry="9" style="stroke:#000000;stroke-width:1.0;"/><path d="M698.1406,84.3 Q697.6563,84.55 697.125,84.675 Q696.6094,84.8 696.0313,84.8 Q693.9688,84.8 692.875,83.4406 Q691.7969,82.0813 691.7969,79.5031 Q691.7969,76.925 692.875,75.5656 Q693.9688,74.2063 696.0313,74.2063 Q696.6094,74.2063 697.1406,74.3313 Q697.6719,74.4563 698.1406,74.6906 L698.1406,76.9406 Q697.625,76.4563 697.125,76.2375 Q696.6406,76.0188 696.125,76.0188 Q695.0156,76.0188 694.4531,76.8938 Q693.8906,77.7688 693.8906,79.5031 Q693.8906,81.2219 694.4531,82.1125 Q695.0156,82.9875 696.125,82.9875 Q696.6406,82.9875 697.125,82.7688 Q697.625,82.5344 698.1406,82.0656 L698.1406,84.3 Z " fill="#000000"/><text fill="#000000" font-family="Consolas" font-size="14" lengthAdjust="spacing" textLength="143" x="713.25" y="84.4436">RequestMappingInfo</text><line style="stroke:#000000;stroke-width:1.0;" x1="571.5" x2="970.5" y1="93.5969" y2="93.5969"/><rect fill="none" height="6" style="stroke:#000000;stroke-width:1.0;" width="6" x="578.5" y="104.2453"/><text fill="#000000" font-family="Consolas" font-size="14" lengthAdjust="spacing" textLength="373" x="588.5" y="110.592">PathPatternsRequestCondition pathPatternsCondition</text><rect fill="none" height="6" style="stroke:#000000;stroke-width:1.0;" width="6" x="578.5" y="120.5422"/><text fill="#000000" font-family="Consolas" font-size="14" lengthAdjust="spacing" textLength="311" x="588.5" y="126.8889">PatternsRequestCondition patternsCondition</text><rect fill="none" height="6" style="stroke:#000000;stroke-width:1.0;" width="6" x="578.5" y="136.8391"/><text fill="#000000" font-family="Consolas" font-size="14" lengthAdjust="spacing" textLength="377" x="588.5" y="143.1857">RequestMethodsRequestCondition methodsCondition</text><rect fill="none" height="6" style="stroke:#000000;stroke-width:1.0;" width="6" x="578.5" y="153.1359"/><text fill="#000000" font-family="Consolas" font-size="14" lengthAdjust="spacing" textLength="297" x="588.5" y="159.4826">ParamsRequestCondition paramsCondition</text><rect fill="none" height="6" style="stroke:#000000;stroke-width:1.0;" width="6" x="578.5" y="169.4328"/><text fill="#000000" font-family="Consolas" font-size="14" lengthAdjust="spacing" textLength="310" x="588.5" y="175.7795">HeadersRequestCondition headersCondition</text><rect fill="none" height="6" style="stroke:#000000;stroke-width:1.0;" width="6" x="578.5" y="185.7297"/><text fill="#000000" font-family="Consolas" font-size="14" lengthAdjust="spacing" textLength="343" x="588.5" y="192.0764">ConsumesRequestCondition consumesCondition</text><rect fill="none" height="6" style="stroke:#000000;stroke-width:1.0;" width="6" x="578.5" y="202.0266"/><text fill="#000000" font-family="Consolas" font-size="14" lengthAdjust="spacing" textLength="327" x="588.5" y="208.3732">ProducesRequestCondition producesCondition</text><line style="stroke:#000000;stroke-width:1.0;" x1="571.5" x2="970.5" y1="215.675" y2="215.675"/></g><!--class MappingRegistry--><g id="elem_MappingRegistry"><rect codeLine="21" fill="#FFFFFF" height="190.6719" id="MappingRegistry" rx="2.5" ry="2.5" style="stroke:#000000;stroke-width:1.0;" width="524" x="12" y="49.2969"/><ellipse cx="212.75" cy="63.2969" fill="#FFFFFF" rx="9" ry="9" style="stroke:#000000;stroke-width:1.0;"/><path d="M215.1406,68 Q214.6563,68.25 214.125,68.375 Q213.6094,68.5 213.0313,68.5 Q210.9688,68.5 209.875,67.1406 Q208.7969,65.7813 208.7969,63.2031 Q208.7969,60.625 209.875,59.2656 Q210.9688,57.9063 213.0313,57.9063 Q213.6094,57.9063 214.1406,58.0313 Q214.6719,58.1563 215.1406,58.3906 L215.1406,60.6406 Q214.625,60.1563 214.125,59.9375 Q213.6406,59.7188 213.125,59.7188 Q212.0156,59.7188 211.4531,60.5938 Q210.8906,61.4688 210.8906,63.2031 Q210.8906,64.9219 211.4531,65.8125 Q212.0156,66.6875 213.125,66.6875 Q213.6406,66.6875 214.125,66.4688 Q214.625,66.2344 215.1406,65.7656 L215.1406,68 Z " fill="#000000"/><text fill="#000000" font-family="Consolas" font-size="14" lengthAdjust="spacing" textLength="115" x="230.25" y="68.1436">MappingRegistry</text><line style="stroke:#000000;stroke-width:1.0;" x1="13" x2="535" y1="77.2969" y2="77.2969"/><rect fill="none" height="6" style="stroke:#000000;stroke-width:1.0;" width="6" x="20" y="87.9453"/><text fill="#000000" font-family="Consolas" font-size="14" lengthAdjust="spacing" textLength="300" x="30" y="94.292">Map&lt;T, MappingRegistration&lt;T&gt;&gt; registry</text><rect fill="none" height="6" style="stroke:#000000;stroke-width:1.0;" width="6" x="20" y="104.2422"/><text fill="#000000" font-family="Consolas" font-size="14" lengthAdjust="spacing" textLength="266" x="30" y="110.5889">MultiValueMap&lt;String, T&gt; pathLookup</text><rect fill="none" height="6" style="stroke:#000000;stroke-width:1.0;" width="6" x="20" y="120.5391"/><text fill="#000000" font-family="Consolas" font-size="14" lengthAdjust="spacing" textLength="348" x="30" y="126.8857">Map&lt;String, List&lt;HandlerMethod&gt;&gt; nameLookup</text><rect fill="none" height="6" style="stroke:#000000;stroke-width:1.0;" width="6" x="20" y="136.8359"/><text fill="#000000" font-family="Consolas" font-size="14" lengthAdjust="spacing" textLength="376" x="30" y="143.1826">Map&lt;HandlerMethod, CorsConfiguration&gt; corsLookup</text><line style="stroke:#000000;stroke-width:1.0;" x1="13" x2="535" y1="150.4844" y2="150.4844"/><ellipse cx="23" cy="164.1328" fill="#FFFFFF" rx="3" ry="3" style="stroke:#000000;stroke-width:1.0;"/><text fill="#000000" font-family="Consolas" font-size="14" lengthAdjust="spacing" textLength="218" x="30" y="167.4795">register(T, Object, Method) void</text><ellipse cx="23" cy="180.4297" fill="#FFFFFF" rx="3" ry="3" style="stroke:#000000;stroke-width:1.0;"/><text fill="#000000" font-family="Consolas" font-size="14" lengthAdjust="spacing" textLength="289" x="30" y="183.7764">getMappingsByDirectPath(String) List&lt;T&gt;</text><ellipse cx="23" cy="196.7266" fill="#FFFFFF" rx="3" ry="3" style="stroke:#000000;stroke-width:1.0;"/><text fill="#000000" font-family="Consolas" font-size="14" lengthAdjust="spacing" textLength="460" x="30" y="200.0732">getHandlerMethodsByMappingName(String) List&lt;HandlerMethod&gt;</text><ellipse cx="23" cy="213.0234" fill="#FFFFFF" rx="3" ry="3" style="stroke:#000000;stroke-width:1.0;"/><text fill="#000000" font-family="Consolas" font-size="14" lengthAdjust="spacing" textLength="500" x="30" y="216.3701">getCorsConfiguration(HandlerMethod handlerMethod) CorsConfiguration</text><ellipse cx="23" cy="229.3203" fill="#FFFFFF" rx="3" ry="3" style="stroke:#000000;stroke-width:1.0;"/><text fill="#000000" font-family="Consolas" font-size="14" lengthAdjust="spacing" textLength="373" x="30" y="232.667">getRegistrations() Map&lt;T, MappingRegistration&lt;T&gt;&gt;</text></g><!--class MappingRegistration--><g id="elem_MappingRegistration"><rect codeLine="32" fill="#FFFFFF" height="125.4844" id="MappingRegistration" rx="2.5" ry="2.5" style="stroke:#000000;stroke-width:1.0;" width="239" x="292.5" y="299.9769"/><ellipse cx="337.25" cy="313.9769" fill="#FFFFFF" rx="9" ry="9" style="stroke:#000000;stroke-width:1.0;"/><path d="M339.6406,318.68 Q339.1563,318.93 338.625,319.055 Q338.1094,319.18 337.5313,319.18 Q335.4688,319.18 334.375,317.8206 Q333.2969,316.4613 333.2969,313.8831 Q333.2969,311.305 334.375,309.9456 Q335.4688,308.5863 337.5313,308.5863 Q338.1094,308.5863 338.6406,308.7113 Q339.1719,308.8363 339.6406,309.0706 L339.6406,311.3206 Q339.125,310.8363 338.625,310.6175 Q338.1406,310.3988 337.625,310.3988 Q336.5156,310.3988 335.9531,311.2738 Q335.3906,312.1488 335.3906,313.8831 Q335.3906,315.6019 335.9531,316.4925 Q336.5156,317.3675 337.625,317.3675 Q338.1406,317.3675 338.625,317.1488 Q339.125,316.9144 339.6406,316.4456 L339.6406,318.68 Z " fill="#000000"/><text fill="#000000" font-family="Consolas" font-size="14" lengthAdjust="spacing" textLength="142" x="354.75" y="318.8236">MappingRegistration</text><line style="stroke:#000000;stroke-width:1.0;" x1="293.5" x2="530.5" y1="327.9769" y2="327.9769"/><rect fill="none" height="6" style="stroke:#000000;stroke-width:1.0;" width="6" x="300.5" y="338.6253"/><text fill="#000000" font-family="Consolas" font-size="14" lengthAdjust="spacing" textLength="73" x="310.5" y="344.972">T mapping</text><rect fill="none" height="6" style="stroke:#000000;stroke-width:1.0;" width="6" x="300.5" y="354.9222"/><text fill="#000000" font-family="Consolas" font-size="14" lengthAdjust="spacing" textLength="215" x="310.5" y="361.2689">HandlerMethod handlerMethod</text><rect fill="none" height="6" style="stroke:#000000;stroke-width:1.0;" width="6" x="300.5" y="371.2191"/><text fill="#000000" font-family="Consolas" font-size="14" lengthAdjust="spacing" textLength="169" x="310.5" y="377.5657">Set&lt;String&gt; directPaths</text><rect fill="none" height="6" style="stroke:#000000;stroke-width:1.0;" width="6" x="300.5" y="387.5159"/><text fill="#000000" font-family="Consolas" font-size="14" lengthAdjust="spacing" textLength="144" x="310.5" y="393.8626">String mappingName</text><rect fill="none" height="6" style="stroke:#000000;stroke-width:1.0;" width="6" x="300.5" y="403.8128"/><text fill="#000000" font-family="Consolas" font-size="14" lengthAdjust="spacing" textLength="134" x="310.5" y="410.1595">boolean corsConfig</text><line style="stroke:#000000;stroke-width:1.0;" x1="293.5" x2="530.5" y1="417.4613" y2="417.4613"/></g><!--link MappingRegistry to RequestMappingInfo--><g id="link_MappingRegistry_RequestMappingInfo"><path codeLine="40" d="M536.09,144.6369 C545.46,144.6369 554.83,144.6369 564.21,144.6369 " fill="none" id="MappingRegistry-to-RequestMappingInfo" style="stroke:#000000;stroke-width:1.0;stroke-dasharray:7.0,7.0;"/><polygon fill="#000000" points="569.04,144.6369,560.04,140.6369,564.04,144.6369,560.04,148.6369,569.04,144.6369" style="stroke:#000000;stroke-width:1.0;"/></g><!--link MappingRegistry to HandlerMethod--><g id="link_MappingRegistry_HandlerMethod"><path codeLine="41" d="M213.91,240.4069 C198.53,264.6569 182.59,289.8169 169.22,310.8869 " fill="none" id="MappingRegistry-to-HandlerMethod" style="stroke:#000000;stroke-width:1.0;stroke-dasharray:7.0,7.0;"/><polygon fill="#000000" points="166.06,314.8769,174.2486,309.4045,168.7305,310.6498,167.4852,305.1317,166.06,314.8769" style="stroke:#000000;stroke-width:1.0;"/></g><!--link MappingRegistry to MappingRegistration--><g id="link_MappingRegistry_MappingRegistration"><path codeLine="42" d="M334.53,240.4069 C346.25,258.7569 358.29,277.6169 369.29,294.8469 " fill="none" id="MappingRegistry-to-MappingRegistration" style="stroke:#000000;stroke-width:1.0;stroke-dasharray:7.0,7.0;"/><polygon fill="#000000" points="372.37,298.6569,370.8829,288.9209,369.6727,294.4468,364.1468,293.2366,372.37,298.6569" style="stroke:#000000;stroke-width:1.0;"/></g><!--reverse link HandlerMethod to MappingRegistration--><g id="link_HandlerMethod_MappingRegistration"><path codeLine="43" d="M263.75,362.7169 C273.22,362.7169 282.7,362.7169 292.17,362.7169 " fill="none" id="HandlerMethod-backto-MappingRegistration" style="stroke:#000000;stroke-width:1.0;stroke-dasharray:7.0,7.0;"/><polygon fill="#000000" points="258.85,362.7169,267.85,366.7169,263.85,362.7169,267.85,358.7169,258.85,362.7169" style="stroke:#000000;stroke-width:1.0;"/></g><!--SRC=[XLExRjH05AtnLrn4ioisAo5Hhbm0Ga5A8CfQD8XYTkVkUeWzOsR6I07HqK13pr_GqF0z9B-HEw_ipjeXXMNFlUSSd_kOXxR65g5hc925kH2oOvgrO8LjyAMITYa-8pnvkfVYk65zO-zDlcQa-rn9enfc2Yy8fwphXDoUurOOgvaLIZxI_e3wwi_tVpz_NF_wTltxRr6iYMJWc4dUe3v5MoiENue7H_1czG7N5bR8f3l6LEjVky2PSuEa-kuzTEdR55-ZxZb-xD7OQEULtAWWViPiJGzXfOaOge0BPvHqTidRQ6JToHYYqx-zpo4dL7Bu0wfWJDw5C-GnCaw53g1rY6TODvk-nI5u7HEv1wrulnv1Tp6nGwSkvzE-32scuAAQZMt2eYfBq17ieRH9uYrhUdIafTL4c45L-acSA7NHTqan9K-8lCYsXZGbZJ-7PuWPTSAtPYEsVR1IKW-qIPp7a7PqGix30ixYeatXanBSORQOziayktmXD87SEas2jMcmLfKHcZaWGgIwIvCpyc8WqWUE9_bLgVTFqs61KMQ__MOolMSuTmpMvscuS0GLj27b3lznvD9Bj75i9V3RTXcVyk6avNhYeYkb6hhrVZIX639K72xPNC_BaVizn772PHR78IEr5cFrpvj3lHi0]--></g></svg>