<?xml version="1.0" encoding="us-ascii" standalone="no"?><svg xmlns="http://www.w3.org/2000/svg" xmlns:xlink="http://www.w3.org/1999/xlink" contentStyleType="text/css" height="232px" preserveAspectRatio="none" style="width:539px;height:232px;background:#FFFFFF;" version="1.1" viewBox="0 0 539 232" width="539px" zoomAndPan="magnify"><defs/><g><text fill="#000000" font-family="sans-serif" font-size="14" font-weight="bold" lengthAdjust="spacing" textLength="84" x="220.5" y="22.9951">&#31867;&#21152;&#36733;&#30340;&#27493;&#39588;</text><ellipse cx="16" cy="61.2869" fill="#222222" rx="10" ry="10" style="stroke:none;stroke-width:1.0;"/><rect fill="#F1F1F1" height="33.9688" rx="12.5" ry="12.5" style="stroke:#181818;stroke-width:0.5;" width="117" x="46.5" y="44.2969"/><text fill="#000000" font-family="sans-serif" font-size="12" lengthAdjust="spacing" textLength="97" x="56.5" y="65.4355">&#21152;&#36733;&#65288;Loading&#65289;</text><rect fill="#F1F1F1" height="33.9688" rx="12.5" ry="12.5" style="stroke:#181818;stroke-width:0.5;" width="138" x="36" y="118.2669"/><text fill="#000000" font-family="sans-serif" font-size="12" lengthAdjust="spacing" textLength="118" x="46" y="139.4055">&#39564;&#35777;&#65288;Verification&#65289;</text><rect fill="#F1F1F1" height="33.9688" rx="12.5" ry="12.5" style="stroke:#181818;stroke-width:0.5;" width="142" x="194" y="118.2669"/><text fill="#000000" font-family="sans-serif" font-size="12" lengthAdjust="spacing" textLength="122" x="204" y="139.4055">&#20934;&#22791;&#65288;Preparation&#65289;</text><rect fill="#F1F1F1" height="33.9688" rx="12.5" ry="12.5" style="stroke:#181818;stroke-width:0.5;" width="134" x="356" y="118.2669"/><text fill="#000000" font-family="sans-serif" font-size="12" lengthAdjust="spacing" textLength="114" x="366" y="139.4055">&#35299;&#26512;&#65288;Resolution&#65289;</text><rect fill="#F1F1F1" height="33.9688" rx="12.5" ry="12.5" style="stroke:#181818;stroke-width:0.5;" width="140" x="353" y="192.2369"/><text fill="#000000" font-family="sans-serif" font-size="12" lengthAdjust="spacing" textLength="120" x="363" y="213.3755">&#21021;&#22987;&#21270;&#65288;Initializing&#65289;</text><ellipse cx="523" cy="209.2269" fill="none" rx="10" ry="10" style="stroke:#222222;stroke-width:1.0;"/><ellipse cx="523.5" cy="209.7269" fill="#222222" rx="6" ry="6" style="stroke:none;stroke-width:1.0;"/><!--link start to ???Loading?--><g id="link_start_&#21152;&#36733;&#65288;Loading&#65289;"><path d="M26.43,61.2869 C31.03,61.2869 35.64,61.2869 40.24,61.2869 " fill="none" id="start-to-&#21152;&#36733;&#65288;Loading&#65289;" style="stroke:#181818;stroke-width:1.0;"/><polygon fill="#181818" points="45.07,61.2869,36.07,57.2869,40.07,61.2869,36.07,65.2869,45.07,61.2869" style="stroke:#181818;stroke-width:1.0;"/></g><!--link ???Loading? to ???Verification?--><g id="link_&#21152;&#36733;&#65288;Loading&#65289;_&#39564;&#35777;&#65288;Verification&#65289;"><path d="M105,78.6169 C105,88.5569 105,101.3769 105,112.2069 " fill="none" id="&#21152;&#36733;&#65288;Loading&#65289;-to-&#39564;&#35777;&#65288;Verification&#65289;" style="stroke:#181818;stroke-width:1.0;"/><polygon fill="#181818" points="105,116.9869,109,107.9869,105,111.9869,101,107.9869,105,116.9869" style="stroke:#181818;stroke-width:1.0;"/></g><!--link ???Verification? to ???Preparation?--><g id="link_&#39564;&#35777;&#65288;Verification&#65289;_&#20934;&#22791;&#65288;Preparation&#65289;"><path d="M174.38,135.2569 C178.94,135.2569 183.5,135.2569 188.07,135.2569 " fill="none" id="&#39564;&#35777;&#65288;Verification&#65289;-to-&#20934;&#22791;&#65288;Preparation&#65289;" style="stroke:#181818;stroke-width:1.0;"/><polygon fill="#181818" points="192.85,135.2569,183.85,131.2569,187.85,135.2569,183.85,139.2569,192.85,135.2569" style="stroke:#181818;stroke-width:1.0;"/></g><!--link ???Preparation? to ???Resolution?--><g id="link_&#20934;&#22791;&#65288;Preparation&#65289;_&#35299;&#26512;&#65288;Resolution&#65289;"><path d="M336.29,135.2569 C340.81,135.2569 345.34,135.2569 349.86,135.2569 " fill="none" id="&#20934;&#22791;&#65288;Preparation&#65289;-to-&#35299;&#26512;&#65288;Resolution&#65289;" style="stroke:#181818;stroke-width:1.0;"/><polygon fill="#181818" points="354.59,135.2569,345.59,131.2569,349.59,135.2569,345.59,139.2569,354.59,135.2569" style="stroke:#181818;stroke-width:1.0;"/></g><!--link ???Resolution? to ????Initializing?--><g id="link_&#35299;&#26512;&#65288;Resolution&#65289;_&#21021;&#22987;&#21270;&#65288;Initializing&#65289;"><path d="M423,152.5869 C423,162.5269 423,175.3469 423,186.1769 " fill="none" id="&#35299;&#26512;&#65288;Resolution&#65289;-to-&#21021;&#22987;&#21270;&#65288;Initializing&#65289;" style="stroke:#181818;stroke-width:1.0;"/><polygon fill="#181818" points="423,190.9569,427,181.9569,423,185.9569,419,181.9569,423,190.9569" style="stroke:#181818;stroke-width:1.0;"/></g><!--link ????Initializing? to end--><g id="link_&#21021;&#22987;&#21270;&#65288;Initializing&#65289;_end"><path d="M493.31,209.2269 C497.88,209.2269 502.44,209.2269 507.01,209.2269 " fill="none" id="&#21021;&#22987;&#21270;&#65288;Initializing&#65289;-to-end" style="stroke:#181818;stroke-width:1.0;"/><polygon fill="#181818" points="511.79,209.2269,502.79,205.2269,506.79,209.2269,502.79,213.2269,511.79,209.2269" style="stroke:#181818;stroke-width:1.0;"/></g><!--SRC=[AyaioKbLUBvnzzEk1I_sxdq-g-NPsgKlLotXqj3ILD0jqhLJK8B8lD_JuPEVc9APb_v-JwSIbsuAIEhbgfuNwnk1Kc6fHPbfcSc99PdvUH1vYDRsjgTBse7o0KMf1Ob5wD8lbYz-Dcy2K3eejJW_fnGX2pRyQSVSfykxd_PC0ohmpCiioKpCoQo2smyo0EX60000]--></g></svg>