<?xml version="1.0" encoding="us-ascii" standalone="no"?><svg xmlns="http://www.w3.org/2000/svg" xmlns:xlink="http://www.w3.org/1999/xlink" contentStyleType="text/css" height="717px" preserveAspectRatio="none" style="width:579px;height:717px;background:#FFFFFF;" version="1.1" viewBox="0 0 579 717" width="579px" zoomAndPan="magnify"><defs/><g><text fill="#000000" font-family="sans-serif" font-size="14" font-weight="bold" lengthAdjust="spacing" textLength="207" x="184.5" y="32.9951">&#33719;&#21462;&#24212;&#29992;&#19978;&#19979;&#25991;&#20351;&#29992;&#30340;Bean&#24037;&#21378;</text><ellipse cx="288.25" cy="57.2969" fill="#222222" rx="10" ry="10" style="stroke:#222222;stroke-width:1.0;"/><rect fill="none" height="587.0322" style="stroke:#000000;stroke-width:1.5;" width="557" x="11" y="77.2969"/><path d="M387,77.2969 L387,86.5938 L377,96.5938 L11,96.5938 " fill="none" style="stroke:#000000;stroke-width:1.5;"/><text fill="#000000" font-family="sans-serif" font-size="14" lengthAdjust="spacing" textLength="366" x="14" y="91.292">AbstractApplicationContext#obtainFreshBeanFactory</text><rect fill="none" height="476.9961" style="stroke:#000000;stroke-width:1.5;" width="537" x="21" y="107.3955"/><path d="M553,107.3955 L553,116.6924 L543,126.6924 L21,126.6924 " fill="none" style="stroke:#000000;stroke-width:1.5;"/><text fill="#000000" font-family="sans-serif" font-size="14" lengthAdjust="spacing" textLength="522" x="24" y="121.3906">&#21047;&#26032;Bean&#24037;&#21378;&#65306;AbstractRefreshableApplicationContext#refreshBeanFactory</text><rect fill="#F1F1F1" height="47.9375" rx="12.5" ry="12.5" style="stroke:#181818;stroke-width:0.5;" width="286" x="145.25" y="193.7041"/><text fill="#000000" font-family="sans-serif" font-size="12" lengthAdjust="spacing" textLength="56" x="155.25" y="214.8428">&#38144;&#27585;Bean</text><text fill="#000000" font-family="sans-serif" font-size="12" lengthAdjust="spacing" textLength="266" x="155.25" y="228.8115">AbstractApplicationContext#destroyBeans</text><rect fill="#F1F1F1" height="47.9375" rx="12.5" ry="12.5" style="stroke:#181818;stroke-width:0.5;" width="386" x="95.25" y="276.6416"/><text fill="#000000" font-family="sans-serif" font-size="12" lengthAdjust="spacing" textLength="80" x="105.25" y="297.7803">&#20851;&#38381;Bean&#24037;&#21378;</text><text fill="#000000" font-family="sans-serif" font-size="12" lengthAdjust="spacing" textLength="366" x="105.25" y="311.749">AbstractRefreshableApplicationContext#closeBeanFactory</text><polygon fill="#F1F1F1" points="128.75,143.6924,447.75,143.6924,459.75,156.4971,447.75,169.3018,128.75,169.3018,116.75,156.4971,128.75,143.6924" style="stroke:#181818;stroke-width:0.5;"/><text fill="#000000" font-family="sans-serif" font-size="11" lengthAdjust="spacing" textLength="11" x="292.25" y="179.5122">&#26159;</text><text fill="#000000" font-family="sans-serif" font-size="11" lengthAdjust="spacing" textLength="128" x="128.75" y="153.9028">Bean&#24037;&#21378;&#26159;&#21542;&#24050;&#32463;&#23384;&#22312;&#65311;</text><text fill="#000000" font-family="sans-serif" font-size="11" lengthAdjust="spacing" textLength="319" x="128.75" y="166.7075">AbstractRefreshableApplicationContext#hasBeanFactory</text><text fill="#000000" font-family="sans-serif" font-size="11" lengthAdjust="spacing" textLength="11" x="459.75" y="153.9028">&#21542;</text><polygon fill="#F1F1F1" points="288.25,344.5791,300.25,356.5791,288.25,368.5791,276.25,356.5791,288.25,344.5791" style="stroke:#181818;stroke-width:0.5;"/><rect fill="#F1F1F1" height="47.9375" rx="12.5" ry="12.5" style="stroke:#181818;stroke-width:0.5;" width="394" x="91.25" y="388.5791"/><text fill="#000000" font-family="sans-serif" font-size="12" lengthAdjust="spacing" textLength="80" x="101.25" y="409.7178">&#21019;&#24314;Bean&#24037;&#21378;</text><text fill="#000000" font-family="sans-serif" font-size="12" lengthAdjust="spacing" textLength="374" x="101.25" y="423.6865">AbstractRefreshableApplicationContext#createBeanFactory</text><rect fill="#F1F1F1" height="47.9375" rx="12.5" ry="12.5" style="stroke:#181818;stroke-width:0.5;" width="415" x="80.75" y="456.5166"/><text fill="#000000" font-family="sans-serif" font-size="12" lengthAdjust="spacing" textLength="92" x="90.75" y="477.6553">&#33258;&#23450;&#20041;Bean&#24037;&#21378;</text><text fill="#000000" font-family="sans-serif" font-size="12" lengthAdjust="spacing" textLength="395" x="90.75" y="491.624">AbstractRefreshableApplicationContext#customizeBeanFactory</text><rect fill="#F1F1F1" height="47.9375" rx="12.5" ry="12.5" style="stroke:#181818;stroke-width:0.5;" width="400" x="88.25" y="524.4541"/><text fill="#000000" font-family="sans-serif" font-size="12" lengthAdjust="spacing" textLength="80" x="98.25" y="545.5928">&#21152;&#36733;Bean&#23450;&#20041;</text><text fill="#000000" font-family="sans-serif" font-size="12" lengthAdjust="spacing" textLength="380" x="98.25" y="559.5615">AbstractRefreshableApplicationContext#loadBeanDefinitions</text><rect fill="#F1F1F1" height="47.9375" rx="12.5" ry="12.5" style="stroke:#181818;stroke-width:0.5;" width="299" x="138.75" y="604.3916"/><text fill="#000000" font-family="sans-serif" font-size="12" lengthAdjust="spacing" textLength="80" x="148.75" y="625.5303">&#36820;&#22238;Bean&#24037;&#21378;</text><text fill="#000000" font-family="sans-serif" font-size="12" lengthAdjust="spacing" textLength="279" x="148.75" y="639.499">AbstractApplicationContext#getBeanFactory</text><ellipse cx="288.25" cy="695.3291" fill="none" rx="11" ry="11" style="stroke:#222222;stroke-width:1.0;"/><ellipse cx="288.25" cy="695.3291" fill="#222222" rx="6" ry="6" style="stroke:#111111;stroke-width:1.0;"/><line style="stroke:#181818;stroke-width:1.0;" x1="288.25" x2="288.25" y1="241.6416" y2="276.6416"/><polygon fill="#181818" points="284.25,266.6416,288.25,276.6416,292.25,266.6416,288.25,270.6416" style="stroke:#181818;stroke-width:1.0;"/><line style="stroke:#181818;stroke-width:1.0;" x1="288.25" x2="288.25" y1="169.3018" y2="193.7041"/><polygon fill="#181818" points="284.25,183.7041,288.25,193.7041,292.25,183.7041,288.25,187.7041" style="stroke:#181818;stroke-width:1.0;"/><line style="stroke:#181818;stroke-width:1.0;" x1="459.75" x2="491.25" y1="156.4971" y2="156.4971"/><polygon fill="#181818" points="487.25,248.7393,491.25,258.7393,495.25,248.7393,491.25,252.7393" style="stroke:#181818;stroke-width:1.0;"/><line style="stroke:#181818;stroke-width:1.0;" x1="491.25" x2="491.25" y1="156.4971" y2="356.5791"/><line style="stroke:#181818;stroke-width:1.0;" x1="491.25" x2="300.25" y1="356.5791" y2="356.5791"/><polygon fill="#181818" points="310.25,352.5791,300.25,356.5791,310.25,360.5791,306.25,356.5791" style="stroke:#181818;stroke-width:1.0;"/><line style="stroke:#181818;stroke-width:1.0;" x1="288.25" x2="288.25" y1="324.5791" y2="344.5791"/><polygon fill="#181818" points="284.25,334.5791,288.25,344.5791,292.25,334.5791,288.25,338.5791" style="stroke:#181818;stroke-width:1.0;"/><line style="stroke:#181818;stroke-width:1.0;" x1="288.25" x2="288.25" y1="368.5791" y2="388.5791"/><polygon fill="#181818" points="284.25,378.5791,288.25,388.5791,292.25,378.5791,288.25,382.5791" style="stroke:#181818;stroke-width:1.0;"/><line style="stroke:#181818;stroke-width:1.0;" x1="288.25" x2="288.25" y1="436.5166" y2="456.5166"/><polygon fill="#181818" points="284.25,446.5166,288.25,456.5166,292.25,446.5166,288.25,450.5166" style="stroke:#181818;stroke-width:1.0;"/><line style="stroke:#181818;stroke-width:1.0;" x1="288.25" x2="288.25" y1="504.4541" y2="524.4541"/><polygon fill="#181818" points="284.25,514.4541,288.25,524.4541,292.25,514.4541,288.25,518.4541" style="stroke:#181818;stroke-width:1.0;"/><line style="stroke:#181818;stroke-width:1.0;" x1="288.25" x2="288.25" y1="572.3916" y2="604.3916"/><polygon fill="#181818" points="284.25,594.3916,288.25,604.3916,292.25,594.3916,288.25,598.3916" style="stroke:#181818;stroke-width:1.0;"/><line style="stroke:#181818;stroke-width:1.0;" x1="288.25" x2="288.25" y1="67.2969" y2="143.6924"/><polygon fill="#181818" points="284.25,133.6924,288.25,143.6924,292.25,133.6924,288.25,137.6924" style="stroke:#181818;stroke-width:1.0;"/><line style="stroke:#181818;stroke-width:1.0;" x1="288.25" x2="288.25" y1="652.3291" y2="684.3291"/><polygon fill="#181818" points="284.25,674.3291,288.25,684.3291,292.25,674.3291,288.25,678.3291" style="stroke:#181818;stroke-width:1.0;"/><!--SRC=[dTBDJW8n40Vm-pv54o_m2d123G_WsKk1MMYojfks9E99ZGR413nia81HBnfYWXWzBF8HNcQxm8bNi8iV2sOFX6CpCx_yPr99f0LeLdDLlQ46pjJfUFsgrx_s6sLlFD7FQUjY5p1LxfEgdHj2OYwDF6T56wKoGdASbIdRjaWMIyBe7gCIZkKEoqXCQ9g3A0J3QTt5UEbdJbLSl_4MeejHwvSw03EOmHaB8bJ-NLqLYObYeUGtU-hcMRdlqs5TTPlghhCOFHpIpVG25Yjo7Ca2K1JJPDn8p9rJltSMb4CjWiY1Bh5Iq2UIHa9TVinlks6yJPDaBIPW9KlI04i0YkdTueO1D4TCZLVQQZZO0kU0vRgUc9LVr6lB-xpQWYiAoOx8oJzHLHzdu_6IMyARSXR3kM1g7qn2IL3HXzGRe-NNqKadZchVHyMCmF8Wrw_uv-ZCzXS0]--></g></svg>