<?xml version="1.0" encoding="us-ascii" standalone="no"?><svg xmlns="http://www.w3.org/2000/svg" xmlns:xlink="http://www.w3.org/1999/xlink" contentStyleType="text/css" height="112px" preserveAspectRatio="none" style="width:748px;height:112px;background:#FFFFFF;" version="1.1" viewBox="0 0 748 112" width="748px" zoomAndPan="magnify"><defs/><g><text fill="#000000" font-family="sans-serif" font-size="14" font-weight="bold" lengthAdjust="spacing" textLength="126" x="304" y="22.9951">&#38142;&#34920;&#27861;&#35299;&#20915;&#21704;&#24076;&#20914;&#31361;</text><!--entity a--><g id="elem_a"><rect fill="#F1F1F1" height="62.5938" rx="2.5" ry="2.5" style="stroke:#181818;stroke-width:0.5;" width="119" x="7" y="44.2969"/><rect fill="#F1F1F1" height="10" style="stroke:#181818;stroke-width:0.5;" width="15" x="106" y="49.2969"/><rect fill="#F1F1F1" height="2" style="stroke:#181818;stroke-width:0.5;" width="4" x="104" y="51.2969"/><rect fill="#F1F1F1" height="2" style="stroke:#181818;stroke-width:0.5;" width="4" x="104" y="55.2969"/><text fill="#000000" font-family="sans-serif" font-size="14" lengthAdjust="spacing" textLength="46" x="22" y="77.292">Node1</text><text fill="#000000" font-family="sans-serif" font-size="14" lengthAdjust="spacing" textLength="79" x="22" y="93.5889">hash: 9527</text></g><!--entity b--><g id="elem_b"><rect fill="#F1F1F1" height="62.5938" rx="2.5" ry="2.5" style="stroke:#181818;stroke-width:0.5;" width="119" x="161" y="44.2969"/><rect fill="#F1F1F1" height="10" style="stroke:#181818;stroke-width:0.5;" width="15" x="260" y="49.2969"/><rect fill="#F1F1F1" height="2" style="stroke:#181818;stroke-width:0.5;" width="4" x="258" y="51.2969"/><rect fill="#F1F1F1" height="2" style="stroke:#181818;stroke-width:0.5;" width="4" x="258" y="55.2969"/><text fill="#000000" font-family="sans-serif" font-size="14" lengthAdjust="spacing" textLength="46" x="176" y="77.292">Node2</text><text fill="#000000" font-family="sans-serif" font-size="14" lengthAdjust="spacing" textLength="79" x="176" y="93.5889">hash: 9527</text></g><!--entity c--><g id="elem_c"><rect fill="#F1F1F1" height="62.5938" rx="2.5" ry="2.5" style="stroke:#181818;stroke-width:0.5;" width="119" x="315" y="44.2969"/><rect fill="#F1F1F1" height="10" style="stroke:#181818;stroke-width:0.5;" width="15" x="414" y="49.2969"/><rect fill="#F1F1F1" height="2" style="stroke:#181818;stroke-width:0.5;" width="4" x="412" y="51.2969"/><rect fill="#F1F1F1" height="2" style="stroke:#181818;stroke-width:0.5;" width="4" x="412" y="55.2969"/><text fill="#000000" font-family="sans-serif" font-size="14" lengthAdjust="spacing" textLength="46" x="330" y="77.292">Node3</text><text fill="#000000" font-family="sans-serif" font-size="14" lengthAdjust="spacing" textLength="79" x="330" y="93.5889">hash: 9527</text></g><!--entity d--><g id="elem_d"><rect fill="#F1F1F1" height="62.5938" rx="2.5" ry="2.5" style="stroke:#181818;stroke-width:0.5;" width="119" x="469" y="44.2969"/><rect fill="#F1F1F1" height="10" style="stroke:#181818;stroke-width:0.5;" width="15" x="568" y="49.2969"/><rect fill="#F1F1F1" height="2" style="stroke:#181818;stroke-width:0.5;" width="4" x="566" y="51.2969"/><rect fill="#F1F1F1" height="2" style="stroke:#181818;stroke-width:0.5;" width="4" x="566" y="55.2969"/><text fill="#000000" font-family="sans-serif" font-size="14" lengthAdjust="spacing" textLength="46" x="484" y="77.292">Node4</text><text fill="#000000" font-family="sans-serif" font-size="14" lengthAdjust="spacing" textLength="79" x="484" y="93.5889">hash: 9527</text></g><!--entity e--><g id="elem_e"><rect fill="#F1F1F1" height="62.5938" rx="2.5" ry="2.5" style="stroke:#181818;stroke-width:0.5;" width="119" x="623" y="44.2969"/><rect fill="#F1F1F1" height="10" style="stroke:#181818;stroke-width:0.5;" width="15" x="722" y="49.2969"/><rect fill="#F1F1F1" height="2" style="stroke:#181818;stroke-width:0.5;" width="4" x="720" y="51.2969"/><rect fill="#F1F1F1" height="2" style="stroke:#181818;stroke-width:0.5;" width="4" x="720" y="55.2969"/><text fill="#000000" font-family="sans-serif" font-size="14" lengthAdjust="spacing" textLength="12" x="638" y="77.292">...</text><text fill="#000000" font-family="sans-serif" font-size="14" lengthAdjust="spacing" textLength="79" x="638" y="93.5889">hash: 9527</text></g><!--link a to b--><g id="link_a_b"><path d="M126.36,75.5869 C135.8,75.5869 145.24,75.5869 154.68,75.5869 " fill="none" id="a-to-b" style="stroke:#181818;stroke-width:1.0;"/><polygon fill="#181818" points="159.56,75.5869,150.56,71.5869,154.56,75.5869,150.56,79.5869,159.56,75.5869" style="stroke:#181818;stroke-width:1.0;"/></g><!--link b to c--><g id="link_b_c"><path d="M280.36,75.5869 C289.8,75.5869 299.24,75.5869 308.68,75.5869 " fill="none" id="b-to-c" style="stroke:#181818;stroke-width:1.0;"/><polygon fill="#181818" points="313.56,75.5869,304.56,71.5869,308.56,75.5869,304.56,79.5869,313.56,75.5869" style="stroke:#181818;stroke-width:1.0;"/></g><!--link c to d--><g id="link_c_d"><path d="M434.36,75.5869 C443.8,75.5869 453.24,75.5869 462.68,75.5869 " fill="none" id="c-to-d" style="stroke:#181818;stroke-width:1.0;"/><polygon fill="#181818" points="467.56,75.5869,458.56,71.5869,462.56,75.5869,458.56,79.5869,467.56,75.5869" style="stroke:#181818;stroke-width:1.0;"/></g><!--link d to e--><g id="link_d_e"><path d="M588.36,75.5869 C597.8,75.5869 607.24,75.5869 616.68,75.5869 " fill="none" id="d-to-e" style="stroke:#181818;stroke-width:1.0;"/><polygon fill="#181818" points="621.56,75.5869,612.56,71.5869,616.56,75.5869,612.56,79.5869,621.56,75.5869" style="stroke:#181818;stroke-width:1.0;"/></g><!--SRC=[AyaioKbLU3bvtuk5AvvjdlfY-UAdRPkVJkvukgFdQTkcvwiQkQBzybDI3MFoCXABCwmKB4sDp6CL4eiL4Y4IHXWIIH09Omo9P8Y42OP42bUqdfuUXd0gLwA2hXtGl2GGbSoL3A9Ik590L2e0]--></g></svg>