<?xml version="1.0" encoding="us-ascii" standalone="no"?><svg xmlns="http://www.w3.org/2000/svg" xmlns:xlink="http://www.w3.org/1999/xlink" contentStyleType="text/css" height="551px" preserveAspectRatio="none" style="width:1749px;height:551px;background:#FFFFFF;" version="1.1" viewBox="0 0 1749 551" width="1749px" zoomAndPan="magnify"><defs/><g><text fill="#000000" font-family="Consolas" font-size="14" font-weight="bold" lengthAdjust="spacing" textLength="243" x="751.9375" y="27.9951">@Resource&#33719;&#21462;&#35201;&#27880;&#20837;&#30340;&#36164;&#28304;&#30340;&#27969;&#31243;</text><text fill="#000000" font-family="Consolas" font-size="14" font-weight="bold" lengthAdjust="spacing" textLength="342" x="702.4375" y="44.292">&#65288;ResourceElement#getResourceToInject&#65289;</text><ellipse cx="605.875" cy="68.5938" fill="#FFFFFF" rx="10" ry="10" style="stroke:#000000;stroke-width:1.0;"/><polygon fill="#FFFFFF" points="527.875,98.5938,683.875,98.5938,695.875,110.5938,683.875,122.5938,527.875,122.5938,515.875,110.5938,527.875,98.5938" style="stroke:#000000;stroke-width:1.0;"/><text fill="#000000" font-family="Consolas" font-size="14" lengthAdjust="spacing" textLength="156" x="527.875" y="115.4404">&#26159;&#21542;&#26631;&#27880;&#20102;@Lazy&#27880;&#35299;&#65311;</text><text fill="#000000" font-family="Consolas" font-size="14" lengthAdjust="spacing" textLength="14" x="501.875" y="107.292">&#26159;</text><text fill="#000000" font-family="Consolas" font-size="14" lengthAdjust="spacing" textLength="14" x="695.875" y="107.292">&#21542;</text><rect fill="#FFFFFF" height="52.5938" rx="12.5" ry="12.5" style="stroke:#000000;stroke-width:1.0;" width="474" x="6" y="132.5938"/><text fill="#000000" font-family="Consolas" font-size="14" lengthAdjust="spacing" textLength="112" x="20" y="155.5889">&#26500;&#24314;&#24310;&#36831;&#36164;&#28304;&#20195;&#29702;</text><text fill="#000000" font-family="Consolas" font-size="14" lengthAdjust="spacing" textLength="454" x="16" y="171.8857">CommonAnnotationBeanPostProcessor#buildLazyResourceProxy</text><rect fill="#FFFFFF" height="52.5938" rx="12.5" ry="12.5" style="stroke:#000000;stroke-width:1.0;" width="306" x="90" y="220.1875"/><text fill="#000000" font-family="Consolas" font-size="14" lengthAdjust="spacing" textLength="112" x="104" y="243.1826">&#36820;&#22238;&#36164;&#28304;&#20195;&#29702;&#23545;&#35937;</text><text fill="#000000" font-family="Consolas" font-size="14" lengthAdjust="spacing" textLength="286" x="100" y="259.4795">&#65288;&#31532;&#19968;&#27425;&#20351;&#29992;&#26102;&#25165;&#20250;&#35843;&#29992;getResource&#26041;&#27861;&#65289;</text><rect fill="#FFFFFF" height="341.1875" style="stroke:#000000;stroke-width:1.0;" width="1253.875" x="490" y="132.5938"/><path d="M947,132.5938 L947,141.8906 L937,151.8906 L490,151.8906 " fill="none" style="stroke:#000000;stroke-width:1.0;"/><text fill="#000000" font-family="Consolas" font-size="14" lengthAdjust="spacing" textLength="447" x="493" y="146.5889">&#33719;&#21462;&#36164;&#28304;&#65306;CommonAnnotationBeanPostProcessor#getResource</text><polygon fill="#FFFFFF" points="906.125,168.8906,1045.125,168.8906,1057.125,180.8906,1045.125,192.8906,906.125,192.8906,894.125,180.8906,906.125,168.8906" style="stroke:#000000;stroke-width:1.0;"/><text fill="#000000" font-family="Consolas" font-size="14" lengthAdjust="spacing" textLength="139" x="906.125" y="185.7373">&#26159;&#21542;&#25351;&#23450;&#20102;JNDI&#21517;&#31216;&#65311;</text><text fill="#000000" font-family="Consolas" font-size="14" lengthAdjust="spacing" textLength="14" x="880.125" y="177.5889">&#26159;</text><text fill="#000000" font-family="Consolas" font-size="14" lengthAdjust="spacing" textLength="14" x="1057.125" y="177.5889">&#21542;</text><rect fill="#FFFFFF" height="36.2969" rx="12.5" ry="12.5" style="stroke:#000000;stroke-width:1.0;" width="163" x="510" y="202.8906"/><text fill="#000000" font-family="Consolas" font-size="14" lengthAdjust="spacing" textLength="139" x="524" y="225.8857">&#20174;JNDI&#24037;&#21378;&#20013;&#33719;&#21462;&#36164;&#28304;</text><rect fill="#FFFFFF" height="228.8906" style="stroke:#000000;stroke-width:1.0;" width="1038.875" x="693" y="202.8906"/><path d="M1214,202.8906 L1214,212.1875 L1204,222.1875 L693,222.1875 " fill="none" style="stroke:#000000;stroke-width:1.0;"/><text fill="#000000" font-family="Consolas" font-size="14" lengthAdjust="spacing" textLength="511" x="696" y="216.8857">&#33258;&#21160;&#35013;&#37197;&#36164;&#28304;&#65306;CommonAnnotationBeanPostProcessor#autowireResource</text><polygon fill="#FFFFFF" points="1205.875,239.1875,1519.875,239.1875,1531.875,251.1875,1519.875,263.1875,1205.875,263.1875,1193.875,251.1875,1205.875,239.1875" style="stroke:#000000;stroke-width:1.0;"/><text fill="#000000" font-family="Consolas" font-size="14" lengthAdjust="spacing" textLength="314" x="1205.875" y="256.0342">&#24037;&#21378;&#31867;&#22411;&#26159;&#21542;&#26159;AutowireCapableBeanFactory&#65311;</text><text fill="#000000" font-family="Consolas" font-size="14" lengthAdjust="spacing" textLength="14" x="1179.875" y="247.8857">&#26159;</text><text fill="#000000" font-family="Consolas" font-size="14" lengthAdjust="spacing" textLength="14" x="1531.875" y="247.8857">&#21542;</text><polygon fill="#FFFFFF" points="1028.875,273.1875,1182.875,273.1875,1194.875,285.1875,1182.875,297.1875,1028.875,297.1875,1016.875,285.1875,1028.875,273.1875" style="stroke:#000000;stroke-width:1.0;"/><text fill="#000000" font-family="Consolas" font-size="14" lengthAdjust="spacing" textLength="154" x="1028.875" y="290.0342">&#26159;&#21542;&#25351;&#23450;&#20102;&#36164;&#28304;&#30340;&#21517;&#31216;&#65311;</text><text fill="#000000" font-family="Consolas" font-size="14" lengthAdjust="spacing" textLength="14" x="1002.875" y="281.8857">&#26159;</text><text fill="#000000" font-family="Consolas" font-size="14" lengthAdjust="spacing" textLength="14" x="1194.875" y="281.8857">&#21542;</text><rect fill="#FFFFFF" height="52.5938" rx="12.5" ry="12.5" style="stroke:#000000;stroke-width:1.0;" width="377" x="719.875" y="307.1875"/><text fill="#000000" font-family="Consolas" font-size="14" lengthAdjust="spacing" textLength="120" x="733.875" y="330.1826">&#36890;&#36807;&#21517;&#31216;&#35299;&#26512;Bean</text><text fill="#000000" font-family="Consolas" font-size="14" lengthAdjust="spacing" textLength="357" x="729.875" y="346.4795">AutowireCapableBeanFactory#resolveBeanByName</text><rect fill="#FFFFFF" height="52.5938" rx="12.5" ry="12.5" style="stroke:#000000;stroke-width:1.0;" width="373" x="1116.875" y="307.1875"/><text fill="#000000" font-family="Consolas" font-size="14" lengthAdjust="spacing" textLength="168" x="1130.875" y="330.1826">&#35299;&#26512;&#20381;&#36182;&#25551;&#36848;&#31526;&#23545;&#24212;&#30340;&#20381;&#36182;</text><text fill="#000000" font-family="Consolas" font-size="14" lengthAdjust="spacing" textLength="353" x="1126.875" y="346.4795">AutowireCapableBeanFactory#resolveDependency</text><polygon fill="#FFFFFF" points="1105.875,365.7813,1117.875,377.7813,1105.875,389.7813,1093.875,377.7813,1105.875,365.7813" style="stroke:#000000;stroke-width:1.0;"/><rect fill="#FFFFFF" height="52.5938" rx="12.5" ry="12.5" style="stroke:#000000;stroke-width:1.0;" width="200" x="1519.875" y="273.1875"/><text fill="#000000" font-family="Consolas" font-size="14" lengthAdjust="spacing" textLength="176" x="1533.875" y="296.1826">&#26681;&#25454;&#21517;&#31216;&#20174;&#24037;&#21378;&#20013;&#33719;&#21462;Bean</text><text fill="#000000" font-family="Consolas" font-size="14" lengthAdjust="spacing" textLength="157" x="1529.875" y="312.4795">BeanFactory#getBean</text><polygon fill="#FFFFFF" points="1362.875,395.7813,1374.875,407.7813,1362.875,419.7813,1350.875,407.7813,1362.875,395.7813" style="stroke:#000000;stroke-width:1.0;"/><polygon fill="#FFFFFF" points="975.625,437.7813,987.625,449.7813,975.625,461.7813,963.625,449.7813,975.625,437.7813" style="stroke:#000000;stroke-width:1.0;"/><polygon fill="#FFFFFF" points="605.875,479.7813,617.875,491.7813,605.875,503.7813,593.875,491.7813,605.875,479.7813" style="stroke:#000000;stroke-width:1.0;"/><ellipse cx="605.875" cy="534.7813" fill="#FFFFFF" rx="11" ry="11" style="stroke:#000000;stroke-width:1.0;"/><ellipse cx="605.875" cy="534.7813" fill="#000000" rx="6" ry="6" style="stroke:#7F7F7F;stroke-width:1.0;"/><line style="stroke:#000000;stroke-width:1.0;" x1="243" x2="243" y1="185.1875" y2="220.1875"/><polygon fill="#000000" points="239,210.1875,243,220.1875,247,210.1875,243,214.1875" style="stroke:#000000;stroke-width:1.0;"/><line style="stroke:#000000;stroke-width:1.0;" x1="1016.875" x2="908.375" y1="285.1875" y2="285.1875"/><line style="stroke:#000000;stroke-width:1.0;" x1="908.375" x2="908.375" y1="285.1875" y2="307.1875"/><polygon fill="#000000" points="904.375,297.1875,908.375,307.1875,912.375,297.1875,908.375,301.1875" style="stroke:#000000;stroke-width:1.0;"/><line style="stroke:#000000;stroke-width:1.0;" x1="1194.875" x2="1303.375" y1="285.1875" y2="285.1875"/><line style="stroke:#000000;stroke-width:1.0;" x1="1303.375" x2="1303.375" y1="285.1875" y2="307.1875"/><polygon fill="#000000" points="1299.375,297.1875,1303.375,307.1875,1307.375,297.1875,1303.375,301.1875" style="stroke:#000000;stroke-width:1.0;"/><line style="stroke:#000000;stroke-width:1.0;" x1="908.375" x2="908.375" y1="359.7813" y2="377.7813"/><line style="stroke:#000000;stroke-width:1.0;" x1="908.375" x2="1093.875" y1="377.7813" y2="377.7813"/><polygon fill="#000000" points="1083.875,373.7813,1093.875,377.7813,1083.875,381.7813,1087.875,377.7813" style="stroke:#000000;stroke-width:1.0;"/><line style="stroke:#000000;stroke-width:1.0;" x1="1303.375" x2="1303.375" y1="359.7813" y2="377.7813"/><line style="stroke:#000000;stroke-width:1.0;" x1="1303.375" x2="1117.875" y1="377.7813" y2="377.7813"/><polygon fill="#000000" points="1127.875,373.7813,1117.875,377.7813,1127.875,381.7813,1123.875,377.7813" style="stroke:#000000;stroke-width:1.0;"/><line style="stroke:#000000;stroke-width:1.0;" x1="1193.875" x2="1105.875" y1="251.1875" y2="251.1875"/><line style="stroke:#000000;stroke-width:1.0;" x1="1105.875" x2="1105.875" y1="251.1875" y2="273.1875"/><polygon fill="#000000" points="1101.875,263.1875,1105.875,273.1875,1109.875,263.1875,1105.875,267.1875" style="stroke:#000000;stroke-width:1.0;"/><line style="stroke:#000000;stroke-width:1.0;" x1="1531.875" x2="1619.875" y1="251.1875" y2="251.1875"/><line style="stroke:#000000;stroke-width:1.0;" x1="1619.875" x2="1619.875" y1="251.1875" y2="273.1875"/><polygon fill="#000000" points="1615.875,263.1875,1619.875,273.1875,1623.875,263.1875,1619.875,267.1875" style="stroke:#000000;stroke-width:1.0;"/><line style="stroke:#000000;stroke-width:1.0;" x1="1105.875" x2="1105.875" y1="389.7813" y2="407.7813"/><line style="stroke:#000000;stroke-width:1.0;" x1="1105.875" x2="1350.875" y1="407.7813" y2="407.7813"/><polygon fill="#000000" points="1340.875,403.7813,1350.875,407.7813,1340.875,411.7813,1344.875,407.7813" style="stroke:#000000;stroke-width:1.0;"/><line style="stroke:#000000;stroke-width:1.0;" x1="1619.875" x2="1619.875" y1="325.7813" y2="407.7813"/><line style="stroke:#000000;stroke-width:1.0;" x1="1619.875" x2="1374.875" y1="407.7813" y2="407.7813"/><polygon fill="#000000" points="1384.875,403.7813,1374.875,407.7813,1384.875,411.7813,1380.875,407.7813" style="stroke:#000000;stroke-width:1.0;"/><line style="stroke:#000000;stroke-width:1.0;" x1="894.125" x2="591.5" y1="180.8906" y2="180.8906"/><line style="stroke:#000000;stroke-width:1.0;" x1="591.5" x2="591.5" y1="180.8906" y2="202.8906"/><polygon fill="#000000" points="587.5,192.8906,591.5,202.8906,595.5,192.8906,591.5,196.8906" style="stroke:#000000;stroke-width:1.0;"/><line style="stroke:#000000;stroke-width:1.0;" x1="1057.125" x2="1362.875" y1="180.8906" y2="180.8906"/><line style="stroke:#000000;stroke-width:1.0;" x1="1362.875" x2="1362.875" y1="180.8906" y2="239.1875"/><polygon fill="#000000" points="1358.875,229.1875,1362.875,239.1875,1366.875,229.1875,1362.875,233.1875" style="stroke:#000000;stroke-width:1.0;"/><line style="stroke:#000000;stroke-width:1.0;" x1="591.5" x2="591.5" y1="239.1875" y2="449.7813"/><line style="stroke:#000000;stroke-width:1.0;" x1="591.5" x2="963.625" y1="449.7813" y2="449.7813"/><polygon fill="#000000" points="953.625,445.7813,963.625,449.7813,953.625,453.7813,957.625,449.7813" style="stroke:#000000;stroke-width:1.0;"/><line style="stroke:#000000;stroke-width:1.0;" x1="1362.875" x2="1362.875" y1="419.7813" y2="449.7813"/><line style="stroke:#000000;stroke-width:1.0;" x1="1362.875" x2="987.625" y1="449.7813" y2="449.7813"/><polygon fill="#000000" points="997.625,445.7813,987.625,449.7813,997.625,453.7813,993.625,449.7813" style="stroke:#000000;stroke-width:1.0;"/><line style="stroke:#000000;stroke-width:1.0;" x1="515.875" x2="243" y1="110.5938" y2="110.5938"/><line style="stroke:#000000;stroke-width:1.0;" x1="243" x2="243" y1="110.5938" y2="132.5938"/><polygon fill="#000000" points="239,122.5938,243,132.5938,247,122.5938,243,126.5938" style="stroke:#000000;stroke-width:1.0;"/><line style="stroke:#000000;stroke-width:1.0;" x1="695.875" x2="975.625" y1="110.5938" y2="110.5938"/><line style="stroke:#000000;stroke-width:1.0;" x1="975.625" x2="975.625" y1="110.5938" y2="168.8906"/><polygon fill="#000000" points="971.625,158.8906,975.625,168.8906,979.625,158.8906,975.625,162.8906" style="stroke:#000000;stroke-width:1.0;"/><line style="stroke:#000000;stroke-width:1.0;" x1="243" x2="243" y1="272.7813" y2="491.7813"/><line style="stroke:#000000;stroke-width:1.0;" x1="243" x2="593.875" y1="491.7813" y2="491.7813"/><polygon fill="#000000" points="583.875,487.7813,593.875,491.7813,583.875,495.7813,587.875,491.7813" style="stroke:#000000;stroke-width:1.0;"/><line style="stroke:#000000;stroke-width:1.0;" x1="975.625" x2="975.625" y1="461.7813" y2="491.7813"/><line style="stroke:#000000;stroke-width:1.0;" x1="975.625" x2="617.875" y1="491.7813" y2="491.7813"/><polygon fill="#000000" points="627.875,487.7813,617.875,491.7813,627.875,495.7813,623.875,491.7813" style="stroke:#000000;stroke-width:1.0;"/><line style="stroke:#000000;stroke-width:1.0;" x1="605.875" x2="605.875" y1="78.5938" y2="98.5938"/><polygon fill="#000000" points="601.875,88.5938,605.875,98.5938,609.875,88.5938,605.875,92.5938" style="stroke:#000000;stroke-width:1.0;"/><line style="stroke:#000000;stroke-width:1.0;" x1="605.875" x2="605.875" y1="503.7813" y2="523.7813"/><polygon fill="#000000" points="601.875,513.7813,605.875,523.7813,609.875,513.7813,605.875,517.7813" style="stroke:#000000;stroke-width:1.0;"/><!--SRC=[bPDFJnD16CRFxATOqmiSIJpP2r0amHX2r6ClGtUAgzkPpUvKBIVGbehOFuTQo1eBfA4qfj8IKg1_j5zcPtOuzIiukzl22XBqjlFEcz_pFE-y-u2yX0aewnfGaMI-Lf4E392GYKeqk80HUQwkGNdwOU1AWN6GrCYzbqj0S2COcLW3fkG1vPbdqCH98mPv_fmMohosmKxhD7FeM6dUJhDkKNomzePJtuwYOV_ZkFkn9ZmY4bg5P5nwWHVHAnWZm_wM99a464HIu_8asstIOetjPmNNxcxEF0LhAV79Zwh3_jwKBC8YhsbAcdWaiqgQzhgqTyO7UxwytQiwnSqeYk140gDPX301HCLe3WAqZ4soRE0OD4riX5QIggQuzB4XSVKk5NQnV52YNoj186rs-Cc15ybfDEoBTTOui7yEd5ATxPonhPpTjtZhWpW60h9oXvr-4V724jHCA4-ANCBrge6JkZmQdoSnx5ltsms0fOd0e3vdwR4b1lLaQNwH5dFEKUlMd4GYkvVt6iuFQVwzVV4ZA2yY1_sD3MQ_qqzrNirSPdB_OHCa2Nwh6l3QgsVM5tPEUhIoFJA-svmTzKQ03bOqwC8MG8nW8tKxmjyYNotSNRdTv9Vh5Xza_GwnHAnIT7MYw6xna26yQs-yqbpA_Gd2BkkF6RbadsR_-iRRPLOey47BQTJ4ej1kINZow_-YCmzrY1I8OYbV1obgNBgf9tPzlyDontuGyPmtdj8F5QIBXN6FBlCAYHJPUrrfNBgk-0MJOFqt]--></g></svg>