<?xml version="1.0" encoding="us-ascii" standalone="no"?><svg xmlns="http://www.w3.org/2000/svg" xmlns:xlink="http://www.w3.org/1999/xlink" contentStyleType="text/css" height="381px" preserveAspectRatio="none" style="width:1023px;height:381px;background:#FFFFFF;" version="1.1" viewBox="0 0 1023 381" width="1023px" zoomAndPan="magnify"><defs/><g><!--class DependencyDescriptor--><g id="elem_DependencyDescriptor"><rect codeLine="1" fill="#F1F1F1" height="243.5625" id="DependencyDescriptor" rx="2.5" ry="2.5" style="stroke:#181818;stroke-width:0.5;" width="385" x="631" y="7"/><ellipse cx="738.75" cy="23" fill="#ADD1B2" rx="11" ry="11" style="stroke:#181818;stroke-width:1.0;"/><path d="M741.7188,28.6406 Q741.1406,28.9375 740.5,29.0781 Q739.8594,29.2344 739.1563,29.2344 Q736.6563,29.2344 735.3281,27.5938 Q734.0156,25.9375 734.0156,22.8125 Q734.0156,19.6875 735.3281,18.0313 Q736.6563,16.375 739.1563,16.375 Q739.8594,16.375 740.5,16.5313 Q741.1563,16.6875 741.7188,16.9844 L741.7188,19.7031 Q741.0938,19.125 740.5,18.8594 Q739.9063,18.5781 739.2813,18.5781 Q737.9375,18.5781 737.25,19.6563 Q736.5625,20.7188 736.5625,22.8125 Q736.5625,24.9063 737.25,25.9844 Q737.9375,27.0469 739.2813,27.0469 Q739.9063,27.0469 740.5,26.7813 Q741.0938,26.5 741.7188,25.9219 L741.7188,28.6406 Z " fill="#000000"/><text fill="#000000" font-family="sans-serif" font-size="14" lengthAdjust="spacing" textLength="161" x="759.25" y="27.8467">DependencyDescriptor</text><line style="stroke:#181818;stroke-width:0.5;" x1="632" x2="1015" y1="39" y2="39"/><rect fill="none" height="6" style="stroke:#C82930;stroke-width:1.0;" width="6" x="639" y="49.6484"/><text fill="#000000" font-family="sans-serif" font-size="14" lengthAdjust="spacing" textLength="141" x="651" y="55.9951">Class declaringClass</text><rect fill="none" height="6" style="stroke:#C82930;stroke-width:1.0;" width="6" x="639" y="65.9453"/><text fill="#000000" font-family="sans-serif" font-size="14" lengthAdjust="spacing" textLength="138" x="651" y="72.292">String methodName</text><rect fill="none" height="6" style="stroke:#C82930;stroke-width:1.0;" width="6" x="639" y="82.2422"/><text fill="#000000" font-family="sans-serif" font-size="14" lengthAdjust="spacing" textLength="155" x="651" y="88.5889">Class[] paramterTypes</text><rect fill="none" height="6" style="stroke:#C82930;stroke-width:1.0;" width="6" x="639" y="98.5391"/><text fill="#000000" font-family="sans-serif" font-size="14" lengthAdjust="spacing" textLength="129" x="651" y="104.8857">int parameterIndex</text><rect fill="none" height="6" style="stroke:#C82930;stroke-width:1.0;" width="6" x="639" y="114.8359"/><text fill="#000000" font-family="sans-serif" font-size="14" lengthAdjust="spacing" textLength="112" x="651" y="121.1826">String fieldName</text><rect fill="none" height="6" style="stroke:#C82930;stroke-width:1.0;" width="6" x="639" y="131.1328"/><text fill="#000000" font-family="sans-serif" font-size="14" lengthAdjust="spacing" textLength="118" x="651" y="137.4795">boolean required</text><rect fill="none" height="6" style="stroke:#C82930;stroke-width:1.0;" width="6" x="639" y="147.4297"/><text fill="#000000" font-family="sans-serif" font-size="14" lengthAdjust="spacing" textLength="100" x="651" y="153.7764">boolean eager</text><line style="stroke:#181818;stroke-width:0.5;" x1="632" x2="1015" y1="161.0781" y2="161.0781"/><ellipse cx="642" cy="174.7266" fill="#84BE84" rx="3" ry="3" style="stroke:#038048;stroke-width:1.0;"/><text fill="#000000" font-family="sans-serif" font-size="14" lengthAdjust="spacing" textLength="359" x="651" y="178.0732">DependencyDescriptor(MethodParameter, boolean)</text><ellipse cx="642" cy="191.0234" fill="#84BE84" rx="3" ry="3" style="stroke:#038048;stroke-width:1.0;"/><text fill="#000000" font-family="sans-serif" font-size="14" lengthAdjust="spacing" textLength="267" x="651" y="194.3701">DependencyDescriptor(Field, boolean)</text><ellipse cx="642" cy="207.3203" fill="#84BE84" rx="3" ry="3" style="stroke:#038048;stroke-width:1.0;"/><text fill="#000000" font-family="sans-serif" font-size="14" lengthAdjust="spacing" textLength="206" x="651" y="210.667">getDependencyName() String</text><ellipse cx="642" cy="223.6172" fill="#84BE84" rx="3" ry="3" style="stroke:#038048;stroke-width:1.0;"/><text fill="#000000" font-family="sans-serif" font-size="14" lengthAdjust="spacing" textLength="197" x="651" y="226.9639">getDependencyType() Class</text><ellipse cx="642" cy="239.9141" fill="#84BE84" rx="3" ry="3" style="stroke:#038048;stroke-width:1.0;"/><text fill="#000000" font-family="sans-serif" font-size="14" lengthAdjust="spacing" textLength="144" x="651" y="243.2607">isRequired() boolean</text></g><!--class AutowireCapableBeanFactory--><g id="elem_AutowireCapableBeanFactory"><rect codeLine="16" fill="#F1F1F1" height="64.2969" id="AutowireCapableBeanFactory" rx="2.5" ry="2.5" style="stroke:#181818;stroke-width:0.5;" width="589" x="7" y="96.63"/><ellipse cx="196.25" cy="112.63" fill="#B4A7E5" rx="11" ry="11" style="stroke:#181818;stroke-width:1.0;"/><path d="M192.1719,108.3956 L192.1719,106.2394 L199.5625,106.2394 L199.5625,108.3956 L197.0938,108.3956 L197.0938,116.4738 L199.5625,116.4738 L199.5625,118.63 L192.1719,118.63 L192.1719,116.4738 L194.6406,116.4738 L194.6406,108.3956 L192.1719,108.3956 Z " fill="#000000"/><text fill="#000000" font-family="sans-serif" font-size="14" font-style="italic" lengthAdjust="spacing" textLength="202" x="216.75" y="117.4767">AutowireCapableBeanFactory</text><line style="stroke:#181818;stroke-width:0.5;" x1="8" x2="595" y1="128.63" y2="128.63"/><line style="stroke:#181818;stroke-width:0.5;" x1="8" x2="595" y1="136.63" y2="136.63"/><ellipse cx="18" cy="150.2784" fill="#84BE84" rx="3" ry="3" style="stroke:#038048;stroke-width:1.0;"/><text fill="#000000" font-family="sans-serif" font-size="14" lengthAdjust="spacing" textLength="563" x="27" y="153.6251">resolveDependency(DependencyDescriptor, String, Set&lt;String&gt;, TypeConverter)</text></g><!--class DefaultListableBeanFactory--><g id="elem_DefaultListableBeanFactory"><rect codeLine="20" fill="#F1F1F1" height="64.2969" id="DefaultListableBeanFactory" rx="2.5" ry="2.5" style="stroke:#181818;stroke-width:0.5;" width="589" x="7" y="310.56"/><ellipse cx="203.75" cy="326.56" fill="#ADD1B2" rx="11" ry="11" style="stroke:#181818;stroke-width:1.0;"/><path d="M206.7188,332.2006 Q206.1406,332.4975 205.5,332.6381 Q204.8594,332.7944 204.1563,332.7944 Q201.6563,332.7944 200.3281,331.1538 Q199.0156,329.4975 199.0156,326.3725 Q199.0156,323.2475 200.3281,321.5913 Q201.6563,319.935 204.1563,319.935 Q204.8594,319.935 205.5,320.0913 Q206.1563,320.2475 206.7188,320.5444 L206.7188,323.2631 Q206.0938,322.685 205.5,322.4194 Q204.9063,322.1381 204.2813,322.1381 Q202.9375,322.1381 202.25,323.2163 Q201.5625,324.2788 201.5625,326.3725 Q201.5625,328.4663 202.25,329.5444 Q202.9375,330.6069 204.2813,330.6069 Q204.9063,330.6069 205.5,330.3413 Q206.0938,330.06 206.7188,329.4819 L206.7188,332.2006 Z " fill="#000000"/><text fill="#000000" font-family="sans-serif" font-size="14" lengthAdjust="spacing" textLength="187" x="224.25" y="331.4067">DefaultListableBeanFactory</text><line style="stroke:#181818;stroke-width:0.5;" x1="8" x2="595" y1="342.56" y2="342.56"/><line style="stroke:#181818;stroke-width:0.5;" x1="8" x2="595" y1="350.56" y2="350.56"/><ellipse cx="18" cy="364.2084" fill="#84BE84" rx="3" ry="3" style="stroke:#038048;stroke-width:1.0;"/><text fill="#000000" font-family="sans-serif" font-size="14" lengthAdjust="spacing" textLength="563" x="27" y="367.5551">resolveDependency(DependencyDescriptor, String, Set&lt;String&gt;, TypeConverter)</text></g><!--reverse link AutowireCapableBeanFactory to DefaultListableBeanFactory--><g id="link_AutowireCapableBeanFactory_DefaultListableBeanFactory"><path codeLine="24" d="M301.5,182.02 C301.5,222.25 301.5,276.53 301.5,310.31 " fill="none" id="AutowireCapableBeanFactory-backto-DefaultListableBeanFactory" style="stroke:#181818;stroke-width:1.0;stroke-dasharray:7.0,7.0;"/><polygon fill="none" points="294.5,182.05,301.5,162.05,308.5,182.05,294.5,182.05" style="stroke:#181818;stroke-width:1.0;"/></g><!--link AutowireCapableBeanFactory to DependencyDescriptor--><g id="link_AutowireCapableBeanFactory_DependencyDescriptor"><path codeLine="25" d="M596.4,128.78 C605.83,128.78 615.26,128.78 624.68,128.78 " fill="none" id="AutowireCapableBeanFactory-to-DependencyDescriptor" style="stroke:#181818;stroke-width:1.0;stroke-dasharray:7.0,7.0;"/><polygon fill="#181818" points="629.55,128.78,620.55,124.78,624.55,128.78,620.55,132.78,629.55,128.78" style="stroke:#181818;stroke-width:1.0;"/></g><!--SRC=[lP7FJeGm4CRFswVe4GBo18P4sMnYeiQeD-DXjWpOfBJObbMYlhjJjll7k7Bq1Ftcwto_cGe5pl4bzgXhr69SeXDMzjvO_i4MPxoQwZKA1LRgTZe6_S678-_GlvZw5ZhScv-UUGyMEe_sSUnnSaljjoAIUaL9xqSz6ebgts9jZ4BGtEBh82tMnnf2YvOjifEuoSs4ShTBoNVNqZzlh4BmJr-B_c0DJ4aQCNzLmt1KZHl9k7JtaPdKs9DzCKQpesr08ByOl7aZGmKzh1LUac45WaZ6iEkCPdP6RV0GaPp2pYCGVT6VR__Bd0USokWDMefBGx28Jzl0eForTFu_GcVYYg7uB6UMm6RsKzYYFFc8tm00]--></g></svg>