<?xml version="1.0" encoding="us-ascii" standalone="no"?><svg xmlns="http://www.w3.org/2000/svg" xmlns:xlink="http://www.w3.org/1999/xlink" contentStyleType="text/css" height="78px" preserveAspectRatio="none" style="width:745px;height:78px;background:#FFFFFF;" version="1.1" viewBox="0 0 745 78" width="745px" zoomAndPan="magnify"><defs/><g><!--class BootstrapRegistryInitializer--><g id="elem_BootstrapRegistryInitializer"><rect codeLine="1" fill="#F1F1F1" height="64.2969" id="BootstrapRegistryInitializer" rx="2.5" ry="2.5" style="stroke:#181818;stroke-width:0.5;" width="246" x="492" y="7"/><ellipse cx="520.95" cy="23" fill="#B4A7E5" rx="11" ry="11" style="stroke:#181818;stroke-width:1.0;"/><path d="M516.8719,18.7656 L516.8719,16.6094 L524.2625,16.6094 L524.2625,18.7656 L521.7938,18.7656 L521.7938,26.8438 L524.2625,26.8438 L524.2625,29 L516.8719,29 L516.8719,26.8438 L519.3406,26.8438 L519.3406,18.7656 L516.8719,18.7656 Z " fill="#000000"/><text fill="#000000" font-family="sans-serif" font-size="14" font-style="italic" lengthAdjust="spacing" textLength="183" x="538.05" y="27.8467">BootstrapRegistryInitializer</text><line style="stroke:#181818;stroke-width:0.5;" x1="493" x2="737" y1="39" y2="39"/><line style="stroke:#181818;stroke-width:0.5;" x1="493" x2="737" y1="47" y2="47"/><ellipse cx="503" cy="60.6484" fill="#84BE84" rx="3" ry="3" style="stroke:#038048;stroke-width:1.0;"/><text fill="#000000" font-family="sans-serif" font-size="14" lengthAdjust="spacing" textLength="220" x="512" y="63.9951">initialize(BootstrapRegistry) void</text></g><!--class SpringApplication--><g id="elem_SpringApplication"><rect codeLine="4" fill="#F1F1F1" height="64.2969" id="SpringApplication" rx="2.5" ry="2.5" style="stroke:#181818;stroke-width:0.5;" width="450" x="7" y="7"/><ellipse cx="168.25" cy="23" fill="#ADD1B2" rx="11" ry="11" style="stroke:#181818;stroke-width:1.0;"/><path d="M171.2188,28.6406 Q170.6406,28.9375 170,29.0781 Q169.3594,29.2344 168.6563,29.2344 Q166.1563,29.2344 164.8281,27.5938 Q163.5156,25.9375 163.5156,22.8125 Q163.5156,19.6875 164.8281,18.0313 Q166.1563,16.375 168.6563,16.375 Q169.3594,16.375 170,16.5313 Q170.6563,16.6875 171.2188,16.9844 L171.2188,19.7031 Q170.5938,19.125 170,18.8594 Q169.4063,18.5781 168.7813,18.5781 Q167.4375,18.5781 166.75,19.6563 Q166.0625,20.7188 166.0625,22.8125 Q166.0625,24.9063 166.75,25.9844 Q167.4375,27.0469 168.7813,27.0469 Q169.4063,27.0469 170,26.7813 Q170.5938,26.5 171.2188,25.9219 L171.2188,28.6406 Z " fill="#000000"/><text fill="#000000" font-family="sans-serif" font-size="14" lengthAdjust="spacing" textLength="119" x="188.75" y="27.8467">SpringApplication</text><line style="stroke:#181818;stroke-width:0.5;" x1="8" x2="456" y1="39" y2="39"/><rect fill="none" height="6" style="stroke:#C82930;stroke-width:1.0;" width="6" x="15" y="49.6484"/><text fill="#000000" font-family="sans-serif" font-size="14" lengthAdjust="spacing" textLength="424" x="27" y="55.9951">List&lt;BootstrapRegistryInitializer&gt; bootstrapRegistryInitializers</text><line style="stroke:#181818;stroke-width:0.5;" x1="8" x2="456" y1="63.2969" y2="63.2969"/></g><!--reverse link SpringApplication to BootstrapRegistryInitializer--><g id="link_SpringApplication_BootstrapRegistryInitializer"><path codeLine="7" d="M470.92,39.15 C477.84,39.15 484.77,39.15 491.69,39.15 " fill="none" id="SpringApplication-backto-BootstrapRegistryInitializer" style="stroke:#181818;stroke-width:1.0;stroke-dasharray:7.0,7.0;"/><polygon fill="#181818" points="458.16,39.15,464.16,43.15,470.16,39.15,464.16,35.15,458.16,39.15" style="stroke:#181818;stroke-width:1.0;"/><text fill="#000000" font-family="sans-serif" font-size="13" lengthAdjust="spacing" textLength="8" x="464.6793" y="35.973">1</text><text fill="#000000" font-family="sans-serif" font-size="13" lengthAdjust="spacing" textLength="8" x="475.932" y="35.764">n</text></g><!--SRC=[oymhIIrAIqnELN3ApoyfBYbAB0XAJSy4CYezyp9BCXDpCgjIYnIgkJYr5JBX0XeOYZKLol8pKxXgkP9p4ekB5O8BYZBpqXqB2d8oanDBClFpG2ReAlW0rThWiyXE8GcFR37GV4oJbGoL5BJqYlGKbFAKyFe20000]--></g></svg>