<?xml version="1.0" encoding="us-ascii" standalone="no"?><svg xmlns="http://www.w3.org/2000/svg" xmlns:xlink="http://www.w3.org/1999/xlink" contentStyleType="text/css" height="645px" preserveAspectRatio="none" style="width:813px;height:645px;background:#FFFFFF;" version="1.1" viewBox="0 0 813 645" width="813px" zoomAndPan="magnify"><defs/><g><rect fill="none" height="623.7861" style="stroke:#000000;stroke-width:1.5;" width="791" x="11" y="11"/><path d="M255,11 L255,20.2969 L245,30.2969 L11,30.2969 " fill="none" style="stroke:#000000;stroke-width:1.5;"/><text fill="#000000" font-family="sans-serif" font-size="14" lengthAdjust="spacing" textLength="234" x="14" y="24.9951">AbstractBeanFactory#doGetBean</text><ellipse cx="536.875" cy="50.2969" fill="#222222" rx="10" ry="10" style="stroke:#222222;stroke-width:1.0;"/><rect fill="#F1F1F1" height="33.9688" rx="12.5" ry="12.5" style="stroke:#181818;stroke-width:0.5;" width="108" x="482.875" y="80.2969"/><text fill="#000000" font-family="sans-serif" font-size="12" lengthAdjust="spacing" textLength="84" x="496.875" y="101.4355">&#36716;&#25442;&#20256;&#20837;&#30340;&#21517;&#31216;</text><rect fill="#F1F1F1" height="33.9688" rx="12.5" ry="12.5" style="stroke:#181818;stroke-width:0.5;" width="152" x="460.875" y="134.2656"/><text fill="#000000" font-family="sans-serif" font-size="12" lengthAdjust="spacing" textLength="128" x="474.875" y="155.4043">&#20174;&#21333;&#20363;&#32531;&#23384;&#20013;&#33719;&#21462;Bean</text><polygon fill="#F1F1F1" points="461.875,188.2344,611.875,188.2344,623.875,200.2344,611.875,212.2344,461.875,212.2344,449.875,200.2344,461.875,188.2344" style="stroke:#181818;stroke-width:0.5;"/><text fill="#000000" font-family="sans-serif" font-size="11" lengthAdjust="spacing" textLength="150" x="461.875" y="204.0425">&#21333;&#20363;&#32531;&#23384;&#20013;&#26159;&#21542;&#23384;&#22312;&#35813;Bean&#65311;</text><text fill="#000000" font-family="sans-serif" font-size="11" lengthAdjust="spacing" textLength="11" x="438.875" y="197.6401">&#21542;</text><text fill="#000000" font-family="sans-serif" font-size="11" lengthAdjust="spacing" textLength="106" x="623.875" y="197.6401">&#26159;&#65292;&#30452;&#25509;&#36820;&#22238;&#35813;Bean</text><polygon fill="#F1F1F1" points="256.75,222.2344,462.75,222.2344,474.75,235.0391,462.75,247.8438,256.75,247.8438,244.75,235.0391,256.75,222.2344" style="stroke:#181818;stroke-width:0.5;"/><text fill="#000000" font-family="sans-serif" font-size="11" lengthAdjust="spacing" textLength="206" x="256.75" y="232.4448">&#23384;&#22312;&#29238;BeanFactory&#19988;&#24403;&#21069;BeanFactory</text><text fill="#000000" font-family="sans-serif" font-size="11" lengthAdjust="spacing" textLength="137" x="256.75" y="245.2495">&#19981;&#21253;&#21547;&#35813;BeanDefinition&#65311;</text><text fill="#000000" font-family="sans-serif" font-size="11" lengthAdjust="spacing" textLength="11" x="233.75" y="232.4448">&#21542;</text><text fill="#000000" font-family="sans-serif" font-size="11" lengthAdjust="spacing" textLength="11" x="474.75" y="232.4448">&#26159;</text><rect fill="#F1F1F1" height="33.9688" rx="12.5" ry="12.5" style="stroke:#181818;stroke-width:0.5;" width="139" x="139" y="257.8438"/><text fill="#000000" font-family="sans-serif" font-size="12" lengthAdjust="spacing" textLength="115" x="153" y="278.9824">&#21512;&#24182;BeanDefinition</text><rect fill="#F1F1F1" height="33.9688" rx="12.5" ry="12.5" style="stroke:#181818;stroke-width:0.5;" width="84" x="166.5" y="311.8125"/><text fill="#000000" font-family="sans-serif" font-size="12" lengthAdjust="spacing" textLength="60" x="180.5" y="332.9512">&#26816;&#26597;&#20381;&#36182;&#39033;</text><rect fill="none" height="82.2656" style="stroke:#000000;stroke-width:1.5;" width="371" x="23" y="356.583"/><path d="M384,356.583 L384,365.8799 L374,375.8799 L23,375.8799 " fill="none" style="stroke:#000000;stroke-width:1.5;"/><text fill="#000000" font-family="sans-serif" font-size="14" lengthAdjust="spacing" textLength="351" x="26" y="370.5781">AbstractAutowireCapableBeanFactory#createBean</text><rect fill="#F1F1F1" height="33.9688" rx="12.5" ry="12.5" style="stroke:#181818;stroke-width:0.5;" width="152" x="132.5" y="392.8799"/><text fill="#000000" font-family="sans-serif" font-size="12" lengthAdjust="spacing" textLength="128" x="146.5" y="414.0186">&#26681;&#25454;&#20316;&#29992;&#22495;&#26469;&#21019;&#24314;Bean</text><rect fill="#F1F1F1" height="33.9688" rx="12.5" ry="12.5" style="stroke:#181818;stroke-width:0.5;" width="152" x="132.5" y="458.8486"/><text fill="#000000" font-family="sans-serif" font-size="12" lengthAdjust="spacing" textLength="128" x="146.5" y="479.9873">&#20174;Bean&#23454;&#20363;&#20013;&#33719;&#21462;&#23545;&#35937;</text><rect fill="#F1F1F1" height="33.9688" rx="12.5" ry="12.5" style="stroke:#181818;stroke-width:0.5;" width="194" x="414" y="257.8438"/><text fill="#000000" font-family="sans-serif" font-size="12" lengthAdjust="spacing" textLength="170" x="428" y="278.9824">&#20174;&#29238;BeanFactory&#20013;&#33719;&#21462;Bean</text><ellipse cx="511" cy="322.8125" fill="none" rx="11" ry="11" style="stroke:#222222;stroke-width:1.0;"/><ellipse cx="511" cy="322.8125" fill="#222222" rx="6" ry="6" style="stroke:#111111;stroke-width:1.0;"/><rect fill="#F1F1F1" height="33.9688" rx="12.5" ry="12.5" style="stroke:#181818;stroke-width:0.5;" width="152" x="638" y="222.2344"/><text fill="#000000" font-family="sans-serif" font-size="12" lengthAdjust="spacing" textLength="128" x="652" y="243.373">&#20174;Bean&#23454;&#20363;&#20013;&#33719;&#21462;&#23545;&#35937;</text><polygon fill="#F1F1F1" points="536.875,502.8174,548.875,514.8174,536.875,526.8174,524.875,514.8174,536.875,502.8174" style="stroke:#181818;stroke-width:0.5;"/><rect fill="#F1F1F1" height="33.9688" rx="12.5" ry="12.5" style="stroke:#181818;stroke-width:0.5;" width="140" x="466.875" y="546.8174"/><text fill="#000000" font-family="sans-serif" font-size="12" lengthAdjust="spacing" textLength="116" x="480.875" y="567.9561">&#36866;&#37197;Bean&#23454;&#20363;&#30340;&#31867;&#22411;</text><ellipse cx="536.875" cy="611.7861" fill="none" rx="11" ry="11" style="stroke:#222222;stroke-width:1.0;"/><ellipse cx="536.875" cy="611.7861" fill="#222222" rx="6" ry="6" style="stroke:#111111;stroke-width:1.0;"/><line style="stroke:#181818;stroke-width:1.0;" x1="536.875" x2="536.875" y1="60.2969" y2="80.2969"/><polygon fill="#181818" points="532.875,70.2969,536.875,80.2969,540.875,70.2969,536.875,74.2969" style="stroke:#181818;stroke-width:1.0;"/><line style="stroke:#181818;stroke-width:1.0;" x1="536.875" x2="536.875" y1="114.2656" y2="134.2656"/><polygon fill="#181818" points="532.875,124.2656,536.875,134.2656,540.875,124.2656,536.875,128.2656" style="stroke:#181818;stroke-width:1.0;"/><line style="stroke:#181818;stroke-width:1.0;" x1="208.5" x2="208.5" y1="291.8125" y2="311.8125"/><polygon fill="#181818" points="204.5,301.8125,208.5,311.8125,212.5,301.8125,208.5,305.8125" style="stroke:#181818;stroke-width:1.0;"/><line style="stroke:#181818;stroke-width:1.0;" x1="208.5" x2="208.5" y1="345.7813" y2="392.8799"/><polygon fill="#181818" points="204.5,382.8799,208.5,392.8799,212.5,382.8799,208.5,386.8799" style="stroke:#181818;stroke-width:1.0;"/><line style="stroke:#181818;stroke-width:1.0;" x1="208.5" x2="208.5" y1="426.8486" y2="458.8486"/><polygon fill="#181818" points="204.5,448.8486,208.5,458.8486,212.5,448.8486,208.5,452.8486" style="stroke:#181818;stroke-width:1.0;"/><line style="stroke:#181818;stroke-width:1.0;" x1="511" x2="511" y1="291.8125" y2="311.8125"/><polygon fill="#181818" points="507,301.8125,511,311.8125,515,301.8125,511,305.8125" style="stroke:#181818;stroke-width:1.0;"/><line style="stroke:#181818;stroke-width:1.0;" x1="244.75" x2="208.5" y1="235.0391" y2="235.0391"/><line style="stroke:#181818;stroke-width:1.0;" x1="208.5" x2="208.5" y1="235.0391" y2="257.8438"/><polygon fill="#181818" points="204.5,247.8438,208.5,257.8438,212.5,247.8438,208.5,251.8438" style="stroke:#181818;stroke-width:1.0;"/><line style="stroke:#181818;stroke-width:1.0;" x1="474.75" x2="511" y1="235.0391" y2="235.0391"/><line style="stroke:#181818;stroke-width:1.0;" x1="511" x2="511" y1="235.0391" y2="257.8438"/><polygon fill="#181818" points="507,247.8438,511,257.8438,515,247.8438,511,251.8438" style="stroke:#181818;stroke-width:1.0;"/><line style="stroke:#181818;stroke-width:1.0;" x1="208.5" x2="208.5" y1="492.8174" y2="514.8174"/><line style="stroke:#181818;stroke-width:1.0;" x1="208.5" x2="524.875" y1="514.8174" y2="514.8174"/><polygon fill="#181818" points="514.875,510.8174,524.875,514.8174,514.875,518.8174,518.875,514.8174" style="stroke:#181818;stroke-width:1.0;"/><line style="stroke:#181818;stroke-width:1.0;" x1="449.875" x2="359.75" y1="200.2344" y2="200.2344"/><line style="stroke:#181818;stroke-width:1.0;" x1="359.75" x2="359.75" y1="200.2344" y2="222.2344"/><polygon fill="#181818" points="355.75,212.2344,359.75,222.2344,363.75,212.2344,359.75,216.2344" style="stroke:#181818;stroke-width:1.0;"/><line style="stroke:#181818;stroke-width:1.0;" x1="623.875" x2="714" y1="200.2344" y2="200.2344"/><line style="stroke:#181818;stroke-width:1.0;" x1="714" x2="714" y1="200.2344" y2="222.2344"/><polygon fill="#181818" points="710,212.2344,714,222.2344,718,212.2344,714,216.2344" style="stroke:#181818;stroke-width:1.0;"/><line style="stroke:#181818;stroke-width:1.0;" x1="714" x2="714" y1="256.2031" y2="514.8174"/><line style="stroke:#181818;stroke-width:1.0;" x1="714" x2="548.875" y1="514.8174" y2="514.8174"/><polygon fill="#181818" points="558.875,510.8174,548.875,514.8174,558.875,518.8174,554.875,514.8174" style="stroke:#181818;stroke-width:1.0;"/><line style="stroke:#181818;stroke-width:1.0;" x1="536.875" x2="536.875" y1="168.2344" y2="188.2344"/><polygon fill="#181818" points="532.875,178.2344,536.875,188.2344,540.875,178.2344,536.875,182.2344" style="stroke:#181818;stroke-width:1.0;"/><line style="stroke:#181818;stroke-width:1.0;" x1="536.875" x2="536.875" y1="526.8174" y2="546.8174"/><polygon fill="#181818" points="532.875,536.8174,536.875,546.8174,540.875,536.8174,536.875,540.8174" style="stroke:#181818;stroke-width:1.0;"/><line style="stroke:#181818;stroke-width:1.0;" x1="536.875" x2="536.875" y1="580.7861" y2="600.7861"/><polygon fill="#181818" points="532.875,590.7861,536.875,600.7861,540.875,590.7861,536.875,594.7861" style="stroke:#181818;stroke-width:1.0;"/><!--SRC=[XPBDJi9058NNxLDCuWPUWQvGeo_Xfi20JKXBoX3ZZXX9C51i0X8YFmLDaKG1IHIf57oPthQiU0Md1H5muMgQSyuzT_fb4hAKIQ5m94raFaeECI-Uq5EIBmzYqYds1JPDU9cm8UJENcpbmJBRaDET-sjG5UVfbQE6DIs1ScVD2uvPXdxDclJTqWVSLhrfZXNYAB1dsxKXg5tw3OsUEzIztDBKWeYSOv66rMwGPVmnF-7anriNioOLc9NXHjdIpaHhea0n1-hpkkuOnmLH88BqjvW98L3pO8ntSvpls8zPMzEjUTDzhouwXYScTX25CqIw46HynAVuI19l4ulAc2U-igfg6xOoi6ODfz83JREREkJhCFrSKM4OBCQGt-sdAKFFW46BWjeGXA7XZZeqZPDfZ0AKM_0dlKzbXpd3f8b4Y-aE8SvkXfTcqQc_sINT_Qf0lRLcHIl_sx_g2Q55zcgHKtw3z1aueocq2XphBzpyqpS0]--></g></svg>