<?xml version="1.0" encoding="us-ascii" standalone="no"?><svg xmlns="http://www.w3.org/2000/svg" xmlns:xlink="http://www.w3.org/1999/xlink" contentStyleType="text/css" height="363px" preserveAspectRatio="none" style="width:488px;height:363px;background:#FFFFFF;" version="1.1" viewBox="0 0 488 363" width="488px" zoomAndPan="magnify"><defs/><g><text fill="#000000" font-family="sans-serif" font-size="14" font-weight="bold" lengthAdjust="spacing" textLength="182" x="151.5" y="32.9951">&#37197;&#32622;&#31867;&#21518;&#32622;&#22788;&#29702;&#22120;&#30340;&#22788;&#29702;&#27969;&#31243;</text><ellipse cx="246.5" cy="57.2969" fill="#222222" rx="10" ry="10" style="stroke:#222222;stroke-width:1.0;"/><rect fill="none" height="232.1094" style="stroke:#000000;stroke-width:1.5;" width="466" x="11" y="78.0986"/><path d="M472,78.0986 L472,87.3955 L462,97.3955 L11,97.3955 " fill="none" style="stroke:#000000;stroke-width:1.5;"/><text fill="#000000" font-family="sans-serif" font-size="14" lengthAdjust="spacing" textLength="451" x="14" y="92.0938">ConfigurationClassPostProcessor#processConfigBeanDefinitions</text><rect fill="#F1F1F1" height="47.9375" rx="12.5" ry="12.5" style="stroke:#181818;stroke-width:0.5;" width="392" x="50.5" y="114.3955"/><text fill="#000000" font-family="sans-serif" font-size="12" lengthAdjust="spacing" textLength="120" x="64.5" y="135.5342">&#33719;&#21462;&#20505;&#36873;&#30340;&#37197;&#32622;&#31867;&#21015;&#34920;</text><text fill="#000000" font-family="sans-serif" font-size="12" lengthAdjust="spacing" textLength="372" x="60.5" y="149.5029">ConfigurationClassUtils#checkConfigurationClassCandidate</text><rect fill="#F1F1F1" height="47.9375" rx="12.5" ry="12.5" style="stroke:#181818;stroke-width:0.5;" width="224" x="134.5" y="182.333"/><text fill="#000000" font-family="sans-serif" font-size="12" lengthAdjust="spacing" textLength="108" x="148.5" y="203.4717">&#20381;&#27425;&#35299;&#26512;&#27599;&#20010;&#37197;&#32622;&#31867;</text><text fill="#000000" font-family="sans-serif" font-size="12" lengthAdjust="spacing" textLength="204" x="144.5" y="217.4404">ConfigurationClassParser#parse</text><rect fill="#F1F1F1" height="47.9375" rx="12.5" ry="12.5" style="stroke:#181818;stroke-width:0.5;" width="408" x="42.5" y="250.2705"/><text fill="#000000" font-family="sans-serif" font-size="12" lengthAdjust="spacing" textLength="188" x="56.5" y="271.4092">&#20381;&#27425;&#20174;&#27599;&#20010;&#37197;&#32622;&#31867;&#20013;&#21152;&#36733;Bean&#23450;&#20041;</text><text fill="#000000" font-family="sans-serif" font-size="12" lengthAdjust="spacing" textLength="388" x="52.5" y="285.3779">ConfigurationClassBeanDefinitionReader#loadBeanDefinitions</text><ellipse cx="246.5" cy="341.208" fill="none" rx="11" ry="11" style="stroke:#222222;stroke-width:1.0;"/><ellipse cx="246.5" cy="341.208" fill="#222222" rx="6" ry="6" style="stroke:#111111;stroke-width:1.0;"/><line style="stroke:#181818;stroke-width:1.0;" x1="246.5" x2="246.5" y1="162.333" y2="182.333"/><polygon fill="#181818" points="242.5,172.333,246.5,182.333,250.5,172.333,246.5,176.333" style="stroke:#181818;stroke-width:1.0;"/><line style="stroke:#181818;stroke-width:1.0;" x1="246.5" x2="246.5" y1="230.2705" y2="250.2705"/><polygon fill="#181818" points="242.5,240.2705,246.5,250.2705,250.5,240.2705,246.5,244.2705" style="stroke:#181818;stroke-width:1.0;"/><line style="stroke:#181818;stroke-width:1.0;" x1="246.5" x2="246.5" y1="67.2969" y2="114.3955"/><polygon fill="#181818" points="242.5,104.3955,246.5,114.3955,250.5,104.3955,246.5,108.3955" style="stroke:#181818;stroke-width:1.0;"/><line style="stroke:#181818;stroke-width:1.0;" x1="246.5" x2="246.5" y1="298.208" y2="330.208"/><polygon fill="#181818" points="242.5,320.208,246.5,330.208,250.5,320.208,246.5,324.208" style="stroke:#181818;stroke-width:1.0;"/><!--SRC=[AyaioKbLUDdQ-tplkkSRTp-Tq0TaF5tIydn2szEPAvxFQe6mdsrjVBwYcwku9B6eX2kzAB-qGC4vFoyjCxsqAB4aCp_FEIUnk3WWlxWae2W_ERMuEBz8kG32WYXpIatCSqbDoypB1Aakvh9IUD6t_Md_jASDCrysT0AjGRYWO_gBXIjYyZ2D3ot9p2bMJiv8JSx6b7HEp4l9J4aiIRK6clratzndQnQ-MBxusRm9pzRtFzcn2cuyDeC34ekAKu4E1b48xKzszw7fVR9ZxTEk1I_sxWNvvkcwMKzsTc8p3jMlGQc9AK33S_8JKz02mPehDIz50HoOm83DBm00]--></g></svg>