<?xml version="1.0" encoding="us-ascii" standalone="no"?><svg xmlns="http://www.w3.org/2000/svg" xmlns:xlink="http://www.w3.org/1999/xlink" contentStyleType="text/css" height="309px" preserveAspectRatio="none" style="width:704px;height:309px;background:#FFFFFF;" version="1.1" viewBox="0 0 704 309" width="704px" zoomAndPan="magnify"><defs/><g><text fill="#000000" font-family="Consolas" font-size="14" font-weight="bold" lengthAdjust="spacing" textLength="70" x="312.5" y="27.9951">&#22403;&#22334;&#25910;&#38598;&#22120;</text><!--cluster ???????--><g id="cluster_&#20998;&#21306;&#22403;&#22334;&#25910;&#38598;&#22120;"><path d="M13.5,48.2969 L112.5,48.2969 A3.75,3.75 0 0 1 115,50.7969 L122,70.5938 L473.5,70.5938 A2.5,2.5 0 0 1 476,73.0938 L476,299.9869 A2.5,2.5 0 0 1 473.5,302.4869 L13.5,302.4869 A2.5,2.5 0 0 1 11,299.9869 L11,50.7969 A2.5,2.5 0 0 1 13.5,48.2969 " fill="#FFFFFF" style="stroke:#000000;stroke-width:1.0;"/><line style="stroke:#000000;stroke-width:1.0;" x1="11" x2="122" y1="70.5938" y2="70.5938"/><text fill="#000000" font-family="Consolas" font-size="14" font-weight="bold" lengthAdjust="spacing" textLength="98" x="15" y="63.292">&#20998;&#21306;&#22403;&#22334;&#25910;&#38598;&#22120;</text></g><!--cluster ???????--><g id="cluster_&#25972;&#22534;&#22403;&#22334;&#25910;&#38598;&#22120;"><path d="M502.5,56.4469 L601.5,56.4469 A3.75,3.75 0 0 1 604,58.9469 L611,78.7437 L694.5,78.7437 A2.5,2.5 0 0 1 697,81.2437 L697,151.2469 A2.5,2.5 0 0 1 694.5,153.7469 L502.5,153.7469 A2.5,2.5 0 0 1 500,151.2469 L500,58.9469 A2.5,2.5 0 0 1 502.5,56.4469 " fill="#FFFFFF" style="stroke:#000000;stroke-width:1.0;"/><line style="stroke:#000000;stroke-width:1.0;" x1="500" x2="611" y1="78.7437" y2="78.7437"/><text fill="#000000" font-family="Consolas" font-size="14" font-weight="bold" lengthAdjust="spacing" textLength="98" x="504" y="71.442">&#25972;&#22534;&#22403;&#22334;&#25910;&#38598;&#22120;</text></g><!--entity s--><g id="elem_s"><rect fill="#FFFFFF" height="62.5938" rx="2.5" ry="2.5" style="stroke:#000000;stroke-width:1.0;" width="101" x="358.5" y="83.2969"/><rect fill="#FFFFFF" height="10" style="stroke:#000000;stroke-width:1.0;" width="15" x="439.5" y="88.2969"/><rect fill="#FFFFFF" height="2" style="stroke:#000000;stroke-width:1.0;" width="4" x="437.5" y="90.2969"/><rect fill="#FFFFFF" height="2" style="stroke:#000000;stroke-width:1.0;" width="4" x="437.5" y="94.2969"/><text fill="#000000" font-family="Consolas" font-size="14" lengthAdjust="spacing" textLength="37" x="373.5" y="116.292">Serial</text><text fill="#000000" font-family="Consolas" font-size="14" lengthAdjust="spacing" textLength="61" x="373.5" y="132.5889">&#26631;&#35760;-&#22797;&#21046;</text></g><!--entity pn--><g id="elem_pn"><rect fill="#FFFFFF" height="62.5938" rx="2.5" ry="2.5" style="stroke:#000000;stroke-width:1.0;" width="101" x="222.5" y="83.2969"/><rect fill="#FFFFFF" height="10" style="stroke:#000000;stroke-width:1.0;" width="15" x="303.5" y="88.2969"/><rect fill="#FFFFFF" height="2" style="stroke:#000000;stroke-width:1.0;" width="4" x="301.5" y="90.2969"/><rect fill="#FFFFFF" height="2" style="stroke:#000000;stroke-width:1.0;" width="4" x="301.5" y="94.2969"/><text fill="#000000" font-family="Consolas" font-size="14" lengthAdjust="spacing" textLength="52" x="237.5" y="116.292">ParNew</text><text fill="#000000" font-family="Consolas" font-size="14" lengthAdjust="spacing" textLength="61" x="237.5" y="132.5889">&#26631;&#35760;-&#22797;&#21046;</text></g><!--entity ps--><g id="elem_ps"><rect fill="#FFFFFF" height="62.5938" rx="2.5" ry="2.5" style="stroke:#000000;stroke-width:1.0;" width="160" x="27" y="83.2969"/><rect fill="#FFFFFF" height="10" style="stroke:#000000;stroke-width:1.0;" width="15" x="167" y="88.2969"/><rect fill="#FFFFFF" height="2" style="stroke:#000000;stroke-width:1.0;" width="4" x="165" y="90.2969"/><rect fill="#FFFFFF" height="2" style="stroke:#000000;stroke-width:1.0;" width="4" x="165" y="94.2969"/><text fill="#000000" font-family="Consolas" font-size="14" lengthAdjust="spacing" textLength="120" x="42" y="116.292">Parallel Scavenge</text><text fill="#000000" font-family="Consolas" font-size="14" lengthAdjust="spacing" textLength="61" x="42" y="132.5889">&#26631;&#35760;-&#22797;&#21046;</text></g><!--entity cms--><g id="elem_cms"><rect fill="#FFFFFF" height="62.5938" rx="2.5" ry="2.5" style="stroke:#000000;stroke-width:1.0;" width="101" x="347.5" y="223.8969"/><rect fill="#FFFFFF" height="10" style="stroke:#000000;stroke-width:1.0;" width="15" x="428.5" y="228.8969"/><rect fill="#FFFFFF" height="2" style="stroke:#000000;stroke-width:1.0;" width="4" x="426.5" y="230.8969"/><rect fill="#FFFFFF" height="2" style="stroke:#000000;stroke-width:1.0;" width="4" x="426.5" y="234.8969"/><text fill="#000000" font-family="Consolas" font-size="14" lengthAdjust="spacing" textLength="31" x="362.5" y="256.892">CMS</text><text fill="#000000" font-family="Consolas" font-size="14" lengthAdjust="spacing" textLength="61" x="362.5" y="273.1889">&#26631;&#35760;-&#28165;&#38500;</text></g><!--entity so--><g id="elem_so"><rect fill="#FFFFFF" height="62.5938" rx="2.5" ry="2.5" style="stroke:#000000;stroke-width:1.0;" width="104" x="209" y="223.8969"/><rect fill="#FFFFFF" height="10" style="stroke:#000000;stroke-width:1.0;" width="15" x="293" y="228.8969"/><rect fill="#FFFFFF" height="2" style="stroke:#000000;stroke-width:1.0;" width="4" x="291" y="230.8969"/><rect fill="#FFFFFF" height="2" style="stroke:#000000;stroke-width:1.0;" width="4" x="291" y="234.8969"/><text fill="#000000" font-family="Consolas" font-size="14" lengthAdjust="spacing" textLength="64" x="224" y="256.892">Serial Old</text><text fill="#000000" font-family="Consolas" font-size="14" lengthAdjust="spacing" textLength="61" x="224" y="273.1889">&#26631;&#35760;-&#25972;&#29702;</text></g><!--entity po--><g id="elem_po"><rect fill="#FFFFFF" height="62.5938" rx="2.5" ry="2.5" style="stroke:#000000;stroke-width:1.0;" width="115" x="49.5" y="223.8969"/><rect fill="#FFFFFF" height="10" style="stroke:#000000;stroke-width:1.0;" width="15" x="144.5" y="228.8969"/><rect fill="#FFFFFF" height="2" style="stroke:#000000;stroke-width:1.0;" width="4" x="142.5" y="230.8969"/><rect fill="#FFFFFF" height="2" style="stroke:#000000;stroke-width:1.0;" width="4" x="142.5" y="234.8969"/><text fill="#000000" font-family="Consolas" font-size="14" lengthAdjust="spacing" textLength="75" x="64.5" y="256.892">Parallel Old</text><text fill="#000000" font-family="Consolas" font-size="14" lengthAdjust="spacing" textLength="61" x="64.5" y="273.1889">&#26631;&#35760;-&#28165;&#38500;</text></g><!--entity G1--><g id="elem_G1"><rect fill="#FFFFFF" height="46.2969" rx="2.5" ry="2.5" style="stroke:#000000;stroke-width:1.0;" width="60" x="621" y="91.4469"/><rect fill="#FFFFFF" height="10" style="stroke:#000000;stroke-width:1.0;" width="15" x="661" y="96.4469"/><rect fill="#FFFFFF" height="2" style="stroke:#000000;stroke-width:1.0;" width="4" x="659" y="98.4469"/><rect fill="#FFFFFF" height="2" style="stroke:#000000;stroke-width:1.0;" width="4" x="659" y="102.4469"/><text fill="#000000" font-family="Consolas" font-size="14" lengthAdjust="spacing" textLength="20" x="636" y="124.442">G1</text></g><!--entity ZGC--><g id="elem_ZGC"><rect fill="#FFFFFF" height="46.2969" rx="2.5" ry="2.5" style="stroke:#000000;stroke-width:1.0;" width="71" x="515.5" y="91.4469"/><rect fill="#FFFFFF" height="10" style="stroke:#000000;stroke-width:1.0;" width="15" x="566.5" y="96.4469"/><rect fill="#FFFFFF" height="2" style="stroke:#000000;stroke-width:1.0;" width="4" x="564.5" y="98.4469"/><rect fill="#FFFFFF" height="2" style="stroke:#000000;stroke-width:1.0;" width="4" x="564.5" y="102.4469"/><text fill="#000000" font-family="Consolas" font-size="14" lengthAdjust="spacing" textLength="31" x="530.5" y="124.442">ZGC</text></g><!--link s to cms--><g id="link_s_cms"><path d="M406.56,146.3569 C404.74,169.3269 402.26,200.5669 400.43,223.5169 " fill="none" id="s-cms" style="stroke:#000000;stroke-width:1.0;stroke-dasharray:7.0,7.0;"/><text fill="#000000" font-family="Consolas" font-size="14" lengthAdjust="spacing" textLength="60" x="405" y="189.892">JDK9&#31227;&#38500;</text></g><!--link s to so--><g id="link_s_so"><path d="M381.3,146.1469 C367.48,160.9569 350.27,178.7769 334,193.8969 C323.28,203.8469 311.19,214.1769 299.98,223.3969 " fill="none" id="s-so" style="stroke:#000000;stroke-width:1.0;"/></g><!--link pn to cms--><g id="link_pn_cms"><path d="M302.54,146.3469 C311.45,155.7569 321.2,166.1769 330,175.8969 C344.02,191.3669 359.3,208.8969 371.82,223.4369 " fill="none" id="pn-cms" style="stroke:#000000;stroke-width:1.0;"/></g><!--link pn to so--><g id="link_pn_so"><path d="M267.77,146.1869 C266.32,155.6869 264.91,166.1969 264,175.8969 C262.53,191.6069 261.78,209.1569 261.39,223.6469 " fill="none" id="pn-so" style="stroke:#000000;stroke-width:1.0;stroke-dasharray:7.0,7.0;"/><text fill="#000000" font-family="Consolas" font-size="14" lengthAdjust="spacing" textLength="60" x="265" y="189.892">JDK9&#31227;&#38500;</text></g><!--link ps to so--><g id="link_ps_so"><path d="M141.18,146.3569 C166.7,169.3269 201.42,200.5669 226.92,223.5169 " fill="none" id="ps-so" style="stroke:#000000;stroke-width:1.0;"/></g><!--link ps to po--><g id="link_ps_po"><path d="M107,146.3569 C107,169.3269 107,200.5669 107,223.5169 " fill="none" id="ps-po" style="stroke:#000000;stroke-width:1.0;"/></g><!--link cms to so--><g id="link_cms_so"><path d="M347.14,255.1869 C335.91,255.1869 324.68,255.1869 313.45,255.1869 " fill="none" id="cms-so" style="stroke:#000000;stroke-width:1.0;"/></g><!--SRC=[Kop9ICrDLIZ8ISpCuohEpimhI2nAp5KeoIp9INNBpoi9pgnALJ0qGP9AIKrBBCqf8IZfbmWqrpa_hpW_9x6OYmjieiBJUSrFv-nxDcNRozbjJsUku2f8JCvEJ0UATxGzxTc59gjGpSKP7PnQb9cO4vFtR47xYtKRT9ykwNtQiIrM8R5OeHWe6v1Ov9TQZass80yYdPYJavgZ49oSM9QQbvwALING8A1QPzzWkEop7QqlPou1ooRd5iDTeU2Vau9GCtNBymbj49Va8zk5eWXXK44-LorNiOAU7iX81Ii5BnTlo-VBTmEbWQAwkY132l90392DG1PGON4-ghe2k48m0sWYo2Ym23maWSvwkg0DMqYw6yO2oIXtvrYkMW00]--></g></svg>