<?xml version="1.0" encoding="us-ascii" standalone="no"?><svg xmlns="http://www.w3.org/2000/svg" xmlns:xlink="http://www.w3.org/1999/xlink" contentStyleType="text/css" height="619px" preserveAspectRatio="none" style="width:750px;height:619px;background:#FFFFFF;" version="1.1" viewBox="0 0 750 619" width="750px" zoomAndPan="magnify"><defs/><g><text fill="#000000" font-family="Consolas" font-size="14" font-weight="bold" lengthAdjust="spacing" textLength="154" x="296.5" y="27.9951">&#36890;&#29992;&#27880;&#35299;&#20381;&#36182;&#27880;&#20837;&#30340;&#27969;&#31243;</text><text fill="#000000" font-family="Consolas" font-size="14" font-weight="bold" lengthAdjust="spacing" textLength="532" x="107.5" y="44.292">&#65288;CommonAnnotationBeanPostProcessor#postProcessProperties&#65289;</text><ellipse cx="298" cy="68.5938" fill="#FFFFFF" rx="10" ry="10" style="stroke:#000000;stroke-width:1.0;"/><rect fill="#FFFFFF" height="374.0781" style="stroke:#000000;stroke-width:1.0;" width="738" x="6" y="88.5938"/><path d="M654,88.5938 L654,97.8906 L644,107.8906 L6,107.8906 " fill="none" style="stroke:#000000;stroke-width:1.0;"/><text fill="#000000" font-family="Consolas" font-size="14" lengthAdjust="spacing" textLength="638" x="9" y="102.5889">1.&#33719;&#21462;&#33258;&#21160;&#35013;&#37197;&#30340;&#27880;&#20837;&#20803;&#25968;&#25454;&#65306;CommonAnnotationBeanPostProcessor#findResourceMetadata</text><polygon fill="#FFFFFF" points="207,124.8906,389,124.8906,401,136.8906,389,148.8906,207,148.8906,195,136.8906,207,124.8906" style="stroke:#000000;stroke-width:1.0;"/><text fill="#000000" font-family="Consolas" font-size="14" lengthAdjust="spacing" textLength="182" x="207" y="141.7373">&#32531;&#23384;&#20013;&#26159;&#21542;&#23384;&#22312;&#27880;&#20837;&#20803;&#25968;&#25454;&#65311;</text><text fill="#000000" font-family="Consolas" font-size="14" lengthAdjust="spacing" textLength="14" x="181" y="133.5889">&#26159;</text><text fill="#000000" font-family="Consolas" font-size="14" lengthAdjust="spacing" textLength="14" x="401" y="133.5889">&#21542;</text><rect fill="#FFFFFF" height="36.2969" rx="12.5" ry="12.5" style="stroke:#000000;stroke-width:1.0;" width="164" x="18" y="158.8906"/><text fill="#000000" font-family="Consolas" font-size="14" lengthAdjust="spacing" textLength="140" x="32" y="181.8857">&#36820;&#22238;&#32531;&#23384;&#30340;&#27880;&#20837;&#20803;&#25968;&#25454;</text><polygon fill="#FFFFFF" points="391,158.8906,601,158.8906,613,170.8906,601,182.8906,391,182.8906,379,170.8906,391,158.8906" style="stroke:#000000;stroke-width:1.0;"/><text fill="#000000" font-family="Consolas" font-size="14" lengthAdjust="spacing" textLength="210" x="391" y="175.7373">&#35813;&#31867;&#26159;&#21542;&#26631;&#27880;&#20102;&#33258;&#21160;&#35013;&#37197;&#30340;&#27880;&#35299;&#65311;</text><text fill="#000000" font-family="Consolas" font-size="14" lengthAdjust="spacing" textLength="14" x="365" y="167.5889">&#26159;</text><text fill="#000000" font-family="Consolas" font-size="14" lengthAdjust="spacing" textLength="14" x="613" y="167.5889">&#21542;</text><rect fill="#FFFFFF" height="52.5938" rx="12.5" ry="12.5" style="stroke:#000000;stroke-width:1.0;" width="298" x="212" y="192.8906"/><text fill="#000000" font-family="Consolas" font-size="14" lengthAdjust="spacing" textLength="274" x="226" y="215.8857">&#20381;&#27425;&#36941;&#21382;&#35813;Bean&#30340;&#21508;&#20010;&#23383;&#27573;&#65292;&#26500;&#24314;&#27880;&#20837;&#20803;&#32032;</text><text fill="#000000" font-family="Consolas" font-size="14" lengthAdjust="spacing" textLength="239" x="222" y="232.1826">EjbRefElement&#25110;ResourceElement</text><rect fill="#FFFFFF" height="52.5938" rx="12.5" ry="12.5" style="stroke:#000000;stroke-width:1.0;" width="298" x="212" y="265.4844"/><text fill="#000000" font-family="Consolas" font-size="14" lengthAdjust="spacing" textLength="274" x="226" y="288.4795">&#20381;&#27425;&#36941;&#21382;&#35813;Bean&#30340;&#21508;&#20010;&#26041;&#27861;&#65292;&#26500;&#24314;&#27880;&#20837;&#20803;&#32032;</text><text fill="#000000" font-family="Consolas" font-size="14" lengthAdjust="spacing" textLength="239" x="222" y="304.7764">EjbRefElement&#25110;ResourceElement</text><rect fill="#FFFFFF" height="52.5938" rx="12.5" ry="12.5" style="stroke:#000000;stroke-width:1.0;" width="248" x="237" y="338.0781"/><text fill="#000000" font-family="Consolas" font-size="14" lengthAdjust="spacing" textLength="224" x="251" y="361.0732">&#36890;&#36807;&#27880;&#20837;&#20803;&#32032;&#26500;&#24314;&#27880;&#20837;&#20803;&#25968;&#25454;&#24182;&#36820;&#22238;</text><text fill="#000000" font-family="Consolas" font-size="14" lengthAdjust="spacing" textLength="217" x="247" y="377.3701">InjectionMetadata#forElements</text><rect fill="#FFFFFF" height="52.5938" rx="12.5" ry="12.5" style="stroke:#000000;stroke-width:1.0;" width="202" x="530" y="192.8906"/><text fill="#000000" font-family="Consolas" font-size="14" lengthAdjust="spacing" textLength="126" x="544" y="215.8857">&#36820;&#22238;&#31354;&#30340;&#27880;&#20837;&#20803;&#25968;&#25454;</text><text fill="#000000" font-family="Consolas" font-size="14" lengthAdjust="spacing" textLength="182" x="540" y="232.1826">InjectionMetadata#EMPTY</text><polygon fill="#FFFFFF" points="496,396.6719,508,408.6719,496,420.6719,484,408.6719,496,396.6719" style="stroke:#000000;stroke-width:1.0;"/><polygon fill="#FFFFFF" points="298,426.6719,310,438.6719,298,450.6719,286,438.6719,298,426.6719" style="stroke:#000000;stroke-width:1.0;"/><rect fill="#FFFFFF" height="100.8906" style="stroke:#000000;stroke-width:1.0;" width="327" x="134.5" y="472.6719"/><path d="M426.5,472.6719 L426.5,481.9688 L416.5,491.9688 L134.5,491.9688 " fill="none" style="stroke:#000000;stroke-width:1.0;"/><text fill="#000000" font-family="Consolas" font-size="14" lengthAdjust="spacing" textLength="282" x="137.5" y="486.667">2.&#36827;&#34892;&#20381;&#36182;&#27880;&#20837;&#65306;InjectionMetadata#inject</text><rect fill="#FFFFFF" height="52.5938" rx="12.5" ry="12.5" style="stroke:#000000;stroke-width:1.0;" width="307" x="144.5" y="508.9688"/><text fill="#000000" font-family="Consolas" font-size="14" lengthAdjust="spacing" textLength="280" x="158.5" y="531.9639">&#20381;&#27425;&#35843;&#29992;&#27880;&#20837;&#20803;&#25968;&#25454;&#20013;&#30340;&#27880;&#20837;&#20803;&#32032;&#30340;&#27880;&#20837;&#26041;&#27861;</text><text fill="#000000" font-family="Consolas" font-size="14" lengthAdjust="spacing" textLength="287" x="154.5" y="548.2607">InjectionMetadata.InjectedElement#inject</text><ellipse cx="298" cy="603.5625" fill="#FFFFFF" rx="10" ry="10" style="stroke:#000000;stroke-width:1.5;"/><line style="stroke:#000000;stroke-width:2.5;" x1="291.8128" x2="304.1872" y1="597.3753" y2="609.7497"/><line style="stroke:#000000;stroke-width:2.5;" x1="304.1872" x2="291.8128" y1="597.3753" y2="609.7497"/><line style="stroke:#000000;stroke-width:1.0;" x1="361" x2="361" y1="245.4844" y2="265.4844"/><polygon fill="#000000" points="357,255.4844,361,265.4844,365,255.4844,361,259.4844" style="stroke:#000000;stroke-width:1.0;"/><line style="stroke:#000000;stroke-width:1.0;" x1="361" x2="361" y1="318.0781" y2="338.0781"/><polygon fill="#000000" points="357,328.0781,361,338.0781,365,328.0781,361,332.0781" style="stroke:#000000;stroke-width:1.0;"/><line style="stroke:#000000;stroke-width:1.0;" x1="379" x2="361" y1="170.8906" y2="170.8906"/><line style="stroke:#000000;stroke-width:1.0;" x1="361" x2="361" y1="170.8906" y2="192.8906"/><polygon fill="#000000" points="357,182.8906,361,192.8906,365,182.8906,361,186.8906" style="stroke:#000000;stroke-width:1.0;"/><line style="stroke:#000000;stroke-width:1.0;" x1="613" x2="631" y1="170.8906" y2="170.8906"/><line style="stroke:#000000;stroke-width:1.0;" x1="631" x2="631" y1="170.8906" y2="192.8906"/><polygon fill="#000000" points="627,182.8906,631,192.8906,635,182.8906,631,186.8906" style="stroke:#000000;stroke-width:1.0;"/><line style="stroke:#000000;stroke-width:1.0;" x1="361" x2="361" y1="390.6719" y2="408.6719"/><line style="stroke:#000000;stroke-width:1.0;" x1="361" x2="484" y1="408.6719" y2="408.6719"/><polygon fill="#000000" points="474,404.6719,484,408.6719,474,412.6719,478,408.6719" style="stroke:#000000;stroke-width:1.0;"/><line style="stroke:#000000;stroke-width:1.0;" x1="631" x2="631" y1="245.4844" y2="408.6719"/><line style="stroke:#000000;stroke-width:1.0;" x1="631" x2="508" y1="408.6719" y2="408.6719"/><polygon fill="#000000" points="518,404.6719,508,408.6719,518,412.6719,514,408.6719" style="stroke:#000000;stroke-width:1.0;"/><line style="stroke:#000000;stroke-width:1.0;" x1="195" x2="100" y1="136.8906" y2="136.8906"/><line style="stroke:#000000;stroke-width:1.0;" x1="100" x2="100" y1="136.8906" y2="158.8906"/><polygon fill="#000000" points="96,148.8906,100,158.8906,104,148.8906,100,152.8906" style="stroke:#000000;stroke-width:1.0;"/><line style="stroke:#000000;stroke-width:1.0;" x1="401" x2="496" y1="136.8906" y2="136.8906"/><line style="stroke:#000000;stroke-width:1.0;" x1="496" x2="496" y1="136.8906" y2="158.8906"/><polygon fill="#000000" points="492,148.8906,496,158.8906,500,148.8906,496,152.8906" style="stroke:#000000;stroke-width:1.0;"/><line style="stroke:#000000;stroke-width:1.0;" x1="100" x2="100" y1="195.1875" y2="438.6719"/><line style="stroke:#000000;stroke-width:1.0;" x1="100" x2="286" y1="438.6719" y2="438.6719"/><polygon fill="#000000" points="276,434.6719,286,438.6719,276,442.6719,280,438.6719" style="stroke:#000000;stroke-width:1.0;"/><line style="stroke:#000000;stroke-width:1.0;" x1="496" x2="496" y1="420.6719" y2="438.6719"/><line style="stroke:#000000;stroke-width:1.0;" x1="496" x2="310" y1="438.6719" y2="438.6719"/><polygon fill="#000000" points="320,434.6719,310,438.6719,320,442.6719,316,438.6719" style="stroke:#000000;stroke-width:1.0;"/><line style="stroke:#000000;stroke-width:1.0;" x1="298" x2="298" y1="78.5938" y2="124.8906"/><polygon fill="#000000" points="294,114.8906,298,124.8906,302,114.8906,298,118.8906" style="stroke:#000000;stroke-width:1.0;"/><line style="stroke:#000000;stroke-width:1.0;" x1="298" x2="298" y1="450.6719" y2="508.9688"/><polygon fill="#000000" points="294,498.9688,298,508.9688,302,498.9688,298,502.9688" style="stroke:#000000;stroke-width:1.0;"/><line style="stroke:#000000;stroke-width:1.0;" x1="298" x2="298" y1="561.5625" y2="593.5625"/><polygon fill="#000000" points="294,583.5625,298,593.5625,302,583.5625,298,587.5625" style="stroke:#000000;stroke-width:1.0;"/><!--SRC=[fLD1JnD153upls8Cbt9fWl5aJqfAuW7Je1UJNiPsLXUtCytEzE99GajHAP80bHH1244hiO31AfJ6_fdExFJKl-1hTmiRbwG7BpipRzvyttlV-_QEV4bp5ESTOZCaNjaiJroImzAM3ftbJ3wnNrCyVIzqbQKMAJXoxELZ0hWpd0dk4866WBZtfkPjrlLvtNmzxFxPDSqgx5NfoAiLTNFHgxzFitvxPORdSfmzO8nB8ctE7bB2Kbp8bCipL0ZkJkPlJh3agIjjAlhjjmW9ILo9NhYyaCVJSRFsMtseclAnUbStXwLUgJ9W6bAgqfBUEjELatwxDfxGibbsdWfUS3DqZagI9P8Wsy8nhxsX6jlTYuRUFbNhNs2lFjKZ39-dCEZCS0oofj34VMmwcsfdptySBIc1g2CeZW4WP0zepEcHz-FAvz3xPSZljfQZVO6i4J9W0wdrzuFUOaMjBGFIe3t8L-l5xiMnQdpK9yr-UrNl5TLLwxeIx-T-cYKNdizJA-c0HPZKAzMH144aCHPTLo_r-TR_e8DbJASSVlWFb2-PklpbQvfcZzW2pGp6E1hKfCNT05C0Q5ZRcr5yQqNdS1jMSYxrzDa0XMLj2qqWVuKl7feE1Twx6pUT7NEm6dOvE2sAPmyZQ2IZELlo_v1m7M2lS76WmVNH5_YMGkD-X6Q3pWEY10hL2hk_]--></g></svg>