<?xml version="1.0" encoding="us-ascii" standalone="no"?><svg xmlns="http://www.w3.org/2000/svg" xmlns:xlink="http://www.w3.org/1999/xlink" contentStyleType="text/css" height="394px" preserveAspectRatio="none" style="width:389px;height:394px;background:#FFFFFF;" version="1.1" viewBox="0 0 389 394" width="389px" zoomAndPan="magnify"><defs/><g><text fill="#000000" font-family="sans-serif" font-size="14" font-weight="bold" lengthAdjust="spacing" textLength="98" x="144" y="32.9951">&#27880;&#20876;&#20107;&#20214;&#30417;&#21548;&#22120;</text><rect fill="none" height="293.0469" style="stroke:#000000;stroke-width:1.5;" width="367" x="11" y="48.2969"/><path d="M335,48.2969 L335,57.5938 L325,67.5938 L11,67.5938 " fill="none" style="stroke:#000000;stroke-width:1.5;"/><text fill="#000000" font-family="sans-serif" font-size="14" lengthAdjust="spacing" textLength="314" x="14" y="62.292">AbstractApplicationContext#registerListeners</text><rect fill="#F1F1F1" height="47.9375" rx="12.5" ry="12.5" style="stroke:#181818;stroke-width:0.5;" width="347" x="21" y="77.5938"/><text fill="#000000" font-family="sans-serif" font-size="12" lengthAdjust="spacing" textLength="168" x="31" y="98.7324">&#33719;&#21462;&#25152;&#26377;&#38745;&#24577;&#22768;&#26126;&#30340;&#20107;&#20214;&#30417;&#21548;&#22120;</text><text fill="#000000" font-family="sans-serif" font-size="12" lengthAdjust="spacing" textLength="327" x="31" y="112.7012">AbstractApplicationContext#getApplicationListeners</text><rect fill="#F1F1F1" height="47.9375" rx="12.5" ry="12.5" style="stroke:#181818;stroke-width:0.5;" width="346" x="21.5" y="145.5313"/><text fill="#000000" font-family="sans-serif" font-size="12" lengthAdjust="spacing" textLength="84" x="31.5" y="166.6699">&#27880;&#20876;&#20107;&#20214;&#30417;&#21548;&#22120;</text><text fill="#000000" font-family="sans-serif" font-size="12" lengthAdjust="spacing" textLength="326" x="31.5" y="180.6387">ApplicationEventMulticaster#addApplicationListener</text><rect fill="#F1F1F1" height="47.9375" rx="12.5" ry="12.5" style="stroke:#181818;stroke-width:0.5;" width="345" x="22" y="213.4688"/><text fill="#000000" font-family="sans-serif" font-size="12" lengthAdjust="spacing" textLength="303" x="32" y="234.6074">&#20174;Bean&#24037;&#21378;&#20013;&#33719;&#21462;&#31867;&#22411;&#20026;ApplicationListener&#30340;Bean</text><text fill="#000000" font-family="sans-serif" font-size="12" lengthAdjust="spacing" textLength="325" x="32" y="248.5762">AbstractApplicationContext#getBeanNamesForType</text><rect fill="#F1F1F1" height="47.9375" rx="12.5" ry="12.5" style="stroke:#181818;stroke-width:0.5;" width="346" x="21.5" y="281.4063"/><text fill="#000000" font-family="sans-serif" font-size="12" lengthAdjust="spacing" textLength="84" x="31.5" y="302.5449">&#27880;&#20876;&#20107;&#20214;&#30417;&#21548;&#22120;</text><text fill="#000000" font-family="sans-serif" font-size="12" lengthAdjust="spacing" textLength="326" x="31.5" y="316.5137">ApplicationEventMulticaster#addApplicationListener</text><ellipse cx="194.5" cy="372.3438" fill="none" rx="11" ry="11" style="stroke:#222222;stroke-width:1.0;"/><ellipse cx="194.5" cy="372.3438" fill="#222222" rx="6" ry="6" style="stroke:#111111;stroke-width:1.0;"/><line style="stroke:#181818;stroke-width:1.0;" x1="194.5" x2="194.5" y1="125.5313" y2="145.5313"/><polygon fill="#181818" points="190.5,135.5313,194.5,145.5313,198.5,135.5313,194.5,139.5313" style="stroke:#181818;stroke-width:1.0;"/><line style="stroke:#181818;stroke-width:1.0;" x1="194.5" x2="194.5" y1="193.4688" y2="213.4688"/><polygon fill="#181818" points="190.5,203.4688,194.5,213.4688,198.5,203.4688,194.5,207.4688" style="stroke:#181818;stroke-width:1.0;"/><line style="stroke:#181818;stroke-width:1.0;" x1="194.5" x2="194.5" y1="261.4063" y2="281.4063"/><polygon fill="#181818" points="190.5,271.4063,194.5,281.4063,198.5,271.4063,194.5,275.4063" style="stroke:#181818;stroke-width:1.0;"/><line style="stroke:#181818;stroke-width:1.0;" x1="194.5" x2="194.5" y1="329.3438" y2="361.3438"/><polygon fill="#181818" points="190.5,351.3438,194.5,361.3438,198.5,351.3438,194.5,355.3438" style="stroke:#181818;stroke-width:1.0;"/><!--SRC=[AyaioKbLUBPvnTEsdYUxkf_itlPyziId4zOydRc2AxqelxH0mJ6fkAGeCRd4iQ0W9pCviIGpFyyvFwyajQ94kIWrFREu9BN81qJcfHOLSrczwDl-j7_Qiyw6PtCwNywT-QoXyUdY3Szcz3sVrO9cV4mU7fFJKv55uUPRSrbXTIhGB8HgrxBKl1BVqfmI81_aEkN4b1GiXW7DUhAxpoarCU_fzgLF-vgUx5WBSVppZRkVpkj-icCN5ar0Ru1q478xI8rVOcvgiLj-KKXbGIfrtPsQbw80ZXkkufBy0W00]--></g></svg>