<?xml version="1.0" encoding="us-ascii" standalone="no"?><svg xmlns="http://www.w3.org/2000/svg" xmlns:xlink="http://www.w3.org/1999/xlink" contentStyleType="text/css" height="637px" preserveAspectRatio="none" style="width:775px;height:637px;background:#FFFFFF;" version="1.1" viewBox="0 0 775 637" width="775px" zoomAndPan="magnify"><defs/><g><text fill="#000000" font-family="sans-serif" font-size="14" font-weight="bold" lengthAdjust="spacing" textLength="182" x="295" y="32.9951">&#33258;&#21160;&#35013;&#37197;&#27880;&#35299;&#20381;&#36182;&#27880;&#20837;&#30340;&#27969;&#31243;</text><rect fill="none" height="578.4424" style="stroke:#000000;stroke-width:1.5;" width="753" x="11" y="48.2969"/><path d="M472,48.2969 L472,57.5938 L462,67.5938 L11,67.5938 " fill="none" style="stroke:#000000;stroke-width:1.5;"/><text fill="#000000" font-family="sans-serif" font-size="14" lengthAdjust="spacing" textLength="451" x="14" y="62.292">AutowiredAnnotationBeanPostProcessor#postProcessProperties</text><ellipse cx="308.375" cy="87.5938" fill="#222222" rx="10" ry="10" style="stroke:#222222;stroke-width:1.0;"/><rect fill="none" height="360.1094" style="stroke:#000000;stroke-width:1.5;" width="733" x="21" y="107.5938"/><path d="M680,107.5938 L680,116.8906 L670,126.8906 L21,126.8906 " fill="none" style="stroke:#000000;stroke-width:1.5;"/><text fill="#000000" font-family="sans-serif" font-size="14" lengthAdjust="spacing" textLength="649" x="24" y="121.5889">1.&#33719;&#21462;&#33258;&#21160;&#35013;&#37197;&#30340;&#27880;&#20837;&#20803;&#25968;&#25454;&#65306;AutowiredAnnotationBeanPostProcessor#findAutowiringMetadata</text><polygon fill="#F1F1F1" points="236.875,143.8906,379.875,143.8906,391.875,155.8906,379.875,167.8906,236.875,167.8906,224.875,155.8906,236.875,143.8906" style="stroke:#181818;stroke-width:0.5;"/><text fill="#000000" font-family="sans-serif" font-size="11" lengthAdjust="spacing" textLength="143" x="236.875" y="159.6987">&#32531;&#23384;&#20013;&#26159;&#21542;&#23384;&#22312;&#27880;&#20837;&#20803;&#25968;&#25454;&#65311;</text><text fill="#000000" font-family="sans-serif" font-size="11" lengthAdjust="spacing" textLength="11" x="213.875" y="153.2964">&#26159;</text><text fill="#000000" font-family="sans-serif" font-size="11" lengthAdjust="spacing" textLength="11" x="391.875" y="153.2964">&#21542;</text><rect fill="#F1F1F1" height="33.9688" rx="12.5" ry="12.5" style="stroke:#181818;stroke-width:0.5;" width="144" x="33" y="177.8906"/><text fill="#000000" font-family="sans-serif" font-size="12" lengthAdjust="spacing" textLength="120" x="47" y="199.0293">&#36820;&#22238;&#32531;&#23384;&#30340;&#27880;&#20837;&#20803;&#25968;&#25454;</text><polygon fill="#F1F1F1" points="429.25,177.8906,594.25,177.8906,606.25,189.8906,594.25,201.8906,429.25,201.8906,417.25,189.8906,429.25,177.8906" style="stroke:#181818;stroke-width:0.5;"/><text fill="#000000" font-family="sans-serif" font-size="11" lengthAdjust="spacing" textLength="165" x="429.25" y="193.6987">&#35813;&#31867;&#26159;&#21542;&#26631;&#27880;&#20102;&#33258;&#21160;&#35013;&#37197;&#30340;&#27880;&#35299;&#65311;</text><text fill="#000000" font-family="sans-serif" font-size="11" lengthAdjust="spacing" textLength="11" x="406.25" y="187.2964">&#26159;</text><text fill="#000000" font-family="sans-serif" font-size="11" lengthAdjust="spacing" textLength="11" x="606.25" y="187.2964">&#21542;</text><rect fill="#F1F1F1" height="47.9375" rx="12.5" ry="12.5" style="stroke:#181818;stroke-width:0.5;" width="332" x="207" y="211.8906"/><text fill="#000000" font-family="sans-serif" font-size="12" lengthAdjust="spacing" textLength="308" x="221" y="233.0293">&#20381;&#27425;&#36941;&#21382;&#35813;Bean&#30340;&#21508;&#20010;&#23383;&#27573;&#65292;&#26500;&#24314;&#33258;&#21160;&#35013;&#37197;&#23383;&#27573;&#27880;&#20837;&#20803;&#32032;</text><text fill="#000000" font-family="sans-serif" font-size="12" lengthAdjust="spacing" textLength="142" x="217" y="246.998">AutowiredFieldElement</text><rect fill="#F1F1F1" height="47.9375" rx="12.5" ry="12.5" style="stroke:#181818;stroke-width:0.5;" width="332" x="207" y="279.8281"/><text fill="#000000" font-family="sans-serif" font-size="12" lengthAdjust="spacing" textLength="308" x="221" y="300.9668">&#20381;&#27425;&#36941;&#21382;&#35813;Bean&#30340;&#21508;&#20010;&#26041;&#27861;&#65292;&#26500;&#24314;&#33258;&#21160;&#35013;&#37197;&#26041;&#27861;&#27880;&#20837;&#20803;&#32032;</text><text fill="#000000" font-family="sans-serif" font-size="12" lengthAdjust="spacing" textLength="160" x="217" y="314.9355">AutowiredMethodElement</text><rect fill="#F1F1F1" height="47.9375" rx="12.5" ry="12.5" style="stroke:#181818;stroke-width:0.5;" width="218" x="264" y="347.7656"/><text fill="#000000" font-family="sans-serif" font-size="12" lengthAdjust="spacing" textLength="192" x="278" y="368.9043">&#36890;&#36807;&#27880;&#20837;&#20803;&#32032;&#26500;&#24314;&#27880;&#20837;&#20803;&#25968;&#25454;&#24182;&#36820;&#22238;</text><text fill="#000000" font-family="sans-serif" font-size="12" lengthAdjust="spacing" textLength="198" x="274" y="382.873">InjectionMetadata#forElements</text><rect fill="#F1F1F1" height="47.9375" rx="12.5" ry="12.5" style="stroke:#181818;stroke-width:0.5;" width="183" x="559" y="211.8906"/><text fill="#000000" font-family="sans-serif" font-size="12" lengthAdjust="spacing" textLength="108" x="573" y="233.0293">&#36820;&#22238;&#31354;&#30340;&#27880;&#20837;&#20803;&#25968;&#25454;</text><text fill="#000000" font-family="sans-serif" font-size="12" lengthAdjust="spacing" textLength="163" x="569" y="246.998">InjectionMetadata#EMPTY</text><polygon fill="#F1F1F1" points="511.75,401.7031,523.75,413.7031,511.75,425.7031,499.75,413.7031,511.75,401.7031" style="stroke:#181818;stroke-width:0.5;"/><polygon fill="#F1F1F1" points="308.375,431.7031,320.375,443.7031,308.375,455.7031,296.375,443.7031,308.375,431.7031" style="stroke:#181818;stroke-width:0.5;"/><rect fill="none" height="96.2344" style="stroke:#000000;stroke-width:1.5;" width="302" x="157.375" y="478.5049"/><path d="M449.375,478.5049 L449.375,487.8018 L439.375,497.8018 L157.375,497.8018 " fill="none" style="stroke:#000000;stroke-width:1.5;"/><text fill="#000000" font-family="sans-serif" font-size="14" lengthAdjust="spacing" textLength="282" x="160.375" y="492.5">2.&#36827;&#34892;&#20381;&#36182;&#27880;&#20837;&#65306;InjectionMetadata#inject</text><rect fill="#F1F1F1" height="47.9375" rx="12.5" ry="12.5" style="stroke:#181818;stroke-width:0.5;" width="282" x="167.375" y="514.8018"/><text fill="#000000" font-family="sans-serif" font-size="12" lengthAdjust="spacing" textLength="240" x="181.375" y="535.9404">&#20381;&#27425;&#35843;&#29992;&#27880;&#20837;&#20803;&#25968;&#25454;&#20013;&#30340;&#27880;&#20837;&#20803;&#32032;&#30340;&#27880;&#20837;&#26041;&#27861;</text><text fill="#000000" font-family="sans-serif" font-size="12" lengthAdjust="spacing" textLength="262" x="177.375" y="549.9092">InjectionMetadata.InjectedElement#inject</text><ellipse cx="308.375" cy="604.7393" fill="none" rx="10" ry="10" style="stroke:#222222;stroke-width:1.5;"/><line style="stroke:#222222;stroke-width:2.5;" x1="302.1878" x2="314.5622" y1="598.5521" y2="610.9264"/><line style="stroke:#222222;stroke-width:2.5;" x1="314.5622" x2="302.1878" y1="598.5521" y2="610.9264"/><line style="stroke:#181818;stroke-width:1.0;" x1="373" x2="373" y1="259.8281" y2="279.8281"/><polygon fill="#181818" points="369,269.8281,373,279.8281,377,269.8281,373,273.8281" style="stroke:#181818;stroke-width:1.0;"/><line style="stroke:#181818;stroke-width:1.0;" x1="373" x2="373" y1="327.7656" y2="347.7656"/><polygon fill="#181818" points="369,337.7656,373,347.7656,377,337.7656,373,341.7656" style="stroke:#181818;stroke-width:1.0;"/><line style="stroke:#181818;stroke-width:1.0;" x1="417.25" x2="373" y1="189.8906" y2="189.8906"/><line style="stroke:#181818;stroke-width:1.0;" x1="373" x2="373" y1="189.8906" y2="211.8906"/><polygon fill="#181818" points="369,201.8906,373,211.8906,377,201.8906,373,205.8906" style="stroke:#181818;stroke-width:1.0;"/><line style="stroke:#181818;stroke-width:1.0;" x1="606.25" x2="650.5" y1="189.8906" y2="189.8906"/><line style="stroke:#181818;stroke-width:1.0;" x1="650.5" x2="650.5" y1="189.8906" y2="211.8906"/><polygon fill="#181818" points="646.5,201.8906,650.5,211.8906,654.5,201.8906,650.5,205.8906" style="stroke:#181818;stroke-width:1.0;"/><line style="stroke:#181818;stroke-width:1.0;" x1="373" x2="373" y1="395.7031" y2="413.7031"/><line style="stroke:#181818;stroke-width:1.0;" x1="373" x2="499.75" y1="413.7031" y2="413.7031"/><polygon fill="#181818" points="489.75,409.7031,499.75,413.7031,489.75,417.7031,493.75,413.7031" style="stroke:#181818;stroke-width:1.0;"/><line style="stroke:#181818;stroke-width:1.0;" x1="650.5" x2="650.5" y1="259.8281" y2="413.7031"/><line style="stroke:#181818;stroke-width:1.0;" x1="650.5" x2="523.75" y1="413.7031" y2="413.7031"/><polygon fill="#181818" points="533.75,409.7031,523.75,413.7031,533.75,417.7031,529.75,413.7031" style="stroke:#181818;stroke-width:1.0;"/><line style="stroke:#181818;stroke-width:1.0;" x1="224.875" x2="105" y1="155.8906" y2="155.8906"/><line style="stroke:#181818;stroke-width:1.0;" x1="105" x2="105" y1="155.8906" y2="177.8906"/><polygon fill="#181818" points="101,167.8906,105,177.8906,109,167.8906,105,171.8906" style="stroke:#181818;stroke-width:1.0;"/><line style="stroke:#181818;stroke-width:1.0;" x1="391.875" x2="511.75" y1="155.8906" y2="155.8906"/><line style="stroke:#181818;stroke-width:1.0;" x1="511.75" x2="511.75" y1="155.8906" y2="177.8906"/><polygon fill="#181818" points="507.75,167.8906,511.75,177.8906,515.75,167.8906,511.75,171.8906" style="stroke:#181818;stroke-width:1.0;"/><line style="stroke:#181818;stroke-width:1.0;" x1="105" x2="105" y1="211.8594" y2="443.7031"/><line style="stroke:#181818;stroke-width:1.0;" x1="105" x2="296.375" y1="443.7031" y2="443.7031"/><polygon fill="#181818" points="286.375,439.7031,296.375,443.7031,286.375,447.7031,290.375,443.7031" style="stroke:#181818;stroke-width:1.0;"/><line style="stroke:#181818;stroke-width:1.0;" x1="511.75" x2="511.75" y1="425.7031" y2="443.7031"/><line style="stroke:#181818;stroke-width:1.0;" x1="511.75" x2="320.375" y1="443.7031" y2="443.7031"/><polygon fill="#181818" points="330.375,439.7031,320.375,443.7031,330.375,447.7031,326.375,443.7031" style="stroke:#181818;stroke-width:1.0;"/><line style="stroke:#181818;stroke-width:1.0;" x1="308.375" x2="308.375" y1="97.5938" y2="143.8906"/><polygon fill="#181818" points="304.375,133.8906,308.375,143.8906,312.375,133.8906,308.375,137.8906" style="stroke:#181818;stroke-width:1.0;"/><line style="stroke:#181818;stroke-width:1.0;" x1="308.375" x2="308.375" y1="455.7031" y2="514.8018"/><polygon fill="#181818" points="304.375,504.8018,308.375,514.8018,312.375,504.8018,308.375,508.8018" style="stroke:#181818;stroke-width:1.0;"/><line style="stroke:#181818;stroke-width:1.0;" x1="308.375" x2="308.375" y1="562.7393" y2="594.7393"/><polygon fill="#181818" points="304.375,584.7393,308.375,594.7393,312.375,584.7393,308.375,588.7393" style="stroke:#181818;stroke-width:1.0;"/><!--SRC=[ZPBFJnf15CVFpb-nYHUyaDIZd6nY4mya77enuR9n1vq6PyZk6AyQGP9Mh4c16go_OgXeYZ-Yg22HVuQP7Kx-2ttBBB1rQVIoCs_cxVVpvliU9poD3PM_45zhwZJNonNaRKsTdNQV3rIZ37kHgxgLh6nikBLlQCbcgnbZTfMpDM9ZQvPInarE6Fs8JPfW3a_OR14x3hCdCwC8bWosES4EShXfSr_cGrJjF8ZlvI3SG_MP8hSfIzUoSFdIhhoBboBKyXC9NOfZRbecDn596H6t_KFKzxgFTRbt9NP_mrxygeKmHrC6NyRKY43M59gOCLIdAFOFzS_Xkc88fnriH40GiZsCkggwDq-Q8O_paDzjROKV1-Q6O403m-MVazv6GUniWPBtGCWNkzdkuuMe_vINZPVsjZpCYgTMK5DV3MjpxuwJTEZN9uBJrbmQhs3AOszIPBafRqjZAVhgFnJmUfdzY-cjLrGd7ypNcgyy5CrxRNAIpjClUD7hxA1paobc-veEY0RD7lNcl1Lkp3YjkNZYyuAdGYsIGXD8h_0r-gE8_8cSZghElZhP3Wu_p5zOZ_HFqC1FTRtf5bzF5CnRi3ZmO1XgEySK6jKdUE2c3ugXGAsm6qL_0G00]--></g></svg>