<?xml version="1.0" encoding="us-ascii" standalone="no"?><svg xmlns="http://www.w3.org/2000/svg" xmlns:xlink="http://www.w3.org/1999/xlink" contentStyleType="text/css" height="413px" preserveAspectRatio="none" style="width:1131px;height:413px;background:#FFFFFF;" version="1.1" viewBox="0 0 1131 413" width="1131px" zoomAndPan="magnify"><defs/><g><text fill="#000000" font-family="sans-serif" font-size="14" font-weight="bold" lengthAdjust="spacing" textLength="211" x="453" y="22.9951">DispatcherServlet&#30340;&#32487;&#25215;&#20307;&#31995;</text><!--class Servlet--><g id="elem_Servlet"><rect codeLine="2" fill="#F1F1F1" height="64.2969" id="Servlet" rx="2.5" ry="2.5" style="stroke:#181818;stroke-width:0.5;" width="349" x="7" y="193.0369"/><ellipse cx="153.75" cy="209.0369" fill="#B4A7E5" rx="11" ry="11" style="stroke:#181818;stroke-width:1.0;"/><path d="M149.6719,204.8025 L149.6719,202.6462 L157.0625,202.6462 L157.0625,204.8025 L154.5938,204.8025 L154.5938,212.8806 L157.0625,212.8806 L157.0625,215.0369 L149.6719,215.0369 L149.6719,212.8806 L152.1406,212.8806 L152.1406,204.8025 L149.6719,204.8025 Z " fill="#000000"/><text fill="#000000" font-family="sans-serif" font-size="14" font-style="italic" lengthAdjust="spacing" textLength="47" x="174.25" y="213.8836">Servlet</text><line style="stroke:#181818;stroke-width:0.5;" x1="8" x2="355" y1="225.0369" y2="225.0369"/><line style="stroke:#181818;stroke-width:0.5;" x1="8" x2="355" y1="233.0369" y2="233.0369"/><ellipse cx="18" cy="246.6853" fill="#84BE84" rx="3" ry="3" style="stroke:#038048;stroke-width:1.0;"/><text fill="#000000" font-family="sans-serif" font-size="14" lengthAdjust="spacing" textLength="323" x="27" y="250.032">service(ServletRequest, ServletResponse) void</text></g><!--class GenericServlet--><g id="elem_GenericServlet"><rect codeLine="5" fill="#F1F1F1" height="64.2969" id="GenericServlet" rx="2.5" ry="2.5" style="stroke:#181818;stroke-width:0.5;" width="349" x="7" y="52.4469"/><ellipse cx="126.75" cy="68.4469" fill="#A9DCDF" rx="11" ry="11" style="stroke:#181818;stroke-width:1.0;"/><path d="M126.8594,63.7906 L125.7031,68.8687 L128.0313,68.8687 L126.8594,63.7906 Z M125.375,61.5562 L128.3594,61.5562 L131.7188,73.9469 L129.2656,73.9469 L128.5,70.8844 L125.2188,70.8844 L124.4688,73.9469 L122.0313,73.9469 L125.375,61.5562 Z " fill="#000000"/><text fill="#000000" font-family="sans-serif" font-size="14" font-style="italic" lengthAdjust="spacing" textLength="101" x="147.25" y="73.2936">GenericServlet</text><line style="stroke:#181818;stroke-width:0.5;" x1="8" x2="355" y1="84.4469" y2="84.4469"/><line style="stroke:#181818;stroke-width:0.5;" x1="8" x2="355" y1="92.4469" y2="92.4469"/><ellipse cx="18" cy="106.0953" fill="#84BE84" rx="3" ry="3" style="stroke:#038048;stroke-width:1.0;"/><text fill="#000000" font-family="sans-serif" font-size="14" font-style="italic" lengthAdjust="spacing" textLength="323" x="27" y="109.442">service(ServletRequest, ServletResponse) void</text></g><!--class HttpServlet--><g id="elem_HttpServlet"><rect codeLine="8" fill="#F1F1F1" height="80.5938" id="HttpServlet" rx="2.5" ry="2.5" style="stroke:#181818;stroke-width:0.5;" width="407" x="391" y="44.2969"/><ellipse cx="552.25" cy="60.2969" fill="#A9DCDF" rx="11" ry="11" style="stroke:#181818;stroke-width:1.0;"/><path d="M552.3594,55.6406 L551.2031,60.7188 L553.5313,60.7188 L552.3594,55.6406 Z M550.875,53.4063 L553.8594,53.4063 L557.2188,65.7969 L554.7656,65.7969 L554,62.7344 L550.7188,62.7344 L549.9688,65.7969 L547.5313,65.7969 L550.875,53.4063 Z " fill="#000000"/><text fill="#000000" font-family="sans-serif" font-size="14" font-style="italic" lengthAdjust="spacing" textLength="76" x="572.75" y="65.1436">HttpServlet</text><line style="stroke:#181818;stroke-width:0.5;" x1="392" x2="797" y1="76.2969" y2="76.2969"/><line style="stroke:#181818;stroke-width:0.5;" x1="392" x2="797" y1="84.2969" y2="84.2969"/><ellipse cx="402" cy="97.9453" fill="#84BE84" rx="3" ry="3" style="stroke:#038048;stroke-width:1.0;"/><text fill="#000000" font-family="sans-serif" font-size="14" lengthAdjust="spacing" textLength="323" x="411" y="101.292">service(ServletRequest, ServletResponse) void</text><polygon fill="#4177AF" points="402,110.2422,398,116.2422,406,116.2422" style="stroke:#1963A0;stroke-width:1.0;"/><text fill="#000000" font-family="sans-serif" font-size="14" font-style="italic" lengthAdjust="spacing" textLength="381" x="411" y="117.5889">service(HttpServletRequest, HttpServletResponse) void</text></g><!--class HttpServletBean--><g id="elem_HttpServletBean"><rect codeLine="12" fill="#F1F1F1" height="48" id="HttpServletBean" rx="2.5" ry="2.5" style="stroke:#181818;stroke-width:0.5;" width="144" x="833.5" y="60.5969"/><ellipse cx="848.5" cy="76.5969" fill="#A9DCDF" rx="11" ry="11" style="stroke:#181818;stroke-width:1.0;"/><path d="M848.6094,71.9406 L847.4531,77.0187 L849.7813,77.0187 L848.6094,71.9406 Z M847.125,69.7062 L850.1094,69.7062 L853.4688,82.0969 L851.0156,82.0969 L850.25,79.0344 L846.9688,79.0344 L846.2188,82.0969 L843.7813,82.0969 L847.125,69.7062 Z " fill="#000000"/><text fill="#000000" font-family="sans-serif" font-size="14" font-style="italic" lengthAdjust="spacing" textLength="112" x="862.5" y="81.4436">HttpServletBean</text><line style="stroke:#181818;stroke-width:0.5;" x1="834.5" x2="976.5" y1="92.5969" y2="92.5969"/><line style="stroke:#181818;stroke-width:0.5;" x1="834.5" x2="976.5" y1="100.5969" y2="100.5969"/></g><!--class FrameworkServlet--><g id="elem_FrameworkServlet"><rect codeLine="14" fill="#F1F1F1" height="80.5938" id="FrameworkServlet" rx="2.5" ry="2.5" style="stroke:#181818;stroke-width:0.5;" width="426" x="692.5" y="184.8869"/><ellipse cx="839.75" cy="200.8869" fill="#A9DCDF" rx="11" ry="11" style="stroke:#181818;stroke-width:1.0;"/><path d="M839.8594,196.2306 L838.7031,201.3087 L841.0313,201.3087 L839.8594,196.2306 Z M838.375,193.9962 L841.3594,193.9962 L844.7188,206.3869 L842.2656,206.3869 L841.5,203.3244 L838.2188,203.3244 L837.4688,206.3869 L835.0313,206.3869 L838.375,193.9962 Z " fill="#000000"/><text fill="#000000" font-family="sans-serif" font-size="14" font-style="italic" lengthAdjust="spacing" textLength="123" x="860.25" y="205.7336">FrameworkServlet</text><line style="stroke:#181818;stroke-width:0.5;" x1="693.5" x2="1117.5" y1="216.8869" y2="216.8869"/><line style="stroke:#181818;stroke-width:0.5;" x1="693.5" x2="1117.5" y1="224.8869" y2="224.8869"/><polygon fill="#4177AF" points="703.5,234.5353,699.5,240.5353,707.5,240.5353" style="stroke:#1963A0;stroke-width:1.0;"/><text fill="#000000" font-family="sans-serif" font-size="14" lengthAdjust="spacing" textLength="381" x="712.5" y="241.882">service(HttpServletRequest, HttpServletResponse) void</text><polygon fill="#4177AF" points="703.5,250.8322,699.5,256.8322,707.5,256.8322" style="stroke:#1963A0;stroke-width:1.0;"/><text fill="#000000" font-family="sans-serif" font-size="14" font-style="italic" lengthAdjust="spacing" textLength="400" x="712.5" y="258.1789">doService(HttpServletRequest, HttpServletResponse) void</text></g><!--class DispatcherServlet--><g id="elem_DispatcherServlet"><rect codeLine="18" fill="#F1F1F1" height="80.5938" id="DispatcherServlet" rx="2.5" ry="2.5" style="stroke:#181818;stroke-width:0.5;" width="437" x="687" y="325.4869"/><ellipse cx="840.25" cy="341.4869" fill="#ADD1B2" rx="11" ry="11" style="stroke:#181818;stroke-width:1.0;"/><path d="M843.2188,347.1275 Q842.6406,347.4244 842,347.565 Q841.3594,347.7212 840.6563,347.7212 Q838.1563,347.7212 836.8281,346.0806 Q835.5156,344.4244 835.5156,341.2994 Q835.5156,338.1744 836.8281,336.5181 Q838.1563,334.8619 840.6563,334.8619 Q841.3594,334.8619 842,335.0181 Q842.6563,335.1744 843.2188,335.4712 L843.2188,338.19 Q842.5938,337.6119 842,337.3462 Q841.4063,337.065 840.7813,337.065 Q839.4375,337.065 838.75,338.1431 Q838.0625,339.2056 838.0625,341.2994 Q838.0625,343.3931 838.75,344.4712 Q839.4375,345.5337 840.7813,345.5337 Q841.4063,345.5337 842,345.2681 Q842.5938,344.9869 843.2188,344.4087 L843.2188,347.1275 Z " fill="#000000"/><text fill="#000000" font-family="sans-serif" font-size="14" lengthAdjust="spacing" textLength="122" x="860.75" y="346.3336">DispatcherServlet</text><line style="stroke:#181818;stroke-width:0.5;" x1="688" x2="1123" y1="357.4869" y2="357.4869"/><line style="stroke:#181818;stroke-width:0.5;" x1="688" x2="1123" y1="365.4869" y2="365.4869"/><polygon fill="#4177AF" points="698,375.1353,694,381.1353,702,381.1353" style="stroke:#1963A0;stroke-width:1.0;"/><text fill="#000000" font-family="sans-serif" font-size="14" lengthAdjust="spacing" textLength="400" x="707" y="382.482">doService(HttpServletRequest, HttpServletResponse) void</text><polygon fill="#4177AF" points="698,391.4322,694,397.4322,702,397.4322" style="stroke:#1963A0;stroke-width:1.0;"/><text fill="#000000" font-family="sans-serif" font-size="14" lengthAdjust="spacing" textLength="411" x="707" y="398.7789">doDispatch(HttpServletRequest, HttpServletResponse) void</text></g><!--link GenericServlet to Servlet--><g id="link_GenericServlet_Servlet"><path codeLine="23" d="M181.5,117.0369 C181.5,133.2569 181.5,153.4569 181.5,171.9369 " fill="none" id="GenericServlet-to-Servlet" style="stroke:#181818;stroke-width:1.0;stroke-dasharray:7.0,7.0;"/><polygon fill="none" points="188.5,171.8569,181.5,191.8569,174.5,171.8569,188.5,171.8569" style="stroke:#181818;stroke-width:1.0;"/></g><!--reverse link GenericServlet to HttpServlet--><g id="link_GenericServlet_HttpServlet"><path codeLine="24" d="M377.13,84.5969 C381.62,84.5969 386.1,84.5969 390.59,84.5969 " fill="none" id="GenericServlet-backto-HttpServlet" style="stroke:#181818;stroke-width:1.0;"/><polygon fill="none" points="377.14,91.5969,357.14,84.5969,377.14,77.5969,377.14,91.5969" style="stroke:#181818;stroke-width:1.0;"/></g><!--reverse link HttpServlet to HttpServletBean--><g id="link_HttpServlet_HttpServletBean"><path codeLine="25" d="M819.2,84.5969 C823.82,84.5969 828.43,84.5969 833.05,84.5969 " fill="none" id="HttpServlet-backto-HttpServletBean" style="stroke:#181818;stroke-width:1.0;"/><polygon fill="none" points="819.29,91.5969,799.29,84.5969,819.29,77.5969,819.29,91.5969" style="stroke:#181818;stroke-width:1.0;"/></g><!--reverse link HttpServletBean to FrameworkServlet--><g id="link_HttpServletBean_FrameworkServlet"><path codeLine="26" d="M905.5,129.6969 C905.5,147.3269 905.5,167.4669 905.5,184.6169 " fill="none" id="HttpServletBean-backto-FrameworkServlet" style="stroke:#181818;stroke-width:1.0;"/><polygon fill="none" points="898.5,129.7869,905.5,109.7869,912.5,129.7869,898.5,129.7869" style="stroke:#181818;stroke-width:1.0;"/></g><!--reverse link FrameworkServlet to DispatcherServlet--><g id="link_FrameworkServlet_DispatcherServlet"><path codeLine="27" d="M905.5,286.4669 C905.5,299.5269 905.5,313.0269 905.5,325.0569 " fill="none" id="FrameworkServlet-backto-DispatcherServlet" style="stroke:#181818;stroke-width:1.0;"/><polygon fill="none" points="898.5,286.8969,905.5,266.8969,912.5,286.8969,898.5,286.8969" style="stroke:#181818;stroke-width:1.0;"/></g><!--SRC=[AyaioKbLSCaiBaWiISv8BGfEBIhBIIrvFglb-UxbpphtFzax-VdctLoPUIMfHMc9oQaAK0KArLoSsWh5G4vcSge6L30ejR0qjRX4Hm7EBox8pojErLGeoyzCuQhbIamgBYbAJ2vHICv9B2vMS4_DIotAJ4OniXgcffPIqprAIWeeS2rd7JQt81aAruyYHhIRd58JynIgQxdGbRWL9UQcbkSNPIEvlOvC-r7za98VJAOl82x3I2KGfv5hB5Whp4oIdSI5bdZqKlHgx61HoOKSzxevka0PLELSw141KOGaoeKH3xgbQ4f06ham0mMY3bqx0000]--></g></svg>