<?xml version="1.0" encoding="us-ascii" standalone="no"?><svg xmlns="http://www.w3.org/2000/svg" xmlns:xlink="http://www.w3.org/1999/xlink" contentStyleType="text/css" height="619px" preserveAspectRatio="none" style="width:834px;height:619px;background:#FFFFFF;" version="1.1" viewBox="0 0 834 619" width="834px" zoomAndPan="magnify"><defs/><g><text fill="#000000" font-family="Consolas" font-size="14" font-weight="bold" lengthAdjust="spacing" textLength="182" x="324.5" y="27.9951">&#33258;&#21160;&#35013;&#37197;&#27880;&#35299;&#20381;&#36182;&#27880;&#20837;&#30340;&#27969;&#31243;</text><text fill="#000000" font-family="Consolas" font-size="14" font-weight="bold" lengthAdjust="spacing" textLength="545" x="143" y="44.292">&#65288;AutowiredAnnotationBeanPostProcessor#postProcessProperties&#65289;</text><ellipse cx="329.5" cy="68.5938" fill="#FFFFFF" rx="10" ry="10" style="stroke:#000000;stroke-width:1.0;"/><rect fill="#FFFFFF" height="374.0781" style="stroke:#000000;stroke-width:1.0;" width="822" x="6" y="88.5938"/><path d="M665,88.5938 L665,97.8906 L655,107.8906 L6,107.8906 " fill="none" style="stroke:#000000;stroke-width:1.0;"/><text fill="#000000" font-family="Consolas" font-size="14" lengthAdjust="spacing" textLength="649" x="9" y="102.5889">1.&#33719;&#21462;&#33258;&#21160;&#35013;&#37197;&#30340;&#27880;&#20837;&#20803;&#25968;&#25454;&#65306;AutowiredAnnotationBeanPostProcessor#findAutowiringMetadata</text><polygon fill="#FFFFFF" points="238.5,124.8906,420.5,124.8906,432.5,136.8906,420.5,148.8906,238.5,148.8906,226.5,136.8906,238.5,124.8906" style="stroke:#000000;stroke-width:1.0;"/><text fill="#000000" font-family="Consolas" font-size="14" lengthAdjust="spacing" textLength="182" x="238.5" y="141.7373">&#32531;&#23384;&#20013;&#26159;&#21542;&#23384;&#22312;&#27880;&#20837;&#20803;&#25968;&#25454;&#65311;</text><text fill="#000000" font-family="Consolas" font-size="14" lengthAdjust="spacing" textLength="14" x="212.5" y="133.5889">&#26159;</text><text fill="#000000" font-family="Consolas" font-size="14" lengthAdjust="spacing" textLength="14" x="432.5" y="133.5889">&#21542;</text><rect fill="#FFFFFF" height="36.2969" rx="12.5" ry="12.5" style="stroke:#000000;stroke-width:1.0;" width="164" x="18" y="158.8906"/><text fill="#000000" font-family="Consolas" font-size="14" lengthAdjust="spacing" textLength="140" x="32" y="181.8857">&#36820;&#22238;&#32531;&#23384;&#30340;&#27880;&#20837;&#20803;&#25968;&#25454;</text><polygon fill="#FFFFFF" points="454,158.8906,664,158.8906,676,170.8906,664,182.8906,454,182.8906,442,170.8906,454,158.8906" style="stroke:#000000;stroke-width:1.0;"/><text fill="#000000" font-family="Consolas" font-size="14" lengthAdjust="spacing" textLength="210" x="454" y="175.7373">&#35813;&#31867;&#26159;&#21542;&#26631;&#27880;&#20102;&#33258;&#21160;&#35013;&#37197;&#30340;&#27880;&#35299;&#65311;</text><text fill="#000000" font-family="Consolas" font-size="14" lengthAdjust="spacing" textLength="14" x="428" y="167.5889">&#26159;</text><text fill="#000000" font-family="Consolas" font-size="14" lengthAdjust="spacing" textLength="14" x="676" y="167.5889">&#21542;</text><rect fill="#FFFFFF" height="52.5938" rx="12.5" ry="12.5" style="stroke:#000000;stroke-width:1.0;" width="382" x="212" y="192.8906"/><text fill="#000000" font-family="Consolas" font-size="14" lengthAdjust="spacing" textLength="358" x="226" y="215.8857">&#20381;&#27425;&#36941;&#21382;&#35813;Bean&#30340;&#21508;&#20010;&#23383;&#27573;&#65292;&#26500;&#24314;&#33258;&#21160;&#35013;&#37197;&#23383;&#27573;&#27880;&#20837;&#20803;&#32032;</text><text fill="#000000" font-family="Consolas" font-size="14" lengthAdjust="spacing" textLength="158" x="222" y="232.1826">AutowiredFieldElement</text><rect fill="#FFFFFF" height="52.5938" rx="12.5" ry="12.5" style="stroke:#000000;stroke-width:1.0;" width="382" x="212" y="265.4844"/><text fill="#000000" font-family="Consolas" font-size="14" lengthAdjust="spacing" textLength="358" x="226" y="288.4795">&#20381;&#27425;&#36941;&#21382;&#35813;Bean&#30340;&#21508;&#20010;&#26041;&#27861;&#65292;&#26500;&#24314;&#33258;&#21160;&#35013;&#37197;&#26041;&#27861;&#27880;&#20837;&#20803;&#32032;</text><text fill="#000000" font-family="Consolas" font-size="14" lengthAdjust="spacing" textLength="179" x="222" y="304.7764">AutowiredMethodElement</text><rect fill="#FFFFFF" height="52.5938" rx="12.5" ry="12.5" style="stroke:#000000;stroke-width:1.0;" width="248" x="279" y="338.0781"/><text fill="#000000" font-family="Consolas" font-size="14" lengthAdjust="spacing" textLength="224" x="293" y="361.0732">&#36890;&#36807;&#27880;&#20837;&#20803;&#32032;&#26500;&#24314;&#27880;&#20837;&#20803;&#25968;&#25454;&#24182;&#36820;&#22238;</text><text fill="#000000" font-family="Consolas" font-size="14" lengthAdjust="spacing" textLength="217" x="289" y="377.3701">InjectionMetadata#forElements</text><rect fill="#FFFFFF" height="52.5938" rx="12.5" ry="12.5" style="stroke:#000000;stroke-width:1.0;" width="202" x="614" y="192.8906"/><text fill="#000000" font-family="Consolas" font-size="14" lengthAdjust="spacing" textLength="126" x="628" y="215.8857">&#36820;&#22238;&#31354;&#30340;&#27880;&#20837;&#20803;&#25968;&#25454;</text><text fill="#000000" font-family="Consolas" font-size="14" lengthAdjust="spacing" textLength="182" x="624" y="232.1826">InjectionMetadata#EMPTY</text><polygon fill="#FFFFFF" points="559,396.6719,571,408.6719,559,420.6719,547,408.6719,559,396.6719" style="stroke:#000000;stroke-width:1.0;"/><polygon fill="#FFFFFF" points="329.5,426.6719,341.5,438.6719,329.5,450.6719,317.5,438.6719,329.5,426.6719" style="stroke:#000000;stroke-width:1.0;"/><rect fill="#FFFFFF" height="100.8906" style="stroke:#000000;stroke-width:1.0;" width="327" x="166" y="472.6719"/><path d="M458,472.6719 L458,481.9688 L448,491.9688 L166,491.9688 " fill="none" style="stroke:#000000;stroke-width:1.0;"/><text fill="#000000" font-family="Consolas" font-size="14" lengthAdjust="spacing" textLength="282" x="169" y="486.667">2.&#36827;&#34892;&#20381;&#36182;&#27880;&#20837;&#65306;InjectionMetadata#inject</text><rect fill="#FFFFFF" height="52.5938" rx="12.5" ry="12.5" style="stroke:#000000;stroke-width:1.0;" width="307" x="176" y="508.9688"/><text fill="#000000" font-family="Consolas" font-size="14" lengthAdjust="spacing" textLength="280" x="190" y="531.9639">&#20381;&#27425;&#35843;&#29992;&#27880;&#20837;&#20803;&#25968;&#25454;&#20013;&#30340;&#27880;&#20837;&#20803;&#32032;&#30340;&#27880;&#20837;&#26041;&#27861;</text><text fill="#000000" font-family="Consolas" font-size="14" lengthAdjust="spacing" textLength="287" x="186" y="548.2607">InjectionMetadata.InjectedElement#inject</text><ellipse cx="329.5" cy="603.5625" fill="#FFFFFF" rx="10" ry="10" style="stroke:#000000;stroke-width:1.5;"/><line style="stroke:#000000;stroke-width:2.5;" x1="323.3128" x2="335.6872" y1="597.3753" y2="609.7497"/><line style="stroke:#000000;stroke-width:2.5;" x1="335.6872" x2="323.3128" y1="597.3753" y2="609.7497"/><line style="stroke:#000000;stroke-width:1.0;" x1="403" x2="403" y1="245.4844" y2="265.4844"/><polygon fill="#000000" points="399,255.4844,403,265.4844,407,255.4844,403,259.4844" style="stroke:#000000;stroke-width:1.0;"/><line style="stroke:#000000;stroke-width:1.0;" x1="403" x2="403" y1="318.0781" y2="338.0781"/><polygon fill="#000000" points="399,328.0781,403,338.0781,407,328.0781,403,332.0781" style="stroke:#000000;stroke-width:1.0;"/><line style="stroke:#000000;stroke-width:1.0;" x1="442" x2="403" y1="170.8906" y2="170.8906"/><line style="stroke:#000000;stroke-width:1.0;" x1="403" x2="403" y1="170.8906" y2="192.8906"/><polygon fill="#000000" points="399,182.8906,403,192.8906,407,182.8906,403,186.8906" style="stroke:#000000;stroke-width:1.0;"/><line style="stroke:#000000;stroke-width:1.0;" x1="676" x2="715" y1="170.8906" y2="170.8906"/><line style="stroke:#000000;stroke-width:1.0;" x1="715" x2="715" y1="170.8906" y2="192.8906"/><polygon fill="#000000" points="711,182.8906,715,192.8906,719,182.8906,715,186.8906" style="stroke:#000000;stroke-width:1.0;"/><line style="stroke:#000000;stroke-width:1.0;" x1="403" x2="403" y1="390.6719" y2="408.6719"/><line style="stroke:#000000;stroke-width:1.0;" x1="403" x2="547" y1="408.6719" y2="408.6719"/><polygon fill="#000000" points="537,404.6719,547,408.6719,537,412.6719,541,408.6719" style="stroke:#000000;stroke-width:1.0;"/><line style="stroke:#000000;stroke-width:1.0;" x1="715" x2="715" y1="245.4844" y2="408.6719"/><line style="stroke:#000000;stroke-width:1.0;" x1="715" x2="571" y1="408.6719" y2="408.6719"/><polygon fill="#000000" points="581,404.6719,571,408.6719,581,412.6719,577,408.6719" style="stroke:#000000;stroke-width:1.0;"/><line style="stroke:#000000;stroke-width:1.0;" x1="226.5" x2="100" y1="136.8906" y2="136.8906"/><line style="stroke:#000000;stroke-width:1.0;" x1="100" x2="100" y1="136.8906" y2="158.8906"/><polygon fill="#000000" points="96,148.8906,100,158.8906,104,148.8906,100,152.8906" style="stroke:#000000;stroke-width:1.0;"/><line style="stroke:#000000;stroke-width:1.0;" x1="432.5" x2="559" y1="136.8906" y2="136.8906"/><line style="stroke:#000000;stroke-width:1.0;" x1="559" x2="559" y1="136.8906" y2="158.8906"/><polygon fill="#000000" points="555,148.8906,559,158.8906,563,148.8906,559,152.8906" style="stroke:#000000;stroke-width:1.0;"/><line style="stroke:#000000;stroke-width:1.0;" x1="100" x2="100" y1="195.1875" y2="438.6719"/><line style="stroke:#000000;stroke-width:1.0;" x1="100" x2="317.5" y1="438.6719" y2="438.6719"/><polygon fill="#000000" points="307.5,434.6719,317.5,438.6719,307.5,442.6719,311.5,438.6719" style="stroke:#000000;stroke-width:1.0;"/><line style="stroke:#000000;stroke-width:1.0;" x1="559" x2="559" y1="420.6719" y2="438.6719"/><line style="stroke:#000000;stroke-width:1.0;" x1="559" x2="341.5" y1="438.6719" y2="438.6719"/><polygon fill="#000000" points="351.5,434.6719,341.5,438.6719,351.5,442.6719,347.5,438.6719" style="stroke:#000000;stroke-width:1.0;"/><line style="stroke:#000000;stroke-width:1.0;" x1="329.5" x2="329.5" y1="78.5938" y2="124.8906"/><polygon fill="#000000" points="325.5,114.8906,329.5,124.8906,333.5,114.8906,329.5,118.8906" style="stroke:#000000;stroke-width:1.0;"/><line style="stroke:#000000;stroke-width:1.0;" x1="329.5" x2="329.5" y1="450.6719" y2="508.9688"/><polygon fill="#000000" points="325.5,498.9688,329.5,508.9688,333.5,498.9688,329.5,502.9688" style="stroke:#000000;stroke-width:1.0;"/><line style="stroke:#000000;stroke-width:1.0;" x1="329.5" x2="329.5" y1="561.5625" y2="593.5625"/><polygon fill="#000000" points="325.5,583.5625,329.5,593.5625,333.5,583.5625,329.5,587.5625" style="stroke:#000000;stroke-width:1.0;"/><!--SRC=[ZPBFJnD15CVFp5ynXakvDC5uiYSqa7Z0DD6BIIyJTXP6bvbcTneJJn9QwW-A940bHH52q4eiOB0APMF_cSxizDH_mTTkMrQs1YyxFzxRx-VDzxrRSe4kKfnr2EF8UyPubhXa4Kic7JeZk7p4Nb0yUISIigXDSewyCVYGWEvzmJtX40_r1B4f7gatLNDGQ1TA-gnglXoqVdyqzJBiLU4mgEHrVIcelitmZlzgAYV5S-PIQufp8ObaWj-ZXAU59zEkcAEU9zpnxDK9bYnr9QDUnt-Da2U9Az6yAt9PF9aqQx_Kkt8KtuNrgAgmhBTETUcuurV-YsapRlKJ6P-VfP9OH1B4R9m8_0rLsswTr_JsYLh_37lreHh3V9h0u3h72SYQG6DtiMbkgftTyETuNIb47O_Y10X2TXTZJWw3xvSXG-yL8R_LM8a_3koDmO06bkjl- -sbabfR0QNk0o5VhUTRvqUgzbuVrpl-gjxDgyj6L3CC3MiBVknb-D2l6KOTQzg1KU8oTID5bo_qsTP8IXZw1mMyNX1_OzelAwPPZEQ7cjSyL1S_GvCp_05_IkUwdHrqRjmMRb_J0z6esLUz-Tg8DsQKrlHi-l6JhWgtc8t6KBZ25_T64VKdydRID7VC_cfq_67-udgiTuC6VfhJvM3p-aJ1l4MB0m-6nz3E4OKcmniwSBCFIg58hR3x0m00]--></g></svg>