<?xml version="1.0" encoding="us-ascii" standalone="no"?><svg xmlns="http://www.w3.org/2000/svg" xmlns:xlink="http://www.w3.org/1999/xlink" contentStyleType="text/css" height="358px" preserveAspectRatio="none" style="width:1191px;height:358px;background:#FFFFFF;" version="1.1" viewBox="0 0 1191 358" width="1191px" zoomAndPan="magnify"><defs/><g><text fill="#000000" font-family="Consolas" font-size="14" font-weight="bold" lengthAdjust="spacing" textLength="140" x="524" y="27.9951">&#32447;&#31243;&#27744;&#22788;&#29702;&#20219;&#21153;&#30340;&#27969;&#31243;</text><ellipse cx="425.5" cy="52.2969" fill="#FFFFFF" rx="10" ry="10" style="stroke:#000000;stroke-width:1.0;"/><polygon fill="#FFFFFF" points="289.5,82.2969,561.5,82.2969,573.5,94.2969,561.5,106.2969,289.5,106.2969,277.5,94.2969,289.5,82.2969" style="stroke:#000000;stroke-width:1.0;"/><text fill="#000000" font-family="Consolas" font-size="14" lengthAdjust="spacing" textLength="272" x="289.5" y="99.1436">&#32447;&#31243;&#25968;&#26159;&#21542;&#36798;&#21040;&#26680;&#24515;&#32447;&#31243;&#25968;corePoolSize&#65311;</text><text fill="#000000" font-family="Consolas" font-size="14" lengthAdjust="spacing" textLength="14" x="263.5" y="90.9951">&#21542;</text><text fill="#000000" font-family="Consolas" font-size="14" lengthAdjust="spacing" textLength="14" x="573.5" y="90.9951">&#26159;</text><rect fill="#FFFFFF" height="36.2969" rx="12.5" ry="12.5" style="stroke:#000000;stroke-width:1.0;" width="287" x="6" y="116.2969"/><text fill="#000000" font-family="Consolas" font-size="14" lengthAdjust="spacing" textLength="263" x="20" y="139.292">&#20351;&#29992;&#32447;&#31243;&#24037;&#21378;threadFactory&#21019;&#24314;&#26032;&#30340;&#32447;&#31243;</text><polygon fill="#FFFFFF" points="631,116.2969,743,116.2969,755,128.2969,743,140.2969,631,140.2969,619,128.2969,631,116.2969" style="stroke:#000000;stroke-width:1.0;"/><text fill="#000000" font-family="Consolas" font-size="14" lengthAdjust="spacing" textLength="112" x="631" y="133.1436">&#38459;&#22622;&#38431;&#21015;&#24050;&#32463;&#28385;&#65311;</text><text fill="#000000" font-family="Consolas" font-size="14" lengthAdjust="spacing" textLength="14" x="605" y="124.9951">&#21542;</text><text fill="#000000" font-family="Consolas" font-size="14" lengthAdjust="spacing" textLength="14" x="755" y="124.9951">&#26159;</text><rect fill="#FFFFFF" height="36.2969" rx="12.5" ry="12.5" style="stroke:#000000;stroke-width:1.0;" width="272" x="323" y="150.2969"/><text fill="#000000" font-family="Consolas" font-size="14" lengthAdjust="spacing" textLength="248" x="337" y="173.292">&#23558;&#35813;&#20219;&#21153;&#21152;&#20837;&#21040;&#38459;&#22622;&#38431;&#21015;workQueue&#20013;</text><polygon fill="#FFFFFF" points="776,150.2969,1083,150.2969,1095,162.2969,1083,174.2969,776,174.2969,764,162.2969,776,150.2969" style="stroke:#000000;stroke-width:1.0;"/><text fill="#000000" font-family="Consolas" font-size="14" lengthAdjust="spacing" textLength="307" x="776" y="167.1436">&#32447;&#31243;&#25968;&#26159;&#21542;&#36798;&#21040;&#26368;&#22823;&#32447;&#31243;&#25968;maximumPoolSize&#65311;</text><text fill="#000000" font-family="Consolas" font-size="14" lengthAdjust="spacing" textLength="14" x="750" y="158.9951">&#21542;</text><text fill="#000000" font-family="Consolas" font-size="14" lengthAdjust="spacing" textLength="14" x="1095" y="158.9951">&#26159;</text><rect fill="#FFFFFF" height="36.2969" rx="12.5" ry="12.5" style="stroke:#000000;stroke-width:1.0;" width="287" x="610.5" y="184.2969"/><text fill="#000000" font-family="Consolas" font-size="14" lengthAdjust="spacing" textLength="263" x="624.5" y="207.292">&#20351;&#29992;&#32447;&#31243;&#24037;&#21378;threadFactory&#21019;&#24314;&#26032;&#30340;&#32447;&#31243;</text><rect fill="#FFFFFF" height="36.2969" rx="12.5" ry="12.5" style="stroke:#000000;stroke-width:1.0;" width="160" x="1025" y="184.2969"/><text fill="#000000" font-family="Consolas" font-size="14" lengthAdjust="spacing" textLength="136" x="1039" y="207.292">&#25191;&#34892;&#25298;&#32477;&#31574;&#30053;handler</text><polygon fill="#FFFFFF" points="929.5,226.5938,941.5,238.5938,929.5,250.5938,917.5,238.5938,929.5,226.5938" style="stroke:#000000;stroke-width:1.0;"/><polygon fill="#FFFFFF" points="687,256.5938,699,268.5938,687,280.5938,675,268.5938,687,256.5938" style="stroke:#000000;stroke-width:1.0;"/><polygon fill="#FFFFFF" points="425.5,286.5938,437.5,298.5938,425.5,310.5938,413.5,298.5938,425.5,286.5938" style="stroke:#000000;stroke-width:1.0;"/><ellipse cx="425.5" cy="341.5938" fill="#FFFFFF" rx="11" ry="11" style="stroke:#000000;stroke-width:1.0;"/><ellipse cx="425.5" cy="341.5938" fill="#000000" rx="6" ry="6" style="stroke:#7F7F7F;stroke-width:1.0;"/><line style="stroke:#000000;stroke-width:1.0;" x1="764" x2="754" y1="162.2969" y2="162.2969"/><line style="stroke:#000000;stroke-width:1.0;" x1="754" x2="754" y1="162.2969" y2="184.2969"/><polygon fill="#000000" points="750,174.2969,754,184.2969,758,174.2969,754,178.2969" style="stroke:#000000;stroke-width:1.0;"/><line style="stroke:#000000;stroke-width:1.0;" x1="1095" x2="1105" y1="162.2969" y2="162.2969"/><line style="stroke:#000000;stroke-width:1.0;" x1="1105" x2="1105" y1="162.2969" y2="184.2969"/><polygon fill="#000000" points="1101,174.2969,1105,184.2969,1109,174.2969,1105,178.2969" style="stroke:#000000;stroke-width:1.0;"/><line style="stroke:#000000;stroke-width:1.0;" x1="754" x2="754" y1="220.5938" y2="238.5938"/><line style="stroke:#000000;stroke-width:1.0;" x1="754" x2="917.5" y1="238.5938" y2="238.5938"/><polygon fill="#000000" points="907.5,234.5938,917.5,238.5938,907.5,242.5938,911.5,238.5938" style="stroke:#000000;stroke-width:1.0;"/><line style="stroke:#000000;stroke-width:1.0;" x1="1105" x2="1105" y1="220.5938" y2="238.5938"/><line style="stroke:#000000;stroke-width:1.0;" x1="1105" x2="941.5" y1="238.5938" y2="238.5938"/><polygon fill="#000000" points="951.5,234.5938,941.5,238.5938,951.5,242.5938,947.5,238.5938" style="stroke:#000000;stroke-width:1.0;"/><line style="stroke:#000000;stroke-width:1.0;" x1="619" x2="459" y1="128.2969" y2="128.2969"/><line style="stroke:#000000;stroke-width:1.0;" x1="459" x2="459" y1="128.2969" y2="150.2969"/><polygon fill="#000000" points="455,140.2969,459,150.2969,463,140.2969,459,144.2969" style="stroke:#000000;stroke-width:1.0;"/><line style="stroke:#000000;stroke-width:1.0;" x1="755" x2="929.5" y1="128.2969" y2="128.2969"/><line style="stroke:#000000;stroke-width:1.0;" x1="929.5" x2="929.5" y1="128.2969" y2="150.2969"/><polygon fill="#000000" points="925.5,140.2969,929.5,150.2969,933.5,140.2969,929.5,144.2969" style="stroke:#000000;stroke-width:1.0;"/><line style="stroke:#000000;stroke-width:1.0;" x1="459" x2="459" y1="186.5938" y2="268.5938"/><line style="stroke:#000000;stroke-width:1.0;" x1="459" x2="675" y1="268.5938" y2="268.5938"/><polygon fill="#000000" points="665,264.5938,675,268.5938,665,272.5938,669,268.5938" style="stroke:#000000;stroke-width:1.0;"/><line style="stroke:#000000;stroke-width:1.0;" x1="929.5" x2="929.5" y1="250.5938" y2="268.5938"/><line style="stroke:#000000;stroke-width:1.0;" x1="929.5" x2="699" y1="268.5938" y2="268.5938"/><polygon fill="#000000" points="709,264.5938,699,268.5938,709,272.5938,705,268.5938" style="stroke:#000000;stroke-width:1.0;"/><line style="stroke:#000000;stroke-width:1.0;" x1="277.5" x2="149.5" y1="94.2969" y2="94.2969"/><line style="stroke:#000000;stroke-width:1.0;" x1="149.5" x2="149.5" y1="94.2969" y2="116.2969"/><polygon fill="#000000" points="145.5,106.2969,149.5,116.2969,153.5,106.2969,149.5,110.2969" style="stroke:#000000;stroke-width:1.0;"/><line style="stroke:#000000;stroke-width:1.0;" x1="573.5" x2="687" y1="94.2969" y2="94.2969"/><line style="stroke:#000000;stroke-width:1.0;" x1="687" x2="687" y1="94.2969" y2="116.2969"/><polygon fill="#000000" points="683,106.2969,687,116.2969,691,106.2969,687,110.2969" style="stroke:#000000;stroke-width:1.0;"/><line style="stroke:#000000;stroke-width:1.0;" x1="149.5" x2="149.5" y1="152.5938" y2="298.5938"/><line style="stroke:#000000;stroke-width:1.0;" x1="149.5" x2="413.5" y1="298.5938" y2="298.5938"/><polygon fill="#000000" points="403.5,294.5938,413.5,298.5938,403.5,302.5938,407.5,298.5938" style="stroke:#000000;stroke-width:1.0;"/><line style="stroke:#000000;stroke-width:1.0;" x1="687" x2="687" y1="280.5938" y2="298.5938"/><line style="stroke:#000000;stroke-width:1.0;" x1="687" x2="437.5" y1="298.5938" y2="298.5938"/><polygon fill="#000000" points="447.5,294.5938,437.5,298.5938,447.5,302.5938,443.5,298.5938" style="stroke:#000000;stroke-width:1.0;"/><line style="stroke:#000000;stroke-width:1.0;" x1="425.5" x2="425.5" y1="62.2969" y2="82.2969"/><polygon fill="#000000" points="421.5,72.2969,425.5,82.2969,429.5,72.2969,425.5,76.2969" style="stroke:#000000;stroke-width:1.0;"/><line style="stroke:#000000;stroke-width:1.0;" x1="425.5" x2="425.5" y1="310.5938" y2="330.5938"/><polygon fill="#000000" points="421.5,320.5938,425.5,330.5938,429.5,320.5938,425.5,324.5938" style="stroke:#000000;stroke-width:1.0;"/><!--SRC=[dK_BQi9055sRhvZkT5deIfS5bwMbNp2O4OD9Hf89VQpwi6Arj5AgbRuqOAeRCIqKnRJwCzwChleB7Or8e4YXTp43zvnx7XiiGpI2SYfMTCdCAdeE6rX3J64gILATxIl716rkXI2PfB6biZ_17InqjwbkKXMRqa8GyU6OTyh-MnDQULufJ3mFIZP_oFiVfs8lcGmRJ5BIABeaLbs_teFAwtGqWgBhDmSmFbz1AMgGNKhLUOhlpqOCYIewYWfwJ8h4qUHhpEyw0Hlw3boViOn1i9p4AKQD8oW-WZVqQwwm3qW9YQWcGL5XAGJcAMPr3-oNMRq1nNleltFlnlViNrR22zp2jES4TQ3KX0j7n0rV7r0ZksSHYqm6tOGK2Hj5rlTzEe5MUmLf-53HB6rjvSZ_IgFbX3AXqCIHVzcUsbT- -PPxpxnRurKdWtLP9KReLfULjAYr-8BNP3Jt0m00]--></g></svg>