<?xml version="1.0" encoding="us-ascii" standalone="no"?><svg xmlns="http://www.w3.org/2000/svg" xmlns:xlink="http://www.w3.org/1999/xlink" contentStyleType="text/css" height="219px" preserveAspectRatio="none" style="width:503px;height:219px;background:#FFFFFF;" version="1.1" viewBox="0 0 503 219" width="503px" zoomAndPan="magnify"><defs/><g><text fill="#000000" font-family="sans-serif" font-size="14" font-weight="bold" lengthAdjust="spacing" textLength="84" x="202.5" y="22.9951">&#22235;&#31181;&#23545;&#35937;&#24341;&#29992;</text><!--entity R--><g id="elem_R"><rect fill="#F1F1F1" height="46.2969" rx="2.5" ry="2.5" style="stroke:#181818;stroke-width:0.5;" width="50" x="235" y="44.2969"/><rect fill="#F1F1F1" height="10" style="stroke:#181818;stroke-width:0.5;" width="15" x="265" y="49.2969"/><rect fill="#F1F1F1" height="2" style="stroke:#181818;stroke-width:0.5;" width="4" x="263" y="51.2969"/><rect fill="#F1F1F1" height="2" style="stroke:#181818;stroke-width:0.5;" width="4" x="263" y="55.2969"/><text fill="#000000" font-family="sans-serif" font-size="14" lengthAdjust="spacing" textLength="10" x="250" y="77.292">R</text></g><!--entity ???--><g id="elem_&#24378;&#24341;&#29992;"><rect fill="#F1F1F1" height="46.2969" rx="2.5" ry="2.5" style="stroke:#181818;stroke-width:0.5;" width="82" x="7" y="167.5869"/><rect fill="#F1F1F1" height="10" style="stroke:#181818;stroke-width:0.5;" width="15" x="69" y="172.5869"/><rect fill="#F1F1F1" height="2" style="stroke:#181818;stroke-width:0.5;" width="4" x="67" y="174.5869"/><rect fill="#F1F1F1" height="2" style="stroke:#181818;stroke-width:0.5;" width="4" x="67" y="178.5869"/><text fill="#000000" font-family="sans-serif" font-size="14" lengthAdjust="spacing" textLength="42" x="22" y="200.582">&#24378;&#24341;&#29992;</text></g><!--entity ???--><g id="elem_&#36719;&#24341;&#29992;"><rect fill="#F1F1F1" height="46.2969" rx="2.5" ry="2.5" style="stroke:#181818;stroke-width:0.5;" width="82" x="153" y="167.5869"/><rect fill="#F1F1F1" height="10" style="stroke:#181818;stroke-width:0.5;" width="15" x="215" y="172.5869"/><rect fill="#F1F1F1" height="2" style="stroke:#181818;stroke-width:0.5;" width="4" x="213" y="174.5869"/><rect fill="#F1F1F1" height="2" style="stroke:#181818;stroke-width:0.5;" width="4" x="213" y="178.5869"/><text fill="#000000" font-family="sans-serif" font-size="14" lengthAdjust="spacing" textLength="42" x="168" y="200.582">&#36719;&#24341;&#29992;</text></g><!--entity ???--><g id="elem_&#24369;&#24341;&#29992;"><rect fill="#F1F1F1" height="46.2969" rx="2.5" ry="2.5" style="stroke:#181818;stroke-width:0.5;" width="82" x="286" y="167.5869"/><rect fill="#F1F1F1" height="10" style="stroke:#181818;stroke-width:0.5;" width="15" x="348" y="172.5869"/><rect fill="#F1F1F1" height="2" style="stroke:#181818;stroke-width:0.5;" width="4" x="346" y="174.5869"/><rect fill="#F1F1F1" height="2" style="stroke:#181818;stroke-width:0.5;" width="4" x="346" y="178.5869"/><text fill="#000000" font-family="sans-serif" font-size="14" lengthAdjust="spacing" textLength="42" x="301" y="200.582">&#24369;&#24341;&#29992;</text></g><!--entity ???--><g id="elem_&#34394;&#24341;&#29992;"><rect fill="#F1F1F1" height="46.2969" rx="2.5" ry="2.5" style="stroke:#181818;stroke-width:0.5;" width="82" x="412" y="167.5869"/><rect fill="#F1F1F1" height="10" style="stroke:#181818;stroke-width:0.5;" width="15" x="474" y="172.5869"/><rect fill="#F1F1F1" height="2" style="stroke:#181818;stroke-width:0.5;" width="4" x="472" y="174.5869"/><rect fill="#F1F1F1" height="2" style="stroke:#181818;stroke-width:0.5;" width="4" x="472" y="178.5869"/><text fill="#000000" font-family="sans-serif" font-size="14" lengthAdjust="spacing" textLength="42" x="427" y="200.582">&#34394;&#24341;&#29992;</text></g><!--link R to ???--><g id="link_R_&#24378;&#24341;&#29992;"><path d="M234.54,68.3769 C194.68,69.6569 117.45,77.9369 72,120.5869 C60.73,131.1669 54.75,147.2969 51.58,161.3269 " fill="none" id="R-to-&#24378;&#24341;&#29992;" style="stroke:#181818;stroke-width:1.0;"/><polygon fill="#181818" points="50.39,166.1869,56.1089,158.1685,51.3898,161.2879,48.2704,156.5688,50.39,166.1869" style="stroke:#181818;stroke-width:1.0;"/><text fill="#000000" font-family="sans-serif" font-size="13" lengthAdjust="spacing" textLength="104" x="73" y="133.6538">&#19981;&#20250;&#21457;&#29983;&#22403;&#22334;&#22238;&#25910;</text></g><!--link R to ???--><g id="link_R_&#36719;&#24341;&#29992;"><path d="M234.73,80.0269 C219,88.7369 200.1,102.3069 191,120.5869 C184.82,132.9969 184.82,148.2569 186.69,161.2869 " fill="none" id="R-to-&#36719;&#24341;&#29992;" style="stroke:#0000FF;stroke-width:1.0;stroke-dasharray:7.0,7.0;"/><polygon fill="#0000FF" points="187.66,166.0969,190.1125,156.5583,186.8311,161.1661,182.2233,157.8846,187.66,166.0969" style="stroke:#0000FF;stroke-width:1.0;"/><text fill="#000000" font-family="sans-serif" font-size="13" lengthAdjust="spacing" textLength="91" x="192" y="133.6538">&#20869;&#23384;&#19981;&#36275;&#26102;&#22238;&#25910;</text></g><!--link R to ???--><g id="link_R_&#24369;&#24341;&#29992;"><path d="M272.45,90.9769 C283.59,111.1469 299.95,140.7669 311.85,162.3169 " fill="none" id="R-to-&#24369;&#24341;&#29992;" style="stroke:#008000;stroke-width:1.0;stroke-dasharray:7.0,7.0;"/><polygon fill="#008000" points="314.62,166.3269,313.7839,156.5136,312.2088,161.9467,306.7756,160.3715,314.62,166.3269" style="stroke:#008000;stroke-width:1.0;"/><text fill="#000000" font-family="sans-serif" font-size="13" lengthAdjust="spacing" textLength="84" x="298" y="133.6538">&#19979;&#27425;GC&#26102;&#22238;&#25910;</text></g><!--link R to ???--><g id="link_R_&#34394;&#24341;&#29992;"><path d="M285.34,74.7669 C313.03,82.4969 357.88,97.4769 391,120.5869 C407.39,132.0269 422.45,148.6069 433.62,162.6669 " fill="none" id="R-to-&#34394;&#24341;&#29992;" style="stroke:#FF0000;stroke-width:1.0;stroke-dasharray:7.0,7.0;"/><polygon fill="#FF0000" points="437.26,166.3269,434.8848,156.7687,434.1873,162.3824,428.5736,161.685,437.26,166.3269" style="stroke:#FF0000;stroke-width:1.0;"/><text fill="#000000" font-family="sans-serif" font-size="13" lengthAdjust="spacing" textLength="84" x="411" y="133.6538">&#19979;&#27425;GC&#26102;&#22238;&#25910;</text></g><!--SRC=[AyaioKbLU3fxzlFblK_NxtonSU7JFLEVJrd15HqKgw2Reckd4Frqpow8MAo2bSAJ7RrFzinwsZ_n-PJvJ-SrFvspx-diUS-cR0Ehrqk9LaxAAKsDrGDgUx5tFKBRqxRMfsjd03M_sBRvsVHjQ7hIYr9Jyy2QdkxPY6nNzxCr2zsTCJKKfQP0x9Wv2uzo0000]--></g></svg>