<?xml version="1.0" encoding="us-ascii" standalone="no"?><svg xmlns="http://www.w3.org/2000/svg" xmlns:xlink="http://www.w3.org/1999/xlink" contentStyleType="text/css" height="239px" preserveAspectRatio="none" style="width:814px;height:239px;background:#FFFFFF;" version="1.1" viewBox="0 0 814 239" width="814px" zoomAndPan="magnify"><defs/><g><text fill="#000000" font-family="sans-serif" font-size="14" font-weight="bold" lengthAdjust="spacing" textLength="182" x="309.25" y="22.9951">&#33719;&#21462;&#20505;&#36873;&#30340;&#33258;&#21160;&#37197;&#32622;&#28041;&#21450;&#30340;&#31867;</text><!--class AutoConfigurationImportSelector--><g id="elem_AutoConfigurationImportSelector"><rect codeLine="2" fill="#F1F1F1" height="64.2969" id="AutoConfigurationImportSelector" rx="2.5" ry="2.5" style="stroke:#181818;stroke-width:0.5;" width="609" x="118.5" y="44.2969"/><ellipse cx="306.25" cy="60.2969" fill="#ADD1B2" rx="11" ry="11" style="stroke:#181818;stroke-width:1.0;"/><path d="M309.2188,65.9375 Q308.6406,66.2344 308,66.375 Q307.3594,66.5313 306.6563,66.5313 Q304.1563,66.5313 302.8281,64.8906 Q301.5156,63.2344 301.5156,60.1094 Q301.5156,56.9844 302.8281,55.3281 Q304.1563,53.6719 306.6563,53.6719 Q307.3594,53.6719 308,53.8281 Q308.6563,53.9844 309.2188,54.2813 L309.2188,57 Q308.5938,56.4219 308,56.1563 Q307.4063,55.875 306.7813,55.875 Q305.4375,55.875 304.75,56.9531 Q304.0625,58.0156 304.0625,60.1094 Q304.0625,62.2031 304.75,63.2813 Q305.4375,64.3438 306.7813,64.3438 Q307.4063,64.3438 308,64.0781 Q308.5938,63.7969 309.2188,63.2188 L309.2188,65.9375 Z " fill="#000000"/><text fill="#000000" font-family="sans-serif" font-size="14" lengthAdjust="spacing" textLength="225" x="326.75" y="65.1436">AutoConfigurationImportSelector</text><line style="stroke:#181818;stroke-width:0.5;" x1="119.5" x2="726.5" y1="76.2969" y2="76.2969"/><line style="stroke:#181818;stroke-width:0.5;" x1="119.5" x2="726.5" y1="84.2969" y2="84.2969"/><polygon fill="#4177AF" points="129.5,93.9453,125.5,99.9453,133.5,99.9453" style="stroke:#1963A0;stroke-width:1.0;"/><text fill="#000000" font-family="sans-serif" font-size="14" lengthAdjust="spacing" textLength="583" x="138.5" y="101.292">getCandidateConfigurations(AnnotationMetadata, AnnotationAttributes) List&lt;String&gt;</text></g><!--class SpringFactoriesLoader--><g id="elem_SpringFactoriesLoader"><rect codeLine="5" fill="#F1F1F1" height="64.2969" id="SpringFactoriesLoader" rx="2.5" ry="2.5" style="stroke:#181818;stroke-width:0.5;" width="414" x="7" y="168.5869"/><ellipse cx="132.75" cy="184.5869" fill="#ADD1B2" rx="11" ry="11" style="stroke:#181818;stroke-width:1.0;"/><path d="M135.7188,190.2275 Q135.1406,190.5244 134.5,190.665 Q133.8594,190.8213 133.1563,190.8213 Q130.6563,190.8213 129.3281,189.1806 Q128.0156,187.5244 128.0156,184.3994 Q128.0156,181.2744 129.3281,179.6181 Q130.6563,177.9619 133.1563,177.9619 Q133.8594,177.9619 134.5,178.1181 Q135.1563,178.2744 135.7188,178.5713 L135.7188,181.29 Q135.0938,180.7119 134.5,180.4463 Q133.9063,180.165 133.2813,180.165 Q131.9375,180.165 131.25,181.2431 Q130.5625,182.3056 130.5625,184.3994 Q130.5625,186.4931 131.25,187.5713 Q131.9375,188.6338 133.2813,188.6338 Q133.9063,188.6338 134.5,188.3681 Q135.0938,188.0869 135.7188,187.5088 L135.7188,190.2275 Z " fill="#000000"/><text fill="#000000" font-family="sans-serif" font-size="14" lengthAdjust="spacing" textLength="154" x="153.25" y="189.4336">SpringFactoriesLoader</text><line style="stroke:#181818;stroke-width:0.5;" x1="8" x2="420" y1="200.5869" y2="200.5869"/><line style="stroke:#181818;stroke-width:0.5;" x1="8" x2="420" y1="208.5869" y2="208.5869"/><ellipse cx="18" cy="222.2353" fill="#84BE84" rx="3" ry="3" style="stroke:#038048;stroke-width:1.0;"/><text fill="#000000" font-family="sans-serif" font-size="14" lengthAdjust="spacing" text-decoration="underline" textLength="388" x="27" y="225.582">loadFactoryNames(Class&lt;?&gt;, ClassLoader) List&lt;String&gt;</text></g><!--class ImportCandidates--><g id="elem_ImportCandidates"><rect codeLine="8" fill="#F1F1F1" height="64.2969" id="ImportCandidates" rx="2.5" ry="2.5" style="stroke:#181818;stroke-width:0.5;" width="351" x="456.5" y="168.5869"/><ellipse cx="566.75" cy="184.5869" fill="#ADD1B2" rx="11" ry="11" style="stroke:#181818;stroke-width:1.0;"/><path d="M569.7188,190.2275 Q569.1406,190.5244 568.5,190.665 Q567.8594,190.8213 567.1563,190.8213 Q564.6563,190.8213 563.3281,189.1806 Q562.0156,187.5244 562.0156,184.3994 Q562.0156,181.2744 563.3281,179.6181 Q564.6563,177.9619 567.1563,177.9619 Q567.8594,177.9619 568.5,178.1181 Q569.1563,178.2744 569.7188,178.5713 L569.7188,181.29 Q569.0938,180.7119 568.5,180.4463 Q567.9063,180.165 567.2813,180.165 Q565.9375,180.165 565.25,181.2431 Q564.5625,182.3056 564.5625,184.3994 Q564.5625,186.4931 565.25,187.5713 Q565.9375,188.6338 567.2813,188.6338 Q567.9063,188.6338 568.5,188.3681 Q569.0938,188.0869 569.7188,187.5088 L569.7188,190.2275 Z " fill="#000000"/><text fill="#000000" font-family="sans-serif" font-size="14" lengthAdjust="spacing" textLength="122" x="587.25" y="189.4336">ImportCandidates</text><line style="stroke:#181818;stroke-width:0.5;" x1="457.5" x2="806.5" y1="200.5869" y2="200.5869"/><line style="stroke:#181818;stroke-width:0.5;" x1="457.5" x2="806.5" y1="208.5869" y2="208.5869"/><ellipse cx="467.5" cy="222.2353" fill="#84BE84" rx="3" ry="3" style="stroke:#038048;stroke-width:1.0;"/><text fill="#000000" font-family="sans-serif" font-size="14" lengthAdjust="spacing" text-decoration="underline" textLength="325" x="476.5" y="225.582">load(Class&lt;?&gt;, ClassLoader) ImportCandidates</text></g><!--link AutoConfigurationImportSelector to SpringFactoriesLoader--><g id="link_AutoConfigurationImportSelector_SpringFactoriesLoader"><path codeLine="11" d="M369.18,108.9369 C339.79,126.1269 303.36,147.4469 273.18,165.1069 " fill="none" id="AutoConfigurationImportSelector-to-SpringFactoriesLoader" style="stroke:#181818;stroke-width:1.0;stroke-dasharray:7.0,7.0;"/><polygon fill="#181818" points="269,168.1369,278.7873,167.037,273.3137,165.6086,274.7421,160.1351,269,168.1369" style="stroke:#181818;stroke-width:1.0;"/></g><!--link AutoConfigurationImportSelector to ImportCandidates--><g id="link_AutoConfigurationImportSelector_ImportCandidates"><path codeLine="12" d="M476.82,108.9369 C506.21,126.1269 542.64,147.4469 572.82,165.1069 " fill="none" id="AutoConfigurationImportSelector-to-ImportCandidates" style="stroke:#181818;stroke-width:1.0;stroke-dasharray:7.0,7.0;"/><polygon fill="#181818" points="577,168.1369,571.2579,160.1351,572.6863,165.6086,567.2127,167.037,577,168.1369" style="stroke:#181818;stroke-width:1.0;"/></g><!--SRC=[AyaioKbLUD6t_Md_jASDCrysT3wVrVAYVTNJhXKlMtkVxrttR5ldq_ukeE3pZRkvadCIYuiL74jByftpyz8oqqkB4aioy_CySmloYqg2KtDIaqloYnIgkJZh5D9JIvmJyr8oKn9BKb4K5siuvkNbbu3PlgabYK05YJeA2377afAYpAJIajHYJGMVpE8Ics0WFo_TZgiMQdrm0OZlbWYoApErs2S_CIKLRAcsGdKno8paMeKSe214HQLVOcvgiOOpIAkDlPsE0fW5qOJ30eXtuAulnc8sBlFGjGBD91HQUdfssBr4b4vq2m40]--></g></svg>