<?xml version="1.0" encoding="us-ascii" standalone="no"?><svg xmlns="http://www.w3.org/2000/svg" xmlns:xlink="http://www.w3.org/1999/xlink" contentStyleType="text/css" height="232px" preserveAspectRatio="none" style="width:601px;height:232px;background:#FFFFFF;" version="1.1" viewBox="0 0 601 232" width="601px" zoomAndPan="magnify"><defs/><g><text fill="#000000" font-family="sans-serif" font-size="14" font-weight="bold" lengthAdjust="spacing" textLength="70" x="258.5" y="22.9951">&#23545;&#35937;&#30340;&#21019;&#24314;</text><ellipse cx="16" cy="61.2869" fill="#222222" rx="10" ry="10" style="stroke:none;stroke-width:1.0;"/><rect fill="#F1F1F1" height="33.9688" rx="12.5" ry="12.5" style="stroke:#181818;stroke-width:0.5;" width="117" x="46.5" y="44.2969"/><text fill="#000000" font-family="sans-serif" font-size="12" lengthAdjust="spacing" textLength="97" x="56.5" y="65.4355">new&#25351;&#20196;&#21019;&#24314;&#23545;&#35937;</text><rect fill="#F1F1F1" height="33.9688" rx="12.5" ry="12.5" style="stroke:#181818;stroke-width:0.5;" width="188" x="11" y="118.2669"/><text fill="#000000" font-family="sans-serif" font-size="12" lengthAdjust="spacing" textLength="168" x="21" y="139.4055">&#26410;&#21152;&#36733;&#36807;&#35813;&#31867;&#65292;&#21017;&#36827;&#34892;&#31867;&#30340;&#21152;&#36733;</text><rect fill="#F1F1F1" height="33.9688" rx="12.5" ry="12.5" style="stroke:#181818;stroke-width:0.5;" width="92" x="219" y="118.2669"/><text fill="#000000" font-family="sans-serif" font-size="12" lengthAdjust="spacing" textLength="72" x="229" y="139.4055">&#20998;&#37197;&#20869;&#23384;&#31354;&#38388;</text><rect fill="#F1F1F1" height="33.9688" rx="12.5" ry="12.5" style="stroke:#181818;stroke-width:0.5;" width="140" x="331" y="118.2669"/><text fill="#000000" font-family="sans-serif" font-size="12" lengthAdjust="spacing" textLength="120" x="341" y="139.4055">&#21021;&#22987;&#21270;&#20869;&#23384;&#31354;&#38388;&#20026;&#38646;&#20540;</text><rect fill="#F1F1F1" height="33.9688" rx="12.5" ry="12.5" style="stroke:#181818;stroke-width:0.5;" width="104" x="491" y="118.2669"/><text fill="#000000" font-family="sans-serif" font-size="12" lengthAdjust="spacing" textLength="84" x="501" y="139.4055">&#35774;&#32622;&#24517;&#35201;&#30340;&#20449;&#24687;</text><rect fill="#F1F1F1" height="33.9688" rx="12.5" ry="12.5" style="stroke:#181818;stroke-width:0.5;" width="104" x="491" y="192.2369"/><text fill="#000000" font-family="sans-serif" font-size="12" lengthAdjust="spacing" textLength="84" x="501" y="213.3755">&#25191;&#34892;&#26500;&#36896;&#22120;&#26041;&#27861;</text><ellipse cx="461" cy="209.2269" fill="none" rx="10" ry="10" style="stroke:#222222;stroke-width:1.0;"/><ellipse cx="461.5" cy="209.7269" fill="#222222" rx="6" ry="6" style="stroke:none;stroke-width:1.0;"/><!--link start to new??????--><g id="link_start_new&#25351;&#20196;&#21019;&#24314;&#23545;&#35937;"><path d="M26.43,61.2869 C31.03,61.2869 35.64,61.2869 40.24,61.2869 " fill="none" id="start-to-new&#25351;&#20196;&#21019;&#24314;&#23545;&#35937;" style="stroke:#181818;stroke-width:1.0;"/><polygon fill="#181818" points="45.07,61.2869,36.07,57.2869,40.07,61.2869,36.07,65.2869,45.07,61.2869" style="stroke:#181818;stroke-width:1.0;"/></g><!--link new?????? to ??????????????--><g id="link_new&#25351;&#20196;&#21019;&#24314;&#23545;&#35937;_&#26410;&#21152;&#36733;&#36807;&#35813;&#31867;&#65292;&#21017;&#36827;&#34892;&#31867;&#30340;&#21152;&#36733;"><path d="M105,78.6169 C105,88.5569 105,101.3769 105,112.2069 " fill="none" id="new&#25351;&#20196;&#21019;&#24314;&#23545;&#35937;-to-&#26410;&#21152;&#36733;&#36807;&#35813;&#31867;&#65292;&#21017;&#36827;&#34892;&#31867;&#30340;&#21152;&#36733;" style="stroke:#181818;stroke-width:1.0;"/><polygon fill="#181818" points="105,116.9869,109,107.9869,105,111.9869,101,107.9869,105,116.9869" style="stroke:#181818;stroke-width:1.0;"/></g><!--link ?????????????? to ??????--><g id="link_&#26410;&#21152;&#36733;&#36807;&#35813;&#31867;&#65292;&#21017;&#36827;&#34892;&#31867;&#30340;&#21152;&#36733;_&#20998;&#37197;&#20869;&#23384;&#31354;&#38388;"><path d="M199.38,135.2569 C203.88,135.2569 208.39,135.2569 212.89,135.2569 " fill="none" id="&#26410;&#21152;&#36733;&#36807;&#35813;&#31867;&#65292;&#21017;&#36827;&#34892;&#31867;&#30340;&#21152;&#36733;-to-&#20998;&#37197;&#20869;&#23384;&#31354;&#38388;" style="stroke:#181818;stroke-width:1.0;"/><polygon fill="#181818" points="217.6,135.2569,208.6,131.2569,212.6,135.2569,208.6,139.2569,217.6,135.2569" style="stroke:#181818;stroke-width:1.0;"/></g><!--link ?????? to ??????????--><g id="link_&#20998;&#37197;&#20869;&#23384;&#31354;&#38388;_&#21021;&#22987;&#21270;&#20869;&#23384;&#31354;&#38388;&#20026;&#38646;&#20540;"><path d="M311.48,135.2569 C315.99,135.2569 320.5,135.2569 325.01,135.2569 " fill="none" id="&#20998;&#37197;&#20869;&#23384;&#31354;&#38388;-to-&#21021;&#22987;&#21270;&#20869;&#23384;&#31354;&#38388;&#20026;&#38646;&#20540;" style="stroke:#181818;stroke-width:1.0;"/><polygon fill="#181818" points="329.72,135.2569,320.72,131.2569,324.72,135.2569,320.72,139.2569,329.72,135.2569" style="stroke:#181818;stroke-width:1.0;"/></g><!--link ?????????? to ???????--><g id="link_&#21021;&#22987;&#21270;&#20869;&#23384;&#31354;&#38388;&#20026;&#38646;&#20540;_&#35774;&#32622;&#24517;&#35201;&#30340;&#20449;&#24687;"><path d="M471.45,135.2569 C475.97,135.2569 480.49,135.2569 485.01,135.2569 " fill="none" id="&#21021;&#22987;&#21270;&#20869;&#23384;&#31354;&#38388;&#20026;&#38646;&#20540;-to-&#35774;&#32622;&#24517;&#35201;&#30340;&#20449;&#24687;" style="stroke:#181818;stroke-width:1.0;"/><polygon fill="#181818" points="489.73,135.2569,480.73,131.2569,484.73,135.2569,480.73,139.2569,489.73,135.2569" style="stroke:#181818;stroke-width:1.0;"/></g><!--link ??????? to ???????--><g id="link_&#35774;&#32622;&#24517;&#35201;&#30340;&#20449;&#24687;_&#25191;&#34892;&#26500;&#36896;&#22120;&#26041;&#27861;"><path d="M543,152.5869 C543,162.5269 543,175.3469 543,186.1769 " fill="none" id="&#35774;&#32622;&#24517;&#35201;&#30340;&#20449;&#24687;-to-&#25191;&#34892;&#26500;&#36896;&#22120;&#26041;&#27861;" style="stroke:#181818;stroke-width:1.0;"/><polygon fill="#181818" points="543,190.9569,547,181.9569,543,185.9569,539,181.9569,543,190.9569" style="stroke:#181818;stroke-width:1.0;"/></g><!--reverse link end to ???????--><g id="link_end_&#25191;&#34892;&#26500;&#36896;&#22120;&#26041;&#27861;"><path d="M476.99,209.2269 C481.52,209.2269 486.06,209.2269 490.59,209.2269 " fill="none" id="end-backto-&#25191;&#34892;&#26500;&#36896;&#22120;&#26041;&#27861;" style="stroke:#181818;stroke-width:1.0;"/><polygon fill="#181818" points="472.25,209.2269,481.25,213.2269,477.25,209.2269,481.25,205.2269,472.25,209.2269" style="stroke:#181818;stroke-width:1.0;"/></g><!--SRC=[JO_92e9G58RtFOMugi1Nw6bo4KIB4Degg5dPii6iK6Y6b2WYftmPpnrMlK9NfM5v-Bxpd_DBBQajSk07vEBYXGg63L5OgTPhdD0L6XpV4Nl8x6VHfYIbo5U4PWxHyWH3XoG9IVl4t-9Bz8fDC2oIsiGrsPWd5WBRAEB0qAas1bs3ynmVGpgx_SWAzYCmf_ymUuJKleCSVopYFN7YGQgHdSB2izH5YlzzPx1dPz5QfR83rW5D0tITCDXca3Lw0m00]--></g></svg>