<?xml version="1.0" encoding="us-ascii" standalone="no"?><svg xmlns="http://www.w3.org/2000/svg" xmlns:xlink="http://www.w3.org/1999/xlink" contentStyleType="text/css" height="353px" preserveAspectRatio="none" style="width:456px;height:353px;background:#FFFFFF;" version="1.1" viewBox="0 0 456 353" width="456px" zoomAndPan="magnify"><defs/><g><text fill="#000000" font-family="Consolas" font-size="14" font-weight="bold" lengthAdjust="spacing" textLength="139" x="154.25" y="27.9951">ThreadLocal&#30340;&#24341;&#29992;</text><!--cluster ThreadLocalMap--><g id="cluster_ThreadLocalMap"><rect fill="#FFFFFF" height="180.29" rx="2.5" ry="2.5" style="stroke:#000000;stroke-width:1.0;" width="322" x="128.5" y="49.2969"/><path d="M267.5,49.2969 L267.5,58.5938 L257.5,68.5938 L128.5,68.5938 " fill="none" style="stroke:#000000;stroke-width:1.0;"/><text fill="#000000" font-family="Consolas" font-size="14" font-weight="bold" lengthAdjust="spacing" textLength="129" x="131.5" y="63.292">ThreadLocalMap</text></g><!--cluster Entry--><g id="cluster_Entry"><rect fill="#FFFFFF" height="97.29" rx="2.5" ry="2.5" style="stroke:#000000;stroke-width:1.0;" width="250" x="168.5" y="100.2969"/><path d="M219.5,100.2969 L219.5,109.5937 L209.5,119.5937 L168.5,119.5937 " fill="none" style="stroke:#000000;stroke-width:1.0;"/><text fill="#000000" font-family="Consolas" font-size="14" font-weight="bold" lengthAdjust="spacing" textLength="41" x="171.5" y="114.292">Entry</text></g><!--entity reference--><g id="elem_reference"><rect fill="#FFFFFF" height="46.2969" rx="2.5" ry="2.5" style="stroke:#000000;stroke-width:1.0;" width="107" x="296" y="135.2969"/><rect fill="#FFFFFF" height="10" style="stroke:#000000;stroke-width:1.0;" width="15" x="383" y="140.2969"/><rect fill="#FFFFFF" height="2" style="stroke:#000000;stroke-width:1.0;" width="4" x="381" y="142.2969"/><rect fill="#FFFFFF" height="2" style="stroke:#000000;stroke-width:1.0;" width="4" x="381" y="146.2969"/><text fill="#000000" font-family="Consolas" font-size="14" lengthAdjust="spacing" textLength="67" x="311" y="168.292">reference</text></g><!--entity value--><g id="elem_value"><rect fill="#FFFFFF" height="46.2969" rx="2.5" ry="2.5" style="stroke:#000000;stroke-width:1.0;" width="76" x="184.5" y="135.2969"/><rect fill="#FFFFFF" height="10" style="stroke:#000000;stroke-width:1.0;" width="15" x="240.5" y="140.2969"/><rect fill="#FFFFFF" height="2" style="stroke:#000000;stroke-width:1.0;" width="4" x="238.5" y="142.2969"/><rect fill="#FFFFFF" height="2" style="stroke:#000000;stroke-width:1.0;" width="4" x="238.5" y="146.2969"/><text fill="#000000" font-family="Consolas" font-size="14" lengthAdjust="spacing" textLength="36" x="199.5" y="168.292">value</text></g><!--entity Thread--><g id="elem_Thread"><rect fill="#FFFFFF" height="46.2969" rx="2.5" ry="2.5" style="stroke:#000000;stroke-width:1.0;" width="89" x="12" y="135.2969"/><rect fill="#FFFFFF" height="10" style="stroke:#000000;stroke-width:1.0;" width="15" x="81" y="140.2969"/><rect fill="#FFFFFF" height="2" style="stroke:#000000;stroke-width:1.0;" width="4" x="79" y="142.2969"/><rect fill="#FFFFFF" height="2" style="stroke:#000000;stroke-width:1.0;" width="4" x="79" y="146.2969"/><text fill="#000000" font-family="Consolas" font-size="14" lengthAdjust="spacing" textLength="49" x="27" y="168.292">Thread</text></g><!--entity Client--><g id="elem_Client"><rect fill="#FFFFFF" height="46.2969" rx="2.5" ry="2.5" style="stroke:#000000;stroke-width:1.0;" width="79" x="130" y="301.5869"/><rect fill="#FFFFFF" height="10" style="stroke:#000000;stroke-width:1.0;" width="15" x="189" y="306.5869"/><rect fill="#FFFFFF" height="2" style="stroke:#000000;stroke-width:1.0;" width="4" x="187" y="308.5869"/><rect fill="#FFFFFF" height="2" style="stroke:#000000;stroke-width:1.0;" width="4" x="187" y="312.5869"/><text fill="#000000" font-family="Consolas" font-size="14" lengthAdjust="spacing" textLength="39" x="145" y="334.582">Client</text></g><!--entity ThreadLocal--><g id="elem_ThreadLocal"><rect fill="#FFFFFF" height="46.2969" rx="2.5" ry="2.5" style="stroke:#000000;stroke-width:1.0;" width="124" x="287.5" y="301.5869"/><rect fill="#FFFFFF" height="10" style="stroke:#000000;stroke-width:1.0;" width="15" x="391.5" y="306.5869"/><rect fill="#FFFFFF" height="2" style="stroke:#000000;stroke-width:1.0;" width="4" x="389.5" y="308.5869"/><rect fill="#FFFFFF" height="2" style="stroke:#000000;stroke-width:1.0;" width="4" x="389.5" y="312.5869"/><text fill="#000000" font-family="Consolas" font-size="14" lengthAdjust="spacing" textLength="84" x="302.5" y="334.582">ThreadLocal</text></g><!--link Thread to ThreadLocalMap--><g id="link_Thread_ThreadLocalMap"><path d="M101.19,158.4369 C106.935,158.4369 112.6825,158.4369 118.43,158.4369 C121.3038,158.4369 124.1775,158.4369 127.0509,158.4369 C127.4101,158.4369 127.7693,158.4369 128.1285,158.4369 C128.2183,158.4369 128.308,158.4369 128.3978,158.4369 " fill="none" id="Thread-to-ThreadLocalMap" style="stroke:#000000;stroke-width:1.0;"/><polygon fill="#000000" points="128.3978,158.4369,119.3978,154.4369,123.3978,158.4369,119.3978,162.4369,128.3978,158.4369" style="stroke:#000000;stroke-width:1.0;"/></g><!--link Client to ThreadLocal--><g id="link_Client_ThreadLocal"><path d="M209.45,324.7369 C230.54,324.7369 257.02,324.7369 281.25,324.7369 " fill="none" id="Client-to-ThreadLocal" style="stroke:#000000;stroke-width:1.0;"/><polygon fill="#000000" points="286.03,324.7369,277.03,320.7369,281.03,324.7369,277.03,328.7369,286.03,324.7369" style="stroke:#000000;stroke-width:1.0;"/><text fill="#000000" font-family="Consolas" font-size="14" lengthAdjust="spacing" textLength="42" x="227.25" y="317.732">&#24378;&#24341;&#29992;</text></g><!--link reference to ThreadLocal--><g id="link_reference_ThreadLocal"><path d="M349.5,181.9369 C349.5,211.4769 349.5,263.3369 349.5,295.4869 " fill="none" id="reference-to-ThreadLocal" style="stroke:#008000;stroke-width:1.0;stroke-dasharray:7.0,7.0;"/><polygon fill="#008000" points="349.5,300.2469,353.5,291.2469,349.5,295.2469,345.5,291.2469,349.5,300.2469" style="stroke:#008000;stroke-width:1.0;"/><text fill="#000000" font-family="Consolas" font-size="14" lengthAdjust="spacing" textLength="42" x="350.5" y="267.582">&#24369;&#24341;&#29992;</text></g><!--SRC=[Kop9ICrDLIZ8ISpCuohEpimhI2nAp5KeoIp9INNBpoi9pgnALJ0qGP9AIKrBBCqf8IZfbmWqrpa_hpW_9x6O2soWGaX6KMfYYaz-ScBEyrajJ_TCVJvb1LTQ4KWbafHlOe52DHSdHDmrhwIe4iJbZ2vAJKijIirBJeq5ySeISqf1h5gkMgveYEvO1TqYNJk5Q5IpOhcYdNCoK_DAi4Z7AbWfFDsp2-eI91iKz5AYbTEBKbFpOlMmQTa8qG80]--></g></svg>