<?xml version="1.0" encoding="us-ascii" standalone="no"?><svg xmlns="http://www.w3.org/2000/svg" xmlns:xlink="http://www.w3.org/1999/xlink" contentStyleType="text/css" height="54px" preserveAspectRatio="none" style="width:443px;height:54px;background:#FFFFFF;" version="1.1" viewBox="0 0 443 54" width="443px" zoomAndPan="magnify"><defs/><g><ellipse cx="21" cy="30.15" fill="#000000" rx="10" ry="10" style="stroke:none;stroke-width:1.0;"/><rect fill="#FFFFFF" height="36.2969" rx="12.5" ry="12.5" style="stroke:#000000;stroke-width:1.0;" width="98" x="51" y="12"/><text fill="#000000" font-family="Consolas" font-size="14" lengthAdjust="spacing" textLength="78" x="61" y="34.9951">&#23454;&#20363;&#21270;Bean</text><rect fill="#FFFFFF" height="36.2969" rx="12.5" ry="12.5" style="stroke:#000000;stroke-width:1.0;" width="90" x="169" y="12"/><text fill="#000000" font-family="Consolas" font-size="14" lengthAdjust="spacing" textLength="70" x="179" y="34.9951">&#35774;&#32622;&#23646;&#24615;&#20540;</text><rect fill="#FFFFFF" height="36.2969" rx="12.5" ry="12.5" style="stroke:#000000;stroke-width:1.0;" width="118" x="279" y="12"/><text fill="#000000" font-family="Consolas" font-size="14" lengthAdjust="spacing" textLength="98" x="289" y="34.9951">&#25191;&#34892;&#21021;&#22987;&#21270;&#26041;&#27861;</text><ellipse cx="427" cy="30.15" fill="none" rx="10" ry="10" style="stroke:#000000;stroke-width:1.0;"/><ellipse cx="427.5" cy="30.65" fill="#000000" rx="6" ry="6" style="stroke:none;stroke-width:1.0;"/><!--link start to ???Bean--><g id="link_start_&#23454;&#20363;&#21270;Bean"><path d="M31.49,30.15 C36.01,30.15 40.52,30.15 45.04,30.15 " fill="none" id="start-to-&#23454;&#20363;&#21270;Bean" style="stroke:#000000;stroke-width:1.0;"/><polygon fill="#000000" points="49.76,30.15,40.76,26.15,44.76,30.15,40.76,34.15,49.76,30.15" style="stroke:#000000;stroke-width:1.0;"/></g><!--link ???Bean to ?????--><g id="link_&#23454;&#20363;&#21270;Bean_&#35774;&#32622;&#23646;&#24615;&#20540;"><path d="M149.43,30.15 C153.82,30.15 158.22,30.15 162.61,30.15 " fill="none" id="&#23454;&#20363;&#21270;Bean-to-&#35774;&#32622;&#23646;&#24615;&#20540;" style="stroke:#000000;stroke-width:1.0;"/><polygon fill="#000000" points="167.6,30.15,158.6,26.15,162.6,30.15,158.6,34.15,167.6,30.15" style="stroke:#000000;stroke-width:1.0;"/></g><!--link ????? to ???????--><g id="link_&#35774;&#32622;&#23646;&#24615;&#20540;_&#25191;&#34892;&#21021;&#22987;&#21270;&#26041;&#27861;"><path d="M259.05,30.15 C263.67,30.15 268.3,30.15 272.93,30.15 " fill="none" id="&#35774;&#32622;&#23646;&#24615;&#20540;-to-&#25191;&#34892;&#21021;&#22987;&#21270;&#26041;&#27861;" style="stroke:#000000;stroke-width:1.0;"/><polygon fill="#000000" points="277.79,30.15,268.79,26.15,272.79,30.15,268.79,34.15,277.79,30.15" style="stroke:#000000;stroke-width:1.0;"/></g><!--link ??????? to end--><g id="link_&#25191;&#34892;&#21021;&#22987;&#21270;&#26041;&#27861;_end"><path d="M397.45,30.15 C401.99,30.15 406.54,30.15 411.08,30.15 " fill="none" id="&#25191;&#34892;&#21021;&#22987;&#21270;&#26041;&#27861;-to-end" style="stroke:#000000;stroke-width:1.0;"/><polygon fill="#000000" points="415.84,30.15,406.84,26.15,410.84,30.15,406.84,34.15,415.84,30.15" style="stroke:#000000;stroke-width:1.0;"/></g><!--SRC=[Kop9ICrDLIZ8ISpCuohEpimhI2nAp5KeoIp9INNBpoi9pgnALJ0qGP9AIKrBBCqf8IZfbmWqrpa_hpW_9x6OIqDBKq6tIDTEGUdfkdbFzdK_xPdcb9gOfyG54NonRj_plUkURfpth67vquOzCE5ddSjVBEnvsZ7twNAGZcVJTZxRF1Kg2JGH0000]--></g></svg>