<?xml version="1.0" encoding="us-ascii" standalone="no"?><svg xmlns="http://www.w3.org/2000/svg" xmlns:xlink="http://www.w3.org/1999/xlink" contentStyleType="text/css" height="241px" preserveAspectRatio="none" style="width:967px;height:241px;background:#FFFFFF;" version="1.1" viewBox="0 0 967 241" width="967px" zoomAndPan="magnify"><defs/><g><!--class BeanDefinition--><g id="elem_BeanDefinition"><rect codeLine="6" fill="#FFFFFF" height="222.9688" id="BeanDefinition" rx="2.5" ry="2.5" style="stroke:#000000;stroke-width:1.0;" width="453" x="287.5" y="12"/><ellipse cx="459.75" cy="26" fill="#FFFFFF" rx="9" ry="9" style="stroke:#000000;stroke-width:1.0;"/><path d="M456.9219,22.5781 L456.9219,20.7969 L463,20.7969 L463,22.5781 L460.9688,22.5781 L460.9688,29.2188 L463,29.2188 L463,31 L456.9219,31 L456.9219,29.2188 L458.9531,29.2188 L458.9531,22.5781 L456.9219,22.5781 Z " fill="#000000"/><text fill="#000000" font-family="Consolas" font-size="14" font-style="italic" lengthAdjust="spacing" textLength="101" x="477.25" y="30.8467">BeanDefinition</text><line style="stroke:#000000;stroke-width:1.0;" x1="288.5" x2="739.5" y1="40" y2="40"/><ellipse cx="298.5" cy="53.6484" fill="#FFFFFF" rx="3" ry="3" style="stroke:#000000;stroke-width:1.0;"/><text fill="#000000" font-family="Consolas" font-size="14" lengthAdjust="spacing" textLength="190" x="305.5" y="56.9951">getBeanClassName() String</text><ellipse cx="298.5" cy="69.9453" fill="#FFFFFF" rx="3" ry="3" style="stroke:#000000;stroke-width:1.0;"/><text fill="#000000" font-family="Consolas" font-size="14" lengthAdjust="spacing" textLength="300" x="305.5" y="73.292">getPropertyValues() MutablePropertyValues</text><ellipse cx="298.5" cy="86.2422" fill="#FFFFFF" rx="3" ry="3" style="stroke:#000000;stroke-width:1.0;"/><text fill="#000000" font-family="Consolas" font-size="14" lengthAdjust="spacing" textLength="429" x="305.5" y="89.5889">getConstructorArgumentValues() ConstructorArgumentValues</text><line style="stroke:#000000;stroke-width:1.0;stroke-dasharray:1.0,2.0;" x1="288.5" x2="739.5" y1="96.8906" y2="96.8906"/><ellipse cx="298.5" cy="110.5391" fill="#FFFFFF" rx="3" ry="3" style="stroke:#000000;stroke-width:1.0;"/><text fill="#000000" font-family="Consolas" font-size="14" lengthAdjust="spacing" textLength="190" x="305.5" y="113.8857">getInitMethodName() String</text><ellipse cx="298.5" cy="126.8359" fill="#FFFFFF" rx="3" ry="3" style="stroke:#000000;stroke-width:1.0;"/><text fill="#000000" font-family="Consolas" font-size="14" lengthAdjust="spacing" textLength="224" x="305.5" y="130.1826">getDestroyMethodName() String</text><line style="stroke:#000000;stroke-width:1.0;stroke-dasharray:1.0,2.0;" x1="288.5" x2="739.5" y1="137.4844" y2="137.4844"/><ellipse cx="298.5" cy="151.1328" fill="#FFFFFF" rx="3" ry="3" style="stroke:#000000;stroke-width:1.0;"/><text fill="#000000" font-family="Consolas" font-size="14" lengthAdjust="spacing" textLength="203" x="305.5" y="154.4795">getFactoryBeanName() String</text><ellipse cx="298.5" cy="167.4297" fill="#FFFFFF" rx="3" ry="3" style="stroke:#000000;stroke-width:1.0;"/><text fill="#000000" font-family="Consolas" font-size="14" lengthAdjust="spacing" textLength="220" x="305.5" y="170.7764">getFactoryMethodName() String</text><line style="stroke:#000000;stroke-width:1.0;stroke-dasharray:1.0,2.0;" x1="288.5" x2="739.5" y1="178.0781" y2="178.0781"/><ellipse cx="298.5" cy="191.7266" fill="#FFFFFF" rx="3" ry="3" style="stroke:#000000;stroke-width:1.0;"/><text fill="#000000" font-family="Consolas" font-size="14" lengthAdjust="spacing" textLength="131" x="305.5" y="195.0732">isLazyInit() boolean</text><ellipse cx="298.5" cy="208.0234" fill="#FFFFFF" rx="3" ry="3" style="stroke:#000000;stroke-width:1.0;"/><text fill="#000000" font-family="Consolas" font-size="14" lengthAdjust="spacing" textLength="121" x="305.5" y="211.3701">getScope() String</text><ellipse cx="298.5" cy="224.3203" fill="#FFFFFF" rx="3" ry="3" style="stroke:#000000;stroke-width:1.0;"/><text fill="#000000" font-family="Consolas" font-size="14" lengthAdjust="spacing" textLength="171" x="305.5" y="227.667">getDependsOn() String[]</text></g><!--class AttributeAccessor--><g id="elem_AttributeAccessor"><rect codeLine="21" fill="#FFFFFF" height="60.2969" id="AttributeAccessor" rx="2.5" ry="2.5" style="stroke:#000000;stroke-width:1.0;" width="240" x="12" y="93.34"/><ellipse cx="66.75" cy="107.34" fill="#FFFFFF" rx="9" ry="9" style="stroke:#000000;stroke-width:1.0;"/><path d="M63.9219,103.9181 L63.9219,102.1369 L70,102.1369 L70,103.9181 L67.9688,103.9181 L67.9688,110.5588 L70,110.5588 L70,112.34 L63.9219,112.34 L63.9219,110.5588 L65.9531,110.5588 L65.9531,103.9181 L63.9219,103.9181 Z " fill="#000000"/><text fill="#000000" font-family="Consolas" font-size="14" font-style="italic" lengthAdjust="spacing" textLength="123" x="84.25" y="112.1867">AttributeAccessor</text><line style="stroke:#000000;stroke-width:1.0;" x1="13" x2="251" y1="121.34" y2="121.34"/><line style="stroke:#000000;stroke-width:1.0;" x1="13" x2="251" y1="129.34" y2="129.34"/><ellipse cx="23" cy="142.9884" fill="#FFFFFF" rx="3" ry="3" style="stroke:#000000;stroke-width:1.0;"/><text fill="#000000" font-family="Consolas" font-size="14" lengthAdjust="spacing" textLength="216" x="30" y="146.3351">setAttribute(String, Object) void</text></g><!--class BeanMetadataElement--><g id="elem_BeanMetadataElement"><rect codeLine="24" fill="#FFFFFF" height="60.2969" id="BeanMetadataElement" rx="2.5" ry="2.5" style="stroke:#000000;stroke-width:1.0;" width="185" x="775.5" y="93.34"/><ellipse cx="788.5" cy="107.34" fill="#FFFFFF" rx="9" ry="9" style="stroke:#000000;stroke-width:1.0;"/><path d="M785.6719,103.9181 L785.6719,102.1369 L791.75,102.1369 L791.75,103.9181 L789.7188,103.9181 L789.7188,110.5588 L791.75,110.5588 L791.75,112.34 L785.6719,112.34 L785.6719,110.5588 L787.7031,110.5588 L787.7031,103.9181 L785.6719,103.9181 Z " fill="#000000"/><text fill="#000000" font-family="Consolas" font-size="14" font-style="italic" lengthAdjust="spacing" textLength="157" x="800.5" y="112.1867">BeanMetadataElement</text><line style="stroke:#000000;stroke-width:1.0;" x1="776.5" x2="959.5" y1="121.34" y2="121.34"/><line style="stroke:#000000;stroke-width:1.0;" x1="776.5" x2="959.5" y1="129.34" y2="129.34"/><ellipse cx="786.5" cy="142.9884" fill="#FFFFFF" rx="3" ry="3" style="stroke:#000000;stroke-width:1.0;"/><text fill="#000000" font-family="Consolas" font-size="14" lengthAdjust="spacing" textLength="131" x="793.5" y="146.3351">getSource() Object</text></g><!--reverse link AttributeAccessor to BeanDefinition--><g id="link_AttributeAccessor_BeanDefinition"><path codeLine="28" d="M273.39,123.49 C278,123.49 282.61,123.49 287.23,123.49 " fill="none" id="AttributeAccessor-backto-BeanDefinition" style="stroke:#000000;stroke-width:1.0;"/><polygon fill="none" points="273.49,130.49,253.49,123.49,273.49,116.49,273.49,130.49" style="stroke:#000000;stroke-width:1.0;"/></g><!--link BeanDefinition to BeanMetadataElement--><g id="link_BeanDefinition_BeanMetadataElement"><path codeLine="29" d="M740.78,123.49 C745.25,123.49 749.71,123.49 754.18,123.49 " fill="none" id="BeanDefinition-to-BeanMetadataElement" style="stroke:#000000;stroke-width:1.0;"/><polygon fill="none" points="754.07,116.49,774.07,123.49,754.07,130.49,754.07,116.49" style="stroke:#000000;stroke-width:1.0;"/></g><!--SRC=[XP51ImCn48NFpQ-8jnQj87WMQcj1i5POy28UPhFJDfhDBCb4sAh_tOHTbhQxQexppNlpPdB6EonHLWQq5VvTsmeSb98r6roIvKplKLvT7w02Dn0C_miV8VhEoNeou8NGbj5jGA6yHR0Bt6YhMPELds9qBhV8gJoFhJu9nnEPiTDssy8dHnKwhf_11FIHhW93Rl2utZQdeUo2Od8pjmqbMkvqlp8nkeolTRYFsLR8Eog6mYmmMb0zs71WieGqfKvx3Rcq-4yNxHzWNwSq4UP49dgryap5pVl9AhI5NziElBoAxuFRppXMyy0uKmgz9zUStoDtPDm8B-GwVqF54_b1kZWoIHl5s500mvt1TCFk5pCAJgLSZJhgnCb_JytqwwOVfDVcKjl0g1y0]--></g></svg>