<?xml version="1.0" encoding="us-ascii" standalone="no"?><svg xmlns="http://www.w3.org/2000/svg" xmlns:xlink="http://www.w3.org/1999/xlink" contentStyleType="text/css" height="256px" preserveAspectRatio="none" style="width:988px;height:256px;background:#FFFFFF;" version="1.1" viewBox="0 0 988 256" width="988px" zoomAndPan="magnify"><defs/><g><text fill="#000000" font-family="sans-serif" font-size="14" font-weight="bold" lengthAdjust="spacing" textLength="140" x="417.25" y="22.9951">&#36807;&#28388;&#33258;&#21160;&#37197;&#32622;&#28041;&#21450;&#30340;&#31867;</text><!--class AutoConfigurationImportFilter--><g id="elem_AutoConfigurationImportFilter"><rect codeLine="2" fill="#F1F1F1" height="64.2969" id="AutoConfigurationImportFilter" rx="2.5" ry="2.5" style="stroke:#181818;stroke-width:0.5;" width="395" x="447" y="60.5969"/><ellipse cx="539.75" cy="76.5969" fill="#B4A7E5" rx="11" ry="11" style="stroke:#181818;stroke-width:1.0;"/><path d="M535.6719,72.3625 L535.6719,70.2062 L543.0625,70.2062 L543.0625,72.3625 L540.5938,72.3625 L540.5938,80.4406 L543.0625,80.4406 L543.0625,82.5969 L535.6719,82.5969 L535.6719,80.4406 L538.1406,80.4406 L538.1406,72.3625 L535.6719,72.3625 Z " fill="#000000"/><text fill="#000000" font-family="sans-serif" font-size="14" font-style="italic" lengthAdjust="spacing" textLength="201" x="560.25" y="81.4436">AutoConfigurationImportFilter</text><line style="stroke:#181818;stroke-width:0.5;" x1="448" x2="841" y1="92.5969" y2="92.5969"/><line style="stroke:#181818;stroke-width:0.5;" x1="448" x2="841" y1="100.5969" y2="100.5969"/><ellipse cx="458" cy="114.2453" fill="#84BE84" rx="3" ry="3" style="stroke:#038048;stroke-width:1.0;"/><text fill="#000000" font-family="sans-serif" font-size="14" lengthAdjust="spacing" textLength="369" x="467" y="117.592">match(String[], AutoConfigurationMetadata) boolean[]</text></g><!--class ConfigurationClassFilter--><g id="elem_ConfigurationClassFilter"><rect codeLine="5" fill="#F1F1F1" height="96.8906" id="ConfigurationClassFilter" rx="2.5" ry="2.5" style="stroke:#181818;stroke-width:0.5;" width="405" x="7" y="44.2969"/><ellipse cx="124.25" cy="60.2969" fill="#ADD1B2" rx="11" ry="11" style="stroke:#181818;stroke-width:1.0;"/><path d="M127.2188,65.9375 Q126.6406,66.2344 126,66.375 Q125.3594,66.5313 124.6563,66.5313 Q122.1563,66.5313 120.8281,64.8906 Q119.5156,63.2344 119.5156,60.1094 Q119.5156,56.9844 120.8281,55.3281 Q122.1563,53.6719 124.6563,53.6719 Q125.3594,53.6719 126,53.8281 Q126.6563,53.9844 127.2188,54.2813 L127.2188,57 Q126.5938,56.4219 126,56.1563 Q125.4063,55.875 124.7813,55.875 Q123.4375,55.875 122.75,56.9531 Q122.0625,58.0156 122.0625,60.1094 Q122.0625,62.2031 122.75,63.2813 Q123.4375,64.3438 124.7813,64.3438 Q125.4063,64.3438 126,64.0781 Q126.5938,63.7969 127.2188,63.2188 L127.2188,65.9375 Z " fill="#000000"/><text fill="#000000" font-family="sans-serif" font-size="14" lengthAdjust="spacing" textLength="162" x="144.75" y="65.1436">ConfigurationClassFilter</text><line style="stroke:#181818;stroke-width:0.5;" x1="8" x2="411" y1="76.2969" y2="76.2969"/><rect fill="none" height="6" style="stroke:#C82930;stroke-width:1.0;" width="6" x="15" y="86.9453"/><text fill="#000000" font-family="sans-serif" font-size="14" lengthAdjust="spacing" textLength="379" x="27" y="93.292">AutoConfigurationMetadata autoConfigurationMetadata</text><rect fill="none" height="6" style="stroke:#C82930;stroke-width:1.0;" width="6" x="15" y="103.2422"/><text fill="#000000" font-family="sans-serif" font-size="14" lengthAdjust="spacing" textLength="289" x="27" y="109.5889">List&lt;AutoConfigurationImportFilter&gt; filters</text><line style="stroke:#181818;stroke-width:0.5;" x1="8" x2="411" y1="116.8906" y2="116.8906"/><text fill="#000000" font-family="sans-serif" font-size="14" lengthAdjust="spacing" textLength="217" x="13" y="133.8857">filter(List&lt;String&gt;) List&lt;String&gt;</text></g><!--class OnBeanCondition--><g id="elem_OnBeanCondition"><rect fill="#F1F1F1" height="48" id="OnBeanCondition" rx="2.5" ry="2.5" style="stroke:#181818;stroke-width:0.5;" width="154" x="377.5" y="201.1869"/><ellipse cx="392.5" cy="217.1869" fill="#ADD1B2" rx="11" ry="11" style="stroke:#181818;stroke-width:1.0;"/><path d="M395.4688,222.8275 Q394.8906,223.1244 394.25,223.265 Q393.6094,223.4213 392.9063,223.4213 Q390.4063,223.4213 389.0781,221.7806 Q387.7656,220.1244 387.7656,216.9994 Q387.7656,213.8744 389.0781,212.2181 Q390.4063,210.5619 392.9063,210.5619 Q393.6094,210.5619 394.25,210.7181 Q394.9063,210.8744 395.4688,211.1713 L395.4688,213.89 Q394.8438,213.3119 394.25,213.0463 Q393.6563,212.765 393.0313,212.765 Q391.6875,212.765 391,213.8431 Q390.3125,214.9056 390.3125,216.9994 Q390.3125,219.0931 391,220.1713 Q391.6875,221.2338 393.0313,221.2338 Q393.6563,221.2338 394.25,220.9681 Q394.8438,220.6869 395.4688,220.1088 L395.4688,222.8275 Z " fill="#000000"/><text fill="#000000" font-family="sans-serif" font-size="14" lengthAdjust="spacing" textLength="122" x="406.5" y="222.0336">OnBeanCondition</text><line style="stroke:#181818;stroke-width:0.5;" x1="378.5" x2="530.5" y1="233.1869" y2="233.1869"/><line style="stroke:#181818;stroke-width:0.5;" x1="378.5" x2="530.5" y1="241.1869" y2="241.1869"/></g><!--class OnClassCondition--><g id="elem_OnClassCondition"><rect fill="#F1F1F1" height="48" id="OnClassCondition" rx="2.5" ry="2.5" style="stroke:#181818;stroke-width:0.5;" width="155" x="567" y="201.1869"/><ellipse cx="582" cy="217.1869" fill="#ADD1B2" rx="11" ry="11" style="stroke:#181818;stroke-width:1.0;"/><path d="M584.9688,222.8275 Q584.3906,223.1244 583.75,223.265 Q583.1094,223.4213 582.4063,223.4213 Q579.9063,223.4213 578.5781,221.7806 Q577.2656,220.1244 577.2656,216.9994 Q577.2656,213.8744 578.5781,212.2181 Q579.9063,210.5619 582.4063,210.5619 Q583.1094,210.5619 583.75,210.7181 Q584.4063,210.8744 584.9688,211.1713 L584.9688,213.89 Q584.3438,213.3119 583.75,213.0463 Q583.1563,212.765 582.5313,212.765 Q581.1875,212.765 580.5,213.8431 Q579.8125,214.9056 579.8125,216.9994 Q579.8125,219.0931 580.5,220.1713 Q581.1875,221.2338 582.5313,221.2338 Q583.1563,221.2338 583.75,220.9681 Q584.3438,220.6869 584.9688,220.1088 L584.9688,222.8275 Z " fill="#000000"/><text fill="#000000" font-family="sans-serif" font-size="14" lengthAdjust="spacing" textLength="123" x="596" y="222.0336">OnClassCondition</text><line style="stroke:#181818;stroke-width:0.5;" x1="568" x2="721" y1="233.1869" y2="233.1869"/><line style="stroke:#181818;stroke-width:0.5;" x1="568" x2="721" y1="241.1869" y2="241.1869"/></g><!--class OnWebApplicationCondition--><g id="elem_OnWebApplicationCondition"><rect fill="#F1F1F1" height="48" id="OnWebApplicationCondition" rx="2.5" ry="2.5" style="stroke:#181818;stroke-width:0.5;" width="224" x="757.5" y="201.1869"/><ellipse cx="772.5" cy="217.1869" fill="#ADD1B2" rx="11" ry="11" style="stroke:#181818;stroke-width:1.0;"/><path d="M775.4688,222.8275 Q774.8906,223.1244 774.25,223.265 Q773.6094,223.4213 772.9063,223.4213 Q770.4063,223.4213 769.0781,221.7806 Q767.7656,220.1244 767.7656,216.9994 Q767.7656,213.8744 769.0781,212.2181 Q770.4063,210.5619 772.9063,210.5619 Q773.6094,210.5619 774.25,210.7181 Q774.9063,210.8744 775.4688,211.1713 L775.4688,213.89 Q774.8438,213.3119 774.25,213.0463 Q773.6563,212.765 773.0313,212.765 Q771.6875,212.765 771,213.8431 Q770.3125,214.9056 770.3125,216.9994 Q770.3125,219.0931 771,220.1713 Q771.6875,221.2338 773.0313,221.2338 Q773.6563,221.2338 774.25,220.9681 Q774.8438,220.6869 775.4688,220.1088 L775.4688,222.8275 Z " fill="#000000"/><text fill="#000000" font-family="sans-serif" font-size="14" lengthAdjust="spacing" textLength="192" x="786.5" y="222.0336">OnWebApplicationCondition</text><line style="stroke:#181818;stroke-width:0.5;" x1="758.5" x2="980.5" y1="233.1869" y2="233.1869"/><line style="stroke:#181818;stroke-width:0.5;" x1="758.5" x2="980.5" y1="241.1869" y2="241.1869"/></g><!--reverse link ConfigurationClassFilter to AutoConfigurationImportFilter--><g id="link_ConfigurationClassFilter_AutoConfigurationImportFilter"><path codeLine="10" d="M425.87,92.7369 C432.79,92.7369 439.71,92.7369 446.62,92.7369 " fill="none" id="ConfigurationClassFilter-backto-AutoConfigurationImportFilter" style="stroke:#181818;stroke-width:1.0;"/><polygon fill="#181818" points="413.13,92.7369,419.13,96.7369,425.13,92.7369,419.13,88.7369,413.13,92.7369" style="stroke:#181818;stroke-width:1.0;"/></g><!--reverse link AutoConfigurationImportFilter to OnBeanCondition--><g id="link_AutoConfigurationImportFilter_OnBeanCondition"><path codeLine="12" d="M581.42,137.0469 C550.4,158.3469 514.23,183.1769 488.46,200.8769 " fill="none" id="AutoConfigurationImportFilter-backto-OnBeanCondition" style="stroke:#181818;stroke-width:1.0;"/><polygon fill="none" points="577.06,130.8669,597.51,125.3169,584.98,142.4069,577.06,130.8669" style="stroke:#181818;stroke-width:1.0;"/></g><!--reverse link AutoConfigurationImportFilter to OnClassCondition--><g id="link_AutoConfigurationImportFilter_OnClassCondition"><path codeLine="13" d="M644.5,146.2069 C644.5,165.2769 644.5,185.8469 644.5,201.0769 " fill="none" id="AutoConfigurationImportFilter-backto-OnClassCondition" style="stroke:#181818;stroke-width:1.0;"/><polygon fill="none" points="637.5,146.3169,644.5,126.3169,651.5,146.3169,637.5,146.3169" style="stroke:#181818;stroke-width:1.0;"/></g><!--reverse link AutoConfigurationImportFilter to OnWebApplicationCondition--><g id="link_AutoConfigurationImportFilter_OnWebApplicationCondition"><path codeLine="14" d="M716.9,135.7169 C754.14,157.3069 798.13,182.8069 829.29,200.8769 " fill="none" id="AutoConfigurationImportFilter-backto-OnWebApplicationCondition" style="stroke:#181818;stroke-width:1.0;"/><polygon fill="none" points="713.76,141.4069,699.97,125.3169,720.78,129.2969,713.76,141.4069" style="stroke:#181818;stroke-width:1.0;"/></g><!--SRC=[AyaioKbLUB6__Tdk9I_QLptjMl6ojVVvtdNFjdK-xUzwFglb-SRTN9bv9Qb5QOd9gGgEfINvplbvQPdffKM99PdvUPwv1Vb59MwPEK0L2jLSdDeAkOaboHaQmIL5cNdfqR4wc5fyKqiIKn9B4ZKLalBpSr8Jyw9ZkMgvadCIYuiLK1GwWuGGHklYDaeX4PSCI9jFPd693LwNsocaWUbYBau8GmEi1-89Eqq5P1xGhJXTgQLRf8i_ZBYu_FESW7u6AaZ914agw9RgrjWHqEGFiOLKJU6fIOu51JcPoH27ag8R0000]--></g></svg>