<?xml version="1.0" encoding="us-ascii" standalone="no"?><svg xmlns="http://www.w3.org/2000/svg" xmlns:xlink="http://www.w3.org/1999/xlink" contentStyleType="text/css" height="324px" preserveAspectRatio="none" style="width:304px;height:324px;background:#FFFFFF;" version="1.1" viewBox="0 0 304 324" width="304px" zoomAndPan="magnify"><defs/><g><text fill="#000000" font-family="sans-serif" font-size="14" font-weight="bold" lengthAdjust="spacing" textLength="276" x="10" y="22.9951">Java Collections Framework-Vector</text><!--class List--><g id="elem_List"><rect codeLine="2" fill="#F1F1F1" height="48" id="List" rx="2.5" ry="2.5" style="stroke:#181818;stroke-width:0.5;" width="67" x="207.25" y="47.2969"/><ellipse cx="222.25" cy="63.2969" fill="#B4A7E5" rx="11" ry="11" style="stroke:#181818;stroke-width:1.0;"/><path d="M218.1719,59.0625 L218.1719,56.9063 L225.5625,56.9063 L225.5625,59.0625 L223.0938,59.0625 L223.0938,67.1406 L225.5625,67.1406 L225.5625,69.2969 L218.1719,69.2969 L218.1719,67.1406 L220.6406,67.1406 L220.6406,59.0625 L218.1719,59.0625 Z " fill="#000000"/><text fill="#000000" font-family="sans-serif" font-size="14" font-style="italic" lengthAdjust="spacing" textLength="23" x="236.25" y="68.1436">List</text><rect fill="#FFFFFF" height="15.9688" style="stroke:#181818;stroke-width:1.0;stroke-dasharray:2.0,2.0;" width="10" x="267.25" y="44.2969"/><text fill="#000000" font-family="sans-serif" font-size="12" font-style="italic" lengthAdjust="spacing" textLength="8" x="268.25" y="56.4355">E</text><line style="stroke:#181818;stroke-width:0.5;" x1="208.25" x2="273.25" y1="79.2969" y2="79.2969"/><line style="stroke:#181818;stroke-width:0.5;" x1="208.25" x2="273.25" y1="87.2969" y2="87.2969"/></g><!--class RandomAccess--><g id="elem_RandomAccess"><rect codeLine="3" fill="#F1F1F1" height="48" id="RandomAccess" rx="2.5" ry="2.5" style="stroke:#181818;stroke-width:0.5;" width="140" x="31.75" y="47.2969"/><ellipse cx="46.75" cy="63.2969" fill="#B4A7E5" rx="11" ry="11" style="stroke:#181818;stroke-width:1.0;"/><path d="M42.6719,59.0625 L42.6719,56.9063 L50.0625,56.9063 L50.0625,59.0625 L47.5938,59.0625 L47.5938,67.1406 L50.0625,67.1406 L50.0625,69.2969 L42.6719,69.2969 L42.6719,67.1406 L45.1406,67.1406 L45.1406,59.0625 L42.6719,59.0625 Z " fill="#000000"/><text fill="#000000" font-family="sans-serif" font-size="14" font-style="italic" lengthAdjust="spacing" textLength="108" x="60.75" y="68.1436">RandomAccess</text><line style="stroke:#181818;stroke-width:0.5;" x1="32.75" x2="170.75" y1="79.2969" y2="79.2969"/><line style="stroke:#181818;stroke-width:0.5;" x1="32.75" x2="170.75" y1="87.2969" y2="87.2969"/></g><!--class Vector--><g id="elem_Vector"><rect codeLine="4" fill="#F1F1F1" height="162.0781" id="Vector" rx="2.5" ry="2.5" style="stroke:#181818;stroke-width:0.5;" width="174" x="83.75" y="155.2969"/><ellipse cx="138" cy="171.2969" fill="#ADD1B2" rx="11" ry="11" style="stroke:#181818;stroke-width:1.0;"/><path d="M140.9688,176.9375 Q140.3906,177.2344 139.75,177.375 Q139.1094,177.5312 138.4063,177.5312 Q135.9063,177.5312 134.5781,175.8906 Q133.2656,174.2344 133.2656,171.1094 Q133.2656,167.9844 134.5781,166.3281 Q135.9063,164.6719 138.4063,164.6719 Q139.1094,164.6719 139.75,164.8281 Q140.4063,164.9844 140.9688,165.2812 L140.9688,168 Q140.3438,167.4219 139.75,167.1562 Q139.1563,166.875 138.5313,166.875 Q137.1875,166.875 136.5,167.9531 Q135.8125,169.0156 135.8125,171.1094 Q135.8125,173.2031 136.5,174.2812 Q137.1875,175.3437 138.5313,175.3437 Q139.1563,175.3437 139.75,175.0781 Q140.3438,174.7969 140.9688,174.2187 L140.9688,176.9375 Z " fill="#000000"/><text fill="#000000" font-family="sans-serif" font-size="14" lengthAdjust="spacing" textLength="45" x="158.5" y="176.1436">Vector</text><rect fill="#FFFFFF" height="15.9688" style="stroke:#181818;stroke-width:1.0;stroke-dasharray:2.0,2.0;" width="10" x="250.75" y="152.2969"/><text fill="#000000" font-family="sans-serif" font-size="12" font-style="italic" lengthAdjust="spacing" textLength="8" x="251.75" y="164.4355">E</text><line style="stroke:#181818;stroke-width:0.5;" x1="84.75" x2="256.75" y1="187.2969" y2="187.2969"/><polygon fill="none" points="94.75,195.9453,98.75,199.9453,94.75,203.9453,90.75,199.9453" style="stroke:#B38D22;stroke-width:1.0;"/><text fill="#000000" font-family="sans-serif" font-size="14" lengthAdjust="spacing" textLength="148" x="103.75" y="204.292">Object[] elementData</text><polygon fill="none" points="94.75,212.2422,98.75,216.2422,94.75,220.2422,90.75,216.2422" style="stroke:#B38D22;stroke-width:1.0;"/><text fill="#000000" font-family="sans-serif" font-size="14" lengthAdjust="spacing" textLength="120" x="103.75" y="220.5889">int elementCount</text><polygon fill="none" points="94.75,228.5391,98.75,232.5391,94.75,236.5391,90.75,232.5391" style="stroke:#B38D22;stroke-width:1.0;"/><text fill="#000000" font-family="sans-serif" font-size="14" lengthAdjust="spacing" textLength="147" x="103.75" y="236.8857">int capacityIncrement</text><polygon fill="none" points="94.75,244.8359,98.75,248.8359,94.75,252.8359,90.75,248.8359" style="stroke:#B38D22;stroke-width:1.0;"/><text fill="#000000" font-family="sans-serif" font-size="14" lengthAdjust="spacing" textLength="94" x="103.75" y="253.1826">int modCount</text><line style="stroke:#181818;stroke-width:0.5;" x1="84.75" x2="256.75" y1="260.4844" y2="260.4844"/><ellipse cx="94.75" cy="274.1328" fill="#84BE84" rx="3" ry="3" style="stroke:#038048;stroke-width:1.0;"/><text fill="#000000" font-family="sans-serif" font-size="14" lengthAdjust="spacing" textLength="105" x="103.75" y="277.4795">add(E) boolean</text><ellipse cx="94.75" cy="290.4297" fill="#84BE84" rx="3" ry="3" style="stroke:#038048;stroke-width:1.0;"/><text fill="#000000" font-family="sans-serif" font-size="14" lengthAdjust="spacing" textLength="63" x="103.75" y="293.7764">get(int) E</text><ellipse cx="94.75" cy="306.7266" fill="#84BE84" rx="3" ry="3" style="stroke:#038048;stroke-width:1.0;"/><text fill="#000000" font-family="sans-serif" font-size="14" lengthAdjust="spacing" textLength="145" x="103.75" y="310.0732">iterator() Iterator&lt;E&gt;</text></g><!--reverse link List to Vector--><g id="link_List_Vector"><path codeLine="13" d="M222.54,114.7069 C217.23,127.0869 211.24,141.0369 205.27,154.9369 " fill="none" id="List-backto-Vector" style="stroke:#181818;stroke-width:1.0;stroke-dasharray:7.0,7.0;"/><polygon fill="none" points="216.4,112.2769,230.72,96.6569,229.26,117.7969,216.4,112.2769" style="stroke:#181818;stroke-width:1.0;"/></g><!--reverse link RandomAccess to Vector--><g id="link_RandomAccess_Vector"><path codeLine="14" d="M119.7,114.7069 C124.94,127.0869 130.84,141.0369 136.72,154.9369 " fill="none" id="RandomAccess-backto-Vector" style="stroke:#181818;stroke-width:1.0;stroke-dasharray:7.0,7.0;"/><polygon fill="none" points="112.98,117.8069,111.64,96.6569,125.88,112.3469,112.98,117.8069" style="stroke:#181818;stroke-width:1.0;"/></g><!--SRC=[LO_12i9034JFzYi2Nbf4lq0AeXKKGV3WHJoasoYhsutifege_-wsjL1loPj9c14jXc2DTuGv6qDAD5iFIuSbFTXTn_k0s4NQ2haJAeADzZBDqXxPeIsud2b5taVAeFVGNWKRlAB14BRv9O334SXGILOMA5ZpyAD3SwwiT4pX3PMMvyegrwYTK7BnCuu0YoBE4iYP3Q6joPaa3gu4idhJ8H-65742gzzOv_v4RJYOL9DtsjJv9_qwNm00]--></g></svg>