<?xml version="1.0" encoding="us-ascii" standalone="no"?><svg xmlns="http://www.w3.org/2000/svg" xmlns:xlink="http://www.w3.org/1999/xlink" contentStyleType="text/css" height="308px" preserveAspectRatio="none" style="width:322px;height:308px;background:#FFFFFF;" version="1.1" viewBox="0 0 322 308" width="322px" zoomAndPan="magnify"><defs/><g><text fill="#000000" font-family="sans-serif" font-size="14" font-weight="bold" lengthAdjust="spacing" textLength="294" x="10" y="22.9951">Java Collections Framework-ArrayList</text><!--class List--><g id="elem_List"><rect codeLine="2" fill="#F1F1F1" height="48" id="List" rx="2.5" ry="2.5" style="stroke:#181818;stroke-width:0.5;" width="67" x="216.25" y="47.2969"/><ellipse cx="231.25" cy="63.2969" fill="#B4A7E5" rx="11" ry="11" style="stroke:#181818;stroke-width:1.0;"/><path d="M227.1719,59.0625 L227.1719,56.9063 L234.5625,56.9063 L234.5625,59.0625 L232.0938,59.0625 L232.0938,67.1406 L234.5625,67.1406 L234.5625,69.2969 L227.1719,69.2969 L227.1719,67.1406 L229.6406,67.1406 L229.6406,59.0625 L227.1719,59.0625 Z " fill="#000000"/><text fill="#000000" font-family="sans-serif" font-size="14" font-style="italic" lengthAdjust="spacing" textLength="23" x="245.25" y="68.1436">List</text><rect fill="#FFFFFF" height="15.9688" style="stroke:#181818;stroke-width:1.0;stroke-dasharray:2.0,2.0;" width="10" x="276.25" y="44.2969"/><text fill="#000000" font-family="sans-serif" font-size="12" font-style="italic" lengthAdjust="spacing" textLength="8" x="277.25" y="56.4355">E</text><line style="stroke:#181818;stroke-width:0.5;" x1="217.25" x2="282.25" y1="79.2969" y2="79.2969"/><line style="stroke:#181818;stroke-width:0.5;" x1="217.25" x2="282.25" y1="87.2969" y2="87.2969"/></g><!--class RandomAccess--><g id="elem_RandomAccess"><rect codeLine="3" fill="#F1F1F1" height="48" id="RandomAccess" rx="2.5" ry="2.5" style="stroke:#181818;stroke-width:0.5;" width="140" x="40.75" y="47.2969"/><ellipse cx="55.75" cy="63.2969" fill="#B4A7E5" rx="11" ry="11" style="stroke:#181818;stroke-width:1.0;"/><path d="M51.6719,59.0625 L51.6719,56.9063 L59.0625,56.9063 L59.0625,59.0625 L56.5938,59.0625 L56.5938,67.1406 L59.0625,67.1406 L59.0625,69.2969 L51.6719,69.2969 L51.6719,67.1406 L54.1406,67.1406 L54.1406,59.0625 L51.6719,59.0625 Z " fill="#000000"/><text fill="#000000" font-family="sans-serif" font-size="14" font-style="italic" lengthAdjust="spacing" textLength="108" x="69.75" y="68.1436">RandomAccess</text><line style="stroke:#181818;stroke-width:0.5;" x1="41.75" x2="179.75" y1="79.2969" y2="79.2969"/><line style="stroke:#181818;stroke-width:0.5;" x1="41.75" x2="179.75" y1="87.2969" y2="87.2969"/></g><!--class ArrayList--><g id="elem_ArrayList"><rect codeLine="4" fill="#F1F1F1" height="145.7813" id="ArrayList" rx="2.5" ry="2.5" style="stroke:#181818;stroke-width:0.5;" width="174" x="92.75" y="155.2969"/><ellipse cx="141" cy="171.2969" fill="#ADD1B2" rx="11" ry="11" style="stroke:#181818;stroke-width:1.0;"/><path d="M143.9688,176.9375 Q143.3906,177.2344 142.75,177.375 Q142.1094,177.5313 141.4063,177.5313 Q138.9063,177.5313 137.5781,175.8906 Q136.2656,174.2344 136.2656,171.1094 Q136.2656,167.9844 137.5781,166.3281 Q138.9063,164.6719 141.4063,164.6719 Q142.1094,164.6719 142.75,164.8281 Q143.4063,164.9844 143.9688,165.2813 L143.9688,168 Q143.3438,167.4219 142.75,167.1563 Q142.1563,166.875 141.5313,166.875 Q140.1875,166.875 139.5,167.9531 Q138.8125,169.0156 138.8125,171.1094 Q138.8125,173.2031 139.5,174.2813 Q140.1875,175.3438 141.5313,175.3438 Q142.1563,175.3438 142.75,175.0781 Q143.3438,174.7969 143.9688,174.2188 L143.9688,176.9375 Z " fill="#000000"/><text fill="#000000" font-family="sans-serif" font-size="14" lengthAdjust="spacing" textLength="57" x="161.5" y="176.1436">ArrayList</text><rect fill="#FFFFFF" height="15.9688" style="stroke:#181818;stroke-width:1.0;stroke-dasharray:2.0,2.0;" width="10" x="259.75" y="152.2969"/><text fill="#000000" font-family="sans-serif" font-size="12" font-style="italic" lengthAdjust="spacing" textLength="8" x="260.75" y="164.4355">E</text><line style="stroke:#181818;stroke-width:0.5;" x1="93.75" x2="265.75" y1="187.2969" y2="187.2969"/><polygon fill="none" points="103.75,196.9453,99.75,202.9453,107.75,202.9453" style="stroke:#1963A0;stroke-width:1.0;"/><text fill="#000000" font-family="sans-serif" font-size="14" lengthAdjust="spacing" textLength="148" x="112.75" y="204.292">Object[] elementData</text><rect fill="none" height="6" style="stroke:#C82930;stroke-width:1.0;" width="6" x="100.75" y="214.2422"/><text fill="#000000" font-family="sans-serif" font-size="14" lengthAdjust="spacing" textLength="49" x="112.75" y="220.5889">int size</text><polygon fill="none" points="103.75,228.5391,107.75,232.5391,103.75,236.5391,99.75,232.5391" style="stroke:#B38D22;stroke-width:1.0;"/><text fill="#000000" font-family="sans-serif" font-size="14" lengthAdjust="spacing" textLength="94" x="112.75" y="236.8857">int modCount</text><line style="stroke:#181818;stroke-width:0.5;" x1="93.75" x2="265.75" y1="244.1875" y2="244.1875"/><ellipse cx="103.75" cy="257.8359" fill="#84BE84" rx="3" ry="3" style="stroke:#038048;stroke-width:1.0;"/><text fill="#000000" font-family="sans-serif" font-size="14" lengthAdjust="spacing" textLength="105" x="112.75" y="261.1826">add(E) boolean</text><ellipse cx="103.75" cy="274.1328" fill="#84BE84" rx="3" ry="3" style="stroke:#038048;stroke-width:1.0;"/><text fill="#000000" font-family="sans-serif" font-size="14" lengthAdjust="spacing" textLength="63" x="112.75" y="277.4795">get(int) E</text><ellipse cx="103.75" cy="290.4297" fill="#84BE84" rx="3" ry="3" style="stroke:#038048;stroke-width:1.0;"/><text fill="#000000" font-family="sans-serif" font-size="14" lengthAdjust="spacing" textLength="145" x="112.75" y="293.7764">iterator() Iterator&lt;E&gt;</text></g><!--reverse link List to ArrayList--><g id="link_List_ArrayList"><path codeLine="12" d="M230.77,114.3069 C225.06,126.9169 218.64,141.1369 212.32,155.1169 " fill="none" id="List-backto-ArrayList" style="stroke:#181818;stroke-width:1.0;stroke-dasharray:7.0,7.0;"/><polygon fill="none" points="224.65,111.8269,239.27,96.4869,237.41,117.5969,224.65,111.8269" style="stroke:#181818;stroke-width:1.0;"/></g><!--reverse link RandomAccess to ArrayList--><g id="link_RandomAccess_ArrayList"><path codeLine="13" d="M129.46,114.3069 C135.08,126.9169 141.42,141.1369 147.65,155.1169 " fill="none" id="RandomAccess-backto-ArrayList" style="stroke:#181818;stroke-width:1.0;stroke-dasharray:7.0,7.0;"/><polygon fill="none" points="122.82,117.6069,121.08,96.4869,135.61,111.9069,122.82,117.6069" style="stroke:#181818;stroke-width:1.0;"/></g><!--SRC=[POxD2i8m48JFpLCiU6cH-WGYb5f14GIluc5DLuccMKXMnTzdDorI16ypm-pi9qOimG8l22LRIreCkm0pZmrTsP_omdkyBKqGPPoGtwCcQEsuclmaQtGrDuNM58BI5aE0_Z0suQ6IDwnsnxY_sG9PQiZ950LLaaESWM3kf991fnkkIpuxKSaGiAxJAeCTioLqRN8WIMChWwfr9XAWi4ypc7zbI_PI_NiOdKVFISVy5_vYVm00]--></g></svg>