<?xml version="1.0" encoding="us-ascii" standalone="no"?><svg xmlns="http://www.w3.org/2000/svg" xmlns:xlink="http://www.w3.org/1999/xlink" contentStyleType="text/css" height="131px" preserveAspectRatio="none" style="width:1051px;height:131px;background:#FFFFFF;" version="1.1" viewBox="0 0 1051 131" width="1051px" zoomAndPan="magnify"><defs/><g><text fill="#000000" font-family="sans-serif" font-size="14" font-weight="bold" lengthAdjust="spacing" textLength="339" x="349" y="22.9951">HandlerExecutionChain#postHandle&#28041;&#21450;&#30340;&#31867;</text><!--class HandlerExecutionChain--><g id="elem_HandlerExecutionChain"><rect codeLine="3" fill="#F1F1F1" height="80.5938" id="HandlerExecutionChain" rx="2.5" ry="2.5" style="stroke:#181818;stroke-width:0.5;" width="512" x="7" y="44.2969"/><ellipse cx="178.75" cy="60.2969" fill="#ADD1B2" rx="11" ry="11" style="stroke:#181818;stroke-width:1.0;"/><path d="M181.7188,65.9375 Q181.1406,66.2344 180.5,66.375 Q179.8594,66.5313 179.1563,66.5313 Q176.6563,66.5313 175.3281,64.8906 Q174.0156,63.2344 174.0156,60.1094 Q174.0156,56.9844 175.3281,55.3281 Q176.6563,53.6719 179.1563,53.6719 Q179.8594,53.6719 180.5,53.8281 Q181.1563,53.9844 181.7188,54.2813 L181.7188,57 Q181.0938,56.4219 180.5,56.1563 Q179.9063,55.875 179.2813,55.875 Q177.9375,55.875 177.25,56.9531 Q176.5625,58.0156 176.5625,60.1094 Q176.5625,62.2031 177.25,63.2813 Q177.9375,64.3438 179.2813,64.3438 Q179.9063,64.3438 180.5,64.0781 Q181.0938,63.7969 181.7188,63.2188 L181.7188,65.9375 Z " fill="#000000"/><text fill="#000000" font-family="sans-serif" font-size="14" lengthAdjust="spacing" textLength="160" x="199.25" y="65.1436">HandlerExecutionChain</text><line style="stroke:#181818;stroke-width:0.5;" x1="8" x2="518" y1="76.2969" y2="76.2969"/><rect fill="none" height="6" style="stroke:#C82930;stroke-width:1.0;" width="6" x="15" y="86.9453"/><text fill="#000000" font-family="sans-serif" font-size="14" lengthAdjust="spacing" textLength="279" x="27" y="93.292">List&lt;HandlerInterceptor&gt; interceptorList</text><line style="stroke:#181818;stroke-width:0.5;" x1="8" x2="518" y1="100.5938" y2="100.5938"/><text fill="#000000" font-family="sans-serif" font-size="14" lengthAdjust="spacing" textLength="500" x="13" y="117.5889">applyPostHandle(HttpServletRequest, HttpServletResponse, Object) void</text></g><!--class HandlerInterceptor--><g id="elem_HandlerInterceptor"><rect codeLine="8" fill="#F1F1F1" height="64.2969" id="HandlerInterceptor" rx="2.5" ry="2.5" style="stroke:#181818;stroke-width:0.5;" width="490" x="554" y="52.4369"/><ellipse cx="730.25" cy="68.4369" fill="#B4A7E5" rx="11" ry="11" style="stroke:#181818;stroke-width:1.0;"/><path d="M726.1719,64.2025 L726.1719,62.0463 L733.5625,62.0463 L733.5625,64.2025 L731.0938,64.2025 L731.0938,72.2806 L733.5625,72.2806 L733.5625,74.4369 L726.1719,74.4369 L726.1719,72.2806 L728.6406,72.2806 L728.6406,64.2025 L726.1719,64.2025 Z " fill="#000000"/><text fill="#000000" font-family="sans-serif" font-size="14" font-style="italic" lengthAdjust="spacing" textLength="129" x="750.75" y="73.2836">HandlerInterceptor</text><line style="stroke:#181818;stroke-width:0.5;" x1="555" x2="1043" y1="84.4369" y2="84.4369"/><line style="stroke:#181818;stroke-width:0.5;" x1="555" x2="1043" y1="92.4369" y2="92.4369"/><ellipse cx="565" cy="106.0853" fill="#84BE84" rx="3" ry="3" style="stroke:#038048;stroke-width:1.0;"/><text fill="#000000" font-family="sans-serif" font-size="14" lengthAdjust="spacing" textLength="464" x="574" y="109.432">postHandle(HttpServletRequest, HttpServletResponse, Object) void</text></g><!--reverse link HandlerExecutionChain to HandlerInterceptor--><g id="link_HandlerExecutionChain_HandlerInterceptor"><path codeLine="12" d="M533.35,84.5869 C540.1,84.5869 546.85,84.5869 553.6,84.5869 " fill="none" id="HandlerExecutionChain-backto-HandlerInterceptor" style="stroke:#181818;stroke-width:1.0;"/><polygon fill="#181818" points="520.48,84.5869,526.48,88.5869,532.48,84.5869,526.48,80.5869,520.48,84.5869" style="stroke:#181818;stroke-width:1.0;"/><text fill="#000000" font-family="sans-serif" font-size="13" lengthAdjust="spacing" textLength="8" x="527.213" y="81.4329">1</text><text fill="#000000" font-family="sans-serif" font-size="13" lengthAdjust="spacing" textLength="8" x="538.1959" y="81.4331">n</text></g><!--SRC=[AyaioKbLy4ZCIyb9BNAjI4qkBSdCptFEICpCKox8Bow1o3pRrlcql-lvh9Rd6tTpSINd91ONOzUZKCt5gQlWarbSOWELzymhIIrAJYqeoI-oKyX4S41gk3WJ2mfoAWFWzcXub9GK1ASMbUMabWIb5fQc5fVeAA285HVavnMdwYZu9sMb9fTeAfJbPwPmrN9nWKrEIqo6-mN9Nf2Zj1KAg60BTZyh6IefQEaMwIeevIbXiHu0]--></g></svg>