<?xml version="1.0" encoding="us-ascii" standalone="no"?><svg xmlns="http://www.w3.org/2000/svg" xmlns:xlink="http://www.w3.org/1999/xlink" contentStyleType="text/css" height="167px" preserveAspectRatio="none" style="width:354px;height:167px;background:#FFFFFF;" version="1.1" viewBox="0 0 354 167" width="354px" zoomAndPan="magnify"><defs/><g><text fill="#000000" font-family="sans-serif" font-size="14" font-weight="bold" lengthAdjust="spacing" textLength="156" x="92.25" y="22.9951">LinkHashMap#Entry</text><!--class Node--><g id="elem_Node"><rect codeLine="3" fill="#F1F1F1" height="113.1875" id="Node" rx="2.5" ry="2.5" style="stroke:#181818;stroke-width:0.5;" width="143" x="9" y="47.2969"/><ellipse cx="46.95" cy="63.2969" fill="#ADD1B2" rx="11" ry="11" style="stroke:#181818;stroke-width:1.0;"/><path d="M49.9188,68.9375 Q49.3406,69.2344 48.7,69.375 Q48.0594,69.5313 47.3563,69.5313 Q44.8563,69.5313 43.5281,67.8906 Q42.2156,66.2344 42.2156,63.1094 Q42.2156,59.9844 43.5281,58.3281 Q44.8563,56.6719 47.3563,56.6719 Q48.0594,56.6719 48.7,56.8281 Q49.3563,56.9844 49.9188,57.2813 L49.9188,60 Q49.2938,59.4219 48.7,59.1563 Q48.1063,58.875 47.4813,58.875 Q46.1375,58.875 45.45,59.9531 Q44.7625,61.0156 44.7625,63.1094 Q44.7625,65.2031 45.45,66.2813 Q46.1375,67.3438 47.4813,67.3438 Q48.1063,67.3438 48.7,67.0781 Q49.2938,66.7969 49.9188,66.2188 L49.9188,68.9375 Z " fill="#000000"/><text fill="#000000" font-family="sans-serif" font-size="14" lengthAdjust="spacing" textLength="37" x="66.05" y="68.1436">Node</text><rect fill="#FFFFFF" height="15.9688" style="stroke:#181818;stroke-width:1.0;stroke-dasharray:2.0,2.0;" width="21" x="134" y="44.2969"/><text fill="#000000" font-family="sans-serif" font-size="12" font-style="italic" lengthAdjust="spacing" textLength="19" x="135" y="56.4355">K,V</text><line style="stroke:#181818;stroke-width:0.5;" x1="10" x2="151" y1="79.2969" y2="79.2969"/><polygon fill="none" points="20,88.9453,16,94.9453,24,94.9453" style="stroke:#1963A0;stroke-width:1.0;"/><text fill="#000000" font-family="sans-serif" font-size="14" lengthAdjust="spacing" textLength="55" x="29" y="96.292">int hash</text><polygon fill="none" points="20,105.2422,16,111.2422,24,111.2422" style="stroke:#1963A0;stroke-width:1.0;"/><text fill="#000000" font-family="sans-serif" font-size="14" lengthAdjust="spacing" textLength="37" x="29" y="112.5889">K key</text><polygon fill="none" points="20,121.5391,16,127.5391,24,127.5391" style="stroke:#1963A0;stroke-width:1.0;"/><text fill="#000000" font-family="sans-serif" font-size="14" lengthAdjust="spacing" textLength="49" x="29" y="128.8857">V value</text><polygon fill="none" points="20,137.8359,16,143.8359,24,143.8359" style="stroke:#1963A0;stroke-width:1.0;"/><text fill="#000000" font-family="sans-serif" font-size="14" lengthAdjust="spacing" textLength="117" x="29" y="145.1826">Node&lt;K,V&gt; next</text><line style="stroke:#181818;stroke-width:0.5;" x1="10" x2="151" y1="152.4844" y2="152.4844"/></g><!--class Entry--><g id="elem_Entry"><rect codeLine="10" fill="#F1F1F1" height="80.5938" id="Entry" rx="2.5" ry="2.5" style="stroke:#181818;stroke-width:0.5;" width="156" x="187.5" y="63.5969"/><ellipse cx="232.25" cy="79.5969" fill="#ADD1B2" rx="11" ry="11" style="stroke:#181818;stroke-width:1.0;"/><path d="M235.2188,85.2375 Q234.6406,85.5344 234,85.675 Q233.3594,85.8313 232.6563,85.8313 Q230.1563,85.8313 228.8281,84.1906 Q227.5156,82.5344 227.5156,79.4094 Q227.5156,76.2844 228.8281,74.6281 Q230.1563,72.9719 232.6563,72.9719 Q233.3594,72.9719 234,73.1281 Q234.6563,73.2844 235.2188,73.5813 L235.2188,76.3 Q234.5938,75.7219 234,75.4563 Q233.4063,75.175 232.7813,75.175 Q231.4375,75.175 230.75,76.2531 Q230.0625,77.3156 230.0625,79.4094 Q230.0625,81.5031 230.75,82.5813 Q231.4375,83.6438 232.7813,83.6438 Q233.4063,83.6438 234,83.3781 Q234.5938,83.0969 235.2188,82.5188 L235.2188,85.2375 Z " fill="#000000"/><text fill="#000000" font-family="sans-serif" font-size="14" lengthAdjust="spacing" textLength="35" x="252.75" y="84.4436">Entry</text><rect fill="#FFFFFF" height="15.9688" style="stroke:#181818;stroke-width:1.0;stroke-dasharray:2.0,2.0;" width="21" x="325.5" y="60.5969"/><text fill="#000000" font-family="sans-serif" font-size="12" font-style="italic" lengthAdjust="spacing" textLength="19" x="326.5" y="72.7355">K,V</text><line style="stroke:#181818;stroke-width:0.5;" x1="188.5" x2="342.5" y1="95.5969" y2="95.5969"/><polygon fill="none" points="198.5,105.2453,194.5,111.2453,202.5,111.2453" style="stroke:#1963A0;stroke-width:1.0;"/><text fill="#000000" font-family="sans-serif" font-size="14" lengthAdjust="spacing" textLength="130" x="207.5" y="112.592">Entry&lt;K,V&gt; before</text><polygon fill="none" points="198.5,121.5422,194.5,127.5422,202.5,127.5422" style="stroke:#1963A0;stroke-width:1.0;"/><text fill="#000000" font-family="sans-serif" font-size="14" lengthAdjust="spacing" textLength="116" x="207.5" y="128.8889">Entry&lt;K,V&gt; after</text><line style="stroke:#181818;stroke-width:0.5;" x1="188.5" x2="342.5" y1="136.1906" y2="136.1906"/></g><!--reverse link Node to Entry--><g id="link_Node_Entry"><path codeLine="15" d="M173.4,103.8969 C178.03,103.8969 182.67,103.8969 187.3,103.8969 " fill="none" id="Node-backto-Entry" style="stroke:#181818;stroke-width:1.0;"/><polygon fill="none" points="173.4,110.8969,153.4,103.8969,173.4,96.8969,173.4,110.8969" style="stroke:#181818;stroke-width:1.0;"/></g><!--SRC=[AyaioKbLyCdCo_P8BCxmJInGTiqhAQhauahEIImkLl3BJqcryTO9irEevkAiKyZCAr780Ae3iRqLibChGOmmXRB4dD9K41EXF2-reeIh5cOCs4maSv3uIQbf-KMfQ8A9QIMfHI3jO345tHpT6ZkmuG00]--></g></svg>