<?xml version="1.0" encoding="us-ascii" standalone="no"?><svg xmlns="http://www.w3.org/2000/svg" xmlns:xlink="http://www.w3.org/1999/xlink" contentStyleType="text/css" height="253px" preserveAspectRatio="none" style="width:984px;height:253px;background:#FFFFFF;" version="1.1" viewBox="0 0 984 253" width="984px" zoomAndPan="magnify"><defs/><g><text fill="#000000" font-family="Consolas" font-size="14" font-weight="bold" lengthAdjust="spacing" textLength="140" x="417.75" y="27.9951">&#36807;&#28388;&#33258;&#21160;&#37197;&#32622;&#28041;&#21450;&#30340;&#31867;</text><!--class AutoConfigurationImportFilter--><g id="elem_AutoConfigurationImportFilter"><rect codeLine="6" fill="#FFFFFF" height="60.2969" id="AutoConfigurationImportFilter" rx="2.5" ry="2.5" style="stroke:#000000;stroke-width:1.0;" width="393" x="450" y="65.5969"/><ellipse cx="542.25" cy="79.5969" fill="#FFFFFF" rx="9" ry="9" style="stroke:#000000;stroke-width:1.0;"/><path d="M539.4219,76.175 L539.4219,74.3937 L545.5,74.3937 L545.5,76.175 L543.4688,76.175 L543.4688,82.8156 L545.5,82.8156 L545.5,84.5969 L539.4219,84.5969 L539.4219,82.8156 L541.4531,82.8156 L541.4531,76.175 L539.4219,76.175 Z " fill="#000000"/><text fill="#000000" font-family="Consolas" font-size="14" font-style="italic" lengthAdjust="spacing" textLength="201" x="559.75" y="84.4436">AutoConfigurationImportFilter</text><line style="stroke:#000000;stroke-width:1.0;" x1="451" x2="842" y1="93.5969" y2="93.5969"/><line style="stroke:#000000;stroke-width:1.0;" x1="451" x2="842" y1="101.5969" y2="101.5969"/><ellipse cx="461" cy="115.2453" fill="#FFFFFF" rx="3" ry="3" style="stroke:#000000;stroke-width:1.0;"/><text fill="#000000" font-family="Consolas" font-size="14" lengthAdjust="spacing" textLength="369" x="468" y="118.592">match(String[], AutoConfigurationMetadata) boolean[]</text></g><!--class ConfigurationClassFilter--><g id="elem_ConfigurationClassFilter"><rect codeLine="9" fill="#FFFFFF" height="92.8906" id="ConfigurationClassFilter" rx="2.5" ry="2.5" style="stroke:#000000;stroke-width:1.0;" width="403" x="12" y="49.2969"/><ellipse cx="128.75" cy="63.2969" fill="#FFFFFF" rx="9" ry="9" style="stroke:#000000;stroke-width:1.0;"/><path d="M131.1406,68 Q130.6563,68.25 130.125,68.375 Q129.6094,68.5 129.0313,68.5 Q126.9688,68.5 125.875,67.1406 Q124.7969,65.7813 124.7969,63.2031 Q124.7969,60.625 125.875,59.2656 Q126.9688,57.9063 129.0313,57.9063 Q129.6094,57.9063 130.1406,58.0313 Q130.6719,58.1563 131.1406,58.3906 L131.1406,60.6406 Q130.625,60.1563 130.125,59.9375 Q129.6406,59.7188 129.125,59.7188 Q128.0156,59.7188 127.4531,60.5938 Q126.8906,61.4688 126.8906,63.2031 Q126.8906,64.9219 127.4531,65.8125 Q128.0156,66.6875 129.125,66.6875 Q129.6406,66.6875 130.125,66.4688 Q130.625,66.2344 131.1406,65.7656 L131.1406,68 Z " fill="#000000"/><text fill="#000000" font-family="Consolas" font-size="14" lengthAdjust="spacing" textLength="162" x="146.25" y="68.1436">ConfigurationClassFilter</text><line style="stroke:#000000;stroke-width:1.0;" x1="13" x2="414" y1="77.2969" y2="77.2969"/><rect fill="none" height="6" style="stroke:#000000;stroke-width:1.0;" width="6" x="20" y="87.9453"/><text fill="#000000" font-family="Consolas" font-size="14" lengthAdjust="spacing" textLength="379" x="30" y="94.292">AutoConfigurationMetadata autoConfigurationMetadata</text><rect fill="none" height="6" style="stroke:#000000;stroke-width:1.0;" width="6" x="20" y="104.2422"/><text fill="#000000" font-family="Consolas" font-size="14" lengthAdjust="spacing" textLength="289" x="30" y="110.5889">List&lt;AutoConfigurationImportFilter&gt; filters</text><line style="stroke:#000000;stroke-width:1.0;" x1="13" x2="414" y1="117.8906" y2="117.8906"/><text fill="#000000" font-family="Consolas" font-size="14" lengthAdjust="spacing" textLength="217" x="18" y="134.8857">filter(List&lt;String&gt;) List&lt;String&gt;</text></g><!--class OnBeanCondition--><g id="elem_OnBeanCondition"><rect fill="#FFFFFF" height="44" id="OnBeanCondition" rx="2.5" ry="2.5" style="stroke:#000000;stroke-width:1.0;" width="150" x="386.5" y="202.1869"/><ellipse cx="399.5" cy="216.1869" fill="#FFFFFF" rx="9" ry="9" style="stroke:#000000;stroke-width:1.0;"/><path d="M401.8906,220.89 Q401.4063,221.14 400.875,221.265 Q400.3594,221.39 399.7813,221.39 Q397.7188,221.39 396.625,220.0306 Q395.5469,218.6713 395.5469,216.0931 Q395.5469,213.515 396.625,212.1556 Q397.7188,210.7963 399.7813,210.7963 Q400.3594,210.7963 400.8906,210.9213 Q401.4219,211.0463 401.8906,211.2806 L401.8906,213.5306 Q401.375,213.0463 400.875,212.8275 Q400.3906,212.6088 399.875,212.6088 Q398.7656,212.6088 398.2031,213.4838 Q397.6406,214.3588 397.6406,216.0931 Q397.6406,217.8119 398.2031,218.7025 Q398.7656,219.5775 399.875,219.5775 Q400.3906,219.5775 400.875,219.3588 Q401.375,219.1244 401.8906,218.6556 L401.8906,220.89 Z " fill="#000000"/><text fill="#000000" font-family="Consolas" font-size="14" lengthAdjust="spacing" textLength="122" x="411.5" y="221.0336">OnBeanCondition</text><line style="stroke:#000000;stroke-width:1.0;" x1="387.5" x2="535.5" y1="230.1869" y2="230.1869"/><line style="stroke:#000000;stroke-width:1.0;" x1="387.5" x2="535.5" y1="238.1869" y2="238.1869"/></g><!--class OnClassCondition--><g id="elem_OnClassCondition"><rect fill="#FFFFFF" height="44" id="OnClassCondition" rx="2.5" ry="2.5" style="stroke:#000000;stroke-width:1.0;" width="151" x="571" y="202.1869"/><ellipse cx="584" cy="216.1869" fill="#FFFFFF" rx="9" ry="9" style="stroke:#000000;stroke-width:1.0;"/><path d="M586.3906,220.89 Q585.9063,221.14 585.375,221.265 Q584.8594,221.39 584.2813,221.39 Q582.2188,221.39 581.125,220.0306 Q580.0469,218.6713 580.0469,216.0931 Q580.0469,213.515 581.125,212.1556 Q582.2188,210.7963 584.2813,210.7963 Q584.8594,210.7963 585.3906,210.9213 Q585.9219,211.0463 586.3906,211.2806 L586.3906,213.5306 Q585.875,213.0463 585.375,212.8275 Q584.8906,212.6088 584.375,212.6088 Q583.2656,212.6088 582.7031,213.4838 Q582.1406,214.3588 582.1406,216.0931 Q582.1406,217.8119 582.7031,218.7025 Q583.2656,219.5775 584.375,219.5775 Q584.8906,219.5775 585.375,219.3588 Q585.875,219.1244 586.3906,218.6556 L586.3906,220.89 Z " fill="#000000"/><text fill="#000000" font-family="Consolas" font-size="14" lengthAdjust="spacing" textLength="123" x="596" y="221.0336">OnClassCondition</text><line style="stroke:#000000;stroke-width:1.0;" x1="572" x2="721" y1="230.1869" y2="230.1869"/><line style="stroke:#000000;stroke-width:1.0;" x1="572" x2="721" y1="238.1869" y2="238.1869"/></g><!--class OnWebApplicationCondition--><g id="elem_OnWebApplicationCondition"><rect fill="#FFFFFF" height="44" id="OnWebApplicationCondition" rx="2.5" ry="2.5" style="stroke:#000000;stroke-width:1.0;" width="220" x="757.5" y="202.1869"/><ellipse cx="770.5" cy="216.1869" fill="#FFFFFF" rx="9" ry="9" style="stroke:#000000;stroke-width:1.0;"/><path d="M772.8906,220.89 Q772.4063,221.14 771.875,221.265 Q771.3594,221.39 770.7813,221.39 Q768.7188,221.39 767.625,220.0306 Q766.5469,218.6713 766.5469,216.0931 Q766.5469,213.515 767.625,212.1556 Q768.7188,210.7963 770.7813,210.7963 Q771.3594,210.7963 771.8906,210.9213 Q772.4219,211.0463 772.8906,211.2806 L772.8906,213.5306 Q772.375,213.0463 771.875,212.8275 Q771.3906,212.6088 770.875,212.6088 Q769.7656,212.6088 769.2031,213.4838 Q768.6406,214.3588 768.6406,216.0931 Q768.6406,217.8119 769.2031,218.7025 Q769.7656,219.5775 770.875,219.5775 Q771.3906,219.5775 771.875,219.3588 Q772.375,219.1244 772.8906,218.6556 L772.8906,220.89 Z " fill="#000000"/><text fill="#000000" font-family="Consolas" font-size="14" lengthAdjust="spacing" textLength="192" x="782.5" y="221.0336">OnWebApplicationCondition</text><line style="stroke:#000000;stroke-width:1.0;" x1="758.5" x2="976.5" y1="230.1869" y2="230.1869"/><line style="stroke:#000000;stroke-width:1.0;" x1="758.5" x2="976.5" y1="238.1869" y2="238.1869"/></g><!--reverse link ConfigurationClassFilter to AutoConfigurationImportFilter--><g id="link_ConfigurationClassFilter_AutoConfigurationImportFilter"><path codeLine="14" d="M429.15,95.7369 C435.94,95.7369 442.74,95.7369 449.53,95.7369 " fill="none" id="ConfigurationClassFilter-backto-AutoConfigurationImportFilter" style="stroke:#000000;stroke-width:1.0;"/><polygon fill="#000000" points="416.2,95.7369,422.2,99.7369,428.2,95.7369,422.2,91.7369,416.2,95.7369" style="stroke:#000000;stroke-width:1.0;"/></g><!--reverse link AutoConfigurationImportFilter to OnBeanCondition--><g id="link_AutoConfigurationImportFilter_OnBeanCondition"><path codeLine="16" d="M586.02,138.0769 C554.87,159.3669 518.2,184.4369 492.75,201.8269 " fill="none" id="AutoConfigurationImportFilter-backto-OnBeanCondition" style="stroke:#000000;stroke-width:1.0;"/><polygon fill="none" points="581.66,131.8969,602.13,126.3869,589.56,143.4569,581.66,131.8969" style="stroke:#000000;stroke-width:1.0;"/></g><!--reverse link AutoConfigurationImportFilter to OnClassCondition--><g id="link_AutoConfigurationImportFilter_OnClassCondition"><path codeLine="17" d="M646.5,147.2469 C646.5,166.3469 646.5,187.0569 646.5,202.0269 " fill="none" id="AutoConfigurationImportFilter-backto-OnClassCondition" style="stroke:#000000;stroke-width:1.0;"/><polygon fill="none" points="639.5,147.3869,646.5,127.3869,653.5,147.3869,639.5,147.3869" style="stroke:#000000;stroke-width:1.0;"/></g><!--reverse link AutoConfigurationImportFilter to OnWebApplicationCondition--><g id="link_AutoConfigurationImportFilter_OnWebApplicationCondition"><path codeLine="18" d="M716.42,136.7469 C754.12,158.3169 799.14,184.0769 830.17,201.8269 " fill="none" id="AutoConfigurationImportFilter-backto-OnWebApplicationCondition" style="stroke:#000000;stroke-width:1.0;"/><polygon fill="none" points="713.2,142.3969,699.31,126.3869,720.15,130.2469,713.2,142.3969" style="stroke:#000000;stroke-width:1.0;"/></g><!--SRC=[bP2zIWD158Nhp5DSkqJTGh2KXHW826gA51OXnStkR38uExFCt6tywPHWGEojBSH2i4aJnAT9Dhw5ixk54Tc4LFDppdVctDcX4Oyv91A5OlPIg0GDna2296zhHLrnnU7WS4KAUOIff8tYERhSbbPMIxIi28JbrtWnUrcEt-QJr-_xn-ppVJ5zc3zDikUxx6F6X29k8WmuD5FIZet4C3L8GgkJED66sa8w1ropsXx4IC6etYKZrB3Nt_-Fd77240aRCD1QSbIzFhjbWMjZuO-nbL_zHdlLKO1LIewT2aj7Qvlx41MhPRLoKo-OSWY_0QidrxMovQvdlFL_n5X77RkPdI4KkGXUwjtu6w1E-Sgsq0KVD9D4Yg0ikWtz0m00]--></g></svg>