<?xml version="1.0" encoding="us-ascii" standalone="no"?><svg xmlns="http://www.w3.org/2000/svg" xmlns:xlink="http://www.w3.org/1999/xlink" contentStyleType="text/css" height="467px" preserveAspectRatio="none" style="width:762px;height:467px;background:#FFFFFF;" version="1.1" viewBox="0 0 762 467" width="762px" zoomAndPan="magnify"><defs/><g><text fill="#000000" font-family="sans-serif" font-size="14" font-weight="bold" lengthAdjust="spacing" textLength="84" x="332.3218" y="22.9951">&#31867;&#21152;&#36733;&#23376;&#31995;&#32479;</text><!--cluster Class Loader System--><g id="cluster_Class Loader System"><path d="M124.6435,43.2969 L290.6435,43.2969 A3.75,3.75 0 0 1 293.1435,45.7969 L300.1435,65.5938 L648.6435,65.5938 A2.5,2.5 0 0 1 651.1435,68.0938 L651.1435,457.8369 A2.5,2.5 0 0 1 648.6435,460.3369 L124.6435,460.3369 A2.5,2.5 0 0 1 122.1435,457.8369 L122.1435,45.7969 A2.5,2.5 0 0 1 124.6435,43.2969 " fill="none" style="stroke:#000000;stroke-width:1.5;"/><line style="stroke:#000000;stroke-width:1.5;" x1="122.1435" x2="300.1435" y1="65.5938" y2="65.5938"/><text fill="#000000" font-family="sans-serif" font-size="14" font-weight="bold" lengthAdjust="spacing" textLength="165" x="126.1435" y="58.292">Class Loader System</text></g><!--cluster Loading--><g id="cluster_Loading"><rect fill="none" height="334.04" rx="2.5" ry="2.5" style="stroke:#181818;stroke-width:1.0;" width="175" x="444.1435" y="94.2969"/><path d="M516.1435,94.2969 L516.1435,103.5938 L506.1435,113.5938 L444.1435,113.5938 " fill="none" style="stroke:#181818;stroke-width:1.0;"/><text fill="#000000" font-family="sans-serif" font-size="14" font-weight="bold" lengthAdjust="spacing" textLength="62" x="447.1435" y="108.292">Loading</text></g><!--cluster Linking--><g id="cluster_Linking"><rect fill="none" height="318.04" rx="2.5" ry="2.5" style="stroke:#181818;stroke-width:1.0;" width="152" x="260.1435" y="102.2969"/><path d="M326.1435,102.2969 L326.1435,111.5938 L316.1435,121.5938 L260.1435,121.5938 " fill="none" style="stroke:#181818;stroke-width:1.0;"/><text fill="#000000" font-family="sans-serif" font-size="14" font-weight="bold" lengthAdjust="spacing" textLength="56" x="263.1435" y="116.292">Linking</text></g><!--entity i--><g id="elem_i"><rect fill="#F1F1F1" height="46.2969" rx="2.5" ry="2.5" style="stroke:#181818;stroke-width:0.5;" width="106" x="138.1435" y="358.0369"/><rect fill="#F1F1F1" height="10" style="stroke:#181818;stroke-width:0.5;" width="15" x="224.1435" y="363.0369"/><rect fill="#F1F1F1" height="2" style="stroke:#181818;stroke-width:0.5;" width="4" x="222.1435" y="365.0369"/><rect fill="#F1F1F1" height="2" style="stroke:#181818;stroke-width:0.5;" width="4" x="222.1435" y="369.0369"/><text fill="#000000" font-family="sans-serif" font-size="14" lengthAdjust="spacing" textLength="66" x="153.1435" y="391.032">Initializing</text></g><!--entity b--><g id="elem_b"><rect fill="#F1F1F1" height="46.2969" rx="2.5" ry="2.5" style="stroke:#181818;stroke-width:0.5;" width="108" x="487.1435" y="137.2969"/><rect fill="#F1F1F1" height="10" style="stroke:#181818;stroke-width:0.5;" width="15" x="575.1435" y="142.2969"/><rect fill="#F1F1F1" height="2" style="stroke:#181818;stroke-width:0.5;" width="4" x="573.1435" y="144.2969"/><rect fill="#F1F1F1" height="2" style="stroke:#181818;stroke-width:0.5;" width="4" x="573.1435" y="148.2969"/><text fill="#000000" font-family="sans-serif" font-size="14" lengthAdjust="spacing" textLength="68" x="502.1435" y="170.292">Bootstrap</text></g><!--entity e--><g id="elem_e"><rect fill="#F1F1F1" height="46.2969" rx="2.5" ry="2.5" style="stroke:#181818;stroke-width:0.5;" width="108" x="485.1435" y="243.5969"/><rect fill="#F1F1F1" height="10" style="stroke:#181818;stroke-width:0.5;" width="15" x="573.1435" y="248.5969"/><rect fill="#F1F1F1" height="2" style="stroke:#181818;stroke-width:0.5;" width="4" x="571.1435" y="250.5969"/><rect fill="#F1F1F1" height="2" style="stroke:#181818;stroke-width:0.5;" width="4" x="571.1435" y="254.5969"/><text fill="#000000" font-family="sans-serif" font-size="14" lengthAdjust="spacing" textLength="68" x="500.1435" y="276.592">Extension</text></g><!--entity a--><g id="elem_a"><rect fill="#F1F1F1" height="46.2969" rx="2.5" ry="2.5" style="stroke:#181818;stroke-width:0.5;" width="115" x="480.6435" y="358.0369"/><rect fill="#F1F1F1" height="10" style="stroke:#181818;stroke-width:0.5;" width="15" x="575.6435" y="363.0369"/><rect fill="#F1F1F1" height="2" style="stroke:#181818;stroke-width:0.5;" width="4" x="573.6435" y="365.0369"/><rect fill="#F1F1F1" height="2" style="stroke:#181818;stroke-width:0.5;" width="4" x="573.6435" y="369.0369"/><text fill="#000000" font-family="sans-serif" font-size="14" lengthAdjust="spacing" textLength="75" x="495.6435" y="391.032">Application</text></g><!--entity v--><g id="elem_v"><rect fill="#F1F1F1" height="46.2969" rx="2.5" ry="2.5" style="stroke:#181818;stroke-width:0.5;" width="115" x="279.6435" y="137.2969"/><rect fill="#F1F1F1" height="10" style="stroke:#181818;stroke-width:0.5;" width="15" x="374.6435" y="142.2969"/><rect fill="#F1F1F1" height="2" style="stroke:#181818;stroke-width:0.5;" width="4" x="372.6435" y="144.2969"/><rect fill="#F1F1F1" height="2" style="stroke:#181818;stroke-width:0.5;" width="4" x="372.6435" y="148.2969"/><text fill="#000000" font-family="sans-serif" font-size="14" lengthAdjust="spacing" textLength="75" x="294.6435" y="170.292">Verification</text></g><!--entity p--><g id="elem_p"><rect fill="#F1F1F1" height="46.2969" rx="2.5" ry="2.5" style="stroke:#181818;stroke-width:0.5;" width="119" x="276.6435" y="243.5969"/><rect fill="#F1F1F1" height="10" style="stroke:#181818;stroke-width:0.5;" width="15" x="375.6435" y="248.5969"/><rect fill="#F1F1F1" height="2" style="stroke:#181818;stroke-width:0.5;" width="4" x="373.6435" y="250.5969"/><rect fill="#F1F1F1" height="2" style="stroke:#181818;stroke-width:0.5;" width="4" x="373.6435" y="254.5969"/><text fill="#000000" font-family="sans-serif" font-size="14" lengthAdjust="spacing" textLength="79" x="291.6435" y="276.592">Preparation</text></g><!--entity r--><g id="elem_r"><rect fill="#F1F1F1" height="46.2969" rx="2.5" ry="2.5" style="stroke:#181818;stroke-width:0.5;" width="114" x="279.1435" y="358.0369"/><rect fill="#F1F1F1" height="10" style="stroke:#181818;stroke-width:0.5;" width="15" x="373.1435" y="363.0369"/><rect fill="#F1F1F1" height="2" style="stroke:#181818;stroke-width:0.5;" width="4" x="371.1435" y="365.0369"/><rect fill="#F1F1F1" height="2" style="stroke:#181818;stroke-width:0.5;" width="4" x="371.1435" y="369.0369"/><text fill="#000000" font-family="sans-serif" font-size="14" lengthAdjust="spacing" textLength="74" x="294.1435" y="391.032">Resolution</text></g><!--entity rda--><g id="elem_rda"><path d="M16.0645,358.496 C20.1662,352.3931 25.8235,351.5527 30.1378,358.2625 C33.6218,352.4352 37.9385,352.6319 42.2235,357.344 C45.8534,350.9835 52.6906,350.4146 56.268,357.3991 C59.9098,350.2654 65.9436,351.5375 69.4803,357.505 C74.0968,349.841 80.2751,351.8138 84.0412,358.3755 C88.3134,352.3906 92.6148,352.0134 97.0121,358.2425 C102.7497,360.4439 104.9154,364.4527 100.4778,369.7251 C106.7511,370.5766 110.2207,375.9804 105.4156,381.484 C109.3802,386.4204 107.0278,392.3175 101.0037,393.6238 C104.9158,399.7392 103.2826,404.2347 96.1215,405.9722 C92.3344,411.3196 88.2281,411.6162 84.2672,406.163 C80.398,413.5254 73.0979,412.7986 69.5725,405.811 C66.8486,411.7758 60.7661,413.3733 56.2892,407.8354 C51.746,414.8241 47.3882,414.8937 43.015,407.6765 C38.2382,414.5214 31.136,413.1759 28.5793,405.4734 C25.0817,411.5017 18.7248,411.7606 15.1501,405.5582 C9.9495,402.5807 9.1516,398.4086 14.4144,394.7209 C6.8,392.4585 6.2589,386.6736 10.9528,381.2486 C6,376.5488 8.8251,371.7534 14.1971,370.0429 C9.7759,365.8711 10.441,361.0435 16.0645,358.496 " fill="#F1F1F1" style="stroke:#181818;stroke-width:0.5;"/><text fill="#000000" font-family="sans-serif" font-size="14" lengthAdjust="spacing" textLength="58" x="21.6435" y="377.882">Runtime</text><text fill="#000000" font-family="sans-serif" font-size="14" lengthAdjust="spacing" textLength="67" x="21.6435" y="394.1789">Data Area</text></g><!--entity c--><g id="elem_c"><polygon fill="#F1F1F1" points="666.6435,368.0369,676.6435,358.0369,745.6435,358.0369,745.6435,394.3338,735.6435,404.3338,666.6435,404.3338,666.6435,368.0369" style="stroke:#181818;stroke-width:0.5;"/><line style="stroke:#181818;stroke-width:0.5;" x1="735.6435" x2="745.6435" y1="368.0369" y2="358.0369"/><line style="stroke:#181818;stroke-width:0.5;" x1="666.6435" x2="735.6435" y1="368.0369" y2="368.0369"/><line style="stroke:#181818;stroke-width:0.5;" x1="735.6435" x2="735.6435" y1="368.0369" y2="404.3338"/><text fill="#000000" font-family="sans-serif" font-size="14" lengthAdjust="spacing" textLength="39" x="681.6435" y="391.032">.class</text></g><!--reverse link e to a--><g id="link_e_a"><path d="M538.8935,295.9569 C538.7235,315.0669 538.5035,339.9769 538.3435,357.7469 " fill="none" id="e-backto-a" style="stroke:#181818;stroke-width:1.0;"/><polygon fill="#181818" points="538.9435,291.2269,534.8665,300.1923,538.9007,296.2267,542.8662,300.2608,538.9435,291.2269" style="stroke:#181818;stroke-width:1.0;"/></g><!--reverse link b to e--><g id="link_b_e"><path d="M540.5935,190.0369 C540.2735,206.7669 539.8735,227.5869 539.5735,243.1569 " fill="none" id="b-backto-e" style="stroke:#181818;stroke-width:1.0;"/><polygon fill="#181818" points="540.7135,185.0769,536.5598,194.007,540.6278,190.0761,544.5587,194.1441,540.7135,185.0769" style="stroke:#181818;stroke-width:1.0;"/></g><!--link v to p--><g id="link_v_p"><path d="M336.9235,184.0769 C336.7735,199.6569 336.5735,220.4769 336.4135,237.1969 " fill="none" id="v-to-p" style="stroke:#181818;stroke-width:1.0;"/><polygon fill="#181818" points="336.3635,242.1569,340.4661,233.2032,336.4207,237.1572,332.4666,233.1118,336.3635,242.1569" style="stroke:#181818;stroke-width:1.0;"/></g><!--link p to r--><g id="link_p_r"><path d="M336.1435,290.2269 C336.1435,307.9969 336.1435,332.9169 336.1435,352.0169 " fill="none" id="p-to-r" style="stroke:#181818;stroke-width:1.0;"/><polygon fill="#181818" points="336.1435,356.7469,340.1435,347.7469,336.1435,351.7469,332.1435,347.7469,336.1435,356.7469" style="stroke:#181818;stroke-width:1.0;"/></g><!--link r to i--><g id="link_r_i"><path d="M278.7935,381.1869 C269.2935,381.1869 259.7935,381.1869 250.3035,381.1869 " fill="none" id="r-to-i" style="stroke:#181818;stroke-width:1.0;"/><polygon fill="#181818" points="245.3835,381.1869,254.3835,385.1869,250.3835,381.1869,254.3835,377.1869,245.3835,381.1869" style="stroke:#181818;stroke-width:1.0;"/></g><!--link c to a--><g id="link_c_a"><path d="M666.5235,381.1869 C644.9135,381.1869 623.3035,381.1869 601.6835,381.1869 " fill="none" id="c-to-a" style="stroke:#181818;stroke-width:1.0;"/><polygon fill="#181818" points="596.8935,381.1869,605.8935,385.1869,601.8935,381.1869,605.8935,377.1869,596.8935,381.1869" style="stroke:#181818;stroke-width:1.0;"/></g><!--link Loading to v--><g id="link_Loading_v"><path d="M443.9468,160.4469 C443.8806,160.4469 443.8144,160.4469 443.7482,160.4469 C443.2185,160.4469 442.6888,160.4469 442.1591,160.4469 C441.0998,160.4469 440.0404,160.4469 438.981,160.4469 C434.7435,160.4469 430.506,160.4469 426.2685,160.4469 C417.7935,160.4469 409.3185,160.4469 400.8435,160.4469 " fill="none" id="Loading-to-v" style="stroke:#181818;stroke-width:1.0;"/><polygon fill="#181818" points="396.0935,160.4469,405.0935,164.4469,401.0935,160.4469,405.0935,156.4469,396.0935,160.4469" style="stroke:#181818;stroke-width:1.0;"/></g><!--reverse link rda to i--><g id="link_rda_i"><path d="M109.8135,381.1869 C119.1135,381.1869 128.4135,381.1869 137.7135,381.1869 " fill="none" id="rda-backto-i" style="stroke:#181818;stroke-width:1.0;"/><polygon fill="#181818" points="105.0135,381.1869,114.0021,385.2126,110.0135,381.2012,114.0249,377.2126,105.0135,381.1869" style="stroke:#181818;stroke-width:1.0;"/></g><!--SRC=[JP0zJWCn48NhzIb6soz7G0e_1H852X9De1Xi9nh5iQsnTyMFSW4gRW0Ne42KgnmdMew1xLKsk1f_yzwyqKIAHiFmtU_VFdztk_tN-_3J3_s7i4vfg4-amH1gm01IU9HhN2LwdY5SErIQuVOvHBsfuLLKebeoRdJfa5rbL2tEd8iXClg7FEKneykdg6qWPmlI6SsyDoGn7Y0cYD2qpMdfwx5CxkqKGdOzXTnffkL_VvVf3MkFV8G-mxaEphGJuyGwQ5IQdjj-BBagIOihIv7Gq4jAAd8I5KF3IK9YAwHnhO9wtjf8QQLxUu4HOSOQoybOOLelwTAJeml5uJZbsmb1q9YSgF0F]--></g></svg>