<?xml version="1.0" encoding="us-ascii" standalone="no"?><svg xmlns="http://www.w3.org/2000/svg" xmlns:xlink="http://www.w3.org/1999/xlink" contentStyleType="text/css" height="418px" preserveAspectRatio="none" style="width:849px;height:418px;background:#FFFFFF;" version="1.1" viewBox="0 0 849 418" width="849px" zoomAndPan="magnify"><defs/><g><text fill="#000000" font-family="sans-serif" font-size="14" font-weight="bold" lengthAdjust="spacing" textLength="251" x="292" y="22.9951">Java Collections Framework-List</text><!--class Iterable--><g id="elem_Iterable"><rect codeLine="2" fill="#F1F1F1" height="48" id="Iterable" rx="2.5" ry="2.5" style="stroke:#181818;stroke-width:0.5;" width="95" x="213.5" y="47.2969"/><ellipse cx="228.5" cy="63.2969" fill="#B4A7E5" rx="11" ry="11" style="stroke:#181818;stroke-width:1.0;"/><path d="M224.4219,59.0625 L224.4219,56.9063 L231.8125,56.9063 L231.8125,59.0625 L229.3438,59.0625 L229.3438,67.1406 L231.8125,67.1406 L231.8125,69.2969 L224.4219,69.2969 L224.4219,67.1406 L226.8906,67.1406 L226.8906,59.0625 L224.4219,59.0625 Z " fill="#000000"/><text fill="#000000" font-family="sans-serif" font-size="14" font-style="italic" lengthAdjust="spacing" textLength="51" x="242.5" y="68.1436">Iterable</text><rect fill="#FFFFFF" height="15.9688" style="stroke:#181818;stroke-width:1.0;stroke-dasharray:2.0,2.0;" width="10" x="301.5" y="44.2969"/><text fill="#000000" font-family="sans-serif" font-size="12" font-style="italic" lengthAdjust="spacing" textLength="8" x="302.5" y="56.4355">E</text><line style="stroke:#181818;stroke-width:0.5;" x1="214.5" x2="307.5" y1="79.2969" y2="79.2969"/><line style="stroke:#181818;stroke-width:0.5;" x1="214.5" x2="307.5" y1="87.2969" y2="87.2969"/></g><!--class Collection--><g id="elem_Collection"><rect codeLine="3" fill="#F1F1F1" height="48" id="Collection" rx="2.5" ry="2.5" style="stroke:#181818;stroke-width:0.5;" width="112" x="344" y="47.2969"/><ellipse cx="359" cy="63.2969" fill="#B4A7E5" rx="11" ry="11" style="stroke:#181818;stroke-width:1.0;"/><path d="M354.9219,59.0625 L354.9219,56.9063 L362.3125,56.9063 L362.3125,59.0625 L359.8438,59.0625 L359.8438,67.1406 L362.3125,67.1406 L362.3125,69.2969 L354.9219,69.2969 L354.9219,67.1406 L357.3906,67.1406 L357.3906,59.0625 L354.9219,59.0625 Z " fill="#000000"/><text fill="#000000" font-family="sans-serif" font-size="14" font-style="italic" lengthAdjust="spacing" textLength="68" x="373" y="68.1436">Collection</text><rect fill="#FFFFFF" height="15.9688" style="stroke:#181818;stroke-width:1.0;stroke-dasharray:2.0,2.0;" width="10" x="449" y="44.2969"/><text fill="#000000" font-family="sans-serif" font-size="12" font-style="italic" lengthAdjust="spacing" textLength="8" x="450" y="56.4355">E</text><line style="stroke:#181818;stroke-width:0.5;" x1="345" x2="455" y1="79.2969" y2="79.2969"/><line style="stroke:#181818;stroke-width:0.5;" x1="345" x2="455" y1="87.2969" y2="87.2969"/></g><!--class List--><g id="elem_List"><rect codeLine="4" fill="#F1F1F1" height="48" id="List" rx="2.5" ry="2.5" style="stroke:#181818;stroke-width:0.5;" width="67" x="366.5" y="155.2969"/><ellipse cx="381.5" cy="171.2969" fill="#B4A7E5" rx="11" ry="11" style="stroke:#181818;stroke-width:1.0;"/><path d="M377.4219,167.0625 L377.4219,164.9063 L384.8125,164.9063 L384.8125,167.0625 L382.3438,167.0625 L382.3438,175.1406 L384.8125,175.1406 L384.8125,177.2969 L377.4219,177.2969 L377.4219,175.1406 L379.8906,175.1406 L379.8906,167.0625 L377.4219,167.0625 Z " fill="#000000"/><text fill="#000000" font-family="sans-serif" font-size="14" font-style="italic" lengthAdjust="spacing" textLength="23" x="395.5" y="176.1436">List</text><rect fill="#FFFFFF" height="15.9688" style="stroke:#181818;stroke-width:1.0;stroke-dasharray:2.0,2.0;" width="10" x="426.5" y="152.2969"/><text fill="#000000" font-family="sans-serif" font-size="12" font-style="italic" lengthAdjust="spacing" textLength="8" x="427.5" y="164.4355">E</text><line style="stroke:#181818;stroke-width:0.5;" x1="367.5" x2="432.5" y1="187.2969" y2="187.2969"/><line style="stroke:#181818;stroke-width:0.5;" x1="367.5" x2="432.5" y1="195.2969" y2="195.2969"/></g><!--class ArrayList--><g id="elem_ArrayList"><rect codeLine="5" fill="#F1F1F1" height="48" id="ArrayList" rx="2.5" ry="2.5" style="stroke:#181818;stroke-width:0.5;" width="101" x="78.5" y="263.2969"/><ellipse cx="93.5" cy="279.2969" fill="#ADD1B2" rx="11" ry="11" style="stroke:#181818;stroke-width:1.0;"/><path d="M96.4688,284.9375 Q95.8906,285.2344 95.25,285.375 Q94.6094,285.5313 93.9063,285.5313 Q91.4063,285.5313 90.0781,283.8906 Q88.7656,282.2344 88.7656,279.1094 Q88.7656,275.9844 90.0781,274.3281 Q91.4063,272.6719 93.9063,272.6719 Q94.6094,272.6719 95.25,272.8281 Q95.9063,272.9844 96.4688,273.2813 L96.4688,276 Q95.8438,275.4219 95.25,275.1563 Q94.6563,274.875 94.0313,274.875 Q92.6875,274.875 92,275.9531 Q91.3125,277.0156 91.3125,279.1094 Q91.3125,281.2031 92,282.2813 Q92.6875,283.3438 94.0313,283.3438 Q94.6563,283.3438 95.25,283.0781 Q95.8438,282.7969 96.4688,282.2188 L96.4688,284.9375 Z " fill="#000000"/><text fill="#000000" font-family="sans-serif" font-size="14" lengthAdjust="spacing" textLength="57" x="107.5" y="284.1436">ArrayList</text><rect fill="#FFFFFF" height="15.9688" style="stroke:#181818;stroke-width:1.0;stroke-dasharray:2.0,2.0;" width="10" x="172.5" y="260.2969"/><text fill="#000000" font-family="sans-serif" font-size="12" font-style="italic" lengthAdjust="spacing" textLength="8" x="173.5" y="272.4355">E</text><line style="stroke:#181818;stroke-width:0.5;" x1="79.5" x2="178.5" y1="295.2969" y2="295.2969"/><line style="stroke:#181818;stroke-width:0.5;" x1="79.5" x2="178.5" y1="303.2969" y2="303.2969"/></g><!--class LinkedList--><g id="elem_LinkedList"><rect codeLine="6" fill="#F1F1F1" height="48" id="LinkedList" rx="2.5" ry="2.5" style="stroke:#181818;stroke-width:0.5;" width="112" x="247" y="263.2969"/><ellipse cx="262" cy="279.2969" fill="#ADD1B2" rx="11" ry="11" style="stroke:#181818;stroke-width:1.0;"/><path d="M264.9688,284.9375 Q264.3906,285.2344 263.75,285.375 Q263.1094,285.5313 262.4063,285.5313 Q259.9063,285.5313 258.5781,283.8906 Q257.2656,282.2344 257.2656,279.1094 Q257.2656,275.9844 258.5781,274.3281 Q259.9063,272.6719 262.4063,272.6719 Q263.1094,272.6719 263.75,272.8281 Q264.4063,272.9844 264.9688,273.2813 L264.9688,276 Q264.3438,275.4219 263.75,275.1563 Q263.1563,274.875 262.5313,274.875 Q261.1875,274.875 260.5,275.9531 Q259.8125,277.0156 259.8125,279.1094 Q259.8125,281.2031 260.5,282.2813 Q261.1875,283.3438 262.5313,283.3438 Q263.1563,283.3438 263.75,283.0781 Q264.3438,282.7969 264.9688,282.2188 L264.9688,284.9375 Z " fill="#000000"/><text fill="#000000" font-family="sans-serif" font-size="14" lengthAdjust="spacing" textLength="68" x="276" y="284.1436">LinkedList</text><rect fill="#FFFFFF" height="15.9688" style="stroke:#181818;stroke-width:1.0;stroke-dasharray:2.0,2.0;" width="10" x="352" y="260.2969"/><text fill="#000000" font-family="sans-serif" font-size="12" font-style="italic" lengthAdjust="spacing" textLength="8" x="353" y="272.4355">E</text><line style="stroke:#181818;stroke-width:0.5;" x1="248" x2="358" y1="295.2969" y2="295.2969"/><line style="stroke:#181818;stroke-width:0.5;" x1="248" x2="358" y1="303.2969" y2="303.2969"/></g><!--class CopyOnWriteArrayList--><g id="elem_CopyOnWriteArrayList"><rect codeLine="7" fill="#F1F1F1" height="48" id="CopyOnWriteArrayList" rx="2.5" ry="2.5" style="stroke:#181818;stroke-width:0.5;" width="191" x="402.5" y="263.2969"/><ellipse cx="417.5" cy="279.2969" fill="#ADD1B2" rx="11" ry="11" style="stroke:#181818;stroke-width:1.0;"/><path d="M420.4688,284.9375 Q419.8906,285.2344 419.25,285.375 Q418.6094,285.5313 417.9063,285.5313 Q415.4063,285.5313 414.0781,283.8906 Q412.7656,282.2344 412.7656,279.1094 Q412.7656,275.9844 414.0781,274.3281 Q415.4063,272.6719 417.9063,272.6719 Q418.6094,272.6719 419.25,272.8281 Q419.9063,272.9844 420.4688,273.2813 L420.4688,276 Q419.8438,275.4219 419.25,275.1563 Q418.6563,274.875 418.0313,274.875 Q416.6875,274.875 416,275.9531 Q415.3125,277.0156 415.3125,279.1094 Q415.3125,281.2031 416,282.2813 Q416.6875,283.3438 418.0313,283.3438 Q418.6563,283.3438 419.25,283.0781 Q419.8438,282.7969 420.4688,282.2188 L420.4688,284.9375 Z " fill="#000000"/><text fill="#000000" font-family="sans-serif" font-size="14" lengthAdjust="spacing" textLength="147" x="431.5" y="284.1436">CopyOnWriteArrayList</text><rect fill="#FFFFFF" height="15.9688" style="stroke:#181818;stroke-width:1.0;stroke-dasharray:2.0,2.0;" width="10" x="586.5" y="260.2969"/><text fill="#000000" font-family="sans-serif" font-size="12" font-style="italic" lengthAdjust="spacing" textLength="8" x="587.5" y="272.4355">E</text><line style="stroke:#181818;stroke-width:0.5;" x1="403.5" x2="592.5" y1="295.2969" y2="295.2969"/><line style="stroke:#181818;stroke-width:0.5;" x1="403.5" x2="592.5" y1="303.2969" y2="303.2969"/></g><!--class Vector--><g id="elem_Vector"><rect codeLine="8" fill="#F1F1F1" height="48" id="Vector" rx="2.5" ry="2.5" style="stroke:#181818;stroke-width:0.5;" width="89" x="553.5" y="155.2969"/><ellipse cx="568.5" cy="171.2969" fill="#ADD1B2" rx="11" ry="11" style="stroke:#181818;stroke-width:1.0;"/><path d="M571.4688,176.9375 Q570.8906,177.2344 570.25,177.375 Q569.6094,177.5313 568.9063,177.5313 Q566.4063,177.5313 565.0781,175.8906 Q563.7656,174.2344 563.7656,171.1094 Q563.7656,167.9844 565.0781,166.3281 Q566.4063,164.6719 568.9063,164.6719 Q569.6094,164.6719 570.25,164.8281 Q570.9063,164.9844 571.4688,165.2813 L571.4688,168 Q570.8438,167.4219 570.25,167.1563 Q569.6563,166.875 569.0313,166.875 Q567.6875,166.875 567,167.9531 Q566.3125,169.0156 566.3125,171.1094 Q566.3125,173.2031 567,174.2813 Q567.6875,175.3438 569.0313,175.3438 Q569.6563,175.3438 570.25,175.0781 Q570.8438,174.7969 571.4688,174.2188 L571.4688,176.9375 Z " fill="#000000"/><text fill="#000000" font-family="sans-serif" font-size="14" lengthAdjust="spacing" textLength="45" x="582.5" y="176.1436">Vector</text><rect fill="#FFFFFF" height="15.9688" style="stroke:#181818;stroke-width:1.0;stroke-dasharray:2.0,2.0;" width="10" x="635.5" y="152.2969"/><text fill="#000000" font-family="sans-serif" font-size="12" font-style="italic" lengthAdjust="spacing" textLength="8" x="636.5" y="164.4355">E</text><line style="stroke:#181818;stroke-width:0.5;" x1="554.5" x2="641.5" y1="187.2969" y2="187.2969"/><line style="stroke:#181818;stroke-width:0.5;" x1="554.5" x2="641.5" y1="195.2969" y2="195.2969"/></g><!--class Stack--><g id="elem_Stack"><rect codeLine="9" fill="#F1F1F1" height="48" id="Stack" rx="2.5" ry="2.5" style="stroke:#181818;stroke-width:0.5;" width="82" x="643" y="263.2969"/><ellipse cx="658" cy="279.2969" fill="#ADD1B2" rx="11" ry="11" style="stroke:#181818;stroke-width:1.0;"/><path d="M660.9688,284.9375 Q660.3906,285.2344 659.75,285.375 Q659.1094,285.5313 658.4063,285.5313 Q655.9063,285.5313 654.5781,283.8906 Q653.2656,282.2344 653.2656,279.1094 Q653.2656,275.9844 654.5781,274.3281 Q655.9063,272.6719 658.4063,272.6719 Q659.1094,272.6719 659.75,272.8281 Q660.4063,272.9844 660.9688,273.2813 L660.9688,276 Q660.3438,275.4219 659.75,275.1563 Q659.1563,274.875 658.5313,274.875 Q657.1875,274.875 656.5,275.9531 Q655.8125,277.0156 655.8125,279.1094 Q655.8125,281.2031 656.5,282.2813 Q657.1875,283.3438 658.5313,283.3438 Q659.1563,283.3438 659.75,283.0781 Q660.3438,282.7969 660.9688,282.2188 L660.9688,284.9375 Z " fill="#000000"/><text fill="#000000" font-family="sans-serif" font-size="14" lengthAdjust="spacing" textLength="38" x="672" y="284.1436">Stack</text><rect fill="#FFFFFF" height="15.9688" style="stroke:#181818;stroke-width:1.0;stroke-dasharray:2.0,2.0;" width="10" x="718" y="260.2969"/><text fill="#000000" font-family="sans-serif" font-size="12" font-style="italic" lengthAdjust="spacing" textLength="8" x="719" y="272.4355">E</text><line style="stroke:#181818;stroke-width:0.5;" x1="644" x2="724" y1="295.2969" y2="295.2969"/><line style="stroke:#181818;stroke-width:0.5;" x1="644" x2="724" y1="303.2969" y2="303.2969"/></g><g id="elem_GMN24"><path d="M6,371.2969 L6,411.5625 A0,0 0 0 0 6,411.5625 L178,411.5625 A0,0 0 0 0 178,411.5625 L178,381.2969 L168,371.2969 L103.08,371.2969 L120.51,311.7369 L95.08,371.2969 L6,371.2969 A0,0 0 0 0 6,371.2969 " fill="#FEFFDD" style="stroke:#181818;stroke-width:0.5;"/><path d="M168,371.2969 L168,381.2969 L178,381.2969 L168,371.2969 " fill="#FEFFDD" style="stroke:#181818;stroke-width:0.5;"/><text fill="#000000" font-family="sans-serif" font-size="13" lengthAdjust="spacing" textLength="143" x="12" y="388.3638">&#22522;&#20110;&#21160;&#24577;&#25968;&#32452;&#65292;&#33258;&#21160;&#25193;&#23481;</text><text fill="#000000" font-family="sans-serif" font-size="13" lengthAdjust="spacing" textLength="151" x="12" y="403.4966">&#32447;&#31243;&#19981;&#23433;&#20840;&#30340;&#65288;fast-fail&#65289;</text></g><g id="elem_GMN27"><path d="M213,371.2969 L213,411.5625 A0,0 0 0 0 213,411.5625 L385,411.5625 A0,0 0 0 0 385,411.5625 L385,381.2969 L375,371.2969 L303.77,371.2969 L302.08,311.7369 L295.77,371.2969 L213,371.2969 A0,0 0 0 0 213,371.2969 " fill="#FEFFDD" style="stroke:#181818;stroke-width:0.5;"/><path d="M375,371.2969 L375,381.2969 L385,381.2969 L375,371.2969 " fill="#FEFFDD" style="stroke:#181818;stroke-width:0.5;"/><text fill="#000000" font-family="sans-serif" font-size="13" lengthAdjust="spacing" textLength="78" x="219" y="388.3638">&#22522;&#20110;&#21452;&#21521;&#38142;&#34920;</text><text fill="#000000" font-family="sans-serif" font-size="13" lengthAdjust="spacing" textLength="151" x="219" y="403.4966">&#32447;&#31243;&#19981;&#23433;&#20840;&#30340;&#65288;fast-fail&#65289;</text></g><g id="elem_GMN30"><path d="M678,159.1669 L678,175.2969 L642.93,179.2969 L678,183.2969 L678,199.4325 A0,0 0 0 0 678,199.4325 L842,199.4325 A0,0 0 0 0 842,199.4325 L842,169.1669 L832,159.1669 L678,159.1669 A0,0 0 0 0 678,159.1669 " fill="#FEFFDD" style="stroke:#181818;stroke-width:0.5;"/><path d="M832,159.1669 L832,169.1669 L842,169.1669 L832,159.1669 " fill="#FEFFDD" style="stroke:#181818;stroke-width:0.5;"/><text fill="#000000" font-family="sans-serif" font-size="13" lengthAdjust="spacing" textLength="143" x="684" y="176.2338">&#22522;&#20110;&#21160;&#24577;&#25968;&#32452;&#65292;&#33258;&#21160;&#25193;&#23481;</text><text fill="#000000" font-family="sans-serif" font-size="13" lengthAdjust="spacing" textLength="130" x="684" y="191.3666">&#32447;&#31243;&#23433;&#20840;&#30340;&#65288;&#20869;&#32622;&#38145;&#65289;</text></g><g id="elem_GMN33"><path d="M420,378.8669 L420,403.9997 A0,0 0 0 0 420,403.9997 L584,403.9997 A0,0 0 0 0 584,403.9997 L584,388.8669 L574,378.8669 L505.53,378.8669 L498.92,311.7369 L497.53,378.8669 L420,378.8669 A0,0 0 0 0 420,378.8669 " fill="#FEFFDD" style="stroke:#181818;stroke-width:0.5;"/><path d="M574,378.8669 L574,388.8669 L584,388.8669 L574,378.8669 " fill="#FEFFDD" style="stroke:#181818;stroke-width:0.5;"/><text fill="#000000" font-family="sans-serif" font-size="13" lengthAdjust="spacing" textLength="143" x="426" y="395.9338">&#32447;&#31243;&#23433;&#20840;&#30340;&#65288;&#20889;&#26102;&#22797;&#21046;&#65289;</text></g><g id="elem_GMN36"><path d="M619.5,371.2969 L619.5,411.5625 A0,0 0 0 0 619.5,411.5625 L770.5,411.5625 A0,0 0 0 0 770.5,411.5625 L770.5,381.2969 L760.5,371.2969 L696.89,371.2969 L686.52,311.7369 L688.89,371.2969 L619.5,371.2969 A0,0 0 0 0 619.5,371.2969 " fill="#FEFFDD" style="stroke:#181818;stroke-width:0.5;"/><path d="M760.5,371.2969 L760.5,381.2969 L770.5,381.2969 L760.5,371.2969 " fill="#FEFFDD" style="stroke:#181818;stroke-width:0.5;"/><text fill="#000000" font-family="sans-serif" font-size="13" lengthAdjust="spacing" textLength="68" x="625.5" y="388.3638">&#32487;&#25215;Vector</text><text fill="#000000" font-family="sans-serif" font-size="13" lengthAdjust="spacing" textLength="130" x="625.5" y="403.4966">&#32447;&#31243;&#23433;&#20840;&#30340;&#65288;&#20869;&#32622;&#38145;&#65289;</text></g><!--reverse link Iterable to Collection--><g id="link_Iterable_Collection"><path codeLine="11" d="M329.51,71.2969 C334.24,71.2969 338.97,71.2969 343.7,71.2969 " fill="none" id="Iterable-backto-Collection" style="stroke:#181818;stroke-width:1.0;"/><polygon fill="none" points="329.78,78.2969,309.78,71.2969,329.78,64.2969,329.78,78.2969" style="stroke:#181818;stroke-width:1.0;"/></g><!--reverse link Collection to List--><g id="link_Collection_List"><path codeLine="12" d="M400,116.5369 C400,129.7869 400,143.7769 400,155.0969 " fill="none" id="Collection-backto-List" style="stroke:#181818;stroke-width:1.0;"/><polygon fill="none" points="393,116.5669,400,96.5669,407,116.5669,393,116.5669" style="stroke:#181818;stroke-width:1.0;"/></g><!--reverse link List to ArrayList--><g id="link_List_ArrayList"><path codeLine="13" d="M346.69,201.1569 C298.31,220.0769 227.47,247.7869 179.87,266.4069 " fill="none" id="List-backto-ArrayList" style="stroke:#181818;stroke-width:1.0;stroke-dasharray:7.0,7.0;"/><polygon fill="none" points="344.05,194.2769,365.23,193.5069,349.15,207.3169,344.05,194.2769" style="stroke:#181818;stroke-width:1.0;"/></g><!--reverse link List to LinkedList--><g id="link_List_LinkedList"><path codeLine="14" d="M364.79,218.7869 C351.2,233.6269 336.11,250.1269 324.24,263.0969 " fill="none" id="List-backto-LinkedList" style="stroke:#181818;stroke-width:1.0;stroke-dasharray:7.0,7.0;"/><polygon fill="none" points="359.05,214.5969,377.71,204.5669,369.38,224.0469,359.05,214.5969" style="stroke:#181818;stroke-width:1.0;"/></g><!--reverse link List to CopyOnWriteArrayList--><g id="link_List_CopyOnWriteArrayList"><path codeLine="15" d="M435.58,218.7869 C449.3,233.6269 464.55,250.1269 476.54,263.0969 " fill="none" id="List-backto-CopyOnWriteArrayList" style="stroke:#181818;stroke-width:1.0;stroke-dasharray:7.0,7.0;"/><polygon fill="none" points="430.94,223.9969,422.51,204.5669,441.22,214.4969,430.94,223.9969" style="stroke:#181818;stroke-width:1.0;"/></g><!--reverse link List to Vector--><g id="link_List_Vector"><path codeLine="16" d="M454.64,179.2969 C487.44,179.2969 520.25,179.2969 553.06,179.2969 " fill="none" id="List-backto-Vector" style="stroke:#181818;stroke-width:1.0;stroke-dasharray:7.0,7.0;"/><polygon fill="none" points="454.64,186.2969,434.64,179.2969,454.64,172.2969,454.64,186.2969" style="stroke:#181818;stroke-width:1.0;"/></g><!--reverse link Vector to Stack--><g id="link_Vector_Stack"><path codeLine="17" d="M629.99,219.7369 C641.83,234.3269 654.87,250.3969 665.17,263.0969 " fill="none" id="Vector-backto-Stack" style="stroke:#181818;stroke-width:1.0;"/><polygon fill="none" points="624.04,224.5069,616.87,204.5669,634.91,215.6869,624.04,224.5069" style="stroke:#181818;stroke-width:1.0;"/></g><!--SRC=[bP3FIiD04CRlUOfvWVG1YXIaA2W53u9Ul6pZHfTkixBPAWKF5gmssle75T6B28BHG_1KjAtsPRf9U-ehc3GbIIMWtdQ_cU-RtumWWc9OHhi8yenIh0d231CMEIhZFSPBQe6OGY66m5n76eOb_u6A5Cyjv19gR9tL0tEWQ1IP9inpZggpKe4O9Rmvg-NPJdN5MET4u1J7cZ-7yVY_Af1M2hvA304gLVTp4QiI981Q2RIuIOd28LF9-AN9fZ5GKar3IjP3ACZGI9bWJMU6LKKncC1GP4AmCZ0zFWTaGJvq1fqpUMAx1pNtvith7evxpU7nQw1OBzBvs32yJj-pJmVlBUbOicvxztvBGqUcK7L4wBXd_SnFh18DE6_AYylHrTVmqVvp8YTRso88d6xv3zfai3ogUv_EwBgMWffwtooaXTovjstvr9ADTafEU7NVs7rshNx8-nlBDm00]--></g></svg>