<?xml version="1.0" encoding="us-ascii" standalone="no"?><svg xmlns="http://www.w3.org/2000/svg" xmlns:xlink="http://www.w3.org/1999/xlink" contentStyleType="text/css" height="607px" preserveAspectRatio="none" style="width:1924px;height:607px;background:#FFFFFF;" version="1.1" viewBox="0 0 1924 607" width="1924px" zoomAndPan="magnify"><defs/><g><text fill="#000000" font-family="Consolas" font-size="14" font-weight="bold" lengthAdjust="spacing" textLength="436" x="739.75" y="27.9951">RequestMappingHandlerAdapter#handleInternal&#28041;&#21450;&#30340;&#31867;</text><!--class RequestMappingHandlerAdapter--><g id="elem_RequestMappingHandlerAdapter"><rect codeLine="6" fill="#FFFFFF" height="109.1875" id="RequestMappingHandlerAdapter" rx="2.5" ry="2.5" style="stroke:#000000;stroke-width:1.0;" width="694" x="14" y="355.0769"/><ellipse cx="244.75" cy="369.0769" fill="#FFFFFF" rx="9" ry="9" style="stroke:#000000;stroke-width:1.0;"/><path d="M247.1406,373.78 Q246.6563,374.03 246.125,374.155 Q245.6094,374.28 245.0313,374.28 Q242.9688,374.28 241.875,372.9206 Q240.7969,371.5613 240.7969,368.9831 Q240.7969,366.405 241.875,365.0456 Q242.9688,363.6863 245.0313,363.6863 Q245.6094,363.6863 246.1406,363.8113 Q246.6719,363.9363 247.1406,364.1706 L247.1406,366.4206 Q246.625,365.9363 246.125,365.7175 Q245.6406,365.4988 245.125,365.4988 Q244.0156,365.4988 243.4531,366.3738 Q242.8906,367.2488 242.8906,368.9831 Q242.8906,370.7019 243.4531,371.5925 Q244.0156,372.4675 245.125,372.4675 Q245.6406,372.4675 246.125,372.2488 Q246.625,372.0144 247.1406,371.5456 L247.1406,373.78 Z " fill="#000000"/><text fill="#000000" font-family="Consolas" font-size="14" lengthAdjust="spacing" textLength="225" x="262.25" y="373.9236">RequestMappingHandlerAdapter</text><line style="stroke:#000000;stroke-width:1.0;" x1="15" x2="707" y1="383.0769" y2="383.0769"/><rect fill="none" height="6" style="stroke:#000000;stroke-width:1.0;" width="6" x="22" y="393.7253"/><text fill="#000000" font-family="Consolas" font-size="14" lengthAdjust="spacing" textLength="448" x="32" y="400.072">HandlerMethodArgumentResolverComposite argumentResolvers</text><rect fill="none" height="6" style="stroke:#000000;stroke-width:1.0;" width="6" x="22" y="410.0222"/><text fill="#000000" font-family="Consolas" font-size="14" lengthAdjust="spacing" textLength="464" x="32" y="416.3689">HandlerMethodReturnValueHandlerComposite returnValueHandlers</text><line style="stroke:#000000;stroke-width:1.0;" x1="15" x2="707" y1="423.6706" y2="423.6706"/><polygon fill="#FFFFFF" points="25,433.3191,21,439.3191,29,439.3191" style="stroke:#000000;stroke-width:1.0;"/><text fill="#000000" font-family="Consolas" font-size="14" lengthAdjust="spacing" textLength="670" x="32" y="440.6657">invokeHandlerMethod(HttpServletRequest, HttpServletResponse, HandlerMethod) ModelAndView</text><polygon fill="#FFFFFF" points="25,449.6159,21,455.6159,29,455.6159" style="stroke:#000000;stroke-width:1.0;"/><text fill="#000000" font-family="Consolas" font-size="14" lengthAdjust="spacing" textLength="553" x="32" y="456.9626">createInvocableHandlerMethod(HandlerMethod) ServletInvocableHandlerMethod</text></g><!--class HandlerMethod--><g id="elem_HandlerMethod"><rect codeLine="13" fill="#FFFFFF" height="92.8906" id="HandlerMethod" rx="2.5" ry="2.5" style="stroke:#000000;stroke-width:1.0;" width="241" x="910.5" y="49.2969"/><ellipse cx="974.25" cy="63.2969" fill="#FFFFFF" rx="9" ry="9" style="stroke:#000000;stroke-width:1.0;"/><path d="M976.6406,68 Q976.1563,68.25 975.625,68.375 Q975.1094,68.5 974.5313,68.5 Q972.4688,68.5 971.375,67.1406 Q970.2969,65.7813 970.2969,63.2031 Q970.2969,60.625 971.375,59.2656 Q972.4688,57.9063 974.5313,57.9063 Q975.1094,57.9063 975.6406,58.0313 Q976.1719,58.1563 976.6406,58.3906 L976.6406,60.6406 Q976.125,60.1563 975.625,59.9375 Q975.1406,59.7188 974.625,59.7188 Q973.5156,59.7188 972.9531,60.5938 Q972.3906,61.4688 972.3906,63.2031 Q972.3906,64.9219 972.9531,65.8125 Q973.5156,66.6875 974.625,66.6875 Q975.1406,66.6875 975.625,66.4688 Q976.125,66.2344 976.6406,65.7656 L976.6406,68 Z " fill="#000000"/><text fill="#000000" font-family="Consolas" font-size="14" lengthAdjust="spacing" textLength="106" x="991.75" y="68.1436">HandlerMethod</text><line style="stroke:#000000;stroke-width:1.0;" x1="911.5" x2="1150.5" y1="77.2969" y2="77.2969"/><rect fill="none" height="6" style="stroke:#000000;stroke-width:1.0;" width="6" x="918.5" y="87.9453"/><text fill="#000000" font-family="Consolas" font-size="14" lengthAdjust="spacing" textLength="84" x="928.5" y="94.292">Object bean</text><rect fill="none" height="6" style="stroke:#000000;stroke-width:1.0;" width="6" x="918.5" y="104.2422"/><text fill="#000000" font-family="Consolas" font-size="14" lengthAdjust="spacing" textLength="111" x="928.5" y="110.5889">Method method</text><rect fill="none" height="6" style="stroke:#000000;stroke-width:1.0;" width="6" x="918.5" y="120.5391"/><text fill="#000000" font-family="Consolas" font-size="14" lengthAdjust="spacing" textLength="217" x="928.5" y="126.8857">MethodParameter[] parameters</text><line style="stroke:#000000;stroke-width:1.0;" x1="911.5" x2="1150.5" y1="134.1875" y2="134.1875"/></g><!--class InvocableHandlerMethod--><g id="elem_InvocableHandlerMethod"><rect codeLine="18" fill="#FFFFFF" height="92.8906" id="InvocableHandlerMethod" rx="2.5" ry="2.5" style="stroke:#000000;stroke-width:1.0;" width="582" x="734" y="202.1869"/><ellipse cx="935.75" cy="216.1869" fill="#FFFFFF" rx="9" ry="9" style="stroke:#000000;stroke-width:1.0;"/><path d="M938.1406,220.89 Q937.6563,221.14 937.125,221.265 Q936.6094,221.39 936.0313,221.39 Q933.9688,221.39 932.875,220.0306 Q931.7969,218.6712 931.7969,216.0931 Q931.7969,213.515 932.875,212.1556 Q933.9688,210.7962 936.0313,210.7962 Q936.6094,210.7962 937.1406,210.9212 Q937.6719,211.0462 938.1406,211.2806 L938.1406,213.5306 Q937.625,213.0462 937.125,212.8275 Q936.6406,212.6087 936.125,212.6087 Q935.0156,212.6087 934.4531,213.4837 Q933.8906,214.3587 933.8906,216.0931 Q933.8906,217.8119 934.4531,218.7025 Q935.0156,219.5775 936.125,219.5775 Q936.6406,219.5775 937.125,219.3587 Q937.625,219.1244 938.1406,218.6556 L938.1406,220.89 Z " fill="#000000"/><text fill="#000000" font-family="Consolas" font-size="14" lengthAdjust="spacing" textLength="171" x="953.25" y="221.0336">InvocableHandlerMethod</text><line style="stroke:#000000;stroke-width:1.0;" x1="735" x2="1315" y1="230.1869" y2="230.1869"/><rect fill="none" height="6" style="stroke:#000000;stroke-width:1.0;" width="6" x="742" y="240.8353"/><text fill="#000000" font-family="Consolas" font-size="14" lengthAdjust="spacing" textLength="376" x="752" y="247.182">HandlerMethodArgumentResolverComposite resolvers</text><line style="stroke:#000000;stroke-width:1.0;" x1="735" x2="1315" y1="254.4837" y2="254.4837"/><ellipse cx="745" cy="268.1322" fill="#FFFFFF" rx="3" ry="3" style="stroke:#000000;stroke-width:1.0;"/><text fill="#000000" font-family="Consolas" font-size="14" lengthAdjust="spacing" textLength="558" x="752" y="271.4789">invokeForRequest(NativeWebRequest, ModelAndViewContainer, Object...) Object</text><ellipse cx="745" cy="284.4291" fill="#FFFFFF" rx="3" ry="3" style="stroke:#000000;stroke-width:1.0;"/><text fill="#000000" font-family="Consolas" font-size="14" lengthAdjust="spacing" textLength="179" x="752" y="287.7757">doInvoke(Object...) Object</text></g><!--class ServletInvocableHandlerMethod--><g id="elem_ServletInvocableHandlerMethod"><rect codeLine="23" fill="#FFFFFF" height="76.5938" id="ServletInvocableHandlerMethod" rx="2.5" ry="2.5" style="stroke:#000000;stroke-width:1.0;" width="564" x="743" y="371.3769"/><ellipse cx="912.25" cy="385.3769" fill="#FFFFFF" rx="9" ry="9" style="stroke:#000000;stroke-width:1.0;"/><path d="M914.6406,390.08 Q914.1563,390.33 913.625,390.455 Q913.1094,390.58 912.5313,390.58 Q910.4688,390.58 909.375,389.2206 Q908.2969,387.8612 908.2969,385.2831 Q908.2969,382.705 909.375,381.3456 Q910.4688,379.9862 912.5313,379.9862 Q913.1094,379.9862 913.6406,380.1112 Q914.1719,380.2362 914.6406,380.4706 L914.6406,382.7206 Q914.125,382.2362 913.625,382.0175 Q913.1406,381.7987 912.625,381.7987 Q911.5156,381.7987 910.9531,382.6737 Q910.3906,383.5487 910.3906,385.2831 Q910.3906,387.0019 910.9531,387.8925 Q911.5156,388.7675 912.625,388.7675 Q913.1406,388.7675 913.625,388.5487 Q914.125,388.3144 914.6406,387.8456 L914.6406,390.08 Z " fill="#000000"/><text fill="#000000" font-family="Consolas" font-size="14" lengthAdjust="spacing" textLength="218" x="929.75" y="390.2236">ServletInvocableHandlerMethod</text><line style="stroke:#000000;stroke-width:1.0;" x1="744" x2="1306" y1="399.3769" y2="399.3769"/><rect fill="none" height="6" style="stroke:#000000;stroke-width:1.0;" width="6" x="751" y="410.0253"/><text fill="#000000" font-family="Consolas" font-size="14" lengthAdjust="spacing" textLength="464" x="761" y="416.372">HandlerMethodReturnValueHandlerComposite returnValueHandlers</text><line style="stroke:#000000;stroke-width:1.0;" x1="744" x2="1306" y1="423.6737" y2="423.6737"/><ellipse cx="754" cy="437.3222" fill="#FFFFFF" rx="3" ry="3" style="stroke:#000000;stroke-width:1.0;"/><text fill="#000000" font-family="Consolas" font-size="14" lengthAdjust="spacing" textLength="540" x="761" y="440.6689">invokeAndHandle(ServletWebRequest, ModelAndViewContainer, Object...) void</text></g><!--class HandlerMethodArgumentResolverComposite--><g id="elem_HandlerMethodArgumentResolverComposite"><rect codeLine="28" fill="#FFFFFF" height="60.2969" id="HandlerMethodArgumentResolverComposite" rx="2.5" ry="2.5" style="stroke:#000000;stroke-width:1.0;" width="444" x="250" y="218.4769"/><ellipse cx="313.75" cy="232.4769" fill="#FFFFFF" rx="9" ry="9" style="stroke:#000000;stroke-width:1.0;"/><path d="M316.1406,237.18 Q315.6563,237.43 315.125,237.555 Q314.6094,237.68 314.0313,237.68 Q311.9688,237.68 310.875,236.3206 Q309.7969,234.9612 309.7969,232.3831 Q309.7969,229.805 310.875,228.4456 Q311.9688,227.0862 314.0313,227.0862 Q314.6094,227.0862 315.1406,227.2112 Q315.6719,227.3362 316.1406,227.5706 L316.1406,229.8206 Q315.625,229.3362 315.125,229.1175 Q314.6406,228.8987 314.125,228.8987 Q313.0156,228.8987 312.4531,229.7737 Q311.8906,230.6487 311.8906,232.3831 Q311.8906,234.1019 312.4531,234.9925 Q313.0156,235.8675 314.125,235.8675 Q314.6406,235.8675 315.125,235.6487 Q315.625,235.4144 316.1406,234.9456 L316.1406,237.18 Z " fill="#000000"/><text fill="#000000" font-family="Consolas" font-size="14" lengthAdjust="spacing" textLength="309" x="331.25" y="237.3236">HandlerMethodArgumentResolverComposite</text><line style="stroke:#000000;stroke-width:1.0;" x1="251" x2="693" y1="246.4769" y2="246.4769"/><rect fill="none" height="6" style="stroke:#000000;stroke-width:1.0;" width="6" x="258" y="257.1253"/><text fill="#000000" font-family="Consolas" font-size="14" lengthAdjust="spacing" textLength="420" x="268" y="263.472">List&lt;HandlerMethodArgumentResolver&gt; argumentResolvers</text><line style="stroke:#000000;stroke-width:1.0;" x1="251" x2="693" y1="270.7737" y2="270.7737"/></g><!--class HandlerMethodArgumentResolver--><g id="elem_HandlerMethodArgumentResolver"><rect codeLine="31" fill="#FFFFFF" height="76.5938" id="HandlerMethodArgumentResolver" rx="2.5" ry="2.5" style="stroke:#000000;stroke-width:1.0;" width="807" x="68.5" y="57.4469"/><ellipse cx="351.25" cy="71.4469" fill="#FFFFFF" rx="9" ry="9" style="stroke:#000000;stroke-width:1.0;"/><path d="M348.4219,68.025 L348.4219,66.2437 L354.5,66.2437 L354.5,68.025 L352.4688,68.025 L352.4688,74.6656 L354.5,74.6656 L354.5,76.4469 L348.4219,76.4469 L348.4219,74.6656 L350.4531,74.6656 L350.4531,68.025 L348.4219,68.025 Z " fill="#000000"/><text fill="#000000" font-family="Consolas" font-size="14" font-style="italic" lengthAdjust="spacing" textLength="234" x="368.75" y="76.2936">HandlerMethodArgumentResolver</text><line style="stroke:#000000;stroke-width:1.0;" x1="69.5" x2="874.5" y1="85.4469" y2="85.4469"/><line style="stroke:#000000;stroke-width:1.0;" x1="69.5" x2="874.5" y1="93.4469" y2="93.4469"/><ellipse cx="79.5" cy="107.0953" fill="#FFFFFF" rx="3" ry="3" style="stroke:#000000;stroke-width:1.0;"/><text fill="#000000" font-family="Consolas" font-size="14" lengthAdjust="spacing" textLength="327" x="86.5" y="110.442">supportsParameter(MethodParameter) boolean</text><ellipse cx="79.5" cy="123.3922" fill="#FFFFFF" rx="3" ry="3" style="stroke:#000000;stroke-width:1.0;"/><text fill="#000000" font-family="Consolas" font-size="14" lengthAdjust="spacing" textLength="783" x="86.5" y="126.7389">resolveArgument(MethodParameter, ModelAndViewContainer, NativeWebRequest, WebDataBinderFactory) Object</text></g><!--class HandlerMethodReturnValueHandlerComposite--><g id="elem_HandlerMethodReturnValueHandlerComposite"><rect codeLine="35" fill="#FFFFFF" height="60.2969" id="HandlerMethodReturnValueHandlerComposite" rx="2.5" ry="2.5" style="stroke:#000000;stroke-width:1.0;" width="460" x="1342" y="379.5169"/><ellipse cx="1408.75" cy="393.5169" fill="#FFFFFF" rx="9" ry="9" style="stroke:#000000;stroke-width:1.0;"/><path d="M1411.1406,398.22 Q1410.6563,398.47 1410.125,398.595 Q1409.6094,398.72 1409.0313,398.72 Q1406.9688,398.72 1405.875,397.3606 Q1404.7969,396.0012 1404.7969,393.4231 Q1404.7969,390.845 1405.875,389.4856 Q1406.9688,388.1262 1409.0313,388.1262 Q1409.6094,388.1262 1410.1406,388.2512 Q1410.6719,388.3762 1411.1406,388.6106 L1411.1406,390.8606 Q1410.625,390.3762 1410.125,390.1575 Q1409.6406,389.9387 1409.125,389.9387 Q1408.0156,389.9387 1407.4531,390.8137 Q1406.8906,391.6887 1406.8906,393.4231 Q1406.8906,395.1419 1407.4531,396.0325 Q1408.0156,396.9075 1409.125,396.9075 Q1409.6406,396.9075 1410.125,396.6887 Q1410.625,396.4544 1411.1406,395.9856 L1411.1406,398.22 Z " fill="#000000"/><text fill="#000000" font-family="Consolas" font-size="14" lengthAdjust="spacing" textLength="319" x="1426.25" y="398.3636">HandlerMethodReturnValueHandlerComposite</text><line style="stroke:#000000;stroke-width:1.0;" x1="1343" x2="1801" y1="407.5169" y2="407.5169"/><rect fill="none" height="6" style="stroke:#000000;stroke-width:1.0;" width="6" x="1350" y="418.1653"/><text fill="#000000" font-family="Consolas" font-size="14" lengthAdjust="spacing" textLength="436" x="1360" y="424.512">List&lt;HandlerMethodReturnValueHandler&gt; returnValueHandlers</text><line style="stroke:#000000;stroke-width:1.0;" x1="1343" x2="1801" y1="431.8137" y2="431.8137"/></g><!--class HandlerMethodReturnValueHandler--><g id="elem_HandlerMethodReturnValueHandler"><rect codeLine="38" fill="#FFFFFF" height="76.5938" id="HandlerMethodReturnValueHandler" rx="2.5" ry="2.5" style="stroke:#000000;stroke-width:1.0;" width="691" x="1226.5" y="524.2669"/><ellipse cx="1446.25" cy="538.2669" fill="#FFFFFF" rx="9" ry="9" style="stroke:#000000;stroke-width:1.0;"/><path d="M1443.4219,534.845 L1443.4219,533.0637 L1449.5,533.0637 L1449.5,534.845 L1447.4688,534.845 L1447.4688,541.4856 L1449.5,541.4856 L1449.5,543.2669 L1443.4219,543.2669 L1443.4219,541.4856 L1445.4531,541.4856 L1445.4531,534.845 L1443.4219,534.845 Z " fill="#000000"/><text fill="#000000" font-family="Consolas" font-size="14" font-style="italic" lengthAdjust="spacing" textLength="244" x="1463.75" y="543.1136">HandlerMethodReturnValueHandler</text><line style="stroke:#000000;stroke-width:1.0;" x1="1227.5" x2="1916.5" y1="552.2669" y2="552.2669"/><line style="stroke:#000000;stroke-width:1.0;" x1="1227.5" x2="1916.5" y1="560.2669" y2="560.2669"/><ellipse cx="1237.5" cy="573.9153" fill="#FFFFFF" rx="3" ry="3" style="stroke:#000000;stroke-width:1.0;"/><text fill="#000000" font-family="Consolas" font-size="14" lengthAdjust="spacing" textLength="337" x="1244.5" y="577.262">supportsReturnType(MethodParameter) boolean</text><ellipse cx="1237.5" cy="590.2122" fill="#FFFFFF" rx="3" ry="3" style="stroke:#000000;stroke-width:1.0;"/><text fill="#000000" font-family="Consolas" font-size="14" lengthAdjust="spacing" textLength="667" x="1244.5" y="593.5589">handleReturnValue(Object, MethodParameter, ModelAndViewContainer, NativeWebRequest) void</text></g><!--link RequestMappingHandlerAdapter to ServletInvocableHandlerMethod--><g id="link_RequestMappingHandlerAdapter_ServletInvocableHandlerMethod"><path codeLine="43" d="M708.24,409.6669 C717.72,409.6669 727.19,409.6669 736.67,409.6669 " fill="none" id="RequestMappingHandlerAdapter-to-ServletInvocableHandlerMethod" style="stroke:#000000;stroke-width:1.0;stroke-dasharray:7.0,7.0;"/><polygon fill="#000000" points="741.57,409.6669,732.57,405.6669,736.57,409.6669,732.57,413.6669,741.57,409.6669" style="stroke:#000000;stroke-width:1.0;"/></g><!--reverse link HandlerMethod to InvocableHandlerMethod--><g id="link_HandlerMethod_InvocableHandlerMethod"><path codeLine="45" d="M1028.36,163.1069 C1027.84,176.1869 1027.31,189.6269 1026.82,201.8469 " fill="none" id="HandlerMethod-backto-InvocableHandlerMethod" style="stroke:#000000;stroke-width:1.0;"/><polygon fill="none" points="1021.39,163.1269,1029.18,143.4169,1035.38,163.6869,1021.39,163.1269" style="stroke:#000000;stroke-width:1.0;"/></g><!--reverse link InvocableHandlerMethod to ServletInvocableHandlerMethod--><g id="link_InvocableHandlerMethod_ServletInvocableHandlerMethod"><path codeLine="46" d="M1025,316.1469 C1025,334.9269 1025,354.7069 1025,371.1369 " fill="none" id="InvocableHandlerMethod-backto-ServletInvocableHandlerMethod" style="stroke:#000000;stroke-width:1.0;"/><polygon fill="none" points="1018,316.2069,1025,296.2069,1032,316.2069,1018,316.2069" style="stroke:#000000;stroke-width:1.0;"/></g><!--reverse link ServletInvocableHandlerMethod to HandlerMethodReturnValueHandlerComposite--><g id="link_ServletInvocableHandlerMethod_HandlerMethodReturnValueHandlerComposite"><path codeLine="47" d="M1321.28,409.6669 C1328.08,409.6669 1334.89,409.6669 1341.69,409.6669 " fill="none" id="ServletInvocableHandlerMethod-backto-HandlerMethodReturnValueHandlerComposite" style="stroke:#000000;stroke-width:1.0;"/><polygon fill="#000000" points="1308.31,409.6669,1314.31,413.6669,1320.31,409.6669,1314.31,405.6669,1308.31,409.6669" style="stroke:#000000;stroke-width:1.0;"/><text fill="#000000" font-family="Consolas" font-size="14" lengthAdjust="spacing" textLength="9" x="1314.9284" y="406.4533">1</text><text fill="#000000" font-family="Consolas" font-size="14" lengthAdjust="spacing" textLength="9" x="1324.9853" y="406.4044">1</text></g><!--link HandlerMethodArgumentResolverComposite to InvocableHandlerMethod--><g id="link_HandlerMethodArgumentResolverComposite_InvocableHandlerMethod"><path codeLine="48" d="M694.5,248.6269 C702.94,248.6269 711.38,248.6269 719.82,248.6269 " fill="none" id="HandlerMethodArgumentResolverComposite-to-InvocableHandlerMethod" style="stroke:#000000;stroke-width:1.0;"/><polygon fill="#000000" points="732.55,248.6269,726.55,244.6269,720.55,248.6269,726.55,252.6269,732.55,248.6269" style="stroke:#000000;stroke-width:1.0;"/><text fill="#000000" font-family="Consolas" font-size="14" lengthAdjust="spacing" textLength="9" x="701.9484" y="245.3644">1</text><text fill="#000000" font-family="Consolas" font-size="14" lengthAdjust="spacing" textLength="9" x="716.6888" y="245.4133">1</text></g><!--link HandlerMethodArgumentResolver to HandlerMethodArgumentResolverComposite--><g id="link_HandlerMethodArgumentResolver_HandlerMethodArgumentResolverComposite"><path codeLine="50" d="M460.79,134.4269 C458.9,155.6169 458.75,182.1769 460.33,204.2369 " fill="none" id="HandlerMethodArgumentResolver-to-HandlerMethodArgumentResolverComposite" style="stroke:#000000;stroke-width:1.0;"/><polygon fill="#000000" points="461.62,216.9869,465.0421,210.6395,460.4991,205.0393,457.077,211.3867,461.62,216.9869" style="stroke:#000000;stroke-width:1.0;"/><text fill="#000000" font-family="Consolas" font-size="14" lengthAdjust="spacing" textLength="9" x="449.188" y="155.1785">n</text><text fill="#000000" font-family="Consolas" font-size="14" lengthAdjust="spacing" textLength="9" x="449.551" y="207.0434">1</text></g><!--reverse link HandlerMethodArgumentResolver to HandlerMethodArgumentResolverComposite--><g id="link_HandlerMethodArgumentResolver_HandlerMethodArgumentResolverComposite"><path codeLine="52" d="M485.2,155.3569 C485.98,176.7869 485.24,200.1369 482.99,217.9869 " fill="none" id="HandlerMethodArgumentResolver-backto-HandlerMethodArgumentResolverComposite" style="stroke:#000000;stroke-width:1.0;stroke-dasharray:7.0,7.0;"/><polygon fill="none" points="478.15,155.8269,483.87,135.4269,492.12,154.9469,478.15,155.8269" style="stroke:#000000;stroke-width:1.0;"/></g><!--reverse link HandlerMethodReturnValueHandlerComposite to HandlerMethodReturnValueHandler--><g id="link_HandlerMethodReturnValueHandlerComposite_HandlerMethodReturnValueHandler"><path codeLine="51" d="M1560.35,453.8869 C1558.75,475.9769 1558.9,502.6169 1560.79,523.8669 " fill="none" id="HandlerMethodReturnValueHandlerComposite-backto-HandlerMethodReturnValueHandler" style="stroke:#000000;stroke-width:1.0;"/><polygon fill="#000000" points="1561.65,441.1169,1557.107,446.717,1560.5291,453.0644,1565.0721,447.4643,1561.65,441.1169" style="stroke:#000000;stroke-width:1.0;"/><text fill="#000000" font-family="Consolas" font-size="14" lengthAdjust="spacing" textLength="9" x="1549.7264" y="460.7114">1</text><text fill="#000000" font-family="Consolas" font-size="14" lengthAdjust="spacing" textLength="9" x="1549.0898" y="512.8615">n</text></g><!--link HandlerMethodReturnValueHandlerComposite to HandlerMethodReturnValueHandler--><g id="link_HandlerMethodReturnValueHandlerComposite_HandlerMethodReturnValueHandler"><path codeLine="53" d="M1582.96,440.1169 C1585.25,458.0669 1585.99,481.6269 1585.19,503.2169 " fill="none" id="HandlerMethodReturnValueHandlerComposite-to-HandlerMethodReturnValueHandler" style="stroke:#000000;stroke-width:1.0;stroke-dasharray:7.0,7.0;"/><polygon fill="none" points="1592.13,503.3569,1583.87,522.8669,1578.16,502.4669,1592.13,503.3569" style="stroke:#000000;stroke-width:1.0;"/></g><!--SRC=[dLJDRXCn43xZfp3baf1afKeSKQHG5BKIAIX5vO0uU7UdZQbZ6tjsKO7sn0Kkt7aBBbnu7kXhuDrrVZRxawGtUyRVDpFVpFWXpc0EL0l69R5NN6fcs9mYHm5Z9V6CVm9w-6JD5SC5ImHkTPuontkaf5M2MP8JqYbyIC3YX6dDvUKnax40CugPHZ2FPldrHBgpPEBVxsz_Vto_-_drxjSV4ZaAsugcdyc30VMs2U1CnIDpcSn1uXHS2YcO8pNNod84oZOyjeAT0YP6dZEHWBUlqARYS_XRocMghg34qZb6r6TWKW7ea-_Jairg9n3qoy6xTA9Y42CPdtFuc7571XWwQL8LiL1i1YbZFNVzOt93l9WbSw7Uo_0zH4X3O3AxUjUy02uDhx96WvFyxJkg5sVhY0lU-hXxjSUisjBpiewLyG9sJXdo5Dv0k5HqNIqtSEX66KpVbnC4GTSVCxfOdUI4dQftKK6hW3M5x3qhYw9SoeMnuqFkLrIgU5C_cxNDqt_1BJvj1GnhTkI6y6mtBrW4xT6o83rg4wsLGRkSbyx6_7Hfg9J8XwstwFc2QlDjenxLQN3dvmpPCovZC6CMeJBNbHxltC06lQgGOMsl6pMh4fHLA_olhpMqobRycMjaVgxxzBu2hkQgzRiDJ33SyjMGXWqQ98Clmx8Qf7td2aH3c7RemU41VJmmW_omQzT9Avce8MjSE49sNCo2Et7SSWitsNbu2ywuXhEAsZNF80asktV_18EuGbPz_Xy0]--></g></svg>