<?xml version="1.0" encoding="us-ascii" standalone="no"?><svg xmlns="http://www.w3.org/2000/svg" xmlns:xlink="http://www.w3.org/1999/xlink" contentStyleType="text/css" height="1135px" preserveAspectRatio="none" style="width:1025px;height:1135px;background:#FFFFFF;" version="1.1" viewBox="0 0 1025 1135" width="1025px" zoomAndPan="magnify"><defs/><g><rect fill="none" height="1113.0625" style="stroke:#000000;stroke-width:1.5;" width="1003" x="11" y="11"/><path d="M255,11 L255,20.2969 L245,30.2969 L11,30.2969 " fill="none" style="stroke:#000000;stroke-width:1.5;"/><text fill="#000000" font-family="sans-serif" font-size="14" lengthAdjust="spacing" textLength="234" x="14" y="24.9951">AbstractBeanFactory#doGetBean</text><ellipse cx="705.6875" cy="50.2969" fill="#222222" rx="10" ry="10" style="stroke:#222222;stroke-width:1.0;"/><rect fill="#F1F1F1" height="33.9688" rx="12.5" ry="12.5" style="stroke:#181818;stroke-width:0.5;" width="108" x="651.6875" y="80.2969"/><text fill="#000000" font-family="sans-serif" font-size="12" lengthAdjust="spacing" textLength="84" x="665.6875" y="101.4355">&#36716;&#25442;&#20256;&#20837;&#30340;&#21517;&#31216;</text><rect fill="#F1F1F1" height="33.9688" rx="12.5" ry="12.5" style="stroke:#181818;stroke-width:0.5;" width="152" x="629.6875" y="134.2656"/><text fill="#000000" font-family="sans-serif" font-size="12" lengthAdjust="spacing" textLength="128" x="643.6875" y="155.4043">&#20174;&#21333;&#20363;&#32531;&#23384;&#20013;&#33719;&#21462;Bean</text><polygon fill="#F1F1F1" points="630.6875,188.2344,780.6875,188.2344,792.6875,200.2344,780.6875,212.2344,630.6875,212.2344,618.6875,200.2344,630.6875,188.2344" style="stroke:#181818;stroke-width:0.5;"/><text fill="#000000" font-family="sans-serif" font-size="11" lengthAdjust="spacing" textLength="150" x="630.6875" y="204.0425">&#21333;&#20363;&#32531;&#23384;&#20013;&#26159;&#21542;&#23384;&#22312;&#35813;Bean&#65311;</text><text fill="#000000" font-family="sans-serif" font-size="11" lengthAdjust="spacing" textLength="11" x="607.6875" y="197.6401">&#21542;</text><text fill="#000000" font-family="sans-serif" font-size="11" lengthAdjust="spacing" textLength="106" x="792.6875" y="197.6401">&#26159;&#65292;&#30452;&#25509;&#36820;&#22238;&#35813;Bean</text><polygon fill="#F1F1F1" points="382.375,222.2344,588.375,222.2344,600.375,235.0391,588.375,247.8438,382.375,247.8438,370.375,235.0391,382.375,222.2344" style="stroke:#181818;stroke-width:0.5;"/><text fill="#000000" font-family="sans-serif" font-size="11" lengthAdjust="spacing" textLength="206" x="382.375" y="232.4448">&#23384;&#22312;&#29238;BeanFactory&#19988;&#24403;&#21069;BeanFactory</text><text fill="#000000" font-family="sans-serif" font-size="11" lengthAdjust="spacing" textLength="137" x="382.375" y="245.2495">&#19981;&#21253;&#21547;&#35813;BeanDefinition&#65311;</text><text fill="#000000" font-family="sans-serif" font-size="11" lengthAdjust="spacing" textLength="11" x="359.375" y="232.4448">&#21542;</text><text fill="#000000" font-family="sans-serif" font-size="11" lengthAdjust="spacing" textLength="11" x="600.375" y="232.4448">&#26159;</text><rect fill="#F1F1F1" height="33.9688" rx="12.5" ry="12.5" style="stroke:#181818;stroke-width:0.5;" width="139" x="178.25" y="257.8438"/><text fill="#000000" font-family="sans-serif" font-size="12" lengthAdjust="spacing" textLength="115" x="192.25" y="278.9824">&#21512;&#24182;BeanDefinition</text><rect fill="#F1F1F1" height="33.9688" rx="12.5" ry="12.5" style="stroke:#181818;stroke-width:0.5;" width="84" x="205.75" y="311.8125"/><text fill="#000000" font-family="sans-serif" font-size="12" lengthAdjust="spacing" textLength="60" x="219.75" y="332.9512">&#26816;&#26597;&#20381;&#36182;&#39033;</text><rect fill="none" height="572.3438" style="stroke:#000000;stroke-width:1.5;" width="583" x="23" y="355.7813"/><path d="M268,355.7813 L268,365.0781 L258,375.0781 L23,375.0781 " fill="none" style="stroke:#000000;stroke-width:1.5;"/><text fill="#000000" font-family="sans-serif" font-size="14" lengthAdjust="spacing" textLength="235" x="26" y="369.7764">AbstractBeanFactory#createBean</text><rect fill="#F1F1F1" height="33.9688" rx="12.5" ry="12.5" style="stroke:#181818;stroke-width:0.5;" width="125" x="185.25" y="392.0781"/><text fill="#000000" font-family="sans-serif" font-size="12" lengthAdjust="spacing" textLength="101" x="199.25" y="413.2168">&#35299;&#26512;Bean&#30340;Class</text><rect fill="#F1F1F1" height="33.9688" rx="12.5" ry="12.5" style="stroke:#181818;stroke-width:0.5;" width="96" x="199.75" y="446.0469"/><text fill="#000000" font-family="sans-serif" font-size="12" lengthAdjust="spacing" textLength="72" x="213.75" y="467.1855">&#20934;&#22791;&#26041;&#27861;&#37325;&#20889;</text><rect fill="#F1F1F1" height="33.9688" rx="12.5" ry="12.5" style="stroke:#181818;stroke-width:0.5;" width="128" x="183.75" y="500.0156"/><text fill="#000000" font-family="sans-serif" font-size="12" lengthAdjust="spacing" textLength="104" x="197.75" y="521.1543">&#23454;&#20363;&#21270;&#21069;&#35299;&#26512;Bean</text><polygon fill="#F1F1F1" points="141.75,553.9844,353.75,553.9844,365.75,565.9844,353.75,577.9844,141.75,577.9844,129.75,565.9844,141.75,553.9844" style="stroke:#181818;stroke-width:0.5;"/><text fill="#000000" font-family="sans-serif" font-size="11" lengthAdjust="spacing" textLength="212" x="141.75" y="569.7925">&#23454;&#20363;&#21270;&#21069;&#35299;&#26512;Bean&#26159;&#21542;&#36820;&#22238;&#20102;Bean&#23454;&#20363;&#65311;</text><text fill="#000000" font-family="sans-serif" font-size="11" lengthAdjust="spacing" textLength="11" x="118.75" y="563.3901">&#26159;</text><text fill="#000000" font-family="sans-serif" font-size="11" lengthAdjust="spacing" textLength="11" x="365.75" y="563.3901">&#21542;</text><rect fill="#F1F1F1" height="33.9688" rx="12.5" ry="12.5" style="stroke:#181818;stroke-width:0.5;" width="140" x="35" y="587.9844"/><text fill="#000000" font-family="sans-serif" font-size="12" lengthAdjust="spacing" textLength="116" x="49" y="609.123">&#36820;&#22238;&#35299;&#26512;&#30340;Bean&#23454;&#20363;</text><rect fill="none" height="298.1406" style="stroke:#000000;stroke-width:1.5;" width="391" x="195" y="587.9844"/><path d="M576,587.9844 L576,597.2813 L566,607.2813 L195,607.2813 " fill="none" style="stroke:#000000;stroke-width:1.5;"/><text fill="#000000" font-family="sans-serif" font-size="14" lengthAdjust="spacing" textLength="371" x="198" y="601.9795">AbstractAutowireCapableBeanFactory#doCreateBean</text><rect fill="#F1F1F1" height="33.9688" rx="12.5" ry="12.5" style="stroke:#181818;stroke-width:0.5;" width="92" x="344.5" y="624.2813"/><text fill="#000000" font-family="sans-serif" font-size="12" lengthAdjust="spacing" textLength="68" x="358.5" y="645.4199">&#23454;&#20363;&#21270;Bean</text><rect fill="#F1F1F1" height="33.9688" rx="12.5" ry="12.5" style="stroke:#181818;stroke-width:0.5;" width="187" x="297" y="678.25"/><text fill="#000000" font-family="sans-serif" font-size="12" lengthAdjust="spacing" textLength="163" x="311" y="699.3887">&#21512;&#24182;BeanDefinition&#21518;&#32622;&#22788;&#29702;</text><rect fill="#F1F1F1" height="33.9688" rx="12.5" ry="12.5" style="stroke:#181818;stroke-width:0.5;" width="116" x="332.5" y="732.2188"/><text fill="#000000" font-family="sans-serif" font-size="12" lengthAdjust="spacing" textLength="92" x="346.5" y="753.3574">&#35774;&#32622;Bean&#30340;&#23646;&#24615;</text><rect fill="#F1F1F1" height="33.9688" rx="12.5" ry="12.5" style="stroke:#181818;stroke-width:0.5;" width="92" x="344.5" y="786.1875"/><text fill="#000000" font-family="sans-serif" font-size="12" lengthAdjust="spacing" textLength="68" x="358.5" y="807.3262">&#21021;&#22987;&#21270;Bean</text><rect fill="#F1F1F1" height="33.9688" rx="12.5" ry="12.5" style="stroke:#181818;stroke-width:0.5;" width="140" x="320.5" y="840.1563"/><text fill="#000000" font-family="sans-serif" font-size="12" lengthAdjust="spacing" textLength="116" x="334.5" y="861.2949">&#27880;&#20876;Bean&#30340;&#38144;&#27585;&#22238;&#35843;</text><polygon fill="#F1F1F1" points="247.75,892.125,259.75,904.125,247.75,916.125,235.75,904.125,247.75,892.125" style="stroke:#181818;stroke-width:0.5;"/><rect fill="#F1F1F1" height="33.9688" rx="12.5" ry="12.5" style="stroke:#181818;stroke-width:0.5;" width="152" x="171.75" y="948.125"/><text fill="#000000" font-family="sans-serif" font-size="12" lengthAdjust="spacing" textLength="128" x="185.75" y="969.2637">&#20174;Bean&#23454;&#20363;&#20013;&#33719;&#21462;&#23545;&#35937;</text><rect fill="#F1F1F1" height="33.9688" rx="12.5" ry="12.5" style="stroke:#181818;stroke-width:0.5;" width="194" x="626" y="257.8438"/><text fill="#000000" font-family="sans-serif" font-size="12" lengthAdjust="spacing" textLength="170" x="640" y="278.9824">&#20174;&#29238;BeanFactory&#20013;&#33719;&#21462;Bean</text><ellipse cx="723" cy="322.8125" fill="none" rx="11" ry="11" style="stroke:#222222;stroke-width:1.0;"/><ellipse cx="723" cy="322.8125" fill="#222222" rx="6" ry="6" style="stroke:#111111;stroke-width:1.0;"/><rect fill="#F1F1F1" height="33.9688" rx="12.5" ry="12.5" style="stroke:#181818;stroke-width:0.5;" width="152" x="850" y="222.2344"/><text fill="#000000" font-family="sans-serif" font-size="12" lengthAdjust="spacing" textLength="128" x="864" y="243.373">&#20174;Bean&#23454;&#20363;&#20013;&#33719;&#21462;&#23545;&#35937;</text><polygon fill="#F1F1F1" points="705.6875,992.0938,717.6875,1004.0938,705.6875,1016.0938,693.6875,1004.0938,705.6875,992.0938" style="stroke:#181818;stroke-width:0.5;"/><rect fill="#F1F1F1" height="33.9688" rx="12.5" ry="12.5" style="stroke:#181818;stroke-width:0.5;" width="140" x="635.6875" y="1036.0938"/><text fill="#000000" font-family="sans-serif" font-size="12" lengthAdjust="spacing" textLength="116" x="649.6875" y="1057.2324">&#36866;&#37197;Bean&#23454;&#20363;&#30340;&#31867;&#22411;</text><ellipse cx="705.6875" cy="1101.0625" fill="none" rx="11" ry="11" style="stroke:#222222;stroke-width:1.0;"/><ellipse cx="705.6875" cy="1101.0625" fill="#222222" rx="6" ry="6" style="stroke:#111111;stroke-width:1.0;"/><line style="stroke:#181818;stroke-width:1.0;" x1="705.6875" x2="705.6875" y1="60.2969" y2="80.2969"/><polygon fill="#181818" points="701.6875,70.2969,705.6875,80.2969,709.6875,70.2969,705.6875,74.2969" style="stroke:#181818;stroke-width:1.0;"/><line style="stroke:#181818;stroke-width:1.0;" x1="705.6875" x2="705.6875" y1="114.2656" y2="134.2656"/><polygon fill="#181818" points="701.6875,124.2656,705.6875,134.2656,709.6875,124.2656,705.6875,128.2656" style="stroke:#181818;stroke-width:1.0;"/><line style="stroke:#181818;stroke-width:1.0;" x1="247.75" x2="247.75" y1="291.8125" y2="311.8125"/><polygon fill="#181818" points="243.75,301.8125,247.75,311.8125,251.75,301.8125,247.75,305.8125" style="stroke:#181818;stroke-width:1.0;"/><line style="stroke:#181818;stroke-width:1.0;" x1="247.75" x2="247.75" y1="426.0469" y2="446.0469"/><polygon fill="#181818" points="243.75,436.0469,247.75,446.0469,251.75,436.0469,247.75,440.0469" style="stroke:#181818;stroke-width:1.0;"/><line style="stroke:#181818;stroke-width:1.0;" x1="247.75" x2="247.75" y1="480.0156" y2="500.0156"/><polygon fill="#181818" points="243.75,490.0156,247.75,500.0156,251.75,490.0156,247.75,494.0156" style="stroke:#181818;stroke-width:1.0;"/><line style="stroke:#181818;stroke-width:1.0;" x1="390.5" x2="390.5" y1="658.25" y2="678.25"/><polygon fill="#181818" points="386.5,668.25,390.5,678.25,394.5,668.25,390.5,672.25" style="stroke:#181818;stroke-width:1.0;"/><line style="stroke:#181818;stroke-width:1.0;" x1="390.5" x2="390.5" y1="712.2188" y2="732.2188"/><polygon fill="#181818" points="386.5,722.2188,390.5,732.2188,394.5,722.2188,390.5,726.2188" style="stroke:#181818;stroke-width:1.0;"/><line style="stroke:#181818;stroke-width:1.0;" x1="390.5" x2="390.5" y1="766.1875" y2="786.1875"/><polygon fill="#181818" points="386.5,776.1875,390.5,786.1875,394.5,776.1875,390.5,780.1875" style="stroke:#181818;stroke-width:1.0;"/><line style="stroke:#181818;stroke-width:1.0;" x1="390.5" x2="390.5" y1="820.1563" y2="840.1563"/><polygon fill="#181818" points="386.5,830.1563,390.5,840.1563,394.5,830.1563,390.5,834.1563" style="stroke:#181818;stroke-width:1.0;"/><line style="stroke:#181818;stroke-width:1.0;" x1="129.75" x2="105" y1="565.9844" y2="565.9844"/><line style="stroke:#181818;stroke-width:1.0;" x1="105" x2="105" y1="565.9844" y2="587.9844"/><polygon fill="#181818" points="101,577.9844,105,587.9844,109,577.9844,105,581.9844" style="stroke:#181818;stroke-width:1.0;"/><line style="stroke:#181818;stroke-width:1.0;" x1="365.75" x2="390.5" y1="565.9844" y2="565.9844"/><line style="stroke:#181818;stroke-width:1.0;" x1="390.5" x2="390.5" y1="565.9844" y2="624.2813"/><polygon fill="#181818" points="386.5,614.2813,390.5,624.2813,394.5,614.2813,390.5,618.2813" style="stroke:#181818;stroke-width:1.0;"/><line style="stroke:#181818;stroke-width:1.0;" x1="105" x2="105" y1="621.9531" y2="904.125"/><line style="stroke:#181818;stroke-width:1.0;" x1="105" x2="235.75" y1="904.125" y2="904.125"/><polygon fill="#181818" points="225.75,900.125,235.75,904.125,225.75,908.125,229.75,904.125" style="stroke:#181818;stroke-width:1.0;"/><line style="stroke:#181818;stroke-width:1.0;" x1="390.5" x2="390.5" y1="874.125" y2="904.125"/><line style="stroke:#181818;stroke-width:1.0;" x1="390.5" x2="259.75" y1="904.125" y2="904.125"/><polygon fill="#181818" points="269.75,900.125,259.75,904.125,269.75,908.125,265.75,904.125" style="stroke:#181818;stroke-width:1.0;"/><line style="stroke:#181818;stroke-width:1.0;" x1="247.75" x2="247.75" y1="533.9844" y2="553.9844"/><polygon fill="#181818" points="243.75,543.9844,247.75,553.9844,251.75,543.9844,247.75,547.9844" style="stroke:#181818;stroke-width:1.0;"/><line style="stroke:#181818;stroke-width:1.0;" x1="247.75" x2="247.75" y1="345.7813" y2="392.0781"/><polygon fill="#181818" points="243.75,382.0781,247.75,392.0781,251.75,382.0781,247.75,386.0781" style="stroke:#181818;stroke-width:1.0;"/><line style="stroke:#181818;stroke-width:1.0;" x1="247.75" x2="247.75" y1="916.125" y2="948.125"/><polygon fill="#181818" points="243.75,938.125,247.75,948.125,251.75,938.125,247.75,942.125" style="stroke:#181818;stroke-width:1.0;"/><line style="stroke:#181818;stroke-width:1.0;" x1="723" x2="723" y1="291.8125" y2="311.8125"/><polygon fill="#181818" points="719,301.8125,723,311.8125,727,301.8125,723,305.8125" style="stroke:#181818;stroke-width:1.0;"/><line style="stroke:#181818;stroke-width:1.0;" x1="370.375" x2="247.75" y1="235.0391" y2="235.0391"/><line style="stroke:#181818;stroke-width:1.0;" x1="247.75" x2="247.75" y1="235.0391" y2="257.8438"/><polygon fill="#181818" points="243.75,247.8438,247.75,257.8438,251.75,247.8438,247.75,251.8438" style="stroke:#181818;stroke-width:1.0;"/><line style="stroke:#181818;stroke-width:1.0;" x1="600.375" x2="723" y1="235.0391" y2="235.0391"/><line style="stroke:#181818;stroke-width:1.0;" x1="723" x2="723" y1="235.0391" y2="257.8438"/><polygon fill="#181818" points="719,247.8438,723,257.8438,727,247.8438,723,251.8438" style="stroke:#181818;stroke-width:1.0;"/><line style="stroke:#181818;stroke-width:1.0;" x1="247.75" x2="247.75" y1="982.0938" y2="1004.0938"/><line style="stroke:#181818;stroke-width:1.0;" x1="247.75" x2="693.6875" y1="1004.0938" y2="1004.0938"/><polygon fill="#181818" points="683.6875,1000.0938,693.6875,1004.0938,683.6875,1008.0938,687.6875,1004.0938" style="stroke:#181818;stroke-width:1.0;"/><line style="stroke:#181818;stroke-width:1.0;" x1="618.6875" x2="485.375" y1="200.2344" y2="200.2344"/><line style="stroke:#181818;stroke-width:1.0;" x1="485.375" x2="485.375" y1="200.2344" y2="222.2344"/><polygon fill="#181818" points="481.375,212.2344,485.375,222.2344,489.375,212.2344,485.375,216.2344" style="stroke:#181818;stroke-width:1.0;"/><line style="stroke:#181818;stroke-width:1.0;" x1="792.6875" x2="926" y1="200.2344" y2="200.2344"/><line style="stroke:#181818;stroke-width:1.0;" x1="926" x2="926" y1="200.2344" y2="222.2344"/><polygon fill="#181818" points="922,212.2344,926,222.2344,930,212.2344,926,216.2344" style="stroke:#181818;stroke-width:1.0;"/><line style="stroke:#181818;stroke-width:1.0;" x1="926" x2="926" y1="256.2031" y2="1004.0938"/><line style="stroke:#181818;stroke-width:1.0;" x1="926" x2="717.6875" y1="1004.0938" y2="1004.0938"/><polygon fill="#181818" points="727.6875,1000.0938,717.6875,1004.0938,727.6875,1008.0938,723.6875,1004.0938" style="stroke:#181818;stroke-width:1.0;"/><line style="stroke:#181818;stroke-width:1.0;" x1="705.6875" x2="705.6875" y1="168.2344" y2="188.2344"/><polygon fill="#181818" points="701.6875,178.2344,705.6875,188.2344,709.6875,178.2344,705.6875,182.2344" style="stroke:#181818;stroke-width:1.0;"/><line style="stroke:#181818;stroke-width:1.0;" x1="705.6875" x2="705.6875" y1="1016.0938" y2="1036.0938"/><polygon fill="#181818" points="701.6875,1026.0938,705.6875,1036.0938,709.6875,1026.0938,705.6875,1030.0938" style="stroke:#181818;stroke-width:1.0;"/><line style="stroke:#181818;stroke-width:1.0;" x1="705.6875" x2="705.6875" y1="1070.0625" y2="1090.0625"/><polygon fill="#181818" points="701.6875,1080.0625,705.6875,1090.0625,709.6875,1080.0625,705.6875,1084.0625" style="stroke:#181818;stroke-width:1.0;"/><!--SRC=[XLBBJi9055tJhsZYHdy1LehHdt1JTT0cf3Nj6ECE7nIC59k8n6Tz8YOgI7o10lvCxxHT-GlEJ2iKrBXgU-wvvzvpUXSqTNb979_LiIRDuGaaALFqgMgh8_FgDEA0e6D9mq9Sz3ftnBnmscUGhRY7cs2PRlKXGGlEUn7CFQUxxRPtuNxVQTvxnLVOARFkX22dnD6XCjclWtLDt-7ungjN6E-pVJecuaMaKB9rFIR4U1jdkFcNo69EimITNTWo8zYCuZHDA6J1kWtb9b5ALcGigp-5Ot4Hh3oqNWPv2LuXbnboMd6w9zvpsJzlCN3XpuZcD2HXn3DYlLxrajWM-wJf9DEIhWUQa3FWAaVABVAuv-TCC0v2l6RJKA1GfcRwlQp6lVzQ3PBpFafmP3jl1eC2OiGcvJ2RR2FE2xhfJdqs6uBIEkfbCkHoV1chAxA6ajAID9j6WtUHZDgE-lXU_u-4mIgwdHfSRRgM4TAyMfT2OMJGi4cc-YsGFu7ga2Xvl06Z4BBzKeRKrvYzXmrUHygyo5q8_5rE2OCOlzD-1BqhXNhBQvnJYI2GC3tE7hwyWRkEnNIiKk5WLg_virrmZvv8iHA67zmZbVnlVg0J5_tCkfyr-qJgrMsyWqr_6X_Oy_G5]--></g></svg>