<?xml version="1.0" encoding="us-ascii" standalone="no"?><svg xmlns="http://www.w3.org/2000/svg" xmlns:xlink="http://www.w3.org/1999/xlink" contentStyleType="text/css" height="156px" preserveAspectRatio="none" style="width:902px;height:156px;background:#FFFFFF;" version="1.1" viewBox="0 0 902 156" width="902px" zoomAndPan="magnify"><defs/><g><text fill="#000000" font-family="sans-serif" font-size="14" font-weight="bold" lengthAdjust="spacing" textLength="126" x="381" y="22.9951">&#38142;&#34920;&#27861;&#35299;&#20915;&#21704;&#24076;&#20914;&#31361;</text><!--entity a--><g id="elem_a"><rect fill="#F1F1F1" height="62.5938" rx="2.5" ry="2.5" style="stroke:#181818;stroke-width:0.5;" width="119" x="7" y="88.3069"/><rect fill="#F1F1F1" height="10" style="stroke:#181818;stroke-width:0.5;" width="15" x="106" y="93.3069"/><rect fill="#F1F1F1" height="2" style="stroke:#181818;stroke-width:0.5;" width="4" x="104" y="95.3069"/><rect fill="#F1F1F1" height="2" style="stroke:#181818;stroke-width:0.5;" width="4" x="104" y="99.3069"/><text fill="#000000" font-family="sans-serif" font-size="14" lengthAdjust="spacing" textLength="46" x="22" y="121.302">Node1</text><text fill="#000000" font-family="sans-serif" font-size="14" lengthAdjust="spacing" textLength="79" x="22" y="137.5989">hash: 9527</text></g><!--entity b--><g id="elem_b"><rect fill="#F1F1F1" height="62.5938" rx="2.5" ry="2.5" style="stroke:#181818;stroke-width:0.5;" width="119" x="161" y="88.3069"/><rect fill="#F1F1F1" height="10" style="stroke:#181818;stroke-width:0.5;" width="15" x="260" y="93.3069"/><rect fill="#F1F1F1" height="2" style="stroke:#181818;stroke-width:0.5;" width="4" x="258" y="95.3069"/><rect fill="#F1F1F1" height="2" style="stroke:#181818;stroke-width:0.5;" width="4" x="258" y="99.3069"/><text fill="#000000" font-family="sans-serif" font-size="14" lengthAdjust="spacing" textLength="46" x="176" y="121.302">Node2</text><text fill="#000000" font-family="sans-serif" font-size="14" lengthAdjust="spacing" textLength="79" x="176" y="137.5989">hash: 9527</text></g><!--entity c--><g id="elem_c"><rect fill="#F1F1F1" height="62.5938" rx="2.5" ry="2.5" style="stroke:#181818;stroke-width:0.5;" width="119" x="315" y="88.3069"/><rect fill="#F1F1F1" height="10" style="stroke:#181818;stroke-width:0.5;" width="15" x="414" y="93.3069"/><rect fill="#F1F1F1" height="2" style="stroke:#181818;stroke-width:0.5;" width="4" x="412" y="95.3069"/><rect fill="#F1F1F1" height="2" style="stroke:#181818;stroke-width:0.5;" width="4" x="412" y="99.3069"/><text fill="#000000" font-family="sans-serif" font-size="14" lengthAdjust="spacing" textLength="46" x="330" y="121.302">Node3</text><text fill="#000000" font-family="sans-serif" font-size="14" lengthAdjust="spacing" textLength="79" x="330" y="137.5989">hash: 9527</text></g><!--entity d--><g id="elem_d"><rect fill="#F1F1F1" height="62.5938" rx="2.5" ry="2.5" style="stroke:#181818;stroke-width:0.5;" width="119" x="469" y="88.3069"/><rect fill="#F1F1F1" height="10" style="stroke:#181818;stroke-width:0.5;" width="15" x="568" y="93.3069"/><rect fill="#F1F1F1" height="2" style="stroke:#181818;stroke-width:0.5;" width="4" x="566" y="95.3069"/><rect fill="#F1F1F1" height="2" style="stroke:#181818;stroke-width:0.5;" width="4" x="566" y="99.3069"/><text fill="#000000" font-family="sans-serif" font-size="14" lengthAdjust="spacing" textLength="46" x="484" y="121.302">Node4</text><text fill="#000000" font-family="sans-serif" font-size="14" lengthAdjust="spacing" textLength="79" x="484" y="137.5989">hash: 9527</text></g><!--entity e--><g id="elem_e"><rect fill="#F1F1F1" height="62.5938" rx="2.5" ry="2.5" style="stroke:#181818;stroke-width:0.5;" width="119" x="777" y="88.3069"/><rect fill="#F1F1F1" height="10" style="stroke:#181818;stroke-width:0.5;" width="15" x="876" y="93.3069"/><rect fill="#F1F1F1" height="2" style="stroke:#181818;stroke-width:0.5;" width="4" x="874" y="95.3069"/><rect fill="#F1F1F1" height="2" style="stroke:#181818;stroke-width:0.5;" width="4" x="874" y="99.3069"/><text fill="#000000" font-family="sans-serif" font-size="14" lengthAdjust="spacing" textLength="12" x="792" y="121.302">...</text><text fill="#000000" font-family="sans-serif" font-size="14" lengthAdjust="spacing" textLength="79" x="792" y="137.5989">hash: 9527</text></g><!--entity f--><g id="elem_f"><rect fill="#F1F1F1" height="62.5938" rx="2.5" ry="2.5" style="stroke:#181818;stroke-width:0.5;" width="119" x="623" y="88.3069"/><rect fill="#F1F1F1" height="10" style="stroke:#181818;stroke-width:0.5;" width="15" x="722" y="93.3069"/><rect fill="#F1F1F1" height="2" style="stroke:#181818;stroke-width:0.5;" width="4" x="720" y="95.3069"/><rect fill="#F1F1F1" height="2" style="stroke:#181818;stroke-width:0.5;" width="4" x="720" y="99.3069"/><text fill="#000000" font-family="sans-serif" font-size="14" lengthAdjust="spacing" textLength="12" x="638" y="121.302">...</text><text fill="#000000" font-family="sans-serif" font-size="14" lengthAdjust="spacing" textLength="79" x="638" y="137.5989">hash: 9527</text></g><!--link a to b--><g id="link_a_b"><path d="M126.36,119.5969 C135.8,119.5969 145.24,119.5969 154.68,119.5969 " fill="none" id="a-to-b" style="stroke:#181818;stroke-width:1.0;"/><polygon fill="#181818" points="159.56,119.5969,150.56,115.5969,154.56,119.5969,150.56,123.5969,159.56,119.5969" style="stroke:#181818;stroke-width:1.0;"/></g><!--link b to c--><g id="link_b_c"><path d="M280.36,119.5969 C289.8,119.5969 299.24,119.5969 308.68,119.5969 " fill="none" id="b-to-c" style="stroke:#181818;stroke-width:1.0;"/><polygon fill="#181818" points="313.56,119.5969,304.56,115.5969,308.56,119.5969,304.56,123.5969,313.56,119.5969" style="stroke:#181818;stroke-width:1.0;"/></g><!--link c to d--><g id="link_c_d"><path d="M434.36,119.5969 C443.8,119.5969 453.24,119.5969 462.68,119.5969 " fill="none" id="c-to-d" style="stroke:#181818;stroke-width:1.0;"/><polygon fill="#181818" points="467.56,119.5969,458.56,115.5969,462.56,119.5969,458.56,123.5969,467.56,119.5969" style="stroke:#181818;stroke-width:1.0;"/></g><!--link d to e--><g id="link_d_e"><path d="M566.43,87.8369 C582.76,76.1469 602.75,64.2969 623,58.3069 C673.71,43.2969 691.29,43.2969 742,58.3069 C760.35,63.7369 778.49,73.9769 793.88,84.5469 " fill="none" id="d-to-e" style="stroke:#181818;stroke-width:1.0;"/><polygon fill="#181818" points="797.57,87.8369,792.5066,79.3893,793.4792,84.9619,787.9066,85.9345,797.57,87.8369" style="stroke:#181818;stroke-width:1.0;"/></g><!--link d to f--><g id="link_d_f"><path d="M588.36,119.5969 C597.8,119.5969 607.24,119.5969 616.68,119.5969 " fill="none" id="d-to-f" style="stroke:#181818;stroke-width:1.0;"/><polygon fill="#181818" points="621.56,119.5969,612.56,115.5969,616.56,119.5969,612.56,123.5969,621.56,119.5969" style="stroke:#181818;stroke-width:1.0;"/></g><!--SRC=[AyaioKbLU3bvtuk5AvvjdlfY-UAdRPkVJkvukgFdQTkcvwiQkQBzybDI3MFoCXABCwmKB4sDp6CL4eiL4Y4IHXWIIH09Omo9P8Y42OP42bUqdfuUXd0gTk4qhaG5NJkWDKaWAfah6KIbSAM0g5G8bGO0]--></g></svg>