<?xml version="1.0" encoding="us-ascii" standalone="no"?><svg xmlns="http://www.w3.org/2000/svg" xmlns:xlink="http://www.w3.org/1999/xlink" contentStyleType="text/css" height="385px" preserveAspectRatio="none" style="width:1206px;height:385px;background:#FFFFFF;" version="1.1" viewBox="0 0 1206 385" width="1206px" zoomAndPan="magnify"><defs/><g><!--class BeanPostProcessor--><g id="elem_BeanPostProcessor"><rect codeLine="5" fill="#FFFFFF" height="60.2969" id="BeanPostProcessor" rx="2.5" ry="2.5" style="stroke:#000000;stroke-width:1.0;" width="388" x="12" y="12"/><ellipse cx="133.75" cy="26" fill="#FFFFFF" rx="9" ry="9" style="stroke:#000000;stroke-width:1.0;"/><path d="M130.9219,22.5781 L130.9219,20.7969 L137,20.7969 L137,22.5781 L134.9688,22.5781 L134.9688,29.2188 L137,29.2188 L137,31 L130.9219,31 L130.9219,29.2188 L132.9531,29.2188 L132.9531,22.5781 L130.9219,22.5781 Z " fill="#000000"/><text fill="#000000" font-family="Consolas" font-size="14" font-style="italic" lengthAdjust="spacing" textLength="137" x="151.25" y="30.8467">BeanPostProcessor</text><line style="stroke:#000000;stroke-width:1.0;" x1="13" x2="399" y1="40" y2="40"/><line style="stroke:#000000;stroke-width:1.0;" x1="13" x2="399" y1="48" y2="48"/><ellipse cx="23" cy="61.6484" fill="#FFFFFF" rx="3" ry="3" style="stroke:#000000;stroke-width:1.0;"/><text fill="#000000" font-family="Consolas" font-size="14" lengthAdjust="spacing" textLength="364" x="30" y="64.9951">postProcessBeforeInitialization(Object, String) Object</text></g><!--class DestructionAwareBeanPostProcessor--><g id="elem_DestructionAwareBeanPostProcessor"><rect codeLine="8" fill="#FFFFFF" height="60.2969" id="DestructionAwareBeanPostProcessor" rx="2.5" ry="2.5" style="stroke:#000000;stroke-width:1.0;" width="373" x="435.5" y="12"/><ellipse cx="488.25" cy="26" fill="#FFFFFF" rx="9" ry="9" style="stroke:#000000;stroke-width:1.0;"/><path d="M485.4219,22.5781 L485.4219,20.7969 L491.5,20.7969 L491.5,22.5781 L489.4688,22.5781 L489.4688,29.2188 L491.5,29.2188 L491.5,31 L485.4219,31 L485.4219,29.2188 L487.4531,29.2188 L487.4531,22.5781 L485.4219,22.5781 Z " fill="#000000"/><text fill="#000000" font-family="Consolas" font-size="14" font-style="italic" lengthAdjust="spacing" textLength="260" x="505.75" y="30.8467">DestructionAwareBeanPostProcessor</text><line style="stroke:#000000;stroke-width:1.0;" x1="436.5" x2="807.5" y1="40" y2="40"/><line style="stroke:#000000;stroke-width:1.0;" x1="436.5" x2="807.5" y1="48" y2="48"/><ellipse cx="446.5" cy="61.6484" fill="#FFFFFF" rx="3" ry="3" style="stroke:#000000;stroke-width:1.0;"/><text fill="#000000" font-family="Consolas" font-size="14" lengthAdjust="spacing" textLength="349" x="453.5" y="64.9951">postProcessBeforeDestruction(Object, String) void</text></g><!--class InitDestroyAnnotationBeanPostProcessor--><g id="elem_InitDestroyAnnotationBeanPostProcessor"><rect codeLine="11" fill="#FFFFFF" height="109.1875" id="InitDestroyAnnotationBeanPostProcessor" rx="2.5" ry="2.5" style="stroke:#000000;stroke-width:1.0;" width="388" x="428" y="132.3"/><ellipse cx="475.25" cy="146.3" fill="#FFFFFF" rx="9" ry="9" style="stroke:#000000;stroke-width:1.0;"/><path d="M477.6406,151.0031 Q477.1563,151.2531 476.625,151.3781 Q476.1094,151.5031 475.5313,151.5031 Q473.4688,151.5031 472.375,150.1437 Q471.2969,148.7844 471.2969,146.2062 Q471.2969,143.6281 472.375,142.2687 Q473.4688,140.9094 475.5313,140.9094 Q476.1094,140.9094 476.6406,141.0344 Q477.1719,141.1594 477.6406,141.3937 L477.6406,143.6437 Q477.125,143.1594 476.625,142.9406 Q476.1406,142.7219 475.625,142.7219 Q474.5156,142.7219 473.9531,143.5969 Q473.3906,144.4719 473.3906,146.2062 Q473.3906,147.925 473.9531,148.8156 Q474.5156,149.6906 475.625,149.6906 Q476.1406,149.6906 476.625,149.4719 Q477.125,149.2375 477.6406,148.7687 L477.6406,151.0031 Z " fill="#000000"/><text fill="#000000" font-family="Consolas" font-size="14" lengthAdjust="spacing" textLength="286" x="492.75" y="151.1467">InitDestroyAnnotationBeanPostProcessor</text><line style="stroke:#000000;stroke-width:1.0;" x1="429" x2="815" y1="160.3" y2="160.3"/><rect fill="none" height="6" style="stroke:#000000;stroke-width:1.0;" width="6" x="436" y="170.9484"/><text fill="#000000" font-family="Consolas" font-size="14" lengthAdjust="spacing" textLength="170" x="446" y="177.2951">Class initAnnotationType</text><rect fill="none" height="6" style="stroke:#000000;stroke-width:1.0;" width="6" x="436" y="187.2453"/><text fill="#000000" font-family="Consolas" font-size="14" lengthAdjust="spacing" textLength="202" x="446" y="193.592">Class destroyAnnotationType</text><line style="stroke:#000000;stroke-width:1.0;" x1="429" x2="815" y1="200.8937" y2="200.8937"/><ellipse cx="439" cy="214.5422" fill="#FFFFFF" rx="3" ry="3" style="stroke:#000000;stroke-width:1.0;"/><text fill="#000000" font-family="Consolas" font-size="14" lengthAdjust="spacing" textLength="364" x="446" y="217.8889">postProcessBeforeInitialization(Object, String) Object</text><ellipse cx="439" cy="230.8391" fill="#FFFFFF" rx="3" ry="3" style="stroke:#000000;stroke-width:1.0;"/><text fill="#000000" font-family="Consolas" font-size="14" lengthAdjust="spacing" textLength="349" x="446" y="234.1857">postProcessBeforeDestruction(Object, String) void</text></g><!--class CommonAnnotationBeanPostProcessor--><g id="elem_CommonAnnotationBeanPostProcessor"><rect codeLine="17" fill="#FFFFFF" height="44" id="CommonAnnotationBeanPostProcessor" rx="2.5" ry="2.5" style="stroke:#000000;stroke-width:1.0;" width="303" x="470.5" y="317.78"/><ellipse cx="483.5" cy="331.78" fill="#FFFFFF" rx="9" ry="9" style="stroke:#000000;stroke-width:1.0;"/><path d="M485.8906,336.4831 Q485.4063,336.7331 484.875,336.8581 Q484.3594,336.9831 483.7813,336.9831 Q481.7188,336.9831 480.625,335.6238 Q479.5469,334.2644 479.5469,331.6863 Q479.5469,329.1081 480.625,327.7488 Q481.7188,326.3894 483.7813,326.3894 Q484.3594,326.3894 484.8906,326.5144 Q485.4219,326.6394 485.8906,326.8738 L485.8906,329.1238 Q485.375,328.6394 484.875,328.4206 Q484.3906,328.2019 483.875,328.2019 Q482.7656,328.2019 482.2031,329.0769 Q481.6406,329.9519 481.6406,331.6863 Q481.6406,333.405 482.2031,334.2956 Q482.7656,335.1706 483.875,335.1706 Q484.3906,335.1706 484.875,334.9519 Q485.375,334.7175 485.8906,334.2488 L485.8906,336.4831 Z " fill="#000000"/><text fill="#000000" font-family="Consolas" font-size="14" lengthAdjust="spacing" textLength="275" x="495.5" y="336.6267">CommonAnnotationBeanPostProcessor</text><line style="stroke:#000000;stroke-width:1.0;" x1="471.5" x2="772.5" y1="345.78" y2="345.78"/><line style="stroke:#000000;stroke-width:1.0;" x1="471.5" x2="772.5" y1="353.78" y2="353.78"/></g><!--class LifecycleMetadata--><g id="elem_LifecycleMetadata"><rect codeLine="18" fill="#FFFFFF" height="92.8906" id="LifecycleMetadata" rx="2.5" ry="2.5" style="stroke:#000000;stroke-width:1.0;" width="348" x="851" y="140.45"/><ellipse cx="960.25" cy="154.45" fill="#FFFFFF" rx="9" ry="9" style="stroke:#000000;stroke-width:1.0;"/><path d="M962.6406,159.1531 Q962.1563,159.4031 961.625,159.5281 Q961.1094,159.6531 960.5313,159.6531 Q958.4688,159.6531 957.375,158.2938 Q956.2969,156.9344 956.2969,154.3563 Q956.2969,151.7781 957.375,150.4188 Q958.4688,149.0594 960.5313,149.0594 Q961.1094,149.0594 961.6406,149.1844 Q962.1719,149.3094 962.6406,149.5438 L962.6406,151.7938 Q962.125,151.3094 961.625,151.0906 Q961.1406,150.8719 960.625,150.8719 Q959.5156,150.8719 958.9531,151.7469 Q958.3906,152.6219 958.3906,154.3563 Q958.3906,156.075 958.9531,156.9656 Q959.5156,157.8406 960.625,157.8406 Q961.1406,157.8406 961.625,157.6219 Q962.125,157.3875 962.6406,156.9188 L962.6406,159.1531 Z " fill="#000000"/><text fill="#000000" font-family="Consolas" font-size="14" lengthAdjust="spacing" textLength="122" x="977.75" y="159.2967">LifecycleMetadata</text><line style="stroke:#000000;stroke-width:1.0;" x1="852" x2="1198" y1="168.45" y2="168.45"/><rect fill="none" height="6" style="stroke:#000000;stroke-width:1.0;" width="6" x="859" y="179.0984"/><text fill="#000000" font-family="Consolas" font-size="14" lengthAdjust="spacing" textLength="119" x="869" y="185.4451">Class targetClass</text><rect fill="none" height="6" style="stroke:#000000;stroke-width:1.0;" width="6" x="859" y="195.3953"/><text fill="#000000" font-family="Consolas" font-size="14" lengthAdjust="spacing" textLength="292" x="869" y="201.742">Collection&lt;LifecycleElement&gt; initMethods</text><rect fill="none" height="6" style="stroke:#000000;stroke-width:1.0;" width="6" x="859" y="211.6922"/><text fill="#000000" font-family="Consolas" font-size="14" lengthAdjust="spacing" textLength="324" x="869" y="218.0389">Collection&lt;LifecycleElement&gt; destroyMethods</text><line style="stroke:#000000;stroke-width:1.0;" x1="852" x2="1198" y1="225.3406" y2="225.3406"/></g><!--class LifecycleElement--><g id="elem_LifecycleElement"><rect codeLine="23" fill="#FFFFFF" height="76.5938" id="LifecycleElement" rx="2.5" ry="2.5" style="stroke:#000000;stroke-width:1.0;" width="143" x="953.5" y="301.49"/><ellipse cx="966.5" cy="315.49" fill="#FFFFFF" rx="9" ry="9" style="stroke:#000000;stroke-width:1.0;"/><path d="M968.8906,320.1931 Q968.4063,320.4431 967.875,320.5681 Q967.3594,320.6931 966.7813,320.6931 Q964.7188,320.6931 963.625,319.3337 Q962.5469,317.9744 962.5469,315.3962 Q962.5469,312.8181 963.625,311.4587 Q964.7188,310.0994 966.7813,310.0994 Q967.3594,310.0994 967.8906,310.2244 Q968.4219,310.3494 968.8906,310.5837 L968.8906,312.8337 Q968.375,312.3494 967.875,312.1306 Q967.3906,311.9119 966.875,311.9119 Q965.7656,311.9119 965.2031,312.7869 Q964.6406,313.6619 964.6406,315.3962 Q964.6406,317.115 965.2031,318.0056 Q965.7656,318.8806 966.875,318.8806 Q967.3906,318.8806 967.875,318.6619 Q968.375,318.4275 968.8906,317.9587 L968.8906,320.1931 Z " fill="#000000"/><text fill="#000000" font-family="Consolas" font-size="14" lengthAdjust="spacing" textLength="115" x="978.5" y="320.3367">LifecycleElement</text><line style="stroke:#000000;stroke-width:1.0;" x1="954.5" x2="1095.5" y1="329.49" y2="329.49"/><rect fill="none" height="6" style="stroke:#000000;stroke-width:1.0;" width="6" x="961.5" y="340.1384"/><text fill="#000000" font-family="Consolas" font-size="14" lengthAdjust="spacing" textLength="111" x="971.5" y="346.4851">Method method</text><rect fill="none" height="6" style="stroke:#000000;stroke-width:1.0;" width="6" x="961.5" y="356.4353"/><text fill="#000000" font-family="Consolas" font-size="14" lengthAdjust="spacing" textLength="103" x="971.5" y="362.782">String identifier</text><line style="stroke:#000000;stroke-width:1.0;" x1="954.5" x2="1095.5" y1="370.0837" y2="370.0837"/></g><!--reverse link BeanPostProcessor to DestructionAwareBeanPostProcessor--><g id="link_BeanPostProcessor_DestructionAwareBeanPostProcessor"><path codeLine="27" d="M421.02,42.15 C425.78,42.15 430.53,42.15 435.28,42.15 " fill="none" id="BeanPostProcessor-backto-DestructionAwareBeanPostProcessor" style="stroke:#000000;stroke-width:1.0;"/><polygon fill="none" points="421.19,49.15,401.19,42.15,421.19,35.15,421.19,49.15" style="stroke:#000000;stroke-width:1.0;"/></g><!--reverse link DestructionAwareBeanPostProcessor to InitDestroyAnnotationBeanPostProcessor--><g id="link_DestructionAwareBeanPostProcessor_InitDestroyAnnotationBeanPostProcessor"><path codeLine="28" d="M622,93.64 C622,106.01 622,119.3 622,131.83 " fill="none" id="DestructionAwareBeanPostProcessor-backto-InitDestroyAnnotationBeanPostProcessor" style="stroke:#000000;stroke-width:1.0;stroke-dasharray:7.0,7.0;"/><polygon fill="none" points="615,93.73,622,73.73,629,93.73,615,93.73" style="stroke:#000000;stroke-width:1.0;"/></g><!--reverse link InitDestroyAnnotationBeanPostProcessor to CommonAnnotationBeanPostProcessor--><g id="link_InitDestroyAnnotationBeanPostProcessor_CommonAnnotationBeanPostProcessor"><path codeLine="29" d="M622,262.9 C622,282.86 622,302.86 622,317.32 " fill="none" id="InitDestroyAnnotationBeanPostProcessor-backto-CommonAnnotationBeanPostProcessor" style="stroke:#000000;stroke-width:1.0;"/><polygon fill="none" points="615,262.94,622,242.94,629,262.94,615,262.94" style="stroke:#000000;stroke-width:1.0;"/></g><!--link InitDestroyAnnotationBeanPostProcessor to LifecycleMetadata--><g id="link_InitDestroyAnnotationBeanPostProcessor_LifecycleMetadata"><path codeLine="30" d="M816.42,186.89 C825.86,186.89 835.31,186.89 844.76,186.89 " fill="none" id="InitDestroyAnnotationBeanPostProcessor-to-LifecycleMetadata" style="stroke:#000000;stroke-width:1.0;stroke-dasharray:7.0,7.0;"/><polygon fill="#000000" points="849.64,186.89,840.64,182.89,844.64,186.89,840.64,190.89,849.64,186.89" style="stroke:#000000;stroke-width:1.0;"/></g><!--reverse link LifecycleMetadata to LifecycleElement--><g id="link_LifecycleMetadata_LifecycleElement"><path codeLine="31" d="M1025,247.47 C1025,265.64 1025,285.1 1025,301.36 " fill="none" id="LifecycleMetadata-backto-LifecycleElement" style="stroke:#000000;stroke-width:1.0;stroke-dasharray:7.0,7.0;"/><polygon fill="none" points="1025,234.57,1021,240.57,1025,246.57,1029,240.57,1025,234.57" style="stroke:#000000;stroke-width:1.0;"/></g><!--SRC=[fLBRJiCm37scNn7UGD1AI3oYITi02OdBfF43fdKtGnfNYGlQOFzEcWvMhQ1My9J4FlOvFl6XBB50LMeW4xaNCYLOA9IGQBnc8tDQepexRwKopA7Iqfky1zztoiQn1XUH4RGvfAWc26R6JcQMKtIEhNgF3avKkGjDC6UBDuQ4GDCQXDWSFJmzOogdQYwMpE9ODUzeq-fyYKvibTRmyHjO7ChKgklGl39bdYJrCpXLImfWNesDOGdAVcI9rJHKaA_OGHzN9UvosNwd9lrdA_ursfIBmjls-rHRt2tbcAvIZNSea850Ure1kq09zn1ahJ5mNtoNNMc_RaP6mHdVOybPFtRhr1Tyiwzb2soaD2XLXACEDFCgoZo4SaBh6_IlIgpZZr5tMQE1Ev1KYI_lfObwVLTnLGiPHZjOdKr6tQ-Ckf_BIPPqVFu4]--></g></svg>