<?xml version="1.0" encoding="us-ascii" standalone="no"?><svg xmlns="http://www.w3.org/2000/svg" xmlns:xlink="http://www.w3.org/1999/xlink" contentStyleType="text/css" height="199px" preserveAspectRatio="none" style="width:225px;height:199px;background:#FFFFFF;" version="1.1" viewBox="0 0 225 199" width="225px" zoomAndPan="magnify"><defs/><g><!--class PropertyValue--><g id="elem_PropertyValue"><rect codeLine="1" fill="#F1F1F1" height="178.375" id="PropertyValue" rx="2.5" ry="2.5" style="stroke:#181818;stroke-width:0.5;" width="204" x="7" y="7"/><ellipse cx="56.75" cy="23" fill="#ADD1B2" rx="11" ry="11" style="stroke:#181818;stroke-width:1.0;"/><path d="M59.7188,28.6406 Q59.1406,28.9375 58.5,29.0781 Q57.8594,29.2344 57.1563,29.2344 Q54.6563,29.2344 53.3281,27.5938 Q52.0156,25.9375 52.0156,22.8125 Q52.0156,19.6875 53.3281,18.0313 Q54.6563,16.375 57.1563,16.375 Q57.8594,16.375 58.5,16.5313 Q59.1563,16.6875 59.7188,16.9844 L59.7188,19.7031 Q59.0938,19.125 58.5,18.8594 Q57.9063,18.5781 57.2813,18.5781 Q55.9375,18.5781 55.25,19.6563 Q54.5625,20.7188 54.5625,22.8125 Q54.5625,24.9063 55.25,25.9844 Q55.9375,27.0469 57.2813,27.0469 Q57.9063,27.0469 58.5,26.7813 Q59.0938,26.5 59.7188,25.9219 L59.7188,28.6406 Z " fill="#000000"/><text fill="#000000" font-family="sans-serif" font-size="14" lengthAdjust="spacing" textLength="96" x="77.25" y="27.8467">PropertyValue</text><line style="stroke:#181818;stroke-width:0.5;" x1="8" x2="210" y1="39" y2="39"/><rect fill="none" height="6" style="stroke:#C82930;stroke-width:1.0;" width="6" x="15" y="49.6484"/><text fill="#000000" font-family="sans-serif" font-size="14" lengthAdjust="spacing" textLength="83" x="27" y="55.9951">String name</text><rect fill="none" height="6" style="stroke:#C82930;stroke-width:1.0;" width="6" x="15" y="65.9453"/><text fill="#000000" font-family="sans-serif" font-size="14" lengthAdjust="spacing" textLength="85" x="27" y="72.292">Object value</text><rect fill="none" height="6" style="stroke:#C82930;stroke-width:1.0;" width="6" x="15" y="82.2422"/><text fill="#000000" font-family="sans-serif" font-size="14" lengthAdjust="spacing" textLength="157" x="27" y="88.5889">Object convertedValue</text><rect fill="none" height="6" style="stroke:#C82930;stroke-width:1.0;" width="6" x="15" y="98.5391"/><text fill="#000000" font-family="sans-serif" font-size="14" lengthAdjust="spacing" textLength="130" x="27" y="104.8857">boolean converted</text><line style="stroke:#181818;stroke-width:0.5;" x1="8" x2="210" y1="112.1875" y2="112.1875"/><text fill="#000000" font-family="sans-serif" font-size="14" lengthAdjust="spacing" textLength="117" x="13" y="129.1826">getName() String</text><text fill="#000000" font-family="sans-serif" font-size="14" lengthAdjust="spacing" textLength="120" x="13" y="145.4795">getValue() Object</text><text fill="#000000" font-family="sans-serif" font-size="14" lengthAdjust="spacing" textLength="192" x="13" y="161.7764">getConvertedValue() Object</text><text fill="#000000" font-family="sans-serif" font-size="14" lengthAdjust="spacing" textLength="153" x="13" y="178.0732">isConverted() boolean</text></g><!--SRC=[Iyv9B2vM22ZABqWjAgaCIymfJLMevkBKLGWkAShCIrV8IynD1N7zax9IaqiKoa0AaFZ9-NbbG8sfAM4mYQJy_9pKn3o431TdUcg97z0O3KseeM0Hi0QW4CGWi90pYc58Sfd5S2cWADG6hbe0]--></g></svg>