<?xml version="1.0" encoding="us-ascii" standalone="no"?><svg xmlns="http://www.w3.org/2000/svg" xmlns:xlink="http://www.w3.org/1999/xlink" contentStyleType="text/css" height="375px" preserveAspectRatio="none" style="width:673px;height:375px;background:#FFFFFF;" version="1.1" viewBox="0 0 673 375" width="673px" zoomAndPan="magnify"><defs/><g><!--class AnnotatedGenericBeanDefinition--><g id="elem_AnnotatedGenericBeanDefinition"><rect codeLine="1" fill="#F1F1F1" height="80.5938" id="AnnotatedGenericBeanDefinition" rx="2.5" ry="2.5" style="stroke:#181818;stroke-width:0.5;" width="310" x="137" y="288.19"/><ellipse cx="174.95" cy="304.19" fill="#ADD1B2" rx="11" ry="11" style="stroke:#181818;stroke-width:1.0;"/><path d="M177.9188,309.8306 Q177.3406,310.1275 176.7,310.2681 Q176.0594,310.4244 175.3563,310.4244 Q172.8563,310.4244 171.5281,308.7837 Q170.2156,307.1275 170.2156,304.0025 Q170.2156,300.8775 171.5281,299.2212 Q172.8563,297.565 175.3563,297.565 Q176.0594,297.565 176.7,297.7212 Q177.3563,297.8775 177.9188,298.1744 L177.9188,300.8931 Q177.2938,300.315 176.7,300.0494 Q176.1063,299.7681 175.4813,299.7681 Q174.1375,299.7681 173.45,300.8462 Q172.7625,301.9087 172.7625,304.0025 Q172.7625,306.0962 173.45,307.1744 Q174.1375,308.2369 175.4813,308.2369 Q176.1063,308.2369 176.7,307.9712 Q177.2938,307.69 177.9188,307.1119 L177.9188,309.8306 Z " fill="#000000"/><text fill="#000000" font-family="sans-serif" font-size="14" lengthAdjust="spacing" textLength="227" x="194.05" y="309.0367">AnnotatedGenericBeanDefinition</text><line style="stroke:#181818;stroke-width:0.5;" x1="138" x2="446" y1="320.19" y2="320.19"/><rect fill="none" height="6" style="stroke:#C82930;stroke-width:1.0;" width="6" x="145" y="330.8384"/><text fill="#000000" font-family="sans-serif" font-size="14" lengthAdjust="spacing" textLength="208" x="157" y="337.1851">AnnotationMetadata metadata</text><rect fill="none" height="6" style="stroke:#C82930;stroke-width:1.0;" width="6" x="145" y="347.1353"/><text fill="#000000" font-family="sans-serif" font-size="14" lengthAdjust="spacing" textLength="284" x="157" y="353.482">MethodMetadata factoryMethodMetadata</text><line style="stroke:#181818;stroke-width:0.5;" x1="138" x2="446" y1="360.7837" y2="360.7837"/></g><!--class AnnotationMetadata--><g id="elem_AnnotationMetadata"><rect codeLine="5" fill="#F1F1F1" height="80.5938" id="AnnotationMetadata" rx="2.5" ry="2.5" style="stroke:#181818;stroke-width:0.5;" width="400" x="266" y="147.59"/><ellipse cx="392.25" cy="163.59" fill="#B4A7E5" rx="11" ry="11" style="stroke:#181818;stroke-width:1.0;"/><path d="M388.1719,159.3556 L388.1719,157.1994 L395.5625,157.1994 L395.5625,159.3556 L393.0938,159.3556 L393.0938,167.4337 L395.5625,167.4337 L395.5625,169.59 L388.1719,169.59 L388.1719,167.4337 L390.6406,167.4337 L390.6406,159.3556 L388.1719,159.3556 Z " fill="#000000"/><text fill="#000000" font-family="sans-serif" font-size="14" font-style="italic" lengthAdjust="spacing" textLength="139" x="412.75" y="168.4367">AnnotationMetadata</text><line style="stroke:#181818;stroke-width:0.5;" x1="267" x2="665" y1="179.59" y2="179.59"/><line style="stroke:#181818;stroke-width:0.5;" x1="267" x2="665" y1="187.59" y2="187.59"/><ellipse cx="277" cy="201.2384" fill="#84BE84" rx="3" ry="3" style="stroke:#038048;stroke-width:1.0;"/><text fill="#000000" font-family="sans-serif" font-size="14" lengthAdjust="spacing" textLength="374" x="286" y="204.5851">getAnnotatedMethods(String) Set&lt;MethodMetadata&gt;</text><ellipse cx="277" cy="217.5353" fill="#84BE84" rx="3" ry="3" style="stroke:#038048;stroke-width:1.0;"/><text fill="#000000" font-family="sans-serif" font-size="14" lengthAdjust="spacing" text-decoration="underline" textLength="291" x="286" y="220.882">introspect(Class&lt;?&gt;) AnnotationMetadata</text></g><!--class ClassMetadata--><g id="elem_ClassMetadata"><rect codeLine="9" fill="#F1F1F1" height="64.2969" id="ClassMetadata" rx="2.5" ry="2.5" style="stroke:#181818;stroke-width:0.5;" width="180" x="376" y="15.15"/><ellipse cx="412.15" cy="31.15" fill="#B4A7E5" rx="11" ry="11" style="stroke:#181818;stroke-width:1.0;"/><path d="M408.0719,26.9156 L408.0719,24.7594 L415.4625,24.7594 L415.4625,26.9156 L412.9938,26.9156 L412.9938,34.9937 L415.4625,34.9937 L415.4625,37.15 L408.0719,37.15 L408.0719,34.9937 L410.5406,34.9937 L410.5406,26.9156 L408.0719,26.9156 Z " fill="#000000"/><text fill="#000000" font-family="sans-serif" font-size="14" font-style="italic" lengthAdjust="spacing" textLength="101" x="430.85" y="35.9967">ClassMetadata</text><line style="stroke:#181818;stroke-width:0.5;" x1="377" x2="555" y1="47.15" y2="47.15"/><line style="stroke:#181818;stroke-width:0.5;" x1="377" x2="555" y1="55.15" y2="55.15"/><ellipse cx="387" cy="68.7984" fill="#84BE84" rx="3" ry="3" style="stroke:#038048;stroke-width:1.0;"/><text fill="#000000" font-family="sans-serif" font-size="14" lengthAdjust="spacing" textLength="154" x="396" y="72.1451">getClassName() String</text></g><!--class AnnotatedTypeMetadata--><g id="elem_AnnotatedTypeMetadata"><rect codeLine="12" fill="#F1F1F1" height="80.5938" id="AnnotatedTypeMetadata" rx="2.5" ry="2.5" style="stroke:#181818;stroke-width:0.5;" width="282" x="18" y="7"/><ellipse cx="69.75" cy="23" fill="#B4A7E5" rx="11" ry="11" style="stroke:#181818;stroke-width:1.0;"/><path d="M65.6719,18.7656 L65.6719,16.6094 L73.0625,16.6094 L73.0625,18.7656 L70.5938,18.7656 L70.5938,26.8438 L73.0625,26.8438 L73.0625,29 L65.6719,29 L65.6719,26.8438 L68.1406,26.8438 L68.1406,18.7656 L65.6719,18.7656 Z " fill="#000000"/><text fill="#000000" font-family="sans-serif" font-size="14" font-style="italic" lengthAdjust="spacing" textLength="170" x="90.25" y="27.8467">AnnotatedTypeMetadata</text><line style="stroke:#181818;stroke-width:0.5;" x1="19" x2="299" y1="39" y2="39"/><line style="stroke:#181818;stroke-width:0.5;" x1="19" x2="299" y1="47" y2="47"/><ellipse cx="29" cy="60.6484" fill="#84BE84" rx="3" ry="3" style="stroke:#038048;stroke-width:1.0;"/><text fill="#000000" font-family="sans-serif" font-size="14" lengthAdjust="spacing" textLength="256" x="38" y="63.9951">getAnnotations() MergedAnnotations</text><ellipse cx="29" cy="76.9453" fill="#84BE84" rx="3" ry="3" style="stroke:#038048;stroke-width:1.0;"/><text fill="#000000" font-family="sans-serif" font-size="14" lengthAdjust="spacing" textLength="193" x="38" y="80.292">isAnnotated(String) boolean</text></g><!--class MethodMetadata--><g id="elem_MethodMetadata"><rect codeLine="16" fill="#F1F1F1" height="80.5938" id="MethodMetadata" rx="2.5" ry="2.5" style="stroke:#181818;stroke-width:0.5;" width="224" x="7" y="147.59"/><ellipse cx="56.25" cy="163.59" fill="#B4A7E5" rx="11" ry="11" style="stroke:#181818;stroke-width:1.0;"/><path d="M52.1719,159.3556 L52.1719,157.1994 L59.5625,157.1994 L59.5625,159.3556 L57.0938,159.3556 L57.0938,167.4337 L59.5625,167.4337 L59.5625,169.59 L52.1719,169.59 L52.1719,167.4337 L54.6406,167.4337 L54.6406,159.3556 L52.1719,159.3556 Z " fill="#000000"/><text fill="#000000" font-family="sans-serif" font-size="14" font-style="italic" lengthAdjust="spacing" textLength="117" x="76.75" y="168.4367">MethodMetadata</text><line style="stroke:#181818;stroke-width:0.5;" x1="8" x2="230" y1="179.59" y2="179.59"/><line style="stroke:#181818;stroke-width:0.5;" x1="8" x2="230" y1="187.59" y2="187.59"/><ellipse cx="18" cy="201.2384" fill="#84BE84" rx="3" ry="3" style="stroke:#038048;stroke-width:1.0;"/><text fill="#000000" font-family="sans-serif" font-size="14" lengthAdjust="spacing" textLength="170" x="27" y="204.5851">getMethodName() String</text><ellipse cx="18" cy="217.5353" fill="#84BE84" rx="3" ry="3" style="stroke:#038048;stroke-width:1.0;"/><text fill="#000000" font-family="sans-serif" font-size="14" lengthAdjust="spacing" textLength="198" x="27" y="220.882">getReturnTypeName() String</text></g><!--reverse link AnnotatedTypeMetadata to MethodMetadata--><g id="link_AnnotatedTypeMetadata_MethodMetadata"><path codeLine="20" d="M141.74,108.1 C137.93,121.31 133.98,134.99 130.46,147.17 " fill="none" id="AnnotatedTypeMetadata-backto-MethodMetadata" style="stroke:#181818;stroke-width:1.0;"/><polygon fill="none" points="135.27,106.29,147.54,89.01,148.72,110.17,135.27,106.29" style="stroke:#181818;stroke-width:1.0;"/></g><!--reverse link ClassMetadata to AnnotationMetadata--><g id="link_ClassMetadata_AnnotationMetadata"><path codeLine="21" d="M466,100.71 C466,116.09 466,132.66 466,147.12 " fill="none" id="ClassMetadata-backto-AnnotationMetadata" style="stroke:#181818;stroke-width:1.0;"/><polygon fill="none" points="459,100.74,466,80.74,473,100.74,459,100.74" style="stroke:#181818;stroke-width:1.0;"/></g><!--reverse link AnnotatedTypeMetadata to AnnotationMetadata--><g id="link_AnnotatedTypeMetadata_AnnotationMetadata"><path codeLine="22" d="M265.99,96.6 C302.59,113.12 343.09,131.4 378.01,147.17 " fill="none" id="AnnotatedTypeMetadata-backto-AnnotationMetadata" style="stroke:#181818;stroke-width:1.0;"/><polygon fill="none" points="263.32,102.62,247.97,88.01,269.08,89.86,263.32,102.62" style="stroke:#181818;stroke-width:1.0;"/></g><!--link AnnotationMetadata to AnnotatedGenericBeanDefinition--><g id="link_AnnotationMetadata_AnnotatedGenericBeanDefinition"><path codeLine="23" d="M416.14,228.6 C396.39,244.34 373.5,262.57 352.79,279.06 " fill="none" id="AnnotationMetadata-to-AnnotatedGenericBeanDefinition" style="stroke:#181818;stroke-width:1.0;"/><polygon fill="#181818" points="342.87,287.76,350.0554,287.1513,352.2571,280.2846,345.0718,280.8932,342.87,287.76" style="stroke:#181818;stroke-width:1.0;"/></g><!--link MethodMetadata to AnnotatedGenericBeanDefinition--><g id="link_MethodMetadata_AnnotatedGenericBeanDefinition"><path codeLine="24" d="M168.57,228.6 C188.21,244.34 210.97,262.57 231.56,279.06 " fill="none" id="MethodMetadata-to-AnnotatedGenericBeanDefinition" style="stroke:#181818;stroke-width:1.0;"/><polygon fill="#181818" points="241.42,287.76,239.2395,280.8865,232.056,280.2556,234.2365,287.1291,241.42,287.76" style="stroke:#181818;stroke-width:1.0;"/></g><!--SRC=[ZL9Dhi8W45xRKx2icjx0rEWpSQKBzG88On-93WsC2wFUtQ7Lvj67nXtCV7ype8xIUp53j2G9z18Gd55paBY0Wq53ngAuPeFYXU7x2aXgILASdeVGvkAlrLth81LPTuchsJqpIE2u2IazzXcB2gYBqz9zlYLdi1gABT0abYm3vUg3aBeBLdVMrw0e_mc3JQRbC64KvMY0_o8qrRKyGSwkZNigFEZTfOPt-TdHCtq5hWBzfnPGndSItNHxQu-y-CYejzQNGrkEyxMT3T3POOZLJz-JAivrSIlJasI9ntdYetLzm7tKVVVHHe6SUh2lUF603m00]--></g></svg>