<?xml version="1.0" encoding="us-ascii" standalone="no"?><svg xmlns="http://www.w3.org/2000/svg" xmlns:xlink="http://www.w3.org/1999/xlink" contentStyleType="text/css" height="303px" preserveAspectRatio="none" style="width:1160px;height:303px;background:#FFFFFF;" version="1.1" viewBox="0 0 1160 303" width="1160px" zoomAndPan="magnify"><defs/><g><!--class Resource--><g id="elem_Resource"><rect codeLine="5" fill="#FFFFFF" height="60.2969" id="Resource" rx="2.5" ry="2.5" style="stroke:#000000;stroke-width:1.0;" width="229" x="277" y="12"/><ellipse cx="354.25" cy="26" fill="#FFFFFF" rx="9" ry="9" style="stroke:#000000;stroke-width:1.0;"/><path d="M351.4219,22.5781 L351.4219,20.7969 L357.5,20.7969 L357.5,22.5781 L355.4688,22.5781 L355.4688,29.2188 L357.5,29.2188 L357.5,31 L351.4219,31 L351.4219,29.2188 L353.4531,29.2188 L353.4531,22.5781 L351.4219,22.5781 Z " fill="#000000"/><text fill="#000000" font-family="Consolas" font-size="14" font-style="italic" lengthAdjust="spacing" textLength="67" x="371.75" y="30.8467">Resource</text><line style="stroke:#000000;stroke-width:1.0;" x1="278" x2="505" y1="40" y2="40"/><line style="stroke:#000000;stroke-width:1.0;" x1="278" x2="505" y1="48" y2="48"/><ellipse cx="288" cy="61.6484" fill="#FFFFFF" rx="3" ry="3" style="stroke:#000000;stroke-width:1.0;"/><text fill="#000000" font-family="Consolas" font-size="14" lengthAdjust="spacing" textLength="205" x="295" y="64.9951">getInputStream() InputStream</text></g><!--class ResourceLoader--><g id="elem_ResourceLoader"><rect codeLine="9" fill="#FFFFFF" height="60.2969" id="ResourceLoader" rx="2.5" ry="2.5" style="stroke:#000000;stroke-width:1.0;" width="235" x="635" y="12"/><ellipse cx="691.75" cy="26" fill="#FFFFFF" rx="9" ry="9" style="stroke:#000000;stroke-width:1.0;"/><path d="M688.9219,22.5781 L688.9219,20.7969 L695,20.7969 L695,22.5781 L692.9688,22.5781 L692.9688,29.2188 L695,29.2188 L695,31 L688.9219,31 L688.9219,29.2188 L690.9531,29.2188 L690.9531,22.5781 L688.9219,22.5781 Z " fill="#000000"/><text fill="#000000" font-family="Consolas" font-size="14" font-style="italic" lengthAdjust="spacing" textLength="114" x="709.25" y="30.8467">ResourceLoader</text><line style="stroke:#000000;stroke-width:1.0;" x1="636" x2="869" y1="40" y2="40"/><line style="stroke:#000000;stroke-width:1.0;" x1="636" x2="869" y1="48" y2="48"/><ellipse cx="646" cy="61.6484" fill="#FFFFFF" rx="3" ry="3" style="stroke:#000000;stroke-width:1.0;"/><text fill="#000000" font-family="Consolas" font-size="14" lengthAdjust="spacing" textLength="211" x="653" y="64.9951">getResource(String) Resource</text></g><!--class ResourcePatternResolver--><g id="elem_ResourcePatternResolver"><rect codeLine="13" fill="#FFFFFF" height="60.2969" id="ResourcePatternResolver" rx="2.5" ry="2.5" style="stroke:#000000;stroke-width:1.0;" width="253" x="626" y="132.29"/><ellipse cx="660.6" cy="146.29" fill="#FFFFFF" rx="9" ry="9" style="stroke:#000000;stroke-width:1.0;"/><path d="M657.7719,142.8681 L657.7719,141.0869 L663.85,141.0869 L663.85,142.8681 L661.8188,142.8681 L661.8188,149.5087 L663.85,149.5087 L663.85,151.29 L657.7719,151.29 L657.7719,149.5087 L659.8031,149.5087 L659.8031,142.8681 L657.7719,142.8681 Z " fill="#000000"/><text fill="#000000" font-family="Consolas" font-size="14" font-style="italic" lengthAdjust="spacing" textLength="177" x="677.4" y="151.1367">ResourcePatternResolver</text><line style="stroke:#000000;stroke-width:1.0;" x1="627" x2="878" y1="160.29" y2="160.29"/><line style="stroke:#000000;stroke-width:1.0;" x1="627" x2="878" y1="168.29" y2="168.29"/><ellipse cx="637" cy="181.9384" fill="#FFFFFF" rx="3" ry="3" style="stroke:#000000;stroke-width:1.0;"/><text fill="#000000" font-family="Consolas" font-size="14" lengthAdjust="spacing" textLength="229" x="644" y="185.2851">getResources(String) Resource[]</text></g><!--class ContextResource--><g id="elem_ContextResource"><rect codeLine="16" fill="#FFFFFF" height="44" id="ContextResource" rx="2.5" ry="2.5" style="stroke:#000000;stroke-width:1.0;" width="149" x="93" y="20.14"/><ellipse cx="106" cy="34.14" fill="#FFFFFF" rx="9" ry="9" style="stroke:#000000;stroke-width:1.0;"/><path d="M103.1719,30.7181 L103.1719,28.9369 L109.25,28.9369 L109.25,30.7181 L107.2188,30.7181 L107.2188,37.3587 L109.25,37.3587 L109.25,39.14 L103.1719,39.14 L103.1719,37.3587 L105.2031,37.3587 L105.2031,30.7181 L103.1719,30.7181 Z " fill="#000000"/><text fill="#000000" font-family="Consolas" font-size="14" font-style="italic" lengthAdjust="spacing" textLength="121" x="118" y="38.9867">ContextResource</text><line style="stroke:#000000;stroke-width:1.0;" x1="94" x2="241" y1="48.14" y2="48.14"/><line style="stroke:#000000;stroke-width:1.0;" x1="94" x2="241" y1="56.14" y2="56.14"/></g><!--class ClassPathContextResource--><g id="elem_ClassPathContextResource"><rect fill="#FFFFFF" height="44" id="ClassPathContextResource" rx="2.5" ry="2.5" style="stroke:#000000;stroke-width:1.0;" width="217" x="59" y="140.44"/><ellipse cx="72" cy="154.44" fill="#FFFFFF" rx="9" ry="9" style="stroke:#000000;stroke-width:1.0;"/><path d="M74.3906,159.1431 Q73.9063,159.3931 73.375,159.5181 Q72.8594,159.6431 72.2813,159.6431 Q70.2188,159.6431 69.125,158.2837 Q68.0469,156.9244 68.0469,154.3462 Q68.0469,151.7681 69.125,150.4087 Q70.2188,149.0494 72.2813,149.0494 Q72.8594,149.0494 73.3906,149.1744 Q73.9219,149.2994 74.3906,149.5337 L74.3906,151.7837 Q73.875,151.2994 73.375,151.0806 Q72.8906,150.8619 72.375,150.8619 Q71.2656,150.8619 70.7031,151.7369 Q70.1406,152.6119 70.1406,154.3462 Q70.1406,156.065 70.7031,156.9556 Q71.2656,157.8306 72.375,157.8306 Q72.8906,157.8306 73.375,157.6119 Q73.875,157.3775 74.3906,156.9087 L74.3906,159.1431 Z " fill="#000000"/><text fill="#000000" font-family="Consolas" font-size="14" lengthAdjust="spacing" textLength="189" x="84" y="159.2867">ClassPathContextResource</text><line style="stroke:#000000;stroke-width:1.0;" x1="60" x2="275" y1="168.44" y2="168.44"/><line style="stroke:#000000;stroke-width:1.0;" x1="60" x2="275" y1="176.44" y2="176.44"/></g><!--class AbstractResource--><g id="elem_AbstractResource"><rect fill="#FFFFFF" height="44" id="AbstractResource" rx="2.5" ry="2.5" style="stroke:#000000;stroke-width:1.0;" width="152" x="313.5" y="140.44"/><ellipse cx="326.5" cy="154.44" fill="#FFFFFF" rx="9" ry="9" style="stroke:#000000;stroke-width:1.0;"/><path d="M328.8906,159.1431 Q328.4063,159.3931 327.875,159.5181 Q327.3594,159.6431 326.7813,159.6431 Q324.7188,159.6431 323.625,158.2837 Q322.5469,156.9244 322.5469,154.3462 Q322.5469,151.7681 323.625,150.4087 Q324.7188,149.0494 326.7813,149.0494 Q327.3594,149.0494 327.8906,149.1744 Q328.4219,149.2994 328.8906,149.5337 L328.8906,151.7837 Q328.375,151.2994 327.875,151.0806 Q327.3906,150.8619 326.875,150.8619 Q325.7656,150.8619 325.2031,151.7369 Q324.6406,152.6119 324.6406,154.3462 Q324.6406,156.065 325.2031,156.9556 Q325.7656,157.8306 326.875,157.8306 Q327.3906,157.8306 327.875,157.6119 Q328.375,157.3775 328.8906,156.9087 L328.8906,159.1431 Z " fill="#000000"/><text fill="#000000" font-family="Consolas" font-size="14" lengthAdjust="spacing" textLength="124" x="338.5" y="159.2867">AbstractResource</text><line style="stroke:#000000;stroke-width:1.0;" x1="314.5" x2="464.5" y1="168.44" y2="168.44"/><line style="stroke:#000000;stroke-width:1.0;" x1="314.5" x2="464.5" y1="176.44" y2="176.44"/></g><!--class FileSystemResource--><g id="elem_FileSystemResource"><rect fill="#FFFFFF" height="44" id="FileSystemResource" rx="2.5" ry="2.5" style="stroke:#000000;stroke-width:1.0;" width="169" x="12" y="252.59"/><ellipse cx="25" cy="266.59" fill="#FFFFFF" rx="9" ry="9" style="stroke:#000000;stroke-width:1.0;"/><path d="M27.3906,271.2931 Q26.9063,271.5431 26.375,271.6681 Q25.8594,271.7931 25.2813,271.7931 Q23.2188,271.7931 22.125,270.4338 Q21.0469,269.0744 21.0469,266.4963 Q21.0469,263.9181 22.125,262.5588 Q23.2188,261.1994 25.2813,261.1994 Q25.8594,261.1994 26.3906,261.3244 Q26.9219,261.4494 27.3906,261.6838 L27.3906,263.9338 Q26.875,263.4494 26.375,263.2306 Q25.8906,263.0119 25.375,263.0119 Q24.2656,263.0119 23.7031,263.8869 Q23.1406,264.7619 23.1406,266.4963 Q23.1406,268.215 23.7031,269.1056 Q24.2656,269.9806 25.375,269.9806 Q25.8906,269.9806 26.375,269.7619 Q26.875,269.5275 27.3906,269.0588 L27.3906,271.2931 Z " fill="#000000"/><text fill="#000000" font-family="Consolas" font-size="14" lengthAdjust="spacing" textLength="141" x="37" y="271.4367">FileSystemResource</text><line style="stroke:#000000;stroke-width:1.0;" x1="13" x2="180" y1="280.59" y2="280.59"/><line style="stroke:#000000;stroke-width:1.0;" x1="13" x2="180" y1="288.59" y2="288.59"/></g><!--class ByteArrayResource--><g id="elem_ByteArrayResource"><rect fill="#FFFFFF" height="44" id="ByteArrayResource" rx="2.5" ry="2.5" style="stroke:#000000;stroke-width:1.0;" width="160" x="215.5" y="252.59"/><ellipse cx="228.5" cy="266.59" fill="#FFFFFF" rx="9" ry="9" style="stroke:#000000;stroke-width:1.0;"/><path d="M230.8906,271.2931 Q230.4063,271.5431 229.875,271.6681 Q229.3594,271.7931 228.7813,271.7931 Q226.7188,271.7931 225.625,270.4338 Q224.5469,269.0744 224.5469,266.4963 Q224.5469,263.9181 225.625,262.5588 Q226.7188,261.1994 228.7813,261.1994 Q229.3594,261.1994 229.8906,261.3244 Q230.4219,261.4494 230.8906,261.6838 L230.8906,263.9338 Q230.375,263.4494 229.875,263.2306 Q229.3906,263.0119 228.875,263.0119 Q227.7656,263.0119 227.2031,263.8869 Q226.6406,264.7619 226.6406,266.4963 Q226.6406,268.215 227.2031,269.1056 Q227.7656,269.9806 228.875,269.9806 Q229.3906,269.9806 229.875,269.7619 Q230.375,269.5275 230.8906,269.0588 L230.8906,271.2931 Z " fill="#000000"/><text fill="#000000" font-family="Consolas" font-size="14" lengthAdjust="spacing" textLength="132" x="240.5" y="271.4367">ByteArrayResource</text><line style="stroke:#000000;stroke-width:1.0;" x1="216.5" x2="374.5" y1="280.59" y2="280.59"/><line style="stroke:#000000;stroke-width:1.0;" x1="216.5" x2="374.5" y1="288.59" y2="288.59"/></g><!--class EncodedResource--><g id="elem_EncodedResource"><rect fill="#FFFFFF" height="44" id="EncodedResource" rx="2.5" ry="2.5" style="stroke:#000000;stroke-width:1.0;" width="157" x="411" y="252.59"/><ellipse cx="424" cy="266.59" fill="#FFFFFF" rx="9" ry="9" style="stroke:#000000;stroke-width:1.0;"/><path d="M426.3906,271.2931 Q425.9063,271.5431 425.375,271.6681 Q424.8594,271.7931 424.2813,271.7931 Q422.2188,271.7931 421.125,270.4338 Q420.0469,269.0744 420.0469,266.4963 Q420.0469,263.9181 421.125,262.5588 Q422.2188,261.1994 424.2813,261.1994 Q424.8594,261.1994 425.3906,261.3244 Q425.9219,261.4494 426.3906,261.6838 L426.3906,263.9338 Q425.875,263.4494 425.375,263.2306 Q424.8906,263.0119 424.375,263.0119 Q423.2656,263.0119 422.7031,263.8869 Q422.1406,264.7619 422.1406,266.4963 Q422.1406,268.215 422.7031,269.1056 Q423.2656,269.9806 424.375,269.9806 Q424.8906,269.9806 425.375,269.7619 Q425.875,269.5275 426.3906,269.0588 L426.3906,271.2931 Z " fill="#000000"/><text fill="#000000" font-family="Consolas" font-size="14" lengthAdjust="spacing" textLength="129" x="436" y="271.4367">EncodedResource</text><line style="stroke:#000000;stroke-width:1.0;" x1="412" x2="567" y1="280.59" y2="280.59"/><line style="stroke:#000000;stroke-width:1.0;" x1="412" x2="567" y1="288.59" y2="288.59"/></g><!--class DefaultResourceLoader--><g id="elem_DefaultResourceLoader"><rect fill="#FFFFFF" height="44" id="DefaultResourceLoader" rx="2.5" ry="2.5" style="stroke:#000000;stroke-width:1.0;" width="191" x="932" y="140.44"/><ellipse cx="945" cy="154.44" fill="#FFFFFF" rx="9" ry="9" style="stroke:#000000;stroke-width:1.0;"/><path d="M947.3906,159.1431 Q946.9063,159.3931 946.375,159.5181 Q945.8594,159.6431 945.2813,159.6431 Q943.2188,159.6431 942.125,158.2837 Q941.0469,156.9244 941.0469,154.3462 Q941.0469,151.7681 942.125,150.4087 Q943.2188,149.0494 945.2813,149.0494 Q945.8594,149.0494 946.3906,149.1744 Q946.9219,149.2994 947.3906,149.5337 L947.3906,151.7837 Q946.875,151.2994 946.375,151.0806 Q945.8906,150.8619 945.375,150.8619 Q944.2656,150.8619 943.7031,151.7369 Q943.1406,152.6119 943.1406,154.3462 Q943.1406,156.065 943.7031,156.9556 Q944.2656,157.8306 945.375,157.8306 Q945.8906,157.8306 946.375,157.6119 Q946.875,157.3775 947.3906,156.9087 L947.3906,159.1431 Z " fill="#000000"/><text fill="#000000" font-family="Consolas" font-size="14" lengthAdjust="spacing" textLength="163" x="957" y="159.2867">DefaultResourceLoader</text><line style="stroke:#000000;stroke-width:1.0;" x1="933" x2="1122" y1="168.44" y2="168.44"/><line style="stroke:#000000;stroke-width:1.0;" x1="933" x2="1122" y1="176.44" y2="176.44"/></g><!--class FileSystemResourceLoader--><g id="elem_FileSystemResourceLoader"><rect fill="#FFFFFF" height="44" id="FileSystemResourceLoader" rx="2.5" ry="2.5" style="stroke:#000000;stroke-width:1.0;" width="216" x="937.5" y="252.59"/><ellipse cx="950.5" cy="266.59" fill="#FFFFFF" rx="9" ry="9" style="stroke:#000000;stroke-width:1.0;"/><path d="M952.8906,271.2931 Q952.4063,271.5431 951.875,271.6681 Q951.3594,271.7931 950.7813,271.7931 Q948.7188,271.7931 947.625,270.4338 Q946.5469,269.0744 946.5469,266.4963 Q946.5469,263.9181 947.625,262.5588 Q948.7188,261.1994 950.7813,261.1994 Q951.3594,261.1994 951.8906,261.3244 Q952.4219,261.4494 952.8906,261.6838 L952.8906,263.9338 Q952.375,263.4494 951.875,263.2306 Q951.3906,263.0119 950.875,263.0119 Q949.7656,263.0119 949.2031,263.8869 Q948.6406,264.7619 948.6406,266.4963 Q948.6406,268.215 949.2031,269.1056 Q949.7656,269.9806 950.875,269.9806 Q951.3906,269.9806 951.875,269.7619 Q952.375,269.5275 952.8906,269.0588 L952.8906,271.2931 Z " fill="#000000"/><text fill="#000000" font-family="Consolas" font-size="14" lengthAdjust="spacing" textLength="188" x="962.5" y="271.4367">FileSystemResourceLoader</text><line style="stroke:#000000;stroke-width:1.0;" x1="938.5" x2="1152.5" y1="280.59" y2="280.59"/><line style="stroke:#000000;stroke-width:1.0;" x1="938.5" x2="1152.5" y1="288.59" y2="288.59"/></g><!--class PathMatchingResourcePatternResolver--><g id="elem_PathMatchingResourcePatternResolver"><rect fill="#FFFFFF" height="44" id="PathMatchingResourcePatternResolver" rx="2.5" ry="2.5" style="stroke:#000000;stroke-width:1.0;" width="299" x="603" y="252.59"/><ellipse cx="616" cy="266.59" fill="#FFFFFF" rx="9" ry="9" style="stroke:#000000;stroke-width:1.0;"/><path d="M618.3906,271.2931 Q617.9063,271.5431 617.375,271.6681 Q616.8594,271.7931 616.2813,271.7931 Q614.2188,271.7931 613.125,270.4338 Q612.0469,269.0744 612.0469,266.4963 Q612.0469,263.9181 613.125,262.5588 Q614.2188,261.1994 616.2813,261.1994 Q616.8594,261.1994 617.3906,261.3244 Q617.9219,261.4494 618.3906,261.6838 L618.3906,263.9338 Q617.875,263.4494 617.375,263.2306 Q616.8906,263.0119 616.375,263.0119 Q615.2656,263.0119 614.7031,263.8869 Q614.1406,264.7619 614.1406,266.4963 Q614.1406,268.215 614.7031,269.1056 Q615.2656,269.9806 616.375,269.9806 Q616.8906,269.9806 617.375,269.7619 Q617.875,269.5275 618.3906,269.0588 L618.3906,271.2931 Z " fill="#000000"/><text fill="#000000" font-family="Consolas" font-size="14" lengthAdjust="spacing" textLength="271" x="628" y="271.4367">PathMatchingResourcePatternResolver</text><line style="stroke:#000000;stroke-width:1.0;" x1="604" x2="901" y1="280.59" y2="280.59"/><line style="stroke:#000000;stroke-width:1.0;" x1="604" x2="901" y1="288.59" y2="288.59"/></g><!--link ContextResource to Resource--><g id="link_ContextResource_Resource"><path codeLine="17" d="M242.31,42.14 C246.79,42.14 251.27,42.14 255.74,42.14 " fill="none" id="ContextResource-to-Resource" style="stroke:#000000;stroke-width:1.0;"/><polygon fill="none" points="255.7,35.14,275.7,42.14,255.7,49.14,255.7,35.14" style="stroke:#000000;stroke-width:1.0;"/></g><!--reverse link ContextResource to ClassPathContextResource--><g id="link_ContextResource_ClassPathContextResource"><path codeLine="18" d="M167.5,85.45 C167.5,104.01 167.5,124.98 167.5,140.18 " fill="none" id="ContextResource-backto-ClassPathContextResource" style="stroke:#000000;stroke-width:1.0;stroke-dasharray:7.0,7.0;"/><polygon fill="none" points="160.5,85.57,167.5,65.57,174.5,85.57,160.5,85.57" style="stroke:#000000;stroke-width:1.0;"/></g><!--reverse link Resource to AbstractResource--><g id="link_Resource_AbstractResource"><path codeLine="19" d="M390.65,93.53 C390.37,109.84 390.08,127.05 389.86,140.07 " fill="none" id="Resource-backto-AbstractResource" style="stroke:#000000;stroke-width:1.0;stroke-dasharray:7.0,7.0;"/><polygon fill="none" points="383.66,93.57,391,73.69,397.66,93.81,383.66,93.57" style="stroke:#000000;stroke-width:1.0;"/></g><!--reverse link AbstractResource to FileSystemResource--><g id="link_AbstractResource_FileSystemResource"><path codeLine="20" d="M312.92,192.23 C263.02,210.99 198.98,235.06 153.54,252.15 " fill="none" id="AbstractResource-backto-FileSystemResource" style="stroke:#000000;stroke-width:1.0;"/><polygon fill="none" points="310.13,185.43,331.31,184.94,315.05,198.53,310.13,185.43" style="stroke:#000000;stroke-width:1.0;"/></g><!--reverse link AbstractResource to ByteArrayResource--><g id="link_AbstractResource_ByteArrayResource"><path codeLine="21" d="M357.53,200.9 C342.95,217.99 326.21,237.6 313.8,252.15 " fill="none" id="AbstractResource-backto-ByteArrayResource" style="stroke:#000000;stroke-width:1.0;"/><polygon fill="none" points="352.85,196.61,371.15,185.94,363.49,205.7,352.85,196.61" style="stroke:#000000;stroke-width:1.0;"/></g><!--reverse link AbstractResource to EncodedResource--><g id="link_AbstractResource_EncodedResource"><path codeLine="22" d="M423.03,200.37 C438.65,217.58 456.69,237.45 470.03,252.15 " fill="none" id="AbstractResource-backto-EncodedResource" style="stroke:#000000;stroke-width:1.0;"/><polygon fill="none" points="418.28,205.45,410.02,185.94,428.64,196.04,418.28,205.45" style="stroke:#000000;stroke-width:1.0;"/></g><!--reverse link Resource to ResourceLoader--><g id="link_Resource_ResourceLoader"><path codeLine="24" d="M512.19,42.14 C553.05,42.14 593.9,42.14 634.75,42.14 " fill="none" id="Resource-backto-ResourceLoader" style="stroke:#000000;stroke-width:1.0;stroke-dasharray:7.0,7.0;"/><polygon fill="#000000" points="507.43,42.14,516.43,46.14,512.43,42.14,516.43,38.14,507.43,42.14" style="stroke:#000000;stroke-width:1.0;"/></g><!--reverse link ResourceLoader to DefaultResourceLoader--><g id="link_ResourceLoader_DefaultResourceLoader"><path codeLine="25" d="M840.4,80.96 C885.83,100.5 939.61,123.63 977.82,140.07 " fill="none" id="ResourceLoader-backto-DefaultResourceLoader" style="stroke:#000000;stroke-width:1.0;stroke-dasharray:7.0,7.0;"/><polygon fill="none" points="837.79,87.02,822.18,72.69,843.32,74.16,837.79,87.02" style="stroke:#000000;stroke-width:1.0;"/></g><!--reverse link DefaultResourceLoader to FileSystemResourceLoader--><g id="link_DefaultResourceLoader_FileSystemResourceLoader"><path codeLine="26" d="M1034.37,205.49 C1036.97,221.42 1039.83,238.89 1042,252.15 " fill="none" id="DefaultResourceLoader-backto-FileSystemResourceLoader" style="stroke:#000000;stroke-width:1.0;"/><polygon fill="none" points="1027.33,206.81,1031.01,185.94,1041.15,204.55,1027.33,206.81" style="stroke:#000000;stroke-width:1.0;"/></g><!--reverse link ResourceLoader to ResourcePatternResolver--><g id="link_ResourceLoader_ResourcePatternResolver"><path codeLine="27" d="M752.5,93.63 C752.5,106.67 752.5,120.28 752.5,131.86 " fill="none" id="ResourceLoader-backto-ResourcePatternResolver" style="stroke:#000000;stroke-width:1.0;stroke-dasharray:7.0,7.0;"/><polygon fill="none" points="745.5,93.69,752.5,73.69,759.5,93.69,745.5,93.69" style="stroke:#000000;stroke-width:1.0;"/></g><!--reverse link ResourcePatternResolver to PathMatchingResourcePatternResolver--><g id="link_ResourcePatternResolver_PathMatchingResourcePatternResolver"><path codeLine="28" d="M752.5,213.59 C752.5,227.24 752.5,241.3 752.5,252.37 " fill="none" id="ResourcePatternResolver-backto-PathMatchingResourcePatternResolver" style="stroke:#000000;stroke-width:1.0;stroke-dasharray:7.0,7.0;"/><polygon fill="none" points="745.5,213.96,752.5,193.96,759.5,213.96,745.5,213.96" style="stroke:#000000;stroke-width:1.0;"/></g><!--SRC=[ZL5DJyCm33tZNn5kcz0g8N566eD9am0XUaGSJEkjqTAaIbn4WVrtKXNQaWMLM_pyFkpub0igILGAfGQtbxf2YwLWoOhMHdCgtqcSNunQEMsnLZpPl4VlkpBQ6OKEf6QoMyn8F98pjVMF3pWv4plYZQvgJjaIbhEv65LmW8Zkrc1EjbV_m3ElaNetxtbnzGEoXtHRgjU8ZJloUNhsJeEHtuZfZOSj3X122xlul1pcMFdzdSyjGbvI9vuNeB1ySMmn2sbzVoqLfOrZAeV0kWqCXN3LC2sjnMQAUACparC-HOFW18bAHdDTTwSFER-6xy382j_iBZZg17zTC9hGVlSTSbRuK_vF67I_0000]--></g></svg>