<?xml version="1.0" encoding="us-ascii" standalone="no"?><svg xmlns="http://www.w3.org/2000/svg" xmlns:xlink="http://www.w3.org/1999/xlink" contentStyleType="text/css" height="264px" preserveAspectRatio="none" style="width:991px;height:264px;background:#FFFFFF;" version="1.1" viewBox="0 0 991 264" width="991px" zoomAndPan="magnify"><defs/><g><!--class BeanDefinitionReader--><g id="elem_BeanDefinitionReader"><rect codeLine="5" fill="#FFFFFF" height="125.4844" id="BeanDefinitionReader" rx="2.5" ry="2.5" style="stroke:#000000;stroke-width:1.0;" width="353" x="12" y="12"/><ellipse cx="109.25" cy="26" fill="#FFFFFF" rx="9" ry="9" style="stroke:#000000;stroke-width:1.0;"/><path d="M106.4219,22.5781 L106.4219,20.7969 L112.5,20.7969 L112.5,22.5781 L110.4688,22.5781 L110.4688,29.2188 L112.5,29.2188 L112.5,31 L106.4219,31 L106.4219,29.2188 L108.4531,29.2188 L108.4531,22.5781 L106.4219,22.5781 Z " fill="#000000"/><text fill="#000000" font-family="Consolas" font-size="14" font-style="italic" lengthAdjust="spacing" textLength="151" x="126.75" y="30.8467">BeanDefinitionReader</text><line style="stroke:#000000;stroke-width:1.0;" x1="13" x2="364" y1="40" y2="40"/><line style="stroke:#000000;stroke-width:1.0;" x1="13" x2="364" y1="48" y2="48"/><ellipse cx="23" cy="61.6484" fill="#FFFFFF" rx="3" ry="3" style="stroke:#000000;stroke-width:1.0;"/><text fill="#000000" font-family="Consolas" font-size="14" lengthAdjust="spacing" textLength="250" x="30" y="64.9951">getRegistry() BeanDefinitionRegistry</text><ellipse cx="23" cy="77.9453" fill="#FFFFFF" rx="3" ry="3" style="stroke:#000000;stroke-width:1.0;"/><text fill="#000000" font-family="Consolas" font-size="14" lengthAdjust="spacing" textLength="265" x="30" y="81.292">getResourceLoader() ResourceLoader</text><ellipse cx="23" cy="94.2422" fill="#FFFFFF" rx="3" ry="3" style="stroke:#000000;stroke-width:1.0;"/><text fill="#000000" font-family="Consolas" font-size="14" lengthAdjust="spacing" textLength="329" x="30" y="97.5889">getBeanNameGenerator() BeanNameGenerator</text><ellipse cx="23" cy="110.5391" fill="#FFFFFF" rx="3" ry="3" style="stroke:#000000;stroke-width:1.0;"/><text fill="#000000" font-family="Consolas" font-size="14" lengthAdjust="spacing" textLength="209" x="30" y="113.8857">loadBeanDefinitions(String) int</text><ellipse cx="23" cy="126.8359" fill="#FFFFFF" rx="3" ry="3" style="stroke:#000000;stroke-width:1.0;"/><text fill="#000000" font-family="Consolas" font-size="14" lengthAdjust="spacing" textLength="236" x="30" y="130.1826">loadBeanDefinitions(Resource) int</text></g><!--class AbstractBeanDefinitionReader--><g id="elem_AbstractBeanDefinitionReader"><rect codeLine="12" fill="#FFFFFF" height="109.1875" id="AbstractBeanDefinitionReader" rx="2.5" ry="2.5" style="stroke:#000000;stroke-width:1.0;" width="319" x="400" y="20.15"/><ellipse cx="451.75" cy="34.15" fill="#FFFFFF" rx="9" ry="9" style="stroke:#000000;stroke-width:1.0;"/><path d="M451.4688,30.2906 L450.5156,34.4625 L452.4219,34.4625 L451.4688,30.2906 Z M450.2344,28.4469 L452.7031,28.4469 L455.4531,38.65 L453.4375,38.65 L452.8125,36.1344 L450.1094,36.1344 L449.5,38.65 L447.4688,38.65 L450.2344,28.4469 Z " fill="#000000"/><text fill="#000000" font-family="Consolas" font-size="14" font-style="italic" lengthAdjust="spacing" textLength="208" x="469.25" y="38.9967">AbstractBeanDefinitionReader</text><line style="stroke:#000000;stroke-width:1.0;" x1="401" x2="718" y1="48.15" y2="48.15"/><rect fill="none" height="6" style="stroke:#000000;stroke-width:1.0;" width="6" x="408" y="58.7984"/><text fill="#000000" font-family="Consolas" font-size="14" lengthAdjust="spacing" textLength="212" x="418" y="65.1451">BeanDefinitionRegistry registry</text><rect fill="none" height="6" style="stroke:#000000;stroke-width:1.0;" width="6" x="408" y="75.0953"/><text fill="#000000" font-family="Consolas" font-size="14" lengthAdjust="spacing" textLength="227" x="418" y="81.442">ResourceLoader resourceLoader</text><rect fill="none" height="6" style="stroke:#000000;stroke-width:1.0;" width="6" x="408" y="91.3922"/><text fill="#000000" font-family="Consolas" font-size="14" lengthAdjust="spacing" textLength="295" x="418" y="97.7389">BeanNameGenerator beanNameGenerator</text><line style="stroke:#000000;stroke-width:1.0;" x1="401" x2="718" y1="105.0406" y2="105.0406"/><ellipse cx="411" cy="118.6891" fill="#FFFFFF" rx="3" ry="3" style="stroke:#000000;stroke-width:1.0;"/><text fill="#000000" font-family="Consolas" font-size="14" lengthAdjust="spacing" textLength="209" x="418" y="122.0357">loadBeanDefinitions(String) int</text></g><!--class XmlBeanDefinitionReader--><g id="elem_XmlBeanDefinitionReader"><rect codeLine="18" fill="#FFFFFF" height="60.2969" id="XmlBeanDefinitionReader" rx="2.5" ry="2.5" style="stroke:#000000;stroke-width:1.0;" width="260" x="134.5" y="197.48"/><ellipse cx="172.75" cy="211.48" fill="#FFFFFF" rx="9" ry="9" style="stroke:#000000;stroke-width:1.0;"/><path d="M175.1406,216.1831 Q174.6563,216.4331 174.125,216.5581 Q173.6094,216.6831 173.0313,216.6831 Q170.9688,216.6831 169.875,215.3238 Q168.7969,213.9644 168.7969,211.3863 Q168.7969,208.8081 169.875,207.4488 Q170.9688,206.0894 173.0313,206.0894 Q173.6094,206.0894 174.1406,206.2144 Q174.6719,206.3394 175.1406,206.5738 L175.1406,208.8238 Q174.625,208.3394 174.125,208.1206 Q173.6406,207.9019 173.125,207.9019 Q172.0156,207.9019 171.4531,208.7769 Q170.8906,209.6519 170.8906,211.3863 Q170.8906,213.105 171.4531,213.9956 Q172.0156,214.8706 173.125,214.8706 Q173.6406,214.8706 174.125,214.6519 Q174.625,214.4175 175.1406,213.9488 L175.1406,216.1831 Z " fill="#000000"/><text fill="#000000" font-family="Consolas" font-size="14" lengthAdjust="spacing" textLength="176" x="190.25" y="216.3267">XmlBeanDefinitionReader</text><line style="stroke:#000000;stroke-width:1.0;" x1="135.5" x2="393.5" y1="225.48" y2="225.48"/><line style="stroke:#000000;stroke-width:1.0;" x1="135.5" x2="393.5" y1="233.48" y2="233.48"/><ellipse cx="145.5" cy="247.1284" fill="#FFFFFF" rx="3" ry="3" style="stroke:#000000;stroke-width:1.0;"/><text fill="#000000" font-family="Consolas" font-size="14" lengthAdjust="spacing" textLength="236" x="152.5" y="250.4751">loadBeanDefinitions(Resource) int</text></g><!--class GroovyBeanDefinitionReader--><g id="elem_GroovyBeanDefinitionReader"><rect codeLine="21" fill="#FFFFFF" height="60.2969" id="GroovyBeanDefinitionReader" rx="2.5" ry="2.5" style="stroke:#000000;stroke-width:1.0;" width="260" x="429.5" y="197.48"/><ellipse cx="457.35" cy="211.48" fill="#FFFFFF" rx="9" ry="9" style="stroke:#000000;stroke-width:1.0;"/><path d="M459.7406,216.1831 Q459.2563,216.4331 458.725,216.5581 Q458.2094,216.6831 457.6313,216.6831 Q455.5688,216.6831 454.475,215.3238 Q453.3969,213.9644 453.3969,211.3863 Q453.3969,208.8081 454.475,207.4488 Q455.5688,206.0894 457.6313,206.0894 Q458.2094,206.0894 458.7406,206.2144 Q459.2719,206.3394 459.7406,206.5738 L459.7406,208.8238 Q459.225,208.3394 458.725,208.1206 Q458.2406,207.9019 457.725,207.9019 Q456.6156,207.9019 456.0531,208.7769 Q455.4906,209.6519 455.4906,211.3863 Q455.4906,213.105 456.0531,213.9956 Q456.6156,214.8706 457.725,214.8706 Q458.2406,214.8706 458.725,214.6519 Q459.225,214.4175 459.7406,213.9488 L459.7406,216.1831 Z " fill="#000000"/><text fill="#000000" font-family="Consolas" font-size="14" lengthAdjust="spacing" textLength="199" x="472.65" y="216.3267">GroovyBeanDefinitionReader</text><line style="stroke:#000000;stroke-width:1.0;" x1="430.5" x2="688.5" y1="225.48" y2="225.48"/><line style="stroke:#000000;stroke-width:1.0;" x1="430.5" x2="688.5" y1="233.48" y2="233.48"/><ellipse cx="440.5" cy="247.1284" fill="#FFFFFF" rx="3" ry="3" style="stroke:#000000;stroke-width:1.0;"/><text fill="#000000" font-family="Consolas" font-size="14" lengthAdjust="spacing" textLength="236" x="447.5" y="250.4751">loadBeanDefinitions(Resource) int</text></g><!--class PropertiesBeanDefinitionReader--><g id="elem_PropertiesBeanDefinitionReader"><rect codeLine="24" fill="#FFFFFF" height="60.2969" id="PropertiesBeanDefinitionReader" rx="2.5" ry="2.5" style="stroke:#000000;stroke-width:1.0;" width="260" x="724.5" y="197.48"/><ellipse cx="742" cy="211.48" fill="#FFFFFF" rx="9" ry="9" style="stroke:#000000;stroke-width:1.0;"/><path d="M744.3906,216.1831 Q743.9063,216.4331 743.375,216.5581 Q742.8594,216.6831 742.2813,216.6831 Q740.2188,216.6831 739.125,215.3238 Q738.0469,213.9644 738.0469,211.3863 Q738.0469,208.8081 739.125,207.4488 Q740.2188,206.0894 742.2813,206.0894 Q742.8594,206.0894 743.3906,206.2144 Q743.9219,206.3394 744.3906,206.5738 L744.3906,208.8238 Q743.875,208.3394 743.375,208.1206 Q742.8906,207.9019 742.375,207.9019 Q741.2656,207.9019 740.7031,208.7769 Q740.1406,209.6519 740.1406,211.3863 Q740.1406,213.105 740.7031,213.9956 Q741.2656,214.8706 742.375,214.8706 Q742.8906,214.8706 743.375,214.6519 Q743.875,214.4175 744.3906,213.9488 L744.3906,216.1831 Z " fill="#000000"/><text fill="#000000" font-family="Consolas" font-size="14" lengthAdjust="spacing" textLength="222" x="755" y="216.3267">PropertiesBeanDefinitionReader</text><line style="stroke:#000000;stroke-width:1.0;" x1="725.5" x2="983.5" y1="225.48" y2="225.48"/><line style="stroke:#000000;stroke-width:1.0;" x1="725.5" x2="983.5" y1="233.48" y2="233.48"/><ellipse cx="735.5" cy="247.1284" fill="#FFFFFF" rx="3" ry="3" style="stroke:#000000;stroke-width:1.0;"/><text fill="#000000" font-family="Consolas" font-size="14" lengthAdjust="spacing" textLength="236" x="742.5" y="250.4751">loadBeanDefinitions(Resource) int</text></g><!--reverse link BeanDefinitionReader to AbstractBeanDefinitionReader--><g id="link_BeanDefinitionReader_AbstractBeanDefinitionReader"><path codeLine="27" d="M386.07,74.74 C390.65,74.74 395.24,74.74 399.82,74.74 " fill="none" id="BeanDefinitionReader-backto-AbstractBeanDefinitionReader" style="stroke:#000000;stroke-width:1.0;stroke-dasharray:7.0,7.0;"/><polygon fill="none" points="386.3,81.74,366.3,74.74,386.3,67.74,386.3,81.74" style="stroke:#000000;stroke-width:1.0;"/></g><!--reverse link AbstractBeanDefinitionReader to XmlBeanDefinitionReader--><g id="link_AbstractBeanDefinitionReader_XmlBeanDefinitionReader"><path codeLine="28" d="M435.4,139.22 C396.14,159.3 354.61,180.54 322.33,197.05 " fill="none" id="AbstractBeanDefinitionReader-backto-XmlBeanDefinitionReader" style="stroke:#000000;stroke-width:1.0;"/><polygon fill="none" points="431.84,132.67,452.83,129.79,438.21,145.13,431.84,132.67" style="stroke:#000000;stroke-width:1.0;"/></g><!--reverse link AbstractBeanDefinitionReader to GroovyBeanDefinitionReader--><g id="link_AbstractBeanDefinitionReader_GroovyBeanDefinitionReader"><path codeLine="29" d="M559.5,150.75 C559.5,167.2 559.5,183.68 559.5,197.05 " fill="none" id="AbstractBeanDefinitionReader-backto-GroovyBeanDefinitionReader" style="stroke:#000000;stroke-width:1.0;"/><polygon fill="none" points="552.5,150.79,559.5,130.79,566.5,150.79,552.5,150.79" style="stroke:#000000;stroke-width:1.0;"/></g><!--reverse link AbstractBeanDefinitionReader to PropertiesBeanDefinitionReader--><g id="link_AbstractBeanDefinitionReader_PropertiesBeanDefinitionReader"><path codeLine="30" d="M683.6,139.22 C722.86,159.3 764.39,180.54 796.67,197.05 " fill="none" id="AbstractBeanDefinitionReader-backto-PropertiesBeanDefinitionReader" style="stroke:#000000;stroke-width:1.0;"/><polygon fill="none" points="680.79,145.13,666.17,129.79,687.16,132.67,680.79,145.13" style="stroke:#000000;stroke-width:1.0;"/></g><!--SRC=[hP9DJyCm38RFv5UOsoRKIKYSaVWGko24jWjNhtCxYpIf71TfmFuxgLecocWx0SVOhr_xiNEg6oe8IeliJ7XcLw9W0SfgwSuxNV8hmVd5bzIQCgoiZYOVCFhUU1UynM3OAKc6AS4reRkbZ1qhUxSWN9F0cpavWvnqGJa7bUraUg1h4djTy9MaTE_hygZk1bfLRL6FCIT7WkgbjUt4QgsDLTr-OR9KOPTF8KxU9_biseXs1bTnH4mLqeWSuAfzzX4dFOmWUzZa6rXCTJcJGo1O_GPnPvgXdmhRVw5Zbj3OpCNxb-r_E3sABqcKAVpDRV0QCpjxl_pnQvg-XIHL4ak6NCt04ewe7W4VT_W0]--></g></svg>