<?xml version="1.0" encoding="us-ascii" standalone="no"?><svg xmlns="http://www.w3.org/2000/svg" xmlns:xlink="http://www.w3.org/1999/xlink" contentStyleType="text/css" height="46px" preserveAspectRatio="none" style="width:640px;height:46px;background:#FFFFFF;" version="1.1" viewBox="0 0 640 46" width="640px" zoomAndPan="magnify"><defs/><g><ellipse cx="16" cy="23.99" fill="#222222" rx="10" ry="10" style="stroke:none;stroke-width:1.0;"/><rect fill="#F1F1F1" height="33.9688" rx="12.5" ry="12.5" style="stroke:#181818;stroke-width:0.5;" width="132" x="46" y="7"/><text fill="#000000" font-family="sans-serif" font-size="12" lengthAdjust="spacing" textLength="112" x="56" y="28.1387">1. &#30417;&#25511;&#34394;&#25311;&#26426;&#30340;&#34892;&#20026;</text><rect fill="#F1F1F1" height="33.9688" rx="12.5" ry="12.5" style="stroke:#181818;stroke-width:0.5;" width="84" x="198" y="7"/><text fill="#000000" font-family="sans-serif" font-size="12" lengthAdjust="spacing" textLength="64" x="208" y="28.1387">2. &#30830;&#23450;&#30446;&#26631;</text><rect fill="#F1F1F1" height="33.9688" rx="12.5" ry="12.5" style="stroke:#181818;stroke-width:0.5;" width="84" x="302" y="7"/><text fill="#000000" font-family="sans-serif" font-size="12" lengthAdjust="spacing" textLength="64" x="312" y="28.1387">3. &#21046;&#23450;&#26041;&#26696;</text><rect fill="#F1F1F1" height="33.9688" rx="12.5" ry="12.5" style="stroke:#181818;stroke-width:0.5;" width="84" x="406" y="7"/><text fill="#000000" font-family="sans-serif" font-size="12" lengthAdjust="spacing" textLength="64" x="416" y="28.1387">4. &#39564;&#35777;&#26041;&#26696;</text><rect fill="#F1F1F1" height="33.9688" rx="12.5" ry="12.5" style="stroke:#181818;stroke-width:0.5;" width="84" x="510" y="7"/><text fill="#000000" font-family="sans-serif" font-size="12" lengthAdjust="spacing" textLength="64" x="520" y="28.1387">5. &#32467;&#26524;&#39564;&#25910;</text><ellipse cx="624" cy="23.99" fill="none" rx="10" ry="10" style="stroke:#222222;stroke-width:1.0;"/><ellipse cx="624.5" cy="24.49" fill="#222222" rx="6" ry="6" style="stroke:none;stroke-width:1.0;"/><!--link start to 1. ????????--><g id="link_start_1. &#30417;&#25511;&#34394;&#25311;&#26426;&#30340;&#34892;&#20026;"><path d="M26.5,23.99 C30.86,23.99 35.23,23.99 39.59,23.99 " fill="none" id="start-to-1. &#30417;&#25511;&#34394;&#25311;&#26426;&#30340;&#34892;&#20026;" style="stroke:#181818;stroke-width:1.0;"/><polygon fill="#181818" points="44.54,23.99,35.54,19.99,39.54,23.99,35.54,27.99,44.54,23.99" style="stroke:#181818;stroke-width:1.0;"/></g><!--link 1. ???????? to 2. ????--><g id="link_1. &#30417;&#25511;&#34394;&#25311;&#26426;&#30340;&#34892;&#20026;_2. &#30830;&#23450;&#30446;&#26631;"><path d="M178,23.99 C182.65,23.99 187.31,23.99 191.96,23.99 " fill="none" id="1. &#30417;&#25511;&#34394;&#25311;&#26426;&#30340;&#34892;&#20026;-to-2. &#30830;&#23450;&#30446;&#26631;" style="stroke:#181818;stroke-width:1.0;"/><polygon fill="#181818" points="196.86,23.99,187.86,19.99,191.86,23.99,187.86,27.99,196.86,23.99" style="stroke:#181818;stroke-width:1.0;"/></g><!--link 2. ???? to 3. ????--><g id="link_2. &#30830;&#23450;&#30446;&#26631;_3. &#21046;&#23450;&#26041;&#26696;"><path d="M282.25,23.99 C286.77,23.99 291.3,23.99 295.82,23.99 " fill="none" id="2. &#30830;&#23450;&#30446;&#26631;-to-3. &#21046;&#23450;&#26041;&#26696;" style="stroke:#181818;stroke-width:1.0;"/><polygon fill="#181818" points="300.55,23.99,291.55,19.99,295.55,23.99,291.55,27.99,300.55,23.99" style="stroke:#181818;stroke-width:1.0;"/></g><!--link 3. ???? to 4. ????--><g id="link_3. &#21046;&#23450;&#26041;&#26696;_4. &#39564;&#35777;&#26041;&#26696;"><path d="M386.25,23.99 C390.77,23.99 395.3,23.99 399.82,23.99 " fill="none" id="3. &#21046;&#23450;&#26041;&#26696;-to-4. &#39564;&#35777;&#26041;&#26696;" style="stroke:#181818;stroke-width:1.0;"/><polygon fill="#181818" points="404.55,23.99,395.55,19.99,399.55,23.99,395.55,27.99,404.55,23.99" style="stroke:#181818;stroke-width:1.0;"/></g><!--link 4. ???? to 5. ????--><g id="link_4. &#39564;&#35777;&#26041;&#26696;_5. &#32467;&#26524;&#39564;&#25910;"><path d="M490.25,23.99 C494.77,23.99 499.3,23.99 503.82,23.99 " fill="none" id="4. &#39564;&#35777;&#26041;&#26696;-to-5. &#32467;&#26524;&#39564;&#25910;" style="stroke:#181818;stroke-width:1.0;"/><polygon fill="#181818" points="508.55,23.99,499.55,19.99,503.55,23.99,499.55,27.99,508.55,23.99" style="stroke:#181818;stroke-width:1.0;"/></g><!--link 5. ???? to end--><g id="link_5. &#32467;&#26524;&#39564;&#25910;_end"><path d="M594.47,23.99 C599.01,23.99 603.55,23.99 608.1,23.99 " fill="none" id="5. &#32467;&#26524;&#39564;&#25910;-to-end" style="stroke:#181818;stroke-width:1.0;"/><polygon fill="#181818" points="612.85,23.99,603.85,19.99,607.85,23.99,603.85,27.99,612.85,23.99" style="stroke:#181818;stroke-width:1.0;"/></g><!--SRC=[qz3ILD0jqhLJCDHJU3vxuhE-vIzcpdhMFV_Pd5tFPxMyMDZpPCSkBh028w22XUkUhflrVFQwPmlQ8OB6UWfFExO11PzDs_biOGT4q4HFuUMgdXVh6v45JO7QTqz-DcyEKEhPb6qGGGqjJG00]--></g></svg>