<?xml version="1.0" encoding="us-ascii" standalone="no"?><svg xmlns="http://www.w3.org/2000/svg" xmlns:xlink="http://www.w3.org/1999/xlink" contentStyleType="text/css" height="251px" preserveAspectRatio="none" style="width:591px;height:251px;background:#FFFFFF;" version="1.1" viewBox="0 0 591 251" width="591px" zoomAndPan="magnify"><defs/><g><!--class Set--><g id="elem_Set"><rect codeLine="5" fill="#FFFFFF" height="44" id="Set" rx="2.5" ry="2.5" style="stroke:#000000;stroke-width:1.0;" width="64" x="12" y="15"/><ellipse cx="25" cy="29" fill="#FFFFFF" rx="9" ry="9" style="stroke:#000000;stroke-width:1.0;"/><path d="M22.1719,25.5781 L22.1719,23.7969 L28.25,23.7969 L28.25,25.5781 L26.2188,25.5781 L26.2188,32.2188 L28.25,32.2188 L28.25,34 L22.1719,34 L22.1719,32.2188 L24.2031,32.2188 L24.2031,25.5781 L22.1719,25.5781 Z " fill="#000000"/><text fill="#000000" font-family="Consolas" font-size="14" font-style="italic" lengthAdjust="spacing" textLength="23" x="37" y="33.8467">Set</text><rect fill="#FFFFFF" height="18.2969" style="stroke:#000000;stroke-width:1.0;stroke-dasharray:2.0,2.0;" width="11" x="68" y="12"/><text fill="#000000" font-family="Verdana" font-size="14" font-style="italic" lengthAdjust="spacing" textLength="9" x="69" y="25.9951">E</text><line style="stroke:#000000;stroke-width:1.0;" x1="13" x2="75" y1="43" y2="43"/><line style="stroke:#000000;stroke-width:1.0;" x1="13" x2="75" y1="51" y2="51"/></g><!--class SortedSet--><g id="elem_SortedSet"><rect codeLine="6" fill="#FFFFFF" height="44" id="SortedSet" rx="2.5" ry="2.5" style="stroke:#000000;stroke-width:1.0;" width="110" x="111" y="15"/><ellipse cx="124" cy="29" fill="#FFFFFF" rx="9" ry="9" style="stroke:#000000;stroke-width:1.0;"/><path d="M121.1719,25.5781 L121.1719,23.7969 L127.25,23.7969 L127.25,25.5781 L125.2188,25.5781 L125.2188,32.2188 L127.25,32.2188 L127.25,34 L121.1719,34 L121.1719,32.2188 L123.2031,32.2188 L123.2031,25.5781 L121.1719,25.5781 Z " fill="#000000"/><text fill="#000000" font-family="Consolas" font-size="14" font-style="italic" lengthAdjust="spacing" textLength="69" x="136" y="33.8467">SortedSet</text><rect fill="#FFFFFF" height="18.2969" style="stroke:#000000;stroke-width:1.0;stroke-dasharray:2.0,2.0;" width="11" x="213" y="12"/><text fill="#000000" font-family="Verdana" font-size="14" font-style="italic" lengthAdjust="spacing" textLength="9" x="214" y="25.9951">E</text><line style="stroke:#000000;stroke-width:1.0;" x1="112" x2="220" y1="43" y2="43"/><line style="stroke:#000000;stroke-width:1.0;" x1="112" x2="220" y1="51" y2="51"/></g><!--class NavigableSet--><g id="elem_NavigableSet"><rect codeLine="7" fill="#FFFFFF" height="44" id="NavigableSet" rx="2.5" ry="2.5" style="stroke:#000000;stroke-width:1.0;" width="130" x="256" y="15"/><ellipse cx="269" cy="29" fill="#FFFFFF" rx="9" ry="9" style="stroke:#000000;stroke-width:1.0;"/><path d="M266.1719,25.5781 L266.1719,23.7969 L272.25,23.7969 L272.25,25.5781 L270.2188,25.5781 L270.2188,32.2188 L272.25,32.2188 L272.25,34 L266.1719,34 L266.1719,32.2188 L268.2031,32.2188 L268.2031,25.5781 L266.1719,25.5781 Z " fill="#000000"/><text fill="#000000" font-family="Consolas" font-size="14" font-style="italic" lengthAdjust="spacing" textLength="89" x="281" y="33.8467">NavigableSet</text><rect fill="#FFFFFF" height="18.2969" style="stroke:#000000;stroke-width:1.0;stroke-dasharray:2.0,2.0;" width="11" x="378" y="12"/><text fill="#000000" font-family="Verdana" font-size="14" font-style="italic" lengthAdjust="spacing" textLength="9" x="379" y="25.9951">E</text><line style="stroke:#000000;stroke-width:1.0;" x1="257" x2="385" y1="43" y2="43"/><line style="stroke:#000000;stroke-width:1.0;" x1="257" x2="385" y1="51" y2="51"/></g><!--class TreeSet--><g id="elem_TreeSet"><rect codeLine="8" fill="#FFFFFF" height="125.4844" id="TreeSet" rx="2.5" ry="2.5" style="stroke:#000000;stroke-width:1.0;" width="218" x="212" y="119"/><ellipse cx="289.75" cy="133" fill="#FFFFFF" rx="9" ry="9" style="stroke:#000000;stroke-width:1.0;"/><path d="M292.1406,137.7031 Q291.6563,137.9531 291.125,138.0781 Q290.6094,138.2031 290.0313,138.2031 Q287.9688,138.2031 286.875,136.8438 Q285.7969,135.4844 285.7969,132.9063 Q285.7969,130.3281 286.875,128.9688 Q287.9688,127.6094 290.0313,127.6094 Q290.6094,127.6094 291.1406,127.7344 Q291.6719,127.8594 292.1406,128.0938 L292.1406,130.3438 Q291.625,129.8594 291.125,129.6406 Q290.6406,129.4219 290.125,129.4219 Q289.0156,129.4219 288.4531,130.2969 Q287.8906,131.1719 287.8906,132.9063 Q287.8906,134.625 288.4531,135.5156 Q289.0156,136.3906 290.125,136.3906 Q290.6406,136.3906 291.125,136.1719 Q291.625,135.9375 292.1406,135.4688 L292.1406,137.7031 Z " fill="#000000"/><text fill="#000000" font-family="Consolas" font-size="14" lengthAdjust="spacing" textLength="55" x="307.25" y="137.8467">TreeSet</text><line style="stroke:#000000;stroke-width:1.0;" x1="213" x2="429" y1="147" y2="147"/><rect fill="none" height="6" style="stroke:#000000;stroke-width:1.0;" width="6" x="220" y="157.6484"/><text fill="#000000" font-family="Consolas" font-size="14" lengthAdjust="spacing" textLength="194" x="230" y="163.9951">NavigableMap&lt;E,Object&gt; m</text><rect fill="none" height="6" style="stroke:#000000;stroke-width:1.0;" width="6" x="220" y="173.9453"/><text fill="#000000" font-family="Consolas" font-size="14" lengthAdjust="spacing" text-decoration="underline" textLength="114" x="230" y="180.292">Object PRESENT</text><line style="stroke:#000000;stroke-width:1.0;" x1="213" x2="429" y1="187.5938" y2="187.5938"/><ellipse cx="223" cy="201.2422" fill="#FFFFFF" rx="3" ry="3" style="stroke:#000000;stroke-width:1.0;"/><text fill="#000000" font-family="Consolas" font-size="14" lengthAdjust="spacing" textLength="105" x="230" y="204.5889">add(E) boolean</text><ellipse cx="223" cy="217.5391" fill="#FFFFFF" rx="3" ry="3" style="stroke:#000000;stroke-width:1.0;"/><text fill="#000000" font-family="Consolas" font-size="14" lengthAdjust="spacing" textLength="138" x="230" y="220.8857">contains(E) boolean</text><ellipse cx="223" cy="233.8359" fill="#FFFFFF" rx="3" ry="3" style="stroke:#000000;stroke-width:1.0;"/><text fill="#000000" font-family="Consolas" font-size="14" lengthAdjust="spacing" textLength="131" x="230" y="237.1826">remove(E) boolean</text></g><!--class TreeMap--><g id="elem_TreeMap"><rect codeLine="15" fill="#FFFFFF" height="44" id="TreeMap" rx="2.5" ry="2.5" style="stroke:#000000;stroke-width:1.0;" width="115" x="465.5" y="159.74"/><ellipse cx="478.5" cy="173.74" fill="#FFFFFF" rx="9" ry="9" style="stroke:#000000;stroke-width:1.0;"/><path d="M480.8906,178.4431 Q480.4063,178.6931 479.875,178.8181 Q479.3594,178.9431 478.7813,178.9431 Q476.7188,178.9431 475.625,177.5837 Q474.5469,176.2244 474.5469,173.6462 Q474.5469,171.0681 475.625,169.7087 Q476.7188,168.3494 478.7813,168.3494 Q479.3594,168.3494 479.8906,168.4744 Q480.4219,168.5994 480.8906,168.8337 L480.8906,171.0837 Q480.375,170.5994 479.875,170.3806 Q479.3906,170.1619 478.875,170.1619 Q477.7656,170.1619 477.2031,171.0369 Q476.6406,171.9119 476.6406,173.6462 Q476.6406,175.365 477.2031,176.2556 Q477.7656,177.1306 478.875,177.1306 Q479.3906,177.1306 479.875,176.9119 Q480.375,176.6775 480.8906,176.2087 L480.8906,178.4431 Z " fill="#000000"/><text fill="#000000" font-family="Consolas" font-size="14" lengthAdjust="spacing" textLength="61" x="490.5" y="178.5867">TreeMap</text><rect fill="#FFFFFF" height="18.2969" style="stroke:#000000;stroke-width:1.0;stroke-dasharray:2.0,2.0;" width="24" x="559.5" y="156.74"/><text fill="#000000" font-family="Verdana" font-size="14" font-style="italic" lengthAdjust="spacing" textLength="22" x="560.5" y="170.7351">K,V</text><line style="stroke:#000000;stroke-width:1.0;" x1="466.5" x2="579.5" y1="187.74" y2="187.74"/><line style="stroke:#000000;stroke-width:1.0;" x1="466.5" x2="579.5" y1="195.74" y2="195.74"/></g><!--reverse link Set to SortedSet--><g id="link_Set_SortedSet"><path codeLine="17" d="M97.31,37 C101.77,37 106.24,37 110.7,37 " fill="none" id="Set-backto-SortedSet" style="stroke:#000000;stroke-width:1.0;"/><polygon fill="none" points="97.41,44,77.41,37,97.41,30,97.41,44" style="stroke:#000000;stroke-width:1.0;"/></g><!--reverse link SortedSet to NavigableSet--><g id="link_SortedSet_NavigableSet"><path codeLine="18" d="M242.26,37 C246.72,37 251.18,37 255.64,37 " fill="none" id="SortedSet-backto-NavigableSet" style="stroke:#000000;stroke-width:1.0;"/><polygon fill="none" points="242.4,44,222.4,37,242.4,30,242.4,44" style="stroke:#000000;stroke-width:1.0;"/></g><!--reverse link NavigableSet to TreeSet--><g id="link_NavigableSet_TreeSet"><path codeLine="19" d="M321,79.95 C321,92.1 321,105.63 321,118.73 " fill="none" id="NavigableSet-backto-TreeSet" style="stroke:#000000;stroke-width:1.0;stroke-dasharray:7.0,7.0;"/><polygon fill="none" points="314,80.37,321,60.37,328,80.37,314,80.37" style="stroke:#000000;stroke-width:1.0;"/></g><!--reverse link TreeSet to TreeMap--><g id="link_TreeSet_TreeMap"><path codeLine="21" d="M444.14,181.74 C451.11,181.74 458.08,181.74 465.05,181.74 " fill="none" id="TreeSet-backto-TreeMap" style="stroke:#000000;stroke-width:1.0;"/><polygon fill="#000000" points="431.29,181.74,437.29,185.74,443.29,181.74,437.29,177.74,431.29,181.74" style="stroke:#000000;stroke-width:1.0;"/></g><!--SRC=[XO-xJWCn44Nh-2k6ZaSS2OaosWQP1h6WR4G_wvqa1g-ziYSf4lBls4esM53GddCrS-yLRwWd62mQ9-AdSGC6x84DMthoZXkp9xX_A5H7AznQ_bVMcEu-UXUznIYCOmehr0GDyLnL9V21gVk3QzoPDRQMpaQdCn6MWJA0WvZ8dyWB3dCrVMq_I7C5VNQ7oCX67qyGtXQgKVLIJEu0k-vQtK3hlILqcUXKD-sFlt2Wtk-eXCUYHVxvF7slXBWC06dbLvKNYhBzYCUO64VCjhF4owYuk5iPvFZd6m00]--></g></svg>