<?xml version="1.0" encoding="us-ascii" standalone="no"?><svg xmlns="http://www.w3.org/2000/svg" xmlns:xlink="http://www.w3.org/1999/xlink" contentStyleType="text/css" height="423px" preserveAspectRatio="none" style="width:1008px;height:423px;background:#FFFFFF;" version="1.1" viewBox="0 0 1008 423" width="1008px" zoomAndPan="magnify"><defs/><g><text fill="#000000" font-family="sans-serif" font-size="14" font-weight="bold" lengthAdjust="spacing" textLength="255" x="369.5" y="22.9951">Java Collections Framework-Map</text><!--class Map--><g id="elem_Map"><rect codeLine="2" fill="#F1F1F1" height="48" id="Map" rx="2.5" ry="2.5" style="stroke:#181818;stroke-width:0.5;" width="61" x="496.5" y="44.2969"/><ellipse cx="511.5" cy="60.2969" fill="#B4A7E5" rx="11" ry="11" style="stroke:#181818;stroke-width:1.0;"/><path d="M507.4219,56.0625 L507.4219,53.9063 L514.8125,53.9063 L514.8125,56.0625 L512.3438,56.0625 L512.3438,64.1406 L514.8125,64.1406 L514.8125,66.2969 L507.4219,66.2969 L507.4219,64.1406 L509.8906,64.1406 L509.8906,56.0625 L507.4219,56.0625 Z " fill="#000000"/><text fill="#000000" font-family="sans-serif" font-size="14" font-style="italic" lengthAdjust="spacing" textLength="29" x="525.5" y="65.1436">Map</text><line style="stroke:#181818;stroke-width:0.5;" x1="497.5" x2="556.5" y1="76.2969" y2="76.2969"/><line style="stroke:#181818;stroke-width:0.5;" x1="497.5" x2="556.5" y1="84.2969" y2="84.2969"/></g><!--class SortedMap--><g id="elem_SortedMap"><rect codeLine="3" fill="#F1F1F1" height="48" id="SortedMap" rx="2.5" ry="2.5" style="stroke:#181818;stroke-width:0.5;" width="107" x="375.5" y="152.2969"/><ellipse cx="390.5" cy="168.2969" fill="#B4A7E5" rx="11" ry="11" style="stroke:#181818;stroke-width:1.0;"/><path d="M386.4219,164.0625 L386.4219,161.9063 L393.8125,161.9063 L393.8125,164.0625 L391.3438,164.0625 L391.3438,172.1406 L393.8125,172.1406 L393.8125,174.2969 L386.4219,174.2969 L386.4219,172.1406 L388.8906,172.1406 L388.8906,164.0625 L386.4219,164.0625 Z " fill="#000000"/><text fill="#000000" font-family="sans-serif" font-size="14" font-style="italic" lengthAdjust="spacing" textLength="75" x="404.5" y="173.1436">SortedMap</text><line style="stroke:#181818;stroke-width:0.5;" x1="376.5" x2="481.5" y1="184.2969" y2="184.2969"/><line style="stroke:#181818;stroke-width:0.5;" x1="376.5" x2="481.5" y1="192.2969" y2="192.2969"/></g><!--class NavigableMap--><g id="elem_NavigableMap"><rect codeLine="4" fill="#F1F1F1" height="48" id="NavigableMap" rx="2.5" ry="2.5" style="stroke:#181818;stroke-width:0.5;" width="127" x="342.5" y="260.2969"/><ellipse cx="357.5" cy="276.2969" fill="#B4A7E5" rx="11" ry="11" style="stroke:#181818;stroke-width:1.0;"/><path d="M353.4219,272.0625 L353.4219,269.9063 L360.8125,269.9063 L360.8125,272.0625 L358.3438,272.0625 L358.3438,280.1406 L360.8125,280.1406 L360.8125,282.2969 L353.4219,282.2969 L353.4219,280.1406 L355.8906,280.1406 L355.8906,272.0625 L353.4219,272.0625 Z " fill="#000000"/><text fill="#000000" font-family="sans-serif" font-size="14" font-style="italic" lengthAdjust="spacing" textLength="95" x="371.5" y="281.1436">NavigableMap</text><line style="stroke:#181818;stroke-width:0.5;" x1="343.5" x2="468.5" y1="292.2969" y2="292.2969"/><line style="stroke:#181818;stroke-width:0.5;" x1="343.5" x2="468.5" y1="300.2969" y2="300.2969"/></g><!--class HashMap--><g id="elem_HashMap"><rect codeLine="5" fill="#F1F1F1" height="48" id="HashMap" rx="2.5" ry="2.5" style="stroke:#181818;stroke-width:0.5;" width="96" x="655" y="44.2969"/><ellipse cx="670" cy="60.2969" fill="#ADD1B2" rx="11" ry="11" style="stroke:#181818;stroke-width:1.0;"/><path d="M672.9688,65.9375 Q672.3906,66.2344 671.75,66.375 Q671.1094,66.5313 670.4063,66.5313 Q667.9063,66.5313 666.5781,64.8906 Q665.2656,63.2344 665.2656,60.1094 Q665.2656,56.9844 666.5781,55.3281 Q667.9063,53.6719 670.4063,53.6719 Q671.1094,53.6719 671.75,53.8281 Q672.4063,53.9844 672.9688,54.2813 L672.9688,57 Q672.3438,56.4219 671.75,56.1563 Q671.1563,55.875 670.5313,55.875 Q669.1875,55.875 668.5,56.9531 Q667.8125,58.0156 667.8125,60.1094 Q667.8125,62.2031 668.5,63.2813 Q669.1875,64.3438 670.5313,64.3438 Q671.1563,64.3438 671.75,64.0781 Q672.3438,63.7969 672.9688,63.2188 L672.9688,65.9375 Z " fill="#000000"/><text fill="#000000" font-family="sans-serif" font-size="14" lengthAdjust="spacing" textLength="64" x="684" y="65.1436">HashMap</text><line style="stroke:#181818;stroke-width:0.5;" x1="656" x2="750" y1="76.2969" y2="76.2969"/><line style="stroke:#181818;stroke-width:0.5;" x1="656" x2="750" y1="84.2969" y2="84.2969"/></g><!--class LinkedHashMap--><g id="elem_LinkedHashMap"><rect codeLine="6" fill="#F1F1F1" height="48" id="LinkedHashMap" rx="2.5" ry="2.5" style="stroke:#181818;stroke-width:0.5;" width="141" x="653.5" y="152.2969"/><ellipse cx="668.5" cy="168.2969" fill="#ADD1B2" rx="11" ry="11" style="stroke:#181818;stroke-width:1.0;"/><path d="M671.4688,173.9375 Q670.8906,174.2344 670.25,174.375 Q669.6094,174.5313 668.9063,174.5313 Q666.4063,174.5313 665.0781,172.8906 Q663.7656,171.2344 663.7656,168.1094 Q663.7656,164.9844 665.0781,163.3281 Q666.4063,161.6719 668.9063,161.6719 Q669.6094,161.6719 670.25,161.8281 Q670.9063,161.9844 671.4688,162.2813 L671.4688,165 Q670.8438,164.4219 670.25,164.1563 Q669.6563,163.875 669.0313,163.875 Q667.6875,163.875 667,164.9531 Q666.3125,166.0156 666.3125,168.1094 Q666.3125,170.2031 667,171.2813 Q667.6875,172.3438 669.0313,172.3438 Q669.6563,172.3438 670.25,172.0781 Q670.8438,171.7969 671.4688,171.2188 L671.4688,173.9375 Z " fill="#000000"/><text fill="#000000" font-family="sans-serif" font-size="14" lengthAdjust="spacing" textLength="109" x="682.5" y="173.1436">LinkedHashMap</text><line style="stroke:#181818;stroke-width:0.5;" x1="654.5" x2="793.5" y1="184.2969" y2="184.2969"/><line style="stroke:#181818;stroke-width:0.5;" x1="654.5" x2="793.5" y1="192.2969" y2="192.2969"/></g><!--class TreeMap--><g id="elem_TreeMap"><rect codeLine="7" fill="#F1F1F1" height="48" id="TreeMap" rx="2.5" ry="2.5" style="stroke:#181818;stroke-width:0.5;" width="93" x="359.5" y="368.2969"/><ellipse cx="374.5" cy="384.2969" fill="#ADD1B2" rx="11" ry="11" style="stroke:#181818;stroke-width:1.0;"/><path d="M377.4688,389.9375 Q376.8906,390.2344 376.25,390.375 Q375.6094,390.5313 374.9063,390.5313 Q372.4063,390.5313 371.0781,388.8906 Q369.7656,387.2344 369.7656,384.1094 Q369.7656,380.9844 371.0781,379.3281 Q372.4063,377.6719 374.9063,377.6719 Q375.6094,377.6719 376.25,377.8281 Q376.9063,377.9844 377.4688,378.2813 L377.4688,381 Q376.8438,380.4219 376.25,380.1563 Q375.6563,379.875 375.0313,379.875 Q373.6875,379.875 373,380.9531 Q372.3125,382.0156 372.3125,384.1094 Q372.3125,386.2031 373,387.2813 Q373.6875,388.3438 375.0313,388.3438 Q375.6563,388.3438 376.25,388.0781 Q376.8438,387.7969 377.4688,387.2188 L377.4688,389.9375 Z " fill="#000000"/><text fill="#000000" font-family="sans-serif" font-size="14" lengthAdjust="spacing" textLength="61" x="388.5" y="389.1436">TreeMap</text><line style="stroke:#181818;stroke-width:0.5;" x1="360.5" x2="451.5" y1="400.2969" y2="400.2969"/><line style="stroke:#181818;stroke-width:0.5;" x1="360.5" x2="451.5" y1="408.2969" y2="408.2969"/></g><!--class EnumMap--><g id="elem_EnumMap"><rect codeLine="8" fill="#F1F1F1" height="48" id="EnumMap" rx="2.5" ry="2.5" style="stroke:#181818;stroke-width:0.5;" width="101" x="517.5" y="152.2969"/><ellipse cx="532.5" cy="168.2969" fill="#ADD1B2" rx="11" ry="11" style="stroke:#181818;stroke-width:1.0;"/><path d="M535.4688,173.9375 Q534.8906,174.2344 534.25,174.375 Q533.6094,174.5313 532.9063,174.5313 Q530.4063,174.5313 529.0781,172.8906 Q527.7656,171.2344 527.7656,168.1094 Q527.7656,164.9844 529.0781,163.3281 Q530.4063,161.6719 532.9063,161.6719 Q533.6094,161.6719 534.25,161.8281 Q534.9063,161.9844 535.4688,162.2813 L535.4688,165 Q534.8438,164.4219 534.25,164.1563 Q533.6563,163.875 533.0313,163.875 Q531.6875,163.875 531,164.9531 Q530.3125,166.0156 530.3125,168.1094 Q530.3125,170.2031 531,171.2813 Q531.6875,172.3438 533.0313,172.3438 Q533.6563,172.3438 534.25,172.0781 Q534.8438,171.7969 535.4688,171.2188 L535.4688,173.9375 Z " fill="#000000"/><text fill="#000000" font-family="sans-serif" font-size="14" lengthAdjust="spacing" textLength="69" x="546.5" y="173.1436">EnumMap</text><line style="stroke:#181818;stroke-width:0.5;" x1="518.5" x2="617.5" y1="184.2969" y2="184.2969"/><line style="stroke:#181818;stroke-width:0.5;" x1="518.5" x2="617.5" y1="192.2969" y2="192.2969"/></g><!--class Hashtable--><g id="elem_Hashtable"><rect codeLine="9" fill="#F1F1F1" height="48" id="Hashtable" rx="2.5" ry="2.5" style="stroke:#181818;stroke-width:0.5;" width="101" x="279.5" y="44.2969"/><ellipse cx="294.5" cy="60.2969" fill="#ADD1B2" rx="11" ry="11" style="stroke:#181818;stroke-width:1.0;"/><path d="M297.4688,65.9375 Q296.8906,66.2344 296.25,66.375 Q295.6094,66.5313 294.9063,66.5313 Q292.4063,66.5313 291.0781,64.8906 Q289.7656,63.2344 289.7656,60.1094 Q289.7656,56.9844 291.0781,55.3281 Q292.4063,53.6719 294.9063,53.6719 Q295.6094,53.6719 296.25,53.8281 Q296.9063,53.9844 297.4688,54.2813 L297.4688,57 Q296.8438,56.4219 296.25,56.1563 Q295.6563,55.875 295.0313,55.875 Q293.6875,55.875 293,56.9531 Q292.3125,58.0156 292.3125,60.1094 Q292.3125,62.2031 293,63.2813 Q293.6875,64.3438 295.0313,64.3438 Q295.6563,64.3438 296.25,64.0781 Q296.8438,63.7969 297.4688,63.2188 L297.4688,65.9375 Z " fill="#000000"/><text fill="#000000" font-family="sans-serif" font-size="14" lengthAdjust="spacing" textLength="69" x="308.5" y="65.1436">Hashtable</text><line style="stroke:#181818;stroke-width:0.5;" x1="280.5" x2="379.5" y1="76.2969" y2="76.2969"/><line style="stroke:#181818;stroke-width:0.5;" x1="280.5" x2="379.5" y1="84.2969" y2="84.2969"/></g><!--class Properties--><g id="elem_Properties"><rect codeLine="10" fill="#F1F1F1" height="48" id="Properties" rx="2.5" ry="2.5" style="stroke:#181818;stroke-width:0.5;" width="103" x="237.5" y="152.2969"/><ellipse cx="252.5" cy="168.2969" fill="#ADD1B2" rx="11" ry="11" style="stroke:#181818;stroke-width:1.0;"/><path d="M255.4688,173.9375 Q254.8906,174.2344 254.25,174.375 Q253.6094,174.5313 252.9063,174.5313 Q250.4063,174.5313 249.0781,172.8906 Q247.7656,171.2344 247.7656,168.1094 Q247.7656,164.9844 249.0781,163.3281 Q250.4063,161.6719 252.9063,161.6719 Q253.6094,161.6719 254.25,161.8281 Q254.9063,161.9844 255.4688,162.2813 L255.4688,165 Q254.8438,164.4219 254.25,164.1563 Q253.6563,163.875 253.0313,163.875 Q251.6875,163.875 251,164.9531 Q250.3125,166.0156 250.3125,168.1094 Q250.3125,170.2031 251,171.2813 Q251.6875,172.3438 253.0313,172.3438 Q253.6563,172.3438 254.25,172.0781 Q254.8438,171.7969 255.4688,171.2188 L255.4688,173.9375 Z " fill="#000000"/><text fill="#000000" font-family="sans-serif" font-size="14" lengthAdjust="spacing" textLength="71" x="266.5" y="173.1436">Properties</text><line style="stroke:#181818;stroke-width:0.5;" x1="238.5" x2="339.5" y1="184.2969" y2="184.2969"/><line style="stroke:#181818;stroke-width:0.5;" x1="238.5" x2="339.5" y1="192.2969" y2="192.2969"/></g><g id="elem_GMN26"><path d="M786,48.1669 L786,64.2969 L751.19,68.2969 L786,72.2969 L786,88.4325 A0,0 0 0 0 786,88.4325 L958,88.4325 A0,0 0 0 0 958,88.4325 L958,58.1669 L948,48.1669 L786,48.1669 A0,0 0 0 0 786,48.1669 " fill="#FEFFDD" style="stroke:#181818;stroke-width:0.5;"/><path d="M948,48.1669 L948,58.1669 L958,58.1669 L948,48.1669 " fill="#FEFFDD" style="stroke:#181818;stroke-width:0.5;"/><text fill="#000000" font-family="sans-serif" font-size="13" lengthAdjust="spacing" textLength="143" x="792" y="65.2338">&#22522;&#20110;&#25968;&#32452;&#65292;&#38142;&#34920;&#21644;&#32418;&#40657;&#26641;</text><text fill="#000000" font-family="sans-serif" font-size="13" lengthAdjust="spacing" textLength="151" x="792" y="80.3666">&#32447;&#31243;&#19981;&#23433;&#20840;&#30340;&#65288;fast-fail&#65289;</text></g><g id="elem_GMN29"><path d="M829,156.1669 L829,172.2969 L794.88,176.2969 L829,180.2969 L829,196.4325 A0,0 0 0 0 829,196.4325 L1001,196.4325 A0,0 0 0 0 1001,196.4325 L1001,166.1669 L991,156.1669 L829,156.1669 A0,0 0 0 0 829,156.1669 " fill="#FEFFDD" style="stroke:#181818;stroke-width:0.5;"/><path d="M991,156.1669 L991,166.1669 L1001,166.1669 L991,156.1669 " fill="#FEFFDD" style="stroke:#181818;stroke-width:0.5;"/><text fill="#000000" font-family="sans-serif" font-size="13" lengthAdjust="spacing" textLength="151" x="835" y="173.2338">&#22522;&#20110;HashMap&#21644;&#21452;&#21521;&#38142;&#34920;</text><text fill="#000000" font-family="sans-serif" font-size="13" lengthAdjust="spacing" textLength="151" x="835" y="188.3666">&#32447;&#31243;&#19981;&#23433;&#20840;&#30340;&#65288;fast-fail&#65289;</text></g><g id="elem_GMN32"><path d="M152,372.1669 L152,412.4325 A0,0 0 0 0 152,412.4325 L324,412.4325 A0,0 0 0 0 324,412.4325 L324,396.2969 L359.08,392.2969 L324,388.2969 L324,382.1669 L314,372.1669 L152,372.1669 A0,0 0 0 0 152,372.1669 " fill="#FEFFDD" style="stroke:#181818;stroke-width:0.5;"/><path d="M314,372.1669 L314,382.1669 L324,382.1669 L314,372.1669 " fill="#FEFFDD" style="stroke:#181818;stroke-width:0.5;"/><text fill="#000000" font-family="sans-serif" font-size="13" lengthAdjust="spacing" textLength="65" x="158" y="389.2338">&#22522;&#20110;&#32418;&#40657;&#26641;</text><text fill="#000000" font-family="sans-serif" font-size="13" lengthAdjust="spacing" textLength="151" x="158" y="404.3666">&#32447;&#31243;&#19981;&#23433;&#20840;&#30340;&#65288;fast-fail&#65289;</text></g><g id="elem_GMN35"><path d="M505,264.1669 L505,304.4325 A0,0 0 0 0 505,304.4325 L677,304.4325 A0,0 0 0 0 677,304.4325 L677,274.1669 L667,264.1669 L590.81,264.1669 L573.05,200.5569 L582.81,264.1669 L505,264.1669 A0,0 0 0 0 505,264.1669 " fill="#FEFFDD" style="stroke:#181818;stroke-width:0.5;"/><path d="M667,264.1669 L667,274.1669 L677,274.1669 L667,264.1669 " fill="#FEFFDD" style="stroke:#181818;stroke-width:0.5;"/><text fill="#000000" font-family="sans-serif" font-size="13" lengthAdjust="spacing" textLength="117" x="511" y="281.2338">&#22522;&#20110;&#22266;&#23450;&#22823;&#23567;&#30340;&#25968;&#32452;</text><text fill="#000000" font-family="sans-serif" font-size="13" lengthAdjust="spacing" textLength="151" x="511" y="296.3666">&#32447;&#31243;&#19981;&#23433;&#20840;&#30340;&#65288;fast-fail&#65289;</text></g><g id="elem_GMN38"><path d="M48,48.1669 L48,88.4325 A0,0 0 0 0 48,88.4325 L244,88.4325 A0,0 0 0 0 244,88.4325 L244,72.2969 L279.22,68.2969 L244,64.2969 L244,58.1669 L234,48.1669 L48,48.1669 A0,0 0 0 0 48,48.1669 " fill="#FEFFDD" style="stroke:#181818;stroke-width:0.5;"/><path d="M234,48.1669 L234,58.1669 L244,58.1669 L234,48.1669 " fill="#FEFFDD" style="stroke:#181818;stroke-width:0.5;"/><text fill="#000000" font-family="sans-serif" font-size="13" lengthAdjust="spacing" textLength="91" x="54" y="65.2338">&#22522;&#20110;&#25968;&#32452;&#21644;&#38142;&#34920;</text><text fill="#000000" font-family="sans-serif" font-size="13" lengthAdjust="spacing" textLength="175" x="54" y="80.3666">&#32447;&#31243;&#23433;&#20840;&#30340;&#65288;synchronized&#65289;</text></g><g id="elem_GMN41"><path d="M6,156.1669 L6,196.4325 A0,0 0 0 0 6,196.4325 L202,196.4325 A0,0 0 0 0 202,196.4325 L202,180.2969 L237.17,176.2969 L202,172.2969 L202,166.1669 L192,156.1669 L6,156.1669 A0,0 0 0 0 6,156.1669 " fill="#FEFFDD" style="stroke:#181818;stroke-width:0.5;"/><path d="M192,156.1669 L192,166.1669 L202,166.1669 L192,156.1669 " fill="#FEFFDD" style="stroke:#181818;stroke-width:0.5;"/><text fill="#000000" font-family="sans-serif" font-size="13" lengthAdjust="spacing" textLength="91" x="12" y="173.2338">&#22522;&#20110;Hashtable</text><text fill="#000000" font-family="sans-serif" font-size="13" lengthAdjust="spacing" textLength="175" x="12" y="188.3666">&#32447;&#31243;&#23433;&#20840;&#30340;&#65288;synchronized&#65289;</text></g><!--reverse link Map to SortedMap--><g id="link_Map_SortedMap"><path codeLine="12" d="M491.42,107.7769 C477.7,122.6269 462.45,139.1169 450.46,152.0869 " fill="none" id="Map-backto-SortedMap" style="stroke:#181818;stroke-width:1.0;"/><polygon fill="none" points="485.78,103.4969,504.49,93.5569,496.06,112.9969,485.78,103.4969" style="stroke:#181818;stroke-width:1.0;"/></g><!--reverse link SortedMap to NavigableMap--><g id="link_SortedMap_NavigableMap"><path codeLine="13" d="M419.51,221.0469 C416.6,234.4369 413.52,248.6369 411.04,260.0869 " fill="none" id="SortedMap-backto-NavigableMap" style="stroke:#181818;stroke-width:1.0;"/><polygon fill="none" points="412.87,219.6169,423.95,201.5569,426.55,222.5869,412.87,219.6169" style="stroke:#181818;stroke-width:1.0;"/></g><!--reverse link Map to HashMap--><g id="link_Map_HashMap"><path codeLine="14" d="M578.69,68.2969 C603.98,68.2969 629.27,68.2969 654.55,68.2969 " fill="none" id="Map-backto-HashMap" style="stroke:#181818;stroke-width:1.0;stroke-dasharray:7.0,7.0;"/><polygon fill="none" points="578.94,75.2969,558.94,68.2969,578.94,61.2969,578.94,75.2969" style="stroke:#181818;stroke-width:1.0;"/></g><!--reverse link HashMap to LinkedHashMap--><g id="link_HashMap_LinkedHashMap"><path codeLine="15" d="M711.67,113.0469 C714.32,126.4369 717.13,140.6369 719.4,152.0869 " fill="none" id="HashMap-backto-LinkedHashMap" style="stroke:#181818;stroke-width:1.0;"/><polygon fill="none" points="704.63,114.5369,707.61,93.5569,718.36,111.8169,704.63,114.5369" style="stroke:#181818;stroke-width:1.0;"/></g><!--reverse link NavigableMap to TreeMap--><g id="link_NavigableMap_TreeMap"><path codeLine="16" d="M406,329.5369 C406,342.7769 406,356.7769 406,368.0869 " fill="none" id="NavigableMap-backto-TreeMap" style="stroke:#181818;stroke-width:1.0;stroke-dasharray:7.0,7.0;"/><polygon fill="none" points="399,329.5569,406,309.5569,413,329.5569,399,329.5569" style="stroke:#181818;stroke-width:1.0;"/></g><!--reverse link Map to EnumMap--><g id="link_Map_EnumMap"><path codeLine="17" d="M543.55,112.0869 C548.84,125.7469 554.49,140.3569 559.02,152.0869 " fill="none" id="Map-backto-EnumMap" style="stroke:#181818;stroke-width:1.0;stroke-dasharray:7.0,7.0;"/><polygon fill="none" points="536.68,114.7369,536,93.5569,549.74,109.6869,536.68,114.7369" style="stroke:#181818;stroke-width:1.0;"/></g><!--link Hashtable to Map--><g id="link_Hashtable_Map"><path codeLine="18" d="M380.79,68.2969 C412.34,68.2969 443.88,68.2969 475.43,68.2969 " fill="none" id="Hashtable-to-Map" style="stroke:#181818;stroke-width:1.0;stroke-dasharray:7.0,7.0;"/><polygon fill="none" points="475.16,61.2969,495.16,68.2969,475.16,75.2969,475.16,61.2969" style="stroke:#181818;stroke-width:1.0;"/></g><!--reverse link Hashtable to Properties--><g id="link_Hashtable_Properties"><path codeLine="19" d="M313.45,112.0869 C308.16,125.7469 302.51,140.3569 297.98,152.0869 " fill="none" id="Hashtable-backto-Properties" style="stroke:#181818;stroke-width:1.0;"/><polygon fill="none" points="307.26,109.6869,321,93.5569,320.32,114.7369,307.26,109.6869" style="stroke:#181818;stroke-width:1.0;"/></g><!--SRC=[bP7DJW8n483l-nHzWTq7yE35Q8nHOw97BsNfGaDfILim6e-QI4GHZHSy-1CJE16EPY7wCfIL4w_WxjAwMxt0SQRJRxwPaLWI17PW0u8DHWZo9MPKW2qEg-Y4yOgx1siEfXBn0Fe8sD4Xun8LxTm-RE0IB12Kf7q2XG3RK9IpQ1VJ2YhQkIEESlMRj5wrVyi4gEC3pcg8Iuo4u_mA0BVkdg-dUda1dSuyTLlW4K-NMpgwtiXfBU3LasfhCksedmmwzGGUDxdCDKTU3EDG9X7Wk5IMW0Mc9LW3wZcSXBVJns4qkfYFMxE7p-_NlhflHU7RRDIPldIEQHH-HVthoSUD6ZJLPJ_gneLN0HJI3I0cyt7p3zoUqRJGSOnMxPQwwomwBKqdA4ZXPaa6kxfdWKd9gWdBRDMmr5Ee1btrtbF3TlnxiPIL3RFBsDkD9xTdpkF4AVNBd55yXeh_YBcxvhUPDba2zWC0]--></g></svg>