<?xml version="1.0" encoding="us-ascii" standalone="no"?><svg xmlns="http://www.w3.org/2000/svg" xmlns:xlink="http://www.w3.org/1999/xlink" contentStyleType="text/css" height="634px" preserveAspectRatio="none" style="width:471px;height:634px;background:#FFFFFF;" version="1.1" viewBox="0 0 471 634" width="471px" zoomAndPan="magnify"><defs/><g><text fill="#000000" font-family="sans-serif" font-size="14" font-weight="bold" lengthAdjust="spacing" textLength="207" x="130.5" y="32.9951">&#20934;&#22791;&#24212;&#29992;&#19978;&#19979;&#25991;&#20351;&#29992;&#30340;Bean&#24037;&#21378;</text><ellipse cx="235.5" cy="57.2969" fill="#222222" rx="10" ry="10" style="stroke:#222222;stroke-width:1.0;"/><rect fill="none" height="503.8594" style="stroke:#000000;stroke-width:1.5;" width="449" x="11" y="77.2969"/><path d="M359,77.2969 L359,86.5938 L349,96.5938 L11,96.5938 " fill="none" style="stroke:#000000;stroke-width:1.5;"/><text fill="#000000" font-family="sans-serif" font-size="14" lengthAdjust="spacing" textLength="338" x="14" y="91.292">AbstractApplicationContext#prepareBeanFactory</text><rect fill="#F1F1F1" height="47.9375" rx="12.5" ry="12.5" style="stroke:#181818;stroke-width:0.5;" width="315" x="78" y="113.5938"/><text fill="#000000" font-family="sans-serif" font-size="12" lengthAdjust="spacing" textLength="172" x="88" y="134.7324">&#35774;&#32622;Bean&#24037;&#21378;&#30340;Bean&#31867;&#21152;&#36733;&#22120;</text><text fill="#000000" font-family="sans-serif" font-size="12" lengthAdjust="spacing" textLength="295" x="88" y="148.7012">ConfigurableBeanFactory#setBeanClassLoader</text><rect fill="#F1F1F1" height="47.9375" rx="12.5" ry="12.5" style="stroke:#181818;stroke-width:0.5;" width="360" x="55.5" y="181.5313"/><text fill="#000000" font-family="sans-serif" font-size="12" lengthAdjust="spacing" textLength="196" x="65.5" y="202.6699">&#35774;&#32622;Bean&#24037;&#21378;&#30340;Bean&#34920;&#36798;&#24335;&#35299;&#26512;&#22120;</text><text fill="#000000" font-family="sans-serif" font-size="12" lengthAdjust="spacing" textLength="340" x="65.5" y="216.6387">ConfigurableBeanFactory#setBeanExpressionResolver</text><rect fill="#F1F1F1" height="47.9375" rx="12.5" ry="12.5" style="stroke:#181818;stroke-width:0.5;" width="358" x="56.5" y="249.4688"/><text fill="#000000" font-family="sans-serif" font-size="12" lengthAdjust="spacing" textLength="152" x="66.5" y="270.6074">&#35774;&#32622;Bean&#24037;&#21378;&#30340;&#23646;&#24615;&#32534;&#36753;&#22120;</text><text fill="#000000" font-family="sans-serif" font-size="12" lengthAdjust="spacing" textLength="338" x="66.5" y="284.5762">ConfigurableBeanFactory#addPropertyEditorRegistrar</text><rect fill="#F1F1F1" height="47.9375" rx="12.5" ry="12.5" style="stroke:#181818;stroke-width:0.5;" width="354" x="58.5" y="317.4063"/><text fill="#000000" font-family="sans-serif" font-size="12" lengthAdjust="spacing" textLength="334" x="68.5" y="338.5449">&#27880;&#20876;Bean&#21518;&#32622;&#22788;&#29702;&#22120;ApplicationContextAwareProcessor</text><text fill="#000000" font-family="sans-serif" font-size="12" lengthAdjust="spacing" textLength="314" x="68.5" y="352.5137">ConfigurableBeanFactory#addBeanPostProcessor</text><rect fill="#F1F1F1" height="47.9375" rx="12.5" ry="12.5" style="stroke:#181818;stroke-width:0.5;" width="429" x="21" y="385.3438"/><text fill="#000000" font-family="sans-serif" font-size="12" lengthAdjust="spacing" textLength="84" x="31" y="406.4824">&#27880;&#20876;&#20869;&#24314;&#30340;&#20381;&#36182;</text><text fill="#000000" font-family="sans-serif" font-size="12" lengthAdjust="spacing" textLength="409" x="31" y="420.4512">ConfigurableListableBeanFactory#registerResolvableDependency</text><rect fill="#F1F1F1" height="47.9375" rx="12.5" ry="12.5" style="stroke:#181818;stroke-width:0.5;" width="334" x="68.5" y="453.2813"/><text fill="#000000" font-family="sans-serif" font-size="12" lengthAdjust="spacing" textLength="290" x="78.5" y="474.4199">&#27880;&#20876;Bean&#21518;&#32622;&#22788;&#29702;&#22120;ApplicationListenerDetector</text><text fill="#000000" font-family="sans-serif" font-size="12" lengthAdjust="spacing" textLength="314" x="78.5" y="488.3887">ConfigurableBeanFactory#addBeanPostProcessor</text><rect fill="#F1F1F1" height="47.9375" rx="12.5" ry="12.5" style="stroke:#181818;stroke-width:0.5;" width="279" x="96" y="521.2188"/><text fill="#000000" font-family="sans-serif" font-size="12" lengthAdjust="spacing" textLength="108" x="106" y="542.3574">&#27880;&#20876;&#20869;&#24314;&#30340;&#21333;&#20363;&#23545;&#35937;</text><text fill="#000000" font-family="sans-serif" font-size="12" lengthAdjust="spacing" textLength="259" x="106" y="556.3262">SingletonBeanRegistry#registerSingleton</text><ellipse cx="235.5" cy="612.1563" fill="none" rx="11" ry="11" style="stroke:#222222;stroke-width:1.0;"/><ellipse cx="235.5" cy="612.1563" fill="#222222" rx="6" ry="6" style="stroke:#111111;stroke-width:1.0;"/><line style="stroke:#181818;stroke-width:1.0;" x1="235.5" x2="235.5" y1="161.5313" y2="181.5313"/><polygon fill="#181818" points="231.5,171.5313,235.5,181.5313,239.5,171.5313,235.5,175.5313" style="stroke:#181818;stroke-width:1.0;"/><line style="stroke:#181818;stroke-width:1.0;" x1="235.5" x2="235.5" y1="229.4688" y2="249.4688"/><polygon fill="#181818" points="231.5,239.4688,235.5,249.4688,239.5,239.4688,235.5,243.4688" style="stroke:#181818;stroke-width:1.0;"/><line style="stroke:#181818;stroke-width:1.0;" x1="235.5" x2="235.5" y1="297.4063" y2="317.4063"/><polygon fill="#181818" points="231.5,307.4063,235.5,317.4063,239.5,307.4063,235.5,311.4063" style="stroke:#181818;stroke-width:1.0;"/><line style="stroke:#181818;stroke-width:1.0;" x1="235.5" x2="235.5" y1="365.3438" y2="385.3438"/><polygon fill="#181818" points="231.5,375.3438,235.5,385.3438,239.5,375.3438,235.5,379.3438" style="stroke:#181818;stroke-width:1.0;"/><line style="stroke:#181818;stroke-width:1.0;" x1="235.5" x2="235.5" y1="433.2813" y2="453.2813"/><polygon fill="#181818" points="231.5,443.2813,235.5,453.2813,239.5,443.2813,235.5,447.2813" style="stroke:#181818;stroke-width:1.0;"/><line style="stroke:#181818;stroke-width:1.0;" x1="235.5" x2="235.5" y1="501.2188" y2="521.2188"/><polygon fill="#181818" points="231.5,511.2188,235.5,521.2188,239.5,511.2188,235.5,515.2188" style="stroke:#181818;stroke-width:1.0;"/><line style="stroke:#181818;stroke-width:1.0;" x1="235.5" x2="235.5" y1="67.2969" y2="113.5938"/><polygon fill="#181818" points="231.5,103.5938,235.5,113.5938,239.5,103.5938,235.5,107.5938" style="stroke:#181818;stroke-width:1.0;"/><line style="stroke:#181818;stroke-width:1.0;" x1="235.5" x2="235.5" y1="569.1563" y2="601.1563"/><polygon fill="#181818" points="231.5,591.1563,235.5,601.1563,239.5,591.1563,235.5,595.1563" style="stroke:#181818;stroke-width:1.0;"/><!--SRC=[fPBDIa915CVtFeNWM-JAr5OknBPkHkz9BbncBZDZwIx25BJCm8I29CdmhWo9oFoulSoTU-SncZ7HFb24bcVcdD_vpP_X9hSWB6fLqQ-9IJjeEzwuxeqRVgVcpJzK6TnLzW5XyVOaccSXnX7beG8bHJiSop5EKPx7RDioyuYR1CS9vb3Y4Pk2ZIZemGFLGMWvj2U7RZ0VhbbBS32QYlg3dC_5hPFLW2EpKAGePtsVZZ3WkenRYB4KGGRGw4QYx3dITSNiIWuU_Mvh5swof8mPKo_802FMyIQy67Nzqq4mwqZtUYiN6KQQ4XieBoSDKnrbe63gk3JOVt54zM81RZNL2j6l1AsgulrDCdQYObIalB8ZTEi-NQO9uwlkrIPHFHVJYTBtt7lvslb9IIcjtpIwa0Nw5OQ-JO0Ds02SB-_ehx60WIQ0WuR-LrrStdXkGpo_or4lYmzDNB204wmdbz6kjLUtqP2I3Yz-g_gvnFu4]--></g></svg>