<?xml version="1.0" encoding="us-ascii" standalone="no"?><svg xmlns="http://www.w3.org/2000/svg" xmlns:xlink="http://www.w3.org/1999/xlink" contentStyleType="text/css" height="378px" preserveAspectRatio="none" style="width:1231px;height:378px;background:#FFFFFF;" version="1.1" viewBox="0 0 1231 378" width="1231px" zoomAndPan="magnify"><defs/><g><!--class Map--><g id="elem_Map"><rect codeLine="5" fill="#FFFFFF" height="44" id="Map" rx="2.5" ry="2.5" style="stroke:#000000;stroke-width:1.0;" width="83" x="534" y="15"/><ellipse cx="547" cy="29" fill="#FFFFFF" rx="9" ry="9" style="stroke:#000000;stroke-width:1.0;"/><path d="M544.1719,25.5781 L544.1719,23.7969 L550.25,23.7969 L550.25,25.5781 L548.2188,25.5781 L548.2188,32.2188 L550.25,32.2188 L550.25,34 L544.1719,34 L544.1719,32.2188 L546.2031,32.2188 L546.2031,25.5781 L544.1719,25.5781 Z " fill="#000000"/><text fill="#000000" font-family="Consolas" font-size="14" font-style="italic" lengthAdjust="spacing" textLength="29" x="559" y="33.8467">Map</text><rect fill="#FFFFFF" height="18.2969" style="stroke:#000000;stroke-width:1.0;stroke-dasharray:2.0,2.0;" width="24" x="596" y="12"/><text fill="#000000" font-family="Verdana" font-size="14" font-style="italic" lengthAdjust="spacing" textLength="22" x="597" y="25.9951">K,V</text><line style="stroke:#000000;stroke-width:1.0;" x1="535" x2="616" y1="43" y2="43"/><line style="stroke:#000000;stroke-width:1.0;" x1="535" x2="616" y1="51" y2="51"/></g><!--class SortedMap--><g id="elem_SortedMap"><rect codeLine="6" fill="#FFFFFF" height="44" id="SortedMap" rx="2.5" ry="2.5" style="stroke:#000000;stroke-width:1.0;" width="129" x="341" y="119"/><ellipse cx="354" cy="133" fill="#FFFFFF" rx="9" ry="9" style="stroke:#000000;stroke-width:1.0;"/><path d="M351.1719,129.5781 L351.1719,127.7969 L357.25,127.7969 L357.25,129.5781 L355.2188,129.5781 L355.2188,136.2188 L357.25,136.2188 L357.25,138 L351.1719,138 L351.1719,136.2188 L353.2031,136.2188 L353.2031,129.5781 L351.1719,129.5781 Z " fill="#000000"/><text fill="#000000" font-family="Consolas" font-size="14" font-style="italic" lengthAdjust="spacing" textLength="75" x="366" y="137.8467">SortedMap</text><rect fill="#FFFFFF" height="18.2969" style="stroke:#000000;stroke-width:1.0;stroke-dasharray:2.0,2.0;" width="24" x="449" y="116"/><text fill="#000000" font-family="Verdana" font-size="14" font-style="italic" lengthAdjust="spacing" textLength="22" x="450" y="129.9951">K,V</text><line style="stroke:#000000;stroke-width:1.0;" x1="342" x2="469" y1="147" y2="147"/><line style="stroke:#000000;stroke-width:1.0;" x1="342" x2="469" y1="155" y2="155"/></g><!--class NavigableMap--><g id="elem_NavigableMap"><rect codeLine="7" fill="#FFFFFF" height="44" id="NavigableMap" rx="2.5" ry="2.5" style="stroke:#000000;stroke-width:1.0;" width="149" x="331" y="223"/><ellipse cx="344" cy="237" fill="#FFFFFF" rx="9" ry="9" style="stroke:#000000;stroke-width:1.0;"/><path d="M341.1719,233.5781 L341.1719,231.7969 L347.25,231.7969 L347.25,233.5781 L345.2188,233.5781 L345.2188,240.2188 L347.25,240.2188 L347.25,242 L341.1719,242 L341.1719,240.2188 L343.2031,240.2188 L343.2031,233.5781 L341.1719,233.5781 Z " fill="#000000"/><text fill="#000000" font-family="Consolas" font-size="14" font-style="italic" lengthAdjust="spacing" textLength="95" x="356" y="241.8467">NavigableMap</text><rect fill="#FFFFFF" height="18.2969" style="stroke:#000000;stroke-width:1.0;stroke-dasharray:2.0,2.0;" width="24" x="459" y="220"/><text fill="#000000" font-family="Verdana" font-size="14" font-style="italic" lengthAdjust="spacing" textLength="22" x="460" y="233.9951">K,V</text><line style="stroke:#000000;stroke-width:1.0;" x1="332" x2="479" y1="251" y2="251"/><line style="stroke:#000000;stroke-width:1.0;" x1="332" x2="479" y1="259" y2="259"/></g><!--class HashMap--><g id="elem_HashMap"><rect codeLine="8" fill="#FFFFFF" height="44" id="HashMap" rx="2.5" ry="2.5" style="stroke:#000000;stroke-width:1.0;" width="118" x="768.5" y="15"/><ellipse cx="781.5" cy="29" fill="#FFFFFF" rx="9" ry="9" style="stroke:#000000;stroke-width:1.0;"/><path d="M783.8906,33.7031 Q783.4063,33.9531 782.875,34.0781 Q782.3594,34.2031 781.7813,34.2031 Q779.7188,34.2031 778.625,32.8438 Q777.5469,31.4844 777.5469,28.9063 Q777.5469,26.3281 778.625,24.9688 Q779.7188,23.6094 781.7813,23.6094 Q782.3594,23.6094 782.8906,23.7344 Q783.4219,23.8594 783.8906,24.0938 L783.8906,26.3438 Q783.375,25.8594 782.875,25.6406 Q782.3906,25.4219 781.875,25.4219 Q780.7656,25.4219 780.2031,26.2969 Q779.6406,27.1719 779.6406,28.9063 Q779.6406,30.625 780.2031,31.5156 Q780.7656,32.3906 781.875,32.3906 Q782.3906,32.3906 782.875,32.1719 Q783.375,31.9375 783.8906,31.4688 L783.8906,33.7031 Z " fill="#000000"/><text fill="#000000" font-family="Consolas" font-size="14" lengthAdjust="spacing" textLength="64" x="793.5" y="33.8467">HashMap</text><rect fill="#FFFFFF" height="18.2969" style="stroke:#000000;stroke-width:1.0;stroke-dasharray:2.0,2.0;" width="24" x="865.5" y="12"/><text fill="#000000" font-family="Verdana" font-size="14" font-style="italic" lengthAdjust="spacing" textLength="22" x="866.5" y="25.9951">K,V</text><line style="stroke:#000000;stroke-width:1.0;" x1="769.5" x2="885.5" y1="43" y2="43"/><line style="stroke:#000000;stroke-width:1.0;" x1="769.5" x2="885.5" y1="51" y2="51"/></g><!--class LinkedHashMap--><g id="elem_LinkedHashMap"><rect codeLine="9" fill="#FFFFFF" height="44" id="LinkedHashMap" rx="2.5" ry="2.5" style="stroke:#000000;stroke-width:1.0;" width="163" x="801" y="119"/><ellipse cx="814" cy="133" fill="#FFFFFF" rx="9" ry="9" style="stroke:#000000;stroke-width:1.0;"/><path d="M816.3906,137.7031 Q815.9063,137.9531 815.375,138.0781 Q814.8594,138.2031 814.2813,138.2031 Q812.2188,138.2031 811.125,136.8438 Q810.0469,135.4844 810.0469,132.9063 Q810.0469,130.3281 811.125,128.9688 Q812.2188,127.6094 814.2813,127.6094 Q814.8594,127.6094 815.3906,127.7344 Q815.9219,127.8594 816.3906,128.0938 L816.3906,130.3438 Q815.875,129.8594 815.375,129.6406 Q814.8906,129.4219 814.375,129.4219 Q813.2656,129.4219 812.7031,130.2969 Q812.1406,131.1719 812.1406,132.9063 Q812.1406,134.625 812.7031,135.5156 Q813.2656,136.3906 814.375,136.3906 Q814.8906,136.3906 815.375,136.1719 Q815.875,135.9375 816.3906,135.4688 L816.3906,137.7031 Z " fill="#000000"/><text fill="#000000" font-family="Consolas" font-size="14" lengthAdjust="spacing" textLength="109" x="826" y="137.8467">LinkedHashMap</text><rect fill="#FFFFFF" height="18.2969" style="stroke:#000000;stroke-width:1.0;stroke-dasharray:2.0,2.0;" width="24" x="943" y="116"/><text fill="#000000" font-family="Verdana" font-size="14" font-style="italic" lengthAdjust="spacing" textLength="22" x="944" y="129.9951">K,V</text><line style="stroke:#000000;stroke-width:1.0;" x1="802" x2="963" y1="147" y2="147"/><line style="stroke:#000000;stroke-width:1.0;" x1="802" x2="963" y1="155" y2="155"/></g><!--class TreeMap--><g id="elem_TreeMap"><rect codeLine="10" fill="#FFFFFF" height="44" id="TreeMap" rx="2.5" ry="2.5" style="stroke:#000000;stroke-width:1.0;" width="115" x="348" y="327"/><ellipse cx="361" cy="341" fill="#FFFFFF" rx="9" ry="9" style="stroke:#000000;stroke-width:1.0;"/><path d="M363.3906,345.7031 Q362.9063,345.9531 362.375,346.0781 Q361.8594,346.2031 361.2813,346.2031 Q359.2188,346.2031 358.125,344.8438 Q357.0469,343.4844 357.0469,340.9063 Q357.0469,338.3281 358.125,336.9688 Q359.2188,335.6094 361.2813,335.6094 Q361.8594,335.6094 362.3906,335.7344 Q362.9219,335.8594 363.3906,336.0938 L363.3906,338.3438 Q362.875,337.8594 362.375,337.6406 Q361.8906,337.4219 361.375,337.4219 Q360.2656,337.4219 359.7031,338.2969 Q359.1406,339.1719 359.1406,340.9063 Q359.1406,342.625 359.7031,343.5156 Q360.2656,344.3906 361.375,344.3906 Q361.8906,344.3906 362.375,344.1719 Q362.875,343.9375 363.3906,343.4688 L363.3906,345.7031 Z " fill="#000000"/><text fill="#000000" font-family="Consolas" font-size="14" lengthAdjust="spacing" textLength="61" x="373" y="345.8467">TreeMap</text><rect fill="#FFFFFF" height="18.2969" style="stroke:#000000;stroke-width:1.0;stroke-dasharray:2.0,2.0;" width="24" x="442" y="324"/><text fill="#000000" font-family="Verdana" font-size="14" font-style="italic" lengthAdjust="spacing" textLength="22" x="443" y="337.9951">K,V</text><line style="stroke:#000000;stroke-width:1.0;" x1="349" x2="462" y1="355" y2="355"/><line style="stroke:#000000;stroke-width:1.0;" x1="349" x2="462" y1="363" y2="363"/></g><!--class EnumMap--><g id="elem_EnumMap"><rect codeLine="11" fill="#FFFFFF" height="44" id="EnumMap" rx="2.5" ry="2.5" style="stroke:#000000;stroke-width:1.0;" width="260" x="505.5" y="119"/><ellipse cx="518.5" cy="133" fill="#FFFFFF" rx="9" ry="9" style="stroke:#000000;stroke-width:1.0;"/><path d="M520.8906,137.7031 Q520.4063,137.9531 519.875,138.0781 Q519.3594,138.2031 518.7813,138.2031 Q516.7188,138.2031 515.625,136.8438 Q514.5469,135.4844 514.5469,132.9063 Q514.5469,130.3281 515.625,128.9688 Q516.7188,127.6094 518.7813,127.6094 Q519.3594,127.6094 519.8906,127.7344 Q520.4219,127.8594 520.8906,128.0938 L520.8906,130.3438 Q520.375,129.8594 519.875,129.6406 Q519.3906,129.4219 518.875,129.4219 Q517.7656,129.4219 517.2031,130.2969 Q516.6406,131.1719 516.6406,132.9063 Q516.6406,134.625 517.2031,135.5156 Q517.7656,136.3906 518.875,136.3906 Q519.3906,136.3906 519.875,136.1719 Q520.375,135.9375 520.8906,135.4688 L520.8906,137.7031 Z " fill="#000000"/><text fill="#000000" font-family="Consolas" font-size="14" lengthAdjust="spacing" textLength="69" x="530.5" y="137.8467">EnumMap</text><rect fill="#FFFFFF" height="18.2969" style="stroke:#000000;stroke-width:1.0;stroke-dasharray:2.0,2.0;" width="161" x="607.5" y="116"/><text fill="#000000" font-family="Verdana" font-size="14" font-style="italic" lengthAdjust="spacing" textLength="159" x="608.5" y="129.9951">K extends Enum&lt;K&gt;,V</text><line style="stroke:#000000;stroke-width:1.0;" x1="506.5" x2="764.5" y1="147" y2="147"/><line style="stroke:#000000;stroke-width:1.0;" x1="506.5" x2="764.5" y1="155" y2="155"/></g><!--class Hashtable--><g id="elem_Hashtable"><rect codeLine="12" fill="#FFFFFF" height="44" id="Hashtable" rx="2.5" ry="2.5" style="stroke:#000000;stroke-width:1.0;" width="123" x="256" y="15"/><ellipse cx="269" cy="29" fill="#FFFFFF" rx="9" ry="9" style="stroke:#000000;stroke-width:1.0;"/><path d="M271.3906,33.7031 Q270.9063,33.9531 270.375,34.0781 Q269.8594,34.2031 269.2813,34.2031 Q267.2188,34.2031 266.125,32.8438 Q265.0469,31.4844 265.0469,28.9063 Q265.0469,26.3281 266.125,24.9688 Q267.2188,23.6094 269.2813,23.6094 Q269.8594,23.6094 270.3906,23.7344 Q270.9219,23.8594 271.3906,24.0938 L271.3906,26.3438 Q270.875,25.8594 270.375,25.6406 Q269.8906,25.4219 269.375,25.4219 Q268.2656,25.4219 267.7031,26.2969 Q267.1406,27.1719 267.1406,28.9063 Q267.1406,30.625 267.7031,31.5156 Q268.2656,32.3906 269.375,32.3906 Q269.8906,32.3906 270.375,32.1719 Q270.875,31.9375 271.3906,31.4688 L271.3906,33.7031 Z " fill="#000000"/><text fill="#000000" font-family="Consolas" font-size="14" lengthAdjust="spacing" textLength="69" x="281" y="33.8467">Hashtable</text><rect fill="#FFFFFF" height="18.2969" style="stroke:#000000;stroke-width:1.0;stroke-dasharray:2.0,2.0;" width="24" x="358" y="12"/><text fill="#000000" font-family="Verdana" font-size="14" font-style="italic" lengthAdjust="spacing" textLength="22" x="359" y="25.9951">K,V</text><line style="stroke:#000000;stroke-width:1.0;" x1="257" x2="378" y1="43" y2="43"/><line style="stroke:#000000;stroke-width:1.0;" x1="257" x2="378" y1="51" y2="51"/></g><!--class Properties--><g id="elem_Properties"><rect codeLine="13" fill="#FFFFFF" height="44" id="Properties" rx="2.5" ry="2.5" style="stroke:#000000;stroke-width:1.0;" width="99" x="207" y="119"/><ellipse cx="220" cy="133" fill="#FFFFFF" rx="9" ry="9" style="stroke:#000000;stroke-width:1.0;"/><path d="M222.3906,137.7031 Q221.9063,137.9531 221.375,138.0781 Q220.8594,138.2031 220.2813,138.2031 Q218.2188,138.2031 217.125,136.8438 Q216.0469,135.4844 216.0469,132.9063 Q216.0469,130.3281 217.125,128.9688 Q218.2188,127.6094 220.2813,127.6094 Q220.8594,127.6094 221.3906,127.7344 Q221.9219,127.8594 222.3906,128.0938 L222.3906,130.3438 Q221.875,129.8594 221.375,129.6406 Q220.8906,129.4219 220.375,129.4219 Q219.2656,129.4219 218.7031,130.2969 Q218.1406,131.1719 218.1406,132.9063 Q218.1406,134.625 218.7031,135.5156 Q219.2656,136.3906 220.375,136.3906 Q220.8906,136.3906 221.375,136.1719 Q221.875,135.9375 222.3906,135.4688 L222.3906,137.7031 Z " fill="#000000"/><text fill="#000000" font-family="Consolas" font-size="14" lengthAdjust="spacing" textLength="71" x="232" y="137.8467">Properties</text><line style="stroke:#000000;stroke-width:1.0;" x1="208" x2="305" y1="147" y2="147"/><line style="stroke:#000000;stroke-width:1.0;" x1="208" x2="305" y1="155" y2="155"/></g><g id="elem_GMN26"><path d="M922,15.7 L922,33 L886.76,37 L922,41 L922,58.2937 A0,0 0 0 0 922,58.2937 L1103,58.2937 A0,0 0 0 0 1103,58.2937 L1103,25.7 L1093,15.7 L922,15.7 A0,0 0 0 0 922,15.7 " fill="#FFFFFF" style="stroke:#000000;stroke-width:1.0;"/><path d="M1093,15.7 L1093,25.7 L1103,25.7 L1093,15.7 " fill="#FFFFFF" style="stroke:#000000;stroke-width:1.0;"/><text fill="#000000" font-family="Consolas" font-size="14" lengthAdjust="spacing" textLength="154" x="928" y="33.6951">&#22522;&#20110;&#25968;&#32452;&#65292;&#38142;&#34920;&#21644;&#32418;&#40657;&#26641;</text><text fill="#000000" font-family="Consolas" font-size="14" lengthAdjust="spacing" textLength="160" x="928" y="49.992">&#32447;&#31243;&#19981;&#23433;&#20840;&#30340;&#65288;fast-fail&#65289;</text></g><g id="elem_GMN29"><path d="M999,119.7 L999,137 L964.35,141 L999,145 L999,162.2938 A0,0 0 0 0 999,162.2938 L1224,162.2938 A0,0 0 0 0 1224,162.2938 L1224,129.7 L1214,119.7 L999,119.7 A0,0 0 0 0 999,119.7 " fill="#FFFFFF" style="stroke:#000000;stroke-width:1.0;"/><path d="M1214,119.7 L1214,129.7 L1224,129.7 L1214,119.7 " fill="#FFFFFF" style="stroke:#000000;stroke-width:1.0;"/><text fill="#000000" font-family="Consolas" font-size="14" lengthAdjust="spacing" textLength="204" x="1005" y="137.6951">&#32487;&#25215;HashMap&#65292;&#21452;&#21521;&#38142;&#34920;&#65292;&#26377;&#24207;</text><text fill="#000000" font-family="Consolas" font-size="14" lengthAdjust="spacing" textLength="160" x="1005" y="153.992">&#32447;&#31243;&#19981;&#23433;&#20840;&#30340;&#65288;fast-fail&#65289;</text></g><g id="elem_GMN32"><path d="M132,327.7 L132,370.2938 A0,0 0 0 0 132,370.2938 L313,370.2938 A0,0 0 0 0 313,370.2938 L313,353 L347.51,349 L313,345 L313,337.7 L303,327.7 L132,327.7 A0,0 0 0 0 132,327.7 " fill="#FFFFFF" style="stroke:#000000;stroke-width:1.0;"/><path d="M303,327.7 L303,337.7 L313,337.7 L303,327.7 " fill="#FFFFFF" style="stroke:#000000;stroke-width:1.0;"/><text fill="#000000" font-family="Consolas" font-size="14" lengthAdjust="spacing" textLength="112" x="138" y="345.6951">&#22522;&#20110;&#32418;&#40657;&#26641;&#65292;&#26377;&#24207;</text><text fill="#000000" font-family="Consolas" font-size="14" lengthAdjust="spacing" textLength="160" x="138" y="361.992">&#32447;&#31243;&#19981;&#23433;&#20840;&#30340;&#65288;fast-fail&#65289;</text></g><g id="elem_GMN35"><path d="M545,223.7 L545,266.2938 A0,0 0 0 0 545,266.2938 L726,266.2938 A0,0 0 0 0 726,266.2938 L726,233.7 L716,223.7 L639.5,223.7 L635.5,163.13 L631.5,223.7 L545,223.7 A0,0 0 0 0 545,223.7 " fill="#FFFFFF" style="stroke:#000000;stroke-width:1.0;"/><path d="M716,223.7 L716,233.7 L726,233.7 L716,223.7 " fill="#FFFFFF" style="stroke:#000000;stroke-width:1.0;"/><text fill="#000000" font-family="Consolas" font-size="14" lengthAdjust="spacing" textLength="56" x="551" y="241.6951">&#22522;&#20110;&#25968;&#32452;</text><text fill="#000000" font-family="Consolas" font-size="14" lengthAdjust="spacing" textLength="160" x="551" y="257.992">&#32447;&#31243;&#19981;&#23433;&#20840;&#30340;&#65288;fast-fail&#65289;</text></g><g id="elem_GMN38"><path d="M60,15.7 L60,58.2937 A0,0 0 0 0 60,58.2937 L221,58.2937 A0,0 0 0 0 221,58.2937 L221,41 L255.56,37 L221,33 L221,25.7 L211,15.7 L60,15.7 A0,0 0 0 0 60,15.7 " fill="#FFFFFF" style="stroke:#000000;stroke-width:1.0;"/><path d="M211,15.7 L211,25.7 L221,25.7 L211,15.7 " fill="#FFFFFF" style="stroke:#000000;stroke-width:1.0;"/><text fill="#000000" font-family="Consolas" font-size="14" lengthAdjust="spacing" textLength="98" x="66" y="33.6951">&#22522;&#20110;&#25968;&#32452;&#21644;&#38142;&#34920;</text><text fill="#000000" font-family="Consolas" font-size="14" lengthAdjust="spacing" textLength="140" x="66" y="49.992">&#32447;&#31243;&#23433;&#20840;&#30340;&#65288;&#20869;&#32622;&#38145;&#65289;</text></g><g id="elem_GMN41"><path d="M11,119.7 L11,162.2938 A0,0 0 0 0 11,162.2938 L172,162.2938 A0,0 0 0 0 172,162.2938 L172,145 L206.56,141 L172,137 L172,129.7 L162,119.7 L11,119.7 A0,0 0 0 0 11,119.7 " fill="#FFFFFF" style="stroke:#000000;stroke-width:1.0;"/><path d="M162,119.7 L162,129.7 L172,129.7 L162,119.7 " fill="#FFFFFF" style="stroke:#000000;stroke-width:1.0;"/><text fill="#000000" font-family="Consolas" font-size="14" lengthAdjust="spacing" textLength="97" x="17" y="137.6951">&#32487;&#25215;Hashtable</text><text fill="#000000" font-family="Consolas" font-size="14" lengthAdjust="spacing" textLength="140" x="17" y="153.992">&#32447;&#31243;&#23433;&#20840;&#30340;&#65288;&#20869;&#32622;&#38145;&#65289;</text></g><!--reverse link Map to SortedMap--><g id="link_Map_SortedMap"><path codeLine="15" d="M522.08,70.05 C495.68,85.89 464.54,104.58 441.09,118.65 " fill="none" id="Map-backto-SortedMap" style="stroke:#000000;stroke-width:1.0;"/><polygon fill="none" points="518.11,63.67,538.86,59.38,525.31,75.67,518.11,63.67" style="stroke:#000000;stroke-width:1.0;"/></g><!--reverse link SortedMap to NavigableMap--><g id="link_SortedMap_NavigableMap"><path codeLine="16" d="M405.5,183.99 C405.5,197.25 405.5,211.35 405.5,222.54 " fill="none" id="SortedMap-backto-NavigableMap" style="stroke:#000000;stroke-width:1.0;"/><polygon fill="none" points="398.5,184.13,405.5,164.13,412.5,184.13,398.5,184.13" style="stroke:#000000;stroke-width:1.0;"/></g><!--reverse link Map to HashMap--><g id="link_Map_HashMap"><path codeLine="17" d="M638.28,37 C681.65,37 725.02,37 768.39,37 " fill="none" id="Map-backto-HashMap" style="stroke:#000000;stroke-width:1.0;stroke-dasharray:7.0,7.0;"/><polygon fill="none" points="638.34,44,618.34,37,638.34,30,638.34,44" style="stroke:#000000;stroke-width:1.0;"/></g><!--reverse link HashMap to LinkedHashMap--><g id="link_HashMap_LinkedHashMap"><path codeLine="18" d="M848.84,77.58 C856.36,91.52 864.52,106.66 870.93,118.54 " fill="none" id="HashMap-backto-LinkedHashMap" style="stroke:#000000;stroke-width:1.0;"/><polygon fill="none" points="842.23,81.06,838.9,60.13,854.55,74.42,842.23,81.06" style="stroke:#000000;stroke-width:1.0;"/></g><!--reverse link NavigableMap to TreeMap--><g id="link_NavigableMap_TreeMap"><path codeLine="19" d="M405.5,287.99 C405.5,301.25 405.5,315.35 405.5,326.54 " fill="none" id="NavigableMap-backto-TreeMap" style="stroke:#000000;stroke-width:1.0;stroke-dasharray:7.0,7.0;"/><polygon fill="none" points="398.5,288.13,405.5,268.13,412.5,288.13,398.5,288.13" style="stroke:#000000;stroke-width:1.0;"/></g><!--reverse link Map to EnumMap--><g id="link_Map_EnumMap"><path codeLine="20" d="M598.5,77.1 C606.78,91.17 615.81,106.53 622.88,118.54 " fill="none" id="Map-backto-EnumMap" style="stroke:#000000;stroke-width:1.0;stroke-dasharray:7.0,7.0;"/><polygon fill="none" points="592.04,80.92,587.93,60.13,604.11,73.82,592.04,80.92" style="stroke:#000000;stroke-width:1.0;"/></g><!--link Hashtable to Map--><g id="link_Hashtable_Map"><path codeLine="21" d="M379.48,37 C423.98,37 468.48,37 512.98,37 " fill="none" id="Hashtable-to-Map" style="stroke:#000000;stroke-width:1.0;stroke-dasharray:7.0,7.0;"/><polygon fill="none" points="512.77,30,532.77,37,512.77,44,512.77,30" style="stroke:#000000;stroke-width:1.0;"/></g><!--reverse link Hashtable to Properties--><g id="link_Hashtable_Properties"><path codeLine="22" d="M294.12,77.1 C285.7,91.17 276.52,106.53 269.33,118.54 " fill="none" id="Hashtable-backto-Properties" style="stroke:#000000;stroke-width:1.0;"/><polygon fill="none" points="288.59,73.71,304.86,60.13,300.6,80.89,288.59,73.71" style="stroke:#000000;stroke-width:1.0;"/></g><!--SRC=[bP5FIm916CRlyoccUmf19n4lKGIM14QdBfE-guFhZEpEHaIN82F9CljpYQ0_bpn9nrWjluphviclqBhEwgm9vl5ztdT-p_E-ioJoK0HSqWbbo2nGLY86AM91XGuRd8aqFGQyiggqig0HInTpcodYSTSuCxbEJ4IP04CZ6S3Rf1HFBkyb52dD3G7P6OqKEQGvSg33k9VnO2RU96P-IjgYh03P6OrT0wQVhpEhw4iOZWImx4Y99nDX1p5qLj_j6Bm4Xg1W8ZJEZ2DMv2GnN0kfSQKy7aCo6exgKJaUYYpdPOLaQXorXjCg6CdqiXMW_R0uQWJQ9Aj2zeSGObm0DcWkBp3N0aiSmywptRMlUmyVRkjiqAxsxxv_NXlERTMrt_gjUk-blizSk-CsBhkVLqwpufGRxgCtUA4HKqGqGlL1kp853-yOmsxhlLVfoDhpS6fLvwO-SlBAtbF5iMl_jj51yrs2QmKhZ0ClZZpWGl3Y41hSENoNXRDDFYSCykuwMZiWgZZdlEn-DVltftzmoh-gr_GTvf5-0G00]--></g></svg>