<?xml version="1.0" encoding="us-ascii" standalone="no"?><svg xmlns="http://www.w3.org/2000/svg" xmlns:xlink="http://www.w3.org/1999/xlink" contentStyleType="text/css" height="267px" preserveAspectRatio="none" style="width:992px;height:267px;background:#FFFFFF;" version="1.1" viewBox="0 0 992 267" width="992px" zoomAndPan="magnify"><defs/><g><!--class BeanDefinitionReader--><g id="elem_BeanDefinitionReader"><rect codeLine="1" fill="#F1F1F1" height="129.4844" id="BeanDefinitionReader" rx="2.5" ry="2.5" style="stroke:#181818;stroke-width:0.5;" width="355" x="7" y="7"/><ellipse cx="104.75" cy="23" fill="#B4A7E5" rx="11" ry="11" style="stroke:#181818;stroke-width:1.0;"/><path d="M100.6719,18.7656 L100.6719,16.6094 L108.0625,16.6094 L108.0625,18.7656 L105.5938,18.7656 L105.5938,26.8438 L108.0625,26.8438 L108.0625,29 L100.6719,29 L100.6719,26.8438 L103.1406,26.8438 L103.1406,18.7656 L100.6719,18.7656 Z " fill="#000000"/><text fill="#000000" font-family="sans-serif" font-size="14" font-style="italic" lengthAdjust="spacing" textLength="151" x="125.25" y="27.8467">BeanDefinitionReader</text><line style="stroke:#181818;stroke-width:0.5;" x1="8" x2="361" y1="39" y2="39"/><line style="stroke:#181818;stroke-width:0.5;" x1="8" x2="361" y1="47" y2="47"/><ellipse cx="18" cy="60.6484" fill="#84BE84" rx="3" ry="3" style="stroke:#038048;stroke-width:1.0;"/><text fill="#000000" font-family="sans-serif" font-size="14" lengthAdjust="spacing" textLength="250" x="27" y="63.9951">getRegistry() BeanDefinitionRegistry</text><ellipse cx="18" cy="76.9453" fill="#84BE84" rx="3" ry="3" style="stroke:#038048;stroke-width:1.0;"/><text fill="#000000" font-family="sans-serif" font-size="14" lengthAdjust="spacing" textLength="265" x="27" y="80.292">getResourceLoader() ResourceLoader</text><ellipse cx="18" cy="93.2422" fill="#84BE84" rx="3" ry="3" style="stroke:#038048;stroke-width:1.0;"/><text fill="#000000" font-family="sans-serif" font-size="14" lengthAdjust="spacing" textLength="329" x="27" y="96.5889">getBeanNameGenerator() BeanNameGenerator</text><ellipse cx="18" cy="109.5391" fill="#84BE84" rx="3" ry="3" style="stroke:#038048;stroke-width:1.0;"/><text fill="#000000" font-family="sans-serif" font-size="14" lengthAdjust="spacing" textLength="209" x="27" y="112.8857">loadBeanDefinitions(String) int</text><ellipse cx="18" cy="125.8359" fill="#84BE84" rx="3" ry="3" style="stroke:#038048;stroke-width:1.0;"/><text fill="#000000" font-family="sans-serif" font-size="14" lengthAdjust="spacing" textLength="236" x="27" y="129.1826">loadBeanDefinitions(Resource) int</text></g><!--class AbstractBeanDefinitionReader--><g id="elem_AbstractBeanDefinitionReader"><rect codeLine="8" fill="#F1F1F1" height="113.1875" id="AbstractBeanDefinitionReader" rx="2.5" ry="2.5" style="stroke:#181818;stroke-width:0.5;" width="321" x="397" y="15.15"/><ellipse cx="449.25" cy="31.15" fill="#A9DCDF" rx="11" ry="11" style="stroke:#181818;stroke-width:1.0;"/><path d="M449.3594,26.4938 L448.2031,31.5719 L450.5313,31.5719 L449.3594,26.4938 Z M447.875,24.2594 L450.8594,24.2594 L454.2188,36.65 L451.7656,36.65 L451,33.5875 L447.7188,33.5875 L446.9688,36.65 L444.5313,36.65 L447.875,24.2594 Z " fill="#000000"/><text fill="#000000" font-family="sans-serif" font-size="14" font-style="italic" lengthAdjust="spacing" textLength="208" x="469.75" y="35.9967">AbstractBeanDefinitionReader</text><line style="stroke:#181818;stroke-width:0.5;" x1="398" x2="717" y1="47.15" y2="47.15"/><rect fill="none" height="6" style="stroke:#C82930;stroke-width:1.0;" width="6" x="405" y="57.7984"/><text fill="#000000" font-family="sans-serif" font-size="14" lengthAdjust="spacing" textLength="212" x="417" y="64.1451">BeanDefinitionRegistry registry</text><rect fill="none" height="6" style="stroke:#C82930;stroke-width:1.0;" width="6" x="405" y="74.0953"/><text fill="#000000" font-family="sans-serif" font-size="14" lengthAdjust="spacing" textLength="227" x="417" y="80.442">ResourceLoader resourceLoader</text><rect fill="none" height="6" style="stroke:#C82930;stroke-width:1.0;" width="6" x="405" y="90.3922"/><text fill="#000000" font-family="sans-serif" font-size="14" lengthAdjust="spacing" textLength="295" x="417" y="96.7389">BeanNameGenerator beanNameGenerator</text><line style="stroke:#181818;stroke-width:0.5;" x1="398" x2="717" y1="104.0406" y2="104.0406"/><ellipse cx="408" cy="117.6891" fill="#84BE84" rx="3" ry="3" style="stroke:#038048;stroke-width:1.0;"/><text fill="#000000" font-family="sans-serif" font-size="14" lengthAdjust="spacing" textLength="209" x="417" y="121.0357">loadBeanDefinitions(String) int</text></g><!--class XmlBeanDefinitionReader--><g id="elem_XmlBeanDefinitionReader"><rect codeLine="14" fill="#F1F1F1" height="64.2969" id="XmlBeanDefinitionReader" rx="2.5" ry="2.5" style="stroke:#181818;stroke-width:0.5;" width="262" x="129.5" y="196.48"/><ellipse cx="168.8" cy="212.48" fill="#ADD1B2" rx="11" ry="11" style="stroke:#181818;stroke-width:1.0;"/><path d="M171.7688,218.1206 Q171.1906,218.4175 170.55,218.5581 Q169.9094,218.7144 169.2063,218.7144 Q166.7063,218.7144 165.3781,217.0738 Q164.0656,215.4175 164.0656,212.2925 Q164.0656,209.1675 165.3781,207.5113 Q166.7063,205.855 169.2063,205.855 Q169.9094,205.855 170.55,206.0113 Q171.2063,206.1675 171.7688,206.4644 L171.7688,209.1831 Q171.1438,208.605 170.55,208.3394 Q169.9563,208.0581 169.3313,208.0581 Q167.9875,208.0581 167.3,209.1363 Q166.6125,210.1988 166.6125,212.2925 Q166.6125,214.3863 167.3,215.4644 Q167.9875,216.5269 169.3313,216.5269 Q169.9563,216.5269 170.55,216.2613 Q171.1438,215.98 171.7688,215.4019 L171.7688,218.1206 Z " fill="#000000"/><text fill="#000000" font-family="sans-serif" font-size="14" lengthAdjust="spacing" textLength="176" x="188.2" y="217.3267">XmlBeanDefinitionReader</text><line style="stroke:#181818;stroke-width:0.5;" x1="130.5" x2="390.5" y1="228.48" y2="228.48"/><line style="stroke:#181818;stroke-width:0.5;" x1="130.5" x2="390.5" y1="236.48" y2="236.48"/><ellipse cx="140.5" cy="250.1284" fill="#84BE84" rx="3" ry="3" style="stroke:#038048;stroke-width:1.0;"/><text fill="#000000" font-family="sans-serif" font-size="14" lengthAdjust="spacing" textLength="236" x="149.5" y="253.4751">loadBeanDefinitions(Resource) int</text></g><!--class GroovyBeanDefinitionReader--><g id="elem_GroovyBeanDefinitionReader"><rect codeLine="17" fill="#F1F1F1" height="64.2969" id="GroovyBeanDefinitionReader" rx="2.5" ry="2.5" style="stroke:#181818;stroke-width:0.5;" width="262" x="426.5" y="196.48"/><ellipse cx="455.45" cy="212.48" fill="#ADD1B2" rx="11" ry="11" style="stroke:#181818;stroke-width:1.0;"/><path d="M458.4188,218.1206 Q457.8406,218.4175 457.2,218.5581 Q456.5594,218.7144 455.8563,218.7144 Q453.3563,218.7144 452.0281,217.0738 Q450.7156,215.4175 450.7156,212.2925 Q450.7156,209.1675 452.0281,207.5113 Q453.3563,205.855 455.8563,205.855 Q456.5594,205.855 457.2,206.0113 Q457.8563,206.1675 458.4188,206.4644 L458.4188,209.1831 Q457.7938,208.605 457.2,208.3394 Q456.6063,208.0581 455.9813,208.0581 Q454.6375,208.0581 453.95,209.1363 Q453.2625,210.1988 453.2625,212.2925 Q453.2625,214.3863 453.95,215.4644 Q454.6375,216.5269 455.9813,216.5269 Q456.6063,216.5269 457.2,216.2613 Q457.7938,215.98 458.4188,215.4019 L458.4188,218.1206 Z " fill="#000000"/><text fill="#000000" font-family="sans-serif" font-size="14" lengthAdjust="spacing" textLength="199" x="472.55" y="217.3267">GroovyBeanDefinitionReader</text><line style="stroke:#181818;stroke-width:0.5;" x1="427.5" x2="687.5" y1="228.48" y2="228.48"/><line style="stroke:#181818;stroke-width:0.5;" x1="427.5" x2="687.5" y1="236.48" y2="236.48"/><ellipse cx="437.5" cy="250.1284" fill="#84BE84" rx="3" ry="3" style="stroke:#038048;stroke-width:1.0;"/><text fill="#000000" font-family="sans-serif" font-size="14" lengthAdjust="spacing" textLength="236" x="446.5" y="253.4751">loadBeanDefinitions(Resource) int</text></g><!--class PropertiesBeanDefinitionReader--><g id="elem_PropertiesBeanDefinitionReader"><rect codeLine="20" fill="#F1F1F1" height="64.2969" id="PropertiesBeanDefinitionReader" rx="2.5" ry="2.5" style="stroke:#181818;stroke-width:0.5;" width="262" x="723.5" y="196.48"/><ellipse cx="742.1" cy="212.48" fill="#ADD1B2" rx="11" ry="11" style="stroke:#181818;stroke-width:1.0;"/><path d="M745.0688,218.1206 Q744.4906,218.4175 743.85,218.5581 Q743.2094,218.7144 742.5063,218.7144 Q740.0063,218.7144 738.6781,217.0738 Q737.3656,215.4175 737.3656,212.2925 Q737.3656,209.1675 738.6781,207.5113 Q740.0063,205.855 742.5063,205.855 Q743.2094,205.855 743.85,206.0113 Q744.5063,206.1675 745.0688,206.4644 L745.0688,209.1831 Q744.4438,208.605 743.85,208.3394 Q743.2563,208.0581 742.6313,208.0581 Q741.2875,208.0581 740.6,209.1363 Q739.9125,210.1988 739.9125,212.2925 Q739.9125,214.3863 740.6,215.4644 Q741.2875,216.5269 742.6313,216.5269 Q743.2563,216.5269 743.85,216.2613 Q744.4438,215.98 745.0688,215.4019 L745.0688,218.1206 Z " fill="#000000"/><text fill="#000000" font-family="sans-serif" font-size="14" lengthAdjust="spacing" textLength="222" x="756.9" y="217.3267">PropertiesBeanDefinitionReader</text><line style="stroke:#181818;stroke-width:0.5;" x1="724.5" x2="984.5" y1="228.48" y2="228.48"/><line style="stroke:#181818;stroke-width:0.5;" x1="724.5" x2="984.5" y1="236.48" y2="236.48"/><ellipse cx="734.5" cy="250.1284" fill="#84BE84" rx="3" ry="3" style="stroke:#038048;stroke-width:1.0;"/><text fill="#000000" font-family="sans-serif" font-size="14" lengthAdjust="spacing" textLength="236" x="743.5" y="253.4751">loadBeanDefinitions(Resource) int</text></g><!--reverse link BeanDefinitionReader to AbstractBeanDefinitionReader--><g id="link_BeanDefinitionReader_AbstractBeanDefinitionReader"><path codeLine="23" d="M383.17,71.74 C387.64,71.74 392.11,71.74 396.58,71.74 " fill="none" id="BeanDefinitionReader-backto-AbstractBeanDefinitionReader" style="stroke:#181818;stroke-width:1.0;stroke-dasharray:7.0,7.0;"/><polygon fill="none" points="383.26,78.74,363.26,71.74,383.26,64.74,383.26,78.74" style="stroke:#181818;stroke-width:1.0;"/></g><!--reverse link AbstractBeanDefinitionReader to XmlBeanDefinitionReader--><g id="link_AbstractBeanDefinitionReader_XmlBeanDefinitionReader"><path codeLine="24" d="M431.91,138.24 C393.47,158.29 352.92,179.43 320.92,196.12 " fill="none" id="AbstractBeanDefinitionReader-backto-XmlBeanDefinitionReader" style="stroke:#181818;stroke-width:1.0;"/><polygon fill="none" points="428.31,131.7,449.28,128.66,434.78,144.11,428.31,131.7" style="stroke:#181818;stroke-width:1.0;"/></g><!--reverse link AbstractBeanDefinitionReader to GroovyBeanDefinitionReader--><g id="link_AbstractBeanDefinitionReader_GroovyBeanDefinitionReader"><path codeLine="25" d="M557.5,149.64 C557.5,166.09 557.5,182.58 557.5,196.12 " fill="none" id="AbstractBeanDefinitionReader-backto-GroovyBeanDefinitionReader" style="stroke:#181818;stroke-width:1.0;"/><polygon fill="none" points="550.5,149.66,557.5,129.66,564.5,149.66,550.5,149.66" style="stroke:#181818;stroke-width:1.0;"/></g><!--reverse link AbstractBeanDefinitionReader to PropertiesBeanDefinitionReader--><g id="link_AbstractBeanDefinitionReader_PropertiesBeanDefinitionReader"><path codeLine="26" d="M683.09,138.24 C721.53,158.29 762.08,179.43 794.08,196.12 " fill="none" id="AbstractBeanDefinitionReader-backto-PropertiesBeanDefinitionReader" style="stroke:#181818;stroke-width:1.0;"/><polygon fill="none" points="680.22,144.11,665.72,128.66,686.69,131.7,680.22,144.11" style="stroke:#181818;stroke-width:1.0;"/></g><!--SRC=[hPB12i8m38RFzYbwd4Zt288Yx28Yy-ArrZWAivKq2g9xTpiwXJaxHJqs-VCdNr9j270d5V0fI3E3dJQQj3Kvo2qWlx31Y1T0EHJQ4PwJOKSN4W-TiqTKCBTrkLUt0usgjbZ8FMHW02LPR6nRiLfR-gfsFvUi2BKfXbmRYadkJOEeOdBZHvIAk2gbStpIF6F48iB8yG4hdi1ygiqfka1yymrYnSBGwtqPlz0dImWs6LfxEl_3QOds04WQt6zklTT8o_GwVlarMMmXuYXyIPyhwrd21zLlmDyxt000]--></g></svg>