<?xml version="1.0" encoding="us-ascii" standalone="no"?><svg xmlns="http://www.w3.org/2000/svg" xmlns:xlink="http://www.w3.org/1999/xlink" contentStyleType="text/css" height="510px" preserveAspectRatio="none" style="width:1065px;height:510px;background:#FFFFFF;" version="1.1" viewBox="0 0 1065 510" width="1065px" zoomAndPan="magnify"><defs/><g><text fill="#000000" font-family="Consolas" font-size="14" font-weight="bold" lengthAdjust="spacing" textLength="211" x="422.5" y="27.9951">DispatcherServlet&#30340;&#32487;&#25215;&#20307;&#31995;</text><!--class Servlet--><g id="elem_Servlet"><rect codeLine="6" fill="#FFFFFF" height="60.2969" id="Servlet" rx="2.5" ry="2.5" style="stroke:#000000;stroke-width:1.0;" width="347" x="43" y="49.2969"/><ellipse cx="189.25" cy="63.2969" fill="#FFFFFF" rx="9" ry="9" style="stroke:#000000;stroke-width:1.0;"/><path d="M186.4219,59.875 L186.4219,58.0938 L192.5,58.0938 L192.5,59.875 L190.4688,59.875 L190.4688,66.5156 L192.5,66.5156 L192.5,68.2969 L186.4219,68.2969 L186.4219,66.5156 L188.4531,66.5156 L188.4531,59.875 L186.4219,59.875 Z " fill="#000000"/><text fill="#000000" font-family="Consolas" font-size="14" font-style="italic" lengthAdjust="spacing" textLength="47" x="206.75" y="68.1436">Servlet</text><line style="stroke:#000000;stroke-width:1.0;" x1="44" x2="389" y1="77.2969" y2="77.2969"/><line style="stroke:#000000;stroke-width:1.0;" x1="44" x2="389" y1="85.2969" y2="85.2969"/><ellipse cx="54" cy="98.9453" fill="#FFFFFF" rx="3" ry="3" style="stroke:#000000;stroke-width:1.0;"/><text fill="#000000" font-family="Consolas" font-size="14" lengthAdjust="spacing" textLength="323" x="61" y="102.292">service(ServletRequest, ServletResponse) void</text></g><!--class GenericServlet--><g id="elem_GenericServlet"><rect codeLine="9" fill="#FFFFFF" height="60.2969" id="GenericServlet" rx="2.5" ry="2.5" style="stroke:#000000;stroke-width:1.0;" width="347" x="43" y="169.5969"/><ellipse cx="162.25" cy="183.5969" fill="#FFFFFF" rx="9" ry="9" style="stroke:#000000;stroke-width:1.0;"/><path d="M161.9688,179.7375 L161.0156,183.9094 L162.9219,183.9094 L161.9688,179.7375 Z M160.7344,177.8937 L163.2031,177.8937 L165.9531,188.0969 L163.9375,188.0969 L163.3125,185.5812 L160.6094,185.5812 L160,188.0969 L157.9688,188.0969 L160.7344,177.8937 Z " fill="#000000"/><text fill="#000000" font-family="Consolas" font-size="14" font-style="italic" lengthAdjust="spacing" textLength="101" x="179.75" y="188.4436">GenericServlet</text><line style="stroke:#000000;stroke-width:1.0;" x1="44" x2="389" y1="197.5969" y2="197.5969"/><line style="stroke:#000000;stroke-width:1.0;" x1="44" x2="389" y1="205.5969" y2="205.5969"/><ellipse cx="54" cy="219.2453" fill="#FFFFFF" rx="3" ry="3" style="stroke:#000000;stroke-width:1.0;"/><text fill="#000000" font-family="Consolas" font-size="14" font-style="italic" lengthAdjust="spacing" textLength="323" x="61" y="222.592">service(ServletRequest, ServletResponse) void</text></g><!--class HttpServlet--><g id="elem_HttpServlet"><rect codeLine="12" fill="#FFFFFF" height="76.5938" id="HttpServlet" rx="2.5" ry="2.5" style="stroke:#000000;stroke-width:1.0;" width="405" x="14" y="289.8869"/><ellipse cx="174.75" cy="303.8869" fill="#FFFFFF" rx="9" ry="9" style="stroke:#000000;stroke-width:1.0;"/><path d="M174.4688,300.0275 L173.5156,304.1994 L175.4219,304.1994 L174.4688,300.0275 Z M173.2344,298.1838 L175.7031,298.1838 L178.4531,308.3869 L176.4375,308.3869 L175.8125,305.8713 L173.1094,305.8713 L172.5,308.3869 L170.4688,308.3869 L173.2344,298.1838 Z " fill="#000000"/><text fill="#000000" font-family="Consolas" font-size="14" font-style="italic" lengthAdjust="spacing" textLength="76" x="192.25" y="308.7336">HttpServlet</text><line style="stroke:#000000;stroke-width:1.0;" x1="15" x2="418" y1="317.8869" y2="317.8869"/><line style="stroke:#000000;stroke-width:1.0;" x1="15" x2="418" y1="325.8869" y2="325.8869"/><ellipse cx="25" cy="339.5353" fill="#FFFFFF" rx="3" ry="3" style="stroke:#000000;stroke-width:1.0;"/><text fill="#000000" font-family="Consolas" font-size="14" lengthAdjust="spacing" textLength="323" x="32" y="342.882">service(ServletRequest, ServletResponse) void</text><polygon fill="#FFFFFF" points="25,351.8322,21,357.8322,29,357.8322" style="stroke:#000000;stroke-width:1.0;"/><text fill="#000000" font-family="Consolas" font-size="14" font-style="italic" lengthAdjust="spacing" textLength="381" x="32" y="359.1789">service(HttpServletRequest, HttpServletResponse) void</text></g><!--class HttpServletBean--><g id="elem_HttpServletBean"><rect codeLine="16" fill="#FFFFFF" height="44" id="HttpServletBean" rx="2.5" ry="2.5" style="stroke:#000000;stroke-width:1.0;" width="140" x="453.5" y="306.1869"/><ellipse cx="466.5" cy="320.1869" fill="#FFFFFF" rx="9" ry="9" style="stroke:#000000;stroke-width:1.0;"/><path d="M466.2188,316.3275 L465.2656,320.4994 L467.1719,320.4994 L466.2188,316.3275 Z M464.9844,314.4838 L467.4531,314.4838 L470.2031,324.6869 L468.1875,324.6869 L467.5625,322.1713 L464.8594,322.1713 L464.25,324.6869 L462.2188,324.6869 L464.9844,314.4838 Z " fill="#000000"/><text fill="#000000" font-family="Consolas" font-size="14" font-style="italic" lengthAdjust="spacing" textLength="112" x="478.5" y="325.0336">HttpServletBean</text><line style="stroke:#000000;stroke-width:1.0;" x1="454.5" x2="592.5" y1="334.1869" y2="334.1869"/><line style="stroke:#000000;stroke-width:1.0;" x1="454.5" x2="592.5" y1="342.1869" y2="342.1869"/></g><!--class FrameworkServlet--><g id="elem_FrameworkServlet"><rect codeLine="18" fill="#FFFFFF" height="76.5938" id="FrameworkServlet" rx="2.5" ry="2.5" style="stroke:#000000;stroke-width:1.0;" width="424" x="628.5" y="289.8869"/><ellipse cx="775.25" cy="303.8869" fill="#FFFFFF" rx="9" ry="9" style="stroke:#000000;stroke-width:1.0;"/><path d="M774.9688,300.0275 L774.0156,304.1994 L775.9219,304.1994 L774.9688,300.0275 Z M773.7344,298.1838 L776.2031,298.1838 L778.9531,308.3869 L776.9375,308.3869 L776.3125,305.8713 L773.6094,305.8713 L773,308.3869 L770.9688,308.3869 L773.7344,298.1838 Z " fill="#000000"/><text fill="#000000" font-family="Consolas" font-size="14" font-style="italic" lengthAdjust="spacing" textLength="123" x="792.75" y="308.7336">FrameworkServlet</text><line style="stroke:#000000;stroke-width:1.0;" x1="629.5" x2="1051.5" y1="317.8869" y2="317.8869"/><line style="stroke:#000000;stroke-width:1.0;" x1="629.5" x2="1051.5" y1="325.8869" y2="325.8869"/><polygon fill="#FFFFFF" points="639.5,335.5353,635.5,341.5353,643.5,341.5353" style="stroke:#000000;stroke-width:1.0;"/><text fill="#000000" font-family="Consolas" font-size="14" lengthAdjust="spacing" textLength="381" x="646.5" y="342.882">service(HttpServletRequest, HttpServletResponse) void</text><polygon fill="#FFFFFF" points="639.5,351.8322,635.5,357.8322,643.5,357.8322" style="stroke:#000000;stroke-width:1.0;"/><text fill="#000000" font-family="Consolas" font-size="14" font-style="italic" lengthAdjust="spacing" textLength="400" x="646.5" y="359.1789">doService(HttpServletRequest, HttpServletResponse) void</text></g><!--class DispatcherServlet--><g id="elem_DispatcherServlet"><rect codeLine="22" fill="#FFFFFF" height="76.5938" id="DispatcherServlet" rx="2.5" ry="2.5" style="stroke:#000000;stroke-width:1.0;" width="435" x="623" y="426.4869"/><ellipse cx="775.75" cy="440.4869" fill="#FFFFFF" rx="9" ry="9" style="stroke:#000000;stroke-width:1.0;"/><path d="M778.1406,445.19 Q777.6563,445.44 777.125,445.565 Q776.6094,445.69 776.0313,445.69 Q773.9688,445.69 772.875,444.3306 Q771.7969,442.9712 771.7969,440.3931 Q771.7969,437.815 772.875,436.4556 Q773.9688,435.0962 776.0313,435.0962 Q776.6094,435.0962 777.1406,435.2212 Q777.6719,435.3462 778.1406,435.5806 L778.1406,437.8306 Q777.625,437.3462 777.125,437.1275 Q776.6406,436.9087 776.125,436.9087 Q775.0156,436.9087 774.4531,437.7837 Q773.8906,438.6587 773.8906,440.3931 Q773.8906,442.1119 774.4531,443.0025 Q775.0156,443.8775 776.125,443.8775 Q776.6406,443.8775 777.125,443.6587 Q777.625,443.4244 778.1406,442.9556 L778.1406,445.19 Z " fill="#000000"/><text fill="#000000" font-family="Consolas" font-size="14" lengthAdjust="spacing" textLength="122" x="793.25" y="445.3336">DispatcherServlet</text><line style="stroke:#000000;stroke-width:1.0;" x1="624" x2="1057" y1="454.4869" y2="454.4869"/><line style="stroke:#000000;stroke-width:1.0;" x1="624" x2="1057" y1="462.4869" y2="462.4869"/><polygon fill="#FFFFFF" points="634,472.1353,630,478.1353,638,478.1353" style="stroke:#000000;stroke-width:1.0;"/><text fill="#000000" font-family="Consolas" font-size="14" lengthAdjust="spacing" textLength="400" x="641" y="479.482">doService(HttpServletRequest, HttpServletResponse) void</text><polygon fill="#FFFFFF" points="634,488.4322,630,494.4322,638,494.4322" style="stroke:#000000;stroke-width:1.0;"/><text fill="#000000" font-family="Consolas" font-size="14" lengthAdjust="spacing" textLength="411" x="641" y="495.7789">doDispatch(HttpServletRequest, HttpServletResponse) void</text></g><!--reverse link Servlet to GenericServlet--><g id="link_Servlet_GenericServlet"><path codeLine="27" d="M216.5,130.9269 C216.5,143.9669 216.5,157.5869 216.5,169.1569 " fill="none" id="Servlet-backto-GenericServlet" style="stroke:#000000;stroke-width:1.0;stroke-dasharray:7.0,7.0;"/><polygon fill="none" points="209.5,130.9869,216.5,110.9869,223.5,130.9869,209.5,130.9869" style="stroke:#000000;stroke-width:1.0;"/></g><!--reverse link GenericServlet to HttpServlet--><g id="link_GenericServlet_HttpServlet"><path codeLine="28" d="M216.5,250.9369 C216.5,263.8169 216.5,277.4369 216.5,289.5569 " fill="none" id="GenericServlet-backto-HttpServlet" style="stroke:#000000;stroke-width:1.0;"/><polygon fill="none" points="209.5,251.3869,216.5,231.3869,223.5,251.3869,209.5,251.3869" style="stroke:#000000;stroke-width:1.0;"/></g><!--reverse link HttpServlet to HttpServletBean--><g id="link_HttpServlet_HttpServletBean"><path codeLine="29" d="M440.29,328.1869 C444.59,328.1869 448.89,328.1869 453.2,328.1869 " fill="none" id="HttpServlet-backto-HttpServletBean" style="stroke:#000000;stroke-width:1.0;"/><polygon fill="none" points="440.47,335.1869,420.47,328.1869,440.47,321.1869,440.47,335.1869" style="stroke:#000000;stroke-width:1.0;"/></g><!--reverse link HttpServletBean to FrameworkServlet--><g id="link_HttpServletBean_FrameworkServlet"><path codeLine="30" d="M614.64,328.1869 C619.25,328.1869 623.86,328.1869 628.47,328.1869 " fill="none" id="HttpServletBean-backto-FrameworkServlet" style="stroke:#000000;stroke-width:1.0;"/><polygon fill="none" points="614.77,335.1869,594.77,328.1869,614.77,321.1869,614.77,335.1869" style="stroke:#000000;stroke-width:1.0;"/></g><!--reverse link FrameworkServlet to DispatcherServlet--><g id="link_FrameworkServlet_DispatcherServlet"><path codeLine="31" d="M840.5,387.2769 C840.5,400.3969 840.5,413.9969 840.5,426.0269 " fill="none" id="FrameworkServlet-backto-DispatcherServlet" style="stroke:#000000;stroke-width:1.0;"/><polygon fill="none" points="833.5,387.6769,840.5,367.6769,847.5,387.6769,833.5,387.6769" style="stroke:#000000;stroke-width:1.0;"/></g><!--SRC=[fL8xJiD04AqpfnWw43WI4ZK5H86A0fzWSIRAAfjTipiE4iQfQAZfk007e8mGbq7u6cpYEF872N3AcNdlpPjzkySJcX76IaWDRYfrBAoO8KjMD3IQGtbFU7nI6OreB1B5lmwlXDSzDzeP9Hoi1N4WNImucf0DoSuLSVxoc2zVlvu-Fj-VyxSbICrano8Yt00mXTuXEb_8YFOtpMkwJSZn4Mvh5_j5T81p8qUGWRXnR4N46FdT3Yz8avLHJJ8jCTckwfVCyGvkUukVl5H4j_nQxy-UpaXeJ3DeGeO-BxepTbhnlkYultx3o8GThoYSjNv9OQshx9fQQlxR4ZG-Jp_fFvoMKK8r-o09_AGEXsOGWLg1AbrevT22h8ZGVfHYNvF-3G00]--></g></svg>