<?xml version="1.0" encoding="us-ascii" standalone="no"?><svg xmlns="http://www.w3.org/2000/svg" xmlns:xlink="http://www.w3.org/1999/xlink" contentStyleType="text/css" height="334px" preserveAspectRatio="none" style="width:1543px;height:334px;background:#FFFFFF;" version="1.1" viewBox="0 0 1543 334" width="1543px" zoomAndPan="magnify"><defs/><g><text fill="#000000" font-family="Consolas" font-size="14" font-weight="bold" lengthAdjust="spacing" textLength="296" x="619" y="27.9951">DispatcherServlet#getHandler&#28041;&#21450;&#30340;&#31867;</text><!--class HandlerMapping--><g id="elem_HandlerMapping"><rect codeLine="6" fill="#FFFFFF" height="60.2969" id="HandlerMapping" rx="2.5" ry="2.5" style="stroke:#000000;stroke-width:1.0;" width="409" x="456" y="81.8969"/><ellipse cx="600.75" cy="95.8969" fill="#FFFFFF" rx="9" ry="9" style="stroke:#000000;stroke-width:1.0;"/><path d="M597.9219,92.475 L597.9219,90.6938 L604,90.6938 L604,92.475 L601.9688,92.475 L601.9688,99.1156 L604,99.1156 L604,100.8969 L597.9219,100.8969 L597.9219,99.1156 L599.9531,99.1156 L599.9531,92.475 L597.9219,92.475 Z " fill="#000000"/><text fill="#000000" font-family="Consolas" font-size="14" font-style="italic" lengthAdjust="spacing" textLength="112" x="618.25" y="100.7436">HandlerMapping</text><line style="stroke:#000000;stroke-width:1.0;" x1="457" x2="864" y1="109.8969" y2="109.8969"/><line style="stroke:#000000;stroke-width:1.0;" x1="457" x2="864" y1="117.8969" y2="117.8969"/><ellipse cx="467" cy="131.5453" fill="#FFFFFF" rx="3" ry="3" style="stroke:#000000;stroke-width:1.0;"/><text fill="#000000" font-family="Consolas" font-size="14" lengthAdjust="spacing" textLength="385" x="474" y="134.892">getHandler(HttpServletRequest) HandlerExecutionChain</text></g><!--class HandlerExecutionChain--><g id="elem_HandlerExecutionChain"><rect codeLine="10" fill="#FFFFFF" height="125.4844" id="HandlerExecutionChain" rx="2.5" ry="2.5" style="stroke:#000000;stroke-width:1.0;" width="553" x="967" y="49.2969"/><ellipse cx="1159.75" cy="63.2969" fill="#FFFFFF" rx="9" ry="9" style="stroke:#000000;stroke-width:1.0;"/><path d="M1162.1406,68 Q1161.6563,68.25 1161.125,68.375 Q1160.6094,68.5 1160.0313,68.5 Q1157.9688,68.5 1156.875,67.1406 Q1155.7969,65.7813 1155.7969,63.2031 Q1155.7969,60.625 1156.875,59.2656 Q1157.9688,57.9063 1160.0313,57.9063 Q1160.6094,57.9063 1161.1406,58.0313 Q1161.6719,58.1563 1162.1406,58.3906 L1162.1406,60.6406 Q1161.625,60.1563 1161.125,59.9375 Q1160.6406,59.7188 1160.125,59.7188 Q1159.0156,59.7188 1158.4531,60.5938 Q1157.8906,61.4688 1157.8906,63.2031 Q1157.8906,64.9219 1158.4531,65.8125 Q1159.0156,66.6875 1160.125,66.6875 Q1160.6406,66.6875 1161.125,66.4688 Q1161.625,66.2344 1162.1406,65.7656 L1162.1406,68 Z " fill="#000000"/><text fill="#000000" font-family="Consolas" font-size="14" lengthAdjust="spacing" textLength="160" x="1177.25" y="68.1436">HandlerExecutionChain</text><line style="stroke:#000000;stroke-width:1.0;" x1="968" x2="1519" y1="77.2969" y2="77.2969"/><rect fill="none" height="6" style="stroke:#000000;stroke-width:1.0;" width="6" x="975" y="87.9453"/><text fill="#000000" font-family="Consolas" font-size="14" lengthAdjust="spacing" textLength="101" x="985" y="94.292">Object handler</text><rect fill="none" height="6" style="stroke:#000000;stroke-width:1.0;" width="6" x="975" y="104.2422"/><text fill="#000000" font-family="Consolas" font-size="14" lengthAdjust="spacing" textLength="279" x="985" y="110.5889">List&lt;HandlerInterceptor&gt; interceptorList</text><line style="stroke:#000000;stroke-width:1.0;" x1="968" x2="1519" y1="117.8906" y2="117.8906"/><text fill="#000000" font-family="Consolas" font-size="14" lengthAdjust="spacing" textLength="520" x="973" y="134.8857">applyPreHandle(HttpServletRequest, HttpServletResponse, Object) boolean</text><text fill="#000000" font-family="Consolas" font-size="14" lengthAdjust="spacing" textLength="500" x="973" y="151.1826">applyPostHandle(HttpServletRequest, HttpServletResponse, Object) void</text><text fill="#000000" font-family="Consolas" font-size="14" lengthAdjust="spacing" textLength="541" x="973" y="167.4795">triggerAfterCompletion(HttpServletRequest, HttpServletResponse, Object) void</text></g><!--class HandlerInterceptor--><g id="elem_HandlerInterceptor"><rect codeLine="18" fill="#FFFFFF" height="92.8906" id="HandlerInterceptor" rx="2.5" ry="2.5" style="stroke:#000000;stroke-width:1.0;" width="519" x="1017" y="234.7869"/><ellipse cx="1208.25" cy="248.7869" fill="#FFFFFF" rx="9" ry="9" style="stroke:#000000;stroke-width:1.0;"/><path d="M1205.4219,245.365 L1205.4219,243.5838 L1211.5,243.5838 L1211.5,245.365 L1209.4688,245.365 L1209.4688,252.0056 L1211.5,252.0056 L1211.5,253.7869 L1205.4219,253.7869 L1205.4219,252.0056 L1207.4531,252.0056 L1207.4531,245.365 L1205.4219,245.365 Z " fill="#000000"/><text fill="#000000" font-family="Consolas" font-size="14" font-style="italic" lengthAdjust="spacing" textLength="129" x="1225.75" y="253.6336">HandlerInterceptor</text><line style="stroke:#000000;stroke-width:1.0;" x1="1018" x2="1535" y1="262.7869" y2="262.7869"/><line style="stroke:#000000;stroke-width:1.0;" x1="1018" x2="1535" y1="270.7869" y2="270.7869"/><ellipse cx="1028" cy="284.4353" fill="#FFFFFF" rx="3" ry="3" style="stroke:#000000;stroke-width:1.0;"/><text fill="#000000" font-family="Consolas" font-size="14" lengthAdjust="spacing" textLength="484" x="1035" y="287.782">preHandle(HttpServletRequest, HttpServletResponse, Object) boolean</text><ellipse cx="1028" cy="300.7322" fill="#FFFFFF" rx="3" ry="3" style="stroke:#000000;stroke-width:1.0;"/><text fill="#000000" font-family="Consolas" font-size="14" lengthAdjust="spacing" textLength="464" x="1035" y="304.0789">postHandle(HttpServletRequest, HttpServletResponse, Object) void</text><ellipse cx="1028" cy="317.0291" fill="#FFFFFF" rx="3" ry="3" style="stroke:#000000;stroke-width:1.0;"/><text fill="#000000" font-family="Consolas" font-size="14" lengthAdjust="spacing" textLength="495" x="1035" y="320.3757">afterCompletion(HttpServletRequest, HttpServletResponse, Object) void</text></g><!--class RequestMappingHandlerMapping--><g id="elem_RequestMappingHandlerMapping"><rect fill="#FFFFFF" height="44" id="RequestMappingHandlerMapping" rx="2.5" ry="2.5" style="stroke:#000000;stroke-width:1.0;" width="258" x="216.5" y="259.2269"/><ellipse cx="229.5" cy="273.2269" fill="#FFFFFF" rx="9" ry="9" style="stroke:#000000;stroke-width:1.0;"/><path d="M231.8906,277.93 Q231.4063,278.18 230.875,278.305 Q230.3594,278.43 229.7813,278.43 Q227.7188,278.43 226.625,277.0706 Q225.5469,275.7113 225.5469,273.1331 Q225.5469,270.555 226.625,269.1956 Q227.7188,267.8363 229.7813,267.8363 Q230.3594,267.8363 230.8906,267.9613 Q231.4219,268.0863 231.8906,268.3206 L231.8906,270.5706 Q231.375,270.0863 230.875,269.8675 Q230.3906,269.6488 229.875,269.6488 Q228.7656,269.6488 228.2031,270.5238 Q227.6406,271.3988 227.6406,273.1331 Q227.6406,274.8519 228.2031,275.7425 Q228.7656,276.6175 229.875,276.6175 Q230.3906,276.6175 230.875,276.3988 Q231.375,276.1644 231.8906,275.6956 L231.8906,277.93 Z " fill="#000000"/><text fill="#000000" font-family="Consolas" font-size="14" lengthAdjust="spacing" textLength="230" x="241.5" y="278.0736">RequestMappingHandlerMapping</text><line style="stroke:#000000;stroke-width:1.0;" x1="217.5" x2="473.5" y1="287.2269" y2="287.2269"/><line style="stroke:#000000;stroke-width:1.0;" x1="217.5" x2="473.5" y1="295.2269" y2="295.2269"/></g><!--class BeanNameUrlHandlerMapping--><g id="elem_BeanNameUrlHandlerMapping"><rect fill="#FFFFFF" height="44" id="BeanNameUrlHandlerMapping" rx="2.5" ry="2.5" style="stroke:#000000;stroke-width:1.0;" width="234" x="509.5" y="259.2269"/><ellipse cx="522.5" cy="273.2269" fill="#FFFFFF" rx="9" ry="9" style="stroke:#000000;stroke-width:1.0;"/><path d="M524.8906,277.93 Q524.4063,278.18 523.875,278.305 Q523.3594,278.43 522.7813,278.43 Q520.7188,278.43 519.625,277.0706 Q518.5469,275.7113 518.5469,273.1331 Q518.5469,270.555 519.625,269.1956 Q520.7188,267.8363 522.7813,267.8363 Q523.3594,267.8363 523.8906,267.9613 Q524.4219,268.0863 524.8906,268.3206 L524.8906,270.5706 Q524.375,270.0863 523.875,269.8675 Q523.3906,269.6488 522.875,269.6488 Q521.7656,269.6488 521.2031,270.5238 Q520.6406,271.3988 520.6406,273.1331 Q520.6406,274.8519 521.2031,275.7425 Q521.7656,276.6175 522.875,276.6175 Q523.3906,276.6175 523.875,276.3988 Q524.375,276.1644 524.8906,275.6956 L524.8906,277.93 Z " fill="#000000"/><text fill="#000000" font-family="Consolas" font-size="14" lengthAdjust="spacing" textLength="206" x="534.5" y="278.0736">BeanNameUrlHandlerMapping</text><line style="stroke:#000000;stroke-width:1.0;" x1="510.5" x2="742.5" y1="287.2269" y2="287.2269"/><line style="stroke:#000000;stroke-width:1.0;" x1="510.5" x2="742.5" y1="295.2269" y2="295.2269"/></g><!--class SimpleUrlHandlerMapping--><g id="elem_SimpleUrlHandlerMapping"><rect fill="#FFFFFF" height="44" id="SimpleUrlHandlerMapping" rx="2.5" ry="2.5" style="stroke:#000000;stroke-width:1.0;" width="204" x="778.5" y="259.2269"/><ellipse cx="791.5" cy="273.2269" fill="#FFFFFF" rx="9" ry="9" style="stroke:#000000;stroke-width:1.0;"/><path d="M793.8906,277.93 Q793.4063,278.18 792.875,278.305 Q792.3594,278.43 791.7813,278.43 Q789.7188,278.43 788.625,277.0706 Q787.5469,275.7113 787.5469,273.1331 Q787.5469,270.555 788.625,269.1956 Q789.7188,267.8363 791.7813,267.8363 Q792.3594,267.8363 792.8906,267.9613 Q793.4219,268.0863 793.8906,268.3206 L793.8906,270.5706 Q793.375,270.0863 792.875,269.8675 Q792.3906,269.6488 791.875,269.6488 Q790.7656,269.6488 790.2031,270.5238 Q789.6406,271.3988 789.6406,273.1331 Q789.6406,274.8519 790.2031,275.7425 Q790.7656,276.6175 791.875,276.6175 Q792.3906,276.6175 792.875,276.3988 Q793.375,276.1644 793.8906,275.6956 L793.8906,277.93 Z " fill="#000000"/><text fill="#000000" font-family="Consolas" font-size="14" lengthAdjust="spacing" textLength="176" x="803.5" y="278.0736">SimpleUrlHandlerMapping</text><line style="stroke:#000000;stroke-width:1.0;" x1="779.5" x2="981.5" y1="287.2269" y2="287.2269"/><line style="stroke:#000000;stroke-width:1.0;" x1="779.5" x2="981.5" y1="295.2269" y2="295.2269"/></g><!--class DispatcherServlet--><g id="elem_DispatcherServlet"><rect codeLine="30" fill="#FFFFFF" height="76.5938" id="DispatcherServlet" rx="2.5" ry="2.5" style="stroke:#000000;stroke-width:1.0;" width="409" x="12" y="73.7469"/><ellipse cx="151.75" cy="87.7469" fill="#FFFFFF" rx="9" ry="9" style="stroke:#000000;stroke-width:1.0;"/><path d="M154.1406,92.45 Q153.6563,92.7 153.125,92.825 Q152.6094,92.95 152.0313,92.95 Q149.9688,92.95 148.875,91.5906 Q147.7969,90.2312 147.7969,87.6531 Q147.7969,85.075 148.875,83.7156 Q149.9688,82.3562 152.0313,82.3562 Q152.6094,82.3562 153.1406,82.4812 Q153.6719,82.6062 154.1406,82.8406 L154.1406,85.0906 Q153.625,84.6062 153.125,84.3875 Q152.6406,84.1687 152.125,84.1687 Q151.0156,84.1687 150.4531,85.0437 Q149.8906,85.9187 149.8906,87.6531 Q149.8906,89.3719 150.4531,90.2625 Q151.0156,91.1375 152.125,91.1375 Q152.6406,91.1375 153.125,90.9187 Q153.625,90.6844 154.1406,90.2156 L154.1406,92.45 Z " fill="#000000"/><text fill="#000000" font-family="Consolas" font-size="14" lengthAdjust="spacing" textLength="122" x="169.25" y="92.5936">DispatcherServlet</text><line style="stroke:#000000;stroke-width:1.0;" x1="13" x2="420" y1="101.7469" y2="101.7469"/><rect fill="none" height="6" style="stroke:#000000;stroke-width:1.0;" width="6" x="20" y="112.3953"/><text fill="#000000" font-family="Consolas" font-size="14" lengthAdjust="spacing" textLength="282" x="30" y="118.742">List&lt;HandlerMapping&gt; handlerMappings</text><line style="stroke:#000000;stroke-width:1.0;" x1="13" x2="420" y1="126.0437" y2="126.0437"/><ellipse cx="23" cy="139.6922" fill="#FFFFFF" rx="3" ry="3" style="stroke:#000000;stroke-width:1.0;"/><text fill="#000000" font-family="Consolas" font-size="14" lengthAdjust="spacing" textLength="385" x="30" y="143.0389">getHandler(HttpServletRequest) HandlerExecutionChain</text></g><!--reverse link HandlerMapping to RequestMappingHandlerMapping--><g id="link_HandlerMapping_RequestMappingHandlerMapping"><path codeLine="24" d="M586.7,152.2169 C523.9,185.5469 436.07,232.1569 385.56,258.9669 " fill="none" id="HandlerMapping-backto-RequestMappingHandlerMapping" style="stroke:#000000;stroke-width:1.0;stroke-dasharray:7.0,7.0;"/><polygon fill="none" points="582.96,145.7469,603.91,142.5469,589.53,158.1069,582.96,145.7469" style="stroke:#000000;stroke-width:1.0;"/></g><!--reverse link HandlerMapping to BeanNameUrlHandlerMapping--><g id="link_HandlerMapping_BeanNameUrlHandlerMapping"><path codeLine="25" d="M650.4,162.6969 C643.88,194.7669 635.73,234.8669 630.82,258.9669 " fill="none" id="HandlerMapping-backto-BeanNameUrlHandlerMapping" style="stroke:#000000;stroke-width:1.0;stroke-dasharray:7.0,7.0;"/><polygon fill="none" points="643.65,161.7569,654.5,143.5469,657.37,164.5469,643.65,161.7569" style="stroke:#000000;stroke-width:1.0;"/></g><!--reverse link HandlerMapping to SimpleUrlHandlerMapping--><g id="link_HandlerMapping_SimpleUrlHandlerMapping"><path codeLine="26" d="M715.76,155.0369 C759.31,188.1369 818.23,232.9069 852.52,258.9669 " fill="none" id="HandlerMapping-backto-SimpleUrlHandlerMapping" style="stroke:#000000;stroke-width:1.0;stroke-dasharray:7.0,7.0;"/><polygon fill="none" points="712.01,160.2269,700.33,142.5469,720.48,149.0769,712.01,160.2269" style="stroke:#000000;stroke-width:1.0;"/></g><!--link HandlerMapping to HandlerExecutionChain--><g id="link_HandlerMapping_HandlerExecutionChain"><path codeLine="27" d="M865.46,112.0469 C897.2,112.0469 928.95,112.0469 960.69,112.0469 " fill="none" id="HandlerMapping-to-HandlerExecutionChain" style="stroke:#000000;stroke-width:1.0;stroke-dasharray:7.0,7.0;"/><polygon fill="#000000" points="965.62,112.0469,956.62,108.0469,960.62,112.0469,956.62,116.0469,965.62,112.0469" style="stroke:#000000;stroke-width:1.0;"/></g><!--reverse link HandlerExecutionChain to HandlerInterceptor--><g id="link_HandlerExecutionChain_HandlerInterceptor"><path codeLine="28" d="M1258.38,188.4369 C1261.47,204.1069 1264.64,220.1669 1267.45,234.3869 " fill="none" id="HandlerExecutionChain-backto-HandlerInterceptor" style="stroke:#000000;stroke-width:1.0;"/><polygon fill="#000000" points="1255.69,175.8269,1252.9257,182.4871,1258.0104,187.6004,1260.7747,180.9402,1255.69,175.8269" style="stroke:#000000;stroke-width:1.0;"/><text fill="#000000" font-family="Consolas" font-size="14" lengthAdjust="spacing" textLength="9" x="1247.5311" y="195.5806">1</text><text fill="#000000" font-family="Consolas" font-size="14" lengthAdjust="spacing" textLength="9" x="1256.4598" y="223.3484">n</text></g><!--reverse link DispatcherServlet to HandlerMapping--><g id="link_DispatcherServlet_HandlerMapping"><path codeLine="34" d="M434.94,112.0469 C441.88,112.0469 448.81,112.0469 455.75,112.0469 " fill="none" id="DispatcherServlet-backto-HandlerMapping" style="stroke:#000000;stroke-width:1.0;"/><polygon fill="#000000" points="422.16,112.0469,428.16,116.0469,434.16,112.0469,428.16,108.0469,422.16,112.0469" style="stroke:#000000;stroke-width:1.0;"/><text fill="#000000" font-family="Consolas" font-size="14" lengthAdjust="spacing" textLength="9" x="428.6767" y="108.7599">1</text><text fill="#000000" font-family="Consolas" font-size="14" lengthAdjust="spacing" textLength="9" x="439.2301" y="108.7599">n</text></g><!--SRC=[hLEvJWCn4AtZhp2X8UIG8b6YI110GU8I4H_Wx4vs3OvjxDc8iwE1Xfw_eA7XUo2_WPVrAYSYIbBQy-RDUtEiOGmze5emBeczub8pmteKEGeuK1BR_0veVMia54AN9GB_3PumnzjKqYh1BFabf7lSQeP13AODfYy0roF05fEX0FFzyVpr-Z9uUngyVn8k4KoN1K1zz9XfpML4xqcXJ8T96or4xRdEuJe1YwKyPVy6WWIvaiquDVT8IE2KsDdXbBXAJpkN422DCqJwSyGjRlkCmrHK01gLQL0-VAGOKd02nUsPWGmyGrY5ZlrPxNe35L-pH3jA2M0o9r8M5sNgAnwI0XeUHM1skavdK_MqWpgp2xAvvasDPAGTsLZq2imxbgMTbobRbMcFzjitiOkrfFRGc5XGikjifAj_OSGyy3PFHSu9diIOMkEFPP-zuyLwaMvMmoejokACAUO7CdMbsN6CdeANqCXFnR_j4jSvNJMJQyRa-a8_]--></g></svg>