<?xml version="1.0" encoding="us-ascii" standalone="no"?><svg xmlns="http://www.w3.org/2000/svg" xmlns:xlink="http://www.w3.org/1999/xlink" contentStyleType="text/css" height="239px" preserveAspectRatio="none" style="width:1037px;height:239px;background:#FFFFFF;" version="1.1" viewBox="0 0 1037 239" width="1037px" zoomAndPan="magnify"><defs/><g><text fill="#000000" font-family="sans-serif" font-size="14" font-weight="bold" lengthAdjust="spacing" textLength="359" x="332" y="22.9951">DispatcherServlet#getHandlerAdapter&#28041;&#21450;&#30340;&#31867;</text><!--class HandlerAdapter--><g id="elem_HandlerAdapter"><rect codeLine="3" fill="#F1F1F1" height="80.5938" id="HandlerAdapter" rx="2.5" ry="2.5" style="stroke:#181818;stroke-width:0.5;" width="531" x="363.5" y="44.2969"/><ellipse cx="571.25" cy="60.2969" fill="#B4A7E5" rx="11" ry="11" style="stroke:#181818;stroke-width:1.0;"/><path d="M567.1719,56.0625 L567.1719,53.9063 L574.5625,53.9063 L574.5625,56.0625 L572.0938,56.0625 L572.0938,64.1406 L574.5625,64.1406 L574.5625,66.2969 L567.1719,66.2969 L567.1719,64.1406 L569.6406,64.1406 L569.6406,56.0625 L567.1719,56.0625 Z " fill="#000000"/><text fill="#000000" font-family="sans-serif" font-size="14" font-style="italic" lengthAdjust="spacing" textLength="107" x="591.75" y="65.1436">HandlerAdapter</text><line style="stroke:#181818;stroke-width:0.5;" x1="364.5" x2="893.5" y1="76.2969" y2="76.2969"/><line style="stroke:#181818;stroke-width:0.5;" x1="364.5" x2="893.5" y1="84.2969" y2="84.2969"/><ellipse cx="374.5" cy="97.9453" fill="#84BE84" rx="3" ry="3" style="stroke:#038048;stroke-width:1.0;"/><text fill="#000000" font-family="sans-serif" font-size="14" lengthAdjust="spacing" textLength="177" x="383.5" y="101.292">supports(Object) boolean</text><ellipse cx="374.5" cy="114.2422" fill="#84BE84" rx="3" ry="3" style="stroke:#038048;stroke-width:1.0;"/><text fill="#000000" font-family="sans-serif" font-size="14" lengthAdjust="spacing" textLength="505" x="383.5" y="117.5889">handle(HttpServletRequest, HttpServletResponse, Object) ModelAndView</text></g><!--class RequestMappingHandlerAdapter--><g id="elem_RequestMappingHandlerAdapter"><rect fill="#F1F1F1" height="48" id="RequestMappingHandlerAdapter" rx="2.5" ry="2.5" style="stroke:#181818;stroke-width:0.5;" width="257" x="223.5" y="184.8869"/><ellipse cx="238.5" cy="200.8869" fill="#ADD1B2" rx="11" ry="11" style="stroke:#181818;stroke-width:1.0;"/><path d="M241.4688,206.5275 Q240.8906,206.8244 240.25,206.965 Q239.6094,207.1213 238.9063,207.1213 Q236.4063,207.1213 235.0781,205.4806 Q233.7656,203.8244 233.7656,200.6994 Q233.7656,197.5744 235.0781,195.9181 Q236.4063,194.2619 238.9063,194.2619 Q239.6094,194.2619 240.25,194.4181 Q240.9063,194.5744 241.4688,194.8713 L241.4688,197.59 Q240.8438,197.0119 240.25,196.7463 Q239.6563,196.465 239.0313,196.465 Q237.6875,196.465 237,197.5431 Q236.3125,198.6056 236.3125,200.6994 Q236.3125,202.7931 237,203.8713 Q237.6875,204.9338 239.0313,204.9338 Q239.6563,204.9338 240.25,204.6681 Q240.8438,204.3869 241.4688,203.8088 L241.4688,206.5275 Z " fill="#000000"/><text fill="#000000" font-family="sans-serif" font-size="14" lengthAdjust="spacing" textLength="225" x="252.5" y="205.7336">RequestMappingHandlerAdapter</text><line style="stroke:#181818;stroke-width:0.5;" x1="224.5" x2="479.5" y1="216.8869" y2="216.8869"/><line style="stroke:#181818;stroke-width:0.5;" x1="224.5" x2="479.5" y1="224.8869" y2="224.8869"/></g><!--class HttpRequestHandlerAdapter--><g id="elem_HttpRequestHandlerAdapter"><rect fill="#F1F1F1" height="48" id="HttpRequestHandlerAdapter" rx="2.5" ry="2.5" style="stroke:#181818;stroke-width:0.5;" width="227" x="515.5" y="184.8869"/><ellipse cx="530.5" cy="200.8869" fill="#ADD1B2" rx="11" ry="11" style="stroke:#181818;stroke-width:1.0;"/><path d="M533.4688,206.5275 Q532.8906,206.8244 532.25,206.965 Q531.6094,207.1213 530.9063,207.1213 Q528.4063,207.1213 527.0781,205.4806 Q525.7656,203.8244 525.7656,200.6994 Q525.7656,197.5744 527.0781,195.9181 Q528.4063,194.2619 530.9063,194.2619 Q531.6094,194.2619 532.25,194.4181 Q532.9063,194.5744 533.4688,194.8713 L533.4688,197.59 Q532.8438,197.0119 532.25,196.7463 Q531.6563,196.465 531.0313,196.465 Q529.6875,196.465 529,197.5431 Q528.3125,198.6056 528.3125,200.6994 Q528.3125,202.7931 529,203.8713 Q529.6875,204.9338 531.0313,204.9338 Q531.6563,204.9338 532.25,204.6681 Q532.8438,204.3869 533.4688,203.8088 L533.4688,206.5275 Z " fill="#000000"/><text fill="#000000" font-family="sans-serif" font-size="14" lengthAdjust="spacing" textLength="195" x="544.5" y="205.7336">HttpRequestHandlerAdapter</text><line style="stroke:#181818;stroke-width:0.5;" x1="516.5" x2="741.5" y1="216.8869" y2="216.8869"/><line style="stroke:#181818;stroke-width:0.5;" x1="516.5" x2="741.5" y1="224.8869" y2="224.8869"/></g><!--class SimpleControllerHandlerAdapter--><g id="elem_SimpleControllerHandlerAdapter"><rect fill="#F1F1F1" height="48" id="SimpleControllerHandlerAdapter" rx="2.5" ry="2.5" style="stroke:#181818;stroke-width:0.5;" width="252" x="778" y="184.8869"/><ellipse cx="793" cy="200.8869" fill="#ADD1B2" rx="11" ry="11" style="stroke:#181818;stroke-width:1.0;"/><path d="M795.9688,206.5275 Q795.3906,206.8244 794.75,206.965 Q794.1094,207.1213 793.4063,207.1213 Q790.9063,207.1213 789.5781,205.4806 Q788.2656,203.8244 788.2656,200.6994 Q788.2656,197.5744 789.5781,195.9181 Q790.9063,194.2619 793.4063,194.2619 Q794.1094,194.2619 794.75,194.4181 Q795.4063,194.5744 795.9688,194.8713 L795.9688,197.59 Q795.3438,197.0119 794.75,196.7463 Q794.1563,196.465 793.5313,196.465 Q792.1875,196.465 791.5,197.5431 Q790.8125,198.6056 790.8125,200.6994 Q790.8125,202.7931 791.5,203.8713 Q792.1875,204.9338 793.5313,204.9338 Q794.1563,204.9338 794.75,204.6681 Q795.3438,204.3869 795.9688,203.8088 L795.9688,206.5275 Z " fill="#000000"/><text fill="#000000" font-family="sans-serif" font-size="14" lengthAdjust="spacing" textLength="220" x="807" y="205.7336">SimpleControllerHandlerAdapter</text><line style="stroke:#181818;stroke-width:0.5;" x1="779" x2="1029" y1="216.8869" y2="216.8869"/><line style="stroke:#181818;stroke-width:0.5;" x1="779" x2="1029" y1="224.8869" y2="224.8869"/></g><!--class DispatcherServlet--><g id="elem_DispatcherServlet"><rect codeLine="12" fill="#F1F1F1" height="80.5938" id="DispatcherServlet" rx="2.5" ry="2.5" style="stroke:#181818;stroke-width:0.5;" width="322" x="7" y="44.2969"/><ellipse cx="102.75" cy="60.2969" fill="#ADD1B2" rx="11" ry="11" style="stroke:#181818;stroke-width:1.0;"/><path d="M105.7188,65.9375 Q105.1406,66.2344 104.5,66.375 Q103.8594,66.5313 103.1563,66.5313 Q100.6563,66.5313 99.3281,64.8906 Q98.0156,63.2344 98.0156,60.1094 Q98.0156,56.9844 99.3281,55.3281 Q100.6563,53.6719 103.1563,53.6719 Q103.8594,53.6719 104.5,53.8281 Q105.1563,53.9844 105.7188,54.2813 L105.7188,57 Q105.0938,56.4219 104.5,56.1563 Q103.9063,55.875 103.2813,55.875 Q101.9375,55.875 101.25,56.9531 Q100.5625,58.0156 100.5625,60.1094 Q100.5625,62.2031 101.25,63.2813 Q101.9375,64.3438 103.2813,64.3438 Q103.9063,64.3438 104.5,64.0781 Q105.0938,63.7969 105.7188,63.2188 L105.7188,65.9375 Z " fill="#000000"/><text fill="#000000" font-family="sans-serif" font-size="14" lengthAdjust="spacing" textLength="122" x="123.25" y="65.1436">DispatcherServlet</text><line style="stroke:#181818;stroke-width:0.5;" x1="8" x2="328" y1="76.2969" y2="76.2969"/><rect fill="none" height="6" style="stroke:#C82930;stroke-width:1.0;" width="6" x="15" y="86.9453"/><text fill="#000000" font-family="sans-serif" font-size="14" lengthAdjust="spacing" textLength="272" x="27" y="93.292">List&lt;HandlerAdapter&gt; handlerAdapters</text><line style="stroke:#181818;stroke-width:0.5;" x1="8" x2="328" y1="100.5938" y2="100.5938"/><ellipse cx="18" cy="114.2422" fill="#84BE84" rx="3" ry="3" style="stroke:#038048;stroke-width:1.0;"/><text fill="#000000" font-family="sans-serif" font-size="14" lengthAdjust="spacing" textLength="296" x="27" y="117.5889">getHandlerAdapter(Object) HandlerAdapter</text></g><!--reverse link HandlerAdapter to RequestMappingHandlerAdapter--><g id="link_HandlerAdapter_RequestMappingHandlerAdapter"><path codeLine="8" d="M520.02,133.7069 C480.54,151.1369 437.71,170.0469 405.17,184.4069 " fill="none" id="HandlerAdapter-backto-RequestMappingHandlerAdapter" style="stroke:#181818;stroke-width:1.0;stroke-dasharray:7.0,7.0;"/><polygon fill="none" points="516.94,126.9669,538.07,125.2969,522.6,139.7769,516.94,126.9669" style="stroke:#181818;stroke-width:1.0;"/></g><!--reverse link HandlerAdapter to HttpRequestHandlerAdapter--><g id="link_HandlerAdapter_HttpRequestHandlerAdapter"><path codeLine="9" d="M629,146.2369 C629,159.8169 629,173.4369 629,184.4069 " fill="none" id="HandlerAdapter-backto-HttpRequestHandlerAdapter" style="stroke:#181818;stroke-width:1.0;stroke-dasharray:7.0,7.0;"/><polygon fill="none" points="622,146.2969,629,126.2969,636,146.2969,622,146.2969" style="stroke:#181818;stroke-width:1.0;"/></g><!--reverse link HandlerAdapter to SimpleControllerHandlerAdapter--><g id="link_HandlerAdapter_SimpleControllerHandlerAdapter"><path codeLine="10" d="M737.46,133.8269 C776.58,151.2169 818.98,170.0769 851.21,184.4069 " fill="none" id="HandlerAdapter-backto-SimpleControllerHandlerAdapter" style="stroke:#181818;stroke-width:1.0;stroke-dasharray:7.0,7.0;"/><polygon fill="none" points="734.71,139.8169,719.28,125.2969,740.4,127.0269,734.71,139.8169" style="stroke:#181818;stroke-width:1.0;"/></g><!--reverse link DispatcherServlet to HandlerAdapter--><g id="link_DispatcherServlet_HandlerAdapter"><path codeLine="17" d="M342.97,84.5869 C349.69,84.5869 356.41,84.5869 363.14,84.5869 " fill="none" id="DispatcherServlet-backto-HandlerAdapter" style="stroke:#181818;stroke-width:1.0;"/><polygon fill="#181818" points="330.17,84.5869,336.17,88.5869,342.17,84.5869,336.17,80.5869,330.17,84.5869" style="stroke:#181818;stroke-width:1.0;"/><text fill="#000000" font-family="sans-serif" font-size="13" lengthAdjust="spacing" textLength="8" x="337.1704" y="81.2934">1</text><text fill="#000000" font-family="sans-serif" font-size="13" lengthAdjust="spacing" textLength="8" x="347.1285" y="81.4329">n</text></g><!--SRC=[ZP2nJW9148PhzoacHuFAaT0J4g85XSG44llbReGbw-wuCmS5sDbeOyzRsDZuFC9hU4SEahjhAEUV_vz_yeaHYt1lcBGa2mnJ32kBqfgZZBHBBOPXgaamx7y-_hu-3xltm_UlKiRbqhDE4AeksAYhM-2Co0VXzkDiYObSmynxYzeLkyNHtnw9KDarmTSCMJfGqPYyO-p0wSJOfsY7Bdqok5PlIfMfiIOoRbxxefjrjuFQQweuNwOkiK_D2rcyyqw2jxb-IKObLZCtSHPOOdWmBFrgOb3oECrS86gmFtEirUKOcbLHBuARECGGkQWM-0S0]--></g></svg>