<?xml version="1.0" encoding="us-ascii" standalone="no"?><svg xmlns="http://www.w3.org/2000/svg" xmlns:xlink="http://www.w3.org/1999/xlink" contentStyleType="text/css" height="392px" preserveAspectRatio="none" style="width:1207px;height:392px;background:#FFFFFF;" version="1.1" viewBox="0 0 1207 392" width="1207px" zoomAndPan="magnify"><defs/><g><!--class BeanPostProcessor--><g id="elem_BeanPostProcessor"><rect codeLine="1" fill="#F1F1F1" height="64.2969" id="BeanPostProcessor" rx="2.5" ry="2.5" style="stroke:#181818;stroke-width:0.5;" width="390" x="7" y="7"/><ellipse cx="129.25" cy="23" fill="#B4A7E5" rx="11" ry="11" style="stroke:#181818;stroke-width:1.0;"/><path d="M125.1719,18.7656 L125.1719,16.6094 L132.5625,16.6094 L132.5625,18.7656 L130.0938,18.7656 L130.0938,26.8438 L132.5625,26.8438 L132.5625,29 L125.1719,29 L125.1719,26.8438 L127.6406,26.8438 L127.6406,18.7656 L125.1719,18.7656 Z " fill="#000000"/><text fill="#000000" font-family="sans-serif" font-size="14" font-style="italic" lengthAdjust="spacing" textLength="137" x="149.75" y="27.8467">BeanPostProcessor</text><line style="stroke:#181818;stroke-width:0.5;" x1="8" x2="396" y1="39" y2="39"/><line style="stroke:#181818;stroke-width:0.5;" x1="8" x2="396" y1="47" y2="47"/><ellipse cx="18" cy="60.6484" fill="#84BE84" rx="3" ry="3" style="stroke:#038048;stroke-width:1.0;"/><text fill="#000000" font-family="sans-serif" font-size="14" lengthAdjust="spacing" textLength="364" x="27" y="63.9951">postProcessBeforeInitialization(Object, String) Object</text></g><!--class DestructionAwareBeanPostProcessor--><g id="elem_DestructionAwareBeanPostProcessor"><rect codeLine="4" fill="#F1F1F1" height="64.2969" id="DestructionAwareBeanPostProcessor" rx="2.5" ry="2.5" style="stroke:#181818;stroke-width:0.5;" width="375" x="432.5" y="7"/><ellipse cx="485.75" cy="23" fill="#B4A7E5" rx="11" ry="11" style="stroke:#181818;stroke-width:1.0;"/><path d="M481.6719,18.7656 L481.6719,16.6094 L489.0625,16.6094 L489.0625,18.7656 L486.5938,18.7656 L486.5938,26.8438 L489.0625,26.8438 L489.0625,29 L481.6719,29 L481.6719,26.8438 L484.1406,26.8438 L484.1406,18.7656 L481.6719,18.7656 Z " fill="#000000"/><text fill="#000000" font-family="sans-serif" font-size="14" font-style="italic" lengthAdjust="spacing" textLength="260" x="506.25" y="27.8467">DestructionAwareBeanPostProcessor</text><line style="stroke:#181818;stroke-width:0.5;" x1="433.5" x2="806.5" y1="39" y2="39"/><line style="stroke:#181818;stroke-width:0.5;" x1="433.5" x2="806.5" y1="47" y2="47"/><ellipse cx="443.5" cy="60.6484" fill="#84BE84" rx="3" ry="3" style="stroke:#038048;stroke-width:1.0;"/><text fill="#000000" font-family="sans-serif" font-size="14" lengthAdjust="spacing" textLength="349" x="452.5" y="63.9951">postProcessBeforeDestruction(Object, String) void</text></g><!--class InitDestroyAnnotationBeanPostProcessor--><g id="elem_InitDestroyAnnotationBeanPostProcessor"><rect codeLine="7" fill="#F1F1F1" height="113.1875" id="InitDestroyAnnotationBeanPostProcessor" rx="2.5" ry="2.5" style="stroke:#181818;stroke-width:0.5;" width="390" x="425" y="131.3"/><ellipse cx="472.75" cy="147.3" fill="#ADD1B2" rx="11" ry="11" style="stroke:#181818;stroke-width:1.0;"/><path d="M475.7188,152.9406 Q475.1406,153.2375 474.5,153.3781 Q473.8594,153.5344 473.1563,153.5344 Q470.6563,153.5344 469.3281,151.8937 Q468.0156,150.2375 468.0156,147.1125 Q468.0156,143.9875 469.3281,142.3312 Q470.6563,140.675 473.1563,140.675 Q473.8594,140.675 474.5,140.8312 Q475.1563,140.9875 475.7188,141.2844 L475.7188,144.0031 Q475.0938,143.425 474.5,143.1594 Q473.9063,142.8781 473.2813,142.8781 Q471.9375,142.8781 471.25,143.9562 Q470.5625,145.0187 470.5625,147.1125 Q470.5625,149.2062 471.25,150.2844 Q471.9375,151.3469 473.2813,151.3469 Q473.9063,151.3469 474.5,151.0812 Q475.0938,150.8 475.7188,150.2219 L475.7188,152.9406 Z " fill="#000000"/><text fill="#000000" font-family="sans-serif" font-size="14" lengthAdjust="spacing" textLength="286" x="493.25" y="152.1467">InitDestroyAnnotationBeanPostProcessor</text><line style="stroke:#181818;stroke-width:0.5;" x1="426" x2="814" y1="163.3" y2="163.3"/><rect fill="none" height="6" style="stroke:#C82930;stroke-width:1.0;" width="6" x="433" y="173.9484"/><text fill="#000000" font-family="sans-serif" font-size="14" lengthAdjust="spacing" textLength="170" x="445" y="180.2951">Class initAnnotationType</text><rect fill="none" height="6" style="stroke:#C82930;stroke-width:1.0;" width="6" x="433" y="190.2453"/><text fill="#000000" font-family="sans-serif" font-size="14" lengthAdjust="spacing" textLength="202" x="445" y="196.592">Class destroyAnnotationType</text><line style="stroke:#181818;stroke-width:0.5;" x1="426" x2="814" y1="203.8937" y2="203.8937"/><ellipse cx="436" cy="217.5422" fill="#84BE84" rx="3" ry="3" style="stroke:#038048;stroke-width:1.0;"/><text fill="#000000" font-family="sans-serif" font-size="14" lengthAdjust="spacing" textLength="364" x="445" y="220.8889">postProcessBeforeInitialization(Object, String) Object</text><ellipse cx="436" cy="233.8391" fill="#84BE84" rx="3" ry="3" style="stroke:#038048;stroke-width:1.0;"/><text fill="#000000" font-family="sans-serif" font-size="14" lengthAdjust="spacing" textLength="349" x="445" y="237.1857">postProcessBeforeDestruction(Object, String) void</text></g><!--class CommonAnnotationBeanPostProcessor--><g id="elem_CommonAnnotationBeanPostProcessor"><rect codeLine="13" fill="#F1F1F1" height="48" id="CommonAnnotationBeanPostProcessor" rx="2.5" ry="2.5" style="stroke:#181818;stroke-width:0.5;" width="307" x="466.5" y="320.78"/><ellipse cx="481.5" cy="336.78" fill="#ADD1B2" rx="11" ry="11" style="stroke:#181818;stroke-width:1.0;"/><path d="M484.4688,342.4206 Q483.8906,342.7175 483.25,342.8581 Q482.6094,343.0144 481.9063,343.0144 Q479.4063,343.0144 478.0781,341.3738 Q476.7656,339.7175 476.7656,336.5925 Q476.7656,333.4675 478.0781,331.8113 Q479.4063,330.155 481.9063,330.155 Q482.6094,330.155 483.25,330.3113 Q483.9063,330.4675 484.4688,330.7644 L484.4688,333.4831 Q483.8438,332.905 483.25,332.6394 Q482.6563,332.3581 482.0313,332.3581 Q480.6875,332.3581 480,333.4363 Q479.3125,334.4988 479.3125,336.5925 Q479.3125,338.6863 480,339.7644 Q480.6875,340.8269 482.0313,340.8269 Q482.6563,340.8269 483.25,340.5613 Q483.8438,340.28 484.4688,339.7019 L484.4688,342.4206 Z " fill="#000000"/><text fill="#000000" font-family="sans-serif" font-size="14" lengthAdjust="spacing" textLength="275" x="495.5" y="341.6267">CommonAnnotationBeanPostProcessor</text><line style="stroke:#181818;stroke-width:0.5;" x1="467.5" x2="772.5" y1="352.78" y2="352.78"/><line style="stroke:#181818;stroke-width:0.5;" x1="467.5" x2="772.5" y1="360.78" y2="360.78"/></g><!--class LifecycleMetadata--><g id="elem_LifecycleMetadata"><rect codeLine="14" fill="#F1F1F1" height="96.8906" id="LifecycleMetadata" rx="2.5" ry="2.5" style="stroke:#181818;stroke-width:0.5;" width="350" x="850" y="139.45"/><ellipse cx="959.75" cy="155.45" fill="#ADD1B2" rx="11" ry="11" style="stroke:#181818;stroke-width:1.0;"/><path d="M962.7188,161.0906 Q962.1406,161.3875 961.5,161.5281 Q960.8594,161.6844 960.1563,161.6844 Q957.6563,161.6844 956.3281,160.0438 Q955.0156,158.3875 955.0156,155.2625 Q955.0156,152.1375 956.3281,150.4813 Q957.6563,148.825 960.1563,148.825 Q960.8594,148.825 961.5,148.9813 Q962.1563,149.1375 962.7188,149.4344 L962.7188,152.1531 Q962.0938,151.575 961.5,151.3094 Q960.9063,151.0281 960.2813,151.0281 Q958.9375,151.0281 958.25,152.1063 Q957.5625,153.1688 957.5625,155.2625 Q957.5625,157.3563 958.25,158.4344 Q958.9375,159.4969 960.2813,159.4969 Q960.9063,159.4969 961.5,159.2313 Q962.0938,158.95 962.7188,158.3719 L962.7188,161.0906 Z " fill="#000000"/><text fill="#000000" font-family="sans-serif" font-size="14" lengthAdjust="spacing" textLength="122" x="980.25" y="160.2967">LifecycleMetadata</text><line style="stroke:#181818;stroke-width:0.5;" x1="851" x2="1199" y1="171.45" y2="171.45"/><rect fill="none" height="6" style="stroke:#C82930;stroke-width:1.0;" width="6" x="858" y="182.0984"/><text fill="#000000" font-family="sans-serif" font-size="14" lengthAdjust="spacing" textLength="119" x="870" y="188.4451">Class targetClass</text><rect fill="none" height="6" style="stroke:#C82930;stroke-width:1.0;" width="6" x="858" y="198.3953"/><text fill="#000000" font-family="sans-serif" font-size="14" lengthAdjust="spacing" textLength="292" x="870" y="204.742">Collection&lt;LifecycleElement&gt; initMethods</text><rect fill="none" height="6" style="stroke:#C82930;stroke-width:1.0;" width="6" x="858" y="214.6922"/><text fill="#000000" font-family="sans-serif" font-size="14" lengthAdjust="spacing" textLength="324" x="870" y="221.0389">Collection&lt;LifecycleElement&gt; destroyMethods</text><line style="stroke:#181818;stroke-width:0.5;" x1="851" x2="1199" y1="228.3406" y2="228.3406"/></g><!--class LifecycleElement--><g id="elem_LifecycleElement"><rect codeLine="19" fill="#F1F1F1" height="80.5938" id="LifecycleElement" rx="2.5" ry="2.5" style="stroke:#181818;stroke-width:0.5;" width="147" x="951.5" y="304.49"/><ellipse cx="966.5" cy="320.49" fill="#ADD1B2" rx="11" ry="11" style="stroke:#181818;stroke-width:1.0;"/><path d="M969.4688,326.1306 Q968.8906,326.4275 968.25,326.5681 Q967.6094,326.7244 966.9063,326.7244 Q964.4063,326.7244 963.0781,325.0837 Q961.7656,323.4275 961.7656,320.3025 Q961.7656,317.1775 963.0781,315.5212 Q964.4063,313.865 966.9063,313.865 Q967.6094,313.865 968.25,314.0212 Q968.9063,314.1775 969.4688,314.4744 L969.4688,317.1931 Q968.8438,316.615 968.25,316.3494 Q967.6563,316.0681 967.0313,316.0681 Q965.6875,316.0681 965,317.1462 Q964.3125,318.2087 964.3125,320.3025 Q964.3125,322.3962 965,323.4744 Q965.6875,324.5369 967.0313,324.5369 Q967.6563,324.5369 968.25,324.2712 Q968.8438,323.99 969.4688,323.4119 L969.4688,326.1306 Z " fill="#000000"/><text fill="#000000" font-family="sans-serif" font-size="14" lengthAdjust="spacing" textLength="115" x="980.5" y="325.3367">LifecycleElement</text><line style="stroke:#181818;stroke-width:0.5;" x1="952.5" x2="1097.5" y1="336.49" y2="336.49"/><rect fill="none" height="6" style="stroke:#C82930;stroke-width:1.0;" width="6" x="959.5" y="347.1384"/><text fill="#000000" font-family="sans-serif" font-size="14" lengthAdjust="spacing" textLength="111" x="971.5" y="353.4851">Method method</text><rect fill="none" height="6" style="stroke:#C82930;stroke-width:1.0;" width="6" x="959.5" y="363.4353"/><text fill="#000000" font-family="sans-serif" font-size="14" lengthAdjust="spacing" textLength="103" x="971.5" y="369.782">String identifier</text><line style="stroke:#181818;stroke-width:0.5;" x1="952.5" x2="1097.5" y1="377.0837" y2="377.0837"/></g><!--reverse link BeanPostProcessor to DestructionAwareBeanPostProcessor--><g id="link_BeanPostProcessor_DestructionAwareBeanPostProcessor"><path codeLine="23" d="M418.06,39.15 C422.83,39.15 427.61,39.15 432.38,39.15 " fill="none" id="BeanPostProcessor-backto-DestructionAwareBeanPostProcessor" style="stroke:#181818;stroke-width:1.0;"/><polygon fill="none" points="418.12,46.15,398.12,39.15,418.12,32.15,418.12,46.15" style="stroke:#181818;stroke-width:1.0;"/></g><!--reverse link DestructionAwareBeanPostProcessor to InitDestroyAnnotationBeanPostProcessor--><g id="link_DestructionAwareBeanPostProcessor_InitDestroyAnnotationBeanPostProcessor"><path codeLine="24" d="M620,92.21 C620,104.74 620,118.18 620,130.89 " fill="none" id="DestructionAwareBeanPostProcessor-backto-InitDestroyAnnotationBeanPostProcessor" style="stroke:#181818;stroke-width:1.0;stroke-dasharray:7.0,7.0;"/><polygon fill="none" points="613,92.63,620,72.63,627,92.63,613,92.63" style="stroke:#181818;stroke-width:1.0;"/></g><!--reverse link InitDestroyAnnotationBeanPostProcessor to CommonAnnotationBeanPostProcessor--><g id="link_InitDestroyAnnotationBeanPostProcessor_CommonAnnotationBeanPostProcessor"><path codeLine="25" d="M620,265.71 C620,285.6 620,305.55 620,320.3 " fill="none" id="InitDestroyAnnotationBeanPostProcessor-backto-CommonAnnotationBeanPostProcessor" style="stroke:#181818;stroke-width:1.0;"/><polygon fill="none" points="613,265.81,620,245.81,627,265.81,613,265.81" style="stroke:#181818;stroke-width:1.0;"/></g><!--link InitDestroyAnnotationBeanPostProcessor to LifecycleMetadata--><g id="link_InitDestroyAnnotationBeanPostProcessor_LifecycleMetadata"><path codeLine="26" d="M815.38,187.89 C824.87,187.89 834.37,187.89 843.86,187.89 " fill="none" id="InitDestroyAnnotationBeanPostProcessor-to-LifecycleMetadata" style="stroke:#181818;stroke-width:1.0;stroke-dasharray:7.0,7.0;"/><polygon fill="#181818" points="848.77,187.89,839.77,183.89,843.77,187.89,839.77,191.89,848.77,187.89" style="stroke:#181818;stroke-width:1.0;"/></g><!--reverse link LifecycleMetadata to LifecycleElement--><g id="link_LifecycleMetadata_LifecycleElement"><path codeLine="27" d="M1025,250.44 C1025,268.48 1025,287.72 1025,304.02 " fill="none" id="LifecycleMetadata-backto-LifecycleElement" style="stroke:#181818;stroke-width:1.0;stroke-dasharray:7.0,7.0;"/><polygon fill="none" points="1025,237.63,1021,243.63,1025,249.63,1029,243.63,1025,237.63" style="stroke:#181818;stroke-width:1.0;"/></g><!--SRC=[fL91JiCm43pZL_W8WkG5A59RE221g0GVCFQcB7AybRq11UZVSPpGL0qe4PpYh6TsPiUBZi6NIeDSWd9h2hpsf244yl93d9pBxL1QGaaURXmoAellYf7SwVtJ2sY-a0_iqMtEPFSlTWBtdQyWiAzr2r-yAGzpbGvu8vbNGXD5j5KXoDPI0bEpS8uuEVjH9PEhnC386A2FpHQ6EtFSgRl-SnJ_6cr5LHLZ-tsg7dUB9UX6MxW3LaQnEfoMbTy0ftCgahMGj2_tj6iB5JWkKZAnnpEPQMoVr3TyT-ob1tPMEfIiqgSjTFDAD1629OAF3QPN9RFPPp5ULZ5p1_8wZ_H96J6PkypgriWysTdkV5wCdrAC7vToauzo_W80]--></g></svg>