<?xml version="1.0" encoding="us-ascii" standalone="no"?><svg xmlns="http://www.w3.org/2000/svg" xmlns:xlink="http://www.w3.org/1999/xlink" contentStyleType="text/css" height="230px" preserveAspectRatio="none" style="width:308px;height:230px;background:#FFFFFF;" version="1.1" viewBox="0 0 308 230" width="308px" zoomAndPan="magnify"><defs/><g><text fill="#000000" font-family="sans-serif" font-size="14" font-weight="bold" lengthAdjust="spacing" textLength="148" x="73" y="22.9951">Hashtable&#30340;&#24213;&#23618;&#32467;&#26500;</text><!--entity a--><g id="elem_a"><rect fill="#FFFFFF" height="20" rx="2.5" ry="2.5" style="stroke:#181818;stroke-width:0.5;" width="20" x="7" y="44.2969"/></g><!--entity b--><g id="elem_b"><rect fill="#0000FF" height="20" rx="2.5" ry="2.5" style="stroke:#181818;stroke-width:0.5;" width="20" x="62" y="44.2969"/></g><!--entity c--><g id="elem_c"><rect fill="#FFFFFF" height="20" rx="2.5" ry="2.5" style="stroke:#181818;stroke-width:0.5;" width="20" x="117" y="44.2969"/></g><!--entity d--><g id="elem_d"><rect fill="#0000FF" height="20" rx="2.5" ry="2.5" style="stroke:#181818;stroke-width:0.5;" width="20" x="172" y="44.2969"/></g><!--entity e--><g id="elem_e"><rect fill="#0000FF" height="20" rx="2.5" ry="2.5" style="stroke:#181818;stroke-width:0.5;" width="20" x="227" y="44.2969"/></g><!--entity f--><g id="elem_f"><rect fill="#FFFFFF" height="20" rx="2.5" ry="2.5" style="stroke:#181818;stroke-width:0.5;" width="20" x="282" y="44.2969"/></g><!--entity g--><g id="elem_g"><rect fill="#0000FF" height="20" rx="2.5" ry="2.5" style="stroke:#181818;stroke-width:0.5;" width="20" x="62" y="124.2969"/></g><!--entity h--><g id="elem_h"><rect fill="#0000FF" height="20" rx="2.5" ry="2.5" style="stroke:#181818;stroke-width:0.5;" width="20" x="62" y="204.2969"/></g><!--entity i--><g id="elem_i"><rect fill="#0000FF" height="20" rx="2.5" ry="2.5" style="stroke:#181818;stroke-width:0.5;" width="20" x="172" y="124.2969"/></g><!--link a to b--><g id="link_a_b"><path d="M27.31,54.2969 C38.72,54.2969 50.12,54.2969 61.53,54.2969 " fill="none" id="a-b" style="stroke:#181818;stroke-width:1.0;"/></g><!--link b to c--><g id="link_b_c"><path d="M82.31,54.2969 C93.72,54.2969 105.12,54.2969 116.53,54.2969 " fill="none" id="b-c" style="stroke:#181818;stroke-width:1.0;"/></g><!--link c to d--><g id="link_c_d"><path d="M137.31,54.2969 C148.72,54.2969 160.12,54.2969 171.53,54.2969 " fill="none" id="c-d" style="stroke:#181818;stroke-width:1.0;"/></g><!--link d to e--><g id="link_d_e"><path d="M192.31,54.2969 C203.72,54.2969 215.12,54.2969 226.53,54.2969 " fill="none" id="d-e" style="stroke:#181818;stroke-width:1.0;"/></g><!--link e to f--><g id="link_e_f"><path d="M247.31,54.2969 C258.72,54.2969 270.12,54.2969 281.53,54.2969 " fill="none" id="e-f" style="stroke:#181818;stroke-width:1.0;"/></g><!--link b to g--><g id="link_b_g"><path d="M72,64.5469 C72,77.8069 72,102.3369 72,118.2269 " fill="none" id="b-to-g" style="stroke:#181818;stroke-width:1.0;"/><polygon fill="#181818" points="72,123.0569,76,114.0569,72,118.0569,68,114.0569,72,123.0569" style="stroke:#181818;stroke-width:1.0;"/></g><!--link g to h--><g id="link_g_h"><path d="M72,144.5469 C72,157.8069 72,182.3369 72,198.2269 " fill="none" id="g-to-h" style="stroke:#181818;stroke-width:1.0;"/><polygon fill="#181818" points="72,203.0569,76,194.0569,72,198.0569,68,194.0569,72,203.0569" style="stroke:#181818;stroke-width:1.0;"/></g><!--link d to i--><g id="link_d_i"><path d="M182,64.5469 C182,77.8069 182,102.3369 182,118.2269 " fill="none" id="d-to-i" style="stroke:#181818;stroke-width:1.0;"/><polygon fill="#181818" points="182,123.0569,186,114.0569,182,118.0569,178,114.0569,182,123.0569" style="stroke:#181818;stroke-width:1.0;"/></g><!--SRC=[AyaioKbLy4WipYX9JCf9VJwhvUckgKytDZtVFVdPl1QkejJaaiIyTA0IvVACp99K1IKWL4WiLaXKG9PBoYb5I2KfuDQMZ5jR2cwfLDm6fd7Xr9MEKoO3koQWJ2ONLwA2BiWBIK0gcIiPIAPmfG39LAvK80cq3YYHeci7D3qTmW0QbW9XPG80]--></g></svg>