<?xml version="1.0" encoding="us-ascii" standalone="no"?><svg xmlns="http://www.w3.org/2000/svg" xmlns:xlink="http://www.w3.org/1999/xlink" contentStyleType="text/css" height="634px" preserveAspectRatio="none" style="width:486px;height:634px;background:#FFFFFF;" version="1.1" viewBox="0 0 486 634" width="486px" zoomAndPan="magnify"><defs/><g><text fill="#000000" font-family="Consolas" font-size="14" font-weight="bold" lengthAdjust="spacing" textLength="207" x="138" y="27.9951">&#20934;&#22791;&#24212;&#29992;&#19978;&#19979;&#25991;&#20351;&#29992;&#30340;Bean&#24037;&#21378;</text><text fill="#000000" font-family="Consolas" font-size="14" font-weight="bold" lengthAdjust="spacing" textLength="417" x="33" y="44.292">&#65288;AbstractApplicationContext#prepareBeanFactory&#65289;</text><ellipse cx="243" cy="68.5938" fill="#FFFFFF" rx="10" ry="10" style="stroke:#000000;stroke-width:1.0;"/><rect fill="#FFFFFF" height="52.5938" rx="12.5" ry="12.5" style="stroke:#000000;stroke-width:1.0;" width="347" x="69.5" y="98.5938"/><text fill="#000000" font-family="Consolas" font-size="14" lengthAdjust="spacing" textLength="198" x="79.5" y="121.5889">&#35774;&#32622;Bean&#24037;&#21378;&#30340;Bean&#31867;&#21152;&#36733;&#22120;</text><text fill="#000000" font-family="Consolas" font-size="14" lengthAdjust="spacing" textLength="327" x="79.5" y="137.8857">ConfigurableBeanFactory#setBeanClassLoader</text><rect fill="#FFFFFF" height="52.5938" rx="12.5" ry="12.5" style="stroke:#000000;stroke-width:1.0;" width="399" x="43.5" y="171.1875"/><text fill="#000000" font-family="Consolas" font-size="14" lengthAdjust="spacing" textLength="226" x="53.5" y="194.1826">&#35774;&#32622;Bean&#24037;&#21378;&#30340;Bean&#34920;&#36798;&#24335;&#35299;&#26512;&#22120;</text><text fill="#000000" font-family="Consolas" font-size="14" lengthAdjust="spacing" textLength="379" x="53.5" y="210.4795">ConfigurableBeanFactory#setBeanExpressionResolver</text><rect fill="#FFFFFF" height="52.5938" rx="12.5" ry="12.5" style="stroke:#000000;stroke-width:1.0;" width="391" x="47.5" y="243.7813"/><text fill="#000000" font-family="Consolas" font-size="14" lengthAdjust="spacing" textLength="176" x="57.5" y="266.7764">&#35774;&#32622;Bean&#24037;&#21378;&#30340;&#23646;&#24615;&#32534;&#36753;&#22120;</text><text fill="#000000" font-family="Consolas" font-size="14" lengthAdjust="spacing" textLength="371" x="57.5" y="283.0732">ConfigurableBeanFactory#addPropertyEditorRegistrar</text><rect fill="#FFFFFF" height="52.5938" rx="12.5" ry="12.5" style="stroke:#000000;stroke-width:1.0;" width="395" x="45.5" y="316.375"/><text fill="#000000" font-family="Consolas" font-size="14" lengthAdjust="spacing" textLength="375" x="55.5" y="339.3701">&#27880;&#20876;Bean&#21518;&#32622;&#22788;&#29702;&#22120;ApplicationContextAwareProcessor</text><text fill="#000000" font-family="Consolas" font-size="14" lengthAdjust="spacing" textLength="348" x="55.5" y="355.667">ConfigurableBeanFactory#addBeanPostProcessor</text><rect fill="#FFFFFF" height="52.5938" rx="12.5" ry="12.5" style="stroke:#000000;stroke-width:1.0;" width="474" x="6" y="388.9688"/><text fill="#000000" font-family="Consolas" font-size="14" lengthAdjust="spacing" textLength="98" x="16" y="411.9639">&#27880;&#20876;&#20869;&#24314;&#30340;&#20381;&#36182;</text><text fill="#000000" font-family="Consolas" font-size="14" lengthAdjust="spacing" textLength="454" x="16" y="428.2607">ConfigurableListableBeanFactory#registerResolvableDependency</text><rect fill="#FFFFFF" height="52.5938" rx="12.5" ry="12.5" style="stroke:#000000;stroke-width:1.0;" width="368" x="59" y="461.5625"/><text fill="#000000" font-family="Consolas" font-size="14" lengthAdjust="spacing" textLength="325" x="69" y="484.5576">&#27880;&#20876;Bean&#21518;&#32622;&#22788;&#29702;&#22120;ApplicationListenerDetector</text><text fill="#000000" font-family="Consolas" font-size="14" lengthAdjust="spacing" textLength="348" x="69" y="500.8545">ConfigurableBeanFactory#addBeanPostProcessor</text><rect fill="#FFFFFF" height="52.5938" rx="12.5" ry="12.5" style="stroke:#000000;stroke-width:1.0;" width="307" x="89.5" y="534.1563"/><text fill="#000000" font-family="Consolas" font-size="14" lengthAdjust="spacing" textLength="126" x="99.5" y="557.1514">&#27880;&#20876;&#20869;&#24314;&#30340;&#21333;&#20363;&#23545;&#35937;</text><text fill="#000000" font-family="Consolas" font-size="14" lengthAdjust="spacing" textLength="287" x="99.5" y="573.4482">SingletonBeanRegistry#registerSingleton</text><ellipse cx="243" cy="617.75" fill="#FFFFFF" rx="11" ry="11" style="stroke:#000000;stroke-width:1.0;"/><ellipse cx="243" cy="617.75" fill="#000000" rx="6" ry="6" style="stroke:#7F7F7F;stroke-width:1.0;"/><line style="stroke:#000000;stroke-width:1.0;" x1="243" x2="243" y1="78.5938" y2="98.5938"/><polygon fill="#000000" points="239,88.5938,243,98.5938,247,88.5938,243,92.5938" style="stroke:#000000;stroke-width:1.0;"/><line style="stroke:#000000;stroke-width:1.0;" x1="243" x2="243" y1="151.1875" y2="171.1875"/><polygon fill="#000000" points="239,161.1875,243,171.1875,247,161.1875,243,165.1875" style="stroke:#000000;stroke-width:1.0;"/><line style="stroke:#000000;stroke-width:1.0;" x1="243" x2="243" y1="223.7813" y2="243.7813"/><polygon fill="#000000" points="239,233.7813,243,243.7813,247,233.7813,243,237.7813" style="stroke:#000000;stroke-width:1.0;"/><line style="stroke:#000000;stroke-width:1.0;" x1="243" x2="243" y1="296.375" y2="316.375"/><polygon fill="#000000" points="239,306.375,243,316.375,247,306.375,243,310.375" style="stroke:#000000;stroke-width:1.0;"/><line style="stroke:#000000;stroke-width:1.0;" x1="243" x2="243" y1="368.9688" y2="388.9688"/><polygon fill="#000000" points="239,378.9688,243,388.9688,247,378.9688,243,382.9688" style="stroke:#000000;stroke-width:1.0;"/><line style="stroke:#000000;stroke-width:1.0;" x1="243" x2="243" y1="441.5625" y2="461.5625"/><polygon fill="#000000" points="239,451.5625,243,461.5625,247,451.5625,243,455.5625" style="stroke:#000000;stroke-width:1.0;"/><line style="stroke:#000000;stroke-width:1.0;" x1="243" x2="243" y1="514.1563" y2="534.1563"/><polygon fill="#000000" points="239,524.1563,243,534.1563,247,524.1563,243,528.1563" style="stroke:#000000;stroke-width:1.0;"/><line style="stroke:#000000;stroke-width:1.0;" x1="243" x2="243" y1="586.75" y2="606.75"/><polygon fill="#000000" points="239,596.75,243,606.75,247,596.75,243,600.75" style="stroke:#000000;stroke-width:1.0;"/><!--SRC=[fPBBIaCn48RtVOgAJo2uqbNLkYeYkkqczemrU9eSal5ILoBQUhT2BIWeYefTAKN4MtjycPEUi_CLd5IfDwg2oybClldoaowSWXp4FPTn4TFJN7XCiLmSERemB0MEymM8z_H-Q3amoMPS_BKvmeWxA8MMBjEn5Z1kYWLpLZGFvR1S3UxMWxkDPgKOD9we30-M1u09StjkjfVIuhc-cfZGg5W64vxdyWn3BWNX4EQnsrD0-y1U6AO9gVBFzRMOHgOmrXTT-c7ZyXtsHWvhZsRzE6eqp7urRKcJF3kZs8Jx4TEj0MqvICuw9Pa3ghyZCJgfHhvlwZlHnMdpgFGNRdAUrBMcfum11JFR2MzgHyt5Yx1UYVpT7xdCSKQLz41XFkbmEXg3BBUvMN3pkceAcormQPjMcBFbi5GWtlT84tEK9v4oP2VLZ_jiEIerjgVRcqnXnJm-a7xW7qOtbS-K56bzfQcMBAZNC6nt23mG3eXC_e_-5Wi2r10WMEX_rStMNk1lcAlxg7QI5kDSP5r0AUpDjsZVjTlTVlfxqdi1]--></g></svg>