<?xml version="1.0" encoding="us-ascii" standalone="no"?><svg xmlns="http://www.w3.org/2000/svg" xmlns:xlink="http://www.w3.org/1999/xlink" contentStyleType="text/css" height="236px" preserveAspectRatio="none" style="width:1032px;height:236px;background:#FFFFFF;" version="1.1" viewBox="0 0 1032 236" width="1032px" zoomAndPan="magnify"><defs/><g><text fill="#000000" font-family="Consolas" font-size="14" font-weight="bold" lengthAdjust="spacing" textLength="359" x="332" y="27.9951">DispatcherServlet#getHandlerAdapter&#28041;&#21450;&#30340;&#31867;</text><!--class HandlerAdapter--><g id="elem_HandlerAdapter"><rect codeLine="7" fill="#FFFFFF" height="76.5938" id="HandlerAdapter" rx="2.5" ry="2.5" style="stroke:#000000;stroke-width:1.0;" width="529" x="366.5" y="49.2969"/><ellipse cx="573.75" cy="63.2969" fill="#FFFFFF" rx="9" ry="9" style="stroke:#000000;stroke-width:1.0;"/><path d="M570.9219,59.875 L570.9219,58.0938 L577,58.0938 L577,59.875 L574.9688,59.875 L574.9688,66.5156 L577,66.5156 L577,68.2969 L570.9219,68.2969 L570.9219,66.5156 L572.9531,66.5156 L572.9531,59.875 L570.9219,59.875 Z " fill="#000000"/><text fill="#000000" font-family="Consolas" font-size="14" font-style="italic" lengthAdjust="spacing" textLength="107" x="591.25" y="68.1436">HandlerAdapter</text><line style="stroke:#000000;stroke-width:1.0;" x1="367.5" x2="894.5" y1="77.2969" y2="77.2969"/><line style="stroke:#000000;stroke-width:1.0;" x1="367.5" x2="894.5" y1="85.2969" y2="85.2969"/><ellipse cx="377.5" cy="98.9453" fill="#FFFFFF" rx="3" ry="3" style="stroke:#000000;stroke-width:1.0;"/><text fill="#000000" font-family="Consolas" font-size="14" lengthAdjust="spacing" textLength="177" x="384.5" y="102.292">supports(Object) boolean</text><ellipse cx="377.5" cy="115.2422" fill="#FFFFFF" rx="3" ry="3" style="stroke:#000000;stroke-width:1.0;"/><text fill="#000000" font-family="Consolas" font-size="14" lengthAdjust="spacing" textLength="505" x="384.5" y="118.5889">handle(HttpServletRequest, HttpServletResponse, Object) ModelAndView</text></g><!--class RequestMappingHandlerAdapter--><g id="elem_RequestMappingHandlerAdapter"><rect fill="#FFFFFF" height="44" id="RequestMappingHandlerAdapter" rx="2.5" ry="2.5" style="stroke:#000000;stroke-width:1.0;" width="253" x="231.5" y="185.8869"/><ellipse cx="244.5" cy="199.8869" fill="#FFFFFF" rx="9" ry="9" style="stroke:#000000;stroke-width:1.0;"/><path d="M246.8906,204.59 Q246.4063,204.84 245.875,204.965 Q245.3594,205.09 244.7813,205.09 Q242.7188,205.09 241.625,203.7306 Q240.5469,202.3713 240.5469,199.7931 Q240.5469,197.215 241.625,195.8556 Q242.7188,194.4963 244.7813,194.4963 Q245.3594,194.4963 245.8906,194.6213 Q246.4219,194.7463 246.8906,194.9806 L246.8906,197.2306 Q246.375,196.7463 245.875,196.5275 Q245.3906,196.3088 244.875,196.3088 Q243.7656,196.3088 243.2031,197.1838 Q242.6406,198.0588 242.6406,199.7931 Q242.6406,201.5119 243.2031,202.4025 Q243.7656,203.2775 244.875,203.2775 Q245.3906,203.2775 245.875,203.0588 Q246.375,202.8244 246.8906,202.3556 L246.8906,204.59 Z " fill="#000000"/><text fill="#000000" font-family="Consolas" font-size="14" lengthAdjust="spacing" textLength="225" x="256.5" y="204.7336">RequestMappingHandlerAdapter</text><line style="stroke:#000000;stroke-width:1.0;" x1="232.5" x2="483.5" y1="213.8869" y2="213.8869"/><line style="stroke:#000000;stroke-width:1.0;" x1="232.5" x2="483.5" y1="221.8869" y2="221.8869"/></g><!--class HttpRequestHandlerAdapter--><g id="elem_HttpRequestHandlerAdapter"><rect fill="#FFFFFF" height="44" id="HttpRequestHandlerAdapter" rx="2.5" ry="2.5" style="stroke:#000000;stroke-width:1.0;" width="223" x="519.5" y="185.8869"/><ellipse cx="532.5" cy="199.8869" fill="#FFFFFF" rx="9" ry="9" style="stroke:#000000;stroke-width:1.0;"/><path d="M534.8906,204.59 Q534.4063,204.84 533.875,204.965 Q533.3594,205.09 532.7813,205.09 Q530.7188,205.09 529.625,203.7306 Q528.5469,202.3713 528.5469,199.7931 Q528.5469,197.215 529.625,195.8556 Q530.7188,194.4963 532.7813,194.4963 Q533.3594,194.4963 533.8906,194.6213 Q534.4219,194.7463 534.8906,194.9806 L534.8906,197.2306 Q534.375,196.7463 533.875,196.5275 Q533.3906,196.3088 532.875,196.3088 Q531.7656,196.3088 531.2031,197.1838 Q530.6406,198.0588 530.6406,199.7931 Q530.6406,201.5119 531.2031,202.4025 Q531.7656,203.2775 532.875,203.2775 Q533.3906,203.2775 533.875,203.0588 Q534.375,202.8244 534.8906,202.3556 L534.8906,204.59 Z " fill="#000000"/><text fill="#000000" font-family="Consolas" font-size="14" lengthAdjust="spacing" textLength="195" x="544.5" y="204.7336">HttpRequestHandlerAdapter</text><line style="stroke:#000000;stroke-width:1.0;" x1="520.5" x2="741.5" y1="213.8869" y2="213.8869"/><line style="stroke:#000000;stroke-width:1.0;" x1="520.5" x2="741.5" y1="221.8869" y2="221.8869"/></g><!--class SimpleControllerHandlerAdapter--><g id="elem_SimpleControllerHandlerAdapter"><rect fill="#FFFFFF" height="44" id="SimpleControllerHandlerAdapter" rx="2.5" ry="2.5" style="stroke:#000000;stroke-width:1.0;" width="248" x="777" y="185.8869"/><ellipse cx="790" cy="199.8869" fill="#FFFFFF" rx="9" ry="9" style="stroke:#000000;stroke-width:1.0;"/><path d="M792.3906,204.59 Q791.9063,204.84 791.375,204.965 Q790.8594,205.09 790.2813,205.09 Q788.2188,205.09 787.125,203.7306 Q786.0469,202.3713 786.0469,199.7931 Q786.0469,197.215 787.125,195.8556 Q788.2188,194.4963 790.2813,194.4963 Q790.8594,194.4963 791.3906,194.6213 Q791.9219,194.7463 792.3906,194.9806 L792.3906,197.2306 Q791.875,196.7463 791.375,196.5275 Q790.8906,196.3088 790.375,196.3088 Q789.2656,196.3088 788.7031,197.1838 Q788.1406,198.0588 788.1406,199.7931 Q788.1406,201.5119 788.7031,202.4025 Q789.2656,203.2775 790.375,203.2775 Q790.8906,203.2775 791.375,203.0588 Q791.875,202.8244 792.3906,202.3556 L792.3906,204.59 Z " fill="#000000"/><text fill="#000000" font-family="Consolas" font-size="14" lengthAdjust="spacing" textLength="220" x="802" y="204.7336">SimpleControllerHandlerAdapter</text><line style="stroke:#000000;stroke-width:1.0;" x1="778" x2="1024" y1="213.8869" y2="213.8869"/><line style="stroke:#000000;stroke-width:1.0;" x1="778" x2="1024" y1="221.8869" y2="221.8869"/></g><!--class DispatcherServlet--><g id="elem_DispatcherServlet"><rect codeLine="16" fill="#FFFFFF" height="76.5938" id="DispatcherServlet" rx="2.5" ry="2.5" style="stroke:#000000;stroke-width:1.0;" width="320" x="12" y="49.2969"/><ellipse cx="107.25" cy="63.2969" fill="#FFFFFF" rx="9" ry="9" style="stroke:#000000;stroke-width:1.0;"/><path d="M109.6406,68 Q109.1563,68.25 108.625,68.375 Q108.1094,68.5 107.5313,68.5 Q105.4688,68.5 104.375,67.1406 Q103.2969,65.7813 103.2969,63.2031 Q103.2969,60.625 104.375,59.2656 Q105.4688,57.9063 107.5313,57.9063 Q108.1094,57.9063 108.6406,58.0313 Q109.1719,58.1563 109.6406,58.3906 L109.6406,60.6406 Q109.125,60.1563 108.625,59.9375 Q108.1406,59.7188 107.625,59.7188 Q106.5156,59.7188 105.9531,60.5938 Q105.3906,61.4688 105.3906,63.2031 Q105.3906,64.9219 105.9531,65.8125 Q106.5156,66.6875 107.625,66.6875 Q108.1406,66.6875 108.625,66.4688 Q109.125,66.2344 109.6406,65.7656 L109.6406,68 Z " fill="#000000"/><text fill="#000000" font-family="Consolas" font-size="14" lengthAdjust="spacing" textLength="122" x="124.75" y="68.1436">DispatcherServlet</text><line style="stroke:#000000;stroke-width:1.0;" x1="13" x2="331" y1="77.2969" y2="77.2969"/><rect fill="none" height="6" style="stroke:#000000;stroke-width:1.0;" width="6" x="20" y="87.9453"/><text fill="#000000" font-family="Consolas" font-size="14" lengthAdjust="spacing" textLength="272" x="30" y="94.292">List&lt;HandlerAdapter&gt; handlerAdapters</text><line style="stroke:#000000;stroke-width:1.0;" x1="13" x2="331" y1="101.5938" y2="101.5938"/><ellipse cx="23" cy="115.2422" fill="#FFFFFF" rx="3" ry="3" style="stroke:#000000;stroke-width:1.0;"/><text fill="#000000" font-family="Consolas" font-size="14" lengthAdjust="spacing" textLength="296" x="30" y="118.5889">getHandlerAdapter(Object) HandlerAdapter</text></g><!--reverse link HandlerAdapter to RequestMappingHandlerAdapter--><g id="link_HandlerAdapter_RequestMappingHandlerAdapter"><path codeLine="12" d="M524.69,134.6569 C484.26,152.1769 440.1,171.3069 407.4,185.4769 " fill="none" id="HandlerAdapter-backto-RequestMappingHandlerAdapter" style="stroke:#000000;stroke-width:1.0;stroke-dasharray:7.0,7.0;"/><polygon fill="none" points="521.74,127.8769,542.87,126.3469,527.3,140.7169,521.74,127.8769" style="stroke:#000000;stroke-width:1.0;"/></g><!--reverse link HandlerAdapter to HttpRequestHandlerAdapter--><g id="link_HandlerAdapter_HttpRequestHandlerAdapter"><path codeLine="13" d="M631,146.9369 C631,160.7969 631,174.7169 631,185.6469 " fill="none" id="HandlerAdapter-backto-HttpRequestHandlerAdapter" style="stroke:#000000;stroke-width:1.0;stroke-dasharray:7.0,7.0;"/><polygon fill="none" points="624,147.3469,631,127.3469,638,147.3469,624,147.3469" style="stroke:#000000;stroke-width:1.0;"/></g><!--reverse link HandlerAdapter to SimpleControllerHandlerAdapter--><g id="link_HandlerAdapter_SimpleControllerHandlerAdapter"><path codeLine="14" d="M736.14,134.6569 C776.13,152.1769 819.8,171.3069 852.14,185.4769 " fill="none" id="HandlerAdapter-backto-SimpleControllerHandlerAdapter" style="stroke:#000000;stroke-width:1.0;stroke-dasharray:7.0,7.0;"/><polygon fill="none" points="733.68,140.7869,718.17,126.3469,739.3,127.9569,733.68,140.7869" style="stroke:#000000;stroke-width:1.0;"/></g><!--reverse link DispatcherServlet to HandlerAdapter--><g id="link_DispatcherServlet_HandlerAdapter"><path codeLine="21" d="M346.21,87.5869 C352.9,87.5869 359.6,87.5869 366.29,87.5869 " fill="none" id="DispatcherServlet-backto-HandlerAdapter" style="stroke:#000000;stroke-width:1.0;"/><polygon fill="#000000" points="333.47,87.5869,339.47,91.5869,345.47,87.5869,339.47,83.5869,333.47,87.5869" style="stroke:#000000;stroke-width:1.0;"/><text fill="#000000" font-family="Consolas" font-size="14" lengthAdjust="spacing" textLength="9" x="339.9452" y="84.2259">1</text><text fill="#000000" font-family="Consolas" font-size="14" lengthAdjust="spacing" textLength="9" x="349.2978" y="84.3487">n</text></g><!--SRC=[ZP0xJiD048PhzXI3QGB4aI9HeaWH2AKW8169Vc9FueNrxh8x1eb7HmCDFRUWeU4y8TTW7Ja8smKfv_4_z6rpHZc1LIYryDTIMtIO0qjMT68qJ-GzGV_Wpocb6HQA_psUOV0zCjeRXLwi3E5OUekSPEGcv6uLySwSU8GwLUI6ALecz_tvidXxNRu_Bp- -X90wh6QO4DI_u45ixOClh3MEVUTyUaK9xyBK64Meorks-k-Cc6sLTK4t1NdkGctdRQX8NLXRZ4rAQgZJIqbtuac8IZL6QwMUDrhqYjxZe55DbFQLQfFtYSojeW2AdL5Xlub6986fR-CiiSHmAZqVrXM3YiTwzYMY5ljVZesuWA4T5VKZs8jT396E6e8V]--></g></svg>