<?xml version="1.0" encoding="us-ascii" standalone="no"?><svg xmlns="http://www.w3.org/2000/svg" xmlns:xlink="http://www.w3.org/1999/xlink" contentStyleType="text/css" height="269px" preserveAspectRatio="none" style="width:462px;height:269px;background:#FFFFFF;" version="1.1" viewBox="0 0 462 269" width="462px" zoomAndPan="magnify"><defs/><g><text fill="#000000" font-family="sans-serif" font-size="14" font-weight="bold" lengthAdjust="spacing" textLength="70" x="189" y="22.9951">&#21487;&#36798;&#24615;&#20998;&#26512;</text><!--cluster GC Roots--><g id="cluster_GC Roots"><path d="M114.5,43.2969 L188.5,43.2969 A3.75,3.75 0 0 1 191,45.7969 L198,65.5938 L348.5,65.5938 A2.5,2.5 0 0 1 351,68.0938 L351,154.3969 A2.5,2.5 0 0 1 348.5,156.8969 L114.5,156.8969 A2.5,2.5 0 0 1 112,154.3969 L112,45.7969 A2.5,2.5 0 0 1 114.5,43.2969 " fill="none" style="stroke:#000000;stroke-width:1.5;"/><line style="stroke:#000000;stroke-width:1.5;" x1="112" x2="198" y1="65.5938" y2="65.5938"/><text fill="#000000" font-family="sans-serif" font-size="14" font-weight="bold" lengthAdjust="spacing" textLength="73" x="116" y="58.292">GC Roots</text></g><!--entity R1--><g id="elem_R1"><rect fill="#F1F1F1" height="62.5938" rx="2.5" ry="2.5" style="stroke:#181818;stroke-width:0.5;" width="86" x="128" y="78.2969"/><rect fill="#F1F1F1" height="10" style="stroke:#181818;stroke-width:0.5;" width="15" x="194" y="83.2969"/><rect fill="#F1F1F1" height="2" style="stroke:#181818;stroke-width:0.5;" width="4" x="192" y="85.2969"/><rect fill="#F1F1F1" height="2" style="stroke:#181818;stroke-width:0.5;" width="4" x="192" y="89.2969"/><text fill="#000000" font-family="sans-serif" font-size="14" font-style="italic" lengthAdjust="spacing" textLength="46" x="143" y="111.292">&#171;&#23384;&#27963;&#187;</text><text fill="#000000" font-family="sans-serif" font-size="14" lengthAdjust="spacing" textLength="19" x="156.5" y="127.5889">R1</text></g><!--entity R2--><g id="elem_R2"><rect fill="#F1F1F1" height="62.5938" rx="2.5" ry="2.5" style="stroke:#181818;stroke-width:0.5;" width="86" x="249" y="78.2969"/><rect fill="#F1F1F1" height="10" style="stroke:#181818;stroke-width:0.5;" width="15" x="315" y="83.2969"/><rect fill="#F1F1F1" height="2" style="stroke:#181818;stroke-width:0.5;" width="4" x="313" y="85.2969"/><rect fill="#F1F1F1" height="2" style="stroke:#181818;stroke-width:0.5;" width="4" x="313" y="89.2969"/><text fill="#000000" font-family="sans-serif" font-size="14" font-style="italic" lengthAdjust="spacing" textLength="46" x="264" y="111.292">&#171;&#23384;&#27963;&#187;</text><text fill="#000000" font-family="sans-serif" font-size="14" lengthAdjust="spacing" textLength="19" x="277.5" y="127.5889">R2</text></g><!--entity A--><g id="elem_A"><rect fill="#F1F1F1" height="62.5938" rx="2.5" ry="2.5" style="stroke:#181818;stroke-width:0.5;" width="86" x="128" y="200.8969"/><rect fill="#F1F1F1" height="10" style="stroke:#181818;stroke-width:0.5;" width="15" x="194" y="205.8969"/><rect fill="#F1F1F1" height="2" style="stroke:#181818;stroke-width:0.5;" width="4" x="192" y="207.8969"/><rect fill="#F1F1F1" height="2" style="stroke:#181818;stroke-width:0.5;" width="4" x="192" y="211.8969"/><text fill="#000000" font-family="sans-serif" font-size="14" font-style="italic" lengthAdjust="spacing" textLength="46" x="143" y="233.892">&#171;&#23384;&#27963;&#187;</text><text fill="#000000" font-family="sans-serif" font-size="14" lengthAdjust="spacing" textLength="9" x="161.5" y="250.1889">A</text></g><!--entity B--><g id="elem_B"><rect fill="#FFFFFF" height="62.5938" rx="2.5" ry="2.5" style="stroke:#181818;stroke-width:0.5;" width="86" x="370" y="78.2969"/><rect fill="#FFFFFF" height="10" style="stroke:#181818;stroke-width:0.5;" width="15" x="436" y="83.2969"/><rect fill="#FFFFFF" height="2" style="stroke:#181818;stroke-width:0.5;" width="4" x="434" y="85.2969"/><rect fill="#FFFFFF" height="2" style="stroke:#181818;stroke-width:0.5;" width="4" x="434" y="89.2969"/><text fill="#000000" font-family="sans-serif" font-size="14" font-style="italic" lengthAdjust="spacing" textLength="46" x="385" y="111.292">&#171;&#27515;&#20129;&#187;</text><text fill="#000000" font-family="sans-serif" font-size="14" lengthAdjust="spacing" textLength="10" x="403" y="127.5889">B</text></g><!--entity F--><g id="elem_F"><rect fill="#FFFFFF" height="62.5938" rx="2.5" ry="2.5" style="stroke:#181818;stroke-width:0.5;" width="86" x="370" y="200.8969"/><rect fill="#FFFFFF" height="10" style="stroke:#181818;stroke-width:0.5;" width="15" x="436" y="205.8969"/><rect fill="#FFFFFF" height="2" style="stroke:#181818;stroke-width:0.5;" width="4" x="434" y="207.8969"/><rect fill="#FFFFFF" height="2" style="stroke:#181818;stroke-width:0.5;" width="4" x="434" y="211.8969"/><text fill="#000000" font-family="sans-serif" font-size="14" font-style="italic" lengthAdjust="spacing" textLength="46" x="385" y="233.892">&#171;&#27515;&#20129;&#187;</text><text fill="#000000" font-family="sans-serif" font-size="14" lengthAdjust="spacing" textLength="8" x="404" y="250.1889">F</text></g><!--entity C--><g id="elem_C"><rect fill="#F1F1F1" height="62.5938" rx="2.5" ry="2.5" style="stroke:#181818;stroke-width:0.5;" width="86" x="249" y="200.8969"/><rect fill="#F1F1F1" height="10" style="stroke:#181818;stroke-width:0.5;" width="15" x="315" y="205.8969"/><rect fill="#F1F1F1" height="2" style="stroke:#181818;stroke-width:0.5;" width="4" x="313" y="207.8969"/><rect fill="#F1F1F1" height="2" style="stroke:#181818;stroke-width:0.5;" width="4" x="313" y="211.8969"/><text fill="#000000" font-family="sans-serif" font-size="14" font-style="italic" lengthAdjust="spacing" textLength="46" x="264" y="233.892">&#171;&#23384;&#27963;&#187;</text><text fill="#000000" font-family="sans-serif" font-size="14" lengthAdjust="spacing" textLength="10" x="282" y="250.1889">C</text></g><!--entity D--><g id="elem_D"><rect fill="#F1F1F1" height="62.5938" rx="2.5" ry="2.5" style="stroke:#181818;stroke-width:0.5;" width="86" x="7" y="200.8969"/><rect fill="#F1F1F1" height="10" style="stroke:#181818;stroke-width:0.5;" width="15" x="73" y="205.8969"/><rect fill="#F1F1F1" height="2" style="stroke:#181818;stroke-width:0.5;" width="4" x="71" y="207.8969"/><rect fill="#F1F1F1" height="2" style="stroke:#181818;stroke-width:0.5;" width="4" x="71" y="211.8969"/><text fill="#000000" font-family="sans-serif" font-size="14" font-style="italic" lengthAdjust="spacing" textLength="46" x="22" y="233.892">&#171;&#23384;&#27963;&#187;</text><text fill="#000000" font-family="sans-serif" font-size="14" lengthAdjust="spacing" textLength="11" x="39.5" y="250.1889">D</text></g><!--link R1 to A--><g id="link_R1_A"><path d="M171,141.3369 C171,157.6369 171,177.7669 171,194.8369 " fill="none" id="R1-to-A" style="stroke:#181818;stroke-width:1.0;"/><polygon fill="#181818" points="171,199.5069,175,190.5069,171,194.5069,167,190.5069,171,199.5069" style="stroke:#181818;stroke-width:1.0;"/></g><!--link A to C--><g id="link_A_C"><path d="M214.48,232.1869 C223.93,232.1869 233.37,232.1869 242.82,232.1869 " fill="none" id="A-to-C" style="stroke:#181818;stroke-width:1.0;"/><polygon fill="#181818" points="247.7,232.1869,238.7,228.1869,242.7,232.1869,238.7,236.1869,247.7,232.1869" style="stroke:#181818;stroke-width:1.0;"/></g><!--reverse link D to A--><g id="link_D_A"><path d="M99.37,232.1869 C108.81,232.1869 118.26,232.1869 127.7,232.1869 " fill="none" id="D-backto-A" style="stroke:#181818;stroke-width:1.0;"/><polygon fill="#181818" points="94.48,232.1869,103.48,236.1869,99.48,232.1869,103.48,228.1869,94.48,232.1869" style="stroke:#181818;stroke-width:1.0;"/></g><!--link R2 to C--><g id="link_R2_C"><path d="M292,141.3369 C292,157.6369 292,177.7669 292,194.8369 " fill="none" id="R2-to-C" style="stroke:#181818;stroke-width:1.0;"/><polygon fill="#181818" points="292,199.5069,296,190.5069,292,194.5069,288,190.5069,292,199.5069" style="stroke:#181818;stroke-width:1.0;"/></g><!--link B to F--><g id="link_B_F"><path d="M413,141.3369 C413,157.6369 413,177.7669 413,194.8369 " fill="none" id="B-to-F" style="stroke:#181818;stroke-width:1.0;"/><polygon fill="#181818" points="413,199.5069,417,190.5069,413,194.5069,409,190.5069,413,199.5069" style="stroke:#181818;stroke-width:1.0;"/></g><!--SRC=[AyaioKbLUDg__iM-VSyQbZ_jQ7isRm9NGM9oTc9wgeAIkxD2K7v-IR6IGZKNPtIGOQo2ZStJjJEURTbjPmSIC48HgEMATaGHY7O2SP-jtVrarq8xEmNbyepCabIkQ3UieiweMbrGk5nWotLJTEqKW7Q0xT4j0d6SePmS4CS5o06v2Q8E9EK4uxZ50W00]--></g></svg>