<?xml version="1.0" encoding="us-ascii" standalone="no"?><svg xmlns="http://www.w3.org/2000/svg" xmlns:xlink="http://www.w3.org/1999/xlink" contentStyleType="text/css" height="426px" preserveAspectRatio="none" style="width:1192px;height:426px;background:#FFFFFF;" version="1.1" viewBox="0 0 1192 426" width="1192px" zoomAndPan="magnify"><defs/><g><text fill="#000000" font-family="sans-serif" font-size="14" font-weight="bold" lengthAdjust="spacing" textLength="255" x="461.5" y="22.9951">Java Collections Framework-Map</text><!--class Map--><g id="elem_Map"><rect codeLine="2" fill="#F1F1F1" height="48" id="Map" rx="2.5" ry="2.5" style="stroke:#181818;stroke-width:0.5;" width="84" x="516.5" y="47.2969"/><ellipse cx="531.5" cy="63.2969" fill="#B4A7E5" rx="11" ry="11" style="stroke:#181818;stroke-width:1.0;"/><path d="M527.4219,59.0625 L527.4219,56.9063 L534.8125,56.9063 L534.8125,59.0625 L532.3438,59.0625 L532.3438,67.1406 L534.8125,67.1406 L534.8125,69.2969 L527.4219,69.2969 L527.4219,67.1406 L529.8906,67.1406 L529.8906,59.0625 L527.4219,59.0625 Z " fill="#000000"/><text fill="#000000" font-family="sans-serif" font-size="14" font-style="italic" lengthAdjust="spacing" textLength="29" x="545.5" y="68.1436">Map</text><rect fill="#FFFFFF" height="15.9688" style="stroke:#181818;stroke-width:1.0;stroke-dasharray:2.0,2.0;" width="21" x="582.5" y="44.2969"/><text fill="#000000" font-family="sans-serif" font-size="12" font-style="italic" lengthAdjust="spacing" textLength="19" x="583.5" y="56.4355">K,V</text><line style="stroke:#181818;stroke-width:0.5;" x1="517.5" x2="599.5" y1="79.2969" y2="79.2969"/><line style="stroke:#181818;stroke-width:0.5;" x1="517.5" x2="599.5" y1="87.2969" y2="87.2969"/></g><!--class SortedMap--><g id="elem_SortedMap"><rect codeLine="3" fill="#F1F1F1" height="48" id="SortedMap" rx="2.5" ry="2.5" style="stroke:#181818;stroke-width:0.5;" width="130" x="330.5" y="155.2969"/><ellipse cx="345.5" cy="171.2969" fill="#B4A7E5" rx="11" ry="11" style="stroke:#181818;stroke-width:1.0;"/><path d="M341.4219,167.0625 L341.4219,164.9063 L348.8125,164.9063 L348.8125,167.0625 L346.3438,167.0625 L346.3438,175.1406 L348.8125,175.1406 L348.8125,177.2969 L341.4219,177.2969 L341.4219,175.1406 L343.8906,175.1406 L343.8906,167.0625 L341.4219,167.0625 Z " fill="#000000"/><text fill="#000000" font-family="sans-serif" font-size="14" font-style="italic" lengthAdjust="spacing" textLength="75" x="359.5" y="176.1436">SortedMap</text><rect fill="#FFFFFF" height="15.9688" style="stroke:#181818;stroke-width:1.0;stroke-dasharray:2.0,2.0;" width="21" x="442.5" y="152.2969"/><text fill="#000000" font-family="sans-serif" font-size="12" font-style="italic" lengthAdjust="spacing" textLength="19" x="443.5" y="164.4355">K,V</text><line style="stroke:#181818;stroke-width:0.5;" x1="331.5" x2="459.5" y1="187.2969" y2="187.2969"/><line style="stroke:#181818;stroke-width:0.5;" x1="331.5" x2="459.5" y1="195.2969" y2="195.2969"/></g><!--class NavigableMap--><g id="elem_NavigableMap"><rect codeLine="4" fill="#F1F1F1" height="48" id="NavigableMap" rx="2.5" ry="2.5" style="stroke:#181818;stroke-width:0.5;" width="150" x="320.5" y="263.2969"/><ellipse cx="335.5" cy="279.2969" fill="#B4A7E5" rx="11" ry="11" style="stroke:#181818;stroke-width:1.0;"/><path d="M331.4219,275.0625 L331.4219,272.9063 L338.8125,272.9063 L338.8125,275.0625 L336.3438,275.0625 L336.3438,283.1406 L338.8125,283.1406 L338.8125,285.2969 L331.4219,285.2969 L331.4219,283.1406 L333.8906,283.1406 L333.8906,275.0625 L331.4219,275.0625 Z " fill="#000000"/><text fill="#000000" font-family="sans-serif" font-size="14" font-style="italic" lengthAdjust="spacing" textLength="95" x="349.5" y="284.1436">NavigableMap</text><rect fill="#FFFFFF" height="15.9688" style="stroke:#181818;stroke-width:1.0;stroke-dasharray:2.0,2.0;" width="21" x="452.5" y="260.2969"/><text fill="#000000" font-family="sans-serif" font-size="12" font-style="italic" lengthAdjust="spacing" textLength="19" x="453.5" y="272.4355">K,V</text><line style="stroke:#181818;stroke-width:0.5;" x1="321.5" x2="469.5" y1="295.2969" y2="295.2969"/><line style="stroke:#181818;stroke-width:0.5;" x1="321.5" x2="469.5" y1="303.2969" y2="303.2969"/></g><!--class HashMap--><g id="elem_HashMap"><rect codeLine="5" fill="#F1F1F1" height="48" id="HashMap" rx="2.5" ry="2.5" style="stroke:#181818;stroke-width:0.5;" width="119" x="746" y="47.2969"/><ellipse cx="761" cy="63.2969" fill="#ADD1B2" rx="11" ry="11" style="stroke:#181818;stroke-width:1.0;"/><path d="M763.9688,68.9375 Q763.3906,69.2344 762.75,69.375 Q762.1094,69.5313 761.4063,69.5313 Q758.9063,69.5313 757.5781,67.8906 Q756.2656,66.2344 756.2656,63.1094 Q756.2656,59.9844 757.5781,58.3281 Q758.9063,56.6719 761.4063,56.6719 Q762.1094,56.6719 762.75,56.8281 Q763.4063,56.9844 763.9688,57.2813 L763.9688,60 Q763.3438,59.4219 762.75,59.1563 Q762.1563,58.875 761.5313,58.875 Q760.1875,58.875 759.5,59.9531 Q758.8125,61.0156 758.8125,63.1094 Q758.8125,65.2031 759.5,66.2813 Q760.1875,67.3438 761.5313,67.3438 Q762.1563,67.3438 762.75,67.0781 Q763.3438,66.7969 763.9688,66.2188 L763.9688,68.9375 Z " fill="#000000"/><text fill="#000000" font-family="sans-serif" font-size="14" lengthAdjust="spacing" textLength="64" x="775" y="68.1436">HashMap</text><rect fill="#FFFFFF" height="15.9688" style="stroke:#181818;stroke-width:1.0;stroke-dasharray:2.0,2.0;" width="21" x="847" y="44.2969"/><text fill="#000000" font-family="sans-serif" font-size="12" font-style="italic" lengthAdjust="spacing" textLength="19" x="848" y="56.4355">K,V</text><line style="stroke:#181818;stroke-width:0.5;" x1="747" x2="864" y1="79.2969" y2="79.2969"/><line style="stroke:#181818;stroke-width:0.5;" x1="747" x2="864" y1="87.2969" y2="87.2969"/></g><!--class LinkedHashMap--><g id="elem_LinkedHashMap"><rect codeLine="6" fill="#F1F1F1" height="48" id="LinkedHashMap" rx="2.5" ry="2.5" style="stroke:#181818;stroke-width:0.5;" width="164" x="774.5" y="155.2969"/><ellipse cx="789.5" cy="171.2969" fill="#ADD1B2" rx="11" ry="11" style="stroke:#181818;stroke-width:1.0;"/><path d="M792.4688,176.9375 Q791.8906,177.2344 791.25,177.375 Q790.6094,177.5313 789.9063,177.5313 Q787.4063,177.5313 786.0781,175.8906 Q784.7656,174.2344 784.7656,171.1094 Q784.7656,167.9844 786.0781,166.3281 Q787.4063,164.6719 789.9063,164.6719 Q790.6094,164.6719 791.25,164.8281 Q791.9063,164.9844 792.4688,165.2813 L792.4688,168 Q791.8438,167.4219 791.25,167.1563 Q790.6563,166.875 790.0313,166.875 Q788.6875,166.875 788,167.9531 Q787.3125,169.0156 787.3125,171.1094 Q787.3125,173.2031 788,174.2813 Q788.6875,175.3438 790.0313,175.3438 Q790.6563,175.3438 791.25,175.0781 Q791.8438,174.7969 792.4688,174.2188 L792.4688,176.9375 Z " fill="#000000"/><text fill="#000000" font-family="sans-serif" font-size="14" lengthAdjust="spacing" textLength="109" x="803.5" y="176.1436">LinkedHashMap</text><rect fill="#FFFFFF" height="15.9688" style="stroke:#181818;stroke-width:1.0;stroke-dasharray:2.0,2.0;" width="21" x="920.5" y="152.2969"/><text fill="#000000" font-family="sans-serif" font-size="12" font-style="italic" lengthAdjust="spacing" textLength="19" x="921.5" y="164.4355">K,V</text><line style="stroke:#181818;stroke-width:0.5;" x1="775.5" x2="937.5" y1="187.2969" y2="187.2969"/><line style="stroke:#181818;stroke-width:0.5;" x1="775.5" x2="937.5" y1="195.2969" y2="195.2969"/></g><!--class TreeMap--><g id="elem_TreeMap"><rect codeLine="7" fill="#F1F1F1" height="48" id="TreeMap" rx="2.5" ry="2.5" style="stroke:#181818;stroke-width:0.5;" width="116" x="337.5" y="371.2969"/><ellipse cx="352.5" cy="387.2969" fill="#ADD1B2" rx="11" ry="11" style="stroke:#181818;stroke-width:1.0;"/><path d="M355.4688,392.9375 Q354.8906,393.2344 354.25,393.375 Q353.6094,393.5313 352.9063,393.5313 Q350.4063,393.5313 349.0781,391.8906 Q347.7656,390.2344 347.7656,387.1094 Q347.7656,383.9844 349.0781,382.3281 Q350.4063,380.6719 352.9063,380.6719 Q353.6094,380.6719 354.25,380.8281 Q354.9063,380.9844 355.4688,381.2813 L355.4688,384 Q354.8438,383.4219 354.25,383.1563 Q353.6563,382.875 353.0313,382.875 Q351.6875,382.875 351,383.9531 Q350.3125,385.0156 350.3125,387.1094 Q350.3125,389.2031 351,390.2813 Q351.6875,391.3438 353.0313,391.3438 Q353.6563,391.3438 354.25,391.0781 Q354.8438,390.7969 355.4688,390.2188 L355.4688,392.9375 Z " fill="#000000"/><text fill="#000000" font-family="sans-serif" font-size="14" lengthAdjust="spacing" textLength="61" x="366.5" y="392.1436">TreeMap</text><rect fill="#FFFFFF" height="15.9688" style="stroke:#181818;stroke-width:1.0;stroke-dasharray:2.0,2.0;" width="21" x="435.5" y="368.2969"/><text fill="#000000" font-family="sans-serif" font-size="12" font-style="italic" lengthAdjust="spacing" textLength="19" x="436.5" y="380.4355">K,V</text><line style="stroke:#181818;stroke-width:0.5;" x1="338.5" x2="452.5" y1="403.2969" y2="403.2969"/><line style="stroke:#181818;stroke-width:0.5;" x1="338.5" x2="452.5" y1="411.2969" y2="411.2969"/></g><!--class EnumMap--><g id="elem_EnumMap"><rect codeLine="8" fill="#F1F1F1" height="48" id="EnumMap" rx="2.5" ry="2.5" style="stroke:#181818;stroke-width:0.5;" width="244" x="495.5" y="155.2969"/><ellipse cx="510.5" cy="171.2969" fill="#ADD1B2" rx="11" ry="11" style="stroke:#181818;stroke-width:1.0;"/><path d="M513.4688,176.9375 Q512.8906,177.2344 512.25,177.375 Q511.6094,177.5313 510.9063,177.5313 Q508.4063,177.5313 507.0781,175.8906 Q505.7656,174.2344 505.7656,171.1094 Q505.7656,167.9844 507.0781,166.3281 Q508.4063,164.6719 510.9063,164.6719 Q511.6094,164.6719 512.25,164.8281 Q512.9063,164.9844 513.4688,165.2813 L513.4688,168 Q512.8438,167.4219 512.25,167.1563 Q511.6563,166.875 511.0313,166.875 Q509.6875,166.875 509,167.9531 Q508.3125,169.0156 508.3125,171.1094 Q508.3125,173.2031 509,174.2813 Q509.6875,175.3438 511.0313,175.3438 Q511.6563,175.3438 512.25,175.0781 Q512.8438,174.7969 513.4688,174.2188 L513.4688,176.9375 Z " fill="#000000"/><text fill="#000000" font-family="sans-serif" font-size="14" lengthAdjust="spacing" textLength="69" x="524.5" y="176.1436">EnumMap</text><rect fill="#FFFFFF" height="15.9688" style="stroke:#181818;stroke-width:1.0;stroke-dasharray:2.0,2.0;" width="141" x="601.5" y="152.2969"/><text fill="#000000" font-family="sans-serif" font-size="12" font-style="italic" lengthAdjust="spacing" textLength="139" x="602.5" y="164.4355">K extends Enum&lt;K&gt;,V</text><line style="stroke:#181818;stroke-width:0.5;" x1="496.5" x2="738.5" y1="187.2969" y2="187.2969"/><line style="stroke:#181818;stroke-width:0.5;" x1="496.5" x2="738.5" y1="195.2969" y2="195.2969"/></g><!--class Hashtable--><g id="elem_Hashtable"><rect codeLine="9" fill="#F1F1F1" height="48" id="Hashtable" rx="2.5" ry="2.5" style="stroke:#181818;stroke-width:0.5;" width="124" x="240.5" y="47.2969"/><ellipse cx="255.5" cy="63.2969" fill="#ADD1B2" rx="11" ry="11" style="stroke:#181818;stroke-width:1.0;"/><path d="M258.4688,68.9375 Q257.8906,69.2344 257.25,69.375 Q256.6094,69.5313 255.9063,69.5313 Q253.4063,69.5313 252.0781,67.8906 Q250.7656,66.2344 250.7656,63.1094 Q250.7656,59.9844 252.0781,58.3281 Q253.4063,56.6719 255.9063,56.6719 Q256.6094,56.6719 257.25,56.8281 Q257.9063,56.9844 258.4688,57.2813 L258.4688,60 Q257.8438,59.4219 257.25,59.1563 Q256.6563,58.875 256.0313,58.875 Q254.6875,58.875 254,59.9531 Q253.3125,61.0156 253.3125,63.1094 Q253.3125,65.2031 254,66.2813 Q254.6875,67.3438 256.0313,67.3438 Q256.6563,67.3438 257.25,67.0781 Q257.8438,66.7969 258.4688,66.2188 L258.4688,68.9375 Z " fill="#000000"/><text fill="#000000" font-family="sans-serif" font-size="14" lengthAdjust="spacing" textLength="69" x="269.5" y="68.1436">Hashtable</text><rect fill="#FFFFFF" height="15.9688" style="stroke:#181818;stroke-width:1.0;stroke-dasharray:2.0,2.0;" width="21" x="346.5" y="44.2969"/><text fill="#000000" font-family="sans-serif" font-size="12" font-style="italic" lengthAdjust="spacing" textLength="19" x="347.5" y="56.4355">K,V</text><line style="stroke:#181818;stroke-width:0.5;" x1="241.5" x2="363.5" y1="79.2969" y2="79.2969"/><line style="stroke:#181818;stroke-width:0.5;" x1="241.5" x2="363.5" y1="87.2969" y2="87.2969"/></g><!--class Properties--><g id="elem_Properties"><rect codeLine="10" fill="#F1F1F1" height="48" id="Properties" rx="2.5" ry="2.5" style="stroke:#181818;stroke-width:0.5;" width="103" x="192" y="155.2969"/><ellipse cx="207" cy="171.2969" fill="#ADD1B2" rx="11" ry="11" style="stroke:#181818;stroke-width:1.0;"/><path d="M209.9688,176.9375 Q209.3906,177.2344 208.75,177.375 Q208.1094,177.5313 207.4063,177.5313 Q204.9063,177.5313 203.5781,175.8906 Q202.2656,174.2344 202.2656,171.1094 Q202.2656,167.9844 203.5781,166.3281 Q204.9063,164.6719 207.4063,164.6719 Q208.1094,164.6719 208.75,164.8281 Q209.4063,164.9844 209.9688,165.2813 L209.9688,168 Q209.3438,167.4219 208.75,167.1563 Q208.1563,166.875 207.5313,166.875 Q206.1875,166.875 205.5,167.9531 Q204.8125,169.0156 204.8125,171.1094 Q204.8125,173.2031 205.5,174.2813 Q206.1875,175.3438 207.5313,175.3438 Q208.1563,175.3438 208.75,175.0781 Q209.3438,174.7969 209.9688,174.2188 L209.9688,176.9375 Z " fill="#000000"/><text fill="#000000" font-family="sans-serif" font-size="14" lengthAdjust="spacing" textLength="71" x="221" y="176.1436">Properties</text><line style="stroke:#181818;stroke-width:0.5;" x1="193" x2="294" y1="187.2969" y2="187.2969"/><line style="stroke:#181818;stroke-width:0.5;" x1="193" x2="294" y1="195.2969" y2="195.2969"/></g><g id="elem_GMN26"><path d="M900.5,51.1669 L900.5,67.2969 L865.24,71.2969 L900.5,75.2969 L900.5,91.4325 A0,0 0 0 0 900.5,91.4325 L1072.5,91.4325 A0,0 0 0 0 1072.5,91.4325 L1072.5,61.1669 L1062.5,51.1669 L900.5,51.1669 A0,0 0 0 0 900.5,51.1669 " fill="#FEFFDD" style="stroke:#181818;stroke-width:0.5;"/><path d="M1062.5,51.1669 L1062.5,61.1669 L1072.5,61.1669 L1062.5,51.1669 " fill="#FEFFDD" style="stroke:#181818;stroke-width:0.5;"/><text fill="#000000" font-family="sans-serif" font-size="13" lengthAdjust="spacing" textLength="143" x="906.5" y="68.2338">&#22522;&#20110;&#25968;&#32452;&#65292;&#38142;&#34920;&#21644;&#32418;&#40657;&#26641;</text><text fill="#000000" font-family="sans-serif" font-size="13" lengthAdjust="spacing" textLength="151" x="906.5" y="83.3666">&#32447;&#31243;&#19981;&#23433;&#20840;&#30340;&#65288;fast-fail&#65289;</text></g><g id="elem_GMN29"><path d="M974,159.1669 L974,175.2969 L938.82,179.2969 L974,183.2969 L974,199.4325 A0,0 0 0 0 974,199.4325 L1185,199.4325 A0,0 0 0 0 1185,199.4325 L1185,169.1669 L1175,159.1669 L974,159.1669 A0,0 0 0 0 974,159.1669 " fill="#FEFFDD" style="stroke:#181818;stroke-width:0.5;"/><path d="M1175,159.1669 L1175,169.1669 L1185,169.1669 L1175,159.1669 " fill="#FEFFDD" style="stroke:#181818;stroke-width:0.5;"/><text fill="#000000" font-family="sans-serif" font-size="13" lengthAdjust="spacing" textLength="190" x="980" y="176.2338">&#32487;&#25215;HashMap&#65292;&#21452;&#21521;&#38142;&#34920;&#65292;&#26377;&#24207;</text><text fill="#000000" font-family="sans-serif" font-size="13" lengthAdjust="spacing" textLength="151" x="980" y="191.3666">&#32447;&#31243;&#19981;&#23433;&#20840;&#30340;&#65288;fast-fail&#65289;</text></g><g id="elem_GMN32"><path d="M130.5,375.1669 L130.5,415.4325 A0,0 0 0 0 130.5,415.4325 L302.5,415.4325 A0,0 0 0 0 302.5,415.4325 L302.5,399.2969 L337.23,395.2969 L302.5,391.2969 L302.5,385.1669 L292.5,375.1669 L130.5,375.1669 A0,0 0 0 0 130.5,375.1669 " fill="#FEFFDD" style="stroke:#181818;stroke-width:0.5;"/><path d="M292.5,375.1669 L292.5,385.1669 L302.5,385.1669 L292.5,375.1669 " fill="#FEFFDD" style="stroke:#181818;stroke-width:0.5;"/><text fill="#000000" font-family="sans-serif" font-size="13" lengthAdjust="spacing" textLength="104" x="136.5" y="392.2338">&#22522;&#20110;&#32418;&#40657;&#26641;&#65292;&#26377;&#24207;</text><text fill="#000000" font-family="sans-serif" font-size="13" lengthAdjust="spacing" textLength="151" x="136.5" y="407.3666">&#32447;&#31243;&#19981;&#23433;&#20840;&#30340;&#65288;fast-fail&#65289;</text></g><g id="elem_GMN35"><path d="M531.5,267.1669 L531.5,307.4325 A0,0 0 0 0 531.5,307.4325 L703.5,307.4325 A0,0 0 0 0 703.5,307.4325 L703.5,277.1669 L693.5,267.1669 L621.5,267.1669 L617.5,203.5569 L613.5,267.1669 L531.5,267.1669 A0,0 0 0 0 531.5,267.1669 " fill="#FEFFDD" style="stroke:#181818;stroke-width:0.5;"/><path d="M693.5,267.1669 L693.5,277.1669 L703.5,277.1669 L693.5,267.1669 " fill="#FEFFDD" style="stroke:#181818;stroke-width:0.5;"/><text fill="#000000" font-family="sans-serif" font-size="13" lengthAdjust="spacing" textLength="52" x="537.5" y="284.2338">&#22522;&#20110;&#25968;&#32452;</text><text fill="#000000" font-family="sans-serif" font-size="13" lengthAdjust="spacing" textLength="151" x="537.5" y="299.3666">&#32447;&#31243;&#19981;&#23433;&#20840;&#30340;&#65288;fast-fail&#65289;</text></g><g id="elem_GMN38"><path d="M55,51.1669 L55,91.4325 A0,0 0 0 0 55,91.4325 L206,91.4325 A0,0 0 0 0 206,91.4325 L206,75.2969 L240.2,71.2969 L206,67.2969 L206,61.1669 L196,51.1669 L55,51.1669 A0,0 0 0 0 55,51.1669 " fill="#FEFFDD" style="stroke:#181818;stroke-width:0.5;"/><path d="M196,51.1669 L196,61.1669 L206,61.1669 L196,51.1669 " fill="#FEFFDD" style="stroke:#181818;stroke-width:0.5;"/><text fill="#000000" font-family="sans-serif" font-size="13" lengthAdjust="spacing" textLength="91" x="61" y="68.2338">&#22522;&#20110;&#25968;&#32452;&#21644;&#38142;&#34920;</text><text fill="#000000" font-family="sans-serif" font-size="13" lengthAdjust="spacing" textLength="130" x="61" y="83.3666">&#32447;&#31243;&#23433;&#20840;&#30340;&#65288;&#20869;&#32622;&#38145;&#65289;</text></g><g id="elem_GMN41"><path d="M6,159.1669 L6,199.4325 A0,0 0 0 0 6,199.4325 L157,199.4325 A0,0 0 0 0 157,199.4325 L157,183.2969 L191.73,179.2969 L157,175.2969 L157,169.1669 L147,159.1669 L6,159.1669 A0,0 0 0 0 6,159.1669 " fill="#FEFFDD" style="stroke:#181818;stroke-width:0.5;"/><path d="M147,159.1669 L147,169.1669 L157,169.1669 L147,159.1669 " fill="#FEFFDD" style="stroke:#181818;stroke-width:0.5;"/><text fill="#000000" font-family="sans-serif" font-size="13" lengthAdjust="spacing" textLength="91" x="12" y="176.2338">&#32487;&#25215;Hashtable</text><text fill="#000000" font-family="sans-serif" font-size="13" lengthAdjust="spacing" textLength="130" x="12" y="191.3666">&#32447;&#31243;&#23433;&#20840;&#30340;&#65288;&#20869;&#32622;&#38145;&#65289;</text></g><!--reverse link Map to SortedMap--><g id="link_Map_SortedMap"><path codeLine="12" d="M505.16,106.9869 C481.01,122.6969 453.09,140.8469 431.47,154.9069 " fill="none" id="Map-backto-SortedMap" style="stroke:#181818;stroke-width:1.0;"/><polygon fill="none" points="501.15,100.5969,521.73,95.5569,508.78,112.3269,501.15,100.5969" style="stroke:#181818;stroke-width:1.0;"/></g><!--reverse link SortedMap to NavigableMap--><g id="link_SortedMap_NavigableMap"><path codeLine="13" d="M395.5,224.5369 C395.5,237.7769 395.5,251.7769 395.5,263.0869 " fill="none" id="SortedMap-backto-NavigableMap" style="stroke:#181818;stroke-width:1.0;"/><polygon fill="none" points="388.5,224.5569,395.5,204.5569,402.5,224.5569,388.5,224.5569" style="stroke:#181818;stroke-width:1.0;"/></g><!--reverse link Map to HashMap--><g id="link_Map_HashMap"><path codeLine="14" d="M621.86,71.2969 C663.09,71.2969 704.33,71.2969 745.57,71.2969 " fill="none" id="Map-backto-HashMap" style="stroke:#181818;stroke-width:1.0;stroke-dasharray:7.0,7.0;"/><polygon fill="none" points="621.95,78.2969,601.95,71.2969,621.95,64.2969,621.95,78.2969" style="stroke:#181818;stroke-width:1.0;"/></g><!--reverse link HashMap to LinkedHashMap--><g id="link_HashMap_LinkedHashMap"><path codeLine="15" d="M825.62,114.1169 C832.33,128.0669 839.56,143.0869 845.33,155.0869 " fill="none" id="HashMap-backto-LinkedHashMap" style="stroke:#181818;stroke-width:1.0;"/><polygon fill="none" points="819.06,117.6169,816.69,96.5569,831.67,111.5469,819.06,117.6169" style="stroke:#181818;stroke-width:1.0;"/></g><!--reverse link NavigableMap to TreeMap--><g id="link_NavigableMap_TreeMap"><path codeLine="16" d="M395.5,332.5369 C395.5,345.7769 395.5,359.7769 395.5,371.0869 " fill="none" id="NavigableMap-backto-TreeMap" style="stroke:#181818;stroke-width:1.0;stroke-dasharray:7.0,7.0;"/><polygon fill="none" points="388.5,332.5569,395.5,312.5569,402.5,332.5569,388.5,332.5569" style="stroke:#181818;stroke-width:1.0;"/></g><!--reverse link Map to EnumMap--><g id="link_Map_EnumMap"><path codeLine="17" d="M581.51,113.6369 C589.35,127.7169 597.82,142.9469 604.58,155.0869 " fill="none" id="Map-backto-EnumMap" style="stroke:#181818;stroke-width:1.0;stroke-dasharray:7.0,7.0;"/><polygon fill="none" points="575.06,117.4369,571.45,96.5569,587.29,110.6269,575.06,117.4369" style="stroke:#181818;stroke-width:1.0;"/></g><!--link Hashtable to Map--><g id="link_Hashtable_Map"><path codeLine="18" d="M364.5,71.2969 C408.11,71.2969 451.73,71.2969 495.34,71.2969 " fill="none" id="Hashtable-to-Map" style="stroke:#181818;stroke-width:1.0;stroke-dasharray:7.0,7.0;"/><polygon fill="none" points="495.06,64.2969,515.06,71.2969,495.06,78.2969,495.06,64.2969" style="stroke:#181818;stroke-width:1.0;"/></g><!--reverse link Hashtable to Properties--><g id="link_Hashtable_Properties"><path codeLine="19" d="M279.49,113.6369 C271.65,127.7169 263.18,142.9469 256.42,155.0869 " fill="none" id="Hashtable-backto-Properties" style="stroke:#181818;stroke-width:1.0;"/><polygon fill="none" points="273.71,110.6269,289.55,96.5569,285.94,117.4369,273.71,110.6269" style="stroke:#181818;stroke-width:1.0;"/></g><!--SRC=[bL7DJi906BplK-m3s3u08LoCneWQ4uqdBmjiOSFI9Ti5FNWn4ICHHVov61D_Bd8Y7ar1UHdQoebNi2tRiaKJvVZDDpiptwmWWcAuZke8BZDASLuGPbfmbQCAFc2yh6sYAY2cmDn0UGpzAPrTsiieq0xZ0XT-MMoXEYcY7CNnBa-HPS4rP9Nce0rYbd7XbyKkn_FFLynQ9OGWFXJOB4oHT3QJT121i_fkcxCgve9W2u0uCzHgsb4cE0keSIKSqu2C1dMgIteYikJB2SZKKAy5R5KOoFHo5Kc7OQ7E8soMLL4EIG2OJ638IR4a83CYIvY2pgCziY_TkpUlVp8PjCOtdr_FNUUwvTalutx7VUhicvuzzBhde_SBfzTq6btltYUU6SWIce48dGoQS-B96rFGwx-wpQ6SVG-dtNAkEbCdVtGVcexT_hSDnKRe4hKLdH07NbmonuHWbK0qwZdPoyBPPf-J5F9xdPuTAQfopcd3- -YDRuz_o2d_ghOPElobz0q0]--></g></svg>