<?xml version="1.0" encoding="us-ascii" standalone="no"?><svg xmlns="http://www.w3.org/2000/svg" xmlns:xlink="http://www.w3.org/1999/xlink" contentStyleType="text/css" height="521px" preserveAspectRatio="none" style="width:1069px;height:521px;background:#FFFFFF;" version="1.1" viewBox="0 0 1069 521" width="1069px" zoomAndPan="magnify"><defs/><g><text fill="#000000" font-family="sans-serif" font-size="14" font-weight="bold" lengthAdjust="spacing" textLength="211" x="422" y="22.9951">DispatcherServlet&#30340;&#32487;&#25215;&#20307;&#31995;</text><!--class Servlet--><g id="elem_Servlet"><rect codeLine="2" fill="#F1F1F1" height="64.2969" id="Servlet" rx="2.5" ry="2.5" style="stroke:#181818;stroke-width:0.5;" width="349" x="38" y="44.2969"/><ellipse cx="184.75" cy="60.2969" fill="#B4A7E5" rx="11" ry="11" style="stroke:#181818;stroke-width:1.0;"/><path d="M180.6719,56.0625 L180.6719,53.9063 L188.0625,53.9063 L188.0625,56.0625 L185.5938,56.0625 L185.5938,64.1406 L188.0625,64.1406 L188.0625,66.2969 L180.6719,66.2969 L180.6719,64.1406 L183.1406,64.1406 L183.1406,56.0625 L180.6719,56.0625 Z " fill="#000000"/><text fill="#000000" font-family="sans-serif" font-size="14" font-style="italic" lengthAdjust="spacing" textLength="47" x="205.25" y="65.1436">Servlet</text><line style="stroke:#181818;stroke-width:0.5;" x1="39" x2="386" y1="76.2969" y2="76.2969"/><line style="stroke:#181818;stroke-width:0.5;" x1="39" x2="386" y1="84.2969" y2="84.2969"/><ellipse cx="49" cy="97.9453" fill="#84BE84" rx="3" ry="3" style="stroke:#038048;stroke-width:1.0;"/><text fill="#000000" font-family="sans-serif" font-size="14" lengthAdjust="spacing" textLength="323" x="58" y="101.292">service(ServletRequest, ServletResponse) void</text></g><!--class GenericServlet--><g id="elem_GenericServlet"><rect codeLine="5" fill="#F1F1F1" height="64.2969" id="GenericServlet" rx="2.5" ry="2.5" style="stroke:#181818;stroke-width:0.5;" width="349" x="38" y="168.5969"/><ellipse cx="157.75" cy="184.5969" fill="#A9DCDF" rx="11" ry="11" style="stroke:#181818;stroke-width:1.0;"/><path d="M157.8594,179.9406 L156.7031,185.0187 L159.0313,185.0187 L157.8594,179.9406 Z M156.375,177.7062 L159.3594,177.7062 L162.7188,190.0969 L160.2656,190.0969 L159.5,187.0344 L156.2188,187.0344 L155.4688,190.0969 L153.0313,190.0969 L156.375,177.7062 Z " fill="#000000"/><text fill="#000000" font-family="sans-serif" font-size="14" font-style="italic" lengthAdjust="spacing" textLength="101" x="178.25" y="189.4436">GenericServlet</text><line style="stroke:#181818;stroke-width:0.5;" x1="39" x2="386" y1="200.5969" y2="200.5969"/><line style="stroke:#181818;stroke-width:0.5;" x1="39" x2="386" y1="208.5969" y2="208.5969"/><ellipse cx="49" cy="222.2453" fill="#84BE84" rx="3" ry="3" style="stroke:#038048;stroke-width:1.0;"/><text fill="#000000" font-family="sans-serif" font-size="14" font-style="italic" lengthAdjust="spacing" textLength="323" x="58" y="225.592">service(ServletRequest, ServletResponse) void</text></g><!--class HttpServlet--><g id="elem_HttpServlet"><rect codeLine="8" fill="#F1F1F1" height="80.5938" id="HttpServlet" rx="2.5" ry="2.5" style="stroke:#181818;stroke-width:0.5;" width="407" x="9" y="292.8869"/><ellipse cx="170.25" cy="308.8869" fill="#A9DCDF" rx="11" ry="11" style="stroke:#181818;stroke-width:1.0;"/><path d="M170.3594,304.2306 L169.2031,309.3088 L171.5313,309.3088 L170.3594,304.2306 Z M168.875,301.9963 L171.8594,301.9963 L175.2188,314.3869 L172.7656,314.3869 L172,311.3244 L168.7188,311.3244 L167.9688,314.3869 L165.5313,314.3869 L168.875,301.9963 Z " fill="#000000"/><text fill="#000000" font-family="sans-serif" font-size="14" font-style="italic" lengthAdjust="spacing" textLength="76" x="190.75" y="313.7336">HttpServlet</text><line style="stroke:#181818;stroke-width:0.5;" x1="10" x2="415" y1="324.8869" y2="324.8869"/><line style="stroke:#181818;stroke-width:0.5;" x1="10" x2="415" y1="332.8869" y2="332.8869"/><ellipse cx="20" cy="346.5353" fill="#84BE84" rx="3" ry="3" style="stroke:#038048;stroke-width:1.0;"/><text fill="#000000" font-family="sans-serif" font-size="14" lengthAdjust="spacing" textLength="323" x="29" y="349.882">service(ServletRequest, ServletResponse) void</text><polygon fill="#4177AF" points="20,358.8322,16,364.8322,24,364.8322" style="stroke:#1963A0;stroke-width:1.0;"/><text fill="#000000" font-family="sans-serif" font-size="14" font-style="italic" lengthAdjust="spacing" textLength="381" x="29" y="366.1789">service(HttpServletRequest, HttpServletResponse) void</text></g><!--class HttpServletBean--><g id="elem_HttpServletBean"><rect codeLine="12" fill="#F1F1F1" height="48" id="HttpServletBean" rx="2.5" ry="2.5" style="stroke:#181818;stroke-width:0.5;" width="144" x="451.5" y="309.1869"/><ellipse cx="466.5" cy="325.1869" fill="#A9DCDF" rx="11" ry="11" style="stroke:#181818;stroke-width:1.0;"/><path d="M466.6094,320.5306 L465.4531,325.6088 L467.7813,325.6088 L466.6094,320.5306 Z M465.125,318.2963 L468.1094,318.2963 L471.4688,330.6869 L469.0156,330.6869 L468.25,327.6244 L464.9688,327.6244 L464.2188,330.6869 L461.7813,330.6869 L465.125,318.2963 Z " fill="#000000"/><text fill="#000000" font-family="sans-serif" font-size="14" font-style="italic" lengthAdjust="spacing" textLength="112" x="480.5" y="330.0336">HttpServletBean</text><line style="stroke:#181818;stroke-width:0.5;" x1="452.5" x2="594.5" y1="341.1869" y2="341.1869"/><line style="stroke:#181818;stroke-width:0.5;" x1="452.5" x2="594.5" y1="349.1869" y2="349.1869"/></g><!--class FrameworkServlet--><g id="elem_FrameworkServlet"><rect codeLine="14" fill="#F1F1F1" height="80.5938" id="FrameworkServlet" rx="2.5" ry="2.5" style="stroke:#181818;stroke-width:0.5;" width="426" x="630.5" y="292.8869"/><ellipse cx="777.75" cy="308.8869" fill="#A9DCDF" rx="11" ry="11" style="stroke:#181818;stroke-width:1.0;"/><path d="M777.8594,304.2306 L776.7031,309.3088 L779.0313,309.3088 L777.8594,304.2306 Z M776.375,301.9963 L779.3594,301.9963 L782.7188,314.3869 L780.2656,314.3869 L779.5,311.3244 L776.2188,311.3244 L775.4688,314.3869 L773.0313,314.3869 L776.375,301.9963 Z " fill="#000000"/><text fill="#000000" font-family="sans-serif" font-size="14" font-style="italic" lengthAdjust="spacing" textLength="123" x="798.25" y="313.7336">FrameworkServlet</text><line style="stroke:#181818;stroke-width:0.5;" x1="631.5" x2="1055.5" y1="324.8869" y2="324.8869"/><line style="stroke:#181818;stroke-width:0.5;" x1="631.5" x2="1055.5" y1="332.8869" y2="332.8869"/><polygon fill="#4177AF" points="641.5,342.5353,637.5,348.5353,645.5,348.5353" style="stroke:#1963A0;stroke-width:1.0;"/><text fill="#000000" font-family="sans-serif" font-size="14" lengthAdjust="spacing" textLength="381" x="650.5" y="349.882">service(HttpServletRequest, HttpServletResponse) void</text><polygon fill="#4177AF" points="641.5,358.8322,637.5,364.8322,645.5,364.8322" style="stroke:#1963A0;stroke-width:1.0;"/><text fill="#000000" font-family="sans-serif" font-size="14" font-style="italic" lengthAdjust="spacing" textLength="400" x="650.5" y="366.1789">doService(HttpServletRequest, HttpServletResponse) void</text></g><!--class DispatcherServlet--><g id="elem_DispatcherServlet"><rect codeLine="18" fill="#F1F1F1" height="80.5938" id="DispatcherServlet" rx="2.5" ry="2.5" style="stroke:#181818;stroke-width:0.5;" width="437" x="625" y="433.4869"/><ellipse cx="778.25" cy="449.4869" fill="#ADD1B2" rx="11" ry="11" style="stroke:#181818;stroke-width:1.0;"/><path d="M781.2188,455.1275 Q780.6406,455.4244 780,455.565 Q779.3594,455.7212 778.6563,455.7212 Q776.1563,455.7212 774.8281,454.0806 Q773.5156,452.4244 773.5156,449.2994 Q773.5156,446.1744 774.8281,444.5181 Q776.1563,442.8619 778.6563,442.8619 Q779.3594,442.8619 780,443.0181 Q780.6563,443.1744 781.2188,443.4712 L781.2188,446.19 Q780.5938,445.6119 780,445.3462 Q779.4063,445.065 778.7813,445.065 Q777.4375,445.065 776.75,446.1431 Q776.0625,447.2056 776.0625,449.2994 Q776.0625,451.3931 776.75,452.4712 Q777.4375,453.5337 778.7813,453.5337 Q779.4063,453.5337 780,453.2681 Q780.5938,452.9869 781.2188,452.4087 L781.2188,455.1275 Z " fill="#000000"/><text fill="#000000" font-family="sans-serif" font-size="14" lengthAdjust="spacing" textLength="122" x="798.75" y="454.3336">DispatcherServlet</text><line style="stroke:#181818;stroke-width:0.5;" x1="626" x2="1061" y1="465.4869" y2="465.4869"/><line style="stroke:#181818;stroke-width:0.5;" x1="626" x2="1061" y1="473.4869" y2="473.4869"/><polygon fill="#4177AF" points="636,483.1353,632,489.1353,640,489.1353" style="stroke:#1963A0;stroke-width:1.0;"/><text fill="#000000" font-family="sans-serif" font-size="14" lengthAdjust="spacing" textLength="400" x="645" y="490.482">doService(HttpServletRequest, HttpServletResponse) void</text><polygon fill="#4177AF" points="636,499.4322,632,505.4322,640,505.4322" style="stroke:#1963A0;stroke-width:1.0;"/><text fill="#000000" font-family="sans-serif" font-size="14" lengthAdjust="spacing" textLength="411" x="645" y="506.7789">doDispatch(HttpServletRequest, HttpServletResponse) void</text></g><!--reverse link Servlet to GenericServlet--><g id="link_Servlet_GenericServlet"><path codeLine="23" d="M212.5,129.5169 C212.5,142.7269 212.5,156.5269 212.5,168.3569 " fill="none" id="Servlet-backto-GenericServlet" style="stroke:#181818;stroke-width:1.0;stroke-dasharray:7.0,7.0;"/><polygon fill="none" points="205.5,129.9369,212.5,109.9369,219.5,129.9369,205.5,129.9369" style="stroke:#181818;stroke-width:1.0;"/></g><!--reverse link GenericServlet to HttpServlet--><g id="link_GenericServlet_HttpServlet"><path codeLine="24" d="M212.5,253.9169 C212.5,266.7669 212.5,280.3269 212.5,292.4869 " fill="none" id="GenericServlet-backto-HttpServlet" style="stroke:#181818;stroke-width:1.0;"/><polygon fill="none" points="205.5,254.3169,212.5,234.3169,219.5,254.3169,205.5,254.3169" style="stroke:#181818;stroke-width:1.0;"/></g><!--reverse link HttpServlet to HttpServletBean--><g id="link_HttpServlet_HttpServletBean"><path codeLine="25" d="M437.2,333.1869 C441.82,333.1869 446.43,333.1869 451.05,333.1869 " fill="none" id="HttpServlet-backto-HttpServletBean" style="stroke:#181818;stroke-width:1.0;"/><polygon fill="none" points="437.29,340.1869,417.29,333.1869,437.29,326.1869,437.29,340.1869" style="stroke:#181818;stroke-width:1.0;"/></g><!--reverse link HttpServletBean to FrameworkServlet--><g id="link_HttpServletBean_FrameworkServlet"><path codeLine="26" d="M616.91,333.1869 C621.38,333.1869 625.85,333.1869 630.32,333.1869 " fill="none" id="HttpServletBean-backto-FrameworkServlet" style="stroke:#181818;stroke-width:1.0;"/><polygon fill="none" points="617,340.1869,597,333.1869,617,326.1869,617,340.1869" style="stroke:#181818;stroke-width:1.0;"/></g><!--reverse link FrameworkServlet to DispatcherServlet--><g id="link_FrameworkServlet_DispatcherServlet"><path codeLine="27" d="M843.5,394.4669 C843.5,407.5269 843.5,421.0269 843.5,433.0569 " fill="none" id="FrameworkServlet-backto-DispatcherServlet" style="stroke:#181818;stroke-width:1.0;"/><polygon fill="none" points="836.5,394.8969,843.5,374.8969,850.5,394.8969,836.5,394.8969" style="stroke:#181818;stroke-width:1.0;"/></g><!--SRC=[AyaioKbLSCaiBaWiISv8BGfEBIhBIIrvFglb-UxbpphtFzax-VdctLoPUIMfHMc9oQaAK0KArLoSsWh5G4vcSge6L30ejR0qjRX4Hm7EBox8pojErLGeoyzCuQhbIamgBYbAJ2vHICv9B2vMS4_DIotAJ4OniXgcffPIqprAIWeeS2rd7JQt81aAruyYHhIRd58JynIgQxdGbRWL9UQcbkSNPIEvlOvC-r7za98VJAOl82x3I2KGfv5hB5Whp4oIdSI5bdZqIlLgx61HoOKSzxgbka0PLELSw16XcmDIX2JAXH4F64f06ham0mLY7xfs0000]--></g></svg>