<?xml version="1.0" standalone="no"?><!DOCTYPE svg PUBLIC "-//W3C//DTD SVG 1.1//EN" "http://www.w3.org/Graphics/SVG/1.1/DTD/svg11.dtd"><svg t="1715491955353" class="icon" viewBox="0 0 1024 1024" version="1.1" xmlns="http://www.w3.org/2000/svg" p-id="12691" xmlns:xlink="http://www.w3.org/1999/xlink" width="200" height="200"><path d="M512 0q512 0 512 512T512 1024Q0 1024 0 512T512 0z m220.578909 682.961455a89.088 89.088 0 0 0-5.632-33.18691 58.88 58.88 0 0 0-28.532364-30.347636 259.677091 259.677091 0 0 0-54.411636-20.386909 475.927273 475.927273 0 0 0-76.706909-13.963636l-12.241455-1.210182a277.364364 277.364364 0 0 0-31.697454-3.863273c-17.314909-0.558545-34.071273 0-50.874182 1.070546-5.259636 0-10.752 0.651636-16.290909 1.256727-9.309091 0.837818-18.618182 1.768727-27.927273 2.746182a476.299636 476.299636 0 0 0-76.660363 13.963636 259.677091 259.677091 0 0 0-54.411637 20.386909 58.786909 58.786909 0 0 0-28.578909 30.347636 90.018909 90.018909 0 0 0-5.585454 33.18691v42.402909a25.506909 25.506909 0 0 0 0 2.56h469.271272v-2.56c0.279273-14.149818 0.325818-28.253091 0.279273-42.402909zM385.396364 448.791273a195.165091 195.165091 0 0 0 37.515636 64.139636 99.514182 99.514182 0 0 0 81.128727 35.653818 91.415273 91.415273 0 0 0 53.108364-20.666182 151.458909 151.458909 0 0 0 41.285818-53.154909 322.978909 322.978909 0 0 0 31.045818-108.311272 141.218909 141.218909 0 0 0-8.843636-69.073455 110.08 110.08 0 0 0-54.132364-59.252364 139.124364 139.124364 0 0 0-52.968727-13.963636A168.913455 168.913455 0 0 0 442.181818 232.727273a112.267636 112.267636 0 0 0-62.464 52.968727 139.915636 139.915636 0 0 0-15.546182 67.677091c0 3.072 0.279273 8.610909 0.930909 13.963636a344.436364 344.436364 0 0 0 20.293819 81.454546z" fill="#B5B5B5" p-id="12692"></path></svg>