<?xml version="1.0" standalone="no"?><!DOCTYPE svg PUBLIC "-//W3C//DTD SVG 1.1//EN" "http://www.w3.org/Graphics/SVG/1.1/DTD/svg11.dtd"><svg t="1716816743059" class="icon" viewBox="0 0 1025 1024" version="1.1" xmlns="http://www.w3.org/2000/svg" p-id="1058" xmlns:xlink="http://www.w3.org/1999/xlink" width="200.1953125" height="200"><path d="M510.240572 0.448971a37.925879 37.925879 0 0 1 31.977975 19.186785 38.37357 38.37357 0 0 1 0 37.925878 317.157558 317.157558 0 0 0 276.929265 472.762385 311.27361 311.27361 0 0 0 147.930113-36.966539 38.37357 38.37357 0 0 1 37.925879 0.959339 39.716645 39.716645 0 0 1 18.035578 33.257094A511.647603 511.647603 0 1 1 510.240572 0.448971z m416.864884 267.271916a20.082168 20.082168 0 0 1 20.21008 19.762389 55.449809 55.449809 0 0 0 55.577721 54.362558 19.762389 19.762389 0 1 1 0 39.524777 55.449809 55.449809 0 0 0-55.577721 54.362558 20.274036 20.274036 0 0 1-40.484116 0 55.449809 55.449809 0 0 0-55.577721-54.362558 19.762389 19.762389 0 1 1 0-39.524777h2.941974a55.449809 55.449809 0 0 0 52.635747-54.298602 20.082168 20.082168 0 0 1 20.21008-19.762389zM736.069032 0.448971a19.762389 19.762389 0 0 1 19.698433 19.698432 127.911901 127.911901 0 0 0 127.911901 127.911901 19.698433 19.698433 0 1 1 0 39.396866 127.911901 127.911901 0 0 0-127.911901 127.9119 19.698433 19.698433 0 0 1-39.460821 0 127.911901 127.911901 0 0 0-127.911901-127.9119 19.762389 19.762389 0 0 1-19.442609-14.326133 19.762389 19.762389 0 0 1 19.186785-24.303261 127.911901 127.911901 0 0 0 127.911901-127.911901 19.762389 19.762389 0 0 1 20.018212-20.465904z" p-id="1059" data-spm-anchor-id="a313x.collections_detail.0.i2.344f3a81mNSaRp" class="" fill="#555555"></path></svg>