<?xml version="1.0" standalone="no"?><!DOCTYPE svg PUBLIC "-//W3C//DTD SVG 1.1//EN" "http://www.w3.org/Graphics/SVG/1.1/DTD/svg11.dtd"><svg t="1716802760662" class="icon" viewBox="0 0 1024 1024" version="1.1" xmlns="http://www.w3.org/2000/svg" p-id="6739" xmlns:xlink="http://www.w3.org/1999/xlink" width="200" height="200"><path d="M459.861 564.139a42.667 42.667 0 0 1 0 60.33L230.997 853.333H384a42.667 42.667 0 0 1 0 85.334H126.635l-2.304-0.171-1.28-0.128-1.579-0.213a42.795 42.795 0 0 1-0.981-0.171l-1.024-0.17a42.368 42.368 0 0 1-25.174-15.574l3.499 3.925a43.008 43.008 0 0 1-12.459-29.312V640a42.667 42.667 0 0 1 85.334 0v152.917L399.53 564.14a42.667 42.667 0 0 1 60.33 0zM896 85.333h0.853c0.896 0 1.835 0.086 2.731 0.171l-3.584-0.17a43.008 43.008 0 0 1 7.51 0.682l0.98 0.17a42.368 42.368 0 0 1 17.665 8.107l0.085 0.043 0.427 0.384a42.626 42.626 0 0 1 6.912 6.955l-3.414-3.84a43.008 43.008 0 0 1 12.459 28.8v-0.043l0.043 1.408v256a42.667 42.667 0 0 1-85.334 0V230.997L624.47 459.861a42.667 42.667 0 0 1-60.33-60.33l228.778-228.864H640a42.667 42.667 0 0 1 0-85.334h256z" fill="#ffffff" p-id="6740"></path></svg>