<?xml version="1.0" standalone="no"?><!DOCTYPE svg PUBLIC "-//W3C//DTD SVG 1.1//EN" "http://www.w3.org/Graphics/SVG/1.1/DTD/svg11.dtd"><svg t="1716802784584" class="icon" viewBox="0 0 1024 1024" version="1.1" xmlns="http://www.w3.org/2000/svg" p-id="918" xmlns:xlink="http://www.w3.org/1999/xlink" width="200" height="200"><path d="M426.667 597.333h0.81c0.939 0 1.878 0.086 2.774 0.171l-3.584-0.17a43.008 43.008 0 0 1 7.509 0.682l0.981 0.17a42.368 42.368 0 0 1 8.747 2.774l0.853 0.384 0.683 0.341a42.539 42.539 0 0 1 7.381 4.608l0.086 0.043 0.426 0.384a42.626 42.626 0 0 1 6.912 6.955l-3.413-3.84a43.008 43.008 0 0 1 12.459 28.757l0.042 1.408v256A42.667 42.667 0 0 1 384 896V742.997L155.136 971.861a42.667 42.667 0 1 1-60.33-60.33l228.778-228.864H170.667a42.667 42.667 0 0 1 0-85.334h256z m502.528-459.861a42.667 42.667 0 0 1 0 60.33L700.33 426.668h153.002a42.667 42.667 0 0 1 0 85.333H595.925l-2.218-0.17-1.366-0.129-1.578-0.213a42.752 42.752 0 0 1-0.939-0.17l-0.981-0.171a42.368 42.368 0 0 1-25.174-15.574l3.499 3.926a43.008 43.008 0 0 1-12.501-29.312 42.24 42.24 0 0 1 0-0.854v-256a42.667 42.667 0 0 1 85.333 0v152.918l228.864-228.779a42.667 42.667 0 0 1 60.33 0z" fill="#ffffff" p-id="919"></path></svg>