<?xml version="1.0" standalone="no"?><!DOCTYPE svg PUBLIC "-//W3C//DTD SVG 1.1//EN" "http://www.w3.org/Graphics/SVG/1.1/DTD/svg11.dtd"><svg t="1715498140185" class="icon" viewBox="0 0 2048 1024" version="1.1" xmlns="http://www.w3.org/2000/svg" p-id="1434" xmlns:xlink="http://www.w3.org/1999/xlink" width="400" height="200"><path d="M883.2 563.2h249.6v32h-249.6zM883.2 684.8h249.6v32h-249.6zM883.2 627.2h249.6v25.6h-249.6zM972.8 294.4h76.8v38.4h-76.8zM851.2 294.4h70.4v38.4h-70.4zM883.2 499.2h249.6v25.6h-249.6zM1100.8 294.4h70.4v38.4h-70.4z" fill="#DE4F45" p-id="1435"></path><path d="M1920 0H128C57.6 0 0 57.6 0 128v768c0 70.4 57.6 128 128 128h1792c70.4 0 128-57.6 128-128V128c0-70.4-57.6-128-128-128z m-364.8 256h294.4v51.2H1728c0 19.2-6.4 32-6.4 51.2h115.2V640h-51.2V409.6h-160V640h-51.2V358.4H1664c0-19.2 6.4-32 6.4-51.2h-115.2V256z m-889.6 473.6c-12.8 12.8-32 19.2-57.6 19.2h-320c-51.2 0-70.4-25.6-70.4-76.8V377.6h57.6v76.8H576V313.6H192v-51.2h441.6v243.2H268.8v160c0 19.2 12.8 32 32 32h288c12.8 0 19.2-6.4 25.6-12.8 6.4-6.4 12.8-44.8 19.2-102.4l51.2 19.2c0 70.4-6.4 115.2-19.2 128z m608 25.6h-518.4v-44.8H832V467.2h140.8c0-6.4 6.4-19.2 6.4-25.6h-217.6v-44.8h224v-25.6h-185.6V256h428.8v115.2h-185.6v25.6h224v38.4h-230.4l-12.8 32h166.4v249.6h83.2v38.4zM1472 704c0 38.4-19.2 57.6-57.6 57.6h-64l-12.8-51.2c19.2 0 38.4 6.4 57.6 6.4 12.8 0 19.2-6.4 19.2-25.6v-384h-83.2V256H1536v51.2h-64V704z m64 64l-32-44.8c64-19.2 102.4-38.4 128-70.4 19.2-32 32-64 38.4-115.2V435.2h51.2v102.4c0 64-19.2 108.8-44.8 147.2-32 38.4-76.8 64-140.8 83.2z m281.6 0c-25.6-32-57.6-64-102.4-96l38.4-38.4c38.4 32 76.8 64 102.4 89.6l-38.4 44.8z" fill="#DE4F45" p-id="1436"></path></svg>