<?xml version="1.0" standalone="no"?><!DOCTYPE svg PUBLIC "-//W3C//DTD SVG 1.1//EN" "http://www.w3.org/Graphics/SVG/1.1/DTD/svg11.dtd"><svg t="1716897369541" class="icon" viewBox="0 0 2148 1024" version="1.1" xmlns="http://www.w3.org/2000/svg" p-id="3978" xmlns:xlink="http://www.w3.org/1999/xlink" width="419.53125" height="200"><path d="M102.307 0h1943.854c56.501 0 102.307 45.806 102.307 102.307v819.386c0 56.501-45.806 102.307-102.307 102.307H102.307C45.806 1024 0 978.194 0 921.693V102.307C0 45.806 45.806 0 102.307 0z m298.03 369.934v50.845H666.03a1280.483 1280.483 0 0 0-6.445 32.227H488.429v312.247H387.45v52.993h644.54v-52.99H931.013V453.01H726.19l7.164-32.227H1019.1v-50.849H741.948c1.43-11.46 2.148-22.203 3.578-33.66h228.456V193.76H445.455v142.514H677.49c-1.434 10.742-2.148 22.2-3.582 33.657h-273.57z m981.619-174.744v65.887h145.38c-2.148 20.77-5.015 40.821-7.878 60.872H1397.71v347.337h66.602V384.255h198.378v284.317h66.603V321.949h-141.08c2.859-19.336 5.726-39.387 8.59-60.872h151.822v-65.883h-366.67z m246.359 470.514l-46.552 44.403c52.997 42.97 95.251 83.076 125.326 120.314l49.415-49.414c-34.376-38.673-77.345-76.626-128.19-115.303zM1527.337 419.35v126.76c-2.868 57.29-18.622 104.556-45.837 140.365-27.211 33.657-78.775 61.59-156.12 83.79l36.525 58.009c80.208-23.633 137.501-56.575 173.307-98.83 35.809-45.832 55.86-106.708 58.727-183.334v-126.76h-66.602z m-316.544 401.045c46.551 0 70.185-24.348 70.185-73.048V261.077h80.208v-65.883h-253.52v65.883h104.565v469.081c0 20.055-8.598 30.079-25.071 30.079-21.485 0-45.118-1.43-69.466-4.297l15.04 64.454h78.06z" fill="#d81e06" p-id="3979" data-spm-anchor-id="a313x.search_index.0.i0.7cff3a8104V2AS" class=""></path><path d="M555.742 765.253h307.946v-37.958H555.742z m0-78.064h307.946v-35.805H555.742z m0-76.626h307.946v-35.81H555.742z m0-76.63h307.946v-35.09H555.742z m44.4-244.21v-46.548h-90.229v46.547z m309.383 0v-46.548h-90.236v46.547z m-151.108 0v-46.548h-97.4v46.547z" fill="#d81e06" p-id="3980"></path></svg>