<?xml version="1.0" standalone="no"?><!DOCTYPE svg PUBLIC "-//W3C//DTD SVG 1.1//EN" "http://www.w3.org/Graphics/SVG/1.1/DTD/svg11.dtd"><svg t="1715493271856" class="icon" viewBox="0 0 1024 1024" version="1.1" xmlns="http://www.w3.org/2000/svg" p-id="36151" xmlns:xlink="http://www.w3.org/1999/xlink" width="200" height="200"><path d="M676.3 349.9H348c-15.4 0-27.9-14.4-27.9-32s12.6-32 27.9-32h328.2c15.4 0 27.9 14.4 27.9 32 0.1 17.6-12.5 32-27.8 32zM697.1 564.3L544.6 406.7c-18.7-16.1-46.4-16.1-65 0L327 564.3c-4.6 5.5-7.1 12.3-7.2 19.5 0.4 17.7 15.1 31.7 32.8 31.3h45.8c9.2-0.4 16.9 6.6 17.4 15.8v73.8c0.1 18.4 15 33.3 33.4 33.3h126.5c17.2 0.8 31.6-12.6 32.4-29.7v-77c0.1-9.2 7.6-16.5 16.8-16.4h44.3c17.7 1.6 33.3-11.4 34.9-29.1v-2.4c0-7.2-2.6-14.1-7.2-19.6l0.2 0.5z" fill="#ffffff" p-id="36152"></path></svg>